<?xml version="1.0" standalone="no"?>
<!DOCTYPE svg PUBLIC "-//W3C//DTD SVG 1.1//EN" "http://www.w3.org/Graphics/SVG/1.1/DTD/svg11.dtd" >
<svg>
<metadata>
Created by FontForge 20090622 at Fri Oct 19 09:35:47 2018
 By deploy user
Copyright &#194;&#169; 2012 Natanael Gama (info@ndiscovered.com), with Reserved Font Name 'Cinzel'
</metadata>
<defs>
<font id="Cinzel-Black" horiz-adv-x="600" >
  <font-face 
    font-family="Cinzel Black"
    font-weight="900"
    font-stretch="normal"
    units-per-em="1000"
    panose-1="0 0 10 0 0 0 0 0 0 0"
    ascent="800"
    descent="-200"
    x-height="600"
    cap-height="700"
    bbox="-50 -306 1376 971"
    underline-thickness="50"
    underline-position="-50"
    unicode-range="U+0020-U+FB02"
  />
<missing-glyph horiz-adv-x="250" 
 />
    <glyph glyph-name=".notdef" horiz-adv-x="250" 
 />
    <glyph glyph-name=".null" horiz-adv-x="0" 
 />
    <glyph glyph-name="nonmarkingreturn" horiz-adv-x="333" 
 />
    <glyph glyph-name="space" unicode=" " horiz-adv-x="250" 
 />
    <glyph glyph-name="exclam" unicode="!" horiz-adv-x="295" 
d="M227 363l-45 -133h-70l-45 133l-22 339h205zM145.5 -14q-37.5 0 -64 26.5t-26.5 63.5t26.5 63.5t64 26.5t63.5 -26.5t26 -63.5t-26 -63.5t-63.5 -26.5z" />
    <glyph glyph-name="quotedbl" unicode="&#x22;" horiz-adv-x="394" 
d="M30 505q34 85 34 138q0 26 -5 57l132 14v-15.5t-6 -38t-20.5 -59t-45.5 -61t-72 -40.5zM204 505q34 85 34 138q0 26 -5 57l131 14v-15.5t-5.5 -38t-20.5 -59t-45.5 -61t-71.5 -40.5z" />
    <glyph glyph-name="numbersign" unicode="#" 
d="M546 437h-118l-28 -160h102v-60h-113l-38 -217h-62l38 217h-138l-38 -217h-62l38 217h-107v60h118l28 160h-102v60h113l35 203h62l-35 -203h138l35 203h62l-35 -203h107v-60zM338 277l28 160h-138l-28 -160h138z" />
    <glyph glyph-name="dollar" unicode="$" horiz-adv-x="615" 
d="M521 54q-75 -59 -200 -67l-7 -89l-48 3l7 85q-81 1 -141.5 19t-87.5 46q-9 22 -9 47.5t4 49.5q11 59 37 92h9q-1 -6 -1 -13q0 -68 51 -125t142 -65l17 227l-120 56q-69 31 -100 87q-25 44 -25 97q0 108 73 164q61 46 162 46q17 0 44 -1l6 75l48 -1l-6 -77q42 -3 77 -6h78
l-22 -163h-10q0 75 -73 107q-24 10 -53 14l-16 -205l123 -57q116 -53 116 -170t-75 -176zM225.5 526q21.5 -19 67.5 -39l17 -9l14 186q-72 -5 -103 -43q-17 -21 -17 -48.5t21.5 -46.5zM341 243l-16 -206q57 5 87.5 32.5t30.5 61.5t-24 60t-78 52z" />
    <glyph glyph-name="percent" unicode="%" horiz-adv-x="777" 
d="M363 642q16 -32 16 -60.5t-2 -44.5q-9 -83 -64.5 -129.5t-141 -46.5t-123.5 49q-28 37 -28 95q0 109 69 165q55 44 140 44h1h19.5t45 -7t41.5 -16q45 -26 83 -26q42 0 104 33q16 8 21 11l39 -17l-372 -711l-45 19l346 653q-37 -24 -75 -24t-74 13zM181.5 401.5
q25.5 0.5 43 36t23 84.5t5.5 76q0 76 -28 76t-48 -63q-21 -68 -21 -139t25.5 -70.5zM450 295q55 44 136 44t117 -43t36 -109q0 -101 -60 -151t-146 -50t-124 49q-28 37 -28 94q0 109 69 166zM510 94q0 -68 27 -68q24 0 41.5 35.5t23.5 85t6 76.5q0 76 -29 76
q-21 0 -37.5 -36t-24 -88t-7.5 -81z" />
    <glyph glyph-name="ampersand" unicode="&#x26;" horiz-adv-x="911" 
d="M921 0q-85 -10 -165 -10t-155 37q-81 -37 -200 -37q-164 0 -267 54q-109 58 -109 167q0 108 102 163q27 14 57 23q-43 69 -43 126.5t24 94.5t64 57q78 39 181 39q71 0 131.5 -17.5t83.5 -53.5l-47 -163h-9q-2 184 -116 184q-62 0 -89 -49q-13 -23 -13 -52
q0 -52 40 -100.5t136 -131.5l134 -115q8 35 8 74.5t-19.5 82t-56.5 42.5h-1h-15v10h256v-10h-14q-14 0 -21 -7.5t-9 -16t-3 -20.5q-12 -141 -53 -219q132 -115 187 -141zM390.5 52q36.5 -12 78 -12t79.5 20q-43 31 -109.5 86l-71.5 59q-75 62 -122 112q-8 -25 -8 -44
q0 -72 25 -117t58.5 -68.5t70 -35.5z" />
    <glyph glyph-name="quotesingle" unicode="'" horiz-adv-x="220" 
d="M30 505q34 85 34 138q0 26 -5 57l132 14v-15.5t-6 -38t-20.5 -59t-45.5 -61t-72 -40.5z" />
    <glyph glyph-name="parenleft" unicode="(" horiz-adv-x="478" 
d="M290 354q0 -335 157 -445l-6 -9q-90 21 -158.5 65t-109.5 102q-83 116 -83 267q0 161 83 267q88 111 270 131l6 -8q-159 -76 -159 -370z" />
    <glyph glyph-name="parenright" unicode=")" horiz-adv-x="478" 
d="M32 -91q157 110 157 445q0 294 -159 370l6 8q182 -20 269 -131q84 -106 84 -267q0 -151 -83 -267q-42 -58 -110.5 -102t-157.5 -65z" />
    <glyph glyph-name="asterisk" unicode="*" horiz-adv-x="390" 
d="M202 605l67 -31l59 -58l-35 -42l-51 -20l-38 73l-9 73l-8 -73l-37 -73l-51 20l-35 42l58 58l66 31l-72 -14l-81 13l3 54l30 46l73 -37l50 -53l-35 64l-14 81l53 14l53 -14l-12 -81l-36 -65l50 54l73 38l30 -46l3 -55l-82 -13z" />
    <glyph glyph-name="plus" unicode="+" horiz-adv-x="481" 
d="M442 342v-65h-169v-168h-65v168h-168v65h168v169h65v-169h169z" />
    <glyph glyph-name="comma" unicode="," horiz-adv-x="260" 
d="M41 -116q30 13 41 43q4 12 4 21q0 32 -25.5 61.5t-25.5 66.5q0 49 33 73q22 17 43 17q73 0 99 -58q15 -37 15 -73t-16 -69q-34 -70 -96 -91q-21 -7 -38 -7t-30 3z" />
    <glyph glyph-name="hyphen" unicode="-" horiz-adv-x="380" 
d="M30 292l10 40h300l10 -40l-10 -41h-300z" />
    <glyph glyph-name="period" unicode="." horiz-adv-x="250" 
d="M125 -14q-37 0 -63.5 26.5t-26.5 63.5t26.5 63.5t63.5 26.5t63.5 -26.5t26.5 -63.5t-26.5 -63.5t-63.5 -26.5z" />
    <glyph glyph-name="slash" unicode="/" horiz-adv-x="439" 
d="M10 14l361 709l59 -27l-361 -710z" />
    <glyph glyph-name="zero" unicode="0" horiz-adv-x="690" 
d="M345 714q145 0 227.5 -99t82.5 -265t-82.5 -265t-227.5 -99t-227.5 99t-82.5 265t82.5 265t227.5 99zM345 664q-51 0 -75.5 -76.5t-24.5 -237.5q0 -265 69 -306q14 -8 31 -8q52 0 76 76.5t24 237.5q0 240 -55 295q-19 19 -45 19z" />
    <glyph glyph-name="one" unicode="1" horiz-adv-x="424" 
d="M48 640h-18v10q60 3 145.5 19.5t132.5 44.5h10v-650q0 -23 16 -38.5t39 -15.5h21v-10h-357l1 10h21q22 0 38.5 16t16.5 38v507q0 69 -66 69z" />
    <glyph glyph-name="two" unicode="2" horiz-adv-x="658" 
d="M308 714q65 0 129.5 -24t102.5 -71t38 -110q0 -89 -74 -167q-58 -63 -145 -120l-41 -26t-31 -20h190q45 0 78 25.5t59 79.5h10l-68 -281h-520v10l72.5 87.5l76 90t67.5 85.5t58 89q53 92 53 168q0 65 -35 102q-30 32 -81 32h-12q-129 -11 -128 -208h-10l-67 180
q90 78 278 78z" />
    <glyph glyph-name="three" unicode="3" horiz-adv-x="602" 
d="M279 712q120 0 187 -45t67 -127q0 -65 -40.5 -104t-94.5 -41q62 -12 110 -54q54 -49 54 -137.5t-51 -152.5q-96 -121 -289 -121q-98 0 -183 38l2 10h11q75 0 142.5 27.5t110 83.5t42.5 127q0 44 -16.5 77.5t-44.5 52.5q-54 37 -124 38l2 10h6q66 0 112 46.5t46 107.5
q0 66 -41 94q-28 21 -67 21q-71 0 -100 -53q-23 -43 -23 -125v-17h-10l-57 173q39 32 104.5 51.5t144.5 19.5z" />
    <glyph glyph-name="four" unicode="4" horiz-adv-x="643" 
d="M511 189v-126q0 -22 16 -37.5t39 -15.5h11v-10h-338l1 10h10q23 0 39 15t17 37v127h-321v10l516 515h10v-420h43q26 0 40.5 9.5t24.5 30.5h10l-31 -145h-87zM306 294v147l-152 -147h152z" />
    <glyph glyph-name="five" unicode="5" horiz-adv-x="591" 
d="M152 424q71 16 124 16t93 -11q87 -24 129.5 -83.5t42.5 -137.5q0 -68 -29 -120.5t-73 -84.5q-103 -76 -244 -76q-106 0 -185 42l2 10h18.5t48.5 5.5t76.5 20t78 36.5t60.5 57q28 40 28 88.5t-33 80.5q-36 34 -97 34t-133 -27l-9 6l83 384l298 25q54 0 79 50h10l-42 -207
l-307 -25z" />
    <glyph glyph-name="six" unicode="6" horiz-adv-x="675" 
d="M334 419q25 19 54.5 26t46.5 7q54 0 87 -16t59 -42q54 -53 54 -154q0 -112 -72 -182q-76 -73 -227 -73q-296 0 -296 330q0 218 128 332q105 94 293 94q47 0 98 -7l4 -7q-90 -28 -129 -51t-61 -39t-38 -37t-28 -39.5t-19.5 -44.5t-12 -47.5t-7.5 -53.5q-3 -50 -3 -112.5
t1.5 -98.5t6.5 -68.5t15 -51.5q20 -39 61 -39q60 0 74 73q7 37 7 108q0 129 -50 150q-13 5 -31.5 5t-43.5 -16l-7 8q11 27 36 46z" />
    <glyph glyph-name="seven" unicode="7" horiz-adv-x="572" 
d="M90 525q-29 0 -46 -14.5t-29 -45.5h-10l28 233h530l-128 -295q-29 -66 -72 -195t-65 -208h-170q31 50 109 186t121 228l52 111h-320z" />
    <glyph glyph-name="eight" unicode="8" horiz-adv-x="636" 
d="M611 200q0 -103 -84 -158.5t-229 -55.5q-202 0 -256 101q-17 32 -17 72q0 67 39 107t96 60q-92 72 -92 174t69 158t174 56t178 -48t73 -122q0 -51 -37.5 -85.5t-94.5 -48.5q117 -61 148 -104q33 -46 33 -106zM253 640q-20 -23 -20 -62t28 -66t111 -71q24 45 24 106
q0 54 -23 84q-24 32 -62 32t-58 -23zM322 35q39 0 72 23t33 59.5t-34 67.5t-99 64t-77 40q-23 -41 -23 -105t29 -103q34 -46 99 -46z" />
    <glyph glyph-name="nine" unicode="9" horiz-adv-x="675" 
d="M341 277q-25 -19 -54.5 -26t-46.5 -7q-54 0 -87 16t-59 42q-54 53 -54 155q0 137 104 205q74 49 195 49q296 0 296 -330q0 -218 -129 -332q-104 -93 -292 -93q-47 0 -98 6l-4 7q90 28 129 51t61 39t38 37t28 39.5t19.5 44.5t12 47.5t6.5 53.5q4 50 4 119.5t-3 111.5
t-12 75.5t-26 48t-41.5 14.5t-39.5 -9.5t-23.5 -24t-12.5 -39.5q-7 -36 -7 -107q0 -129 50 -150q13 -5 31.5 -5t43.5 16l7 -8q-11 -27 -36 -46z" />
    <glyph glyph-name="colon" unicode=":" horiz-adv-x="250" 
d="M125 369q-37 0 -63.5 26t-26.5 63.5t26.5 64t63.5 26.5t63.5 -26.5t26.5 -64t-26.5 -63.5t-63.5 -26zM125 -14q-37 0 -63.5 26.5t-26.5 63.5t26.5 63.5t63.5 26.5t63.5 -26.5t26.5 -63.5t-26.5 -63.5t-63.5 -26.5z" />
    <glyph glyph-name="semicolon" unicode=";" horiz-adv-x="260" 
d="M125 397q-37 0 -63.5 26.5t-26.5 64t26.5 63.5t63.5 26t63.5 -26t26.5 -63.5t-26.5 -64t-63.5 -26.5zM41 -116q30 13 41 43q4 12 4 21q0 32 -25.5 61.5t-25.5 66.5q0 49 33 73q22 17 43 17q73 0 99 -58q15 -37 15 -73t-16 -69q-34 -70 -96 -91q-21 -7 -38 -7t-30 3z" />
    <glyph glyph-name="less" unicode="&#x3c;" horiz-adv-x="501" 
d="M442 526v-71l-309 -145l309 -146v-71l-402 187v59z" />
    <glyph glyph-name="equal" unicode="=" horiz-adv-x="481" 
d="M40 354v65h402v-65h-402zM40 179v65h402v-65h-402z" />
    <glyph glyph-name="greater" unicode="&#x3e;" horiz-adv-x="481" 
d="M40 526l402 -187v-59l-402 -187v71l309 146l-309 145v71z" />
    <glyph glyph-name="question" unicode="?" horiz-adv-x="493" 
d="M248 539q0 125 -91 125q-97 0 -97 -154h-10l-50 115q23 40 81.5 64.5t139.5 24.5q117 0 179.5 -46t62.5 -131q0 -58 -32.5 -99t-114.5 -101q-52 -38 -58 -59q-8 -27 7 -57l-9 -6q-65 17 -90 66q-11 21 -11 36.5t1.5 29.5t12.5 32.5t24 32.5t26 30q29 36 29 97zM289 12.5
q-26 -26.5 -63.5 -26.5t-64 26.5t-26.5 63.5t26.5 63.5t64 26.5t63.5 -26.5t26 -63.5t-26 -63.5z" />
    <glyph glyph-name="at" unicode="@" horiz-adv-x="998" 
d="M84 114q-64 55 -64 153q0 58 27 128q41 100 130 173t208 105q78 21 140 21q253 0 366 -131q83 -97 83 -236q0 -165 -99 -285.5t-268 -156.5q-49 -11 -104 -11q-132 0 -295 63l-4 10q107 -44 202 -44q126 0 225 63q82 54 131 147q58 107 58 228t-44 194q-50 84 -151 107
q-39 7 -61 7h-27q-87 -2 -182 -67q-93 -64 -153 -192q-52 -108 -52 -191q0 -43 16 -61.5t34 -19.5t31.5 4t25.5 13t24.5 20t23.5 24.5t22.5 28l21.5 28.5q25 36 40 55l127 173q46 57 55 77h6l84 -404q9 -47 40 -47h5l-2 -7h-238l1 7h7q15 0 28.5 12t13.5 21.5t-1 13.5l-8 53
h-136q-48 -62 -85 -89q-40 -28 -97 -28t-105 41zM483 346l-85 -121h104z" />
    <glyph glyph-name="A" unicode="A" horiz-adv-x="720" 
d="M752 10h8v-10h-379v10h9q22 0 33 13.5t11 25t-5 24.5l-39 93h-214l-40 -93q-5 -13 -5 -21t3.5 -17.5t15 -17t24.5 -7.5h9v-10h-223v10h9q23 0 45.5 13.5t37.5 40.5l233 511q53 112 57 149h9l317 -659q32 -55 84 -55zM198 216h171l-84 200z" />
    <glyph glyph-name="B" unicode="B" horiz-adv-x="731" 
d="M394 0h-364v10h13q36 0 55 31q8 14 9 31v556q-1 36 -32 54q-15 8 -32 8h-13v10h348q278 0 278 -174q0 -101 -82 -135q-23 -9 -49 -10q77 -4 129.5 -52.5t52.5 -128.5q0 -100 -85 -150t-228 -50zM326 52q65 0 105.5 39t40.5 118.5t-32 120t-94 40.5v9q95 0 95 135.5
t-116 135.5v0h-13v-598h13h1z" />
    <glyph glyph-name="C" unicode="C" horiz-adv-x="793" 
d="M35 351q0 113 52 195t150.5 125t241.5 43t251 -46l-10 -191h-9q-29 101 -84 144t-137 43q-111 0 -173 -82t-62 -228.5t57.5 -230.5t159.5 -87q118 0 171 56q50 52 78 200h8l24 -182q-74 -124 -279.5 -123.5t-322 96t-116.5 268.5z" />
    <glyph glyph-name="D" unicode="D" horiz-adv-x="842" 
d="M808 350q0 -165 -105.5 -257.5t-293.5 -92.5h-379v10h13q26 0 44.5 18.5t19.5 44.5v560q0 24 -19.5 40.5t-44.5 16.5h-12l-1 10h379q188 0 293.5 -92.5t105.5 -257.5zM312 650v-600h77q93 0 146 79.5t53 220.5t-53 220.5t-146 79.5h-77z" />
    <glyph glyph-name="E" unicode="E" horiz-adv-x="667" 
d="M43 10q26 0 44.5 18.5t19.5 44.5v554q-1 32 -27 51q-16 12 -37 12h-13v10h443q31 0 67.5 6t51.5 12v-206h-10v8q0 80 -58 112q-28 16 -67 17h-145v-279h109q48 1 78 31.5t30 78.5v4h10v-278h-10v5q0 47 -30 77.5t-77 31.5h-110v-269h123q73 0 129 48t79 133h10l-38 -232
h-585v10h13z" />
    <glyph glyph-name="F" unicode="F" horiz-adv-x="631" 
d="M312 649v-279h109q48 1 78 31.5t30 77.5v5h10v-278h-10v5q0 47 -30 77.5t-77 31.5h-110v-247q0 -26 19 -44.5t45 -18.5h13v-10h-359v10h13q26 0 44.5 18.5t19.5 44.5v554q-1 26 -19.5 44.5t-44.5 18.5h-13v10h443q43 0 76 7t43 11v-206h-10v8q0 80 -58 112q-28 16 -67 17
h-145z" />
    <glyph glyph-name="G" unicode="G" horiz-adv-x="861" 
d="M425 -14q-179 0 -284.5 97.5t-105.5 268t106 266.5t294 96q81 0 167 -13.5t131 -32.5l-10 -191h-9q-52 187 -229 187q-230 0 -230 -322q0 -146 47.5 -226t144.5 -80q53 0 92.5 28.5t39.5 78.5l1 137q0 22 -13.5 33.5t-37.5 11.5h-16v10h336v-10h-15q-25 0 -38 -11.5
t-12 -33.5v-165q-56 -71 -203 -109q-76 -20 -156 -20z" />
    <glyph glyph-name="H" unicode="H" horiz-adv-x="893" 
d="M517 10q26 0 44.5 18t19.5 44v253h-269v-252q1 -37 32 -55q15 -8 32 -8h13v-10h-359v10h13q26 0 44.5 18.5t19.5 44.5v555q-1 26 -19.5 44t-44.5 18h-13v10h359v-10h-13q-26 0 -44.5 -18t-19.5 -44v-253h269v253q-1 26 -19.5 44t-44.5 18h-13v10h359v-10h-13
q-36 0 -55 -31q-8 -15 -9 -32v-554q1 -26 19.5 -44.5t44.5 -18.5h13v-10h-359v10h13z" />
    <glyph glyph-name="I" unicode="I" horiz-adv-x="418" 
d="M43 10q26 0 44.5 18.5t19.5 44.5v555q-1 26 -19.5 44t-44.5 18h-13v10h359v-10h-13q-26 0 -44.5 -18t-19.5 -44v-555q0 -26 19 -44.5t45 -18.5h13v-10h-359v10h13z" />
    <glyph glyph-name="J" unicode="J" horiz-adv-x="424" 
d="M381 690q-36 0 -55 -31q-8 -14 -9 -32v-577q0 -82 -46.5 -144t-120.5 -89q-53 -20 -110 -20q-22 0 -45 3v9q117 53 117 244v574q-1 26 -19.5 44.5t-44.5 18.5h-13v10h359v-10h-13z" />
    <glyph glyph-name="K" unicode="K" horiz-adv-x="822" 
d="M43 10q26 0 44.5 18.5t19.5 44.5v555q-1 26 -19.5 44t-44.5 18h-13v10h359v-10h-13q-26 0 -44.5 -18t-19.5 -44v-555q0 -26 19 -44.5t45 -18.5h13v-10h-359v10h13zM848 0h-108q-184 0 -257 100q-30 40 -84.5 128.5t-54.5 89.5l239 326q7 10 7 18t-3 14q-7 15 -28 15h-10
v9h241v-9h-4q-67 0 -110 -49l-169 -204l234 -352q49 -74 107 -76v-10z" />
    <glyph glyph-name="L" unicode="L" horiz-adv-x="652" 
d="M43 10q26 0 44.5 18.5t19.5 44.5v554q-1 37 -32 55q-15 8 -32 8h-13v10h359v-10h-13q-26 0 -45 -18.5t-19 -44.5v-576h123q73 0 129 48t79 133h10l-38 -232h-585v10h13z" />
    <glyph glyph-name="M" unicode="M" horiz-adv-x="968" 
d="M978 10h16v-10h-355v9h16q16 0 27.5 13.5t11.5 29.5l-38 292l-170 -252q-17 -24 -30 -58t-12 -58h-9l-260 359l-35 -283q0 -16 11.5 -29.5t27.5 -13.5h16v-9h-220v10h16q28 0 48.5 17t24.5 46l88 641h9l336 -459l308 459h9l91 -641q7 -40 40 -56q15 -7 33 -7z" />
    <glyph glyph-name="N" unicode="N" horiz-adv-x="881" 
d="M843 690q-25 0 -43 -17.5t-19 -42.5v-516q0 -74 10 -114l3 -14h-9l-479 426v-341q0 -36 31 -53q14 -8 30 -8h19v-10h-366v10h19q25 0 43 17.5t18 43.5v519q0 70 -10 111l-3 14h10l479 -426v340q-1 26 -19 43.5t-43 17.5h-19v10h366v-10h-18z" />
    <glyph glyph-name="O" unicode="O" horiz-adv-x="905" 
d="M450 714q129 0 222.5 -43t143.5 -125.5t50 -195.5q0 -171 -111 -267.5t-305 -96.5t-304.5 96.5t-110.5 267.5t110.5 267.5t304.5 96.5zM450.5 36q91.5 0 143 83t51.5 231t-51.5 231t-143 83t-143 -83t-51.5 -231t51.5 -231t143 -83z" />
    <glyph glyph-name="P" unicode="P" horiz-adv-x="707" 
d="M693 495q0 -46 -18.5 -89t-53.5 -72q-63 -51 -134 -51q-72 0 -136 46v10q36 6 54.5 19.5t29.5 24.5q25 27 33.5 63t8.5 51q0 79 -34 116t-91 37h-35v-577q1 -26 19.5 -44.5t44.5 -18.5h13v-10h-359v10h13q36 0 55 31q9 15 9 32v560q-3 24 -21 40.5t-43 16.5h-12l-1 10
h381q137 0 210 -57q67 -51 67 -148z" />
    <glyph glyph-name="Q" unicode="Q" horiz-adv-x="912" 
d="M1269 -264q-72 -42 -176 -42q-36 0 -108 16.5t-142 55t-128 79.5t-94 69t-81 49.5t-87 22.5q-193 1 -303 97t-110 267t110.5 267.5t304.5 96.5q129 0 222.5 -43t143.5 -125.5t50 -195.5q0 -172 -111 -268q-54 -47 -131 -71q84 -14 147 -35.5l145 -51.5q135 -49 249 -49
t199 61l7 -3q0 -64 -27.5 -115.5t-79.5 -81.5zM261 350q0 -148 51.5 -231t143 -83t143 83t51.5 231t-51.5 231t-143 83t-143 -83t-51.5 -231z" />
    <glyph glyph-name="R" unicode="R" horiz-adv-x="793" 
d="M675 590q16 -35 16 -72.5t-8 -66t-25 -56.5q-37 -60 -127 -74q39 -11 70 -39q33 -28 62 -78q75 -128 115 -165q30 -28 76 -29v-10h-125q-130 0 -186 29q-80 41 -114 141q-9 29 -15.5 61t-11 46.5t-10.5 27t-13 19.5q-12 12 -28 18v10h16q58 0 87 53q15 28 18.5 60.5
t3.5 40.5v10q-7 132 -114 132h-44v-575q0 -26 19 -44.5t45 -18.5h12v-10h-359v10h13q26 0 44.5 18t19.5 44v555q-1 37 -32 55q-15 8 -32 8h-13v10h391q196 0 249 -110z" />
    <glyph glyph-name="S" unicode="S" horiz-adv-x="645" 
d="M520 45.5q-86 -59.5 -229 -59.5q-83 0 -146 18.5t-91 46.5q-9 22 -9 47.5t4 49.5q11 59 37 92h9q-1 -6 -1 -13q0 -74 58.5 -132.5t159.5 -58.5q68 0 104.5 28.5t36.5 65t-25 62.5t-81 52l-163 76q-69 31 -100 87q-25 44 -25 97q0 108 73 164q61 46 162 46q66 0 169 -10
h78l-22 -163h-10q0 55 -43 89t-109.5 34t-103 -23t-39.5 -61q-4 -47 60 -80q11 -6 29 -13l187 -87q116 -53 116 -174t-86 -180.5z" />
    <glyph glyph-name="T" unicode="T" horiz-adv-x="698" 
d="M452 651v-579q1 -26 19.5 -44t44.5 -18h13v-10h-359v10h13q26 0 44.5 18t19.5 43v580h-99q-60 -1 -94 -35.5t-34 -94.5v-7l-10 -1v206q14 -6 50.5 -12t67.5 -6h443q31 0 67 6t51 12v-206l-10 1v7q0 81 -60 114q-29 15 -69 16h-98z" />
    <glyph glyph-name="U" unicode="U" horiz-adv-x="845" 
d="M825 690h-16q-21 0 -36.5 -13.5t-16.5 -33.5v-386q0 -127 -78.5 -199t-221.5 -72q-179 0 -268 70t-89 200v384q0 22 -15.5 36t-37.5 14h-16v10h343v-10h-16q-22 0 -37 -13.5t-16 -34.5v-382q0 -105 48 -164t134 -59t134.5 55.5t48.5 154.5v395q-1 21 -16 34.5t-37 13.5
h-16v10h225v-10z" />
    <glyph glyph-name="V" unicode="V" horiz-adv-x="720" 
d="M760 690h-9q-52 0 -83 -54l-233 -511q-53 -112 -57 -149h-9l-317 659q-31 55 -84 55h-8v10h379v-10h-9q-21 0 -31.5 -13.5t-10.5 -25.5t4 -24l143 -343l149 343q6 13 6 24.5t-11 25t-33 13.5h-9v10h223v-10z" />
    <glyph glyph-name="W" unicode="W" horiz-adv-x="964" 
d="M1004 690h-8q-25 0 -50 -14.5t-36 -42.5l-170 -544q-15 -47 -15 -94q0 -9 1 -17h-10l-231 435l-158 -324q-26 -56 -27 -111h-9l-247 655q-14 29 -37.5 43t-48.5 14h-8v10h359v-10h-9q-30 0 -40 -28q-1 -6 -1 -14t4 -20l109 -272l173 360l9 -1l199 -368l80 281
q2 11 2 19.5t-3 18.5t-13 17t-24 7h-9v10h218v-10z" />
    <glyph glyph-name="X" unicode="X" horiz-adv-x="773" 
d="M419 10q21 0 34 21q6 10 6 20t-6 21l-132 201l-142 -201q-17 -30 10 -52q12 -10 25 -10h13v-10h-260v10h14q54 0 99 57l199 272l-191 293q-17 24 -44 41t-57 17h-14v10h402v-10h-12q-22 0 -34 -21q-7 -10 -7 -20.5t6 -20.5l117 -177l113 177q6 10 6 20.5t-6 20.5
q-13 21 -35 21h-12l-1 10h259v-10h-14q-29 0 -55 -16.5t-44 -41.5l-167 -249l206 -315q16 -24 43.5 -41t57.5 -17h14v-10h-404v10h13z" />
    <glyph glyph-name="Y" unicode="Y" horiz-adv-x="729" 
d="M775 690h-14q-30 0 -57.5 -17t-43.5 -42l-196 -309v-249q0 -26 18.5 -44.5t45.5 -18.5h12v-10h-358v10h13q26 0 44.5 18t19.5 44v250l-191 311q-25 39 -69 52q-15 5 -30 5h-14v10h386v-10h-12q-22 0 -34 -20q-7 -11 -7 -21.5t6 -20.5l137 -247l142 247q6 10 6 20t-7 21
q-13 21 -34 21h-12v10h249v-10z" />
    <glyph glyph-name="Z" unicode="Z" horiz-adv-x="668" 
d="M49 719q15 -6 52.5 -12t53 -6h15.5h345q42 0 71 5t35 8v-9l-336 -655h141q73 0 129 48.5t79 133.5h10l-38 -232h-571v9l332 642h-180q-60 -1 -94 -35.5t-34 -94.5v-8h-10v206z" />
    <glyph glyph-name="bracketleft" unicode="[" horiz-adv-x="472" 
d="M120 -90v812h309v-10l-104 -50v-692l107 -50v-10h-312z" />
    <glyph glyph-name="backslash" unicode="\" horiz-adv-x="439" 
d="M10 696l59 27l361 -709l-59 -28z" />
    <glyph glyph-name="bracketright" unicode="]" horiz-adv-x="472" 
d="M43 722h309v-812h-312v10l107 50v692l-104 50v10z" />
    <glyph glyph-name="asciicircum" unicode="^" horiz-adv-x="572" 
d="M253 381h68l217 -209h-89l-162 153l-163 -153h-89z" />
    <glyph glyph-name="underscore" unicode="_" horiz-adv-x="500" 
d="M0 -110v50h500v-50h-500z" />
    <glyph glyph-name="grave" unicode="`" 
d="M294 750l-7 -7q-53 6 -118 33t-115 60q21 73 85 100q43 -37 89.5 -89.5t65.5 -96.5z" />
    <glyph glyph-name="a" unicode="a" horiz-adv-x="632" 
d="M668 10h8v-10h-352v10h8q20 0 29.5 10.5t9.5 20t-5 20.5l-29 66h-185l-30 -69q-4 -9 -4 -18t9.5 -19.5t29.5 -10.5h7v-10h-206v10h8q21 0 42.5 12t33.5 37l206 444q49 107 52 133h8l282 -575q26 -51 78 -51zM171 172h146l-73 168z" />
    <glyph glyph-name="b" unicode="b" horiz-adv-x="626" 
d="M552 525q19 -31 19 -82.5t-32 -83.5t-77 -32q62 -3 105.5 -43.5t43.5 -110.5q0 -88 -73 -130.5t-197 -42.5h-318v10h11q22 0 37 15t15 37v476q0 22 -15 37t-37 15h-11v10h311q172 0 218 -75zM359 81.5q31 33.5 31 100.5t-18.5 101t-63.5 34h-2v8q37 0 50.5 28t13.5 82
q0 120 -89 120h-3v-509q50 2 81 35.5z" />
    <glyph glyph-name="c" unicode="c" horiz-adv-x="668" 
d="M124 70q-101 81 -101 229.5t100 230.5t281 82q127 0 218 -36l-13 -170h-7q-26 88 -70.5 124.5t-110.5 36.5q-99 0 -146.5 -70.5t-47.5 -192.5t46 -194q46 -74 131 -77q70 0 106 21q39 22 59 68q19 44 37 128h7l26 -160q-60 -102 -237 -101.5t-278 81.5z" />
    <glyph glyph-name="d" unicode="d" horiz-adv-x="741" 
d="M717 299.5q0 -142.5 -94 -221t-264 -78.5h-340v10h12q23 0 39.5 16t16.5 38v475q-2 22 -18 36.5t-39 14.5h-12v10h341q170 0 264 -79t94 -221.5zM283 555v-509h57q80 0 126 67t46 187q0 162 -80 225q-39 30 -92 30h-57z" />
    <glyph glyph-name="e" unicode="e" horiz-adv-x="575" 
d="M21 0v10h11q21 0 32 11q20 19 20 41v475q0 23 -15.5 38t-36.5 15h-11v10h390q25 0 56 5t43 10v-189h-10v5q0 58 -30.5 90t-86.5 33h-103v-235h77q44 1 71.5 29.5t27.5 73.5v2h10v-258h-10v4q0 44 -27.5 73t-71.5 29h-77v-226h96q60 0 109 44t67 120h9l-28 -210h-512z" />
    <glyph glyph-name="f" unicode="f" horiz-adv-x="542" 
d="M510 424h-10v6q0 78 -54 108q-27 15 -65 16h-101v-235h76q45 1 72.5 29.5t27.5 73.5v2h10v-258h-10v4q0 44 -27.5 73t-72.5 29h-76v-210q1 -31 26 -45q12 -7 27 -7h10v-10h-322v10h11q21 0 36.5 15t15.5 37v475q0 23 -15.5 38t-36.5 15h-11v10h390q25 0 56 5t43 10v-191z
" />
    <glyph glyph-name="g" unicode="g" horiz-adv-x="723" 
d="M354.5 -12q-100.5 0 -174.5 37t-115 108t-41 169q0 146 89.5 228t251.5 82q68 0 144 -10.5t113 -25.5l-14 -170h-7q-45 161 -185 161q-97 0 -142.5 -69.5t-45.5 -205.5q0 -259 149 -259q41 0 67.5 23.5t26.5 56.5q0 7 -1 15v112q0 19 -11 29.5t-31 10.5h-14v8h305v-8h-12
q-43 0 -43 -40v-142q-31 -42 -120 -76t-189.5 -34z" />
    <glyph glyph-name="h" unicode="h" horiz-adv-x="754" 
d="M670 538v-476q0 -31 26 -45q12 -7 26 -7h11v-10h-321v10h10q22 0 37 15t16 37v216h-195v-216q1 -22 16 -37t37 -15h10v-10h-322v10h11q21 0 36.5 15t15.5 37v476q0 22 -15.5 37t-36.5 15h-11v10h322v-10h-10q-22 0 -37 -15t-16 -37v-214h195v214q-1 22 -16 37t-37 15h-10
v10h322v-10h-11q-22 0 -37.5 -14.5t-15.5 -37.5z" />
    <glyph glyph-name="i" unicode="i" horiz-adv-x="363" 
d="M331 10h11v-10h-321v10h11q21 0 36 15t15 37v476q0 22 -15 37t-36 15h-11v10h320v-10h-10q-30 0 -44 -25q-7 -12 -8 -27v-476q1 -22 16 -37t36 -15z" />
    <glyph glyph-name="j" unicode="j" horiz-adv-x="361" 
d="M330 590q-21 0 -36.5 -15.5t-17.5 -37.5v-486q0 -75 -42.5 -130.5t-107.5 -79.5q-47 -16 -82 -16t-57 3v9q61 29 79 93q14 52 14 124v481q0 23 -16 39t-38 16h-10l-1 10h326v-10h-11z" />
    <glyph glyph-name="k" unicode="k" horiz-adv-x="705" 
d="M335 10h10v-10h-322v10h10q22 0 37 15t16 37v477q-1 22 -16.5 37t-36.5 15h-11v10h323v-10h-10q-22 0 -37.5 -15t-15.5 -38v-476q0 -22 15.5 -37t37.5 -15zM635 0h-11q-155 0 -220 90q-28 38 -62.5 107.5t-34.5 70.5l199 284q11 15 4.5 27.5t-23.5 12.5h-8v8h204v-8h-4
q-52 0 -87 -37l-134 -168l189 -309q42 -68 91 -70v-8h-103z" />
    <glyph glyph-name="l" unicode="l" horiz-adv-x="557" 
d="M533 0h-512v10h11q21 0 36.5 15t15.5 37v476q0 22 -15.5 37t-36.5 15h-11v10h323v-10h-11q-35 0 -48 -31q-5 -10 -5 -21v-492h96q60 0 108.5 44t67.5 120h10z" />
    <glyph glyph-name="m" unicode="m" horiz-adv-x="854" 
d="M549 0v10h14q18 0 26 12.5t7 25.5l-33 224l-138 -193q-15 -21 -26 -49t-11 -38.5v-13.5h-8l-225 280l-27 -210q-1 -10 5 -20q10 -18 28 -18h14v-10h-194v10h13q25 0 43 13.5t21 38.5l78 550h8l298 -375l267 375h9l80 -555q6 -22 22.5 -34.5t38.5 -12.5h14v-10h-324z" />
    <glyph glyph-name="n" unicode="n" horiz-adv-x="779" 
d="M768 590h-17q-23 0 -39 -14t-16 -35v-444q0 -65 9 -98l3 -11h-9l-420 353v-281q1 -21 16.5 -35.5t38.5 -14.5h16v-10h-338v10h16q23 0 39 14.5t16 35.5v447q0 60 -9 95l-3 11h9l419 -354v281q0 21 -15.5 35.5t-38.5 14.5h-17v10h340v-10z" />
    <glyph glyph-name="o" unicode="o" horiz-adv-x="779" 
d="M121.5 530q96.5 82 268 82t268 -82t96.5 -230t-96.5 -230t-268 -82t-268 82t-96.5 230t96.5 230zM270 102.5q41 -69.5 119 -69.5t119 69.5t41 196.5q0 173 -72 236q-36 32 -88 32q-78 0 -119 -69.5t-41 -197.5t41 -197.5z" />
    <glyph glyph-name="p" unicode="p" horiz-adv-x="607" 
d="M307 282v8q36 5 61 55q20 41 20 91q0 74 -46 105q-21 14 -50 14h-12v-493q1 -23 15 -37.5t37 -14.5h10v-10h-320v10h11q21 0 36 15t15 37v477q-1 22 -16 36.5t-36 14.5h-11v10h336q143 0 200 -69q35 -43 35 -108q0 -39 -14.5 -77t-44.5 -63q-52 -44 -112 -44t-114 43z
" />
    <glyph glyph-name="q" unicode="q" horiz-adv-x="760" 
d="M1138 -51l6 -3v-7q0 -99 -61 -157q-59 -55 -160 -55q-114 0 -246 77q-65 37 -139 100q-66 57 -98 70.5t-59 13.5h-3q-167 0 -260 82t-93 230t93.5 230t261 82t261 -82t93.5 -231q0 -144 -89 -225q-43 -40 -106 -62q70 -10 118 -26.5l125 -44.5q226 -83 356 8zM268 497.5
q-38 -69.5 -38 -198t38 -197.5t111.5 -69t111.5 69t38 197q0 197 -84 250q-29 18 -66 18q-73 0 -111 -69.5z" />
    <glyph glyph-name="r" unicode="r" horiz-adv-x="678" 
d="M604 435q0 -52 -25 -96q-29 -51 -103 -64q35 -9 64.5 -35.5t39 -43.5t19.5 -38q59 -115 93 -137q18 -11 45 -11v-10h-118q-99 0 -129 13q-41 18 -59.5 40.5t-35.5 52.5q-27 46 -44 131q-10 45 -33 57v8h5q28 0 49 25.5t27 83.5v6q5 45 -8 74.5t-23 39.5t-26 15
q-17 6 -31 6h-20v-490q0 -25 16.5 -38.5t36.5 -13.5h9v-10h-321v10h11q21 0 36 15t15 37v476q0 22 -14.5 37t-35.5 15h-12v10h344q228 0 228 -165z" />
    <glyph glyph-name="s" unicode="s" horiz-adv-x="549" 
d="M514 202q0 -110 -79 -165q-70 -49 -194 -49q-74 0 -123.5 16.5t-68.5 40.5q-9 21 -9 44t4 44q11 53 35 83h6v-9q0 -67 48 -120q49 -53 135 -53q51 0 77 23t26 53t-23.5 53t-76.5 46l-105 49q-64 27 -94 79q-23 40 -23 88q0 16 2 32q22 155 190 155q56 0 151 -9h67
l-24 -146h-6q0 49 -35.5 78.5t-88.5 29.5q-102 0 -109 -66q-3 -32 24 -51q21 -14 58 -29l129 -59q53 -23 80 -64t27 -94z" />
    <glyph glyph-name="t" unicode="t" horiz-adv-x="613" 
d="M606 428h-10v5q1 77 -54 106q-26 15 -64 15h-74v-492q0 -22 15.5 -37t37.5 -15h10v-10h-321v10h10q21 0 36.5 15t15.5 37v492h-73q-86 -1 -110 -70q-8 -23 -8 -51v-5h-10v188q13 -5 44 -10t56 -5h399q26 0 59 5t41 10v-188z" />
    <glyph glyph-name="u" unicode="u" horiz-adv-x="708" 
d="M697 592h-13q-18 0 -31 -12.5t-13 -30.5v-326q0 -111 -66 -173t-188 -62q-310 0 -310 233v328q0 29 -27 40q-8 3 -17 3h-13v8h310v-8h-14q-18 0 -30.5 -12t-12.5 -31v-326q0 -120 67 -165q33 -22 79 -22q68 0 105 46t38 130v337q-1 19 -13.5 31t-30.5 12h-13v8h193v-8z
" />
    <glyph glyph-name="v" unicode="v" horiz-adv-x="620" 
d="M663 590h-8q-49 0 -74 -46l-202 -422q-49 -104 -52 -134h-8l-281 557q-26 45 -73 45h-7v10h351v-9h-8q-19 0 -28.5 -11.5t-9.5 -21.5t4 -20l116 -257l116 257q5 11 5 21t-9 21t-29 11h-8v9h205v-10z" />
    <glyph glyph-name="w" unicode="w" horiz-adv-x="851" 
d="M883 590h-7q-21 0 -41 -10t-31 -31l-147 -462q-13 -39 -13 -64.5v-32.5h-8l-206 348l-134 -254q-24 -47 -24 -94h-8l-216 552q-11 25 -31.5 36.5t-41.5 11.5h-7v10h329v-10h-9q-17 0 -26 -10.5t-9 -19.5t2 -17l92 -208l145 278h7l172 -288l62 214q2 9 2 19t-8.5 21
t-27.5 11h-7v10h191v-10z" />
    <glyph glyph-name="x" unicode="x" horiz-adv-x="666" 
d="M691 0h-357v10h10q18 0 26 12.5t8 21t-5 16.5l-98 161l-116 -161q-6 -9 -6 -17.5t7.5 -20.5t26.5 -12h10v-10h-221v10h12q44 0 79 42l171 229l-163 268q-13 18 -35 30.5t-45 12.5h-11v10h355v-10h-10q-19 0 -29 -16q-10 -18 0 -34l92 -151l97 151q5 9 5 17.5t-7.5 20.5
t-25.5 12h-10v10h216v-10h-12q-49 0 -80 -44l-145 -218l168 -275q13 -19 35 -32t47 -13h11v-10z" />
    <glyph glyph-name="y" unicode="y" horiz-adv-x="633" 
d="M684 590h-13q-26 0 -48.5 -13.5t-36.5 -33.5l-169 -264v-217q1 -22 16.5 -37t38.5 -15h11v-10h-328v10h12q22 0 38 15t16 37v216l-172 265q-19 28 -43.5 37.5t-41.5 9.5h-12v10h350v-10h-10q-19 0 -27 -12.5t-8 -21.5t5 -17l124 -210l121 210q5 8 5 16.5t-8.5 21.5
t-26.5 13h-11v10h218v-10z" />
    <glyph glyph-name="z" unicode="z" horiz-adv-x="606" 
d="M25 0v8l301 547h-158q-57 0 -88.5 -32.5t-31.5 -90.5v-4h-10v188q12 -5 45.5 -10t60.5 -5h338q37 0 63.5 4t31.5 7v-7l-290 -560h108q68 0 120 44t73 121h10l-36 -210h-537z" />
    <glyph glyph-name="braceleft" unicode="{" horiz-adv-x="407" 
d="M309 110l-6 -109q0 -35 7 -50q15 -32 58 -43l-2 -8q-200 0 -249 130q-13 36 -13 76.5t11.5 95.5t11.5 70t-2 20q-7 19 -40 22v10q35 1 43 16q2 4 2 13.5t-4.5 32.5l-13 64t-8.5 77.5t16 74.5q37 83 138 114q55 17 127 17h1l2 -8q-51 -13 -65 -47q-14 -33 -14 -79v-63
q0 -92 -16 -132q-13 -34 -23.5 -43.5t-17 -14.5t-18.5 -10t-19.5 -7l-22 -6t-21.5 -7q67 -19 87 -38q28 -28 36 -53q15 -53 15 -115z" />
    <glyph glyph-name="bar" unicode="|" horiz-adv-x="265" 
d="M100 -180v880h65v-880h-65z" />
    <glyph glyph-name="braceright" unicode="}" horiz-adv-x="407" 
d="M20 725l2 8q146 0 216 -64q66 -60 66 -148q0 -30 -9 -71q-17 -86 -17 -96t2 -14q7 -15 43 -16v-10q-33 -3 -40 -22q-2 -4 -2 -19t11.5 -70.5t11.5 -96t-13.5 -76t-42.5 -66.5q-62 -64 -206 -64l-2 8q43 11 57 41q8 17 8 52l-7 109q0 103 31 144q12 15 21 23.5t27 17.5
q22 10 60 21q-8 3 -22.5 7l-21.5 6t-19.5 7t-18.5 10l-15.5 13.5t-14.5 19t-11 25.5t-9 34q-7 45 -7 98l1 63q0 42 -4 54t-10 25.5t-14 20.5q-22 18 -51 26z" />
    <glyph glyph-name="asciitilde" unicode="~" horiz-adv-x="494" 
d="M461 363q7 -27 7 -44t-4 -37t-23 -40q-37 -38 -95 -38q-39 0 -89 34q-22 14 -42 29q-51 36 -77 36t-39 -22q-7 -13 -7 -31.5t5 -40.5h-65q-5 23 -5 44q0 43 23 71q35 44 92 44q24 0 55.5 -15t55.5 -34q68 -50 97 -50t45 23q8 12 8 29.5t-10 41.5h68z" />
    <glyph glyph-name="exclamdown" unicode="&#xa1;" horiz-adv-x="295" 
d="M149.5 716q37.5 0 64 -26.5t26.5 -64t-26.5 -63.5t-64 -26t-63.5 26t-26 63.5t26 64t63.5 26.5zM68 339l45 133h70l45 -133l22 -339h-205z" />
    <glyph glyph-name="cent" unicode="&#xa2;" horiz-adv-x="578" 
d="M15 348q0 134 101 204q93 65 240 65h5l7 84l47 -1l-7 -85q80 -7 134 -29l-11 -147h-6q-34 116 -120 132l-37 -450q55 2 77 16t33 26.5t20 34.5q16 36 30 106h6l23 -138q-50 -85 -193 -88l-7 -87l-46 3l7 85q-142 9 -222.5 79.5t-80.5 189.5zM322 125l36 448
q-157 -6 -156 -222q-1 -197 120 -226z" />
    <glyph glyph-name="sterling" unicode="&#xa3;" horiz-adv-x="620" 
d="M571 24q-46 -21 -103 -27.5t-84 -6.5q-47 0 -126.5 17t-98.5 17t-29.5 -0.5t-46.5 -13t-43 -20.5h-10v10q56 110 72 205q8 53 10 114h-82l18 56h64v12q0 311 276 327q15 1 50 1t82.5 -14.5t70.5 -43.5l-48 -142h-10q-3 79 -27.5 114t-76.5 35q-104 0 -112 -137
q-2 -31 -2 -68.5t2 -83.5h181l-21 -56h-158q-1 -121 -40 -175q-34 -47 -96 -65q11 3 21.5 3t24 -0.5t27.5 -2.5l40 -6q45 -6 71 -6t56.5 5.5t65.5 22.5q73 36 117 124h10z" />
    <glyph glyph-name="currency" unicode="&#xa4;" horiz-adv-x="541" 
d="M410 193q-60 -54 -140 -54t-140 52l-59 -59l-21 22l59 58q-53 60 -53 140.5t54 140.5l-60 60l21 21l60 -60q60 51 139 51t139 -52l61 61l22 -21l-62 -61q52 -60 52 -139.5t-51 -138.5l61 -60l-22 -22zM269.5 169q75.5 0 129 53.5t53.5 129.5t-53.5 129.5t-129 53.5
t-129.5 -53.5t-54 -129.5t54 -129.5t129.5 -53.5z" />
    <glyph glyph-name="yen" unicode="&#xa5;" horiz-adv-x="729" 
d="M775 690h-14q-30 0 -57.5 -17t-43.5 -42l-131 -206h94v-50h-126l-33 -53v-7h159v-50h-159v-192q0 -26 18.5 -44.5t45.5 -18.5h12v-10h-358v10h13q26 0 44.5 18t19.5 44v193h-162v50h162v7l-33 53h-129v50h99l-128 208q-25 39 -69 52q-15 5 -30 5h-14v10h386v-10h-12
q-22 0 -34 -20q-7 -11 -7 -21.5t6 -20.5l137 -247l142 247q6 10 6 20t-7 21q-13 21 -34 21h-12v10h249v-10z" />
    <glyph glyph-name="brokenbar" unicode="&#xa6;" horiz-adv-x="265" 
d="M100 350v350h65v-350h-65zM100 -180v350h65v-350h-65z" />
    <glyph glyph-name="section" unicode="&#xa7;" horiz-adv-x="536" 
d="M331 716q84 0 130 -38q27 -24 27 -45.5t-14 -41.5q-20 -32 -47 -32q-17 0 -42 18.5t-41 34.5q-33 34 -65 43q-4 1 -11.5 1t-20.5 -9.5t-13 -24t7.5 -30t20 -32.5t30.5 -36.5l33.5 -35.5l33.5 -33q74 -75 110 -154q43 -95 43 -176q0 -113 -65 -190q-37 -43 -95.5 -68.5
t-123 -25.5t-111.5 18q-73 28 -73 76q0 15 9 33q22 36 51 36q19 0 47 -19t46 -36q38 -35 72 -44q4 -1 12 -1t21 10.5t13 25.5t-19.5 42t-76 81.5l-74.5 72.5q-52 51 -81 109q-38 74 -38 154q0 146 111 245q80 72 194 72zM145 583q-26 -57 -26 -115q0 -38 29 -93
q16 -32 45 -62.5l57 -59l45 -47t42 -50.5t37 -57q23 -48 23 -94q0 -13 -2 -26q23 47 23 98q0 79 -96 187l-43 46l-43 47t-34 41t-28 41q-23 49 -26 79.5t-3 46v18.5z" />
    <glyph glyph-name="dieresis" unicode="&#xa8;" 
d="M149.5 665q-30.5 0 -52 22t-21.5 52.5t21.5 52t52 21.5t52 -21.5t21.5 -52t-21.5 -52.5t-52 -22zM411.5 665q-30.5 0 -52 22t-21.5 52.5t21.5 52t52 21.5t52 -21.5t21.5 -52t-21.5 -52.5t-52 -22z" />
    <glyph glyph-name="copyright" unicode="&#xa9;" horiz-adv-x="848" 
d="M424 714q151 0 257.5 -106.5t106.5 -257.5t-106.5 -257.5t-257.5 -106.5t-257.5 106.5t-106.5 257.5t106.5 257.5t257.5 106.5zM644.5 570.5q-91.5 91.5 -220.5 91.5t-220.5 -91.5t-91.5 -220.5t91.5 -220.5t220.5 -91.5t220.5 91.5t91.5 220.5t-91.5 220.5zM353.5 217
q32.5 -48 95.5 -48t106 40.5t55 116.5h6l23 -108q-78 -91 -205 -91q-108 1 -178.5 64.5t-70.5 159t71 159t180 63.5q46 0 96 -11.5t85 -31.5l-6 -120h-6q-52 122 -163 122q-57 0 -89 -48t-32 -133.5t32.5 -133.5z" />
    <glyph glyph-name="ordfeminine" unicode="&#xaa;" horiz-adv-x="390" 
d="M395 377h-205v4h5q10 0 16.5 7t3.5 18l-16 33h-100l-15 -30q-6 -12 1 -20t18 -8h5v-4h-113v4h4q26 0 41 23l115 231q28 63 30 75h4l162 -306q16 -23 40 -23h4v-4zM111 465h75l-37 77z" />
    <glyph glyph-name="guillemotleft" unicode="&#xab;" horiz-adv-x="541" 
d="M265 490l8 -5l-78 -193l79 -197l-9 -7l-225 204zM473 490l8 -5l-78 -193l79 -197l-9 -7l-225 204z" />
    <glyph glyph-name="logicalnot" unicode="&#xac;" 
d="M40 407h522v-212h-65v147h-457v65z" />
    <glyph glyph-name="softhyphen" unicode="&#xad;" horiz-adv-x="380" 
d="M30 292l10 40h300l10 -40l-10 -41h-300z" />
    <glyph glyph-name="registered" unicode="&#xae;" horiz-adv-x="245" 
d="M123 701q47 0 80 -33t33 -80t-33 -80t-80 -33t-80 33t-33 80t33 80t80 33zM122.5 499q38.5 0 64 25.5t25.5 63.5t-25.5 63.5t-64 25.5t-63.5 -25.5t-25 -63.5t25 -63.5t63.5 -25.5zM170 617q0 -29 -31 -33q11 -2 25.5 -25t25.5 -27v-2h-19q-16 0 -22 4.5t-9 6t-6.5 8
t-4.5 8t-5 9.5q-9 22 -12 22v2h10q17 1 16 26t-21 24h-10v-97q0 -11 10 -11h3v-2h-57v2h2q10 0 11 10v95q-1 11 -11 11h-2v2h44h19q30 0 40 -19q4 -6 4 -14z" />
    <glyph glyph-name="macron" unicode="&#xaf;" 
d="M150 703v85h290v-85h-290z" />
    <glyph glyph-name="degree" unicode="&#xb0;" horiz-adv-x="237" 
d="M118.5 664q40.5 0 69.5 -28.5t29 -69.5t-29 -70t-69.5 -29t-69.5 29t-29 70t29 69.5t69.5 28.5zM118.5 606q-16.5 0 -28.5 -11.5t-12 -28.5t12 -28.5t28.5 -11.5t28.5 11.5t12 28.5t-12 28.5t-28.5 11.5z" />
    <glyph glyph-name="plusminus" unicode="&#xb1;" horiz-adv-x="481" 
d="M273 412h169v-65h-169v-168h-65v168h-168v65h168v169h65v-169zM40 50v65h402v-65h-402z" />
    <glyph glyph-name="twosuperior" unicode="&#xb2;" horiz-adv-x="419" 
d="M156 687q-71 0 -71 -128h-6l-49 115q54 45 163 45q102 0 148 -52q23 -25 23 -57.5t-15.5 -61t-40.5 -50.5q-47 -42 -96 -64h93q51 0 79 62h5l-41 -188h-310v5l35.5 48l36 48.5l31.5 44.5t29.5 46t21.5 42q20 43 20 78.5t-16 51t-40 15.5z" />
    <glyph glyph-name="threesuperior" unicode="&#xb3;" horiz-adv-x="373" 
d="M168 714q129 0 152 -68q5 -14 5 -29q0 -36 -20.5 -54.5t-50.5 -19.5q89 -19 89 -108q0 -52 -32 -88q-51 -57 -148 -57q-76 0 -136 33l1 5h7q66 0 113.5 30.5t47.5 82t-30 74t-66 23.5l1 5h5q34 0 57 25.5t23 56.5q0 38 -24 51q-14 8 -26 8q-46 0 -60 -32q-11 -25 -11 -76
v-11h-5l-40 111q50 38 148 38z" />
    <glyph glyph-name="acute" unicode="&#xb4;" 
d="M211 743l-7 7q19 44 65 96.5t89 89.5q64 -27 86 -100q-50 -33 -115.5 -60t-117.5 -33z" />
    <glyph glyph-name="paragraph" unicode="&#xb6;" horiz-adv-x="540" 
d="M432 147q0 -55 -18.5 -96.5t-49.5 -63.5l-9 8q25 42 26 90q1 15 1 60v505h-83v-650q0 -91 -43 -149q-24 -33 -63 -50l-7 9q41 42 51 75.5t10 67.5t-1 47v333q-85 0 -140.5 50t-55.5 133t56.5 133.5t139.5 50.5h182h7h9t8.5 0.5t10.5 2t10.5 3t12 5l11.5 7.5q12 8 26 25
l7 -6q-7 -42 -50 -70q-22 -14 -48 -16v-504z" />
    <glyph glyph-name="periodcentered" unicode="&#xb7;" horiz-adv-x="250" 
d="M125 265q-37 0 -63.5 26.5t-26.5 63.5t26.5 63.5t63.5 26.5t63.5 -26.5t26.5 -63.5t-26.5 -63.5t-63.5 -26.5z" />
    <glyph glyph-name="cedilla" unicode="&#xb8;" 
d="M284 -48q14 5 24 5h20.5t30.5 -5.5t32 -20.5t12 -27q0 -46 -32 -73q-41 -36 -100 -36q-27 0 -57 9l1 10q37 0 70.5 20.5t33.5 60.5q0 16 -16 28q-16 11 -39 11t-42 -6l-5 10l48 63h62z" />
    <glyph glyph-name="onesuperior" unicode="&#xb9;" horiz-adv-x="292" 
d="M262 314v-6h-228v6h11q13 0 21.5 8.5t8.5 20.5v289q0 17 -7 30t-34 13h-4v5q32 1 93.5 10.5t92.5 24.5h5v-372q0 -12 9 -20.5t21 -8.5h11z" />
    <glyph glyph-name="ordmasculine" unicode="&#xba;" horiz-adv-x="400" 
d="M66 667q46 43 134 43t134 -43t46 -123.5t-46 -123.5t-134 -43t-134 43t-46 123.5t46 123.5zM200 403q31 0 45 35t14 87.5t-3 78t-10 43.5q-14 37 -46 37q-60 0 -60 -140.5t60 -140.5z" />
    <glyph glyph-name="guillemotright" unicode="&#xbb;" horiz-adv-x="541" 
d="M69 88l-9 7l79 197l-78 193l8 5l225 -198zM277 88l-9 7l79 197l-78 193l8 5l225 -198z" />
    <glyph glyph-name="onequarter" unicode="&#xbc;" horiz-adv-x="769" 
d="M597 723l47 -32l-477 -711l-48 31zM65 632q0 43 -41 43h-4v5q32 1 93.5 10.5t92.5 24.5h5v-372q0 -12 9 -20.5t21 -8.5h12v-6h-229v6h11q13 0 21.5 8.5t8.5 20.5v289zM667 92v-54q0 -13 10 -22.5t23 -9.5h7v-6h-224v6h7q13 0 23 9t10 22v55h-194v6l332 310h6v-244h26
q29 0 41 28h6l-21 -100h-52zM523 165v66l-75 -66h75z" />
    <glyph glyph-name="onehalf" unicode="&#xbd;" horiz-adv-x="850" 
d="M575 723l47 -32l-477 -711l-48 31zM24 675h-4v5q32 1 93.5 10.5t92.5 24.5h5v-372q0 -12 9 -20.5t21 -8.5h11v-6h-228v6h11q13 0 21.5 8.5t8.5 20.5v289q0 43 -41 43zM577 380q-71 0 -72 -129h-5l-49 115q54 46 163 46q73 0 122 -30.5t49 -82.5q0 -78 -105 -147
q-24 -15 -47 -26h93q51 0 79 62h5l-41 -188h-310v5l41 55l42 57t34.5 51t31.5 53q25 56 25 91.5t-16.5 51.5t-39.5 16z" />
    <glyph glyph-name="threequarters" unicode="&#xbe;" horiz-adv-x="839" 
d="M666 723l47 -32l-477 -711l-48 31zM289.5 689q39.5 -25 39.5 -66.5t-20.5 -60t-49.5 -19.5q89 -19 89 -108q0 -52 -32 -88q-52 -57 -149 -57q-75 0 -135 33l1 5h7q66 0 113.5 30.5t47.5 82t-30 74t-66 23.5l1 5h4q35 0 57.5 25.5t22.5 56.5q0 38 -23 51q-15 8 -26 8
q-46 0 -61 -32q-10 -25 -10 -76v-11h-6l-39 111q50 38 137.5 38t127 -25zM747 92v-54q0 -18 17 -28q7 -4 16 -4h7v-6h-224v6h7q13 0 22.5 9t10.5 22v55h-194v6l332 311h6v-244h26q29 0 41 27h6l-21 -100h-52zM603 165v66l-75 -66h75z" />
    <glyph glyph-name="questiondown" unicode="&#xbf;" horiz-adv-x="523" 
d="M204 687.5q26 26.5 63.5 26.5t64 -26.5t26.5 -63.5t-26.5 -63.5t-64 -26.5t-63.5 26.5t-26 63.5t26 63.5zM245 161q0 -125 91 -125q97 0 97 154h10l50 -115q-23 -40 -81.5 -64.5t-139.5 -24.5q-117 0 -179.5 46t-62.5 131q0 58 32.5 99t114.5 101q52 38 58 59q8 27 -7 57
l9 6q65 -17 90 -66q11 -21 11 -36.5t-1.5 -29.5t-12.5 -32.5t-24 -32.5t-26 -30q-29 -36 -29 -97z" />
    <glyph glyph-name="Agrave" unicode="&#xc0;" horiz-adv-x="720" 
d="M376 771l-7 -7q-53 6 -118 33t-115 60q21 73 85 100q43 -37 89.5 -89.5t65.5 -96.5zM752 10h8v-10h-379v10h9q22 0 33 13.5t11 25t-5 24.5l-39 93h-214l-40 -93q-5 -13 -5 -21t3.5 -17.5t15 -17t24.5 -7.5h9v-10h-223v10h9q23 0 45.5 13.5t37.5 40.5l233 511
q53 112 57 149h9l317 -659q32 -55 84 -55zM198 216h171l-84 200z" />
    <glyph glyph-name="Aacute" unicode="&#xc1;" horiz-adv-x="720" 
d="M332 761l-7 7q19 44 65 96.5t90 89.5q64 -27 85 -100q-50 -33 -115 -60t-118 -33zM752 10h8v-10h-379v10h9q22 0 33 13.5t11 25t-5 24.5l-39 93h-214l-40 -93q-5 -13 -5 -21t3.5 -17.5t15 -17t24.5 -7.5h9v-10h-223v10h9q23 0 45.5 13.5t37.5 40.5l233 511q53 112 57 149
h9l317 -659q32 -55 84 -55zM198 216h171l-84 200z" />
    <glyph glyph-name="Acircumflex" unicode="&#xc2;" horiz-adv-x="720" 
d="M342 932h11l179 -176l-7 -8l-178 65l-167 -65l-7 8zM752 10h8v-10h-379v10h9q22 0 33 13.5t11 25t-5 24.5l-39 93h-214l-40 -93q-5 -13 -5 -21t3.5 -17.5t15 -17t24.5 -7.5h9v-10h-223v10h9q23 0 45.5 13.5t37.5 40.5l233 511q53 112 57 149h9l317 -659q32 -55 84 -55z
M198 216h171l-84 200z" />
    <glyph glyph-name="Atilde" unicode="&#xc3;" horiz-adv-x="720" 
d="M544 919h12q6 -17 6 -36.5t-8 -38.5q-22 -50 -61 -68q-24 -12 -55.5 -12t-80.5 25q-50 25 -67.5 27.5t-32.5 2.5t-39 -16t-32 -36h-12q-4 14 -4 29q0 60 45 103q31 30 68.5 30t91.5 -27t99 -27q15 0 39.5 14.5t30.5 29.5zM752 10h8v-10h-379v10h9q22 0 33 13.5t11 25
t-5 24.5l-39 93h-214l-40 -93q-6 -13 -6 -24.5t11 -25t33 -13.5h9v-10h-223v10h9q23 0 45.5 13.5t37.5 40.5l233 511q53 112 57 149h9l317 -659q32 -55 84 -55zM198 216h171l-84 200z" />
    <glyph glyph-name="Adieresis" unicode="&#xc4;" horiz-adv-x="720" 
d="M213.5 755q-30.5 0 -52 22t-21.5 52.5t21.5 52t52 21.5t52.5 -21.5t22 -52t-22 -52.5t-52.5 -22zM476.5 755q-30.5 0 -52 22t-21.5 52.5t21.5 52t52 21.5t52 -21.5t21.5 -52t-21.5 -52.5t-52 -22zM752 10h8v-10h-379v10h9q22 0 33 13.5t11 25t-5 24.5l-39 93h-214
l-40 -93q-5 -13 -5 -21t3.5 -17.5t15 -17t24.5 -7.5h9v-10h-223v10h9q23 0 45.5 13.5t37.5 40.5l233 511q53 112 57 149h9l317 -659q32 -55 84 -55zM198 216h171l-84 200z" />
    <glyph glyph-name="Aring" unicode="&#xc5;" horiz-adv-x="720" 
d="M752 10h8v-10h-379v10h9q22 0 32.5 13.5t10.5 25t-4 23.5l-41 94h-210l-43 -95q-4 -12 -4 -23t10.5 -24.5t32.5 -13.5h9v-10h-223v10h9q25 0 49 15.5t39 47.5l228 492q40 83 53 129q-38 2 -63.5 23t-25.5 52.5t28.5 52.5t70 21t70 -20.5t28.5 -51.5t-24.5 -52t-60.5 -25
l303 -621q31 -63 88 -63zM348 821h-1h-1q-17 0 -29 -15t-12 -30.5t2 -23.5t5.5 -14.5t9.5 -11.5q10 -10 27 -10t29.5 15t12.5 37.5t-12.5 37.5t-30.5 15zM200 216h167l-82 192z" />
    <glyph glyph-name="AE" unicode="&#xc6;" horiz-adv-x="1017" 
d="M416 10q20 0 34.5 14t15.5 34v259h-157l-151 -244q-17 -29 0 -47q16 -16 38 -16h9v-10h-238v10h9q43 0 86 61l391 570q8 13 8 21q0 28 -29 28h-5v10h394q44 0 77 7t42 11v-206h-10v8q1 80 -57 112q-28 16 -68 17h-134v-282h102q46 2 75.5 32.5t29.5 76.5v5h10v-278h-10v5
q0 46 -29 76.5t-74 32.5h-104v-266h113q73 0 128.5 48t78.5 133h10l-38 -232h-557l1 10h9zM466 367v202l-126 -202h126z" />
    <glyph glyph-name="Ccedilla" unicode="&#xc7;" horiz-adv-x="793" 
d="M472 -14h-12l-37 -43q14 5 24 5h20t30.5 -5.5t32.5 -20.5t12 -27q0 -46 -32 -73q-42 -35 -100 -35q-28 0 -57 8l1 10q36 0 70 20.5t34 60.5q0 16 -17 28q-30 21 -81 5l-5 10l47 60q-173 17 -270 111t-97 251q0 113 52 195t150.5 125t241.5 43t251 -46l-10 -191h-9
q-29 101 -84 144t-137 43q-111 0 -173 -82t-62 -228.5t57.5 -230.5t159.5 -87q118 0 171 56q50 52 78 200h8l24 -182q-74 -124 -281 -124z" />
    <glyph glyph-name="Egrave" unicode="&#xc8;" horiz-adv-x="667" 
d="M393 771l-7 -7q-53 6 -117 33t-113 60q24 73 89 100q41 -37 85.5 -89.5t62.5 -96.5zM43 10q26 0 44.5 18.5t19.5 44.5v554q-1 37 -32 55q-15 8 -32 8h-13v10h443q43 0 76.5 7t42.5 11v-206h-10v8q0 80 -58 112q-28 16 -67 17h-145v-279h109q48 1 78 31.5t30 78.5v4h10
v-278h-10v5q0 47 -30 77.5t-77 31.5h-110v-269h123q73 0 129 48t79 133h10l-38 -232h-585v10h13z" />
    <glyph glyph-name="Eacute" unicode="&#xc9;" horiz-adv-x="667" 
d="M322 761l-7 7q19 44 65.5 96.5t89.5 89.5q64 -27 85 -100q-50 -33 -115 -60t-118 -33zM43 10q26 0 44.5 18.5t19.5 44.5v554q-1 26 -19.5 44.5t-44.5 18.5h-13v10h443q31 0 67.5 6t51.5 12v-206h-10v8q0 80 -58 112q-28 16 -67 17h-145v-279h109q48 1 78 31.5t30 78.5v4
h10v-278h-10v5q0 47 -30 77.5t-77 31.5h-110v-269h123q73 0 129 48t79 133h10l-38 -232h-585v10h13z" />
    <glyph glyph-name="Ecircumflex" unicode="&#xca;" horiz-adv-x="667" 
d="M332 932h12l178 -176l-7 -8l-178 65l-167 -65l-7 8zM43 10q26 0 44.5 18.5t19.5 44.5v554q-1 26 -19.5 44.5t-44.5 18.5h-13v10h443q31 0 67.5 6t51.5 12v-206h-10v8q0 80 -58 112q-28 16 -67 17h-145v-279h109q48 1 78 31.5t30 78.5v4h10v-278h-10v5q0 47 -30 77.5
t-77 31.5h-110v-269h123q73 0 129 48t79 133h10l-38 -232h-585v10h13z" />
    <glyph glyph-name="Edieresis" unicode="&#xcb;" horiz-adv-x="667" 
d="M204.5 755q-30.5 0 -52 22t-21.5 52.5t21.5 52t52 21.5t52 -21.5t21.5 -52t-21.5 -52.5t-52 -22zM466.5 755q-30.5 0 -52 22t-21.5 52.5t21.5 52t52 21.5t52 -21.5t21.5 -52t-21.5 -52.5t-52 -22zM43 10q26 0 44.5 18.5t19.5 44.5v554q-1 26 -19.5 44.5t-44.5 18.5h-13
v10h443q43 0 76.5 7t42.5 11v-206h-10v8q0 80 -58 112q-28 16 -67 17h-145v-279h109q48 1 78 31.5t30 78.5v4h10v-278h-10v5q0 47 -30 77.5t-77 31.5h-110v-269h123q73 0 129 48t79 133h10l-38 -232h-585v10h13z" />
    <glyph glyph-name="Igrave" unicode="&#xcc;" horiz-adv-x="418" 
d="M245 771l-7 -7q-53 6 -118 33t-115 60q21 73 85 100q44 -37 90 -89.5t65 -96.5zM43 10q26 0 44.5 18.5t19.5 44.5v555q-1 26 -19.5 44t-44.5 18h-13v10h359v-10h-13q-26 0 -44.5 -18t-19.5 -44v-555q0 -26 19 -44.5t45 -18.5h13v-10h-359v10h13z" />
    <glyph glyph-name="Iacute" unicode="&#xcd;" horiz-adv-x="418" 
d="M191 761l-7 7q29 68 125 158l30 28q64 -27 85 -100q-50 -33 -115 -60t-118 -33zM43 10q26 0 44.5 18.5t19.5 44.5v555q-1 26 -19.5 44t-44.5 18h-13v10h359v-10h-13q-26 0 -44.5 -18t-19.5 -44v-555q0 -26 19 -44.5t45 -18.5h13v-10h-359v10h13z" />
    <glyph glyph-name="Icircumflex" unicode="&#xce;" horiz-adv-x="418" 
d="M201 932h12l178 -176l-7 -8l-178 65l-167 -65l-7 8zM43 10q26 0 44.5 18.5t19.5 44.5v555q-1 26 -19.5 44t-44.5 18h-13v10h359v-10h-13q-26 0 -44.5 -18t-19.5 -44v-555q0 -26 19 -44.5t45 -18.5h13v-10h-359v10h13z" />
    <glyph glyph-name="Idieresis" unicode="&#xcf;" horiz-adv-x="418" 
d="M73.5 755q-30.5 0 -52 22t-21.5 52.5t21.5 52t52 21.5t52 -21.5t21.5 -52t-21.5 -52.5t-52 -22zM336.5 755q-30.5 0 -52.5 22t-22 52.5t22 52t52.5 21.5t52 -21.5t21.5 -52t-21.5 -52.5t-52 -22zM43 10q26 0 44.5 18.5t19.5 44.5v555q-1 26 -19.5 44t-44.5 18h-13v10h359
v-10h-13q-26 0 -44.5 -18t-19.5 -44v-555q0 -26 19 -44.5t45 -18.5h13v-10h-359v10h13z" />
    <glyph glyph-name="Eth" unicode="&#xd0;" horiz-adv-x="842" 
d="M808 350q0 -165 -105.5 -257.5t-293.5 -92.5h-379v10h13q26 0 44.5 18.5t19.5 44.5v252h-77v50h77v258q0 24 -19.5 40.5t-44.5 16.5h-12l-1 10h379q188 0 293.5 -92.5t105.5 -257.5zM312 325v-275h77q94 0 149 79.5t55 220.5t-55 220.5t-149 79.5h-77v-275h108v-50h-108z
" />
    <glyph glyph-name="Ntilde" unicode="&#xd1;" horiz-adv-x="881" 
d="M607 919h12q6 -17 6 -36.5t-8 -38.5q-22 -50 -61 -68q-24 -12 -55.5 -12t-80.5 25q-50 25 -67.5 27.5t-32.5 2.5t-39 -16t-32 -36h-12q-4 14 -4 29q0 60 45 103q31 30 68.5 30t91.5 -27t99 -27q15 0 39.5 14.5t30.5 29.5zM843 690q-25 0 -43 -17.5t-19 -42.5v-516
q0 -74 10 -114l3 -14h-9l-479 426v-341q0 -36 31 -53q14 -8 30 -8h19v-10h-366v10h19q25 0 43 17.5t18 43.5v519q0 70 -10 111l-3 14h10l479 -426v340q-1 26 -19 43.5t-43 17.5h-19v10h366v-10h-18z" />
    <glyph glyph-name="Ograve" unicode="&#xd2;" horiz-adv-x="905" 
d="M477 785l-7 -7q-72 9 -161 52q-39 19 -72 41q22 73 86 100q61 -53 101 -104.5t53 -81.5zM450 714q129 0 222.5 -43t143.5 -125.5t50 -195.5q0 -171 -110.5 -267.5t-305 -96.5t-305 96.5t-110.5 267.5t110.5 267.5t304.5 96.5zM450 36q96 0 148 82.5t52 231.5
q0 201 -91 277q-45 37 -109 37q-96 0 -147.5 -82.5t-51.5 -231.5q0 -201 91 -277q45 -37 108 -37z" />
    <glyph glyph-name="Oacute" unicode="&#xd3;" horiz-adv-x="905" 
d="M433 775l-7 7q19 44 65.5 96.5t89.5 89.5q64 -27 85 -100q-50 -33 -115 -60t-118 -33zM450 714q129 0 222.5 -43t143.5 -125.5t50 -195.5q0 -171 -110.5 -267.5t-305 -96.5t-305 96.5t-110.5 267.5t110.5 267.5t304.5 96.5zM450.5 36q91.5 0 143 83t51.5 231t-51.5 231
t-143 83t-143 -83t-51.5 -231t51.5 -231t143 -83z" />
    <glyph glyph-name="Ocircumflex" unicode="&#xd4;" horiz-adv-x="905" 
d="M443 946h12l179 -176l-8 -8l-177 65l-168 -65l-7 8zM450 714q129 0 222.5 -43t143.5 -125.5t50 -195.5q0 -171 -111 -267.5t-305 -96.5t-304.5 96.5t-110.5 267.5t110.5 267.5t304.5 96.5zM450.5 36q91.5 0 143 83t51.5 231t-51.5 231t-143 83t-143 -83t-51.5 -231
t51.5 -231t143 -83z" />
    <glyph glyph-name="Otilde" unicode="&#xd5;" horiz-adv-x="905" 
d="M645 933h13q6 -17 6 -36.5t-9 -38.5q-21 -50 -61 -68q-24 -12 -51.5 -12t-54.5 11q-26 11 -54 25t-44.5 16.5t-31 2.5t-38.5 -16t-32 -36h-13q-3 14 -3 29q0 60 44 103q31 30 68.5 30t92 -27t99.5 -27q14 0 38.5 14.5t30.5 29.5zM450 714q194 0 305 -96.5t111 -267.5
t-111 -267.5t-305 -96.5t-304.5 96.5t-110.5 267.5t110.5 267.5t304.5 96.5zM450.5 36q91.5 0 143 83t51.5 231t-51.5 231t-143 83t-143 -83t-51.5 -231t51.5 -231t143 -83z" />
    <glyph glyph-name="Odieresis" unicode="&#xd6;" horiz-adv-x="905" 
d="M315.5 769q-30.5 0 -52 22t-21.5 52.5t21.5 52t52 21.5t52 -21.5t21.5 -52t-21.5 -52.5t-52 -22zM578.5 769q-30.5 0 -52.5 22t-22 52.5t22 52t52.5 21.5t52 -21.5t21.5 -52t-21.5 -52.5t-52 -22zM450 714q129 0 222.5 -43t143.5 -125.5t50 -195.5q0 -171 -111 -267.5
t-305 -96.5t-304.5 96.5t-110.5 267.5t110.5 267.5t304.5 96.5zM450.5 36q91.5 0 143 83t51.5 231t-51.5 231t-143 83t-143 -83t-51.5 -231t51.5 -231t143 -83z" />
    <glyph glyph-name="multiply" unicode="&#xd7;" horiz-adv-x="410" 
d="M370 429l-119 -119l119 -119l-46 -46l-119 119l-119 -119l-46 46l119 119l-119 119l46 46l119 -119l119 119z" />
    <glyph glyph-name="Oslash" unicode="&#xd8;" horiz-adv-x="905" 
d="M866 350q0 -171 -111 -267.5t-305 -96.5q-143 0 -243 54l-54 -63l-44 36l50 58q-124 97 -124 273.5t110.5 273t304.5 96.5q130 0 224 -44l48 56l44 -34l-43 -50q143 -96 143 -292zM598 582q-52 82 -148 82t-147.5 -82.5t-51.5 -231.5q0 -86 18 -151zM291 138
q52 -102 153.5 -102t153.5 82.5t52 231.5q0 104 -26 177z" />
    <glyph glyph-name="Ugrave" unicode="&#xd9;" horiz-adv-x="845" 
d="M510 771l-7 -7q-53 6 -118 33t-115 60q21 73 85 100q43 -37 89.5 -89.5t65.5 -96.5zM600 700h225v-10h-16q-21 0 -36.5 -13.5t-16.5 -33.5v-386q0 -127 -78.5 -199t-221.5 -72q-179 0 -268 70t-89 200v384q0 30 -26 44q-12 6 -27 6h-16v10h343v-10h-16q-22 0 -37 -13.5
t-16 -34.5v-382q0 -105 48 -164t134 -59t134.5 55.5t48.5 154.5v395q-1 21 -16 34.5t-37 13.5h-16v10z" />
    <glyph glyph-name="Uacute" unicode="&#xda;" horiz-adv-x="845" 
d="M466 761l-7 7q19 44 65.5 96.5t89.5 89.5q64 -27 85 -100q-50 -33 -115 -60t-118 -33zM600 700h225v-10h-16q-21 0 -36.5 -13.5t-16.5 -33.5v-386q0 -127 -78.5 -199t-221.5 -72q-179 0 -268 70t-89 200v384q0 30 -26 44q-12 6 -27 6h-16v10h343v-10h-16q-22 0 -37 -13.5
t-16 -34.5v-382q0 -105 48 -164t134 -59t134.5 55.5t48.5 154.5v395q-1 33 -32 44q-10 4 -21 4h-16v10z" />
    <glyph glyph-name="Ucircumflex" unicode="&#xdb;" horiz-adv-x="845" 
d="M476 932h12l178 -176l-7 -8l-178 65l-167 -65l-7 8zM600 700h225v-10h-16q-21 0 -36.5 -13.5t-16.5 -33.5v-386q0 -127 -78.5 -199t-221.5 -72q-179 0 -268 70t-89 200v384q0 30 -26 44q-12 6 -27 6h-16v10h343v-10h-16q-22 0 -37 -13.5t-16 -34.5v-382q0 -105 48 -164
t134 -59t134.5 55.5t48.5 154.5v395q-1 21 -16 34.5t-37 13.5h-16v10z" />
    <glyph glyph-name="Udieresis" unicode="&#xdc;" horiz-adv-x="845" 
d="M348.5 755q-30.5 0 -52.5 22t-22 52.5t22 52t52.5 21.5t52 -21.5t21.5 -52t-21.5 -52.5t-52 -22zM610.5 755q-30.5 0 -52 22t-21.5 52.5t21.5 52t52 21.5t52 -21.5t21.5 -52t-21.5 -52.5t-52 -22zM600 700h225v-10h-16q-21 0 -36.5 -13.5t-16.5 -33.5v-386
q0 -127 -78.5 -199t-221.5 -72q-179 0 -268 70t-89 200v384q0 30 -26 44q-12 6 -27 6h-16v10h343v-10h-16q-22 0 -37 -13.5t-16 -34.5v-382q0 -105 48 -164t134 -59t134.5 55.5t48.5 154.5v395q-1 21 -16 34.5t-37 13.5h-16v10z" />
    <glyph glyph-name="Yacute" unicode="&#xdd;" horiz-adv-x="729" 
d="M418 761l-7 7q19 44 65.5 96.5t89.5 89.5q64 -27 85 -100q-50 -33 -115 -60t-118 -33zM775 690h-14q-30 0 -57.5 -17t-43.5 -42l-196 -309v-249q0 -26 18.5 -44.5t45.5 -18.5h12v-10h-358v10h13q26 0 44.5 18t19.5 44v250l-191 311q-15 24 -42.5 40.5t-56.5 16.5h-14v10
h386v-10h-12q-22 0 -34 -20q-6 -11 -6 -21.5t5 -20.5l137 -247l142 247q6 10 6 20.5t-7 20.5q-13 21 -34 21h-12v10h249v-10z" />
    <glyph glyph-name="Thorn" unicode="&#xde;" horiz-adv-x="707" 
d="M693 353q0 -46 -18.5 -89t-53.5 -72q-63 -51 -134 -51q-72 0 -136 46v10q36 6 54.5 19.5t29.5 24.5q25 27 33.5 63t8.5 51q0 79 -34 116t-91 37h-27v-435q0 -37 32 -55q14 -8 32 -8h12v-10h-358v10h12q27 0 45.5 18.5t19.5 44.5v555q-1 26 -19.5 44t-44.5 18h-13v10h358
v-10h-12q-26 0 -45 -18t-19 -44v-70h91q166 0 234 -79q43 -50 43 -126z" />
    <glyph glyph-name="germandbls" unicode="&#xdf;" horiz-adv-x="1098" 
d="M514 202q0 -110 -79 -165q-70 -49 -194 -49q-74 0 -123.5 16.5t-68.5 40.5q-9 21 -9 44t4 44q11 53 35 83h6v-9q0 -67 48 -120q49 -53 135 -53q51 0 77 23t26 53t-23.5 53t-76.5 46l-105 49q-64 27 -94 79q-23 40 -23 88q0 16 2 32q22 155 190 155q56 0 151 -9h67
l-24 -146h-6q0 49 -35.5 78.5t-88.5 29.5q-102 0 -109 -66q-3 -32 24 -51q21 -14 58 -29l129 -59q53 -23 80 -64t27 -94zM1063 202q0 -110 -79 -165q-70 -49 -194 -49q-74 0 -123.5 16.5t-68.5 40.5q-9 21 -9 44t4 44q11 53 35 83h6v-9q0 -67 48 -120q49 -53 135 -53
q51 0 77 23t26 53t-23.5 53t-76.5 46l-105 49q-64 27 -94 79q-23 40 -23 88q0 16 2 32q22 155 190 155q56 0 151 -9h67l-24 -146h-6q0 49 -35.5 78.5t-94.5 29.5q-62 0 -88 -31q-13 -15 -15 -33t3.5 -30.5t20.5 -22.5q21 -14 58 -29l129 -59q53 -23 80 -64t27 -94z" />
    <glyph glyph-name="agrave" unicode="&#xe0;" horiz-adv-x="632" 
d="M331 671l-7 -7q-52 6 -117.5 33t-114.5 60q21 73 85 100q43 -37 89.5 -89.5t64.5 -96.5zM668 10h8v-10h-351v10h7q20 0 29.5 10.5t9.5 20t-5 20.5l-29 66h-185l-30 -69q-4 -9 -4 -18t9.5 -19.5t29.5 -10.5h7v-10h-206v10h8q21 0 42.5 12t33.5 37l206 444q49 107 52 133h8
l282 -575q26 -51 78 -51zM171 172h146l-73 168z" />
    <glyph glyph-name="aacute" unicode="&#xe1;" horiz-adv-x="632" 
d="M288 661l-7 7q18 44 64.5 96.5t89.5 89.5q64 -27 85 -100q-50 -33 -115 -60t-117 -33zM668 10h8v-10h-352v10h8q20 0 29.5 10.5t9.5 20t-5 20.5l-29 66h-185l-30 -69q-4 -9 -4 -18t9.5 -19.5t29.5 -10.5h7v-10h-206v10h8q21 0 42.5 12t33.5 37l206 444q49 107 52 133h8
l282 -575q26 -51 78 -51zM171 172h146l-73 168z" />
    <glyph glyph-name="acircumflex" unicode="&#xe2;" horiz-adv-x="632" 
d="M297 832h12l179 -176l-8 -8l-177 65l-167 -65l-8 8zM668 10h8v-10h-352v10h8q20 0 29.5 10.5t9.5 20t-5 20.5l-29 66h-185l-30 -69q-4 -9 -4 -18t9.5 -19.5t29.5 -10.5h7v-10h-206v10h8q21 0 42.5 12t33.5 37l206 444q49 107 52 133h8l282 -575q26 -51 78 -51zM171 172
h146l-73 168z" />
    <glyph glyph-name="atilde" unicode="&#xe3;" horiz-adv-x="632" 
d="M500 819h12q6 -17 6 -36.5t-9 -38.5q-21 -50 -61 -68q-24 -12 -58 -12t-74 23q-16 9 -38.5 18.5t-36 11.5t-23.5 2t-25 -6q-39 -16 -51 -46h-12q-3 15 -3 36t9 44q22 51 60 70q23 12 52 12t83 -27t99 -27q14 0 38.5 14.5t31.5 29.5zM668 10h8v-10h-352v10h8
q20 0 29.5 10.5t9.5 20t-5 20.5l-29 66h-186l-29 -69q-4 -9 -4 -18t9.5 -19.5t29.5 -10.5h7v-10h-206v10h8q21 0 42.5 12t33.5 37l206 444q48 107 52 133h8l282 -575q26 -51 78 -51zM171 172h146l-73 168z" />
    <glyph glyph-name="adieresis" unicode="&#xe4;" horiz-adv-x="632" 
d="M169.5 655q-30.5 0 -52 22t-21.5 52.5t21.5 52t52 21.5t52 -21.5t21.5 -52t-21.5 -52.5t-52 -22zM432.5 655q-30.5 0 -52 22t-21.5 52.5t21.5 52t52 21.5t52 -21.5t21.5 -52t-21.5 -52.5t-52 -22zM668 10h8v-10h-352v10h8q20 0 29.5 10.5t9.5 20t-5 20.5l-29 66h-185
l-30 -69q-4 -9 -4 -18t9.5 -19.5t29.5 -10.5h7v-10h-206v10h8q21 0 42.5 12t33.5 37l206 444q49 107 52 133h8l282 -575q26 -51 78 -51zM171 172h146l-73 168z" />
    <glyph glyph-name="aring" unicode="&#xe5;" horiz-adv-x="632" 
d="M219 816.5q34 25.5 84.5 25.5t84 -25t33.5 -63.5t-33.5 -64.5t-84 -26t-84.5 25.5t-34 64t34 64zM340 795q-15 17 -33 17t-30 -8q-24 -16 -24 -46.5t14.5 -47t36 -16.5t36.5 16.5t15 42t-15 42.5zM668 10h8v-10h-352v10h8q20 0 29.5 10.5t9.5 20t-5 20.5l-29 66h-186
l-29 -69q-4 -9 -4 -18t9.5 -19.5t29.5 -10.5h7v-10h-206v10h8q21 0 42.5 12t33.5 37l206 444q48 107 52 133h8l282 -575q26 -51 78 -51zM171 172h146l-73 168z" />
    <glyph glyph-name="ae" unicode="&#xe6;" horiz-adv-x="885" 
d="M358 10q24 0 36 20q6 9 6 20v221h-134l-131 -210q-6 -11 -6 -20.5t10.5 -20t30.5 -10.5h8v-10h-209v10h8q37 0 75 53l337 484q7 11 7 19q0 24 -26 24h-4v9h355q37 0 66 6t37 10v-188l-9 1v5q0 55 -30.5 86.5t-85.5 33.5h-107v-237h81q42 2 69 29.5t27 70.5v3h8v-252h-8v3
q0 43 -26.5 70.5t-68.5 30.5h-82v-225h92q64 0 114 43t70 120h9l-32 -209h-496l1 10h8zM400 316v168l-105 -168h105z" />
    <glyph glyph-name="ccedilla" unicode="&#xe7;" horiz-adv-x="668" 
d="M365 -57q14 5 24 5h20.5t30.5 -5.5t32 -20.5t12 -27q0 -46 -32 -73q-42 -36 -100 -36q-28 0 -57 9l1 10q36 0 70 20.5t34 60.5q0 16 -16 28q-31 21 -82 5l-5 10l48 62q-152 13 -237 93t-85 222t100 224t281 82q127 0 218 -36l-13 -170h-7q-26 88 -70.5 124.5t-110.5 36.5
q-99 0 -146.5 -70.5t-47.5 -193t46.5 -195t130.5 -75.5q70 0 106 21q39 22 59 68q19 44 37 128h7l26 -160q-60 -102 -235 -102z" />
    <glyph glyph-name="egrave" unicode="&#xe8;" horiz-adv-x="575" 
d="M315 671l-7 -7q-53 7 -118 33.5t-115 59.5q21 73 85 100q43 -37 89.5 -89.5t65.5 -96.5zM21 0v10h11q21 0 32 11q20 19 20 41v475q0 23 -15.5 38t-36.5 15h-11v10h390q25 0 56 5t43 10v-189h-10v5q0 58 -30.5 90t-86.5 33h-103v-235h77q44 1 71.5 29.5t27.5 73.5v2h10
v-258h-10v4q0 44 -27.5 73t-71.5 29h-77v-226h96q60 0 109 44t67 120h9l-28 -210h-512z" />
    <glyph glyph-name="eacute" unicode="&#xe9;" horiz-adv-x="575" 
d="M271 661l-7 7q19 45 65 97t89 89q64 -27 86 -100q-70 -46 -134 -67t-99 -26zM21 0v10h11q21 0 32 11q20 19 20 41v475q0 23 -15.5 38t-36.5 15h-11v10h390q25 0 56 5t43 10v-189h-10v5q0 58 -30.5 90t-86.5 33h-103v-235h77q44 1 71.5 29.5t27.5 73.5v2h10v-258h-10v4
q0 44 -27.5 73t-71.5 29h-77v-226h96q60 0 109 44t67 120h9l-28 -210h-512z" />
    <glyph glyph-name="ecircumflex" unicode="&#xea;" horiz-adv-x="575" 
d="M280 832h12l179 -175l-7 -8l-178 64l-167 -64l-7 8zM21 0v10h11q21 0 32 11q20 19 20 41v475q0 23 -15.5 38t-36.5 15h-11v10h390q25 0 56 5t43 10v-189h-10v5q0 58 -30.5 90t-86.5 33h-103v-235h77q44 1 71.5 29.5t27.5 73.5v2h10v-258h-10v4q0 44 -27.5 73t-71.5 29
h-77v-226h96q60 0 109 44t67 120h9l-28 -210h-512z" />
    <glyph glyph-name="edieresis" unicode="&#xeb;" horiz-adv-x="575" 
d="M152.5 656q-30.5 0 -52 21.5t-21.5 52t21.5 52t52 21.5t52.5 -21.5t22 -52t-22 -52t-52.5 -21.5zM415.5 656q-30.5 0 -52 21.5t-21.5 52t21.5 52t52 21.5t52 -21.5t21.5 -52t-21.5 -52t-52 -21.5zM21 0v10h11q21 0 32 11q20 19 20 41v475q0 23 -15.5 38t-36.5 15h-11v10
h390q25 0 56 5t43 10v-189h-10v5q0 78 -53 107q-26 15 -64 16h-103v-235h77q44 1 71.5 29.5t27.5 73.5v2h10v-258h-10v4q0 44 -27.5 73t-71.5 29h-77v-226h96q60 0 109 44t67 120h9l-28 -210h-512z" />
    <glyph glyph-name="igrave" unicode="&#xec;" horiz-adv-x="362" 
d="M206 671l-7 -7q-53 7 -118 33.5t-115 59.5q20 73 85 100q43 -37 89.5 -89t65.5 -97zM331 10h11v-10h-321v10h11q21 0 36 15t15 37v476q0 22 -15 37t-36 15h-11v10h320v-10h-10q-30 0 -44 -25q-7 -12 -8 -27v-476q1 -35 32 -48q10 -4 20 -4z" />
    <glyph glyph-name="iacute" unicode="&#xed;" horiz-adv-x="362" 
d="M162 662l-7 7q19 44 65 96t90 89q64 -27 85 -100q-50 -33 -115 -59.5t-118 -32.5zM331 10h11v-10h-321v10h11q21 0 36 15t15 37v476q0 22 -15 37t-36 15h-11v10h320v-10h-10q-30 0 -44 -25q-7 -12 -8 -27v-476q1 -35 32 -48q10 -4 20 -4z" />
    <glyph glyph-name="icircumflex" unicode="&#xee;" horiz-adv-x="362" 
d="M172 832h12l178 -175l-7 -8l-178 64l-167 -64l-7 8zM331 10h11v-10h-321v10h11q21 0 36 15t15 37v476q0 22 -15 37t-36 15h-11v10h320v-10h-10q-21 0 -36 -15t-16 -37v-476q1 -35 32 -48q10 -4 20 -4z" />
    <glyph glyph-name="idieresis" unicode="&#xef;" horiz-adv-x="362" 
d="M44.5 656q-30.5 0 -52.5 21.5t-22 52t22 52t52.5 21.5t52 -21.5t21.5 -52t-21.5 -52t-52 -21.5zM306.5 656q-30.5 0 -52 21.5t-21.5 52t21.5 52t52 21.5t52 -21.5t21.5 -52t-21.5 -52t-52 -21.5zM331 10h11v-10h-321v10h11q21 0 36 15t15 37v476q0 22 -15 37t-36 15h-11
v10h320v-10h-10q-30 0 -44 -25q-7 -12 -8 -27v-476q1 -22 16 -37t36 -15z" />
    <glyph glyph-name="eth" unicode="&#xf0;" horiz-adv-x="741" 
d="M717 299.5q0 -142.5 -94 -221t-264 -78.5h-340v10h12q23 0 35 11q21 19 21 41v216h-67v45h67v216q-1 22 -17.5 36.5t-39.5 14.5h-12v10h341q170 0 264 -79t94 -221.5zM283 278v-232h57q80 0 126 67t46 187q0 162 -80 225q-39 30 -92 30h-57v-232h105v-45h-105z" />
    <glyph glyph-name="ntilde" unicode="&#xf1;" horiz-adv-x="779" 
d="M557 819h13q6 -17 6 -36.5t-9 -38.5q-22 -50 -61 -68q-24 -12 -55 -12t-81 25q-49 25 -67 27.5t-32.5 2.5t-38.5 -16t-32 -36h-13q-3 14 -3 29q0 60 44 103q31 30 68.5 30t91.5 -27t99 -27q15 0 39.5 14.5t30.5 29.5zM768 590h-17q-23 0 -39 -14t-16 -35v-444
q0 -65 9 -98l3 -11h-9l-420 353v-281q1 -21 16.5 -35.5t38.5 -14.5h16v-10h-338v10h16q23 0 39 14.5t16 35.5v447q0 60 -9 95l-3 11h9l419 -354v281q0 30 -27 44q-12 6 -27 6h-17v10h340v-10z" />
    <glyph glyph-name="ograve" unicode="&#xf2;" horiz-adv-x="779" 
d="M417 672l-7 -7q-53 6 -118 33t-115 60q21 73 85 99q43 -37 89.5 -89t65.5 -96zM121.5 530q96.5 82 268 82t268 -82t96.5 -230t-96.5 -230t-268 -82t-268 82t-96.5 230t96.5 230zM270 102.5q41 -69.5 119 -69.5t119 69.5t41 196.5q0 173 -72 236q-36 32 -88 32
q-78 0 -119 -69.5t-41 -197.5t41 -197.5z" />
    <glyph glyph-name="oacute" unicode="&#xf3;" horiz-adv-x="779" 
d="M373 662l-7 7q19 44 65 96.5t90 89.5q64 -27 85 -100q-50 -33 -115 -60t-118 -33zM121.5 530q96.5 82 268 82t268 -82t96.5 -230t-96.5 -230t-268 -82t-268 82t-96.5 230t96.5 230zM270 102.5q41 -69.5 119 -69.5t119 69.5t41 196.5q0 173 -72 236q-36 32 -88 32
q-78 0 -119 -69.5t-41 -197.5t41 -197.5z" />
    <glyph glyph-name="ocircumflex" unicode="&#xf4;" horiz-adv-x="779" 
d="M383 833h12l178 -176l-7 -8l-178 65l-167 -65l-7 8zM121.5 530q96.5 82 268 82t268 -82t96.5 -230t-96.5 -230t-268 -82t-268 82t-96.5 230t96.5 230zM270 102.5q41 -69.5 119 -69.5t119 69.5t41 197.5t-41 197.5t-119 69.5t-119 -69.5t-41 -197.5t41 -197.5z" />
    <glyph glyph-name="otilde" unicode="&#xf5;" horiz-adv-x="779" 
d="M585 820h12q6 -17 6 -36.5t-8 -38.5q-22 -50 -61 -69q-24 -11 -55.5 -11t-80.5 25q-49 24 -67 27t-32.5 3t-38.5 -16t-33 -36h-12q-4 13 -4 29q0 60 45 103q31 30 68.5 30t91.5 -27t99 -27q15 0 39.5 14.5t30.5 29.5zM121.5 530q96.5 82 268 82t268 -82t96.5 -230
t-96.5 -230t-268 -82t-268 82t-96.5 230t96.5 230zM270 102.5q41 -69.5 119 -69.5t119 69.5t41 196.5q0 173 -72 236q-36 32 -88 32q-78 0 -119 -70t-41 -197.5t41 -197z" />
    <glyph glyph-name="odieresis" unicode="&#xf6;" horiz-adv-x="779" 
d="M255.5 656q-30.5 0 -52.5 22t-22 52.5t22 52t52.5 21.5t52 -21.5t21.5 -52t-21.5 -52.5t-52 -22zM517.5 656q-30.5 0 -52 22t-21.5 52.5t21.5 52t52 21.5t52 -21.5t21.5 -52t-21.5 -52.5t-52 -22zM121.5 530q96.5 82 268 82t268 -82t96.5 -230t-96.5 -230t-268 -82
t-268 82t-96.5 230t96.5 230zM270 102.5q41 -69.5 119 -69.5t119 69.5t41 196.5q0 173 -72 236q-36 32 -88 32q-78 0 -119 -69.5t-41 -197.5t41 -197.5z" />
    <glyph glyph-name="divide" unicode="&#xf7;" horiz-adv-x="481" 
d="M240.5 416q-21.5 0 -37 15.5t-15.5 37t15.5 36.5t37 15t37 -15t15.5 -36.5t-15.5 -37t-37 -15.5zM40 277v65h402v-65h-402zM240.5 100q-21.5 0 -37 15.5t-15.5 37t15.5 36.5t37 15t37 -15t15.5 -36.5t-15.5 -37t-37 -15.5z" />
    <glyph glyph-name="oslash" unicode="&#xf8;" horiz-adv-x="779" 
d="M754 299q0 -147 -96.5 -229t-268.5 -82q-114 0 -197 37l-49 -58l-44 36l43 51q-117 82 -117 238t96.5 238t267.5 82q111 0 194 -38l58 69l43 -35l-52 -62q122 -84 122 -247zM512 490q-41 77 -121 77t-121 -69.5t-41 -198.5q0 -72 14 -126zM265 112q41 -79 121.5 -79
t121.5 69.5t41 196.5q0 76 -15 132z" />
    <glyph glyph-name="ugrave" unicode="&#xf9;" horiz-adv-x="708" 
d="M425 671l-7 -7q-53 6 -118 33t-115 60q21 73 85 100q62 -53 102 -104.5t53 -81.5zM697 592h-13q-18 0 -31 -12.5t-13 -30.5v-326q0 -111 -66 -173t-188 -62q-310 0 -310 233v328q0 26 -22 38q-10 5 -22 5h-13v8h310v-8h-14q-18 0 -30 -12t-13 -31v-326q0 -120 67 -165
q33 -22 79 -22q68 0 105 46t38 130v337q-1 26 -22 38q-10 5 -22 5h-13v8h193v-8z" />
    <glyph glyph-name="uacute" unicode="&#xfa;" horiz-adv-x="708" 
d="M381 661l-7 7q19 44 65 96.5t89 89.5q64 -27 86 -100q-50 -33 -115.5 -60t-117.5 -33zM697 592h-13q-18 0 -31 -12.5t-13 -30.5v-326q0 -111 -66 -173t-188 -62q-310 0 -310 233v328q0 26 -22 38q-10 5 -22 5h-13v8h310v-8h-14q-18 0 -30 -12t-13 -31v-326
q0 -120 67 -165q33 -22 79 -22q68 0 105 46t38 130v337q-1 26 -22 38q-10 5 -22 5h-13v8h193v-8z" />
    <glyph glyph-name="ucircumflex" unicode="&#xfb;" horiz-adv-x="708" 
d="M390 832h12l179 -176l-7 -8l-178 65l-167 -65l-7 8zM697 592h-13q-18 0 -31 -12.5t-13 -30.5v-326q0 -111 -66 -173t-188 -62q-310 0 -310 233v328q0 26 -22 38q-10 5 -22 5h-13v8h310v-8h-14q-18 0 -30.5 -12t-12.5 -31v-326q0 -89 38.5 -138t107 -49t105.5 46t38 130
v337q-1 19 -13.5 31t-30.5 12h-13v8h193v-8z" />
    <glyph glyph-name="udieresis" unicode="&#xfc;" horiz-adv-x="708" 
d="M262.5 655q-30.5 0 -52 22t-21.5 52.5t21.5 52t52 21.5t52.5 -21.5t22 -52t-22 -52.5t-52.5 -22zM525.5 655q-30.5 0 -52 22t-21.5 52.5t21.5 52t52 21.5t52 -21.5t21.5 -52t-21.5 -52.5t-52 -22zM697 592h-13q-18 0 -31 -12.5t-13 -30.5v-326q0 -111 -66 -173t-188 -62
q-310 0 -310 233v328q0 29 -27 40q-8 3 -17 3h-13v8h310v-8h-14q-18 0 -30.5 -12t-12.5 -31v-326q0 -120 67 -165q33 -22 79 -22q68 0 105 46t38 130v337q-1 19 -13.5 31t-30.5 12h-13v8h193v-8z" />
    <glyph glyph-name="yacute" unicode="&#xfd;" horiz-adv-x="633" 
d="M356 661l-7 7q19 44 65.5 96.5t89.5 89.5q64 -27 85 -100q-50 -33 -115 -60t-118 -33zM684 590h-13q-26 0 -48.5 -13.5t-36.5 -33.5l-169 -264v-217q1 -31 28 -45q12 -7 27 -7h11v-10h-328v10h12q22 0 38 15t16 37v216l-172 265q-14 20 -37 33.5t-48 13.5h-12v10h350v-10
h-10q-19 0 -27 -12.5t-8 -21.5t5 -17l124 -210l121 210q5 8 5 16.5t-8.5 21.5t-26.5 13h-10v10h217v-10z" />
    <glyph glyph-name="thorn" unicode="&#xfe;" 
d="M616 303q0 -39 -15 -77q-31 -74 -117 -100q-22 -7 -43 -7q-68 0 -124 42l-1 8q45 5 75 56q24 39 24 91q0 57 -29 88.5t-77 31.5h-14v-373q0 -31 27 -46q13 -7 28 -7h10l1 -10h-324v10h11q23 0 39 15t16 38v475q0 22 -16 37t-39 15h-11v10h324l-1 -10h-10q-32 0 -48 -25
q-7 -12 -8 -27v-57h76q125 0 183 -46q63 -49 63 -132z" />
    <glyph glyph-name="ydieresis" unicode="&#xff;" horiz-adv-x="633" 
d="M238.5 655q-30.5 0 -52 22t-21.5 52.5t21.5 52t52 21.5t52 -21.5t21.5 -52t-21.5 -52.5t-52 -22zM501.5 655q-30.5 0 -52.5 22t-22 52.5t22 52t52.5 21.5t52 -21.5t21.5 -52t-21.5 -52.5t-52 -22zM684 590h-13q-26 0 -48.5 -13.5t-36.5 -33.5l-169 -264v-217
q0 -22 16 -37t39 -15h11v-10h-328v10h12q22 0 38 15t16 37v216l-172 265q-19 28 -43.5 37.5t-41.5 9.5h-12v10h350v-10h-10q-19 0 -27 -12.5t-8 -21.5t5 -17l124 -210l121 210q5 8 5 16.5t-8.5 21.5t-26.5 13h-11v10h218v-10z" />
    <glyph glyph-name="Amacron" unicode="&#x100;" horiz-adv-x="720" 
d="M207 795v85h290v-85h-290zM752 10h8v-10h-379v10h9q22 0 33 13.5t11 25t-5 24.5l-39 93h-214l-40 -93q-5 -13 -5 -21t3.5 -17.5t15 -17t24.5 -7.5h9v-10h-223v10h9q23 0 45.5 13.5t37.5 40.5l233 511q53 112 57 149h9l317 -659q32 -55 84 -55zM198 216h171l-84 200z" />
    <glyph glyph-name="amacron" unicode="&#x101;" horiz-adv-x="632" 
d="M162 695v85h290v-85h-290zM668 10h8v-10h-352v10h8q20 0 29.5 10.5t9.5 20t-5 20.5l-29 66h-185l-30 -69q-4 -9 -4 -18t9.5 -19.5t29.5 -10.5h7v-10h-206v10h8q21 0 42.5 12t33.5 37l206 444q49 107 52 133h8l282 -575q26 -51 78 -51zM171 172h146l-73 168z" />
    <glyph glyph-name="Abreve" unicode="&#x102;" horiz-adv-x="720" 
d="M492 897q0 -46 -33 -83q-43 -50 -110.5 -50t-110.5 50q-32 38 -32 83q0 15 3 31h13q14 -33 61 -52q30 -12 69.5 -12t75.5 18t48 46h12q4 -16 4 -31zM752 10h8v-10h-379v10h9q22 0 33 13.5t11 25t-5 24.5l-39 93h-214l-40 -93q-5 -13 -5 -21t3.5 -17.5t15 -17t24.5 -7.5h9
v-10h-223v10h9q23 0 45.5 13.5t37.5 40.5l233 511q53 112 57 149h9l317 -659q32 -55 84 -55zM198 216h171l-84 200z" />
    <glyph glyph-name="abreve" unicode="&#x103;" horiz-adv-x="632" 
d="M448 797q0 -46 -33 -83q-44 -50 -111 -50t-110 50q-32 38 -32 83q0 15 3 31h13q12 -28 47.5 -46t71.5 -18t62 8q56 18 72 56h13q4 -16 4 -31zM668 10h8v-10h-352v10h8q20 0 29.5 10.5t9.5 20t-5 20.5l-29 66h-185l-30 -69q-4 -9 -4 -18t9.5 -19.5t29.5 -10.5h7v-10h-206
v10h8q21 0 42.5 12t33.5 37l206 444q49 107 52 133h8l282 -575q26 -51 78 -51zM171 172h146l-73 168z" />
    <glyph glyph-name="Aogonek" unicode="&#x104;" horiz-adv-x="720" 
d="M720 2.5q-39 2.5 -65.5 4t-45.5 1.5q-75 0 -108 -8q-64 -15 -64 -65q0 -51 40 -67q11 -4 29 -4t43 21l6 -6q-3 -63 -60 -81q-17 -5 -42.5 -5t-57.5 21q-46 30 -46 81q0 41 19 63q6 6 8 9t10.5 9.5t10 7.5l12.5 8t12 8q18 12 18 28.5t-9 40.5l-42 97h-210l-43 -95
q-11 -28 4 -45q14 -16 35 -16h9v-10h-223v10h9q25 0 49 15.5t39 47.5l228 492q53 112 57 149h9l313 -641q10 -21 26 -34q24 -20 70 -29v-10q-1 0 -40 2.5zM200 216h167l-82 192z" />
    <glyph glyph-name="aogonek" unicode="&#x105;" horiz-adv-x="632" 
d="M596 1q-22 1 -37.5 1h-29.5q-151 0 -151 -74q0 -51 40 -67q12 -4 30 -4t43 21l6 -6q-3 -63 -60 -81q-18 -5 -43 -5t-57 21q-46 30 -46 81q0 41 19 63q6 6 8 9t10.5 9.5t10 7.5l12.5 8t12 8q17 12 17 29t-10 44l-29 67h-190l-33 -74q-4 -9 -4 -18.5t9.5 -20t29.5 -10.5h7
v-10h-196v10h8q21 0 42 12t34 38l202 435q47 103 50 130h8l277 -566q11 -20 31 -33t35 -16l15 -3v-10q-3 0 -25.5 1.5t-44.5 2.5zM170 177h152l-75 173z" />
    <glyph glyph-name="Cacute" unicode="&#x106;" horiz-adv-x="793" 
d="M419 761l-7 7q19 44 65.5 96.5t89.5 89.5q64 -27 85 -100q-50 -33 -115 -60t-118 -33zM35 351q0 113 52 195t150.5 125t241.5 43t251 -46l-10 -191h-9q-29 101 -84 144t-137 43q-111 0 -173 -82t-62 -228.5t57.5 -230.5t159.5 -87q118 0 171 56q50 52 78 200h8l24 -182
q-74 -124 -279.5 -123.5t-322 96t-116.5 268.5z" />
    <glyph glyph-name="cacute" unicode="&#x107;" horiz-adv-x="668" 
d="M360 676l-7 7q19 44 65.5 96.5t89.5 89.5q64 -27 85 -100q-50 -33 -115 -59.5t-118 -33.5zM23 301q0 147 100 229t281 82q127 0 218 -36l-13 -170h-7q-26 88 -70.5 124.5t-110.5 36.5q-99 0 -146.5 -70.5t-47.5 -192.5q0 -166 81 -235q40 -34 85.5 -35t71 3.5t45.5 16
t33.5 27t25.5 41.5q19 44 37 128h7l26 -160q-60 -102 -235 -102q-242 1 -335 143q-46 70 -46 170z" />
    <glyph glyph-name="Cdotaccent" unicode="&#x10a;" horiz-adv-x="793" 
d="M436 764q-31 0 -52.5 21.5t-21.5 52t21.5 52t52.5 21.5t52.5 -21.5t21.5 -52t-21.5 -52t-52.5 -21.5zM35 351q0 113 52 195t150.5 125t241.5 43t251 -46l-10 -191h-9q-29 101 -84 144t-137 43q-111 0 -173 -82t-62 -228.5t57.5 -230.5t159.5 -87q118 0 171 56
q50 52 78 200h8l24 -182q-74 -124 -279.5 -123.5t-322 96t-116.5 268.5z" />
    <glyph glyph-name="cdotaccent" unicode="&#x10b;" horiz-adv-x="668" 
d="M377.5 679q-30.5 0 -52.5 21.5t-22 52t22 52.5t52.5 22t52 -22t21.5 -52.5t-21.5 -52t-52 -21.5zM124 70q-101 81 -101 229.5t100 230.5t281 82q127 0 218 -36l-13 -170h-7q-26 88 -70.5 124.5t-110.5 36.5q-99 0 -146.5 -70.5t-47.5 -193t46.5 -195t130.5 -75.5
q70 0 106 21q39 22 59 68q19 44 37 128h7l26 -160q-60 -102 -237 -101.5t-278 81.5z" />
    <glyph glyph-name="Ccaron" unicode="&#x10c;" horiz-adv-x="793" 
d="M443 764h-12l-169 175l7 8l168 -64l158 64l7 -8zM35 351q0 113 52 195t150.5 125t241.5 43t251 -46l-10 -191h-9q-29 101 -84 144t-137 43q-111 0 -173 -82t-62 -228.5t57.5 -230.5t159.5 -87q118 0 171 56q50 52 78 200h8l24 -182q-74 -124 -279.5 -123.5t-322 96
t-116.5 268.5z" />
    <glyph glyph-name="ccaron" unicode="&#x10d;" horiz-adv-x="668" 
d="M384 679h-12l-169 176l7 8l168 -65l158 65l7 -8zM124 70q-101 81 -101 229.5t100 230.5t281 82q127 0 218 -36l-13 -170h-7q-26 88 -70.5 124.5t-110.5 36.5q-99 0 -146.5 -70.5t-47.5 -193t46.5 -195t130.5 -75.5q70 0 106 21q39 22 59 68q19 44 37 128h7l26 -160
q-60 -102 -237 -101.5t-278 81.5z" />
    <glyph glyph-name="Dcaron" unicode="&#x10e;" horiz-adv-x="842" 
d="M428 764h-12l-169 175l7 8l169 -64l157 64l7 -8zM808 350q0 -110 -47.5 -188.5t-137.5 -120t-214 -41.5h-379v10h13q26 0 44.5 18.5t19.5 44.5v560q0 24 -19.5 40.5t-44.5 16.5h-13v10h379q188 0 293.5 -92.5t105.5 -257.5zM312 650v-600h77q93 0 146 79.5t53 220.5
t-53 220.5t-146 79.5h-77z" />
    <glyph glyph-name="dcaron" unicode="&#x10f;" horiz-adv-x="741" 
d="M366 665h-12l-169 175l7 8l169 -64l157 64l7 -8zM717 299.5q0 -142.5 -94 -221t-264 -78.5h-340v10h12q23 0 39.5 16t16.5 38v475q-2 22 -18 36.5t-39 14.5h-12v10h341q170 0 264 -79t94 -221.5zM283 555v-509h57q80 0 126 67t46 187q0 162 -80 225q-39 30 -92 30h-57z
" />
    <glyph glyph-name="Dcroat" unicode="&#x110;" horiz-adv-x="842" 
d="M279 795v85h290v-85h-290zM808 350q0 -165 -105.5 -257.5t-293.5 -92.5h-379v10h13q26 0 44.5 18.5t19.5 44.5v560q0 24 -19.5 40.5t-44.5 16.5h-12l-1 10h379q188 0 293.5 -92.5t105.5 -257.5zM312 650v-600h77q93 0 146 79.5t53 220.5t-53 220.5t-146 79.5h-77z" />
    <glyph glyph-name="dcroat" unicode="&#x111;" horiz-adv-x="741" 
d="M217 696v85h290v-85h-290zM717 299.5q0 -142.5 -94 -221t-264 -78.5h-340v10h12q23 0 39.5 16t16.5 38v475q-2 22 -18 36.5t-39 14.5h-12v10h341q170 0 264 -79t94 -221.5zM283 555v-509h57q80 0 126 67t46 187q0 162 -80 225q-39 30 -92 30h-57z" />
    <glyph glyph-name="Emacron" unicode="&#x112;" horiz-adv-x="667" 
d="M197 795v85h290v-85h-290zM43 10q26 0 44.5 18.5t19.5 44.5v554q-1 32 -27 51q-16 12 -37 12h-13v10h443q31 0 67.5 6t51.5 12v-206h-10v8q0 80 -58 112q-28 16 -67 17h-145v-279h109q48 1 78 31.5t30 78.5v4h10v-278h-10v5q0 47 -30 77.5t-77 31.5h-110v-269h123
q73 0 129 48t79 133h10l-38 -232h-585v10h13z" />
    <glyph glyph-name="emacron" unicode="&#x113;" horiz-adv-x="575" 
d="M146 696v85h290v-85h-290zM21 0v10h11q21 0 32 11q20 19 20 41v475q0 23 -15.5 38t-36.5 15h-11v10h390q25 0 56 5t43 10v-189h-10v5q0 58 -30.5 90t-86.5 33h-103v-235h77q44 1 71.5 29.5t27.5 73.5v2h10v-258h-10v4q0 44 -27.5 73t-71.5 29h-77v-226h96q60 0 109 44
t67 120h9l-28 -210h-512z" />
    <glyph glyph-name="Edotaccent" unicode="&#x116;" horiz-adv-x="667" 
d="M339.5 764q-30.5 0 -52.5 21.5t-22 52t22 52t52.5 21.5t52 -21.5t21.5 -52t-21.5 -52t-52 -21.5zM43 10q26 0 44.5 18.5t19.5 44.5v554q-1 32 -27 51q-16 12 -37 12h-13v10h443q43 0 76.5 7t42.5 11v-206h-10v8q0 80 -58 112q-28 16 -67 17h-145v-279h109q48 1 78 31.5
t30 78.5v4h10v-278h-10v5q0 47 -30 77.5t-77 31.5h-110v-269h123q73 0 129 48t79 133h10l-38 -232h-585v10h13z" />
    <glyph glyph-name="edotaccent" unicode="&#x117;" horiz-adv-x="575" 
d="M287.5 664q-30.5 0 -52 22t-21.5 52.5t21.5 52t52 21.5t52 -21.5t21.5 -52t-21.5 -52.5t-52 -22zM21 0v10h11q21 0 32 11q20 19 20 41v475q0 23 -15.5 38t-36.5 15h-11v10h390q25 0 56 5t43 10v-189h-10v5q0 58 -30.5 90t-86.5 33h-103v-235h77q44 1 71.5 29.5t27.5 73.5
v2h10v-258h-10v4q0 44 -27.5 73t-71.5 29h-77v-226h96q60 0 109 44t67 120h9l-28 -210h-512z" />
    <glyph glyph-name="Eogonek" unicode="&#x118;" horiz-adv-x="667" 
d="M667 -126q-6 -87 -104 -87q-25 0 -57 22q-44 31 -44 83q0 50 27.5 75.5t61.5 32.5h-521v10h13q26 0 44.5 18.5t19.5 44.5v554q-1 32 -27 51q-16 12 -37 12h-13v10h443q31 0 67.5 6t51.5 12v-206h-10v8q0 80 -58 112q-28 16 -67 17h-145v-279h109q48 1 78 31.5t30 78.5v4
h10v-278h-10v5q0 47 -30 77.5t-77 31.5h-110v-269h123q73 0 129 48t79 133h10l-38 -232h-2q-64 -15 -64 -69q0 -53 39 -68q11 -4 29 -4t44 21z" />
    <glyph glyph-name="eogonek" unicode="&#x119;" horiz-adv-x="575" 
d="M381 -108q0 87 88 108h-448v10h11q21 0 32 11q20 19 20 41v475q0 23 -15.5 38t-36.5 15h-11v10h390q25 0 56 5t43 10v-189h-10v5q0 58 -30.5 90t-86.5 33h-103v-235h77q44 1 71.5 29.5t27.5 73.5v2h10v-258h-10v4q0 44 -27.5 73t-71.5 29h-77v-226h96q60 0 109 44t67 120
h9l-28 -210h-2q-63 -15 -63 -69q0 -53 40 -68q10 -4 28 -4t44 21l6 -6q-4 -64 -61 -82q-18 -5 -43 -5t-57 22q-44 31 -44 83z" />
    <glyph glyph-name="Ecaron" unicode="&#x11a;" horiz-adv-x="667" 
d="M346 764h-12l-169 175l7 8l168 -64l158 64l7 -8zM43 10q26 0 44.5 18.5t19.5 44.5v554q-1 32 -27 51q-16 12 -37 12h-13v10h443q31 0 67.5 6t51.5 12v-206h-10v8q0 80 -58 112q-28 16 -67 17h-145v-279h109q48 1 78 31.5t30 78.5v4h10v-278h-10v5q0 47 -30 77.5t-77 31.5
h-110v-269h123q73 0 129 48t79 133h10l-38 -232h-585v10h13z" />
    <glyph glyph-name="ecaron" unicode="&#x11b;" horiz-adv-x="575" 
d="M295 664h-13l-168 176l7 8l168 -64l158 64l7 -8zM21 0v10h11q21 0 32 11q20 19 20 41v475q0 23 -15.5 38t-36.5 15h-11v10h390q25 0 56 5t43 10v-189h-10v5q0 58 -30.5 90t-86.5 33h-103v-235h77q44 1 71.5 29.5t27.5 73.5v2h10v-258h-10v4q0 44 -27.5 73t-71.5 29h-77
v-226h96q60 0 109 44t67 120h9l-28 -210h-512z" />
    <glyph glyph-name="Gbreve" unicode="&#x11e;" horiz-adv-x="861" 
d="M569 897q0 -46 -33 -83q-43 -50 -110.5 -50t-110.5 50q-32 38 -32 83q0 15 3 31h13q12 -28 47.5 -46t79 -18t79.5 18t48 46h13q3 -16 3 -31zM425 -14q-179 0 -284.5 97.5t-105.5 268t106 266.5t294 96q81 0 167 -13.5t131 -32.5l-10 -191h-9q-52 187 -229 187
q-230 0 -230 -322q0 -146 47.5 -226t144.5 -80q53 0 92.5 28.5t39.5 78.5l1 137q0 22 -13.5 33.5t-37.5 11.5h-16v10h336v-10h-15q-25 0 -38 -11.5t-12 -33.5v-165q-56 -71 -203 -109q-76 -20 -156 -20z" />
    <glyph glyph-name="gbreve" unicode="&#x11f;" horiz-adv-x="723" 
d="M508 809q0 -46 -33 -83q-43 -50 -110.5 -50t-110.5 50q-32 38 -32 83q0 15 3 31h13q12 -28 47.5 -46t79 -18t79.5 18t48 46h12q4 -16 4 -31zM354.5 -12q-100.5 0 -174.5 37t-115 108t-41 169q0 146 89.5 228t251.5 82q68 0 144 -10.5t113 -25.5l-14 -170h-7
q-45 161 -185 161q-97 0 -142.5 -69.5t-45.5 -205.5q0 -259 149 -259q41 0 67.5 23.5t26.5 56.5q0 7 -1 15v112q0 19 -11 29.5t-31 10.5h-14v8h305v-8h-12q-43 0 -43 -40v-142q-31 -42 -120 -76t-189.5 -34z" />
    <glyph glyph-name="Gdotaccent" unicode="&#x120;" horiz-adv-x="861" 
d="M426 764q-31 0 -52.5 21.5t-21.5 52t21.5 52t52.5 21.5t52.5 -21.5t21.5 -52t-21.5 -52t-52.5 -21.5zM425 -14q-179 0 -284.5 97.5t-105.5 268t106 266.5t294 96q81 0 167 -13.5t131 -32.5l-10 -191h-9q-52 187 -229 187q-230 0 -230 -322q0 -146 47.5 -226t144.5 -80
q53 0 92.5 28.5t39.5 78.5l1 137q0 22 -13.5 33.5t-37.5 11.5h-16v10h336v-10h-15q-25 0 -38 -11.5t-12 -33.5v-165q-56 -71 -203 -109q-76 -20 -156 -20z" />
    <glyph glyph-name="gdotaccent" unicode="&#x121;" horiz-adv-x="723" 
d="M365 676q-31 0 -52.5 21.5t-21.5 52t21.5 52t52.5 21.5t52.5 -21.5t21.5 -52t-21.5 -52t-52.5 -21.5zM354.5 -12q-100.5 0 -174.5 37t-115 108t-41 169q0 146 89.5 228t251.5 82q68 0 144 -10.5t113 -25.5l-14 -170h-7q-45 161 -185 161q-97 0 -142.5 -69.5t-45.5 -205.5
q0 -259 149 -259q41 0 68 23.5t27 56.5q0 7 -2 15v112q0 19 -11 29.5t-31 10.5h-14v8h305v-8h-12q-43 0 -43 -40v-142q-31 -42 -120 -76t-189.5 -34z" />
    <glyph glyph-name="Gcommaaccent" unicode="&#x122;" horiz-adv-x="861" 
d="M425 -14q-179 0 -284.5 97.5t-105.5 268t106 266.5t294 96q81 0 167 -13.5t131 -32.5l-10 -191h-9q-52 187 -229 187q-230 0 -230 -322q0 -146 47.5 -226t144.5 -80q53 0 92.5 28.5t39.5 78.5l1 137q0 22 -13.5 33.5t-37.5 11.5h-16v10h336v-10h-15q-25 0 -38 -11.5
t-12 -33.5v-165q-56 -71 -203 -109q-76 -20 -156 -20zM383 -264q32 14 32 41.5t-18 48t-18 46.5q0 35 23 52q16 12 31 12q51 0 70 -41q11 -23 11 -39t-3.5 -36.5t-20 -46t-40.5 -37t-39.5 -11.5t-24.5 2z" />
    <glyph glyph-name="gcommaaccent" unicode="&#x123;" horiz-adv-x="723" 
d="M354.5 -12q-100.5 0 -174.5 37t-115 108t-41 169q0 146 89.5 228t251.5 82q68 0 144 -10.5t113 -25.5l-14 -170h-7q-45 161 -185 161q-97 0 -142.5 -69.5t-45.5 -205.5q0 -259 149 -259q41 0 67.5 23.5t26.5 56.5q0 7 -1 15v112q0 19 -11 29.5t-31 10.5h-14v8h305v-8h-12
q-43 0 -43 -40v-142q-31 -42 -120 -76t-189.5 -34zM309 -264q32 14 32 41.5t-18 48t-18 46.5q0 35 24 52q16 12 30 12q52 0 71 -41q11 -23 11 -39t-3.5 -36.5t-20 -46t-41 -37t-39.5 -11.5t-25 2z" />
    <glyph glyph-name="Hbar" unicode="&#x126;" horiz-adv-x="893" 
d="M517 10q26 0 44.5 18t19.5 44v253h-269v-252q1 -37 32 -55q15 -8 32 -8h13v-10h-359v10h13q26 0 44.5 18.5t19.5 44.5v415h-65v50h65v90q-1 26 -19.5 44t-44.5 18h-13v10h359v-10h-13q-26 0 -44.5 -18t-19.5 -44v-90h269v90q-1 26 -19.5 44t-44.5 18h-13v10h359v-10h-13
q-36 0 -55 -31q-8 -15 -9 -32v-89h67v-50h-67v-415q1 -26 19.5 -44.5t44.5 -18.5h13v-10h-359v10h13zM312 375h269v113h-269v-113z" />
    <glyph glyph-name="hbar" unicode="&#x127;" horiz-adv-x="753" 
d="M670 538v-76h60v-45h-60v-355q0 -22 15 -37t37 -15h11v-10h-321v10h10q22 0 37 15t16 37v216h-195v-216q1 -35 33 -48q9 -4 20 -4h10v-10h-322v10h11q21 0 32 11q20 19 20 41v355h-59v45h59v76q0 22 -15.5 37t-36.5 15h-11v10h322v-10h-10q-22 0 -37 -15t-16 -37v-76h195
v76q-1 22 -16 37t-37 15h-10v10h322v-10h-11q-30 0 -46 -26q-7 -12 -7 -26zM475 324v93h-195v-93h195z" />
    <glyph glyph-name="Imacron" unicode="&#x12a;" horiz-adv-x="418" 
d="M66 795v85h290v-85h-290zM43 10q26 0 44.5 18.5t19.5 44.5v555q-1 26 -19.5 44t-44.5 18h-13v10h359v-10h-13q-26 0 -44.5 -18t-19.5 -44v-555q0 -26 19 -44.5t45 -18.5h13v-10h-359v10h13z" />
    <glyph glyph-name="imacron" unicode="&#x12b;" horiz-adv-x="362" 
d="M37 696v85h290v-85h-290zM331 10h11v-10h-321v10h11q21 0 36 15t15 37v476q0 22 -15 37t-36 15h-11v10h320v-10h-10q-30 0 -44 -25q-7 -12 -8 -27v-476q1 -27 22 -42q13 -10 30 -10z" />
    <glyph glyph-name="Iogonek" unicode="&#x12e;" horiz-adv-x="418" 
d="M259 -143q18 0 44 21l6 -6q-4 -64 -61 -82q-17 -5 -42.5 -5t-57.5 22q-44 31 -44 83q0 39 17 63q30 39 81 47h-172v10h13q26 0 44.5 18.5t19.5 44.5v555q-1 26 -19.5 44t-44.5 18h-13v10h359v-10h-13q-26 0 -44.5 -18t-19.5 -44v-555q0 -26 19 -44.5t45 -18.5h13v-10
h-139l6 -2q-65 -14 -65 -68q0 -73 68 -73z" />
    <glyph glyph-name="iogonek" unicode="&#x12f;" horiz-adv-x="362" 
d="M91 -108q0 87 88 108h-158v9l11 -1q29 0 44 27q7 13 7 27v476q0 23 -15.5 38.5t-35.5 15.5h-11v8h321l-1 -8h-10q-21 0 -36 -16t-16 -38v-476q1 -22 16 -38t36 -16l11 1v-9h-101q-63 -15 -63 -69q0 -53 40 -68q11 -4 28.5 -4t43.5 21l6 -6q-4 -64 -61 -82
q-17 -5 -42.5 -5t-57.5 22q-44 31 -44 83z" />
    <glyph glyph-name="Idotaccent" unicode="&#x130;" horiz-adv-x="418" 
d="M208.5 764q-30.5 0 -52 21.5t-21.5 52t21.5 52t52 21.5t52 -21.5t21.5 -52t-21.5 -52t-52 -21.5zM43 10q26 0 44.5 18.5t19.5 44.5v555q-1 26 -19.5 44t-44.5 18h-13v10h359v-10h-13q-26 0 -44.5 -18t-19.5 -44v-555q0 -26 19 -44.5t45 -18.5h13v-10h-359v10h13z" />
    <glyph glyph-name="dotlessi" unicode="&#x131;" horiz-adv-x="362" 
d="M331 10h11v-10h-321v10h11q21 0 36 15t15 37v476q0 22 -15 37t-36 15h-11v10h320v-10h-10q-30 0 -44 -25q-7 -12 -8 -27v-476q1 -22 16 -37t36 -15z" />
    <glyph glyph-name="IJ" unicode="&#x132;" horiz-adv-x="842" 
d="M799 690q-36 0 -55 -31q-8 -14 -9 -32v-577q0 -82 -46.5 -144t-120.5 -89q-53 -20 -110 -20q-22 0 -45 3v9q117 53 117 244v574q-1 26 -19.5 44.5t-44.5 18.5h-13v10h359v-10h-13zM43 10q26 0 44.5 18.5t19.5 44.5v555q-1 26 -19.5 44t-44.5 18h-13v10h359v-10h-13
q-26 0 -44.5 -18t-19.5 -44v-555q1 -37 32 -55q15 -8 32 -8h13v-10h-359v10h13z" />
    <glyph glyph-name="ij" unicode="&#x133;" horiz-adv-x="724" 
d="M331 10h11v-10h-321v10h11q21 0 36 15t15 37v476q0 22 -15 37t-36 15h-11v10h320v-10h-10q-30 0 -44 -25q-7 -12 -8 -27v-476q1 -22 16 -37t36 -15zM693 590q-21 0 -36.5 -15.5t-17.5 -37.5v-486q0 -75 -42.5 -130.5t-107.5 -79.5q-47 -16 -82 -16t-57 3v9q61 29 79 93
q14 52 14 124v481q0 23 -16 39t-38 16h-10l-1 10h326v-10h-11z" />
    <glyph glyph-name="Kcommaaccent" unicode="&#x136;" horiz-adv-x="822" 
d="M43 10q26 0 44.5 18.5t19.5 44.5v555q-1 26 -19.5 44t-44.5 18h-13v10h359v-10h-13q-26 0 -44.5 -18t-19.5 -44v-555q1 -36 32 -55q15 -8 32 -8h13v-10h-359v10h13zM848 0h-108q-184 0 -257 100q-30 40 -84.5 128.5t-54.5 89.5l239 326q7 10 7 18t-3 14q-7 15 -28 15h-10
v9h241v-9h-4q-67 0 -110 -49l-169 -204l234 -352q49 -74 107 -76v-10zM409 -200q31 14 31 41.5t-18 48t-18 46.5q0 35 24 52q16 12 30 12q52 0 71 -41q11 -23 11 -39t-3.5 -36.5t-20 -46t-41 -37t-39.5 -11.5t-25 2z" />
    <glyph glyph-name="kcommaaccent" unicode="&#x137;" horiz-adv-x="705" 
d="M335 10h10v-10h-322v10h10q22 0 37 15t16 37v477q-1 22 -16.5 37t-36.5 15h-11v10h323v-10h-10q-22 0 -37.5 -15t-15.5 -38v-476q0 -30 27 -45q12 -7 26 -7zM635 0h-11q-155 0 -220 90q-28 38 -62.5 107.5t-34.5 70.5l199 284q11 15 4.5 27.5t-23.5 12.5h-8v9h204v-9h-4
q-52 0 -87 -37l-134 -168l189 -309q42 -68 91 -70v-8h-103zM325 -265q32 14 32 41.5t-18 48t-18 46.5q0 35 23 52q16 12 31 12q51 0 70 -41q12 -23 12 -39t-4 -36.5t-20.5 -46t-40.5 -37t-39 -11.5t-25 2z" />
    <glyph glyph-name="Lacute" unicode="&#x139;" horiz-adv-x="652" 
d="M193 761l-7 7q29 68 124 158l31 28q64 -27 85 -100q-50 -33 -115 -60t-118 -33zM43 10q26 0 44.5 18.5t19.5 44.5v554q-1 26 -19.5 44.5t-44.5 18.5h-13v10h359v-10h-13q-26 0 -45 -18.5t-19 -44.5v-576h123q73 0 129 48t79 133h10l-38 -232h-585v10h13z" />
    <glyph glyph-name="lacute" unicode="&#x13a;" horiz-adv-x="557" 
d="M169 661l-7 7q18 44 64.5 96.5t89.5 89.5q64 -27 85 -100q-50 -33 -115 -60t-117 -33zM533 0h-512v10h11q21 0 36.5 15t15.5 37v476q0 22 -15.5 37t-36.5 15h-11v10h323v-10h-11q-22 0 -37 -15t-16 -37v-492h96q60 0 108.5 44t67.5 120h10z" />
    <glyph glyph-name="Lcommaaccent" unicode="&#x13b;" horiz-adv-x="652" 
d="M43 10q26 0 44.5 18.5t19.5 44.5v554q-1 37 -32 55q-15 8 -32 8h-13v10h359v-10h-13q-26 0 -45 -18.5t-19 -44.5v-576h123q73 0 129 48t79 133h10l-38 -232h-585v10h13zM292 -264q32 14 32 41.5t-18 48t-18 46.5q0 35 24 52q16 12 30 12q52 0 71 -41q11 -23 11 -39
t-3.5 -36.5t-20 -46t-41 -37t-39.5 -11.5t-25 2z" />
    <glyph glyph-name="lcommaaccent" unicode="&#x13c;" horiz-adv-x="557" 
d="M533 0h-512v10h11q21 0 36.5 15t15.5 37v476q0 22 -15.5 37t-36.5 15h-11v10h323v-10h-11q-35 0 -48 -31q-5 -10 -5 -21v-492h96q60 0 108.5 44t67.5 120h10zM215 -265q32 14 32 41.5t-18 48t-18 46.5q0 35 23 52q16 12 31 12q52 0 70 -41q12 -23 12 -39t-3.5 -36.5
t-20.5 -46t-41 -37t-39 -11.5t-25 2z" />
    <glyph glyph-name="Lcaron" unicode="&#x13d;" horiz-adv-x="652" 
d="M432 509q31 14 31 41.5t-18 48t-18 46.5q0 35 24 52q16 12 30 12q52 0 71 -41q11 -23 11 -39t-3.5 -36.5t-20 -46t-41 -37t-39.5 -11.5t-25 2zM43 10q26 0 44.5 18.5t19.5 44.5v554q-1 37 -32 55q-15 8 -32 8h-13v10h359v-10h-13q-26 0 -45 -18.5t-19 -44.5v-576h123
q73 0 129 48t79 133h10l-38 -232h-585v10h13z" />
    <glyph glyph-name="lcaron" unicode="&#x13e;" horiz-adv-x="557" 
d="M392 399q31 14 31 41.5t-18 48t-18 46.5q0 35 24 52q16 12 30 12q52 0 71 -41q11 -23 11 -39t-3.5 -36.5t-20 -46t-41 -37t-39.5 -11.5t-25 2zM21 0v10h11q21 0 36.5 15t15.5 37v476q0 22 -15.5 37t-36.5 15h-11v10h323v-10h-11q-35 0 -48 -31q-5 -10 -5 -21v-492h96
q60 0 108.5 44t67.5 120h10l-29 -210h-512z" />
    <glyph glyph-name="Ldot" unicode="&#x13f;" horiz-adv-x="652" 
d="M43 10q26 0 44.5 18.5t19.5 44.5v554q-1 37 -32 55q-15 8 -32 8h-13v10h359v-10h-13q-26 0 -45 -18.5t-19 -44.5v-576h123q73 0 129 48t79 133h10l-38 -232h-585v10h13zM468.5 327q-30.5 0 -52 22t-21.5 52.5t21.5 52t52 21.5t52 -21.5t21.5 -52t-21.5 -52.5t-52 -22z
" />
    <glyph glyph-name="ldot" unicode="&#x140;" horiz-adv-x="557" 
d="M21 0v10h11q21 0 36.5 15t15.5 37v476q0 22 -15.5 37t-36.5 15h-11v10h323v-10h-11q-35 0 -48 -31q-5 -10 -5 -21v-492h96q60 0 108.5 44t67.5 120h10l-29 -210h-512zM433.5 312q-30.5 0 -52 21.5t-21.5 52t21.5 52t52 21.5t52 -21.5t21.5 -52t-21.5 -52t-52 -21.5z" />
    <glyph glyph-name="Lslash" unicode="&#x141;" horiz-adv-x="652" 
d="M43 10q26 0 44.5 18.5t19.5 44.5v191l-63 -36l-26 46l89 51v302q-1 37 -32 55q-15 8 -32 8h-13v10h359v-10h-13q-26 0 -45 -18.5t-19 -44.5v-183l77 45l26 -46l-103 -60v-332h123q73 0 129 48t79 133h10l-38 -232h-585v10h13z" />
    <glyph glyph-name="lslash" unicode="&#x142;" 
d="M21 0v10h11q21 0 36.5 15t15.5 37v182l-50 -26l-26 46l76 40v234q0 22 -15.5 37t-36.5 15h-11v10h323v-10h-11q-35 0 -48 -31q-5 -10 -5 -21v-131l79 42l26 -46l-105 -56v-301h96q60 0 108.5 44t67.5 120h10l-29 -210h-512z" />
    <glyph glyph-name="Nacute" unicode="&#x143;" horiz-adv-x="881" 
d="M395 761l-7 7q19 44 65 96.5t90 89.5q64 -27 85 -100q-50 -33 -115 -60t-118 -33zM843 690q-25 0 -43 -17.5t-19 -42.5v-516q0 -74 10 -114l3 -14h-9l-479 426v-341q0 -36 31 -53q14 -8 30 -8h19v-10h-366v10h19q25 0 43 17.5t18 43.5v519q0 70 -10 111l-3 14h10
l479 -426v340q-1 26 -19 43.5t-43 17.5h-19v10h366v-10h-18z" />
    <glyph glyph-name="nacute" unicode="&#x144;" horiz-adv-x="779" 
d="M345 661l-7 7q19 44 65.5 96.5t89.5 89.5q64 -27 85 -100q-50 -33 -115 -60t-118 -33zM768 590h-17q-23 0 -39 -14t-16 -35v-444q0 -65 9 -98l3 -11h-9l-420 353v-281q1 -21 16.5 -35.5t38.5 -14.5h16v-10h-338v10h16q23 0 39 14.5t16 35.5v447q0 60 -9 95l-3 11h9
l419 -354v281q0 21 -15.5 35.5t-38.5 14.5h-17v10h340v-10z" />
    <glyph glyph-name="Ncommaaccent" unicode="&#x145;" horiz-adv-x="881" 
d="M843 690q-25 0 -43 -17.5t-19 -42.5v-516q0 -74 10 -114l3 -14h-9l-479 426v-341q0 -36 31 -53q14 -8 30 -8h19v-10h-366v10h19q25 0 43 17.5t18 43.5v519q0 70 -10 111l-3 14h10l479 -426v340q-1 26 -19 43.5t-43 17.5h-19v10h366v-10h-18zM446 -264q32 14 32 41.5
t-18 48t-18 46.5q0 35 24 52q16 12 30 12q52 0 71 -41q11 -23 11 -39t-3.5 -36.5t-20 -46t-41 -37t-39.5 -11.5t-25 2z" />
    <glyph glyph-name="ncommaaccent" unicode="&#x146;" horiz-adv-x="779" 
d="M768 590h-17q-23 0 -39 -14t-16 -35v-444q0 -65 9 -98l3 -11h-9l-420 353v-281q1 -21 16.5 -35.5t38.5 -14.5h16v-10h-338v10h16q23 0 39 14.5t16 35.5v447q0 60 -9 95l-3 11h9l419 -354v281q0 21 -15.5 35.5t-38.5 14.5h-17v10h340v-10zM399 -265q32 14 32 41.5t-18 48
t-18 46.5q0 35 23 52q16 12 31 12q51 0 70 -41q11 -23 11 -39t-3.5 -36.5t-20 -46t-40.5 -37t-39.5 -11.5t-24.5 2z" />
    <glyph glyph-name="Ncaron" unicode="&#x147;" horiz-adv-x="881" 
d="M419 764h-12l-169 175l7 8l168 -64l158 64l7 -8zM843 690q-25 0 -43 -17.5t-19 -42.5v-516q0 -74 10 -114l3 -14h-9l-479 426v-341q0 -36 31 -53q14 -8 30 -8h19v-10h-366v10h19q25 0 43 17.5t18 43.5v519q0 70 -10 111l-3 14h10l479 -426v340q-1 26 -19 43.5t-43 17.5
h-19v10h366v-10h-18z" />
    <glyph glyph-name="ncaron" unicode="&#x148;" horiz-adv-x="779" 
d="M369 664h-12l-169 176l7 8l169 -65l157 64l7 -8zM768 590h-17q-23 0 -39 -14t-16 -35v-444q0 -65 9 -98l3 -11h-9l-420 353v-281q1 -21 16.5 -35.5t38.5 -14.5h16v-10h-338v10h16q23 0 39 14.5t16 35.5v447q0 60 -9 95l-3 11h9l419 -354v281q0 21 -15.5 35.5t-38.5 14.5
h-17v10h340v-10z" />
    <glyph glyph-name="Eng" unicode="&#x14a;" horiz-adv-x="891" 
d="M843 690q-24 0 -41 -16t-17 -39v-649q-3 -69 -43 -118q-62 -76 -170 -76q-33 0 -69 9l-5 8q29 23 42 37.5t25.5 40t16.5 61.5t4 94v121l-290 258v-350q0 -36 31 -53q14 -8 30 -8h19v-10h-356v10h19q25 0 43 17.5t18 43.5v519q0 70 -10 111l-3 14l11 -1l488 -434v349
q-1 26 -19 43.5t-43 17.5h-19v10h356v-10h-18z" />
    <glyph glyph-name="eng" unicode="&#x14b;" horiz-adv-x="779" 
d="M783 590h-17q-24 0 -37.5 -14.5t-13.5 -35.5v-524q0 -72 -37 -124q-58 -80 -166 -80q-33 0 -69 9l-5 8q29 23 42 37.5t25.5 40t16.5 61.5t4 94v72l-255 214v-288q1 -30 28 -44q12 -6 27 -6h16v-10h-330v10h16q23 0 39 14.5t16 35.5v447q0 60 -9 95l-3 11h9l446 -375v303
q-1 21 -16.5 35t-37.5 14h-17v10h328v-10z" />
    <glyph glyph-name="Omacron" unicode="&#x14c;" horiz-adv-x="905" 
d="M308 809v85h290v-85h-290zM450 714q129 0 222.5 -43t143.5 -125.5t50 -195.5q0 -171 -111 -267.5t-305 -96.5t-304.5 96.5t-110.5 267.5t110.5 267.5t304.5 96.5zM450.5 36q91.5 0 143 83t51.5 231t-51.5 231t-143 83t-143 -83t-51.5 -231t51.5 -231t143 -83z" />
    <glyph glyph-name="omacron" unicode="&#x14d;" horiz-adv-x="779" 
d="M248 696v85h290v-85h-290zM121.5 530q96.5 82 268 82t268 -82t96.5 -230t-96.5 -230t-268 -82t-268 82t-96.5 230t96.5 230zM270 102.5q41 -69.5 119 -69.5t119 69.5t41 196.5q0 173 -72 236q-36 32 -88 32q-78 0 -119 -69.5t-41 -197.5t41 -197.5z" />
    <glyph glyph-name="Ohungarumlaut" unicode="&#x150;" horiz-adv-x="905" 
d="M326 778l-7 7q19 44 65 96.5t90 89.5q64 -27 85 -100q-50 -33 -115 -60t-118 -33zM536 778l-7 7q27 62 115 149q21 21 40 37q64 -27 85 -100q-69 -46 -133.5 -67.5t-99.5 -25.5zM450 714q129 0 222.5 -43t143.5 -125.5t50 -195.5q0 -171 -110.5 -267.5t-305 -96.5
t-305 96.5t-110.5 267.5t110.5 267.5t304.5 96.5zM450.5 36q91.5 0 143 83t51.5 231t-51.5 231t-143 83t-143 -83t-51.5 -231t51.5 -231t143 -83z" />
    <glyph glyph-name="ohungarumlaut" unicode="&#x151;" horiz-adv-x="779" 
d="M265 665l-7 7q14 30 44 69q50 64 111 117q64 -27 85 -100q-50 -33 -115 -60t-118 -33zM476 665l-7 7q18 44 64.5 96.5t89.5 89.5q64 -27 85 -100q-50 -33 -115 -60t-117 -33zM121.5 530q96.5 82 268 82t268 -82t96.5 -230t-96.5 -230t-268 -82t-268 82t-96.5 230
t96.5 230zM270 102.5q41 -69.5 119 -69.5t119 69.5t41 196.5q0 173 -72 236q-36 32 -88 32q-78 0 -119 -69.5t-41 -197.5t41 -197.5z" />
    <glyph glyph-name="OE" unicode="&#x152;" horiz-adv-x="1142" 
d="M640 0q-39 0 -98 -7t-95 -7q-189 0 -300.5 97.5t-111.5 268t112.5 266.5t311.5 96q46 0 98 -7t83 -7h308q31 0 67.5 6t51.5 12v-206h-10v8q0 80 -58 112q-28 16 -67 17h-145v-279h109q48 1 78 31.5t30 78.5v4h10v-278h-10v5q0 64 -51 94q-25 14 -56 15h-110v-269h123
q73 0 129 48t79 133h10l-38 -232h-450zM462 664q-95 0 -155 -82.5t-60 -230.5t58.5 -231.5t155.5 -83.5q52 0 86 22t34 46v492q0 23 -33 45.5t-86 22.5z" />
    <glyph glyph-name="oe" unicode="&#x153;" horiz-adv-x="997" 
d="M386 -12q-166 0 -263.5 83.5t-97.5 231.5q0 97 44 167t128 107t200 37q37 0 80.5 -6t70.5 -6h286q66 1 102 16v-186h-10v5q0 74 -52 104q-25 14 -61 15h-118v-237h87q43 1 70.5 29t27.5 72v3h10v-252h-10v3q0 43 -27 71t-70 29h-88v-228h103q85 0 140 74q27 36 41 87h10
l-31 -208h-436l-15 -1q-15 -1 -37 -4q-46 -6 -84 -6zM400 569q-78 0 -128 -70t-50 -201q0 -125 49 -195q48 -70 128 -70q46 0 74.5 20t28.5 41v414q0 20 -28 40.5t-74 20.5z" />
    <glyph glyph-name="Racute" unicode="&#x154;" horiz-adv-x="793" 
d="M374 761l-7 7q19 44 65.5 96.5t89.5 89.5q64 -27 85 -100q-50 -33 -115 -60t-118 -33zM675 590q16 -35 16 -72.5t-8 -66t-25 -56.5q-37 -60 -127 -74q39 -11 70 -39q33 -28 62 -78q88 -151 131 -178q23 -15 60 -16v-10h-125q-130 0 -186 29q-80 41 -114 141
q-9 29 -15.5 61t-12 49.5t-14.5 31.5q-13 22 -36 30v10h16q58 0 87 53q15 28 18.5 60.5t3.5 40.5v10q-7 132 -114 132h-44v-575q0 -26 18.5 -44.5t45.5 -18.5h12l1 -10h-360v10h13q26 0 44.5 18t19.5 44v555q-1 26 -19.5 44.5t-44.5 18.5h-13v10h391q196 0 249 -110z" />
    <glyph glyph-name="racute" unicode="&#x155;" horiz-adv-x="678" 
d="M318 661l-7 7q26 63 115 150l39 36q64 -27 86 -100q-70 -46 -134 -67t-99 -26zM604 435q0 -52 -25 -96q-29 -51 -103 -64q35 -9 64.5 -35.5t39 -43.5l20.5 -38q58 -115 92 -137q18 -11 45 -11v-10h-118q-99 0 -129 13q-41 18 -59.5 40.5t-35.5 52.5q-27 46 -44 131
q-10 45 -33 57v8h5q28 0 49 25.5t27 83.5v6q5 45 -8 74.5t-23 39.5t-26 15q-17 6 -31 6h-20v-490q0 -36 35 -49q9 -3 18 -3h9v-10h-321v10h11q21 0 36 15t15 37v476q0 22 -14.5 37t-35.5 15h-12v10h344q228 0 228 -165z" />
    <glyph glyph-name="Rcommaaccent" unicode="&#x156;" horiz-adv-x="793" 
d="M675 590q16 -35 16 -72.5t-8 -66t-25 -56.5q-37 -60 -127 -74q39 -11 70 -39q33 -28 62 -78q75 -128 115 -165q30 -28 76 -29v-10h-125q-130 0 -186 29q-80 41 -114 141q-9 29 -15.5 61t-11 46.5t-10.5 27t-13 19.5q-12 12 -28 18v10h16q58 0 87 53q15 28 18.5 60.5
t3.5 40.5v10q-7 132 -114 132h-44v-575q0 -26 19 -44.5t45 -18.5h12v-10h-359v10h13q26 0 44.5 18t19.5 44v555q-1 37 -32 55q-15 8 -32 8h-13v10h391q196 0 249 -110zM419 -264q31 14 31 41.5t-18 48t-18 46.5q0 35 24 52q16 12 30 12q52 0 71 -41q11 -23 11 -39
t-3.5 -36.5t-20 -46t-41 -37t-39.5 -11.5t-25 2z" />
    <glyph glyph-name="rcommaaccent" unicode="&#x157;" horiz-adv-x="678" 
d="M604 435q0 -52 -25 -96q-29 -51 -103 -64q35 -9 64.5 -35.5t39 -43.5t19.5 -38q59 -115 93 -137q18 -11 45 -11v-10h-118q-99 0 -129 13q-41 18 -59.5 40.5t-35.5 52.5q-27 46 -44 131q-10 45 -33 57v8h5q28 0 49 25.5t27 83.5v6q5 45 -8 74.5t-23 39.5t-26 15
q-17 6 -31 6h-20v-490q0 -25 16.5 -38.5t36.5 -13.5h9v-10h-321v10h11q21 0 36 15t15 37v476q0 22 -14.5 37t-35.5 15h-12v10h344q228 0 228 -165zM360 -265q31 14 31 41.5t-18 48t-18 46.5q0 35 24 52q16 12 31 12q51 0 70 -41q11 -23 11 -39.5t-3.5 -37t-20 -45.5
t-41 -36.5t-39.5 -11.5t-25 2z" />
    <glyph glyph-name="Rcaron" unicode="&#x158;" horiz-adv-x="793" 
d="M398 764h-12l-169 175l7 8l168 -64l158 64l7 -8zM675 590q16 -35 16 -72.5t-8 -66t-25 -56.5q-37 -60 -127 -74q39 -11 70 -39q33 -28 62 -78q75 -128 115 -165q30 -28 76 -29v-10h-125q-130 0 -186 29q-80 41 -114 141q-9 29 -15.5 61t-13.5 54q-13 43 -49 57v10h16
q58 0 87 53q15 28 18.5 60.5t3.5 40.5v10q-7 132 -114 132h-44v-575q0 -26 19 -44.5t45 -18.5h12v-10h-359v10h13q26 0 44.5 18t19.5 44v555q-1 37 -32 55q-15 8 -32 8h-13v10h391q196 0 249 -110z" />
    <glyph glyph-name="rcaron" unicode="&#x159;" horiz-adv-x="678" 
d="M341 664h-12l-169 176l8 8l168 -65l158 65l7 -8zM604 435q0 -52 -25 -96q-29 -51 -103 -64q35 -9 64.5 -35.5t39 -43.5l20.5 -38q58 -115 92 -137q18 -11 45 -11v-10h-118q-99 0 -129 13q-41 18 -59.5 40.5t-32.5 47t-23 48.5q-13 32 -23.5 82.5t-33.5 62.5v8h5
q38 0 59 44q13 25 15 45.5t2 25.5q5 45 -8 74.5t-23 39.5t-26 15q-17 6 -31 6h-20v-490q0 -25 16.5 -38.5t36.5 -13.5h9v-10h-321v10h11q21 0 36 15t15 37v476q0 22 -14.5 37t-35.5 15h-12v10h344q228 0 228 -165z" />
    <glyph glyph-name="Sacute" unicode="&#x15a;" horiz-adv-x="645" 
d="M303 761l-7 7q19 44 65.5 96.5t89.5 89.5q64 -27 85 -100q-50 -33 -115 -60t-118 -33zM520 45.5q-86 -59.5 -229 -59.5q-83 0 -146 18.5t-91 46.5q-9 22 -9 47.5t4 49.5q11 59 37 92h9q-1 -6 -1 -13q0 -74 58.5 -132.5t159.5 -58.5q68 0 104.5 28.5t36.5 65t-25 62.5
t-81 52l-163 76q-69 31 -100 87q-25 44 -25 97q0 108 73 164q61 46 162 46q66 0 169 -10h78l-22 -163h-10q0 55 -43 89t-116 34q-82 0 -117 -41q-19 -21 -19 -49.5t21.5 -47.5t67.5 -39l187 -87q116 -53 116 -174t-86 -180.5z" />
    <glyph glyph-name="sacute" unicode="&#x15b;" horiz-adv-x="549" 
d="M270 661l-7 7q19 44 65 96.5t90 89.5q64 -27 85 -100q-50 -33 -115 -60t-118 -33zM514 202q0 -110 -79 -165q-70 -49 -194 -49q-74 0 -123.5 16.5t-68.5 40.5q-9 21 -9 44t4 44q11 53 35 83h6v-9q0 -67 48 -120q49 -53 135 -53q51 0 77 23t26 53t-23.5 53t-76.5 46
l-105 49q-64 27 -94 79q-23 40 -23 88q0 16 2 32q22 155 190 155q56 0 151 -9h67l-24 -146h-6q0 49 -35.5 78.5t-88.5 29.5q-102 0 -109 -66q-3 -32 24 -51q21 -14 58 -29l129 -59q53 -23 80 -64t27 -94z" />
    <glyph glyph-name="Scedilla" unicode="&#x15e;" horiz-adv-x="645" 
d="M531.5 54.5q-74.5 -59.5 -198.5 -67.5l-42 -48q14 5 24 5h20.5t30.5 -5.5t32 -20.5t12 -27q0 -46 -32 -73q-41 -35 -100 -35q-27 0 -57 8l1 10q37 0 70.5 20.5t33.5 60.5q0 16 -16 28q-17 11 -39.5 11t-41.5 -6l-6 10l48 61q-76 2 -133.5 20t-83.5 45q-9 22 -9 47.5
t4 49.5q11 59 37 92h9q-1 -6 -1 -13q0 -74 58.5 -132.5t159.5 -58.5q68 0 104.5 28.5t36.5 65t-25 62.5t-81 52l-163 76q-69 31 -100 87q-25 44 -25 97q0 108 73 164q61 46 162 46q66 0 169 -10h78l-22 -163h-10q0 55 -43 89t-109.5 34t-103 -23t-39.5 -61q-4 -47 60 -80
q11 -6 29 -13l187 -87q116 -53 116 -169.5t-74.5 -176z" />
    <glyph glyph-name="scedilla" unicode="&#x15f;" horiz-adv-x="519" 
d="M503 202q0 -97 -59.5 -149t-157.5 -62l-41 -47q14 5 24 5h20.5t30.5 -5.5t32 -20.5t12 -27q0 -46 -32 -73q-41 -36 -100 -36q-27 0 -57 9l1 10q37 0 70.5 20.5t33.5 60.5q0 16 -16 28q-16 11 -39 11t-42 -6l-5 10l44 58q-70 1 -118 17t-67 40q-8 21 -8 44t4 44
q11 53 35 83h5v-9q0 -67 49 -120q48 -53 135 -53q51 0 76.5 23t25.5 53t-23 53t-76 46l-105 49q-65 27 -95 79q-22 40 -22 88q0 16 2 32q22 155 190 155q56 0 151 -9h67l-24 -146h-7q0 49 -35 78.5t-88 29.5q-102 0 -109 -66q-3 -32 24 -51q20 -14 57 -29l130 -59
q53 -23 80 -64t27 -94z" />
    <glyph glyph-name="Scaron" unicode="&#x160;" horiz-adv-x="645" 
d="M327 764h-12l-169 175l7 8l168 -64l158 64l7 -8zM520 45.5q-86 -59.5 -229 -59.5q-83 0 -146 18.5t-91 46.5q-9 22 -9 47.5t4 49.5q11 59 37 92h9q-1 -6 -1 -13q0 -74 58.5 -132.5t159.5 -58.5q68 0 104.5 28.5t36.5 70t-45 74.5q-23 18 -61 35l-163 76q-69 31 -100 87
q-25 44 -25 97q0 108 73 164q61 46 162 46q66 0 169 -10h78l-22 -163h-10q0 55 -43 89t-109.5 34t-103.5 -23q-39 -26 -39 -68q0 -28 21.5 -47t67.5 -39l187 -87q116 -53 116 -174t-86 -180.5z" />
    <glyph glyph-name="scaron" unicode="&#x161;" horiz-adv-x="549" 
d="M294 664h-12l-169 175l7 8l168 -64l158 64l7 -8zM514 202q0 -110 -79 -165q-70 -49 -194 -49q-74 0 -123.5 16.5t-68.5 40.5q-9 21 -9 44t4 44q11 53 35 83h6v-9q0 -67 48 -120q49 -53 135 -53q51 0 77 23t26 53t-23.5 53t-76.5 46l-105 49q-64 27 -94 79q-23 40 -23 88
q0 16 2 32q22 155 190 155q56 0 151 -9h67l-24 -146h-6q0 49 -35.5 78.5t-88.5 29.5q-102 0 -109 -66q-3 -32 24 -51q21 -14 58 -29l129 -59q53 -23 80 -64t27 -94z" />
    <glyph glyph-name="Tcedilla" unicode="&#x162;" horiz-adv-x="698" 
d="M452 651v-579q1 -26 19.5 -44t44.5 -18h13v-10h-160l-42 -48q14 5 24 5h20.5t30.5 -5.5t32 -20.5t12 -27q0 -46 -31 -73q-42 -36 -100 -36q-28 0 -57 9v10q37 0 70.5 20.5t33.5 60.5q0 16 -16 28q-30 21 -81 5l-5 10l48 62h-138v10h13q26 0 44.5 18t19.5 43v580h-99
q-60 -1 -94 -35.5t-34 -94.5v-7l-10 -1v206q14 -6 50.5 -12t67.5 -6h443q31 0 67 6t51 12v-206l-10 1v7q0 60 -34 94.5t-95 35.5h-98z" />
    <glyph glyph-name="tcedilla" unicode="&#x163;" horiz-adv-x="613" 
d="M606 428h-10v5q1 77 -54 106q-26 15 -64 15h-74v-492q0 -31 27 -45q12 -7 26 -7h10v-10h-138l-41 -47q14 5 24 5h20.5t30.5 -5.5t32 -20.5t12 -27q0 -46 -32 -73q-42 -35 -100 -35q-28 0 -57 8l1 10q36 0 70 20.5t34 60.5q0 16 -16 28q-17 11 -39.5 11t-42.5 -6l-5 10
l47 61h-121v10h10q21 0 36.5 15t15.5 37v492h-73q-86 -1 -110 -70q-8 -23 -8 -51v-5h-10v188q13 -5 44 -10t56 -5h399q26 0 59 5t41 10v-188z" />
    <glyph glyph-name="Tcaron" unicode="&#x164;" horiz-adv-x="698" 
d="M357 764h-12l-169 175l7 8l168 -64l158 64l7 -8zM452 651v-579q1 -26 19.5 -44t44.5 -18h13v-10h-359v10h13q26 0 44.5 18t19.5 43v580h-99q-60 -1 -94 -35.5t-34 -94.5v-7l-10 -1v206q14 -6 50.5 -12t67.5 -6h443q43 1 75.5 7.5t42.5 10.5v-206l-10 1v7q0 81 -60 114
q-29 15 -69 16h-98z" />
    <glyph glyph-name="tcaron" unicode="&#x165;" horiz-adv-x="612" 
d="M317 671h-12l-169 175l7 8l168 -64l158 64l7 -8zM606 428h-10v5q1 77 -54 106q-26 15 -64 15h-74v-492q0 -31 27 -45q12 -7 26 -7h10v-10h-321v10h10q21 0 36.5 15t15.5 37v492h-73q-77 -1 -104 -56q-14 -27 -14 -65v-5h-10v188q13 -5 44 -10t56 -5h399q26 0 59 5t41 10
v-188z" />
    <glyph glyph-name="Tbar" unicode="&#x166;" horiz-adv-x="698" 
d="M452 651v-248h150v-50h-150v-281q1 -26 19.5 -44t44.5 -18h13v-10h-359v10h13q26 0 44.5 18t19.5 43v282h-151v50h151v248h-99q-60 -1 -94 -35.5t-34 -94.5v-7l-10 -1v206q14 -6 50.5 -12t67.5 -6h443q31 0 67 6t51 12v-206l-10 1v7q0 60 -34 94.5t-95 35.5h-98z" />
    <glyph glyph-name="tbar" unicode="&#x167;" horiz-adv-x="620" 
d="M606 428h-10v5q1 77 -54 106q-26 15 -64 15h-74v-208h126v-45h-126v-239q0 -22 15.5 -37t37.5 -15h10v-10h-321v10h10q21 0 36.5 15t15.5 37v239h-120v45h120v208h-73q-86 -1 -110 -70q-8 -23 -8 -51v-5h-10v188q13 -5 44 -10t56 -5h399q26 0 59 5t41 10v-188z" />
    <glyph glyph-name="Umacron" unicode="&#x16a;" horiz-adv-x="845" 
d="M341 795v85h290v-85h-290zM600 700h225v-10h-16q-21 0 -36.5 -13.5t-16.5 -33.5v-386q0 -127 -78.5 -199t-221.5 -72q-179 0 -268 70t-89 200v384q0 22 -15.5 36t-37.5 14h-16v10h343v-10h-16q-22 0 -37 -13.5t-16 -34.5v-382q0 -105 48 -164t134 -59t134.5 55.5
t48.5 154.5v395q-1 21 -16 34.5t-37 13.5h-16v10z" />
    <glyph glyph-name="umacron" unicode="&#x16b;" horiz-adv-x="708" 
d="M256 695v85h290v-85h-290zM697 592h-13q-18 0 -31 -12.5t-13 -30.5v-326q0 -111 -66 -173t-188 -62q-310 0 -310 233v328q0 29 -27 40q-8 3 -17 3h-13v8h310v-8h-14q-18 0 -30.5 -12t-12.5 -31v-326q0 -120 67 -165q33 -22 79 -22q68 0 105 46t38 130v337q-1 19 -13.5 31
t-30.5 12h-13v8h193v-8z" />
    <glyph glyph-name="Uring" unicode="&#x16e;" horiz-adv-x="845" 
d="M398 916.5q34 25.5 84.5 25.5t84 -25t33.5 -63.5t-34 -64.5t-84.5 -26t-84 25.5t-33.5 64t34 64zM519 895q-15 17 -37 17t-36.5 -17t-14.5 -42.5t14.5 -42t36.5 -16.5t37 16.5t15 42t-15 42.5zM600 700h225v-10h-16q-21 0 -36.5 -13.5t-16.5 -33.5v-386
q0 -127 -78.5 -199t-221.5 -72q-179 0 -268 70t-89 200v384q0 22 -15.5 36t-37.5 14h-16v10h343v-10h-16q-22 0 -37 -13.5t-16 -34.5v-382q0 -105 48 -164t134 -59t134.5 55.5t48.5 154.5v395q-1 21 -16 34.5t-37 13.5h-16v10z" />
    <glyph glyph-name="uring" unicode="&#x16f;" horiz-adv-x="708" 
d="M312 816.5q34 25.5 85 25.5t84 -25t33 -63.5t-33.5 -64.5t-84 -26t-84.5 25.5t-34 64t34 64zM433.5 795q-14.5 17 -33 17t-30.5 -8q-24 -16 -24 -46.5t14.5 -47t36.5 -16.5t36.5 16.5t14.5 42t-14.5 42.5zM697 592h-13q-18 0 -31 -12.5t-13 -30.5v-326q0 -111 -66 -173
t-188 -62q-310 0 -310 233v328q0 29 -27 40q-8 3 -17 3h-13v8h310v-8h-14q-18 0 -30.5 -12t-12.5 -31v-326q0 -89 38.5 -138t107 -49t105.5 46t38 130v337q-1 19 -13.5 31t-30.5 12h-13v8h193v-8z" />
    <glyph glyph-name="Uhungarumlaut" unicode="&#x170;" horiz-adv-x="845" 
d="M359 764l-7 7q18 44 64.5 96.5t89.5 89.5q64 -27 85 -100q-69 -46 -133 -67.5t-99 -25.5zM569 764l-7 7q18 44 64.5 96.5t89.5 89.5q64 -27 85 -100q-50 -33 -115 -60t-117 -33zM600 700h225v-10h-16q-21 0 -36.5 -13.5t-16.5 -33.5v-386q0 -127 -78.5 -199t-221.5 -72
q-179 0 -268 70t-89 200v384q0 22 -15.5 36t-37.5 14h-16v10h343v-10h-16q-22 0 -37 -13.5t-16 -34.5v-382q0 -105 48 -164t134 -59t134.5 55.5t48.5 154.5v395q-1 21 -16 34.5t-37 13.5h-16v10z" />
    <glyph glyph-name="uhungarumlaut" unicode="&#x171;" horiz-adv-x="708" 
d="M273 664l-7 7q27 62 116 149q20 21 39 37q64 -27 85 -100q-50 -33 -115 -60t-118 -33zM483 664l-7 7q19 44 65.5 96.5t89.5 89.5q64 -27 85 -100q-69 -46 -133 -67.5t-100 -25.5zM697 592h-13q-18 0 -31 -12.5t-13 -30.5v-326q0 -111 -66 -173t-188 -62q-310 0 -310 233
v328q0 26 -22 38q-10 5 -22 5h-13v8h310v-8h-14q-18 0 -30 -12t-13 -31v-326q0 -89 38.5 -138t107 -49t105.5 46t38 130v337q-1 26 -22 38q-10 5 -22 5h-13v8h193v-8z" />
    <glyph glyph-name="Uogonek" unicode="&#x172;" horiz-adv-x="845" 
d="M825 700v-10h-16q-21 0 -36.5 -13.5t-16.5 -33.5v-386q0 -162 -123 -231q-60 -34 -146 -39q-63 -15 -63 -69q0 -53 40 -68q11 -4 28.5 -4t44.5 21l6 -6q-5 -64 -62 -82q-17 -5 -42.5 -5t-57.5 22q-44 31 -44 83q0 49 26.5 74.5t60.5 33.5q-163 6 -244 75.5t-81 193.5v384
q0 22 -15.5 36t-37.5 14h-16v10h343v-10h-16q-22 0 -37 -13.5t-16 -34.5v-382q0 -105 48 -164t134 -59t134.5 55.5t48.5 154.5v395q-1 21 -16 34.5t-37 13.5h-16v10h225z" />
    <glyph glyph-name="uogonek" unicode="&#x173;" horiz-adv-x="708" 
d="M280 -117q0 81 78 106q-282 10 -282 232v328q0 29 -27 40q-8 3 -17 3h-13v8h310v-8h-14q-18 0 -30.5 -12t-12.5 -31v-326q0 -120 67 -165q33 -22 79 -22q68 0 105 46t38 130v337q-1 19 -13.5 31t-30.5 12h-13v8h193v-8h-13q-18 0 -31 -12.5t-13 -30.5v-326
q0 -102 -55.5 -163t-159.5 -70q-58 -17 -58 -68q0 -53 40 -68q11 -4 28.5 -4t44.5 21l6 -6q-5 -64 -62 -82q-17 -5 -42.5 -5t-57.5 22q-44 31 -44 83z" />
    <glyph glyph-name="Wcircumflex" unicode="&#x174;" horiz-adv-x="964" 
d="M536 932h12l178 -176l-7 -8l-178 65l-167 -65l-7 8zM1004 690h-8q-25 0 -50 -14.5t-36 -42.5l-170 -544q-15 -47 -15 -94q0 -9 1 -17h-10l-231 435l-158 -324q-26 -56 -27 -111h-9l-247 655q-14 29 -37.5 43t-48.5 14h-8v10h359v-10h-9q-30 0 -40 -28q-1 -6 -1 -14t4 -20
l109 -272l173 360l9 -1l199 -368l80 281q2 11 2 19.5t-3 18.5t-13 17t-24 7h-9v10h218v-10z" />
    <glyph glyph-name="wcircumflex" unicode="&#x175;" horiz-adv-x="851" 
d="M480 832h12l179 -176l-7 -8l-178 65l-167 -65l-7 8zM883 590h-7q-21 0 -41 -10t-31 -31l-147 -462q-13 -39 -13 -64.5v-32.5h-8l-206 348l-134 -254q-24 -47 -24 -94h-8l-216 552q-11 25 -31.5 36.5t-41.5 11.5h-7v10h329v-10h-9q-17 0 -26 -10.5t-9 -19.5t2 -17l92 -208
l145 278h7l172 -288l62 214q2 9 2 19t-8.5 21t-27.5 11h-7v10h191v-10z" />
    <glyph glyph-name="Ycircumflex" unicode="&#x176;" horiz-adv-x="729" 
d="M428 932h12l178 -176l-7 -8l-178 65l-167 -65l-7 8zM775 690h-14q-30 0 -57.5 -17t-43.5 -42l-196 -309v-249q0 -26 18.5 -44.5t45.5 -18.5h12v-10h-358v10h13q26 0 44.5 18t19.5 44v250l-191 311q-25 39 -69 52q-15 5 -30 5h-14v10h386v-10h-12q-22 0 -34 -20
q-7 -11 -7 -21.5t6 -20.5l137 -247l142 247q6 10 6 20t-7 21q-13 21 -34 21h-12v10h249v-10z" />
    <glyph glyph-name="ycircumflex" unicode="&#x177;" horiz-adv-x="633" 
d="M366 832h12l178 -176l-7 -8l-177 65l-168 -65l-7 8zM684 590h-13q-26 0 -48.5 -13.5t-36.5 -33.5l-169 -264v-217q0 -22 16 -37t39 -15h11v-10h-328v10h12q22 0 38 15t16 37v216l-172 265q-19 28 -43.5 37.5t-41.5 9.5h-12v10h350v-10h-10q-19 0 -27 -12.5t-8 -21.5
t5 -17l124 -210l121 210q5 8 5 16.5t-8.5 21.5t-26.5 13h-11v10h218v-10z" />
    <glyph glyph-name="Ydieresis" unicode="&#x178;" horiz-adv-x="729" 
d="M300.5 755q-30.5 0 -52.5 22t-22 52.5t22 52t52.5 21.5t52 -21.5t21.5 -52t-21.5 -52.5t-52 -22zM562.5 755q-30.5 0 -52 22t-21.5 52.5t21.5 52t52 21.5t52 -21.5t21.5 -52t-21.5 -52.5t-52 -22zM775 690h-14q-30 0 -57.5 -17t-43.5 -42l-196 -309v-249
q0 -26 18.5 -44.5t45.5 -18.5h12v-10h-358v10h13q26 0 44.5 18t19.5 44v250l-191 311q-15 24 -42.5 40.5t-56.5 16.5h-14v10h386v-10h-12q-22 0 -34 -20q-7 -11 -7 -21.5t6 -20.5l137 -247l142 247q6 10 6 20t-7 21q-13 21 -34 21h-12v10h249v-10z" />
    <glyph glyph-name="Zacute" unicode="&#x179;" horiz-adv-x="668" 
d="M318 761l-7 7q19 44 65.5 96.5t89.5 89.5q64 -27 85 -100q-50 -33 -115 -60t-118 -33zM49 719q15 -6 52.5 -12t53 -6h15.5h345q42 0 71 5t35 8v-9l-336 -655h141q73 0 129 48.5t79 133.5h10l-38 -232h-571v9l332 642h-180q-60 -1 -94 -35.5t-34 -94.5v-8h-10v206z" />
    <glyph glyph-name="zacute" unicode="&#x17a;" horiz-adv-x="606" 
d="M301 661l-7 7q13 30 43 69q50 64 112 117q64 -27 85 -100q-69 -46 -133.5 -67.5t-99.5 -25.5zM25 0v8l301 547h-158q-57 0 -88.5 -32.5t-31.5 -90.5v-4h-10v188q18 -8 53 -11.5t53 -3.5h338q26 0 56.5 3.5t38.5 7.5v-7l-290 -560h108q68 0 120 44t73 121h10l-36 -210
h-537z" />
    <glyph glyph-name="Zdotaccent" unicode="&#x17b;" horiz-adv-x="668" 
d="M335 764q-31 0 -52.5 21.5t-21.5 52t21.5 52t52.5 21.5t52.5 -21.5t21.5 -52t-21.5 -52t-52.5 -21.5zM49 719q15 -6 52.5 -12t53 -6h15.5h345q42 0 71 5t35 8v-9l-336 -655h141q73 0 129 48.5t79 133.5h10l-38 -232h-571v9l332 642h-180q-60 -1 -94 -35.5t-34 -94.5v-8
h-10v206z" />
    <glyph glyph-name="zdotaccent" unicode="&#x17c;" horiz-adv-x="606" 
d="M318 664q-31 0 -52.5 21.5t-21.5 52t21.5 52t52.5 21.5t52.5 -21.5t21.5 -52t-21.5 -52t-52.5 -21.5zM25 0v8l301 547h-158q-57 0 -88.5 -32.5t-31.5 -90.5v-4h-10v188q12 -5 45.5 -10t60.5 -5h338q37 0 63.5 4t31.5 7v-7l-290 -560h108q68 0 120 44t73 121h10l-36 -210
h-537z" />
    <glyph glyph-name="Zcaron" unicode="&#x17d;" horiz-adv-x="668" 
d="M342 764h-12l-169 175l7 8l168 -64l158 64l7 -8zM49 719q15 -6 52.5 -12t53 -6h15.5h345q42 0 71 5t35 8v-9l-336 -655h141q73 0 129 48.5t79 133.5h10l-38 -232h-571v9l332 642h-180q-60 -1 -94 -35.5t-34 -94.5v-8h-10v206z" />
    <glyph glyph-name="zcaron" unicode="&#x17e;" horiz-adv-x="606" 
d="M325 664h-12l-169 175l7 8l168 -64l158 64l7 -8zM25 0v8l301 547h-158q-57 0 -88.5 -32.5t-31.5 -90.5v-4h-10v188q34 -15 106 -15h338q37 0 63.5 4t31.5 7v-7l-290 -560h108q68 0 120 44t73 121h10l-36 -210h-537z" />
    <glyph glyph-name="florin" unicode="&#x192;" horiz-adv-x="578" 
d="M548 424h-10v6q0 58 -31 90.5t-89 33.5h-93v-235h69q44 1 72 29.5t28 73.5v4h10v-262h-10v6q0 44 -28 73t-72 29h-69v-192q0 -60 -18 -106.5t-47 -74.5t-71 -46q-71 -31 -169 -31v10q59 33 80 84t21 134v488q0 23 -15.5 38.5t-36.5 15.5h-10v8h389q25 0 56 5t44 10v-191z
" />
    <glyph glyph-name="Scommaaccent" unicode="&#x218;" horiz-adv-x="615" 
d="M510 45.5q-86 -59.5 -229 -59.5q-83 0 -146 18.5t-91 46.5q-9 22 -9 47.5t4 49.5q11 59 37 92h9q-1 -6 -1 -13q0 -74 58.5 -132.5t159.5 -58.5q68 0 104.5 28.5t36.5 65t-25 62.5t-81 52l-163 76q-69 31 -100 87q-25 44 -25 97q0 108 73 164q61 46 162 46q66 0 169 -10
h78l-22 -163h-10q0 63 -53 96q-42 27 -94 27t-82 -11q-66 -23 -66 -80q0 -28 21.5 -47t67.5 -39l187 -87q116 -53 116 -174t-86 -180.5zM242 -264q32 14 32 41.5t-18 48t-18 46.5q0 35 24 52q16 12 30 12q52 0 71 -41q11 -23 11 -39t-3.5 -36.5t-20 -46t-41 -37t-39.5 -11.5
t-25 2z" />
    <glyph glyph-name="scommaaccent" unicode="&#x219;" horiz-adv-x="549" 
d="M514 202q0 -110 -79 -165q-70 -49 -194 -49q-74 0 -123.5 16.5t-68.5 40.5q-9 21 -9 44t4 44q11 53 35 83h6v-9q0 -67 48 -120q49 -53 135 -53q51 0 77 23t26 53t-23.5 53t-76.5 46l-105 49q-64 27 -94 79q-23 40 -23 88q0 16 2 32q22 155 190 155q56 0 151 -9h67
l-24 -146h-6q0 49 -35.5 78.5t-88.5 29.5q-102 0 -109 -66q-3 -32 24 -51q21 -14 58 -29l129 -59q53 -23 80 -64t27 -94zM220 -264q31 14 31 41.5t-17.5 48t-17.5 46.5q0 35 23 52q16 12 31 12q51 0 70 -41q11 -23 11 -39t-3.5 -36.5t-20 -46t-40.5 -37t-39.5 -11.5t-25.5 2
z" />
    <glyph glyph-name="uni021A" unicode="&#x21a;" horiz-adv-x="698" 
d="M452 651v-579q1 -26 19.5 -44t44.5 -18h13v-10h-359v10h13q26 0 44.5 18t19.5 43v580h-99q-60 -1 -94 -35.5t-34 -94.5v-7l-10 -1v206q14 -6 50.5 -12t67.5 -6h443q31 0 67 6t51 12v-206l-10 1v7q0 81 -60 114q-29 15 -69 16h-98zM289 -264q31 14 31 41.5t-18 48
t-18 46.5q0 35 24 52q16 12 30 12q52 0 71 -41q11 -23 11 -39t-3.5 -36.5t-20 -46t-41 -37t-39.5 -11.5t-25 2z" />
    <glyph glyph-name="uni021B" unicode="&#x21b;" horiz-adv-x="612" 
d="M606 428h-10v5q1 77 -54 106q-26 15 -64 15h-74v-492q0 -22 15.5 -37t37.5 -15h10v-10h-321v10h10q21 0 36.5 15t15.5 37v492h-73q-86 -1 -110 -70q-8 -23 -8 -51v-5h-10v188q13 -5 44 -10t56 -5h399q26 0 59 5t41 10v-188zM254 -263q32 14 32 41.5t-18 48t-18 46.5
q0 35 23 52q16 12 31 12q51 0 70 -41q11 -23 11 -39t-3.5 -36.5t-20 -46t-40.5 -37t-39.5 -11.5t-24.5 2z" />
    <glyph glyph-name="circumflex" unicode="&#x2c6;" 
d="M270 844h12l179 -175l-8 -8l-177 64l-168 -64l-7 8z" />
    <glyph glyph-name="caron" unicode="&#x2c7;" 
d="M292 671h-12l-169 175l7 8l168 -64l158 64l7 -8z" />
    <glyph glyph-name="breve" unicode="&#x2d8;" 
d="M363 843q0 -46 -33 -83q-43 -50 -110.5 -50t-109.5 50q-33 38 -33 83q0 15 4 31h12q12 -27 47.5 -45.5t72 -18.5t62.5 8q55 18 72 56h13q3 -16 3 -31z" />
    <glyph glyph-name="dotaccent" unicode="&#x2d9;" 
d="M293.5 665q-30.5 0 -52 22t-21.5 52.5t21.5 52t52 21.5t52.5 -21.5t22 -52t-22 -52.5t-52.5 -22z" />
    <glyph glyph-name="ring" unicode="&#x2da;" 
d="M216 851.5q34 25.5 84.5 25.5t84 -25t33.5 -63.5t-33.5 -64.5t-84.5 -26t-84.5 25.5t-33.5 64t34 64zM337 830q-15 17 -37 17t-36.5 -17t-14.5 -42.5t14.5 -42t36.5 -16.5t37 16.5t15 42t-15 42.5z" />
    <glyph glyph-name="ogonek" unicode="&#x2db;" 
d="M431 -113q-6 -87 -104 -87q-25 0 -57 22q-44 31 -44 83q0 49 27 74.5t51.5 31.5t39.5 6t24 -1l10 -3q-65 -14 -65 -69q0 -53 40 -68q10 -4 28 -4t44 21z" />
    <glyph glyph-name="tilde" unicode="&#x2dc;" 
d="M466 799h12q6 -18 6 -37t-9 -39q-21 -49 -61 -68q-24 -12 -55 -12t-80 25q-50 25 -67.5 27.5t-32.5 2.5t-39 -16t-32 -36h-12q-4 14 -4 29q0 60 45 103q30 30 68 30t92 -27t99 -27q15 0 39 14.5t31 30.5z" />
    <glyph glyph-name="hungarumlaut" unicode="&#x2dd;" 
d="M141 743l-7 7q19 44 65 96.5t89 89.5q64 -27 86 -100q-50 -33 -115.5 -60t-117.5 -33zM351 743l-7 7q19 44 65 96.5t89 89.5q64 -27 86 -100q-70 -46 -134 -67.5t-99 -25.5z" />
    <glyph glyph-name="commaaccentcomb" unicode="&#x326;" horiz-adv-x="0" 
d="M34 -200q32 14 32 41.5t-18 48t-18 46.5q0 35 23 52q16 12 31 12q52 0 70 -41q12 -23 12 -39t-3.5 -36.5t-20 -46t-41 -37t-39.5 -11.5t-25 2z" />
    <glyph glyph-name="Delta" unicode="&#x394;" horiz-adv-x="652" 
d="M647 0h-642v10l316 704h10l316 -704v-10zM498 50l-208 482l-211 -482h419z" />
    <glyph glyph-name="Omega" unicode="&#x3a9;" horiz-adv-x="879" 
d="M585.5 597q-57.5 67 -145 67t-146 -68.5t-58.5 -169.5t47 -163t132 -88l-20 -175h-327l-48 260h10q27 -50 50.5 -67.5t66.5 -17.5h188q-83 0 -153 30t-113 88.5t-43 138t54 145t148.5 101.5t211.5 36t211.5 -37t148 -102.5t53.5 -144.5t-42.5 -137.5t-112.5 -88
t-156 -29.5h190q44 0 67 17.5t51 67.5h10l-48 -260h-330l-20 175q181 60 181 254q0 101 -57.5 168z" />
    <glyph glyph-name="mu" unicode="&#x3bc;" horiz-adv-x="854" 
d="M549 0v10h14q18 0 26 12.5t7 25.5l-33 224l-138 -193q-15 -21 -26 -49t-11 -38.5v-13.5h-8l-225 280l-27 -210q-1 -10 5 -20q10 -18 28 -18h14v-10h-194v10h13q25 0 43 13.5t21 38.5l78 550h8l298 -375l267 375h9l80 -555q6 -22 22.5 -34.5t38.5 -12.5h14v-10h-324z" />
    <glyph glyph-name="pi" unicode="&#x3c0;" horiz-adv-x="783" 
d="M433 10q23 0 39 16t17 38v432q-1 31 -27 47q-13 7 -27 7h-86q-22 0 -37.5 -15.5t-16.5 -37.5v-434q1 -22 17 -37.5t39 -15.5h10l1 -10h-337v10h11q23 0 39 16t16 38v472q0 31 -28 47q-12 7 -27 7h-11v10h734v-10h-11q-22 0 -38 -15.5t-17 -37.5v-474q1 -31 28 -46
q12 -7 27 -7h11v-10h-337l1 10h10z" />
    <glyph glyph-name="Wgrave" unicode="&#x1e80;" horiz-adv-x="964" 
d="M570 771l-7 -7q-53 6 -118 33t-115 60q21 73 85 100q44 -37 90 -89.5t65 -96.5zM1004 690h-8q-25 0 -50 -14.5t-36 -42.5l-170 -544q-15 -47 -15 -94q0 -9 1 -17h-10l-231 435l-158 -324q-26 -56 -27 -111h-9l-247 655q-14 29 -37.5 43t-48.5 14h-8v10h359v-10h-9
q-21 0 -31.5 -13.5t-10.5 -25t5 -23.5l109 -272l173 360l9 -1l199 -368l80 281q2 11 2 19.5t-2.5 18.5t-13 17t-24.5 7h-9v10h218v-10z" />
    <glyph glyph-name="wgrave" unicode="&#x1e81;" horiz-adv-x="851" 
d="M515 671l-7 -7q-53 6 -118 33t-115 60q21 73 85 100q43 -37 89.5 -89.5t65.5 -96.5zM883 590h-7q-21 0 -41 -10t-31 -31l-147 -462q-13 -39 -13 -64.5v-32.5h-8l-206 348l-134 -254q-24 -47 -24 -94h-8l-216 552q-11 25 -31.5 36.5t-41.5 11.5h-7v10h329v-10h-9
q-17 0 -26 -10.5t-9 -19.5t2 -17l92 -208l145 278h7l172 -288l62 214q2 9 2 19t-8.5 21t-27.5 11h-7v10h191v-10z" />
    <glyph glyph-name="Wacute" unicode="&#x1e82;" horiz-adv-x="964" 
d="M526 761l-7 7q19 44 65.5 96.5t89.5 89.5q64 -27 85 -100q-50 -33 -115 -60t-118 -33zM1004 690h-8q-25 0 -50 -14.5t-36 -42.5l-170 -544q-15 -47 -15 -94q0 -9 1 -17h-10l-231 435l-158 -324q-26 -56 -27 -111h-9l-247 655q-14 29 -37.5 43t-48.5 14h-8v10h359v-10h-9
q-30 0 -40 -28q-1 -6 -1 -14t4 -20l109 -272l173 360l9 -1l199 -368l80 281q3 11 3 23t-9.5 25.5t-31.5 13.5h-9v10h218v-10z" />
    <glyph glyph-name="wacute" unicode="&#x1e83;" horiz-adv-x="851" 
d="M471 661l-7 7q19 44 65 96.5t89 89.5q65 -27 86 -100q-70 -46 -134 -67.5t-99 -25.5zM883 590h-7q-21 0 -41 -10t-31 -31l-147 -462q-13 -39 -13 -64.5v-32.5h-8l-206 348l-134 -254q-24 -47 -24 -94h-8l-216 552q-11 25 -31.5 36.5t-41.5 11.5h-7v10h329v-10h-9
q-17 0 -26 -10.5t-9 -19.5t2 -17l92 -208l145 278h7l172 -288l62 214q2 9 2 19t-8.5 21t-27.5 11h-7v10h191v-10z" />
    <glyph glyph-name="Wdieresis" unicode="&#x1e84;" horiz-adv-x="964" 
d="M408.5 755q-30.5 0 -52 22t-21.5 52.5t21.5 52t52 21.5t52 -21.5t21.5 -52t-21.5 -52.5t-52 -22zM671.5 755q-30.5 0 -52.5 22t-22 52.5t22 52t52.5 21.5t52 -21.5t21.5 -52t-21.5 -52.5t-52 -22zM1004 690h-8q-25 0 -50 -14.5t-36 -42.5l-170 -544q-15 -47 -15 -94
q0 -9 1 -17h-10l-231 435l-158 -324q-26 -56 -27 -111h-9l-247 655q-14 29 -37.5 43t-48.5 14h-8v10h359v-10h-9q-30 0 -40 -28q-1 -6 -1 -14t4 -20l109 -272l173 360l9 -1l199 -368l80 281q3 11 3 23t-9.5 25.5t-31.5 13.5h-9v10h218v-10z" />
    <glyph glyph-name="wdieresis" unicode="&#x1e85;" horiz-adv-x="851" 
d="M352.5 655q-30.5 0 -52 22t-21.5 52.5t21.5 52t52 21.5t52.5 -21.5t22 -52t-22 -52.5t-52.5 -22zM615.5 655q-30.5 0 -52 22t-21.5 52.5t21.5 52t52 21.5t52 -21.5t21.5 -52t-21.5 -52.5t-52 -22zM883 590h-7q-21 0 -41 -10t-31 -31l-147 -462q-13 -39 -13 -64.5v-32.5
h-8l-206 348l-134 -254q-24 -47 -24 -94h-8l-216 552q-11 25 -31.5 36.5t-41.5 11.5h-7v10h329v-10h-9q-17 0 -26 -10.5t-9 -19.5t2 -17l92 -208l145 278h7l172 -288l62 214q2 9 2 19t-8.5 21t-27.5 11h-7v10h191v-10z" />
    <glyph glyph-name="Ygrave" unicode="&#x1ef2;" horiz-adv-x="729" 
d="M462 771l-7 -7q-72 9 -161 52q-40 19 -72 41q21 73 85 100q62 -53 102 -104.5t53 -81.5zM775 690h-14q-30 0 -57.5 -17t-43.5 -42l-196 -309v-249q0 -26 18.5 -44.5t45.5 -18.5h12v-10h-358v10h13q26 0 44.5 18t19.5 44v250l-191 311q-25 39 -69 52q-15 5 -30 5h-14v10
h386v-10h-12q-22 0 -34 -20q-7 -11 -7 -21.5t6 -20.5l137 -247l142 247q6 10 6 20t-7 21q-13 21 -34 21h-12v10h249v-10z" />
    <glyph glyph-name="ygrave" unicode="&#x1ef3;" horiz-adv-x="633" 
d="M400 671l-7 -7q-52 6 -117.5 33t-115.5 60q22 73 86 100q43 -37 89 -89.5t65 -96.5zM684 590h-13q-26 0 -48.5 -13.5t-36.5 -33.5l-169 -264v-217q0 -22 16 -37t39 -15h11v-10h-328v10h12q22 0 38 15t16 37v216l-172 265q-14 20 -37 33.5t-48 13.5h-12v10h350v-10h-10
q-19 0 -27 -12.5t-8 -21.5t5 -17l124 -210l121 210q5 8 5 16.5t-8.5 21.5t-26.5 13h-11v10h218v-10z" />
    <glyph glyph-name="endash" unicode="&#x2013;" horiz-adv-x="500" 
d="M0 261v60h500v-60h-500z" />
    <glyph glyph-name="emdash" unicode="&#x2014;" horiz-adv-x="800" 
d="M0 261v60h800v-60h-800z" />
    <glyph glyph-name="quoteleft" unicode="&#x2018;" horiz-adv-x="278" 
d="M209 808q-12 -13 -17 -26.5t-5 -23.5q0 -35 28 -67t28 -73q0 -54 -36 -80q-24 -18 -47 -18q-80 0 -108 63q-17 41 -17 80.5t17 74.5q37 77 105 100q23 7 42 7t34 -2l4 -15q-16 -7 -28 -20z" />
    <glyph glyph-name="quoteright" unicode="&#x2019;" horiz-adv-x="268" 
d="M80 591q7 13 7.5 21.5t0.5 16.5q0 26 -26.5 56.5t-26.5 69.5q0 52 34 76q24 18 45 18q76 0 103 -60q16 -39 16 -77t-16 -71q-35 -73 -100 -95q-22 -7 -40 -7t-32 2l-4 14q26 11 39 36z" />
    <glyph glyph-name="quotesinglbase" unicode="&#x201a;" horiz-adv-x="278" 
d="M41 -127q34 15 45 47q5 14 5 24q0 34 -28 66t-28 73q0 54 36 80q25 19 47 19q80 0 109 -64q16 -40 16 -79.5t-17 -75.5q-37 -76 -105 -99q-23 -8 -42 -8t-33 3z" />
    <glyph glyph-name="quotedblleft" unicode="&#x201c;" horiz-adv-x="528" 
d="M209 808q-12 -13 -17 -26.5t-5 -23.5q0 -35 28 -67t28 -73q0 -54 -36 -80q-24 -18 -47 -18q-80 0 -108 63q-17 41 -17 80.5t17 74.5q37 77 105 100q23 7 42 7t34 -2l4 -15q-16 -7 -28 -20zM450 808q-12 -13 -17 -26.5t-5 -23.5q0 -35 28 -67t28 -73q0 -54 -36 -80
q-24 -18 -47 -18q-80 0 -108 63q-17 41 -17 80.5t17 74.5q37 77 105 100q23 7 42 7t34 -2l4 -15q-16 -7 -28 -20z" />
    <glyph glyph-name="quotedblright" unicode="&#x201d;" horiz-adv-x="498" 
d="M80 591q7 13 7.5 21.5t0.5 16.5q0 26 -26.5 56.5t-26.5 69.5q0 52 34 76q24 18 45 18q76 0 103 -60q16 -39 16 -77t-16 -71q-35 -73 -100 -95q-22 -7 -40 -7t-32 2l-4 14q26 11 39 36zM310 591q7 13 7.5 21.5t0.5 16.5q0 26 -26.5 56.5t-26.5 69.5q0 52 34 76
q24 18 45 18q76 0 103 -60q16 -35 16 -67.5t-8 -59.5t-26 -52q-49 -71 -127 -71q-13 0 -27 2l-4 14q26 11 39 36z" />
    <glyph glyph-name="quotedblbase" unicode="&#x201e;" horiz-adv-x="518" 
d="M41 -134q34 15 45 47q5 13 5 24q0 34 -28 66t-28 73q0 54 36 80q25 19 47 19q80 0 109 -64q16 -40 16 -79.5t-17 -75.5q-37 -76 -105 -99q-23 -8 -42 -8t-33 3zM282 -134q33 15 44 47q5 13 5 24q0 34 -28 66t-28 73q0 54 36 80q25 19 47 19q80 0 109 -64q16 -40 16 -79.5
t-17 -75.5q-37 -76 -105 -99q-23 -8 -42 -8t-33 3z" />
    <glyph glyph-name="dagger" unicode="&#x2020;" horiz-adv-x="477" 
d="M458 438l-24 -87l-126 43l-65 40l41 -63l42 -216l-82 -335h-10l-83 335l43 216l40 63l-65 -41l-125 -42l-24 87l24 88l125 -43l65 -39l-40 61l-43 185l89 24l86 -24l-42 -185l-40 -61l64 40l126 42z" />
    <glyph glyph-name="daggerdbl" unicode="&#x2021;" horiz-adv-x="478" 
d="M435 182l24 -87l-24 -88l-125 43l-65 40l40 -62l42 -185l-88 -24l-87 24l43 185l40 62l-65 -40l-125 -43l-24 88l24 87l125 -42l65 -40l-40 62l-43 105l42 104l40 63l-65 -41l-125 -42l-24 87l24 88l125 -43l65 -39l-40 61l-43 185l89 24l86 -24l-42 -185l-40 -61l64 40
l126 42l24 -88l-24 -87l-126 43l-65 40l41 -63l43 -104l-42 -105l-40 -62l65 40z" />
    <glyph glyph-name="bullet" unicode="&#x2022;" horiz-adv-x="389" 
d="M195 188q-10 0 -20 4q-64 21 -82 39t-39 82q-4 10 -4 20t4 20q21 64 39 82t82 39q10 3 20 3t20 -3q64 -21 82 -39t39 -82q3 -10 3 -20.5t-7.5 -33.5t-14.5 -38.5t-21 -29.5t-30 -21t-38.5 -14.5t-32.5 -7.5z" />
    <glyph glyph-name="ellipsis" unicode="&#x2026;" horiz-adv-x="740" 
d="M125 -14q-37 0 -63.5 26.5t-26.5 63.5t26.5 63.5t63.5 26.5t63.5 -26.5t26.5 -63.5t-26.5 -63.5t-63.5 -26.5zM370 -14q-37 0 -63.5 26.5t-26.5 63.5t26.5 63.5t63.5 26.5t63.5 -26.5t26.5 -63.5t-26.5 -63.5t-63.5 -26.5zM615 -14q-37 0 -63.5 26.5t-26.5 63.5
t26.5 63.5t63.5 26.5t63.5 -26.5t26.5 -63.5t-26.5 -63.5t-63.5 -26.5z" />
    <glyph glyph-name="perthousand" unicode="&#x2030;" horiz-adv-x="1167" 
d="M363 642q16 -32 16 -60.5t-2 -44.5q-9 -83 -64.5 -129.5t-141 -46.5t-123.5 49q-28 37 -28 95q0 109 69 165q55 44 140 44h1h19.5t45 -7t41.5 -16q45 -26 83 -26q42 0 104 33q16 8 21 11l39 -17l-372 -711l-45 19l346 653q-37 -24 -75 -24t-74 13zM181.5 401.5
q25.5 0.5 43 36t23 84.5t5.5 76q0 76 -28 76t-48 -63q-21 -68 -21 -139t25.5 -70.5zM450 295q55 44 136 44t117 -43t36 -109q0 -101 -60 -151t-146 -50t-124 49q-28 37 -28 94q0 109 69 166zM841 295q55 44 136 44t117 -43t36 -109q0 -101 -60 -151t-146 -50t-124 49
q-28 37 -28 94q0 109 69 166zM510 94q0 -68 27 -68q24 0 41.5 35.5t23.5 85t6 76.5q0 76 -29 76q-21 0 -37.5 -36t-24 -88t-7.5 -81zM901 94q0 -68 27 -68q24 0 41.5 35.5t23.5 85t6 76.5q0 76 -29 76q-21 0 -37.5 -36t-24 -88t-7.5 -81z" />
    <glyph glyph-name="guilsinglleft" unicode="&#x2039;" horiz-adv-x="333" 
d="M265 490l8 -5l-78 -193l79 -197l-9 -7l-225 204z" />
    <glyph glyph-name="guilsinglright" unicode="&#x203a;" horiz-adv-x="333" 
d="M69 88l-9 7l79 197l-78 193l8 5l225 -198z" />
    <glyph glyph-name="fraction" unicode="&#x2044;" 
d="M498 723l47 -32l-477 -711l-48 31z" />
    <glyph glyph-name="Euro" unicode="&#x20ac;" horiz-adv-x="693" 
d="M447 -13q-142 0 -241 76t-127 201h-119l19 50h92q-3 35 0 70h-111l18 50h100q18 82 67.5 145t128.5 99t161 36t150 -15t91 -44l-53 -155h-10q1 5 1 27t-12 53.5t-34 49.5q-43 34 -101 34q-154 0 -178 -230h312l-18 -50h-298v-33v-37h275l-16 -50h-255q25 -227 192 -227
q73 0 117 43.5t69 133.5h9v-165q-29 -30 -96 -46t-133 -16z" />
    <glyph glyph-name="trademark" unicode="&#x2122;" horiz-adv-x="512" 
d="M143 685v-164q0 -8 5 -13t13 -5h3v-3h-108v3h4q7 0 12 5t5 13v164h-24q-19 0 -29.5 -10.5t-10.5 -29.5v-2h-3v63q13 -5 34 -5h132q21 0 34 5v-63h-3v2q0 19 -10.5 29.5t-29.5 10.5h-24zM503 500h-108v3h5q4 0 7 3.5t4 7.5l-12 77l-46 -64q-13 -19 -12 -34h-3l-75 93
l-9 -72q0 -4 3.5 -7.5t7.5 -3.5h4v-3h-64v3h5q16 0 20 15l27 187h2l100 -126l89 126h3l27 -186q4 -16 20 -16h5v-3z" />
    <glyph glyph-name="partialdiff" unicode="&#x2202;" horiz-adv-x="647" 
d="M209 641q-85 0 -134 -54l-9 7q35 70 107 100q56 23 118 23q165 0 253 -122q69 -96 69 -236q0 -175 -84 -270q-93 -104 -256 -104q-53 0 -101 16q-91 30 -127 122q-15 39 -15 80q0 47 20 97.5t70 90t122 49.5q14 2 29 2q60 0 128 -32q-11 149 -84 199q-46 32 -106 32z
M364 367q-91 0 -118 -136q-6 -37 -6 -60.5t2 -52t18 -55.5t36 -27q44 0 72 85t32 212v30q-19 4 -36 4z" />
    <glyph glyph-name="product" unicode="&#x220f;" horiz-adv-x="853" 
d="M493 -190q23 0 39 15.5t17 38.5v732q-1 22 -16.5 38t-37.5 16h-136q-22 0 -37.5 -15.5t-16.5 -37.5v-734q1 -22 17 -37.5t39 -15.5h10l1 -10h-337v10h11q23 0 39 15.5t16 38.5v772q0 31 -28 47q-12 7 -27 7h-11v10h784v-10h-11q-22 0 -38 -15.5t-17 -37.5v-774
q0 -22 16.5 -37.5t38.5 -15.5h11v-10h-337l1 10h10z" />
    <glyph glyph-name="summation" unicode="&#x2211;" horiz-adv-x="637" 
d="M25 -181v11l277 402l-271 458v10h425q43 0 76.5 7t42.5 11v-206l-10 1v7q0 60 -34 94.5t-94 35.5h-159l178 -306l-245 -350h203q68 5 120 52.5t74 128.5h10l-38 -356h-555z" />
    <glyph glyph-name="minus" unicode="&#x2212;" horiz-adv-x="481" 
d="M40 277v65h402v-65h-402z" />
    <glyph glyph-name="radical" unicode="&#x221a;" horiz-adv-x="591" 
d="M23 378l-13 52l235 59l76 -257l209 611l55 -2l-327 -988l-174 540z" />
    <glyph glyph-name="infinity" unicode="&#x221e;" horiz-adv-x="633" 
d="M162 155q-56 0 -94 40.5t-38 100.5t38.5 101.5t86.5 41.5q88 0 162 -89q31 39 72 64t89 25t86.5 -41.5t38.5 -102.5q0 -38 -17 -70.5t-47.5 -51t-71.5 -18.5t-82 25.5t-69 64.5q-37 -54 -94 -78q-30 -12 -60 -12zM223.5 240.5q30.5 22.5 53.5 56.5q-61 79 -115 79
q-26 0 -46.5 -23.5t-20.5 -47.5t5.5 -39t14.5 -25q21 -23 49.5 -23t59 22.5zM471 218q27 0 47 23.5t20 55.5t-20 55.5t-47 23.5q-54 0 -115 -79q55 -79 115 -79z" />
    <glyph glyph-name="integral" unicode="&#x222b;" horiz-adv-x="641" 
d="M328.5 756q27.5 17 62.5 28t75 11q162 0 175 -80v-9q0 -25 -20 -45q-22 -17 -44 -17q-34 0 -57 29q-9 10 -15 27t-12 26t-20 8t-21.5 -14.5t-9.5 -55.5q-34 -595 -37 -635t-17 -81t-33.5 -65.5t-46.5 -40.5q-59 -36 -148 -36q-121 0 -152 59q-8 14 -8 24q0 31 18 49
q22 21 46 21q46 0 66 -51l8 -21q7 -21 24 -20t23.5 16t11 96.5t13.5 227.5l19.5 355t17 87t34.5 65t47.5 42z" />
    <glyph glyph-name="approxequal" unicode="&#x2248;" horiz-adv-x="482" 
d="M76 426q15 9 34 14t30.5 5t28 -2t50.5 -16.5t62.5 -28t41.5 -14.5t24.5 2.5t26.5 13.5q19 13 43 32l45 -43q-1 -2 -10.5 -11.5t-19.5 -18.5q-48 -41 -97 -41q-9 0 -29 2.5t-76 29.5q-60 29 -78.5 29t-32 -6.5t-21 -13.5l-30.5 -29l-48 43q19 30 56 53zM76 256q15 9 34 14
t30 5q43 0 106 -30t76.5 -31t25 2.5t26.5 13.5q19 13 43 32l45 -43q-1 -2 -10.5 -11.5t-19.5 -18.5q-48 -41 -97 -41q-9 0 -29 2.5t-76 29.5q-61 29 -81.5 29t-34.5 -8.5t-27.5 -22l-14.5 -14.5l-4 -4l-48 43q19 30 56 53z" />
    <glyph glyph-name="notequal" unicode="&#x2260;" horiz-adv-x="481" 
d="M442 354h-122l-53 -110h175v-65h-206l-58 -121l-61 27l45 94h-122v65h153l53 110h-206v65h238l53 110l60 -28l-40 -82h91v-65z" />
    <glyph glyph-name="lessequal" unicode="&#x2264;" horiz-adv-x="501" 
d="M442 586v-71l-309 -145l309 -146v-71l-402 187v59zM40 33v65h402v-65h-402z" />
    <glyph glyph-name="greaterequal" unicode="&#x2265;" 
d="M40 586l402 -187v-59l-402 -187v71l309 146l-309 145v71zM40 33v65h402v-65h-402z" />
    <glyph glyph-name="lozenge" unicode="&#x25ca;" horiz-adv-x="510" 
d="M471 350l-222 -364l-209 364l209 364zM106 350l144 -255l154 255l-154 255z" />
    <glyph glyph-name="fi" unicode="&#xfb01;" horiz-adv-x="905" 
d="M510 424h-10v6q0 78 -54 108q-27 15 -65 16h-101v-235h76q61 1 88 50q12 23 12 53v2h10v-258h-10v4q0 44 -27.5 73t-72.5 29h-76v-210q1 -31 26 -45q12 -7 27 -7h10v-10h-322v10h11q21 0 36.5 15t15.5 37v475q0 23 -15.5 38t-36.5 15h-11v10h390q25 0 56 5t43 10v-191z
M873 10h11v-10h-321v10h11q21 0 36 15t15 37v476q-1 35 -32 48q-9 4 -19 4h-11v10h320v-10h-10q-30 0 -44 -25q-7 -12 -8 -27v-476q1 -22 16 -37t36 -15z" />
    <glyph glyph-name="fl" unicode="&#xfb02;" horiz-adv-x="1099" 
d="M510 424h-10v6q0 78 -54 108q-27 15 -65 16h-101v-235h76q61 1 88 50q12 23 12 53v2h10v-258h-10v4q0 44 -27.5 73t-72.5 29h-76v-210q1 -31 26 -45q12 -7 27 -7h10v-10h-322v10h11q21 0 36.5 15t15.5 37v475q0 23 -15.5 38t-36.5 15h-11v10h390q25 0 56 5t43 10v-191z
M1075 0h-512v10h11q21 0 36.5 15t15.5 37v476q-1 31 -27 45q-11 7 -25 7h-11v10h323v-10h-11q-31 0 -46 -25q-7 -12 -7 -27v-492h96q60 0 108.5 44t67.5 120h10z" />
    </font>
</defs>
</svg>
