<?xml version="1.0" standalone="no"?>
<!DOCTYPE svg PUBLIC "-//W3C//DTD SVG 1.1//EN" "http://www.w3.org/Graphics/SVG/1.1/DTD/svg11.dtd" >
<svg>
<metadata>
Created by FontForge 20090622 at Fri Oct 19 09:59:09 2018
 By deploy user
Copyright (c) 2010-2012, Alejandro Inler (alejandroinler@gmail.com), with Reserved Font Name 'Elsie'
</metadata>
<defs>
<font id="Elsie-Regular" horiz-adv-x="670" >
  <font-face 
    font-family="Elsie"
    font-weight="400"
    font-stretch="normal"
    units-per-em="1000"
    panose-1="2 0 0 0 0 0 0 0 0 0"
    ascent="800"
    descent="-200"
    x-height="473"
    cap-height="650"
    bbox="-106 -238 1401 872"
    underline-thickness="50"
    underline-position="-50"
    unicode-range="U+0020-U+FB06"
  />
<missing-glyph horiz-adv-x="200" 
 />
    <glyph glyph-name="ellipsis" unicode="&#x2e;&#x2e;&#x2e;" horiz-adv-x="619" 
d="M56 48q0 25 16.5 42t41.5 17t42 -17t17 -42t-17 -41.5t-42 -16.5t-41.5 16.5t-16.5 41.5zM251 48q0 25 16.5 42t41.5 17t42 -17t17 -42t-17 -41.5t-42 -16.5t-41.5 16.5t-16.5 41.5zM446 48q0 25 16.5 42t41.5 17t42 -17t17 -42t-17 -41.5t-42 -16.5t-41.5 16.5
t-16.5 41.5z" />
    <glyph glyph-name="f_l" unicode="fl" horiz-adv-x="565" 
d="M469 15h66v-15h-221v15h66v660h-88q15 -22 15 -51.5t-21.5 -49t-48 -19.5t-43.5 16t-17 43q0 57 73 72q-14 6 -28 6q-38 0 -57.5 -26.5t-19.5 -65t24.5 -76.5t27.5 -64h93v-15h-92v-430h66v-15h-221v15h66v430h-71v15h71v68q0 91 29.5 136.5t81.5 45.5q34 0 59 -21
q5 1 17 1h34q78 0 139 13v-688zM273 587q16 15 16 42t-19 44q-76 -8 -76 -59q0 -18 12.5 -30t31.5 -12t35 15z" />
    <glyph glyph-name="s_t" unicode="st" horiz-adv-x="803" 
d="M250 480q23 0 44 -3q-64 54 -64 137t67.5 131t149.5 48q80 0 145 -47q35 -24 56 -71t21 -110v-105h121v-15h-121v-340q0 -84 11 -93q6 -5 16 -5q25 0 48.5 29t38.5 63l16 -6q-19 -48 -51 -80.5t-74 -32.5q-59 0 -76.5 35.5t-17.5 111.5v318h-71v15h18q112 0 112 152
q0 76 -58 119.5t-134.5 43.5t-137.5 -43.5t-61 -110.5q0 -103 102 -160q52 -27 52 -84q0 -30 -19.5 -50.5t-46 -20.5t-43 15.5t-16.5 38t13 38t35 15.5q34 0 40 -26q1 -9 9.5 -9t8.5 9q0 28 -27.5 50.5t-84 22.5t-93 -21t-36.5 -58.5t29 -60.5t70 -38l82.5 -31.5t70.5 -47.5
t29 -75q0 -75 -53.5 -111.5t-132.5 -36.5t-127 28t-48 85q0 30 19.5 50.5t46 20.5t43 -15.5t16.5 -38t-13 -38t-35 -15.5q-34 0 -40 26q-1 9 -9.5 9t-8.5 -9q0 -30 33.5 -56.5t99.5 -26.5q145 0 145 94q0 58 -99 94q-42 15 -83 31.5t-70 47.5t-29 75q0 64 50.5 101t121.5 37
z" />
    <glyph glyph-name="f_t" unicode="ft" horiz-adv-x="633" 
d="M222 708l18 1q33 0 60 -21.5t27 -58t-21.5 -56t-53 -19.5t-51.5 24.5t-20 52t6 46.5q-42 -25 -42 -81q0 -35 24.5 -73t27.5 -64h93v-15h-92v-430h66v-15h-221v15h66v430h-71v15h71v68q0 145 89 175q21 34 59.5 51.5t81.5 17.5q71 0 119 -50t48 -164v-98h121v-15h-121
v-340q0 -58 4 -78t26 -20t45.5 29t38.5 63l16 -6q-19 -48 -51 -80.5t-74 -32.5q-59 0 -76.5 35.5t-17.5 111.5v318h-71v15h18q112 0 112 157q0 67 -41.5 102.5t-95.5 35.5q-80 0 -117 -46zM288.5 674q-20.5 17 -41.5 17t-38 -5q-10 -23 -10 -50t16.5 -46t39 -19t38.5 15
t16 43t-20.5 45z" />
    <glyph glyph-name="f_k" unicode="fk" horiz-adv-x="768" 
d="M533 262l-64 -11v-236h66v-15h-221v15h66v660h-71v15h21q78 0 139 13v-435q198 26 198 128q0 30 -15.5 48t-38.5 18q-10 0 -10 -8t9 -10q26 -6 26 -39q0 -21 -15.5 -34.5t-38 -13.5t-38 16.5t-15.5 42.5t20.5 45t54.5 19t56 -22.5t22 -61.5q0 -83 -104 -120v-2
q78 -4 102 -41t24 -121v-38q0 -38 6.5 -54.5t24.5 -16.5q7 0 18 3l2 -12q-26 -7 -54 -7q-86 0 -86 99v54q0 122 -78 122h-6zM309 675h-17q15 -22 15 -51.5t-21.5 -49t-48 -19.5t-43.5 16t-17 43q0 57 73 72q-14 6 -28 6q-38 0 -57.5 -26.5t-19.5 -65t24.5 -76.5t27.5 -64h93
v-15h-92v-430h66v-15h-221v15h66v430h-71v15h71v68q0 91 29.5 136.5t81.5 45.5q34 0 59 -21q5 1 17 1h13v-15zM273 587q16 15 16 42t-19 44q-76 -8 -76 -59q0 -18 12.5 -30t31.5 -12t35 15z" />
    <glyph glyph-name="f_h" unicode="fh" horiz-adv-x="862" 
d="M535 15v-15h-221v15h66v660h-71v15h21q79 0 141 13v-330h6q17 48 57.5 77.5t90.5 29.5q87 0 119 -51.5t32 -153.5v-260h66v-15h-221v15h66v246q0 113 -17 149q-8 16 -24.5 29t-48.5 13t-60.5 -23t-42.5 -63q-25 -71 -25 -170v-181h66zM309 675h-17q15 -22 15 -51.5
t-21.5 -49t-48 -19.5t-43.5 16t-17 43q0 57 73 72q-14 6 -28 6q-38 0 -57.5 -26.5t-19.5 -65t24.5 -76.5t27.5 -64h93v-15h-92v-430h66v-15h-221v15h66v430h-71v15h71v68q0 91 29.5 136.5t81.5 45.5q34 0 59 -21q5 1 17 1h13v-15zM273 587q16 15 16 42t-19 44
q-76 -8 -76 -59q0 -18 12.5 -30t31.5 -12t35 15z" />
    <glyph glyph-name="f_b" unicode="fb" horiz-adv-x="846" 
d="M469 369h6q18 51 53.5 81t84.5 30q90 0 133.5 -70.5t43.5 -178.5t-45 -179.5t-138 -71.5t-132 82h-6v-62h-155v15h66v660h-88q15 -22 15 -51.5t-21.5 -49t-48 -19.5t-43.5 16t-17 43q0 57 73 72q-14 6 -28 6q-38 0 -57.5 -26.5t-19.5 -65t24.5 -76.5t27.5 -64h93v-15h-92
v-430h66v-15h-221v15h66v430h-71v15h71v68q0 91 29.5 136.5t81.5 45.5q34 0 59 -21q5 1 17 1h34q78 0 139 13v-334zM467 231v-36q0 -78 30 -132.5t94 -54.5q69 0 87 78q15 63 15 126t-3.5 96t-13 68.5t-32 55.5t-54 20t-56 -22.5t-38.5 -57.5q-29 -71 -29 -141zM273 587
q16 15 16 42t-19 44q-76 -8 -76 -59q0 -18 12.5 -30t31.5 -12t35 15z" />
    <glyph glyph-name="s_p" unicode="sp" horiz-adv-x="1042" 
d="M250 480q21 0 42 -3q-66 54 -66 137t67.5 131t149.5 48q80 0 145 -47q35 -24 56 -71t21 -110v-196h6q18 51 53.5 81t84.5 30q90 0 133.5 -70.5t43.5 -178.5t-45 -179.5t-138 -71.5t-132 82h-6v-262h66v-15h-221v15h66v645h-71v15h18q112 0 112 152q0 76 -58.5 119.5
t-134.5 43.5t-137 -43.5t-61 -110.5q0 -101 104 -159q54 -27 54 -85q0 -30 -19.5 -50.5t-46 -20.5t-43 15.5t-16.5 38t13 38t35 15.5q34 0 40 -26q1 -9 9.5 -9t8.5 9q0 28 -27.5 50.5t-84 22.5t-93 -21t-36.5 -58.5t29 -60.5t70 -38l82.5 -31.5t70.5 -47.5t29 -75
q0 -75 -53.5 -111.5t-132.5 -36.5t-127 28t-48 85q0 30 19.5 50.5t46 20.5t43 -15.5t16.5 -38t-13 -38t-35 -15.5q-34 0 -40 26q-1 9 -9.5 9t-8.5 -9q0 -30 33.5 -56.5t99.5 -26.5q145 0 145 94q0 58 -99 94q-42 15 -83 31.5t-70 47.5t-29 75q0 64 50.5 101t121.5 37z
M663 231v-36q0 -78 30 -132.5t94 -54.5q69 0 87 78q15 63 15 126t-3.5 96t-13 68.5t-32 55.5t-54 20t-56 -22.5t-38.5 -57.5q-29 -71 -29 -141z" />
    <glyph glyph-name="c_t" unicode="ct" horiz-adv-x="790" 
d="M289 460q-136 0 -136 -226t138 -226q52 0 85.5 38t46.5 98l18 -2q-15 -73 -60 -117.5t-114 -44.5q-103 0 -157 69.5t-54 182.5t54.5 180.5t162.5 67.5q19 0 36 -3q-72 57 -72 138.5t67.5 129.5t152.5 48t142 -55.5t57 -179.5v-98h121v-15h-121v-340q0 -84 12 -93
q5 -5 15 -5q25 0 48.5 29t38.5 63l16 -6q-19 -48 -51 -80.5t-74 -32.5q-59 0 -76.5 35.5t-17.5 111.5v318h-71v15h18q54 0 83 46.5t29 116.5t-50 111t-124.5 41t-135.5 -43.5t-61 -110.5q0 -95 111 -160q62 -29 62 -102q0 -30 -19.5 -50.5t-46 -20.5t-43 15.5t-16.5 38
t13 38t35 15.5q34 0 40 -26q1 -9 9.5 -9t8.5 9q0 34 -30.5 62.5t-89.5 28.5z" />
    <glyph glyph-name="f1_dotlessi" unicode="fi" horiz-adv-x="296" 
d="M197 15h66v-15h-221v15h66v430h-71v15h21q78 0 139 13v-458z" />
    <glyph glyph-name="f1_dotlessj" unicode="fj" horiz-adv-x="280" 
d="M32 -131q-13 0 -13 -26t20.5 -43t50.5 -17q76 0 76 95q0 35 -26.5 81t-26.5 81v405h-71v15h21q78 0 139 13v-526q0 -182 -112 -182q-38 0 -63.5 23t-25.5 55.5t20 55.5t47 23t43.5 -15.5t16.5 -38t-13 -38t-33.5 -15.5t-31.5 10t-11 25l1 11q0 8 -8 8z" />
    <glyph glyph-name=".notdef" horiz-adv-x="200" 
 />
    <glyph glyph-name=".null" horiz-adv-x="0" 
 />
    <glyph glyph-name="nonmarkingreturn" horiz-adv-x="333" 
 />
    <glyph glyph-name="space" unicode=" " horiz-adv-x="220" 
 />
    <glyph glyph-name="exclam" unicode="!" horiz-adv-x="281" 
d="M199 48q0 -25 -16.5 -41.5t-41.5 -16.5t-42 16.5t-17 41.5t17 42t42 17t41.5 -17t16.5 -42zM148 200h-16q0 170 -38 335q-12 55 -12 78t15 40t43 17t43 -17t15 -40t-12 -78q-38 -165 -38 -335z" />
    <glyph glyph-name="quotedbl" unicode="&#x22;" horiz-adv-x="198" 
d="M40 700h19v-212h-19v212zM133 700h19v-212h-19v212z" />
    <glyph glyph-name="numbersign" unicode="#" horiz-adv-x="729" 
d="M71 140v21h156l52 155h-144v21h151l52 151h22l-52 -151h173l52 151h22l-52 -151h146v-21h-153l-52 -155h141v-21h-148l-51 -150h-22l51 150h-173l-51 -150h-22l51 150h-149zM301 316l-52 -155h173l52 155h-173z" />
    <glyph glyph-name="dollar" unicode="$" horiz-adv-x="442" 
d="M224 -62h-20v54q-26 3 -56 16t-40.5 13t-19.5 -9t-11 -22h-13v183h14q22 -151 126 -164v203q-108 48 -131 100q-11 25 -11 57q0 61 44.5 100t104.5 39h2v62h20v-64q26 -3 58 -16t41 -13q22 0 26 31h12v-165h-14q-24 131 -123 145v-177q81 -38 108 -60q49 -41 49 -108.5
t-47 -110t-118 -42.5h-1v-52zM227 8q42 0 74 19.5t32 60.5t-27.5 65.5t-81.5 49.5v-195h3zM153.5 469.5q-24.5 -20.5 -24.5 -53t21.5 -54.5t62.5 -42v170h-2q-33 0 -57.5 -20.5z" />
    <glyph glyph-name="percent" unicode="%" horiz-adv-x="979" 
d="M599 376.5q54 68.5 142.5 68.5t143 -68.5t54.5 -164.5t-54.5 -164t-143 -68t-142.5 68.5t-54 164t54 164zM741 427q-106 0 -106 -214.5t106 -214.5q108 0 108 214.5t-108 214.5zM501 581q-26 0 -54 6.5t-43 13.5l-14 7q44 -64 44 -155.5t-54.5 -159.5t-143 -68
t-142.5 68.5t-54 164t54 164t142 68.5q56 0 124 -46q27 -17 65 -31t76 -14q75 0 123 34.5t64 67.5l9 16l17 -7l-423 -737l-14 9l368 643q-66 -44 -144 -44zM236 672q-106 0 -106 -214.5t106 -214.5q108 0 108 214.5t-108 214.5z" />
    <glyph glyph-name="ampersand" unicode="&#x26;" horiz-adv-x="661" 
d="M513 266q-36 39 -87 39t-79 -31.5t-28 -74t25 -73.5t67 -31q22 0 38 10q6 5 6 9q0 9 -9 9q-2 0 -9 -4t-21 -4t-26 14t-12 35t14.5 36.5t40.5 15.5t44 -20.5t18 -52t-26 -49t-58 -17.5q-55 0 -86.5 37t-31.5 88q0 71 55.5 118t144.5 55q17 1 45 2.5t44 3t38.5 4.5t35 8.5
t24.5 14.5q24 15 24 55t-25.5 63.5t-59.5 23.5q-16 0 -30.5 -8.5t-14.5 -17.5t9 -9q4 0 10.5 7.5t24.5 7.5t31.5 -15t13.5 -36.5t-16 -37.5t-42 -16t-44.5 19.5t-18.5 49.5t24 52t60.5 22t66.5 -30.5t30 -78.5t-23 -80t-56 -45q-67 -28 -122 -28h-23q68 -50 68 -130.5
t-62 -138t-173.5 -57.5t-170.5 61t-59 134t37 121.5t90 73.5l-2 10q-91 28 -91 129q0 71 54.5 116t120 45t110.5 -31.5t45 -89.5q0 -30 -19.5 -50.5t-46 -20.5t-43 15.5t-16.5 38t13 38t32 15.5t30 -8.5t12.5 -18.5t10 -10t8.5 9q0 35 -32.5 63t-73.5 28q-113 0 -113 -138
q0 -48 21.5 -81.5t62.5 -33.5q22 0 50 11l10 3l5 -18q-94 -30 -132 -70.5t-38 -129t51 -131t132 -42.5q59 0 109 41.5t50 104.5t-36 102z" />
    <glyph glyph-name="quotesingle" unicode="'" horiz-adv-x="422" 
d="M177 700h19v-212h-19v212z" />
    <glyph glyph-name="parenleft" unicode="(" horiz-adv-x="423" 
d="M234.5 560.5q-67.5 -123.5 -67.5 -313t67.5 -313t188.5 -123.5v-16q-87 0 -155.5 37.5t-111.5 101.5q-86 130 -86 313q0 184 86 314q43 64 111.5 101.5t155.5 37.5v-16q-121 0 -188.5 -123.5z" />
    <glyph glyph-name="parenright" unicode=")" horiz-adv-x="423" 
d="M188.5 -65.5q67.5 123.5 67.5 313t-67.5 313t-188.5 123.5v16q87 0 155.5 -37.5t110.5 -101.5q87 -130 87 -314q0 -183 -87 -313q-42 -64 -110.5 -101.5t-155.5 -37.5v16q121 0 188.5 123.5z" />
    <glyph glyph-name="asterisk" unicode="*" horiz-adv-x="328" 
d="M198 705q14 -14 14 -35t-23.5 -52.5t-24.5 -41.5q-1 9 -24.5 41t-23.5 53t14 35t34 14t34 -14zM132 567l-53 -3q-27 0 -43 14t-16 35.5t14.5 35t36 13.5t36.5 -21t24.5 -46t19.5 -31q-8 3 -19 3zM248 564l-52 3q-12 0 -19 -3q10 6 19.5 31t24.5 46t36.5 21t36 -13.5
t14.5 -35t-16.5 -35.5t-43.5 -14zM79 552l53 -4q9 0 19 4q-10 -6 -19.5 -31t-24.5 -46t-36.5 -21t-36 13.5t-14.5 34.5t16 35.5t43 14.5zM130 411.5q-14 13.5 -14 34.5t23.5 52.5t24.5 41.5q1 -11 24.5 -42.5t23.5 -52t-14 -34t-34 -13.5t-34 13.5zM196 548l52 4
q27 0 43.5 -14.5t16.5 -35.5t-14.5 -34.5t-36 -13.5t-36.5 21t-24.5 46t-19.5 31q10 -4 19 -4z" />
    <glyph glyph-name="plus" unicode="+" horiz-adv-x="634" 
d="M80 226v21h227v227h20v-227h227v-21h-227v-226h-20v226h-227z" />
    <glyph glyph-name="comma" unicode="," horiz-adv-x="252" 
d="M196 29q0 -75 -88 -125l-9 15q34 19 56.5 48t22.5 60t-17.5 49t-40.5 18q-10 0 -10 -8t9 -10q26 -6 26 -38q0 -21 -15.5 -34.5t-38 -13.5t-38 16.5t-15.5 42.5t20.5 45t54.5 19t58.5 -23t24.5 -61z" />
    <glyph glyph-name="hyphen" unicode="-" horiz-adv-x="309" 
d="M52 226v21h198v-21h-198z" />
    <glyph glyph-name="period" unicode="." horiz-adv-x="229" 
d="M56 48q0 25 16.5 42t41.5 17t42 -17t17 -42t-17 -41.5t-42 -16.5t-41.5 16.5t-16.5 41.5z" />
    <glyph glyph-name="slash" unicode="/" horiz-adv-x="392" 
d="M77 -213l195 928h23l-195 -928h-23z" />
    <glyph glyph-name="zero" unicode="0" horiz-adv-x="568" 
d="M284 480q94 0 147.5 -73t53.5 -177t-53.5 -177t-147.5 -73t-147.5 73t-53.5 177t53.5 177t147.5 73zM284 -3q29 0 49.5 15.5t31 36.5t16 56.5t6.5 60.5t1 64t-1 64t-6.5 60.5t-16 56.5t-31 36.5t-49.5 15.5t-49.5 -15.5t-31 -36.5t-16 -56.5t-6.5 -60.5t-1 -64t1 -64
t6.5 -60.5t16 -56.5t31 -36.5t49.5 -15.5z" />
    <glyph glyph-name="one" unicode="1" horiz-adv-x="421" 
d="M173 15v351q-36 -23 -87 -37l-5 16q57 17 87.5 41.5t39.5 73.5q34 4 54 13v-458h87v-15h-256v15h80z" />
    <glyph glyph-name="two" unicode="2" horiz-adv-x="523" 
d="M127.5 448.5q43.5 31.5 117 31.5t128.5 -32.5t55 -93.5t-35 -99.5t-84.5 -59.5t-99.5 -39t-85 -46.5t-35 -68.5l6 -3q18 22 46 32t93 10h156q22 0 31.5 11t10.5 36h12v-127h-373v40q0 39 27 71t65 54.5l76 45.5t65 56t27 80.5t-28.5 80t-83.5 32.5t-85.5 -28.5
t-30.5 -62.5q0 -9 8.5 -9t9.5 9q6 28 40 28q22 0 35.5 -14.5t13.5 -38t-17 -39t-43.5 -15.5t-46 19.5t-19.5 49.5q0 58 43.5 89.5z" />
    <glyph glyph-name="three" unicode="3" horiz-adv-x="511" 
d="M118.5 448.5q43.5 31.5 116 31.5t126 -34t53.5 -99.5t-36.5 -101t-109.5 -59.5l2 -9q79 0 125 -49t46 -129q0 -99 -60 -155t-161 -56q-71 0 -118 30t-47 91q0 30 19.5 50.5t46 20.5t43 -15.5t16.5 -38t-13 -38t-35 -15.5q-34 0 -40 26q-2 9 -10 9t-8 -9q0 -35 34 -63
t99 -28t100 49t35 122.5t-29 124.5t-88 51q-16 0 -65 -19l-7 17q169 71 169 188q0 54 -28.5 86.5t-83.5 32.5t-85.5 -28.5t-30.5 -62.5q0 -9 8 -9t10 9q6 28 40 28q22 0 35.5 -14.5t13.5 -38t-17 -39t-43.5 -15.5t-46 19.5t-19.5 49.5q0 58 43.5 89.5z" />
    <glyph glyph-name="four" unicode="4" horiz-adv-x="581" 
d="M37 0v15q240 229 276 445q34 4 54 13v-448h87v-25h-87v-194h-89v194h-241zM75 25h203v265h-5q-34 -69 -87.5 -138.5t-110.5 -122.5v-4z" />
    <glyph glyph-name="five" unicode="5" horiz-adv-x="533" 
d="M58 -91q0 30 19.5 49.5t46 19.5t43.5 -15.5t17 -39t-13.5 -38t-35.5 -14.5q-34 0 -40 28q-1 9 -9.5 9t-8.5 -9q0 -35 34 -63t101.5 -28t100 57.5t32.5 146.5q0 195 -111 195q-86 0 -145 -96h-15v349h259q22 0 31.5 11t10.5 36h12v-127h-296v-227h7q59 74 150 74
t143.5 -53.5t52.5 -154.5t-57 -166t-164 -65q-71 0 -118 30t-47 91z" />
    <glyph glyph-name="six" unicode="6" horiz-adv-x="591" 
d="M330 650q-37 0 -63.5 -15.5t-40.5 -36.5t-22 -56q-11 -47 -11 -122v-72h3q20 29 53 44t67 15q85 0 136 -55t51 -149t-56.5 -158.5t-147.5 -64.5q-58 0 -100 28.5t-65 78.5q-43 97 -43 246.5t58 243t168 93.5q66 0 110.5 -30.5t44.5 -90.5q0 -30 -19.5 -50.5t-47.5 -20.5
t-43.5 17t-15.5 39t13.5 37t39.5 15t36 -27q3 -9 9 -9q9 0 9 9q0 34 -31.5 62.5t-91.5 28.5zM193 283v-96q0 -105 24 -147.5t81.5 -42.5t82.5 43.5t25 148.5t-24 151.5t-81 46.5q-37 0 -72.5 -30t-35.5 -74z" />
    <glyph glyph-name="seven" unicode="7" horiz-adv-x="479" 
d="M50 459h329q28 0 38 10.5t12 36.5h18v-12q0 -102 -22 -180.5t-53.5 -128t-62.5 -93.5q-75 -108 -75 -236q0 -26 -14 -39.5t-35.5 -13.5t-35 14t-13.5 40q0 126 147 260q57 52 83 103l24 47.5t17 48.5q11 43 15 75l4 25q-18 -36 -116 -36h-189q-28 0 -40 -11t-14 -36h-17
v126z" />
    <glyph glyph-name="eight" unicode="8" horiz-adv-x="561" 
d="M154 629.5q51 40.5 130.5 40.5t123 -44.5t43.5 -107.5q0 -45 -22.5 -85t-61.5 -66q56 -41 87.5 -84t31.5 -100q0 -80 -57 -141.5t-151.5 -61.5t-148.5 56.5t-54 137.5q0 55 28.5 105.5t80.5 81.5q-81 72 -81 150t51 118.5zM418 123q0 34 -23 66.5t-50 53t-74.5 53.5
t-71.5 52q-50 -26 -78 -75t-28 -98q0 -74 49 -125.5t120.5 -51.5t113.5 35t42 90zM210 498.5q14 -19.5 22.5 -29.5t26.5 -24.5l27 -21.5l65 -45q36 22 59 58t23 78q0 62 -38.5 99t-89.5 37t-80 -25.5t-29 -66t14 -60z" />
    <glyph glyph-name="nine" unicode="9" horiz-adv-x="591" 
d="M261 -190q37 0 63.5 15.5t40.5 36.5t22 56q11 47 11 122v72h-3q-20 -29 -53 -44t-67 -15q-85 0 -136 55t-51 149t56.5 158.5t147.5 64.5q58 0 100 -28.5t64 -78.5q44 -97 44 -246.5t-58 -243t-168 -93.5q-66 0 -110.5 30.5t-44.5 90.5q0 30 19.5 50.5t47.5 20.5t43.5 -17
t15.5 -39t-13.5 -37t-39.5 -15t-36 27q-3 9 -9 9q-9 0 -9 -9q0 -34 31.5 -62.5t91.5 -28.5zM398 177v96q0 105 -24 147.5t-81.5 42.5t-82.5 -43.5t-25 -148.5t24 -151.5t81 -46.5q37 0 72.5 30t35.5 74z" />
    <glyph glyph-name="colon" unicode=":" horiz-adv-x="229" 
d="M56 412q0 25 16.5 42t41.5 17t42 -17t17 -42t-17 -41.5t-42 -16.5t-41.5 16.5t-16.5 41.5zM56 49q0 25 16.5 42t41.5 17t42 -17t17 -42t-17 -41.5t-42 -16.5t-41.5 16.5t-16.5 41.5z" />
    <glyph glyph-name="semicolon" unicode=";" horiz-adv-x="252" 
d="M56 411q0 25 16.5 42t41.5 17t42 -17t17 -42t-17 -41.5t-42 -16.5t-41.5 16.5t-16.5 41.5zM196 29q0 -75 -88 -125l-9 15q34 19 56.5 48t22.5 60t-17.5 49t-40.5 18q-10 0 -10 -8t9 -10q26 -6 26 -38q0 -21 -15.5 -34.5t-38 -13.5t-38 16.5t-15.5 42.5t20.5 45t54.5 19
t58.5 -23t24.5 -61z" />
    <glyph glyph-name="less" unicode="&#x3c;" horiz-adv-x="471" 
d="M14 220v20l456 169l8 -20l-430 -159l430 -159l-8 -20z" />
    <glyph glyph-name="equal" unicode="=" horiz-adv-x="642" 
d="M83 144v21h474v-21h-474zM557 330v-21h-474v21h474z" />
    <glyph glyph-name="greater" unicode="&#x3e;" horiz-adv-x="510" 
d="M466 240v-20l-456 -169l-8 20l430 159l-430 159l8 20z" />
    <glyph glyph-name="question" unicode="?" horiz-adv-x="404" 
d="M146 48q0 25 16.5 42t41.5 17t42 -17t17 -42t-17 -41.5t-42 -16.5t-41.5 16.5t-16.5 41.5zM165 670q190 0 190 -131q0 -39 -22 -72t-53.5 -55.5t-62.5 -42.5q-75 -48 -75 -81.5t17.5 -51.5t46.5 -18q53 0 77 45l15 -10q-31 -53 -94 -53q-37 0 -61 23t-24 56t21 65.5
t45.5 56.5t45.5 60t21 81t-26.5 76.5t-83.5 31.5t-88 -27t-31 -56q0 -9 8.5 -9t9.5 9q6 26 40 26q22 0 35 -15.5t13 -38t-16.5 -38t-43 -15.5t-46 20.5t-19.5 50.5q0 56 47 84.5t114 28.5z" />
    <glyph glyph-name="at" unicode="@" horiz-adv-x="710" 
d="M516 239v-117q0 -51 40 -51q14 0 32 17.5t33.5 60t15.5 99.5q0 121 -82.5 198.5t-200.5 77.5t-199.5 -83.5t-81.5 -202.5t75.5 -197t194.5 -78q73 0 135 34l11 -20q-66 -37 -146 -37q-128 0 -210.5 84t-82.5 214t88 219.5t216.5 89.5t217 -83.5t88.5 -215.5
q0 -94 -38 -151.5t-94 -57.5q-39 0 -61 26t-22 67h-6q-14 -47 -45 -70t-83.5 -23t-90 27.5t-37.5 75.5q0 66 59 92.5t162 26.5h23v9q0 75 -11 106.5t-30 42t-61.5 10.5t-69.5 -23t-27 -50q0 -9 8 -9t10 9q6 26 40 26q22 0 35 -15.5t13 -38t-16.5 -38t-43 -15.5t-46 20.5
t-19.5 50.5q0 52 42.5 77.5t94.5 25.5t81.5 -7t48 -19.5t26.5 -40.5q14 -44 14 -143zM427 195v48h-19q-63 0 -95.5 -23.5t-32.5 -65.5t18 -65t44 -23q85 0 85 129z" />
    <glyph glyph-name="A" unicode="A" horiz-adv-x="636" 
d="M154 148q-11 -30 -11 -58.5t10.5 -43.5t33.5 -21q35 -9 93 -9h17v-16h-296v16q53 0 80.5 29.5t48.5 92.5l163 471q7 22 13 33q14 28 46 28h3l202 -654h71v-16h-256v16h74l-69 226h-191zM284 526l-92 -268h180l-82 268h-6z" />
    <glyph glyph-name="B" unicode="B" horiz-adv-x="641" 
d="M291 0h-239v16h73v618h-73v16h227q143 0 204.5 -30t61.5 -104.5t-47 -112.5t-124 -45v-6q87 -2 141 -41t54 -116q0 -195 -278 -195zM413 57q44 41 44 130t-50 123t-155 34h-23v-328h47q93 0 137 41zM388.5 394.5q44.5 34.5 44.5 110t-39.5 102.5t-121.5 27h-43v-274h28
q87 0 131.5 34.5z" />
    <glyph glyph-name="C" unicode="C" horiz-adv-x="579" 
d="M174 388v-79t6 -102t22 -99t51 -77.5t87 -27.5q84 0 131 56t54 148l18 -2q-7 -103 -65 -164t-156 -61q-128 0 -199 101.5t-71 244t74.5 243.5t200.5 101q45 0 94 -17t58 -17q29 0 34 34h12v-234h-16q-15 99 -54 157t-119 58q-95 0 -130 -81q-29 -69 -32 -182z" />
    <glyph glyph-name="D" unicode="D" horiz-adv-x="687" 
d="M311 0h-259v16h73v618h-73v16h273q152 0 231 -80t79 -241.5t-78.5 -245t-245.5 -83.5zM505 197.5q8 51.5 8 127.5t-8.5 127t-29.5 94q-42 88 -165 88h-81v-618h61q140 0 184 86q23 44 31 95.5z" />
    <glyph glyph-name="E" unicode="E" horiz-adv-x="619" 
d="M52 0v16h73v618h-73v16h481v-208h-16q0 121 -37.5 156.5t-160.5 35.5h-90v-287h53q72 0 99 27.5t27 100.5h17v-275h-17q0 74 -27 102.5t-99 28.5h-53v-315h81q76 0 117 8t67 35t34.5 67.5t12.5 118.5h16l-10 -245h-495z" />
    <glyph glyph-name="F" unicode="F" horiz-adv-x="556" 
d="M52 0v16h73v618h-73v16h476v-218h-16q0 66 -6.5 102t-28 60.5t-57.5 32t-101 7.5h-90v-297h53q72 0 99 27.5t27 100.5h17v-275h-17q0 74 -27 102.5t-99 28.5h-53v-305h83v-16h-260z" />
    <glyph glyph-name="G" unicode="G" horiz-adv-x="661" 
d="M454 284h-73v16h250v-16h-73v-276q-19 7 -46 7t-85.5 -17.5t-102.5 -17.5q-128 0 -199 101.5t-71 244t74.5 243.5t200.5 101q45 0 101 -17t65 -17q29 0 34 34h12v-219h-16q-15 91 -61 145.5t-126 54.5q-95 0 -130 -81q-29 -69 -32 -182v-79t6 -102t22 -99t51 -77.5
t90 -27.5t109 23v258z" />
    <glyph glyph-name="H" unicode="H" horiz-adv-x="733" 
d="M125 634h-73v16h260v-16h-83v-290h275v290h-73v16h260v-16h-83v-618h83v-16h-260v16h73v312h-275v-312h83v-16h-260v16h73v618z" />
    <glyph glyph-name="I" unicode="I" horiz-adv-x="354" 
d="M125 634h-73v16h260v-16h-83v-618h83v-16h-260v16h73v618z" />
    <glyph glyph-name="J" unicode="J" horiz-adv-x="369" 
d="M122 -235q-41 0 -67 28t-26 62.5t21.5 56.5t49 22t47.5 -18t20 -46t-15 -43t-37 -15q-35 0 -47 31q-4 9 -10 9q-10 0 -8 -11q4 -25 25 -41.5t54 -16.5t52.5 26.5t19.5 64.5t-30.5 91.5t-30.5 94.5v574h-83v16h260v-16h-73v-667q0 -99 -32 -150.5t-90 -51.5z" />
    <glyph glyph-name="K" unicode="K" 
d="M125 634h-73v16h260v-16h-83v-341l168 191q58 67 58 104q0 22 -14 32.5t-28.5 12t-44.5 1.5v16h259v-16q-33 0 -65.5 -18.5t-54 -39.5t-60.5 -64l-63 -71l236 -425h71v-16h-264v16h74l-186 347l-86 -97v-250h83v-16h-260v16h73v618z" />
    <glyph glyph-name="L" unicode="L" horiz-adv-x="557" 
d="M52 0v16h73v618h-73v16h270v-16h-93v-618h51q76 0 117 7.5t67 35.5t34.5 68t12.5 118h16l-10 -245h-465z" />
    <glyph glyph-name="M" unicode="M" horiz-adv-x="845" 
d="M803 650v-16h-83v-618h83v-16h-260v16h73v572h-6l-193 -579h-4q-29 0 -45.5 21t-30.5 60l-187 498h-5v-445q0 -73 27.5 -100t100.5 -27h7v-16h-286v16q73 0 102 27.5t29 99.5v451q-2 24 -18.5 32.5t-46.5 8.5h-45v15h227l191 -514h6l171 514h193z" />
    <glyph glyph-name="N" unicode="N" horiz-adv-x="662" 
d="M537 507v-514h-16q-33 0 -53.5 21t-54.5 80l-264 454h-4v-405q0 -73 27.5 -100t100.5 -27h7v-16h-286v16q73 0 102 27.5t29 99.5v446q-27 46 -105 46v15h104q48 0 72.5 -16.5t49.5 -58.5l265 -455h6v387q0 73 -27.5 100t-100.5 27h-7v16h286v-16q-73 0 -102 -27.5
t-29 -99.5z" />
    <glyph glyph-name="O" unicode="O" 
d="M335 -20q-134 0 -208.5 100.5t-74.5 245.5t76 244.5t207 99.5t207 -99.5t76 -244.5t-74.5 -245.5t-208.5 -100.5zM269 11.5q28 -12.5 65.5 -12.5t65 13t44.5 39t28 54.5t16 70.5t6.5 74t1.5 78t-1.5 77.5t-6.5 73t-16 69t-28 53t-44.5 38t-64.5 12.5t-64.5 -12.5
t-44.5 -38t-28 -53t-16 -69.5q-8 -66 -8 -132.5t1 -97t5.5 -74t15.5 -70.5t28 -53.5t45 -39z" />
    <glyph glyph-name="P" unicode="P" horiz-adv-x="576" 
d="M125 634h-73v16h258q106 0 169 -29q76 -35 76 -139q0 -199 -254 -199h-72v-267h83v-16h-260v16h73v618zM407.5 342q35.5 43 35.5 132.5t-38 124.5t-126 35h-50v-335h58q85 0 120.5 43z" />
    <glyph glyph-name="Q" unicode="Q" 
d="M269 11.5q28 -12.5 65.5 -12.5t65 13t44.5 39t28 54.5t16 70.5t6.5 74t1.5 78t-1.5 77.5t-6.5 73t-16 69t-28 53t-44.5 38t-64.5 12.5t-64.5 -12.5t-44.5 -38t-28 -53t-16 -69.5q-8 -66 -8 -132.5t1 -97t5.5 -74t15.5 -70.5t28 -53.5t45 -39zM438.5 -185q38.5 -24 73 -24
t60 16.5t29.5 47.5q2 11 -8 11q-7 0 -10 -8q-12 -32 -47 -32q-22 0 -37 15t-15 43t20 46t47.5 18t49 -22t21.5 -59t-31 -65.5t-78.5 -28.5t-97 22.5l-94 44.5t-73 22t-43 -11t-14.5 -31.5t23 -46.5l-14 -11q-43 48 -43 101t36 81.5t97 33.5v5q-113 17 -175.5 114
t-62.5 235.5t76 238t207 99.5t207 -99.5t76 -242.5q0 -108 -43.5 -197.5t-130.5 -128.5q-54 -24 -126 -33.5t-78 -21.5v-3q30 0 66 -24t65 -52.5t67.5 -52.5z" />
    <glyph glyph-name="R" unicode="R" horiz-adv-x="667" 
d="M520 -10q-36 0 -58 30t-22 89v66q0 85 -33.5 120t-105.5 35h-72v-314h83v-16h-260v16h73v618h-73v16h241q151 0 204 -34q23 -14 39 -41.5t16 -66.5q0 -68 -40 -112.5t-117 -54.5v-5q92 0 121.5 -44t29.5 -150v-46q0 -36 5 -49.5t17.5 -13.5t26 20t22.5 60l18 -4
q-24 -119 -115 -119zM408.5 378.5q31.5 32.5 31.5 119t-36.5 111.5t-124.5 25h-50v-288h64q84 0 115.5 32.5z" />
    <glyph glyph-name="S" unicode="S" horiz-adv-x="504" 
d="M260 -1q62 0 98 37t36 93.5t-36 90.5t-87 54.5t-102 43.5t-87 66t-36 106q0 85 50 132.5t136 47.5q45 0 101 -17t65 -17q29 0 34 34h12v-219h-16q-15 91 -61 145.5t-126 54.5q-54 0 -86.5 -31.5t-32.5 -84t36 -86.5t87 -54.5t102 -43.5t87 -66t36 -106q0 -89 -63 -144
t-157 -55q-46 0 -97.5 17t-60.5 17q-29 0 -34 -34h-12l-10 245h16q30 -226 208 -226z" />
    <glyph glyph-name="T" unicode="T" horiz-adv-x="536" 
d="M143 0v16h73v618q-92 0 -136 -30q-36 -23 -49 -104q-5 -32 -8 -88h-16l10 238h502l10 -238h-16q-5 99 -20.5 139t-36.5 53q-44 30 -136 30v-618h83v-16h-260z" />
    <glyph glyph-name="U" unicode="U" horiz-adv-x="679" 
d="M116 634h-73v16h260v-16h-83v-326q0 -140 14 -190q17 -61 47 -84q41 -31 91 -31t80 17t47 43.5t27 66.5q16 65 16 163v214q0 73 -27.5 100t-100.5 27h-7v16h286v-16q-73 0 -102 -27.5t-29 -99.5v-179q0 -152 -20 -216q-22 -67 -60 -96q-47 -36 -119 -36t-120.5 23.5
t-76.5 69.5q-50 84 -50 235v326z" />
    <glyph glyph-name="V" unicode="V" horiz-adv-x="497" 
d="M426 507q9 25 9 52t-11 42.5t-33 22.5q-36 10 -93 10h-17v16h296v-16q-53 0 -80.5 -29.5t-48.5 -92.5l-163 -471q-7 -22 -13 -33q-14 -28 -46 -28h-3l-202 654h-71v16h260v-16h-74l150 -516h6z" />
    <glyph glyph-name="W" unicode="W" horiz-adv-x="812" 
d="M751 507q9 26 9 52.5t-11 42t-33 22.5q-36 10 -93 10h-17v16h296v-16q-53 0 -80.5 -29.5t-48.5 -92.5l-157 -471q-7 -22 -12 -33q-15 -28 -47 -28h-3l-139 450l-130 -389q-7 -22 -13 -33q-14 -28 -46 -28h-3l-202 654h-71v16h260v-16h-74l150 -516h6l113 344l-53 172h-71
v16h260v-16h-74l150 -516h6z" />
    <glyph glyph-name="X" unicode="X" horiz-adv-x="673" 
d="M644 649v-16q-47 -2 -79 -19.5t-55 -62.5l-107 -208l201 -327h83v-16h-272v16h73l-199 322l-98 -183q-25 -48 -25 -82t24.5 -45.5t71.5 -11.5h8v-16h-260v16q47 2 79 19.5t55 62.5l134 260l-170 276h-73v16h272v-16h-83l168 -273l71 133q25 48 25 82t-24.5 45.5
t-71.5 11.5h-8v16h260z" />
    <glyph glyph-name="Y" unicode="Y" horiz-adv-x="598" 
d="M612 649v-16q-47 -2 -79 -19.5t-55 -62.5l-121 -240v-295h83v-16h-260v16h73v285l-179 333h-73v16h268v-16h-83l160 -303l84 163q26 52 26 84t-24.5 43.5t-71.5 11.5h-8v16h260z" />
    <glyph glyph-name="Z" unicode="Z" horiz-adv-x="524" 
d="M500 650v-16l-370 -618h133q76 0 117 8t67 35t34.5 67.5t12.5 118.5h16l-10 -245h-486v16l370 618h-134q-65 0 -101 -7.5t-57.5 -32t-28 -60.5t-6.5 -102h-16v218h459z" />
    <glyph glyph-name="bracketleft" unicode="[" horiz-adv-x="306" 
d="M306 650v-16h-116v-793h116v-16h-220v825h220z" />
    <glyph glyph-name="backslash" unicode="\" horiz-adv-x="295" 
d="M-30 713l292 -827h-22l-291 827h21z" />
    <glyph glyph-name="bracketright" unicode="]" horiz-adv-x="306" 
d="M0 634v16h220v-825h-220v16h116v793h-116z" />
    <glyph glyph-name="asciicircum" unicode="^" horiz-adv-x="477" 
d="M431 148l-16 -9l-157 297l-157 -297l-15 10l166 320h11z" />
    <glyph glyph-name="underscore" unicode="_" horiz-adv-x="438" 
d="M468 -194v-21h-494v21h494z" />
    <glyph glyph-name="grave" unicode="`" horiz-adv-x="352" 
d="M46 647q0 15 9.5 24t29 9t41.5 -27q4 -8 13 -17t16.5 -18t13 -13.5t14.5 -13t17 -14.5l19 -14q17 -12 48 -29l-7 -15l-180 84q-34 15 -34 44z" />
    <glyph glyph-name="a" unicode="a" horiz-adv-x="525" 
d="M241 480q119 0 157.5 -53.5t38.5 -186.5v-177q0 -41 18 -41q37 0 49 115l18 -2q-15 -155 -101 -155q-25 0 -38.5 18t-17 39.5t-3.5 53.5h-6q-13 -53 -53 -82t-102.5 -29t-109.5 33.5t-47 96.5q0 47 27 78q56 64 254 64h23v49q0 79 -27 119t-93.5 40t-97.5 -27t-31 -56
q0 -9 8.5 -9t9.5 9q6 26 40 26q22 0 35 -15.5t13 -38t-16.5 -38t-43 -15.5t-46 20.5t-19.5 50.5q0 56 47 84.5t114 28.5zM348 167v67h-31.5t-51 -3t-60.5 -15q-64 -23 -64 -102q0 -48 23 -77t74 -29t80.5 46t29.5 113z" />
    <glyph glyph-name="b" unicode="b" horiz-adv-x="570" 
d="M193 369h6q18 51 53.5 81t84.5 30q90 0 133.5 -70.5t43.5 -178.5t-45 -179.5t-138 -71.5t-132 82h-6v-62h-155v15h66v660h-71v15h21q78 0 139 13v-334zM191 231v-36q0 -78 30 -132.5t94 -54.5q69 0 87 78q15 63 15 126t-3.5 96t-13 68.5t-32 55.5t-54 20t-56 -22.5
t-38.5 -57.5q-29 -71 -29 -141z" />
    <glyph glyph-name="c" unicode="c" horiz-adv-x="459" 
d="M289 460q-136 0 -136 -226t138 -226q52 0 85.5 38t46.5 98l18 -2q-15 -73 -60 -117.5t-114 -44.5q-103 0 -157 69.5t-54 182.5t54.5 180.5t162.5 67.5q69 0 112 -30t43 -91q0 -30 -19.5 -50.5t-46 -20.5t-43 15.5t-16.5 38t13 38t35 15.5q34 0 40 -26q1 -9 9.5 -9t8.5 9
q0 34 -30.5 62.5t-89.5 28.5z" />
    <glyph glyph-name="d" unicode="d" horiz-adv-x="565" 
d="M532 0h-155v91h-6q-18 -51 -53.5 -81t-84.5 -30q-90 0 -133.5 70.5t-43.5 178.5t45 179.5t138 71.5t132 -82h6v277h-71v15h21q78 0 139 13v-688h66v-15zM379 229v36q0 78 -30 132.5t-94 54.5q-69 0 -87 -78q-15 -63 -15 -126t3.5 -96t13 -68.5t32 -55.5t54 -20t56 22.5
t38.5 57.5q29 71 29 141z" />
    <glyph glyph-name="e" unicode="e" horiz-adv-x="490" 
d="M276 480q75 0 125.5 -32t50.5 -96q0 -99 -113 -122q-57 -11 -142 -11h-47v-29q0 -81 33.5 -131.5t98 -50.5t101 38t51.5 98l18 -2q-16 -73 -64.5 -117.5t-122.5 -44.5q-104 0 -158 68.5t-54 181.5t58 181.5t165 68.5zM150 237h35q81 0 113.5 16t44.5 39.5t12 66.5
t-21.5 73.5t-65.5 30.5t-71.5 -31.5t-37 -73.5t-9.5 -93v-28z" />
    <glyph glyph-name="f" unicode="f" horiz-adv-x="311" 
d="M276 606q13 0 13 25t-18 43t-51.5 18t-54 -26t-20.5 -65t24.5 -77t27.5 -64h93v-15h-92v-430h66v-15h-221v15h66v430h-71v15h71v68q0 182 116 182q35 0 58.5 -23.5t23.5 -55.5t-20 -55t-47 -23t-43.5 15.5t-16.5 38t13 38t33.5 15.5t31.5 -10t11 -25l-1 -11q0 -8 8 -8z
" />
    <glyph glyph-name="g" unicode="g" horiz-adv-x="512" 
d="M388 598q-23 0 -40.5 -18t-17.5 -47q0 -52 47 -87q83 -62 83 -168q0 -88 -55.5 -145.5t-141.5 -57.5q-41 0 -75 14q-37 -11 -65.5 -32t-28.5 -49q0 -48 67 -48q30 0 108 29.5t116.5 29.5t64.5 -26.5t26 -72.5q0 -72 -56 -113.5t-126 -41.5q-137 0 -183 115q-65 14 -65 90
q0 44 35 77t87 51q-48 25 -75 72.5t-27 107.5q0 88 55.5 145t141.5 57q33 0 71 -12l2 2q-24 27 -24 64t24.5 60t58.5 23t54.5 -19t20.5 -45t-15.5 -42.5t-38 -16.5t-38 13.5t-15.5 34.5q0 32 26 38q9 2 9 10t-10 8zM368 278q0 41 -3.5 69.5t-13.5 57.5t-32 44t-56 15
t-56 -15t-32 -44t-13.5 -57.5t-3.5 -69.5t3.5 -70t13.5 -58t32 -44t56 -15t56 15t32 44t13.5 58t3.5 70zM134 -122h-1q14 -45 57 -71t96.5 -26t97.5 25t44 72q0 27 -17.5 42.5t-46 15.5t-114.5 -29t-116 -29z" />
    <glyph glyph-name="h" unicode="h" horiz-adv-x="588" 
d="M261 15v-15h-221v15h66v660h-71v15h21q79 0 141 13v-330h6q17 48 57.5 77.5t90.5 29.5q87 0 119 -51.5t32 -153.5v-260h66v-15h-221v15h66v246q0 113 -17 149q-8 16 -24.5 29t-48.5 13t-60.5 -23t-42.5 -63q-25 -71 -25 -170v-181h66z" />
    <glyph glyph-name="i" unicode="i" horiz-adv-x="296" 
d="M197 15h66v-15h-221v15h66v430h-71v15h21q78 0 139 13v-458zM91 611q0 25 16.5 42t41.5 17t42 -17t17 -42t-17 -41.5t-42 -16.5t-41.5 16.5t-16.5 41.5z" />
    <glyph glyph-name="j" unicode="j" horiz-adv-x="287" 
d="M92 611q0 25 16.5 42t41.5 17t42 -17t17 -42t-17 -41.5t-42 -16.5t-41.5 16.5t-16.5 41.5zM32 -131q-13 0 -13 -26t20.5 -43t50.5 -17q76 0 76 95q0 35 -26.5 81t-26.5 81v405h-71v15h21q78 0 139 13v-526q0 -182 -112 -182q-38 0 -63.5 23t-25.5 55.5t20 55.5t47 23
t43.5 -15.5t16.5 -38t-13 -38t-33.5 -15.5t-31.5 10t-11 25l1 11q0 8 -8 8z" />
    <glyph glyph-name="k" unicode="k" horiz-adv-x="492" 
d="M257 262l-64 -11v-236h66v-15h-221v15h66v660h-71v15h21q78 0 139 13v-435q198 26 198 128q0 30 -15.5 48t-38.5 18q-10 0 -10 -8t9 -10q26 -6 26 -39q0 -21 -15.5 -34.5t-38 -13.5t-38 16.5t-15.5 42.5t20.5 45t54.5 19t56 -22.5t22 -61.5q0 -83 -104 -120v-2
q78 -4 102 -41t24 -121v-38q0 -38 6.5 -54.5t24.5 -16.5q7 0 18 3l2 -12q-26 -7 -54 -7q-86 0 -86 99v54q0 122 -78 122h-6z" />
    <glyph glyph-name="l" unicode="l" horiz-adv-x="291" 
d="M195 15h66v-15h-221v15h66v660h-71v15h21q78 0 139 13v-688z" />
    <glyph glyph-name="m" unicode="m" horiz-adv-x="870" 
d="M261 15v-15h-221v15h66v430h-71v15h21q79 0 141 13v-100h6q17 48 56 77.5t89 29.5q119 0 141 -107h6q17 48 56 77.5t89 29.5q86 0 115 -50t29 -155v-260h66v-15h-221v15h66v283q0 114 -33 142q-16 12 -41 12q-134 0 -134 -256v-181h66v-15h-216v15h66v283q0 114 -33 142
q-16 12 -41 12q-134 0 -134 -256v-181h66z" />
    <glyph glyph-name="n" unicode="n" horiz-adv-x="588" 
d="M261 15v-15h-221v15h66v430h-71v15h21q79 0 141 13v-100h6q17 48 57.5 77.5t90.5 29.5q87 0 119 -51.5t32 -153.5v-260h66v-15h-221v15h66v246q0 113 -17 149q-8 16 -24.5 29t-48.5 13t-60.5 -23t-42.5 -63q-25 -71 -25 -170v-181h66z" />
    <glyph glyph-name="o" unicode="o" horiz-adv-x="546" 
d="M273 -20q-104 0 -162 70t-58 180t58 180t162 70t162 -70t58 -180t-58 -180t-162 -70zM396 230q0 38 -2 67t-9.5 62t-20 54.5t-36 35.5t-55.5 14t-55.5 -14t-36 -35.5t-20 -54.5t-9.5 -62t-2 -67t2 -67t9.5 -62t20 -54.5t36 -35.5t55.5 -14t55.5 14t36 35.5t20 54.5
t9.5 62t2 67z" />
    <glyph glyph-name="p" unicode="p" horiz-adv-x="567" 
d="M190 -200h66v-15h-221v15h66v645h-71v15h21q78 0 139 13v-104h6q18 51 53.5 81t84.5 30q90 0 133.5 -70.5t43.5 -178.5t-45 -179.5t-138 -71.5t-132 82h-6v-262zM188 231v-36q0 -78 30 -132.5t94 -54.5q69 0 87 78q15 63 15 126t-3.5 96t-13 68.5t-32 55.5t-54 20
t-56 -22.5t-38.5 -57.5q-29 -71 -29 -141z" />
    <glyph glyph-name="q" unicode="q" horiz-adv-x="567" 
d="M311 -200h66v291h-6q-18 -51 -53.5 -81t-84.5 -30q-90 0 -133.5 70.5t-43.5 178.5t45 179.5t138 71.5t132 -82h6v75q61 -13 139 -13h21v-15h-71v-645h66v-15h-221v15zM379 229v36q0 78 -30 132.5t-94 54.5q-69 0 -87 -78q-15 -63 -15 -126t3.5 -96t13 -68.5t32 -55.5
t54 -20t56 22.5t38.5 57.5q29 71 29 141z" />
    <glyph glyph-name="r" unicode="r" horiz-adv-x="408" 
d="M396 404q0 26 -19 43t-51 17t-59.5 -25.5t-42.5 -66.5q-27 -79 -27 -171v-186h73v-15h-228v15h66v430h-71v15h21q80 0 141 13v-104h6q42 111 126 111q37 0 60.5 -23.5t23.5 -58t-19.5 -55t-46 -20.5t-43 15.5t-16.5 38t13 38t35 15.5q34 0 40 -26q2 -9 10 -9t8 9z" />
    <glyph glyph-name="s" unicode="s" horiz-adv-x="475" 
d="M250 480q152 0 152 -103q0 -30 -19.5 -50.5t-46 -20.5t-43 15.5t-16.5 38t13 38t35 15.5q34 0 40 -26q1 -9 9.5 -9t8.5 9q0 28 -27.5 50.5t-84 22.5t-93 -21t-36.5 -58.5t29 -60.5t70 -38l82.5 -31.5t70.5 -47.5t29 -75q0 -75 -53.5 -111.5t-132.5 -36.5t-127 28t-48 85
q0 30 19.5 50.5t46 20.5t43 -15.5t16.5 -38t-13 -38t-35 -15.5q-34 0 -40 26q-1 9 -9.5 9t-8.5 -9q0 -30 33.5 -56.5t99.5 -26.5q145 0 145 94q0 58 -99 94q-42 15 -83 31.5t-70 47.5t-29 75q0 64 50.5 101t121.5 37z" />
    <glyph glyph-name="t" unicode="t" horiz-adv-x="329" 
d="M195 445v-340q0 -84 11 -93q6 -5 16 -5q25 0 48.5 29t38.5 63l16 -6q-19 -48 -51 -80.5t-74 -32.5q-59 0 -76.5 35.5t-17.5 111.5v318h-71v15h7q115 0 140 132h13v-132h121v-15h-121z" />
    <glyph glyph-name="u" unicode="u" horiz-adv-x="599" 
d="M406 445h-71v15h21q78 0 139 13v-458h66v-15h-157v87h-6q-17 -48 -57.5 -77.5t-90.5 -29.5q-85 0 -114.5 51t-29.5 154v260h-71v15h21q78 0 139 13v-274q0 -94 7 -118t15 -41q16 -32 54.5 -32t67 23t42.5 63q25 71 25 170v181z" />
    <glyph glyph-name="v" unicode="v" horiz-adv-x="505" 
d="M238 61.5q26 -36.5 59.5 -36.5t67 44.5t55 114t21.5 136.5q0 142 -79 142q-10 0 -10 -8t9 -10q28 -6 27.5 -32.5t-15 -39.5t-38 -13t-39 16t-15.5 42t21 44.5t51 18.5q106 0 106 -156q0 -82 -26.5 -161.5t-72 -131t-96.5 -51.5q-85 0 -134.5 112t-49.5 297v56h-71v15h21
q79 0 141 13v-61q0 -141 27 -255q14 -59 40 -95.5z" />
    <glyph glyph-name="w" unicode="w" horiz-adv-x="799" 
d="M595 25q50 0 93 95t43 200q0 144 -78 144q-10 0 -10 -8t9 -10q27 -5 27 -40q-1 -21 -15.5 -34t-38 -13t-39 16t-15.5 42t21 44.5t51 18.5q106 0 106 -156q0 -128 -56 -236t-132 -108q-97 0 -148 146q-27 -66 -66 -106t-83 -40q-85 0 -134.5 112t-49.5 297v56h-71v15h21
q79 0 141 13v-61q0 -141 27 -255q14 -59 40 -95.5t57.5 -36.5t60 35.5t48.5 92.5q-27 98 -27 236v56h-71v15h21q79 0 141 13v-61q0 -141 27 -255q14 -59 40 -95.5t60 -36.5z" />
    <glyph glyph-name="x" unicode="x" horiz-adv-x="480" 
d="M317 441q27 35 62.5 35t56 -19t20.5 -45t-15.5 -42.5t-38 -16.5t-38 13.5t-15.5 32.5t8.5 28.5t17.5 14t9 8.5q0 9 -10 9q-27 0 -52 -40.5t-55 -114.5l99 -222q23 -53 52 -53q25 0 39 47l16 -5q-7 -36 -30.5 -60t-55.5 -24q-67 0 -108 91l-53 119q-53 -130 -74 -161
q-34 -52 -80 -52q-30 0 -50.5 19t-20.5 45t15.5 42.5t38 16.5t38 -13.5t15.5 -32.5t-9 -28.5t-17.5 -14t-8.5 -8.5q0 -9 10 -9q44 0 122 196q7 16 10 24l-69 157q-23 53 -52 53q-25 0 -39 -47l-16 5q7 36 30.5 60t55.5 24q67 0 108 -91l24 -55q33 79 60 114z" />
    <glyph glyph-name="y" unicode="y" horiz-adv-x="480" 
d="M268 -233q-50 0 -80 35.5t-30 91.5q0 85 88 149l-1 4q-68 4 -119 93t-51 249v56h-71v15h21q79 0 141 13v-61q0 -141 33.5 -227.5t96.5 -86.5q45 0 94 68t49 154q0 49 -14 86.5t-44 49.5q-10 5 -23 5t-13 -8.5t9 -9.5q27 -5 26 -34q0 -56 -52 -56q-24 0 -39.5 17
t-15.5 44.5t22 46.5t53 19q56 0 82.5 -44t26.5 -112q0 -161 -132 -249q-2 -2 -21 -14t-23.5 -15.5t-21.5 -15.5t-22.5 -18t-18.5 -18.5t-18 -21.5l-12 -22q-12 -22 -12 -62.5t25 -71t56 -30.5q10 0 10 8t-9 10q-26 6 -26 40q0 21 15.5 34.5t38 13.5t38 -16.5t15.5 -42.5
t-21 -46t-50 -20z" />
    <glyph glyph-name="z" unicode="z" horiz-adv-x="460" 
d="M84 457q32 23 75.5 23t103 -10.5t93.5 -10.5t62 7l4 -7l-277 -444h1q124 -19 166.5 -19t75.5 18.5t33 58.5q0 9 -8.5 9t-9.5 -9q-6 -26 -40 -26q-22 0 -35 15.5t-13 38t16.5 38t43 15.5t46 -20.5t19.5 -50.5q0 -53 -37.5 -78t-85.5 -25t-115 10.5t-101 10.5t-62 -7l-4 7
l276 444q-123 19 -154 19t-58.5 -16.5t-27.5 -50.5q0 -9 8.5 -9t9.5 9q6 26 40 26q22 0 35 -15.5t13 -38t-16.5 -38t-43 -15.5t-46 20.5t-19.5 50.5q0 47 32 70z" />
    <glyph glyph-name="braceleft" unicode="{" horiz-adv-x="224" 
d="M130 204q13 -23 13 -55t-23 -96.5t-23 -114.5q0 -113 77 -132q20 -5 50 -5v-16q-100 0 -162 48t-62 142q0 69 40 110q16 17 32 31q40 35 40 64q0 50 -75 50v15q75 0 75 50q0 35 -56 79q-21 16 -38.5 49.5t-17.5 77.5q0 94 62 141.5t162 47.5v-16q-30 0 -50 -5
q-77 -18 -77 -126q0 -55 23 -120t23 -97t-13 -55t-48 -33v-1q35 -10 48 -33z" />
    <glyph glyph-name="bar" unicode="|" horiz-adv-x="362" 
d="M192 719v-924h-22v924h22z" />
    <glyph glyph-name="braceright" unicode="}" horiz-adv-x="224" 
d="M94 271q-13 23 -13 55t23 96.5t23 115.5q0 112 -77 131q-20 5 -50 5v16q100 0 162 -48t62 -142q0 -69 -40 -110q-16 -17 -32 -32q-40 -34 -40 -63q0 -50 75 -50v-15q-75 0 -75 -50q0 -34 56 -78q21 -17 38.5 -50.5t17.5 -77.5q0 -94 -62 -141.5t-162 -47.5v16q30 0 50 5
q77 18 77 126q0 55 -23 120t-23 97t13 55t48 33v1q-35 10 -48 33z" />
    <glyph glyph-name="asciitilde" unicode="~" horiz-adv-x="586" 
d="M466 239.5q-25 -9.5 -62 -9.5t-110.5 22t-104.5 22q-62 0 -129 -47l-8 16q75 49 139 49q38 0 107.5 -22t107.5 -22q62 0 114 42l12 -14q-41 -27 -66 -36.5z" />
    <glyph glyph-name="DEL" horiz-adv-x="0" 
 />
    <glyph glyph-name="nbspace" unicode="&#xa0;" horiz-adv-x="220" 
 />
    <glyph glyph-name="exclamdown" unicode="&#xa1;" horiz-adv-x="281" 
d="M82 422q0 25 16.5 41.5t41.5 16.5t42 -16.5t17 -41.5t-17 -42t-42 -17t-41.5 17t-16.5 42zM133 270h16q0 -170 37 -335q13 -55 13 -78t-15 -40t-43 -17t-43 17t-15 40t13 78q37 165 37 335z" />
    <glyph glyph-name="cent" unicode="&#xa2;" horiz-adv-x="481" 
d="M289 -62h-20v85h-2q-99 0 -155 64t-56 166.5t55.5 164t157.5 62.5v90h20v-91q62 -3 100.5 -33t38.5 -87q0 -30 -19.5 -50.5t-46 -20.5t-43 15.5t-16.5 38t13 38t35 15.5q34 0 40 -26q1 -9 9.5 -9t8.5 9q0 34 -30.5 62.5t-85 28.5t-86 -30t-43 -72.5t-11.5 -99.5
q0 -91 32 -149t106 -58q52 0 85.5 38t46.5 98l18 -2q-14 -68 -53 -111t-99 -50v-86z" />
    <glyph glyph-name="sterling" unicode="&#xa3;" horiz-adv-x="479" 
d="M254 122l-1 -15q47 -20 79 -20q81 0 88 75h18v-28.5t-6 -51.5t-32 -62t-68 -30q-61 0 -112 53q-42 -42 -105 -42q-36 0 -65.5 19.5t-29.5 52.5t28 54.5t70 21.5t87 -21q-7 27 -23 44q-33 38 -60 60h-74v21h54q-46 51 -46 117t57.5 103t133.5 37t119.5 -31.5t43.5 -89.5
q0 -30 -18 -49.5t-45.5 -19.5t-45 15.5t-17.5 39t13.5 38t35.5 14.5q34 0 40 -28q1 -9 9.5 -9t8.5 9q0 34 -30.5 62.5t-85.5 28.5t-83.5 -32.5t-28.5 -90t37 -114.5h144v-21h-130q40 -61 40 -110zM114 19q62 0 85 46q-46 48 -95 48q-28 0 -43 -14.5t-15 -33.5t18 -32.5
t50 -13.5z" />
    <glyph glyph-name="currency" unicode="&#xa4;" horiz-adv-x="542" 
d="M431 381q58 -58 58 -150.5t-58 -152.5l82 -82l-15 -16l-83 84q-60 -48 -144.5 -48t-143.5 48l-83 -84l-15 16l82 82q-58 60 -58 152.5t58 150.5l-82 83l15 16l83 -84q59 48 143.5 48t144.5 -48l83 84l15 -16zM394 230q0 197 -123 197t-123 -197t123 -197t123 197z" />
    <glyph glyph-name="yen" unicode="&#xa5;" horiz-adv-x="479" 
d="M479 480v-16q-36 0 -46.5 -5t-15 -6.5t-11.5 -11.5t-9 -14l-10 -20.5l-12 -24.5l-91 -180h114v-16h-116v-44h116v-16h-116v-111h53v-15h-195v15h53v111h-118v16h118v44h-118v16h109l-141 262h-43v16h206v-16h-63l129 -245l55 106l12 23.5l16 31.5q18 36 18 52.5t-14 24
t-52 7.5h-28v16h200z" />
    <glyph glyph-name="brokenbar" unicode="&#xa6;" horiz-adv-x="221" 
d="M122 -120h-22v352h22v-352zM122 367h-22v352h22v-352z" />
    <glyph glyph-name="section" unicode="&#xa7;" horiz-adv-x="631" 
d="M71 268q0 103 116 144q-66 52 -66 131.5t50 123t129 43.5t132 -29t53 -86q0 -30 -19.5 -50.5t-46 -20.5t-43 15.5t-16.5 38t13 38t35 15.5q34 0 40 -26q2 -9 10 -9t8 9q0 29 -39.5 57.5t-102 28.5t-95 -28.5t-32.5 -76.5t36 -81.5t87 -55t102 -45.5t87 -67.5t36 -107.5
q0 -117 -97 -163q47 -52 47 -122q0 -89 -60 -134t-163 -45q-70 0 -122.5 32.5t-52.5 90.5q0 30 19.5 50.5t46 20.5t43 -15.5t16.5 -38t-13 -38t-35 -15.5q-34 0 -40 26q-2 9 -10 9t-8 -9q2 -33 38 -63t105.5 -30t114.5 31t45 83.5t-36 86.5t-87 56.5t-102 47.5t-87 69.5
t-36 108.5zM147 304q0 -52 43.5 -85.5t119.5 -67t111 -60.5q48 34 48 94q0 44 -28 77t-62.5 50l-88.5 42t-83 44q-60 -25 -60 -94z" />
    <glyph glyph-name="dieresis" unicode="&#xa8;" horiz-adv-x="420" 
d="M239 611q0 25 18 42.5t43 17.5t42.5 -17.5t17.5 -42.5t-17.5 -43t-42.5 -18t-43 18t-18 43zM60 611q0 25 17.5 42.5t42.5 17.5t43 -17.5t18 -42.5t-18 -43t-43 -18t-42.5 18t-17.5 43z" />
    <glyph glyph-name="copyright" unicode="&#xa9;" horiz-adv-x="699" 
d="M365 -83q-131 0 -223 92.5t-92 223t92 223t220 92.5t207.5 -80t79.5 -197q0 -94 -67 -167.5t-180.5 -73.5t-170 55t-56.5 149.5t55 150t151 55.5q66 0 110.5 -32t44.5 -89q0 -30 -19.5 -50.5t-46 -20.5t-43 15.5t-16.5 38t13 38t35 15.5q34 0 40 -26q1 -9 9.5 -9t8.5 9
q0 32 -33 61.5t-93 29.5t-90 -49t-30 -130t37 -132t115.5 -51t140 61t61.5 161.5t-73.5 171.5t-190 71t-202 -85t-85.5 -205.5t85.5 -206t205.5 -85.5q65 0 126 29l12 -22q-65 -31 -138 -31z" />
    <glyph glyph-name="ordfeminine" unicode="&#xaa;" horiz-adv-x="340" 
d="M37 219v21h233v-21h-233zM138 597q70 0 97 -27t27 -102v-112q0 -24 10 -24q8 0 15 19t9 43l14 -1q-8 -93 -57 -93q-44 0 -46 78h-4q-8 -40 -28 -59t-60 -19q-85 0 -85 77q0 89 147 89h13v23q0 50 -12 72t-50.5 22t-55.5 -16t-17 -29t6 -13t6 8q3 27 30 27q15 0 23.5 -10
t8.5 -27t-13 -27.5t-30.5 -10.5t-30.5 12t-13 31q0 34 28 51.5t68 17.5zM190 412v41h-4q-40 0 -59.5 -21t-19.5 -52q0 -59 33 -59q50 0 50 91z" />
    <glyph glyph-name="guillemotleft" unicode="&#xab;" horiz-adv-x="313" 
d="M5 237l129 172l17 -13l-119 -159l119 -159l-17 -13zM117 237l129 172l17 -13l-119 -159l119 -159l-17 -13z" />
    <glyph glyph-name="logicalnot" unicode="&#xac;" horiz-adv-x="513" 
d="M34 242v21h444v-167h-22v146h-422z" />
    <glyph glyph-name="registered" unicode="&#xae;" horiz-adv-x="710" 
d="M530 65q37 0 72 49.5t35 133.5q0 121 -82.5 198.5t-200.5 77.5t-199.5 -83.5t-81.5 -202.5t75.5 -197t194.5 -78q73 0 135 34l11 -20q-66 -37 -146 -37q-128 0 -210.5 84t-82.5 214t88 219.5t216.5 89.5t217 -83.5t88.5 -215.5q0 -96 -45 -155t-117 -59q-34 0 -52.5 22.5
t-18.5 62.5v31q0 52 -19.5 71.5t-64.5 19.5h-25v-183h53v-18h-184v18h45v369h-45v18h197q134 0 134 -89q0 -42 -25 -69.5t-73 -33.5v-4q51 0 73.5 -29t22.5 -91v-37q0 -27 14 -27zM407 278.5q22 19.5 22 66.5t-15 64.5t-62 17.5h-34v-168h19q48 0 70 19.5z" />
    <glyph glyph-name="macron" unicode="&#xaf;" horiz-adv-x="283" 
d="M2 570v19h279v-19h-279z" />
    <glyph glyph-name="degree" unicode="&#xb0;" horiz-adv-x="280" 
d="M24 552q0 48 34 82t82 34t82 -34t34 -82t-34 -82t-82 -34t-82 34t-34 82zM55 552q0 -35 25 -60t60 -25t60 25t25 60t-25 60t-60 25t-60 -25t-25 -60z" />
    <glyph glyph-name="plusminus" unicode="&#xb1;" horiz-adv-x="615" 
d="M83 276v21h227v177h20v-177h227v-21h-227v-176h-20v176h-227zM557 51v-21h-474v21h474z" />
    <glyph glyph-name="twosuperior" unicode="&#xb2;" horiz-adv-x="330" 
d="M71.5 632q31.5 24 87.5 24t97.5 -24t41.5 -70t-26 -75.5t-62.5 -46t-73 -31t-62.5 -36.5t-26 -52l7 -2q9 14 15.5 20.5t28 14t53.5 7.5h114q30 0 31 35h13v-105h-280v30q0 53 68 95l58 36q68 43 68 100q0 40 -21 63t-62 23t-62 -20t-21 -45q0 -10 8 -10t10 9q4 25 32 25
q18 0 27.5 -12t9.5 -30.5t-14 -31.5t-37.5 -13t-38.5 16t-15 39q0 43 31.5 67zM48 227v21h233v-21h-233z" />
    <glyph glyph-name="threesuperior" unicode="&#xb3;" horiz-adv-x="309" 
d="M181 623q-20 16 -50 16t-53 -16t-23 -36q0 -9 8 -9q4 0 10 14.5t26.5 14.5t30 -11.5t9.5 -29.5t-13.5 -31t-37 -13t-37 15.5t-13.5 37.5q0 39 32.5 60t83.5 21q121 0 121 -78q0 -34 -28 -53t-81 -33l1 -5h9q51 0 82 -22t31 -70.5t-43.5 -80t-91.5 -31.5t-83 20.5
t-35 61.5q0 27 17.5 43.5t41 16.5t36 -14t12.5 -32t-10 -30.5t-33.5 -12.5t-28.5 25q-1 9 -9.5 9t-8.5 -9q0 -22 23.5 -40.5t59.5 -18.5q79 0 79 85.5t-74 85.5q-20 0 -54 -14l-6 16l21 8t23.5 9.5l21.5 10.5t21.5 13.5t15.5 15.5q17 17 17 46t-20 45zM51 227v21h233v-21
h-233z" />
    <glyph glyph-name="acute" unicode="&#xb4;" horiz-adv-x="328" 
d="M187 653q23 27 42 27t28.5 -9t9.5 -24q0 -29 -34 -44l-180 -84l-7 15q47 25 66.5 42l25 21.5t15.5 16t12 13.5t12 14z" />
    <glyph glyph-name="mu" unicode="&#xb5;" horiz-adv-x="599" 
d="M406 445h-71v15h21q78 0 139 13v-458h66v-15h-157v87h-6q-13 -34 -33 -55.5t-38 -30t-35 -15.5q-35 -13 -35 -47q0 -15 12 -27t24 -26t12 -37t-17 -39.5t-42 -16.5t-41.5 16.5t-16.5 39.5t12.5 37t25 26t12.5 31t-13.5 29.5t-33 18.5t-39 23t-33 58t-13.5 113v260h-71v15
h21q78 0 139 13v-274q0 -94 7 -118t15 -41q16 -32 54.5 -32t67 23t42.5 63q25 71 25 170v181z" />
    <glyph glyph-name="paragraph" unicode="&#xb6;" horiz-adv-x="343" 
d="M167 -197l-11 1q-8 0 -8 -8q0 -14 25 -14t40.5 12.5t22.5 35.5q10 37 10 89v725l-37 4v-760q-17 25 -47 29v476q-8 -1 -22 -1q-60 0 -98 39t-38 98t41.5 100t109.5 41q22 0 54 -5.5t64 -5.5h29v-16h-36v-720q0 -158 -95 -158q-30 0 -52 19.5t-22 47t15.5 44t38 16.5
t37 -13t14.5 -33.5t-10 -31.5t-25 -11z" />
    <glyph glyph-name="periodcentered" unicode="&#xb7;" horiz-adv-x="277" 
d="M80 261q0 25 16.5 42t41.5 17t42 -17t17 -42t-17 -41.5t-42 -16.5t-41.5 16.5t-16.5 41.5z" />
    <glyph glyph-name="cedilla" unicode="&#xb8;" horiz-adv-x="375" 
d="M155 -73q30 22 66.5 22t66 -24t29.5 -68.5t-24.5 -68t-58.5 -23.5t-54.5 19t-20.5 45t15.5 42.5t38 16.5t38 -13.5t15.5 -34.5q0 -33 -26 -39q-9 -1 -9 -9.5t10 -8.5q23 0 40.5 19t17.5 53t-23.5 55t-53.5 21q-53 0 -81 -43l-14 17l37 95h20z" />
    <glyph glyph-name="onesuperior" unicode="&#xb9;" horiz-adv-x="262" 
d="M99 309v265q-26 -18 -65 -28l-4 17q42 12 65.5 31.5t29.5 55.5q22 1 41 13v-354h66v-18h-193v18h60zM18 227v21h233v-21h-233z" />
    <glyph glyph-name="ordmasculine" unicode="&#xba;" horiz-adv-x="342" 
d="M52 227v21h233v-21h-233zM171 585q-62 0 -62 -136.5t62 -136.5t62 136.5t-62 136.5zM171 300q-65 0 -103 38t-38 110t38 110.5t103 38.5t103 -38.5t38 -110.5t-38 -110t-103 -38z" />
    <glyph glyph-name="guillemotright" unicode="&#xbb;" horiz-adv-x="313" 
d="M169 237l-119 159l17 13l129 -172l-129 -172l-17 13zM281 237l-119 159l17 13l129 -172l-129 -172l-17 13z" />
    <glyph glyph-name="onequarter" unicode="&#xbc;" horiz-adv-x="699" 
d="M177 10l360 646h24l-359 -646h-25zM149 309v265q-26 -18 -65 -28l-4 17q42 12 65.5 31.5t29.5 55.5q22 1 41 13v-354h66v-18h-193v18h60zM523 368q25 0 49 14v-243h47v-24h-47v-95h-67v95h-130v19q125 119 148 234zM408 139h97v123h-4q-28 -55 -93 -120v-3z" />
    <glyph glyph-name="onehalf" unicode="&#xbd;" horiz-adv-x="781" 
d="M462 360.5q31 24.5 87 24.5t93 -24t37 -69.5t-23.5 -75t-58 -46.5t-69.5 -31q-84 -34 -87 -79l7 -2q8 11 15 17q17 15 80 15h104q30 0 31 35h13v-105h-270v30q0 53 65 96l54 35q65 43 65 100q0 86 -70 86q-44 0 -65 -20t-21 -45q0 -10 8 -10q6 0 8 9q4 25 34 25
q18 0 27.5 -12t9.5 -30.5t-14 -31.5t-37.5 -13t-38.5 16t-15 39q0 42 31 66.5zM177 10l360 646h24l-359 -646h-25zM149 309v265q-26 -18 -65 -28l-4 17q42 12 65.5 31.5t29.5 55.5q22 1 41 13v-354h66v-18h-193v18h60z" />
    <glyph glyph-name="threequarters" unicode="&#xbe;" horiz-adv-x="723" 
d="M201 10l360 646h24l-359 -646h-25zM547 368q25 0 49 14v-243h47v-24h-47v-95h-67v95h-130v19q125 119 148 234zM432 139h97v123h-4q-28 -55 -93 -120v-3zM227 623q-20 16 -50 16t-53 -15.5t-23 -35.5q0 -9 8 -9q4 0 9.5 14t26.5 14t30.5 -11.5t9.5 -29.5t-13.5 -31
t-37 -13t-37 15.5t-13.5 37.5q0 39 32.5 60t83.5 21q121 0 121 -78q0 -34 -28 -53t-81 -33l1 -5h9q51 0 82 -22t31 -70.5t-43.5 -80t-91.5 -31.5t-83 20.5t-35 61.5q0 27 17.5 43.5t41 16.5t36 -14t12.5 -32t-10 -30.5t-33.5 -12.5t-28.5 25q-1 9 -9.5 9t-8.5 -9
q0 -22 23.5 -40.5t59.5 -18.5q79 0 79 85.5t-74 85.5q-20 0 -54 -14l-6 16l21 8t23.5 9.5l21.5 10.5t21.5 13.5t15.5 15.5q17 17 17 46t-20 45z" />
    <glyph glyph-name="questiondown" unicode="&#xbf;" horiz-adv-x="404" 
d="M258 422q0 -25 -16.5 -42t-41.5 -17t-42 17t-17 42t17 41.5t42 16.5t41.5 -16.5t16.5 -41.5zM239 -200q-190 0 -190 131q0 39 22 72t53.5 55.5t62.5 42.5q75 48 75 81.5t-17.5 51.5t-46.5 18q-53 0 -77 -45l-15 10q31 53 94 53q37 0 61 -23t24 -56t-21 -65.5t-45.5 -56.5
t-45.5 -60t-21 -81t26.5 -76.5t83.5 -31.5t88 27t31 56q0 9 -8.5 9t-9.5 -9q-6 -26 -40 -26q-22 0 -35 15.5t-13 38t16.5 38t43 15.5t46 -20.5t19.5 -50.5q0 -56 -47 -84.5t-114 -28.5z" />
    <glyph glyph-name="Agrave" unicode="&#xc0;" horiz-adv-x="636" 
d="M154 148q-11 -30 -11 -58.5t10.5 -43.5t33.5 -21q35 -9 93 -9h17v-16h-296v16q53 0 80.5 29.5t48.5 92.5l163 471q7 22 13 33q14 28 46 28h3l202 -654h71v-16h-256v16h74l-69 226h-191zM284 526l-92 -268h180l-82 268h-6zM161 828q0 15 9.5 24t28.5 9t42 -27q4 -8 13 -17
t16.5 -18t13 -13.5t14.5 -13t17 -14.5l19 -14q17 -12 48 -29l-7 -15l-180 84q-34 15 -34 44z" />
    <glyph glyph-name="Aacute" unicode="&#xc1;" horiz-adv-x="636" 
d="M410 834q22 27 42 27q38 0 38 -33q0 -29 -34 -44l-180 -84l-7 15q47 25 66.5 42l25 21.5t15.5 16t12 13.5t12 14zM154 148q-11 -30 -11 -58.5t10.5 -43.5t33.5 -21q35 -9 93 -9h17v-16h-296v16q53 0 80.5 29.5t48.5 92.5l163 471q7 22 13 33q14 28 46 28h3l202 -654h71
v-16h-256v16h74l-69 226h-191zM284 526l-92 -268h180l-82 268h-6z" />
    <glyph glyph-name="Acircumflex" unicode="&#xc2;" horiz-adv-x="636" 
d="M330 861q24 0 46 -27q4 -8 13 -17t16.5 -18t13 -13.5t14.5 -13t17 -14.5l19 -14q17 -12 48 -29l-7 -15l-180 84l-180 -84l-7 15q47 25 66.5 42l25 21.5t15.5 16t12 13.5t12 14l10 12q22 27 46 27zM154 148q-11 -30 -11 -58.5t10.5 -43.5t33.5 -21q35 -9 93 -9h17v-16
h-296v16q53 0 80.5 29.5t48.5 92.5l163 471q7 22 13 33q14 28 46 28h3l202 -654h71v-16h-256v16h74l-69 226h-191zM284 526l-92 -268h180l-82 268h-6z" />
    <glyph glyph-name="Atilde" unicode="&#xc3;" horiz-adv-x="636" 
d="M154 148q-11 -30 -11 -58.5t10.5 -43.5t33.5 -21q35 -9 93 -9h17v-16h-296v16q53 0 80.5 29.5t48.5 92.5l163 471q7 22 13 33q14 28 46 28h3l202 -654h71v-16h-256v16h74l-69 226h-191zM284 526l-92 -268h180l-82 268h-6zM204 820.5q20 31.5 50.5 31.5t84 -26t73.5 -26
q50 0 50 51h15q0 -47 -20 -78.5t-50.5 -31.5t-84.5 26t-73 26q-50 0 -50 -51h-15q0 47 20 78.5z" />
    <glyph glyph-name="Adieresis" unicode="&#xc4;" horiz-adv-x="636" 
d="M154 148q-11 -30 -11 -58.5t10.5 -43.5t33.5 -21q35 -9 93 -9h17v-16h-296v16q53 0 80.5 29.5t48.5 92.5l163 471q7 22 13 33q14 28 46 28h3l202 -654h71v-16h-256v16h74l-69 226h-191zM284 526l-92 -268h180l-82 268h-6zM359 792q0 25 18 42.5t43 17.5t42.5 -17.5
t17.5 -42.5t-17.5 -43t-42.5 -18t-43 18t-18 43zM180 792q0 25 17.5 42.5t42.5 17.5t43 -17.5t18 -42.5t-18 -43t-43 -18t-42.5 18t-17.5 43z" />
    <glyph glyph-name="Aring" unicode="&#xc5;" horiz-adv-x="612" 
d="M267 812q0 -17 12.5 -30t29 -13t29 13t12.5 30t-12.5 29.5t-29 12.5t-29 -12.5t-12.5 -29.5zM266 768.5q-17 17.5 -17 43t17 43t42 17.5t42.5 -17.5t17.5 -43t-17.5 -43t-42.5 -17.5t-42 17.5zM154 148q-11 -30 -11 -58.5t10.5 -43.5t33.5 -21q35 -9 93 -9h17v-16h-296
v16q53 0 80.5 29.5t48.5 92.5l163 471q7 22 13 33q14 28 46 28h3l202 -654h71v-16h-256v16h74l-69 226h-191zM284 526l-92 -268h180l-82 268h-6z" />
    <glyph glyph-name="AE" unicode="&#xc6;" horiz-adv-x="1255" 
d="M309 16h73v315h-157l-105 -187q-30 -54 -30 -81.5t28.5 -37t98.5 -9.5h17v-16h-293v16q57 0 91 30.5t68 91.5l253 451q20 39 36 50t32 11h339v-208h-16q0 121 -37.5 156.5t-160.5 35.5h-60v-287h23q72 0 99 27.5t27 100.5h17v-275h-17q0 74 -27 102.5t-99 28.5h-23v-315
h51q76 0 117 8t67 35t34.5 67.5t12.5 118.5h16l-10 -245h-465v16zM382 595h-9l-139 -248h148v248z" />
    <glyph glyph-name="Ccedilla" unicode="&#xc7;" horiz-adv-x="579" 
d="M174 388v-79t6 -102t22 -99t51 -77.5t87 -27.5q84 0 131 56t54 148l18 -2q-7 -103 -65 -164t-156 -61q-17 0 -47 4l-21 -57q34 22 68 22t64 -24t30 -68.5t-24.5 -68t-58.5 -23.5t-54.5 19t-20.5 45t15.5 42.5t38 16.5t38 -13.5t15.5 -34.5q0 -33 -26 -39q-9 -1 -9 -9.5
t10 -8.5q23 0 40.5 19t17.5 53t-24.5 55t-50 21t-48.5 -12.5t-35 -30.5l-14 17l31 83q-66 17 -113 68q-92 100 -92 272q0 140 74.5 241t200.5 101q45 0 94 -17t58 -17q29 0 34 34h12v-234h-16q-15 99 -54 157t-119 58q-95 0 -130 -81q-29 -69 -32 -182z" />
    <glyph glyph-name="Egrave" unicode="&#xc8;" horiz-adv-x="619" 
d="M52 0v16h73v618h-73v16h481v-208h-16q0 121 -37.5 156.5t-160.5 35.5h-90v-287h53q72 0 99 27.5t27 100.5h17v-275h-17q0 74 -27 102.5t-99 28.5h-53v-315h81q76 0 117 8t67 35t34.5 67.5t12.5 118.5h16l-10 -245h-495zM230 828q0 15 9.5 24t29 9t41.5 -27q4 -8 13 -17
t16.5 -18t13 -13.5t14.5 -13t17 -14.5l19 -14q17 -12 48 -29l-7 -15l-180 84q-34 15 -34 44z" />
    <glyph glyph-name="Eacute" unicode="&#xc9;" horiz-adv-x="619" 
d="M424 834q22 27 42 27q38 0 38 -33q0 -29 -34 -44l-180 -84l-7 15q47 25 66.5 42l25 21.5t15.5 16t12 13.5t12 14zM52 0v16h73v618h-73v16h481v-208h-16q0 121 -37.5 156.5t-160.5 35.5h-90v-287h53q72 0 99 27.5t27 100.5h17v-275h-17q0 74 -27 102.5t-99 28.5h-53v-315
h81q76 0 117 8t67 35t34.5 67.5t12.5 118.5h16l-10 -245h-495z" />
    <glyph glyph-name="Ecircumflex" unicode="&#xca;" horiz-adv-x="619" 
d="M52 0v16h73v618h-73v16h481v-208h-16q0 121 -37.5 156.5t-160.5 35.5h-90v-287h53q72 0 99 27.5t27 100.5h17v-275h-17q0 74 -27 102.5t-99 28.5h-53v-315h81q76 0 117 8t67 35t34.5 67.5t12.5 118.5h16l-10 -245h-495zM327 861q23 0 46 -27q4 -8 13 -17t16.5 -18
t13 -13.5t14.5 -13t17 -14.5l19 -14q17 -12 48 -29l-7 -15l-180 84l-180 -84l-7 15q47 25 66.5 42l25 21.5t15.5 16t12 13.5t12 14l10 12q23 27 46 27z" />
    <glyph glyph-name="Edieresis" unicode="&#xcb;" horiz-adv-x="619" 
d="M52 0v16h73v618h-73v16h481v-208h-16q0 121 -37.5 156.5t-160.5 35.5h-90v-287h53q72 0 99 27.5t27 100.5h17v-275h-17q0 74 -27 102.5t-99 28.5h-53v-315h81q76 0 117 8t67 35t34.5 67.5t12.5 118.5h16l-10 -245h-495zM340 792q0 25 18 42.5t43 17.5t42.5 -17.5
t17.5 -42.5t-17.5 -43t-42.5 -18t-43 18t-18 43zM161 792q0 25 17.5 42.5t42.5 17.5t43 -17.5t18 -42.5t-18 -43t-43 -18t-42.5 18t-17.5 43z" />
    <glyph glyph-name="Igrave" unicode="&#xcc;" horiz-adv-x="354" 
d="M125 634h-73v16h260v-16h-83v-618h83v-16h-260v16h73v618zM25 828q0 15 9.5 24t28.5 9t42 -27q4 -8 13 -17t16.5 -18t13 -13.5t14.5 -13t17 -14.5l19 -14q17 -12 48 -29l-7 -15l-180 84q-34 15 -34 44z" />
    <glyph glyph-name="Iacute" unicode="&#xcd;" horiz-adv-x="354" 
d="M125 634h-73v16h260v-16h-83v-618h83v-16h-260v16h73v618zM249 834q23 27 42 27t28.5 -9t9.5 -24q0 -29 -34 -44l-180 -84l-7 15q47 25 66.5 42l25 21.5t15.5 16t12 13.5t12 14z" />
    <glyph glyph-name="Icircumflex" unicode="&#xce;" horiz-adv-x="354" 
d="M125 634h-73v16h260v-16h-83v-618h83v-16h-260v16h73v618zM180 861q24 0 46 -27q4 -8 13 -17t16.5 -18t13 -13.5t14.5 -13t17 -14.5l19 -14q17 -12 48 -29l-7 -15l-180 84l-180 -84l-7 15q47 25 66.5 42l25 21.5t15.5 16t12 13.5t12 14l10 12q22 27 46 27z" />
    <glyph glyph-name="Idieresis" unicode="&#xcf;" horiz-adv-x="354" 
d="M125 634h-73v16h260v-16h-83v-618h83v-16h-260v16h73v618zM209 792q0 25 18 42.5t43 17.5t42.5 -17.5t17.5 -42.5t-17.5 -43t-42.5 -18t-43 18t-18 43zM30 792q0 25 17.5 42.5t42.5 17.5t43 -17.5t18 -42.5t-18 -43t-43 -18t-42.5 18t-17.5 43z" />
    <glyph glyph-name="Eth" unicode="&#xd0;" horiz-adv-x="687" 
d="M52 320v16h73v298h-73v16h273q152 0 231 -80t79 -241.5t-78.5 -245t-245.5 -83.5h-259v16h73v304h-73zM505 197.5q8 51.5 8 127.5t-8.5 127t-29.5 94q-42 88 -165 88h-81v-298h75v-16h-75v-304h61q140 0 184 86q23 44 31 95.5z" />
    <glyph glyph-name="Ntilde" unicode="&#xd1;" horiz-adv-x="689" 
d="M537 507v-514h-16q-33 0 -53.5 21t-54.5 80l-264 454h-4v-405q0 -73 27.5 -100t100.5 -27h7v-16h-286v16q73 0 102 27.5t29 99.5v446q-27 46 -105 46v15h104q48 0 72.5 -16.5t49.5 -58.5l265 -455h6v387q0 73 -27.5 100t-100.5 27h-7v16h286v-16q-73 0 -102 -27.5
t-29 -99.5zM203 820.5q20 31.5 50.5 31.5t84 -26t73.5 -26q50 0 50 51h15q0 -47 -20 -78.5t-51 -31.5t-84 26t-73 26q-50 0 -50 -51h-15q0 47 20 78.5z" />
    <glyph glyph-name="Ograve" unicode="&#xd2;" 
d="M202 828q0 15 9.5 24t29 9t41.5 -27q4 -8 13 -17t16.5 -18t13 -13.5t14.5 -13t17 -14.5l19 -14q17 -12 48 -29l-7 -15l-180 84q-34 15 -34 44zM335 -20q-134 0 -208.5 100.5t-74.5 245.5t76 244.5t207 99.5t207 -99.5t76 -244.5t-74.5 -245.5t-208.5 -100.5zM269 11.5
q28 -12.5 65.5 -12.5t65 13t44.5 39t28 54.5t16 70.5t6.5 74t1.5 78t-1.5 77.5t-6.5 73t-16 69t-28 53t-44.5 38t-64.5 12.5t-64.5 -12.5t-44.5 -38t-28 -53t-16 -69.5q-8 -66 -8 -132.5t1 -97t5.5 -74t15.5 -70.5t28 -53.5t45 -39z" />
    <glyph glyph-name="Oacute" unicode="&#xd3;" 
d="M389 834q23 27 42 27t28.5 -9t9.5 -24q0 -29 -34 -44l-180 -84l-7 15q47 25 66.5 42l25 21.5t15.5 16t12 13.5t12 14zM335 -20q-134 0 -208.5 100.5t-74.5 245.5t76 244.5t207 99.5t207 -99.5t76 -244.5t-74.5 -245.5t-208.5 -100.5zM269 11.5q28 -12.5 65.5 -12.5t65 13
t44.5 39t28 54.5t16 70.5t6.5 74t1.5 78t-1.5 77.5t-6.5 73t-16 69t-28 53t-44.5 38t-64.5 12.5t-64.5 -12.5t-44.5 -38t-28 -53t-16 -69.5q-8 -66 -8 -132.5t1 -97t5.5 -74t15.5 -70.5t28 -53.5t45 -39z" />
    <glyph glyph-name="Ocircumflex" unicode="&#xd4;" 
d="M335 -20q-134 0 -208.5 100.5t-74.5 245.5t76 244.5t207 99.5t207 -99.5t76 -244.5t-74.5 -245.5t-208.5 -100.5zM269 11.5q28 -12.5 65.5 -12.5t65 13t44.5 39t28 54.5t16 70.5t6.5 74t1.5 78t-1.5 77.5t-6.5 73t-16 69t-28 53t-44.5 38t-64.5 12.5t-64.5 -12.5
t-44.5 -38t-28 -53t-16 -69.5q-8 -66 -8 -132.5t1 -97t5.5 -74t15.5 -70.5t28 -53.5t45 -39zM337 861q23 0 46 -27q4 -8 13 -17t16.5 -18t13 -13.5t14.5 -13t17 -14.5l19 -14q17 -12 48 -29l-7 -15l-180 84l-180 -84l-7 15q47 25 66.5 42l25 21.5t15.5 16t12 13.5t12 14
l10 12q23 27 46 27z" />
    <glyph glyph-name="Otilde" unicode="&#xd5;" 
d="M335 -20q-134 0 -208.5 100.5t-74.5 245.5t76 244.5t207 99.5t207 -99.5t76 -244.5t-74.5 -245.5t-208.5 -100.5zM269 11.5q28 -12.5 65.5 -12.5t65 13t44.5 39t28 54.5t16 70.5t6.5 74t1.5 78t-1.5 77.5t-6.5 73t-16 69t-28 53t-44.5 38t-64.5 12.5t-64.5 -12.5
t-44.5 -38t-28 -53t-16 -69.5q-8 -66 -8 -132.5t1 -97t5.5 -74t15.5 -70.5t28 -53.5t45 -39zM210 820.5q20 31.5 50.5 31.5t84 -26t73.5 -26q50 0 50 51h15q0 -47 -20 -78.5t-50.5 -31.5t-84.5 26t-73 26q-50 0 -50 -51h-15q0 47 20 78.5z" />
    <glyph glyph-name="Odieresis" unicode="&#xd6;" 
d="M335 -20q-134 0 -208.5 100.5t-74.5 245.5t76 244.5t207 99.5t207 -99.5t76 -244.5t-74.5 -245.5t-208.5 -100.5zM269 11.5q28 -12.5 65.5 -12.5t65 13t44.5 39t28 54.5t16 70.5t6.5 74t1.5 78t-1.5 77.5t-6.5 73t-16 69t-28 53t-44.5 38t-64.5 12.5t-64.5 -12.5
t-44.5 -38t-28 -53t-16 -69.5q-8 -66 -8 -132.5t1 -97t5.5 -74t15.5 -70.5t28 -53.5t45 -39zM364 792q0 25 18 42.5t43 17.5t42.5 -17.5t17.5 -42.5t-17.5 -43t-42.5 -18t-43 18t-18 43zM185 792q0 25 17.5 42.5t42.5 17.5t43 -17.5t18 -42.5t-18 -43t-43 -18t-42.5 18
t-17.5 43z" />
    <glyph glyph-name="multiply" unicode="&#xd7;" horiz-adv-x="456" 
d="M70 394l16 14l150 -156l151 156l15 -15l-151 -156l161 -165l-15 -15l-160 165l-160 -165l-15 15l160 165z" />
    <glyph glyph-name="Oslash" unicode="&#xd8;" 
d="M335 -20q-70 0 -129 31l-39 -83h-24l44 95q-65 44 -100 125.5t-35 179.5q0 143 76 242.5t207 99.5q74 0 137 -37l36 77h25l-42 -90q61 -45 94 -123t33 -169q0 -147 -74.5 -247.5t-208.5 -100.5zM175.5 405.5q-1.5 -31.5 -1.5 -84.5t1.5 -89t10 -83.5t24.5 -77.5l242 519
q-40 61 -117 61q-75 0 -109 -51q-36 -53 -42.5 -108t-8 -86.5zM496 328q0 166 -31 237l-241 -516q39 -50 112.5 -50t108.5 53t43 122t8 154z" />
    <glyph glyph-name="Ugrave" unicode="&#xd9;" horiz-adv-x="679" 
d="M116 634h-73v16h260v-16h-83v-326q0 -140 14 -190q17 -61 47 -84q41 -31 91 -31t80 17t47 43.5t27 66.5q16 65 16 163v214q0 73 -27.5 100t-100.5 27h-7v16h286v-16q-73 0 -102 -27.5t-29 -99.5v-179q0 -152 -20 -216q-22 -67 -60 -96q-47 -36 -119 -36t-120.5 23.5
t-76.5 69.5q-50 84 -50 235v326zM248 828q0 15 9.5 24t29 9t41.5 -27q4 -8 13 -17t16.5 -18t13 -13.5t14.5 -13t17 -14.5l19 -14q17 -12 48 -29l-7 -15l-180 84q-34 15 -34 44z" />
    <glyph glyph-name="Uacute" unicode="&#xda;" horiz-adv-x="679" 
d="M116 634h-73v16h260v-16h-83v-326q0 -140 14 -190q17 -61 47 -84q41 -31 91 -31t80 17t47 43.5t27 66.5q16 65 16 163v214q0 73 -27.5 100t-100.5 27h-7v16h286v-16q-73 0 -102 -27.5t-29 -99.5v-179q0 -152 -20 -216q-22 -67 -60 -96q-47 -36 -119 -36t-120.5 23.5
t-76.5 69.5q-50 84 -50 235v326zM434 834q22 27 42 27q38 0 38 -33q0 -29 -34 -44l-180 -84l-7 15q47 25 66.5 42l25 21.5t15.5 16t12 13.5t12 14z" />
    <glyph glyph-name="Ucircumflex" unicode="&#xdb;" horiz-adv-x="679" 
d="M116 634h-73v16h260v-16h-83v-326q0 -140 14 -190q17 -61 47 -84q41 -31 91 -31t80 17t47 43.5t27 66.5q16 65 16 163v214q0 73 -27.5 100t-100.5 27h-7v16h286v-16q-73 0 -102 -27.5t-29 -99.5v-179q0 -152 -20 -216q-22 -67 -60 -96q-47 -36 -119 -36t-120.5 23.5
t-76.5 69.5q-50 84 -50 235v326zM381 861q23 0 46 -27q4 -8 13 -17t16.5 -18t13 -13.5t14.5 -13t17 -14.5l19 -14q17 -12 48 -29l-7 -15l-180 84l-180 -84l-7 15q47 25 66.5 42l25 21.5t15.5 16t12 13.5t12 14l10 12q23 27 46 27z" />
    <glyph glyph-name="Udieresis" unicode="&#xdc;" horiz-adv-x="734" 
d="M116 634h-73v16h260v-16h-83v-326q0 -140 14 -190q17 -61 47 -84q41 -31 91 -31t80 17t47 43.5t27 66.5q16 65 16 163v214q0 73 -27.5 100t-100.5 27h-7v16h286v-16q-73 0 -102 -27.5t-29 -99.5v-179q0 -152 -20 -216q-22 -67 -60 -96q-47 -36 -119 -36t-120.5 23.5
t-76.5 69.5q-50 84 -50 235v326zM395 792q0 25 18 42.5t43 17.5t42.5 -17.5t17.5 -42.5t-17.5 -43t-42.5 -18t-43 18t-18 43zM216 792q0 25 17.5 42.5t42.5 17.5t43 -17.5t18 -42.5t-18 -43t-43 -18t-42.5 18t-17.5 43z" />
    <glyph glyph-name="Yacute" unicode="&#xdd;" horiz-adv-x="598" 
d="M612 649v-16q-47 -2 -79 -19.5t-55 -62.5l-121 -240v-295h83v-16h-260v16h73v285l-179 333h-73v16h268v-16h-83l160 -303l84 163q26 52 26 84t-24.5 43.5t-71.5 11.5h-8v16h260zM403 834q23 27 42 27t28.5 -9t9.5 -24q0 -29 -34 -44l-180 -84l-7 15q47 25 66.5 42
l25 21.5t15.5 16t12 13.5t12 14z" />
    <glyph glyph-name="Thorn" unicode="&#xde;" horiz-adv-x="588" 
d="M94 675h-68v15h224v-15h-67v-114h71q160 0 223 -45t63 -144q0 -70 -37 -116t-90.5 -63.5t-116 -17.5t-113.5 12v-172h68v-15h-224v15h67v660zM218 545h-35v-340q50 -10 91 -10q169 0 169 177q0 93 -55 133t-170 40z" />
    <glyph glyph-name="germandbls" unicode="&#xdf;" horiz-adv-x="602" 
d="M534.5 24.5q-47.5 -44.5 -118 -44.5t-113 28t-42.5 85q0 30 19.5 50.5t46 20.5t43 -15.5t16.5 -37.5t-14 -38t-41 -16t-33 26q-2 9 -10 9t-8 -9q0 -31 28.5 -57t90 -26t90.5 26t29 63.5t-26 61.5t-63 40l-73.5 33t-62.5 47t-26 65t21 57t45.5 34t45.5 38t21 70t-28 70.5
t-77 26.5t-74 -31.5t-25 -110.5v-474h57v-16h-214v16h53v474q0 71 57 115.5t156.5 44.5t153 -26t53.5 -89q0 -31 -18 -52.5t-38 -29.5t-55.5 -18.5t-48.5 -16.5q-43 -18 -43 -44q0 -39 83 -78q46 -22 86 -38t72 -50t32 -86.5t-47.5 -97z" />
    <glyph glyph-name="agrave" unicode="&#xe0;" horiz-adv-x="525" 
d="M114 647q0 15 9.5 24t29 9t41.5 -27q4 -8 13 -17t16.5 -18t13 -13.5t14.5 -13t17 -14.5l19 -14q17 -12 48 -29l-7 -15l-180 84q-34 15 -34 44zM241 480q119 0 157.5 -53.5t38.5 -186.5v-177q0 -41 18 -41q37 0 49 115l18 -2q-15 -155 -101 -155q-25 0 -38.5 18t-17 39.5
t-3.5 53.5h-6q-13 -53 -53 -82t-102.5 -29t-109.5 33.5t-47 96.5q0 47 27 78q56 64 254 64h23v49q0 79 -27 119t-93.5 40t-97.5 -27t-31 -56q0 -9 8.5 -9t9.5 9q6 26 40 26q22 0 35 -15.5t13 -38t-16.5 -38t-43 -15.5t-46 20.5t-19.5 50.5q0 56 47 84.5t114 28.5zM348 167
v67h-31.5t-51 -3t-60.5 -15q-64 -23 -64 -102q0 -48 23 -77t74 -29t80.5 46t29.5 113z" />
    <glyph glyph-name="aacute" unicode="&#xe1;" horiz-adv-x="525" 
d="M312 653q22 27 42 27q38 0 38 -33q0 -29 -34 -44l-180 -84l-7 15q47 25 66.5 42l25 21.5t15.5 16t12 13.5t12 14zM241 480q119 0 157.5 -53.5t38.5 -186.5v-177q0 -41 18 -41q37 0 49 115l18 -2q-15 -155 -101 -155q-25 0 -38.5 18t-17 39.5t-3.5 53.5h-6
q-13 -53 -53 -82t-102.5 -29t-109.5 33.5t-47 96.5q0 47 27 78q56 64 254 64h23v49q0 79 -27 119t-93.5 40t-97.5 -27t-31 -56q0 -9 8.5 -9t9.5 9q6 26 40 26q22 0 35 -15.5t13 -38t-16.5 -38t-43 -15.5t-46 20.5t-19.5 50.5q0 56 47 84.5t114 28.5zM348 167v67h-31.5
t-51 -3t-60.5 -15q-64 -23 -64 -102q0 -48 23 -77t74 -29t80.5 46t29.5 113z" />
    <glyph glyph-name="acircumflex" unicode="&#xe2;" horiz-adv-x="525" 
d="M264 680q24 0 46 -27q4 -8 13 -17t16.5 -18t13 -13.5t14.5 -13t17 -14.5l19 -14q17 -12 48 -29l-7 -15l-180 84l-180 -84l-7 15q47 25 66.5 42l25 21.5t15.5 16t12 13.5t12 14l10 12q22 27 46 27zM241 480q119 0 157.5 -53.5t38.5 -186.5v-177q0 -41 18 -41q37 0 49 115
l18 -2q-15 -155 -101 -155q-25 0 -38.5 18t-17 39.5t-3.5 53.5h-6q-13 -53 -53 -82t-102.5 -29t-109.5 33.5t-47 96.5q0 47 27 78q56 64 254 64h23v49q0 79 -27 119t-93.5 40t-97.5 -27t-31 -56q0 -9 8.5 -9t9.5 9q6 26 40 26q22 0 35 -15.5t13 -38t-16.5 -38t-43 -15.5
t-46 20.5t-19.5 50.5q0 56 47 84.5t114 28.5zM348 167v67h-31.5t-51 -3t-60.5 -15q-64 -23 -64 -102q0 -48 23 -77t74 -29t80.5 46t29.5 113z" />
    <glyph glyph-name="atilde" unicode="&#xe3;" horiz-adv-x="525" 
d="M117 639.5q20 31.5 50.5 31.5t84 -26t73.5 -26q50 0 50 51h15q0 -47 -20 -78.5t-51 -31.5t-84.5 26t-72.5 26q-50 0 -50 -51h-15q0 47 20 78.5zM241 480q119 0 157.5 -53.5t38.5 -186.5v-177q0 -41 18 -41q37 0 49 115l18 -2q-15 -155 -101 -155q-25 0 -38.5 18t-17 39.5
t-3.5 53.5h-6q-13 -53 -53 -82t-102.5 -29t-109.5 33.5t-47 96.5q0 47 27 78q56 64 254 64h23v49q0 79 -27 119t-93.5 40t-97.5 -27t-31 -56q0 -9 8.5 -9t9.5 9q6 26 40 26q22 0 35 -15.5t13 -38t-16.5 -38t-43 -15.5t-46 20.5t-19.5 50.5q0 56 47 84.5t114 28.5zM348 167
v67h-31.5t-51 -3t-60.5 -15q-64 -23 -64 -102q0 -48 23 -77t74 -29t80.5 46t29.5 113z" />
    <glyph glyph-name="adieresis" unicode="&#xe4;" horiz-adv-x="525" 
d="M302 611q0 25 18 42.5t43 17.5t42.5 -17.5t17.5 -42.5t-17.5 -43t-42.5 -18t-43 18t-18 43zM123 611q0 25 17.5 42.5t42.5 17.5t43 -17.5t18 -42.5t-18 -43t-43 -18t-42.5 18t-17.5 43zM241 480q119 0 157.5 -53.5t38.5 -186.5v-177q0 -41 18 -41q37 0 49 115l18 -2
q-15 -155 -101 -155q-25 0 -38.5 18t-17 39.5t-3.5 53.5h-6q-13 -53 -53 -82t-102.5 -29t-109.5 33.5t-47 96.5q0 47 27 78q56 64 254 64h23v49q0 79 -27 119t-93.5 40t-97.5 -27t-31 -56q0 -9 8.5 -9t9.5 9q6 26 40 26q22 0 35 -15.5t13 -38t-16.5 -38t-43 -15.5t-46 20.5
t-19.5 50.5q0 56 47 84.5t114 28.5zM348 167v67h-31.5t-51 -3t-60.5 -15q-64 -23 -64 -102q0 -48 23 -77t74 -29t80.5 46t29.5 113z" />
    <glyph glyph-name="aring" unicode="&#xe5;" horiz-adv-x="525" 
d="M209 610q0 -17 12.5 -30t29 -13t29 13t12.5 30t-12.5 29.5t-29 12.5t-29 -12.5t-12.5 -29.5zM208 566.5q-17 17.5 -17 43t17 43t42 17.5t42.5 -17.5t17.5 -43t-17.5 -43t-42.5 -17.5t-42 17.5zM241 480q119 0 157.5 -53.5t38.5 -186.5v-177q0 -41 18 -41q37 0 49 115
l18 -2q-15 -155 -101 -155q-25 0 -38.5 18t-17 39.5t-3.5 53.5h-6q-13 -53 -53 -82t-102.5 -29t-109.5 33.5t-47 96.5q0 47 27 78q56 64 254 64h23v49q0 79 -27 119t-93.5 40t-97.5 -27t-31 -56q0 -9 8.5 -9t9.5 9q6 26 40 26q22 0 35 -15.5t13 -38t-16.5 -38t-43 -15.5
t-46 20.5t-19.5 50.5q0 56 47 84.5t114 28.5zM348 167v67h-31.5t-51 -3t-60.5 -15q-64 -23 -64 -102q0 -48 23 -77t74 -29t80.5 46t29.5 113z" />
    <glyph glyph-name="ae" unicode="&#xe6;" horiz-adv-x="785" 
d="M571 480q75 0 125.5 -32t50.5 -96q0 -99 -113 -122q-57 -11 -142 -11h-47v-29q0 -81 33.5 -131.5t98 -50.5t101 38t51.5 98l18 -2q-16 -73 -64.5 -117.5t-122.5 -44.5q-104 0 -160 62q-7 -7 -20.5 -17.5t-63 -27.5t-114 -17t-111.5 33.5t-47 96.5q0 47 27 78
q56 64 254 64h23v49q0 79 -27 119t-93.5 40t-97.5 -27t-31 -56q0 -9 8.5 -9t9.5 9q6 26 40 26q22 0 35 -15.5t13 -38t-16.5 -38t-43 -15.5t-46 20.5t-19.5 50.5q0 56 47 84.5t114 28.5q119 0 159 -68q60 68 171 68zM348 167v67h-31.5t-51 -3t-60.5 -15q-64 -23 -64 -102
q0 -48 23 -77t74 -29t80.5 46t29.5 113zM445 237h35q81 0 113.5 16t44.5 39.5t12 66.5t-21.5 73.5t-65.5 30.5t-71.5 -31.5t-37 -73.5t-9.5 -93v-28z" />
    <glyph glyph-name="ccedilla" unicode="&#xe7;" horiz-adv-x="459" 
d="M182 -73q34 22 68 22t64 -24t30 -68.5t-24.5 -68t-58.5 -23.5t-54.5 19t-20.5 45t15.5 42.5t38 16.5t38 -13.5t15.5 -34.5q0 -33 -26 -39q-9 -1 -9 -9.5t10 -8.5q23 0 40.5 19t17.5 53t-24.5 55t-50 21t-48.5 -12.5t-35 -30.5l-14 17l33 89q-64 23 -97.5 86t-33.5 150
q0 115 54.5 182.5t162.5 67.5q69 0 112 -30t43 -91q0 -30 -19.5 -50.5t-46 -20.5t-43 15.5t-16.5 38t13 38t35 15.5q34 0 40 -26q1 -9 9.5 -9t8.5 9q0 34 -30.5 62.5t-89.5 28.5q-136 0 -136 -226t138 -226q52 0 85.5 38t46.5 98l18 -2q-15 -73 -60 -117.5t-114 -44.5
q-32 0 -62 8z" />
    <glyph glyph-name="egrave" unicode="&#xe8;" horiz-adv-x="490" 
d="M276 480q75 0 125.5 -32t50.5 -96q0 -99 -113 -122q-57 -11 -142 -11h-47v-29q0 -81 33.5 -131.5t98 -50.5t101 38t51.5 98l18 -2q-16 -73 -64.5 -117.5t-122.5 -44.5q-104 0 -158 68.5t-54 181.5t58 181.5t165 68.5zM150 237h35q81 0 113.5 16t44.5 39.5t12 66.5
t-21.5 73.5t-65.5 30.5t-71.5 -31.5t-37 -73.5t-9.5 -93v-28zM141 647q0 15 9.5 24t28.5 9t42 -27q4 -8 13 -17t16.5 -18t13 -13.5t14.5 -13t17 -14.5l19 -14q17 -12 48 -29l-7 -15l-180 84q-34 15 -34 44z" />
    <glyph glyph-name="eacute" unicode="&#xe9;" horiz-adv-x="490" 
d="M276 480q75 0 125.5 -32t50.5 -96q0 -99 -113 -122q-57 -11 -142 -11h-47v-29q0 -81 33.5 -131.5t98 -50.5t101 38t51.5 98l18 -2q-16 -73 -64.5 -117.5t-122.5 -44.5q-104 0 -158 68.5t-54 181.5t58 181.5t165 68.5zM150 237h35q81 0 113.5 16t44.5 39.5t12 66.5
t-21.5 73.5t-65.5 30.5t-71.5 -31.5t-37 -73.5t-9.5 -93v-28zM320 653q22 27 42 27q38 0 38 -33q0 -29 -34 -44l-180 -84l-7 15q47 25 66.5 42l25 21.5t15.5 16t12 13.5t12 14z" />
    <glyph glyph-name="ecircumflex" unicode="&#xea;" horiz-adv-x="490" 
d="M276 480q75 0 125.5 -32t50.5 -96q0 -99 -113 -122q-57 -11 -142 -11h-47v-29q0 -81 33.5 -131.5t98 -50.5t101 38t51.5 98l18 -2q-16 -73 -64.5 -117.5t-122.5 -44.5q-104 0 -158 68.5t-54 181.5t58 181.5t165 68.5zM150 237h35q81 0 113.5 16t44.5 39.5t12 66.5
t-21.5 73.5t-65.5 30.5t-71.5 -31.5t-37 -73.5t-9.5 -93v-28zM267 680q23 0 46 -27q4 -8 13 -17t16.5 -18t13 -13.5t14.5 -13t17 -14.5l19 -14q17 -12 48 -29l-7 -15l-180 84l-180 -84l-7 15q47 25 66.5 42l25 21.5t15.5 16t12 13.5t12 14l10 12q23 27 46 27z" />
    <glyph glyph-name="edieresis" unicode="&#xeb;" horiz-adv-x="490" 
d="M276 480q75 0 125.5 -32t50.5 -96q0 -99 -113 -122q-57 -11 -142 -11h-47v-29q0 -81 33.5 -131.5t98 -50.5t101 38t51.5 98l18 -2q-16 -73 -64.5 -117.5t-122.5 -44.5q-104 0 -158 68.5t-54 181.5t58 181.5t165 68.5zM150 237h35q81 0 113.5 16t44.5 39.5t12 66.5
t-21.5 73.5t-65.5 30.5t-71.5 -31.5t-37 -73.5t-9.5 -93v-28zM296 611q0 25 18 42.5t43 17.5t42.5 -17.5t17.5 -42.5t-17.5 -43t-42.5 -18t-43 18t-18 43zM117 611q0 25 17.5 42.5t42.5 17.5t43 -17.5t18 -42.5t-18 -43t-43 -18t-42.5 18t-17.5 43z" />
    <glyph glyph-name="igrave" unicode="&#xec;" horiz-adv-x="296" 
d="M197 15h66v-15h-221v15h66v430h-71v15h21q78 0 139 13v-458zM3 647q0 15 9.5 24t28.5 9t42 -27q4 -8 13 -17t16.5 -18t13 -13.5t14.5 -13t17 -14.5l19 -14q17 -12 48 -29l-7 -15l-180 84q-34 15 -34 44z" />
    <glyph glyph-name="iacute" unicode="&#xed;" horiz-adv-x="296" 
d="M211 653q23 27 42 27t28.5 -9t9.5 -24q0 -29 -34 -44l-180 -84l-7 15q47 25 66.5 42l25 21.5t15.5 16t12 13.5t12 14zM197 15h66v-15h-221v15h66v430h-71v15h21q78 0 139 13v-458z" />
    <glyph glyph-name="icircumflex" unicode="&#xee;" horiz-adv-x="296" 
d="M197 15h66v-15h-221v15h66v430h-71v15h21q78 0 139 13v-458zM97 653q22 27 45.5 27t46.5 -27q4 -8 13 -17t16.5 -18t13 -13.5t14.5 -13t17 -14.5l19 -14q17 -12 48 -29l-7 -15l-180 84l-180 -84l-7 15q47 25 66.5 42l25 21.5t15.5 16t12 13.5t12 14z" />
    <glyph glyph-name="idieresis" unicode="&#xef;" horiz-adv-x="296" 
d="M197 15h66v-15h-221v15h66v430h-71v15h21q78 0 139 13v-458zM172 611q0 25 18 42.5t43 17.5t42.5 -17.5t17.5 -42.5t-17.5 -43t-42.5 -18t-43 18t-18 43zM-7 611q0 25 17.5 42.5t42.5 17.5t43 -17.5t18 -42.5t-18 -43t-43 -18t-42.5 18t-17.5 43z" />
    <glyph glyph-name="eth" unicode="&#xf0;" horiz-adv-x="506" 
d="M453 242q0 -107 -55 -185t-144 -78t-145 63.5t-56 154.5t56 154.5t144 63.5q44 0 81 -17l8 4q-10 86 -78 151l-109 -51l-8 19l100 47q-53 43 -135 77l6 15q96 -27 168 -74l103 49l8 -19l-92 -43q148 -111 148 -331zM357 197q0 44 -4 76.5t-14.5 63t-32 46t-53.5 15.5
t-53.5 -15.5t-32 -46t-14.5 -63t-4 -76.5t4 -76.5t14.5 -63t32 -46t53.5 -15.5t53.5 15.5t32 46t14.5 63t4 76.5z" />
    <glyph glyph-name="ntilde" unicode="&#xf1;" horiz-adv-x="587" 
d="M176 639.5q20 31.5 50.5 31.5t84 -26t73.5 -26q50 0 50 51h15q0 -47 -20 -78.5t-50.5 -31.5t-84 26t-73.5 26q-50 0 -50 -51h-15q0 47 20 78.5zM260 15v-15h-221v15h66v430h-71v15h21q79 0 141 13v-100h6q17 48 57.5 77.5t90.5 29.5q87 0 119 -51.5t32 -153.5v-260h66
v-15h-221v15h66v246q0 113 -17 149q-8 16 -24.5 29t-48.5 13t-60.5 -23t-42.5 -63q-25 -71 -25 -170v-181h66z" />
    <glyph glyph-name="ograve" unicode="&#xf2;" horiz-adv-x="546" 
d="M120 647q0 15 9.5 24t29 9t41.5 -27q4 -8 13 -17t16.5 -18t13 -13.5t14.5 -13t17 -14.5l19 -14q17 -12 48 -29l-7 -15l-180 84q-34 15 -34 44zM273 -20q-104 0 -162 70t-58 180t58 180t162 70t162 -70t58 -180t-58 -180t-162 -70zM396 230q0 38 -2 67t-9.5 62t-20 54.5
t-36 35.5t-55.5 14t-55.5 -14t-36 -35.5t-20 -54.5t-9.5 -62t-2 -67t2 -67t9.5 -62t20 -54.5t36 -35.5t55.5 -14t55.5 14t36 35.5t20 54.5t9.5 62t2 67z" />
    <glyph glyph-name="oacute" unicode="&#xf3;" horiz-adv-x="546" 
d="M330 653q22 27 42 27q38 0 38 -33q0 -29 -34 -44l-180 -84l-7 15q47 25 66.5 42l25 21.5t15.5 16t12 13.5t12 14zM273 -20q-104 0 -162 70t-58 180t58 180t162 70t162 -70t58 -180t-58 -180t-162 -70zM396 230q0 38 -2 67t-9.5 62t-20 54.5t-36 35.5t-55.5 14t-55.5 -14
t-36 -35.5t-20 -54.5t-9.5 -62t-2 -67t2 -67t9.5 -62t20 -54.5t36 -35.5t55.5 -14t55.5 14t36 35.5t20 54.5t9.5 62t2 67z" />
    <glyph glyph-name="ocircumflex" unicode="&#xf4;" horiz-adv-x="546" 
d="M273 -20q-104 0 -162 70t-58 180t58 180t162 70t162 -70t58 -180t-58 -180t-162 -70zM396 230q0 38 -2 67t-9.5 62t-20 54.5t-36 35.5t-55.5 14t-55.5 -14t-36 -35.5t-20 -54.5t-9.5 -62t-2 -67t2 -67t9.5 -62t20 -54.5t36 -35.5t55.5 -14t55.5 14t36 35.5t20 54.5
t9.5 62t2 67zM273 680q23 0 46 -27q4 -8 13 -17t16.5 -18t13 -13.5t14.5 -13t17 -14.5l19 -14q17 -12 48 -29l-7 -15l-180 84l-180 -84l-7 15q47 25 66.5 42l25 21.5t15.5 16t12 13.5t12 14l10 12q23 27 46 27z" />
    <glyph glyph-name="otilde" unicode="&#xf5;" horiz-adv-x="546" 
d="M148 639.5q20 31.5 50.5 31.5t84 -26t73.5 -26q50 0 50 51h15q0 -47 -20 -78.5t-50.5 -31.5t-84 26t-73.5 26q-50 0 -50 -51h-15q0 47 20 78.5zM273 -20q-104 0 -162 70t-58 180t58 180t162 70t162 -70t58 -180t-58 -180t-162 -70zM396 230q0 38 -2 67t-9.5 62t-20 54.5
t-36 35.5t-55.5 14t-55.5 -14t-36 -35.5t-20 -54.5t-9.5 -62t-2 -67t2 -67t9.5 -62t20 -54.5t36 -35.5t55.5 -14t55.5 14t36 35.5t20 54.5t9.5 62t2 67z" />
    <glyph glyph-name="odieresis" unicode="&#xf6;" horiz-adv-x="546" 
d="M273 -20q-104 0 -162 70t-58 180t58 180t162 70t162 -70t58 -180t-58 -180t-162 -70zM396 230q0 38 -2 67t-9.5 62t-20 54.5t-36 35.5t-55.5 14t-55.5 -14t-36 -35.5t-20 -54.5t-9.5 -62t-2 -67t2 -67t9.5 -62t20 -54.5t36 -35.5t55.5 -14t55.5 14t36 35.5t20 54.5
t9.5 62t2 67zM303 611q0 25 18 42.5t43 17.5t42.5 -17.5t17.5 -42.5t-17.5 -43t-42.5 -18t-43 18t-18 43zM124 611q0 25 17.5 42.5t42.5 17.5t43 -17.5t18 -42.5t-18 -43t-43 -18t-42.5 18t-17.5 43z" />
    <glyph glyph-name="divide" unicode="&#xf7;" horiz-adv-x="508" 
d="M172 406q0 34 23.5 58t58 24t58 -24t23.5 -58t-24 -57.5t-58 -23.5t-57.5 23.5t-23.5 57.5zM193 406q0 -25 17.5 -42.5t42.5 -17.5t42.5 17.5t17.5 43t-17.5 42.5t-42.5 17t-42.5 -17.5t-17.5 -42.5zM172 71q0 34 23.5 58t58 24t58 -23.5t23.5 -58t-24 -58t-58 -23.5
t-57.5 23.5t-23.5 57.5zM193 71q0 -25 17.5 -42.5t42.5 -17.5t42.5 17.5t17.5 42.5t-17.5 42.5t-42.5 17.5t-42.5 -17.5t-17.5 -42.5zM491 247v-21h-474v21h474z" />
    <glyph glyph-name="oslash" unicode="&#xf8;" horiz-adv-x="546" 
d="M273 -20q-43 0 -85 15l-31 -67h-24l35 76q-55 29 -85 88.5t-30 137.5q0 110 58 180t162 70q60 0 105 -25l28 59h25l-33 -71q95 -66 95 -213q0 -110 -58 -180t-162 -70zM150 230q0 -137 36 -189l175 376q-31 46 -88 46q-32 0 -55.5 -14t-36 -35.5t-19.5 -54.5
q-12 -51 -12 -129zM374 392l-173 -370q28 -25 66 -25t61.5 14t36 35.5t19.5 54.5q12 51 12 145t-22 146z" />
    <glyph glyph-name="ugrave" unicode="&#xf9;" horiz-adv-x="599" 
d="M406 445h-71v15h21q78 0 139 13v-458h66v-15h-157v87h-6q-17 -48 -57.5 -77.5t-90.5 -29.5q-85 0 -114.5 51t-29.5 154v260h-71v15h21q78 0 139 13v-274q0 -94 7 -118t15 -41q16 -32 54.5 -32t67 23t42.5 63q25 71 25 170v181zM140 647q0 15 9.5 24t29 9t41.5 -27
q4 -8 13 -17t16.5 -18t13 -13.5t14.5 -13t17 -14.5l19 -14q17 -12 48 -29l-7 -15l-180 84q-34 15 -34 44z" />
    <glyph glyph-name="uacute" unicode="&#xfa;" horiz-adv-x="599" 
d="M406 445h-71v15h21q78 0 139 13v-458h66v-15h-157v87h-6q-17 -48 -57.5 -77.5t-90.5 -29.5q-85 0 -114.5 51t-29.5 154v260h-71v15h21q78 0 139 13v-274q0 -94 7 -118t15 -41q16 -32 54.5 -32t67 23t42.5 63q25 71 25 170v181zM367 653q23 27 42 27t28.5 -9t9.5 -24
q0 -29 -34 -44l-180 -84l-7 15q47 25 66.5 42l25 21.5t15.5 16t12 13.5t12 14z" />
    <glyph glyph-name="ucircumflex" unicode="&#xfb;" horiz-adv-x="599" 
d="M406 445h-71v15h21q78 0 139 13v-458h66v-15h-157v87h-6q-17 -48 -57.5 -77.5t-90.5 -29.5q-85 0 -114.5 51t-29.5 154v260h-71v15h21q78 0 139 13v-274q0 -94 7 -118t15 -41q16 -32 54.5 -32t67 23t42.5 63q25 71 25 170v181zM301 680q23 0 46 -27q4 -8 13 -17t16.5 -18
t13 -13.5t14.5 -13t17 -14.5l19 -14q17 -12 48 -29l-7 -15l-180 84l-180 -84l-7 15q47 25 66.5 42l25 21.5t15.5 16t12 13.5t12 14l10 12q23 27 46 27z" />
    <glyph glyph-name="udieresis" unicode="&#xfc;" horiz-adv-x="599" 
d="M330 611q0 25 18 42.5t43 17.5t42.5 -17.5t17.5 -42.5t-17.5 -43t-42.5 -18t-43 18t-18 43zM151 611q0 25 17.5 42.5t42.5 17.5t43 -17.5t18 -42.5t-18 -43t-43 -18t-42.5 18t-17.5 43zM406 445h-71v15h21q78 0 139 13v-458h66v-15h-157v87h-6q-17 -48 -57.5 -77.5
t-90.5 -29.5q-85 0 -114.5 51t-29.5 154v260h-71v15h21q78 0 139 13v-274q0 -94 7 -118t15 -41q16 -32 54.5 -32t67 23t42.5 63q25 71 25 170v181z" />
    <glyph glyph-name="yacute" unicode="&#xfd;" horiz-adv-x="480" 
d="M344 653q22 27 42 27q38 0 38 -33q0 -29 -34 -44l-180 -84l-7 15q47 25 66.5 42l25 21.5t15.5 16t12 13.5t12 14zM268 -233q-50 0 -80 35.5t-30 91.5q0 85 88 149l-1 4q-68 4 -119 93t-51 249v56h-71v15h21q79 0 141 13v-61q0 -141 33.5 -227.5t96.5 -86.5q45 0 94 68
t49 154q0 49 -14 86.5t-44 49.5q-10 5 -23 5t-13 -8.5t9 -9.5q27 -5 26 -34q0 -56 -52 -56q-24 0 -39.5 17t-15.5 44.5t22 46.5t53 19q56 0 82.5 -44t26.5 -112q0 -161 -132 -249q-2 -2 -21 -14t-23.5 -15.5t-21.5 -15.5t-22.5 -18t-18.5 -18.5t-18 -21.5l-12 -22
q-12 -22 -12 -62.5t25 -71t56 -30.5q10 0 10 8t-9 10q-26 6 -26 40q0 21 15.5 34.5t38 13.5t38 -16.5t15.5 -42.5t-21 -46t-50 -20z" />
    <glyph glyph-name="thorn" unicode="&#xfe;" horiz-adv-x="570" 
d="M193 -200h66v-15h-221v15h66v875h-71v15h21q78 0 139 13v-334h6q18 51 53.5 81t84.5 30q90 0 133.5 -70.5t43.5 -178.5t-45 -179.5t-138 -71.5t-132 82h-6v-262zM191 231v-36q0 -78 30 -132.5t94 -54.5q69 0 87 78q15 63 15 126t-3.5 96t-13 68.5t-32 55.5t-54 20
t-56 -22.5t-38.5 -57.5q-29 -71 -29 -141z" />
    <glyph glyph-name="ydieresis" unicode="&#xff;" horiz-adv-x="480" 
d="M282 611q0 25 18 42.5t43 17.5t42.5 -17.5t17.5 -42.5t-17.5 -43t-42.5 -18t-43 18t-18 43zM103 611q0 25 17.5 42.5t42.5 17.5t43 -17.5t18 -42.5t-18 -43t-43 -18t-42.5 18t-17.5 43zM268 -233q-50 0 -80 35.5t-30 91.5q0 85 88 149l-1 4q-68 4 -119 93t-51 249v56h-71
v15h21q79 0 141 13v-61q0 -141 33.5 -227.5t96.5 -86.5q45 0 94 68t49 154q0 49 -14 86.5t-44 49.5q-10 5 -23 5t-13 -8.5t9 -9.5q27 -5 26 -34q0 -56 -52 -56q-24 0 -39.5 17t-15.5 44.5t22 46.5t53 19q56 0 82.5 -44t26.5 -112q0 -161 -132 -249q-2 -2 -21 -14
t-23.5 -15.5t-21.5 -15.5t-22.5 -18t-18.5 -18.5t-18 -21.5l-12 -22q-12 -22 -12 -62.5t25 -71t56 -30.5q10 0 10 8t-9 10q-26 6 -26 40q0 21 15.5 34.5t38 13.5t38 -16.5t15.5 -42.5t-21 -46t-50 -20z" />
    <glyph glyph-name="Aogonek" unicode="&#x104;" horiz-adv-x="636" 
d="M451 -161l-5 20q0 21 14 33t36 12t36 -16t14 -42t-19 -43.5t-50 -17.5t-51 24.5t-20 58.5q0 85 91 132h-125v16h74l-69 226h-191l-32 -94q-11 -30 -11 -58.5t10.5 -43.5t33.5 -21q35 -9 93 -9h17v-16h-296v16q53 0 80.5 29.5t48.5 92.5l163 471q7 22 13 33q14 28 46 28h3
l202 -654h71v-16h-80q-48 -14 -80 -41q-43 -37 -43 -82.5t17 -45.5q9 0 9 8zM284 526l-92 -268h180l-82 268h-6z" />
    <glyph glyph-name="aogonek" unicode="&#x105;" horiz-adv-x="525" 
d="M392 -161l-5 20q0 21 14 33t36 12t36 -16t14 -42t-19 -43.5t-50 -17.5t-51 24.5t-20 58.5q0 68 61 113q-46 10 -46 110h-6q-13 -53 -53 -82t-102.5 -29t-109.5 33.5t-47 96.5q0 47 27 78q56 64 254 64h23v49q0 79 -27 119t-93.5 40t-97.5 -27t-31 -56q0 -9 8.5 -9t9.5 9
q6 26 40 26q22 0 35 -15.5t13 -38t-16.5 -38t-43 -15.5t-46 20.5t-19.5 50.5q0 56 47 84.5t114 28.5q119 0 157.5 -53.5t38.5 -186.5v-177q0 -41 18 -41q37 0 49 115l18 -2q-12 -127 -73 -150q-32 -15 -53 -37.5t-25.5 -41.5t-4.5 -35q0 -40 17 -40q9 0 9 8zM348 167v67
h-31.5t-51 -3t-60.5 -15q-64 -23 -64 -102q0 -48 23 -77t74 -29t80.5 46t29.5 113z" />
    <glyph glyph-name="Eogonek" unicode="&#x118;" horiz-adv-x="619" 
d="M450 -161l-5 20q0 21 14 33t36 12t36 -16t14 -42t-19 -43.5t-50 -17.5t-51 24.5t-20 58.5q0 85 91 132h-444v16h73v618h-73v16h481v-208h-16q0 121 -37.5 156.5t-160.5 35.5h-90v-287h53q72 0 99 27.5t27 100.5h17v-275h-17q0 74 -27 102.5t-99 28.5h-53v-315h81
q76 0 117 8t67 35t34.5 67.5t12.5 118.5h16l-10 -245q-48 -14 -79 -41q-44 -37 -44 -82.5t17 -45.5q9 0 9 8z" />
    <glyph glyph-name="eogonek" unicode="&#x119;" horiz-adv-x="490" 
d="M261 -161l-5 20q0 21 14 33t36 12t36 -16t14 -42t-19 -43.5t-50 -17.5t-51 24.5t-20 58.5q0 67 60 112h-11q-104 0 -158 68.5t-54 181.5t58 181.5t165 68.5q75 0 125.5 -32t50.5 -96q0 -99 -113 -122q-57 -11 -142 -11h-47v-29q0 -81 33.5 -131.5t98 -50.5t101 38
t51.5 98l18 -2q-26 -114 -124 -152q-36 -14 -59.5 -38t-28.5 -44.5t-5 -36.5q0 -40 17 -40q9 0 9 8zM150 237h35q81 0 113.5 16t44.5 39.5t12 66.5t-21.5 73.5t-65.5 30.5t-71.5 -31.5t-37 -73.5t-9.5 -93v-28z" />
    <glyph glyph-name="hbar" unicode="&#x127;" horiz-adv-x="635" 
d="M44 528v19h49v128h-71v15h21q79 0 141 13v-156h139v-19h-139v-155h6q17 48 57.5 77.5t90.5 29.5q87 0 119 -51.5t32 -153.5v-260h66v-15h-221v15h66v246q0 113 -17 149q-8 16 -24.5 29t-48.5 13t-60.5 -23t-42.5 -63q-25 -71 -25 -170v-181h66v-15h-221v15h66v513h-49z
" />
    <glyph glyph-name="Itilde" unicode="&#x128;" horiz-adv-x="354" 
d="M125 634h-73v16h260v-16h-83v-618h83v-16h-260v16h73v618zM51 764.5q20 31.5 50.5 31.5t84 -26t73.5 -26q50 0 50 51h15q0 -47 -20 -78.5t-51 -31.5t-84.5 26t-72.5 26q-50 0 -50 -51h-15q0 47 20 78.5z" />
    <glyph glyph-name="itilde" unicode="&#x129;" horiz-adv-x="300" 
d="M197 15h66v-15h-221v15h66v430h-71v15h21q78 0 139 13v-458zM23 639.5q20 31.5 50.5 31.5t84 -26t73.5 -26q50 0 50 51h15q0 -47 -20 -78.5t-51 -31.5t-84.5 26t-72.5 26q-50 0 -50 -51h-15q0 47 20 78.5z" />
    <glyph glyph-name="Iogonek" unicode="&#x12e;" horiz-adv-x="354" 
d="M113 -161l-5 20q0 21 14 33t36 12t36 -16t14 -42t-19 -43.5t-50 -17.5t-51 24.5t-20 58.5q0 85 91 132h-107v16h73v618h-73v16h260v-16h-83v-618h83v-16h-102q-48 -14 -80 -41q-43 -37 -43 -82.5t17 -45.5q9 0 9 8z" />
    <glyph glyph-name="iogonek" unicode="&#x12f;" horiz-adv-x="296" 
d="M98 -158l-5 20q0 21 14 33t36 12t36 -16t14 -42t-19 -43.5t-50 -17.5t-51 24.5t-20 58.5q0 82 85 129h-96v15h66v430h-71v15h21q78 0 139 13v-458h66v-15h-78q-44 -14 -73 -40.5t-34.5 -48t-5.5 -37.5q0 -40 17 -40q9 0 9 8zM91 611q0 25 16.5 42t41.5 17t42 -17t17 -42
t-17 -41.5t-42 -16.5t-41.5 16.5t-16.5 41.5z" />
    <glyph glyph-name="dotlessi" unicode="&#x131;" horiz-adv-x="296" 
d="M197 15h66v-15h-221v15h66v430h-71v15h21q78 0 139 13v-458z" />
    <glyph glyph-name="ij" unicode="&#x133;" horiz-adv-x="583" 
d="M197 15h66v-15h-221v15h66v430h-71v15h21q78 0 139 13v-458zM91 611q0 25 16.5 42t41.5 17t42 -17t17 -42t-17 -41.5t-42 -16.5t-41.5 16.5t-16.5 41.5zM388 611q0 25 16.5 42t41.5 17t42 -17t17 -42t-17 -41.5t-42 -16.5t-41.5 16.5t-16.5 41.5zM328 -131q-13 0 -13 -26
t20.5 -43t50.5 -17q76 0 76 95q0 35 -26.5 81t-26.5 81v405h-71v15h21q78 0 139 13v-526q0 -182 -112 -182q-38 0 -63.5 23t-25.5 55.5t20 55.5t47 23t43.5 -15.5t16.5 -38t-13 -38t-33.5 -15.5t-31.5 10t-11 25l1 11q0 8 -8 8z" />
    <glyph glyph-name="Jcircumflex" unicode="&#x134;" horiz-adv-x="369" 
d="M63 -131q-13 0 -13 -26t20.5 -43t55.5 -17t55 26.5t20 64.5t-30.5 91.5t-30.5 94.5v574h-83v16h260v-16h-73v-667q0 -99 -32 -150.5t-91 -51.5q-38 0 -63.5 23t-25.5 55.5t19.5 54.5t47 22t44 -14.5t16.5 -37t-13 -38t-33.5 -15.5t-31.5 10t-11 25l1 11q0 8 -8 8z
M138 834q23 27 46.5 27t45.5 -27q4 -8 13 -17t16.5 -18t13 -13.5t14.5 -13t17 -14.5l19 -14q17 -12 48 -29l-7 -15l-180 84l-180 -84l-7 15q47 25 66.5 42l25 21.5t15.5 16t12 13.5t12 14z" />
    <glyph glyph-name="jcircumflex" unicode="&#x135;" horiz-adv-x="287" 
d="M32 -131q-13 0 -13 -26t20.5 -43t50.5 -17q76 0 76 95q0 35 -26.5 81t-26.5 81v405h-71v15h21q78 0 139 13v-526q0 -182 -112 -182q-38 0 -63.5 23t-25.5 55.5t20 55.5t47 23t43.5 -15.5t16.5 -38t-13 -38t-33.5 -15.5t-31.5 10t-11 25l1 11q0 8 -8 8zM150 680
q24 0 46 -27q4 -8 13 -17t16.5 -18t13 -13.5t14.5 -13t17 -14.5l19 -14q17 -12 48 -29l-7 -15l-180 84l-180 -84l-7 15q47 25 66.5 42l25 21.5t15.5 16t12 13.5t12 14l10 12q22 27 46 27z" />
    <glyph glyph-name="kcedilla" unicode="&#x137;" horiz-adv-x="492" 
d="M257 262l-64 -11v-236h66v-15l-29 -73q30 22 66 22t66 -24t30 -68.5t-24.5 -68t-58.5 -23.5t-54.5 19t-20.5 45t15.5 42.5t38 16.5t38 -13.5t15.5 -34.5q0 -33 -26 -39q-9 -1 -9 -9.5t10 -8.5q23 0 40.5 19t17.5 53t-24.5 55t-52.5 21q-53 0 -81 -43l-14 17l37 95h-201
v15h66v660h-71v15h21q78 0 139 13v-435q198 26 198 128q0 30 -15.5 48t-38.5 18q-10 0 -10 -8t9 -10q26 -6 26 -39q0 -21 -15.5 -34.5t-38 -13.5t-38 16.5t-15.5 42.5t20.5 45t54.5 19t56 -22.5t22 -61.5q0 -83 -104 -120v-2q78 -4 102 -41t24 -121v-38q0 -38 6.5 -54.5
t24.5 -16.5q7 0 18 3l2 -12q-26 -7 -54 -7q-86 0 -86 99v54q0 122 -78 122h-6z" />
    <glyph glyph-name="kgreenlandic" unicode="&#x138;" horiz-adv-x="492" 
d="M257 232l-64 -11v-206h66v-15h-221v15h66v430h-71v15h21q78 0 139 13v-235q75 10 131.5 52.5t56.5 105.5q0 30 -15.5 48t-38.5 18q-10 0 -10 -8t9 -10q26 -6 26 -39q0 -21 -15.5 -34.5t-38 -13.5t-38 16.5t-15.5 42.5t20.5 45t54.5 19t56 -22.5t22 -61.5q0 -83 -93 -141
l1 -4q68 0 96 -34.5t28 -120.5v-20q0 -38 6.5 -54.5t24.5 -16.5q7 0 18 3l2 -12q-26 -7 -54 -7q-86 0 -86 99v22q0 62 -18 92t-60 30h-6z" />
    <glyph glyph-name="ldot" unicode="&#x140;" horiz-adv-x="374" 
d="M238 15h66v-15h-221v15h66v660h-71v15h21q78 0 139 13v-688zM303 358q0 25 16.5 42t41.5 17t42 -17t17 -42t-17 -41.5t-42 -16.5t-41.5 16.5t-16.5 41.5z" />
    <glyph glyph-name="Lslash" unicode="&#x141;" horiz-adv-x="557" 
d="M52 0v16h73v230l-94 -37v22l94 37v366h-73v16h270v-16h-93v-324l234 94v-22l-234 -94v-272h51q76 0 117 7.5t67 35.5t34.5 68t12.5 118h16l-10 -245h-465z" />
    <glyph glyph-name="lslash" unicode="&#x142;" horiz-adv-x="290" 
d="M194 15h66v-15h-221v15h66v295l-113 -43v21l113 42v345h-71v15h21q78 0 139 13v-339l105 40v-20l-105 -40v-329z" />
    <glyph glyph-name="Nacute" unicode="&#x143;" horiz-adv-x="662" 
d="M537 507v-514h-16q-33 0 -53.5 21t-54.5 80l-264 454h-4v-405q0 -73 27.5 -100t100.5 -27h7v-16h-286v16q73 0 102 27.5t29 99.5v446q-27 46 -105 46v15h104q48 0 72.5 -16.5t49.5 -58.5l265 -455h6v387q0 73 -27.5 100t-100.5 27h-7v16h286v-16q-73 0 -102 -27.5
t-29 -99.5zM379 834q23 27 42 27t28.5 -9t9.5 -24q0 -29 -34 -44l-180 -84l-7 15q47 25 66.5 42l25 21.5t15.5 16t12 13.5t12 14z" />
    <glyph glyph-name="nacute" unicode="&#x144;" horiz-adv-x="588" 
d="M261 15v-15h-221v15h66v430h-71v15h21q79 0 141 13v-100h6q17 48 57.5 77.5t90.5 29.5q87 0 119 -51.5t32 -153.5v-260h66v-15h-221v15h66v246q0 113 -17 149q-8 16 -24.5 29t-48.5 13t-60.5 -23t-42.5 -63q-25 -71 -25 -170v-181h66zM324 653q22 27 42 27q38 0 38 -33
q0 -29 -34 -44l-180 -84l-7 15q47 25 66.5 42l25 21.5t15.5 16t12 13.5t12 14z" />
    <glyph glyph-name="OE" unicode="&#x152;" horiz-adv-x="1008" 
d="M335 -20q-134 0 -208.5 100.5t-74.5 245.5t76 244.5t207 99.5q58 0 106 -21v1h481v-208h-16q0 121 -37.5 156.5t-160.5 35.5h-90v-287h53q72 0 99 27.5t27 100.5h17v-275h-17q0 74 -27 102.5t-99 28.5h-53v-315h81q76 0 117 8t67 35t34.5 67.5t12.5 118.5h16l-10 -245
h-495q-53 -20 -106 -20zM269 11.5q28 -12.5 65.5 -12.5t65 13t44.5 39t28 54.5t16 70.5t6.5 74t1.5 78t-1.5 77.5t-6.5 73t-16 69t-28 53t-44.5 38t-64.5 12.5t-64.5 -12.5t-44.5 -38t-28 -53t-16 -69.5q-8 -66 -8 -132.5t1 -97t5.5 -74t15.5 -70.5t28 -53.5t45 -39z" />
    <glyph glyph-name="oe" unicode="&#x153;" horiz-adv-x="833" 
d="M619 480q75 0 125.5 -32t50.5 -96q0 -99 -113 -122q-57 -11 -142 -11h-47v-29q0 -81 33.5 -131.5t98 -50.5t101 38t51.5 98l18 -2q-16 -73 -64.5 -117.5t-122.5 -44.5q-111 0 -166 79q-60 -79 -166.5 -79t-164.5 70t-58 180t58 180t166 70t167 -82q59 82 175 82z
M217.5 11q23.5 -14 58.5 -14t61 18.5t38 52.5q21 61 21 151v22q0 162 -59 203q-26 19 -61 19t-58.5 -14t-36 -35.5t-20 -54.5t-9.5 -62t-2 -67t2 -67t9.5 -62t20 -54.5t36 -35.5zM493 237h35q81 0 113.5 16t44.5 39.5t12 66.5t-21.5 73.5t-65.5 30.5t-71.5 -31.5t-37 -73.5
t-9.5 -93v-28z" />
    <glyph glyph-name="Racute" unicode="&#x154;" horiz-adv-x="667" 
d="M520 -10q-36 0 -58 30t-22 89v66q0 85 -33.5 120t-105.5 35h-72v-314h83v-16h-260v16h73v618h-73v16h241q151 0 204 -34q23 -14 39 -41.5t16 -66.5q0 -68 -40 -112.5t-117 -54.5v-5q92 0 121.5 -44t29.5 -150v-46q0 -36 5 -49.5t17.5 -13.5t26 20t22.5 60l18 -4
q-24 -119 -115 -119zM408.5 378.5q31.5 32.5 31.5 119t-36.5 111.5t-124.5 25h-50v-288h64q84 0 115.5 32.5zM349 834q23 27 42 27t28.5 -9t9.5 -24q0 -29 -34 -44l-180 -84l-7 15q47 25 66.5 42l25 21.5t15.5 16t12 13.5t12 14z" />
    <glyph glyph-name="Rcommaaccent" unicode="&#x156;" horiz-adv-x="667" 
d="M520 -10q-36 0 -58 30t-22 89v66q0 85 -33.5 120t-105.5 35h-72v-314h83v-16h-260v16h73v618h-73v16h241q151 0 204 -34q23 -14 39 -41.5t16 -66.5q0 -68 -40 -112.5t-117 -54.5v-5q92 0 121.5 -44t29.5 -150v-46q0 -36 5 -49.5t17.5 -13.5t26 20t22.5 60l18 -4
q-24 -119 -115 -119zM408.5 378.5q31.5 32.5 31.5 119t-36.5 111.5t-124.5 25h-50v-288h64q84 0 115.5 32.5zM396 -66.5q19 -20.5 19 -54t-22.5 -58t-59.5 -25.5l-4 18q29 0 47.5 17.5t18.5 40.5q0 10 -8.5 10t-9.5 -9q-6 -27 -32.5 -27t-40 14.5t-13.5 38t16.5 39.5t43 16
t45.5 -20.5z" />
    <glyph glyph-name="rcommaaccent" unicode="&#x157;" horiz-adv-x="408" 
d="M396 404q0 26 -19 43t-51 17t-59.5 -25.5t-42.5 -66.5q-27 -79 -27 -171v-186h73v-15h-228v15h66v430h-71v15h21q80 0 141 13v-104h6q42 111 126 111q37 0 60.5 -23.5t23.5 -58t-19.5 -55t-46 -20.5t-43 15.5t-16.5 38t13 38t35 15.5q34 0 40 -26q2 -9 10 -9t8 9z
M199 -128q0 10 -8.5 10t-9.5 -9q-6 -27 -32.5 -27t-40 14.5t-13.5 38t16.5 39.5t43 16t45.5 -20.5t19 -54t-22.5 -58t-59.5 -25.5l-4 18q29 0 47.5 17.5t18.5 40.5z" />
    <glyph glyph-name="Rcaron" unicode="&#x158;" horiz-adv-x="667" 
d="M520 -10q-36 0 -58 30t-22 89v66q0 85 -33.5 120t-105.5 35h-72v-314h83v-16h-260v16h73v618h-73v16h241q151 0 204 -34q23 -14 39 -41.5t16 -66.5q0 -68 -40 -112.5t-117 -54.5v-5q92 0 121.5 -44t29.5 -150v-46q0 -36 5 -49.5t17.5 -13.5t26 20t22.5 60l18 -4
q-24 -119 -115 -119zM408.5 378.5q31.5 32.5 31.5 119t-36.5 111.5t-124.5 25h-50v-288h64q84 0 115.5 32.5zM305 700q-23 0 -46 27q-4 8 -13 17t-16.5 18t-13 13.5t-14.5 13t-17 14.5l-19 14q-17 12 -48 29l7 15l180 -84l180 84l7 -15q-47 -25 -66.5 -42l-25 -21.5
t-15.5 -16t-12 -13.5t-12 -14l-10 -12q-23 -27 -46 -27z" />
    <glyph glyph-name="rcaron" unicode="&#x159;" horiz-adv-x="433" 
d="M421 404q0 26 -19 43t-51 17t-59.5 -25.5t-41.5 -66.5q-28 -79 -28 -171v-186h73v-15h-228v15h66v430h-71v15h21q80 0 141 13v-104h6q42 111 126 111q37 0 60.5 -23.5t23.5 -58t-19.5 -55t-46 -20.5t-43 15.5t-16.5 38t13 38t35 15.5q34 0 40 -26q1 -9 9.5 -9t8.5 9z
M224 519q-24 0 -46 27q-4 8 -13 17t-16.5 18t-13 13.5t-14.5 13t-17 14.5l-19 14q-17 12 -48 29l7 15l180 -84l180 84l7 -15q-47 -25 -66.5 -42l-25 -21.5t-15.5 -16t-12 -13.5t-12 -14l-10 -12q-22 -27 -46 -27z" />
    <glyph glyph-name="Uogonek" unicode="&#x172;" horiz-adv-x="679" 
d="M365 -161l-5 20q0 21 14 33t36 12t36 -16t14 -42t-19 -43.5t-50 -17.5t-51 24.5t-20 58.5q0 68 60 113q-6 -1 -19 -1q-139 0 -195 93q-50 84 -50 235v326h-73v16h260v-16h-83v-326q0 -140 14 -190q17 -61 47 -84q41 -31 91 -31t80 17t47 43.5t27 66.5q16 65 16 163v214
q0 73 -27.5 100t-100.5 27h-7v16h286v-16q-73 0 -102 -27.5t-29 -99.5v-179q0 -174 -32 -245q-30 -66 -93 -91q-37 -14 -62.5 -39.5t-30.5 -45.5t-5 -36q0 -40 17 -40q9 0 9 8z" />
    <glyph glyph-name="uogonek" unicode="&#x173;" horiz-adv-x="599" 
d="M464 -161l-5 20q0 21 14 33t36 12t36 -16t14 -42t-19 -43.5t-50 -17.5t-51 24.5t-20 58.5q0 85 91 132h-106v87h-6q-17 -48 -57.5 -77.5t-90.5 -29.5q-85 0 -114.5 51t-29.5 154v260h-71v15h21q78 0 139 13v-274q0 -94 7 -118t15 -41q16 -32 54.5 -32t67 23t42.5 63
q25 71 25 170v181h-71v15h21q78 0 139 13v-458h66v-15q-48 -14 -79 -41q-44 -37 -44 -82.5t17 -45.5q9 0 9 8z" />
    <glyph glyph-name="Ydieresis" unicode="&#x178;" horiz-adv-x="643" 
d="M647 649v-16q-47 -2 -79 -19.5t-55 -62.5l-121 -240v-295h83v-16h-260v16h73v285l-179 333h-73v16h268v-16h-83l160 -303l84 163q26 52 26 84t-24.5 43.5t-71.5 11.5h-8v16h260zM380 792q0 25 18 42.5t43 17.5t42.5 -17.5t17.5 -42.5t-17.5 -43t-42.5 -18t-43 18t-18 43z
M201 792q0 25 17.5 42.5t42.5 17.5t43 -17.5t18 -42.5t-18 -43t-43 -18t-42.5 18t-17.5 43z" />
    <glyph glyph-name="dotlessj" unicode="&#x237;" horiz-adv-x="280" 
d="M32 -131q-13 0 -13 -26t20.5 -43t50.5 -17q76 0 76 95q0 35 -26.5 81t-26.5 81v405h-71v15h21q78 0 139 13v-526q0 -182 -112 -182q-38 0 -63.5 23t-25.5 55.5t20 55.5t47 23t43.5 -15.5t16.5 -38t-13 -38t-33.5 -15.5t-31.5 10t-11 25l1 11q0 8 -8 8z" />
    <glyph glyph-name="circumflex" unicode="&#x2c6;" horiz-adv-x="374" 
d="M187 680q23 0 46 -27q4 -8 13 -17t16.5 -18t13 -13.5t14.5 -13t17 -14.5l19 -14q17 -12 48 -29l-7 -15l-180 84l-180 -84l-7 15q47 25 66.5 42l25 21.5t15.5 16t12 13.5t12 14l10 12q23 27 46 27z" />
    <glyph glyph-name="caron" unicode="&#x2c7;" horiz-adv-x="374" 
d="M187 519q-23 0 -46 27q-4 8 -13 17t-16.5 18t-13 13.5t-14.5 13t-17 14.5l-19 14q-17 12 -48 29l7 15l180 -84l180 84l7 -15q-47 -25 -66.5 -42l-25 -21.5t-15.5 -16t-12 -13.5t-12 -14l-10 -12q-23 -27 -46 -27z" />
    <glyph glyph-name="breve" unicode="&#x2d8;" horiz-adv-x="287" 
d="M147 531q-40 0 -67.5 27.5t-28.5 66.5h20q2 -31 23.5 -52.5t52.5 -21.5t52.5 21.5t23.5 52.5h20q-1 -39 -28.5 -66.5t-67.5 -27.5z" />
    <glyph glyph-name="dotaccent" unicode="&#x2d9;" horiz-adv-x="205" 
d="M41 579q0 25 17.5 42.5t42.5 17.5t43 -17.5t18 -42.5t-18 -43t-43 -18t-42.5 18t-17.5 43z" />
    <glyph glyph-name="ring" unicode="&#x2da;" horiz-adv-x="169" 
d="M43 581q0 -17 12.5 -30t29 -13t29 13t12.5 30t-12.5 29.5t-29 12.5t-29 -12.5t-12.5 -29.5zM42 537.5q-17 17.5 -17 43t17 43t42 17.5t42.5 -17.5t17.5 -43t-17.5 -43t-42.5 -17.5t-42 17.5z" />
    <glyph glyph-name="ogonek" unicode="&#x2db;" horiz-adv-x="321" 
d="M142 -161l-5 20q0 21 14 33t36 12t36 -16t14 -42t-19 -43.5t-50 -17.5t-51 24.5t-20 58.5q0 54 39 93.5t98 56.5l5 -18q-48 -14 -79 -41q-44 -37 -44 -82.5t17 -45.5q9 0 9 8z" />
    <glyph glyph-name="tilde" unicode="&#x2dc;" horiz-adv-x="469" 
d="M117 639.5q20 31.5 50.5 31.5t84 -26t73.5 -26q50 0 50 51h15q0 -47 -20 -78.5t-51 -31.5t-84.5 26t-72.5 26q-50 0 -50 -51h-15q0 47 20 78.5z" />
    <glyph glyph-name="hungarumlaut" unicode="&#x2dd;" horiz-adv-x="435" 
d="M459 693l6 -17l-248 -85l-6 17zM240 693l6 -17l-248 -85l-6 17z" />
    <glyph glyph-name="endash" unicode="&#x2013;" horiz-adv-x="484" 
d="M479 247v-21h-474v21h474z" />
    <glyph glyph-name="emdash" unicode="&#x2014;" horiz-adv-x="954" 
d="M948 247v-21h-947v21h947z" />
    <glyph glyph-name="quoteleft" unicode="&#x2018;" horiz-adv-x="228" 
d="M45 564q0 75 88 125l9 -15q-34 -19 -56.5 -48t-22.5 -60t17.5 -49t40.5 -18q10 0 10 8.5t-9 9.5q-26 6 -26 38q0 21 15.5 34.5t38 13.5t38 -16.5t15.5 -42.5t-20.5 -45t-54.5 -19t-58.5 23t-24.5 61z" />
    <glyph glyph-name="quoteright" unicode="&#x2019;" horiz-adv-x="228" 
d="M183 605q0 -75 -88 -125l-9 15q34 19 56.5 48t22.5 60t-17.5 49t-40.5 18q-10 0 -10 -8t9 -10q26 -6 26 -38q0 -21 -15.5 -34.5t-38 -13.5t-38 16.5t-15.5 42.5t20.5 45t54.5 19t58.5 -23t24.5 -61z" />
    <glyph glyph-name="quotesinglbase" unicode="&#x201a;" horiz-adv-x="252" 
d="M196 29q0 -75 -88 -125l-9 15q34 19 56.5 48t22.5 60t-17.5 49t-40.5 18q-10 0 -10 -8t9 -10q26 -6 26 -38q0 -21 -15.5 -34.5t-38 -13.5t-38 16.5t-15.5 42.5t20.5 45t54.5 19t58.5 -23t24.5 -61z" />
    <glyph glyph-name="quotedblleft" unicode="&#x201c;" horiz-adv-x="413" 
d="M45 564q0 75 88 125l9 -15q-34 -19 -56.5 -48t-22.5 -60t17.5 -49t40.5 -18q10 0 10 8.5t-9 9.5q-26 6 -26 38q0 21 15.5 34.5t38 13.5t38 -16.5t15.5 -42.5t-20.5 -45t-54.5 -19t-58.5 23t-24.5 61zM230 564q0 75 88 125l9 -15q-34 -19 -56.5 -48t-22.5 -60t17.5 -49
t40.5 -18q10 0 10 8.5t-9 9.5q-26 6 -26 38q0 21 15.5 34.5t38 13.5t38 -16.5t15.5 -42.5t-20.5 -45t-54.5 -19t-58.5 23t-24.5 61z" />
    <glyph glyph-name="quotedblright" unicode="&#x201d;" horiz-adv-x="413" 
d="M368 605q0 -75 -88 -125l-9 15q34 19 56.5 48t22.5 60t-17.5 49t-40.5 18q-10 0 -10 -8t9 -10q26 -6 26 -38q0 -21 -15.5 -34.5t-38 -13.5t-38 16.5t-15.5 42.5t20.5 45t54.5 19t58.5 -23t24.5 -61zM183 605q0 -75 -88 -125l-9 15q34 19 56.5 48t22.5 60t-17.5 49
t-40.5 18q-10 0 -10 -8t9 -10q26 -6 26 -38q0 -21 -15.5 -34.5t-38 -13.5t-38 16.5t-15.5 42.5t20.5 45t54.5 19t58.5 -23t24.5 -61z" />
    <glyph glyph-name="quotedblbase" unicode="&#x201e;" horiz-adv-x="467" 
d="M196 29q0 -75 -88 -125l-9 15q34 19 56.5 48t22.5 60t-17.5 49t-40.5 18q-10 0 -10 -8t9 -10q26 -6 26 -38q0 -21 -15.5 -34.5t-38 -13.5t-38 16.5t-15.5 42.5t20.5 45t54.5 19t58.5 -23t24.5 -61zM411 29q0 -75 -88 -125l-9 15q34 19 56.5 48t22.5 60t-17.5 49t-40.5 18
q-10 0 -10 -8t9 -10q26 -6 26 -38q0 -21 -15.5 -34.5t-38 -13.5t-38 16.5t-15.5 42.5t20.5 45t54.5 19t58.5 -23t24.5 -61z" />
    <glyph glyph-name="dagger" unicode="&#x2020;" horiz-adv-x="532" 
d="M191 439q-23 0 -52 -25.5t-52 -25.5t-40 17t-17 41.5t17 41.5t40 17t51 -24.5t58.5 -24.5t45.5 13.5t15 32.5q0 40 -25 84.5t-25 67.5t17 39.5t42 16.5t42 -16.5t17 -39.5t-25 -67.5t-25 -84.5q0 -19 15 -32.5t45.5 -13.5t58.5 24.5t51 24.5t40 -17t17 -41.5t-17 -41.5
t-40 -17t-52 25.5t-52 25.5q-45 0 -48 -65l-18 -485h-18l-18 485q-3 65 -48 65z" />
    <glyph glyph-name="daggerdbl" unicode="&#x2021;" horiz-adv-x="532" 
d="M288 222q0 -61 53 -61q23 0 52 25.5t52 25.5t40 -17t17 -41.5t-17 -41.5t-40 -17t-51 24.5t-58.5 24.5t-45.5 -13.5t-15 -32.5q0 -40 25 -84.5t25 -67.5t-17 -39.5t-42 -16.5t-42 16.5t-17 39.5t25 67.5t25 84.5q0 19 -15 32.5t-45.5 13.5t-58.5 -24.5t-51 -24.5t-40 17
t-17 41.5t17 41.5t40 17t52 -25.5t52 -25.5q51 0 51 62q0 41 -54 77q23 11 38.5 34t15.5 43q0 62 -51 62q-23 0 -52 -25.5t-52 -25.5t-40 17t-17 41.5t17 41.5t40 17t51 -24.5t58.5 -24.5t45.5 13.5t15 32.5q0 40 -25 84.5t-25 67.5t17 39.5t42 16.5t42 -16.5t17 -39.5
t-25 -67.5t-25 -84.5q0 -19 15 -32.5t45.5 -13.5t58.5 24.5t51 24.5t40 -17t17 -41.5t-17 -41.5t-40 -17t-52 25.5t-52 25.5q-53 0 -53 -61q0 -19 14.5 -38.5t29.5 -29.5l14 -10l-16 -11t-26 -27.5t-16 -39.5z" />
    <glyph glyph-name="bullet" unicode="&#x2022;" horiz-adv-x="545" 
d="M166 489.5q44 45.5 104.5 45.5t105.5 -45.5t45 -110.5t-44.5 -110t-106 -45t-105 44.5t-43.5 110t44 111z" />
    <glyph glyph-name="perthousand" unicode="&#x2030;" horiz-adv-x="1441" 
d="M599 376.5q54 68.5 142.5 68.5t143 -68.5t54.5 -164.5t-54.5 -164t-143 -68t-142.5 68.5t-54 164t54 164zM741 427q-106 0 -106 -214.5t106 -214.5q108 0 108 214.5t-108 214.5zM501 581q-26 0 -54 6.5t-43 13.5l-14 7q44 -64 44 -155.5t-54.5 -159.5t-143 -68
t-142.5 68.5t-54 164t54 164t142 68.5q56 0 124 -46q27 -17 65 -31t76 -14q75 0 123 34.5t64 67.5l9 16l17 -7l-423 -737l-14 9l368 643q-66 -44 -144 -44zM236 672q-106 0 -106 -214.5t106 -214.5q108 0 108 214.5t-108 214.5zM1061 376.5q54 68.5 142.5 68.5t143 -68.5
t54.5 -164.5t-54.5 -164t-143 -68t-142.5 68.5t-54 164t54 164zM1203 427q-106 0 -106 -214.5t106 -214.5q108 0 108 214.5t-108 214.5z" />
    <glyph glyph-name="guilsinglleft" unicode="&#x2039;" horiz-adv-x="201" 
d="M196 237l-129 -172l-17 13l119 159l-119 159l17 13z" />
    <glyph glyph-name="guilsinglright" unicode="&#x203a;" horiz-adv-x="201" 
d="M5 237l129 172l17 -13l-119 -159l119 -159l-17 -13z" />
    <glyph glyph-name="fraction" unicode="&#x2044;" horiz-adv-x="294" 
d="M-106 -206l545 925h25l-544 -925h-26z" />
    <glyph glyph-name="Euro" unicode="&#x20ac;" horiz-adv-x="480" 
d="M451 144l1 10h18q-23 -174 -182 -174q-91 0 -148.5 61t-66.5 169h-73v16h71v44h-71v16h73q11 100 78.5 156t163.5 56q35 0 70 -14t38 -14q24 0 24 28h16v-193h-16q-9 85 -36 129t-84 44t-95 -41t-44 -151h146v-16h-147v-44h147v-16h-146q5 -118 41.5 -160t95 -42t90 44
t36.5 92z" />
    <glyph glyph-name="minus" unicode="&#x2212;" horiz-adv-x="635" 
d="M575 247v-21h-474v21h474z" />
    <glyph glyph-name="approxequal" unicode="&#x2248;" horiz-adv-x="560" 
d="M461 287.5q-25 -9.5 -62 -9.5t-110.5 22t-104.5 22q-62 0 -129 -47l-8 16q75 49 139 49q38 0 107.5 -22t107.5 -22q62 0 114 42l12 -14q-41 -27 -66 -36.5zM461 148.5q-25 -9.5 -62 -9.5t-110.5 22t-104.5 22q-62 0 -129 -47l-8 16q75 49 139 49q38 0 107.5 -22
t107.5 -22q62 0 114 42l12 -14q-41 -27 -66 -36.5z" />
    <glyph glyph-name="notequal" unicode="&#x2260;" horiz-adv-x="642" 
d="M54 144v21h203l49 144h-252v21h259l49 144h22l-49 -144h193v-21h-200l-49 -144h249v-21h-256l-48 -144h-22l48 144h-196z" />
    <glyph glyph-name="lessequal" unicode="&#x2264;" horiz-adv-x="494" 
d="M472 50v-21h-478v21h478zM-6 217v26l475 139v-22l-445 -130l447 -130v-22z" />
    <glyph glyph-name="greaterequal" unicode="&#x2265;" horiz-adv-x="494" 
d="M22 29v21h478v-21h-478zM500 243v-26l-477 -139v22l447 130l-445 130v22z" />
    <glyph glyph-name="lozenge" unicode="&#x25ca;" horiz-adv-x="546" 
d="M446 337l-183 -329h-11l-182 329l182 330h11zM91 337l167 -301l167 301l-167 302z" />
    <glyph glyph-name="uhungarumalut" horiz-adv-x="0" 
 />
    <glyph glyph-name="f2" horiz-adv-x="309" 
d="M309 675h-17q15 -22 15 -51.5t-21.5 -49t-48 -19.5t-43.5 16t-17 43q0 57 73 72q-14 6 -28 6q-38 0 -57.5 -26.5t-19.5 -65t24.5 -76.5t27.5 -64h93v-15h-92v-430h66v-15h-221v15h66v430h-71v15h71v68q0 91 29.5 136.5t81.5 45.5q34 0 59 -21q5 1 17 1h13v-15zM273 587
q16 15 16 42t-19 44q-76 -8 -76 -59q0 -18 12.5 -30t31.5 -12t35 15z" />
    <glyph glyph-name="c_h" horiz-adv-x="1129" 
d="M324 460q-136 0 -136 -226t138 -226q52 0 85.5 38t46.5 98l18 -2q-15 -73 -60 -117.5t-114 -44.5q-103 0 -157 69.5t-54 182.5t54.5 180.5t162.5 67.5q69 0 112 -30t43 -91q0 -30 -19.5 -50.5t-46 -20.5t-43 15.5t-16.5 38t13 38t35 15.5q34 0 40 -26q2 -9 10 -9t8 9
q0 34 -30.5 62.5t-89.5 28.5zM750 15v-15h-221v15h66v660h-71v15h21q79 0 141 13v-330h6q17 48 57.5 77.5t90.5 29.5q87 0 119 -51.5t32 -153.5v-260h66v-15h-221v15h66v246q0 113 -17 149q-8 16 -24.5 29t-48.5 13t-60.5 -23t-42.5 -63q-25 -71 -25 -170v-181h66z" />
    <glyph glyph-name="A.alt" horiz-adv-x="636" 
d="M154 148q-11 -30 -11 -58.5t10.5 -43.5t33.5 -21q35 -9 93 -9h17v-16h-296v16q53 0 80.5 29.5t48.5 92.5l163 471q7 22 13 33q14 28 46 28h3l202 -654h71v-16h-256v16h74l-156 510h-6zM223.5 329q50.5 -27 88.5 -71q76 -85 115 -179l16 4q-53 135 -140.5 213t-181.5 78
q-52 0 -85.5 -29t-33.5 -65.5t21.5 -58.5t49 -22t47.5 18t20 46t-15 43t-37 15q-35 0 -47 -31q-3 -8 -10 -8q-10 0 -8 10q4 30 34 47t73 17t93.5 -27z" />
    <glyph glyph-name="B.alt" horiz-adv-x="641" 
d="M413 57q44 41 44 130t-50 123t-155 34h-23v-328h47q93 0 137 41zM433 527q0 122 -145 122q-71 0 -119 -37q-15 -11 -23.5 -27t-8.5 -25.5t8 -9.5t11 8q12 31 47 31q22 0 37.5 -16t15.5 -44t-20 -45t-48 -17t-49.5 22t-21.5 56q0 54 52 89.5t150 35.5t162 -35t64 -104.5
t-47 -113.5t-124 -59v-6q87 -2 141 -41t54 -116q0 -195 -278 -195h-239v16h73v369q59 -17 140.5 -17t124.5 44.5t43 114.5z" />
    <glyph glyph-name="C.alt" horiz-adv-x="579" 
d="M336 650q-95 0 -130 -81q-29 -69 -32 -181v-79t6 -101.5t22 -98.5t51 -77.5t87 -27.5q84 0 131 56t54 147l18 -2q-7 -103 -65 -164t-156 -61q-128 0 -199 101.5t-71 246.5q0 90 31 166.5t95 126t145.5 49.5t135 -36t53.5 -89q0 -34 -21.5 -56t-49.5 -22t-48 17t-20 45
t15.5 44t37.5 16q35 0 47 -31q3 -8 10 -8q11 0 9 10q-5 35 -48.5 62.5t-107.5 27.5z" />
    <glyph glyph-name="D.alt" horiz-adv-x="687" 
d="M125 440q24 -20 52.5 -20t51.5 7v-411h61q111 0 163 56q45 47 55 156q5 45 5 115t-10 123.5t-33 96.5q-48 86 -171 86q-87 0 -134 -37q-15 -11 -23.5 -27t-8.5 -25.5t8 -9.5t11 8q12 31 47 31q22 0 37.5 -16t15.5 -44t-20 -45t-48 -17t-49.5 22t-21.5 56q0 54 52 89.5
t138 35.5q158 0 245 -78.5t87 -243.5q0 -348 -324 -348h-259v16h73v424z" />
    <glyph glyph-name="E.alt" horiz-adv-x="545" 
d="M206 156q0 -71 42.5 -109.5t106.5 -38.5t105.5 30.5t41.5 87.5q0 13 -6 26t-14 13t-8 -10q0 -1 3 -8t3 -23t-14 -30.5t-39 -14.5t-42.5 16.5t-17.5 45.5t20.5 49.5t53.5 20.5t56 -24.5t23 -61.5q0 -62 -48.5 -103.5t-153.5 -41.5t-162 43.5t-57 118t46 125.5t132 70l-3 9
q-72 14 -109 54.5t-37 95.5q0 76 58.5 125t147.5 49q60 0 104.5 -25t44.5 -81q0 -37 -21.5 -58.5t-49.5 -21.5t-49 17t-21 45t16.5 45t41.5 17q32 0 44 -30q2 -7 4 -9.5t7 -2.5q9 0 9 9q0 31 -32 51t-79 20t-86 -38.5t-39 -105.5t34 -103t89 -36q26 0 48 9l6 -18
q-199 -58 -199 -198z" />
    <glyph glyph-name="F.alt" horiz-adv-x="552" 
d="M498.5 632.5q-22.5 19.5 -63.5 19.5t-110.5 -17.5t-134 -17.5t-128.5 24l3 18q65 -24 127.5 -24t129.5 17.5t115 17.5t76.5 -26t28.5 -63.5t-21.5 -59.5t-49.5 -22t-48 17t-20 45.5t15 44t44.5 15.5t39.5 -31q3 -8 11 -8t8 9q0 22 -22.5 41.5zM125 16v618h104v-297h43
q72 0 99 27.5t27 100.5h17v-275h-17q0 74 -27 102.5t-99 28.5h-43v-305h83v-16h-260v16h73z" />
    <glyph glyph-name="G.alt" horiz-adv-x="661" 
d="M454 284h-73v16h250v-16h-73v-317q0 -99 -32 -150.5t-90 -51.5q-41 0 -67 28t-26 62.5t21.5 56.5t49 22t47.5 -18t20 -46t-15 -43t-37 -15q-35 0 -47 31q-3 8 -10 8q-10 0 -8 -10q4 -25 25 -41.5t54 -16.5t52.5 26.5t19.5 64t-26 76t-31 57.5q-5 -1 -35 -10
q-57 -17 -99 -17q-128 0 -199 101.5t-71 254.5t91 243.5t229 90.5q79 0 132.5 -36t53.5 -89q0 -34 -21.5 -56t-49.5 -22t-48 17t-20 45t15.5 44t37.5 16q35 0 47 -31q3 -8 10 -8q11 0 9 10q-5 35 -48.5 62.5t-107.5 27.5q-114 0 -161 -82.5t-47 -247.5q0 -227 79 -290
q35 -27 90 -27t109 23v258z" />
    <glyph glyph-name="H.alt" horiz-adv-x="733" 
d="M375 335l-47 -2q-196 -10 -262 -57q-62 -45 -62 -134q0 -59 22 -93.5t62 -34.5q37 0 37 57v563h-73v16h260v-16h-83v-529q0 -62 -30.5 -93.5t-85 -31.5t-92 40.5t-37.5 115.5q0 90 50 136q52 46 124 60q85 17 222 21q108 3 135.5 9.5t53.5 13.5t38 16t28.5 23t24.5 31
q18 42 18 87t-10 69t-27 24q-33 0 -33 -53v-557h83v-16h-260v16h73v539q0 58 26.5 86t70.5 28t70.5 -34.5t26.5 -94t-19.5 -97.5t-44 -57.5t-75.5 -31t-84 -14t-100 -5.5z" />
    <glyph glyph-name="I.alt" horiz-adv-x="354" 
d="M229 16h83v-16h-260v16h73v572l104 23v-595zM108 597q66 0 111 25t45 73t-24 69t-55 21t-49.5 -18t-18.5 -32t8 -14t11 8q12 31 46 31q22 0 37.5 -16t15.5 -44t-20 -45t-48 -17t-49.5 22t-21.5 57.5t25 60.5t64.5 25t68 -27t28.5 -73q0 -65 -50.5 -95t-124.5 -30
q-19 0 -53 4v19q34 -4 54 -4z" />
    <glyph glyph-name="J.alt" horiz-adv-x="415" 
d="M302 634v-519q0 -100 -53 -152.5t-120.5 -52.5t-113 37.5t-45.5 99.5q0 41 25 66t60.5 25t57.5 -21.5t22 -49.5t-17 -48t-45 -20t-44 15.5t-16 37.5q0 34 31 46q8 3 8 11t-14 8t-32 -18.5t-18 -51.5q0 -50 35 -82t77 -32t70 28t28 82v591h-83v16h260v-16h-73z" />
    <glyph glyph-name="K.alt" horiz-adv-x="668" 
d="M547 120v-24q0 -36 5 -49.5t17.5 -13.5t26 20t22.5 60l18 -4q-24 -119 -115 -119q-80 0 -80 119v84q0 77 -43 105t-117 28q-18 0 -52 -2v-308h83v-16h-260v16h73v618h-73v16h260v-16h-83v-291q129 0 206.5 65t77.5 149q0 43 -24.5 64t-55.5 21t-49.5 -18t-18.5 -32t8 -14
t11 8q12 31 46 31q22 0 37.5 -16t15.5 -44t-20 -45t-48 -17t-49.5 22t-21.5 57.5t25 60.5t65 25t68.5 -27.5t28.5 -73.5q0 -118 -129 -196l4 -8q67 -4 96 -39q31 -38 37 -76q8 -60 8 -120z" />
    <glyph glyph-name="L.alt" horiz-adv-x="557" 
d="M52 0v16h73v618h-73v16h270v-16h-93v-620q38 -3 98.5 -16.5t87.5 -13.5q54 0 83 25t29 60t-18.5 51t-38.5 16q-9 0 -9 -8.5t7 -9.5q38 -10 38 -46q0 -21 -16 -37t-44.5 -16t-45.5 20t-17 48t22 49.5t56 21.5t59 -24.5t25 -66.5t-34 -71.5t-92 -29.5q-35 0 -112.5 17
t-151.5 17h-103z" />
    <glyph glyph-name="M.alt" horiz-adv-x="845" 
d="M803 650v-16h-83v-618h83v-16h-260v16h73v572h-7l-254 -431q-3 -3 -12 -20q-17 -31 -17 -51.5t9.5 -34.5t24.5 -14q29 0 29 31q0 19 -15 49l-222 471h-7v-445q0 -73 27.5 -100t100.5 -27h7v-16h-286v16q73 0 102 27.5t29 99.5v451q-2 24 -18.5 32.5t-46.5 8.5h-45v15h227
l199 -434q46 -92 46 -129.5t-25.5 -58.5t-63 -21t-64 20t-26.5 62q0 15 3 22.5t4 10.5t4 9l5 9q5 11 9 17q12 18 16 26l272 467h182z" />
    <glyph glyph-name="O.alt" 
d="M492 613q-50 36 -107 36t-93 -16t-58 -43t-36 -69q-24 -76 -24 -193q0 -170 22 -224q11 -27 28 -54q33 -51 111 -51q75 0 109 52q36 54 44 125q8 67 8 132.5t-1 89.5h17t46 15t40 49q20 -67 20 -134q0 -147 -74.5 -247.5t-208.5 -100.5t-208.5 100.5t-74.5 252.5
t80.5 244.5t222.5 92.5q86 0 149 -45t63 -100q0 -34 -21.5 -56t-49.5 -22t-48 17t-20 45t15.5 44t37.5 16q35 0 47 -31q3 -8 10 -8q11 0 9 10q-5 37 -55 73z" />
    <glyph glyph-name="P.alt" horiz-adv-x="576" 
d="M125 441q28 -20 57 -20t47 8v-130h58q85 0 120.5 43t35.5 133q0 175 -144 175q-91 0 -139 -38q-15 -11 -23.5 -27t-8.5 -25.5t8 -9.5t11 8q12 31 47 31q22 0 37.5 -16t15.5 -44t-20 -45t-48 -17t-49.5 22t-21.5 56q0 54 54.5 89.5t140.5 35.5q116 0 184 -47t68 -148
t-59 -146.5t-177 -45.5h-90v-267h83v-16h-260v16h73v425z" />
    <glyph glyph-name="Q.alt" 
d="M335 -20q-134 0 -208.5 100.5t-74.5 245.5t76 244.5t207 99.5t207 -99.5t76 -244.5t-74.5 -245.5t-208.5 -100.5zM269 11.5q28 -12.5 65.5 -12.5t65 13t44.5 39t28 54.5t16 70.5t6.5 74t1.5 78t-1.5 77.5t-6.5 73t-16 69t-28 53t-44.5 38t-64.5 12.5t-64.5 -12.5
t-44.5 -38t-28 -53t-16 -69.5q-8 -66 -8 -132.5t1 -97t5.5 -74t15.5 -70.5t28 -53.5t45 -39zM566 -161q33 0 51.5 19t18.5 39q0 9 -8 9t-11 -8q-12 -31 -46 -31q-22 0 -37.5 16t-15.5 44t20 45t48 17t49.5 -22t21.5 -57.5t-25 -62t-70.5 -26.5t-76.5 31.5t-45.5 76l-28 89.5
t-40 76.5t-68.5 31.5q-26 0 -45 -18t-19 -45t27 -49l-18 -4q-35 32 -35 75.5t26.5 75.5t77.5 32t81 -36.5t39.5 -88.5l18.5 -104t35 -88.5t75 -36.5z" />
    <glyph glyph-name="R.alt" horiz-adv-x="667" 
d="M125 441q28 -20 57 -20t47 8v-83h64q82 0 114.5 30t32.5 112q0 162 -141 162q-91 0 -139 -38q-15 -11 -23.5 -27t-8.5 -25.5t8 -9.5t11 8q12 31 47 31q22 0 37.5 -16t15.5 -44t-20 -45t-48 -17t-49.5 22t-21.5 56q0 54 54.5 89.5t140.5 35.5q116 0 182.5 -43.5
t66.5 -129.5q0 -63 -41.5 -104.5t-115.5 -51.5v-5q92 0 121.5 -44t29.5 -150v-46q0 -36 5 -49.5t17.5 -13.5t26 20t22.5 60l18 -4q-24 -119 -115 -119q-36 0 -58 30t-22 89v66q0 85 -33.5 120t-105.5 35h-72v-314h83v-16h-260v16h73v425z" />
    <glyph glyph-name="S.alt" horiz-adv-x="504" 
d="M50 87q17 -42 64 -65t109.5 -23t111.5 35t49 101q0 51 -35 85t-84.5 54.5t-99 43.5t-84.5 66t-35 106q0 83 58.5 131.5t142 48.5t132.5 -35.5t49 -89.5q0 -34 -21.5 -56t-49.5 -22t-48 17t-20 45t15.5 44t37.5 16q35 0 47 -31q3 -8 10 -8q11 0 9 10q-5 36 -44.5 63.5
t-99 27.5t-101 -32.5t-41.5 -84t35 -85.5t84.5 -54.5t99 -43.5t84.5 -66t35 -106q0 -96 -70 -147.5t-158.5 -51.5t-148 39.5t-59.5 107.5q0 34 21.5 56t49.5 22t48 -17t20 -45t-15.5 -44t-37.5 -16q-36 0 -48 31q-3 8 -11 8t-8 -8t7 -27z" />
    <glyph glyph-name="T.alt" horiz-adv-x="492" 
d="M143 0v16h73v628l-17 6l-35.5 13t-40.5 14q-48 15 -80 15t-54 -16.5t-22 -38.5q0 -9 8 -9t11 8q12 31 46 31q22 0 37.5 -16t15.5 -44t-20 -45t-48 -17t-49.5 22t-21.5 61.5t38 65.5q25 16 56.5 16t64 -8.5t76.5 -25t58 -20.5q153 -47 211 -47t91 30.5t33 65.5t-18 53.5
t-32 18.5t-14 -8t8 -11q31 -12 31 -46q0 -22 -16 -37.5t-44 -15.5t-45 20t-17 48t22 49.5t58 21.5t60.5 -25.5t24.5 -67.5t-36.5 -78.5t-97 -36.5t-138.5 22v-596h83v-16h-260z" />
    <glyph glyph-name="U.alt" horiz-adv-x="641" 
d="M493.5 62.5q44.5 58.5 61.5 145t17 195.5t-30 174t-90 65q-33 0 -51.5 -18t-18.5 -32t8 -14t11 8q12 31 46 31q22 0 37.5 -16t15.5 -44t-20 -45t-48 -17t-49.5 22t-21.5 56.5t25 60.5t63 26q142 0 142 -253q0 -180 -39 -276q-39 -99 -104 -131q-38 -20 -97.5 -20
t-108 23.5t-76.5 69.5q-50 84 -50 235v326h-73v16h260v-16h-83v-326q0 -141 14 -190q17 -61 46 -83q41 -31 105 -31t108.5 58.5z" />
    <glyph glyph-name="V.alt" horiz-adv-x="485" 
d="M437 542q7 21 7 42.5t-17 38t-29.5 16.5t-12.5 -8t8 -11q31 -12 31 -46q0 -22 -16 -37.5t-44 -15.5t-45 20t-17 48t22 49.5t58 21.5t58.5 -24t22.5 -50.5t-7 -45.5l-171 -499q-7 -22 -13 -33q-14 -28 -46 -28h-3l-202 654h-71v16h260v-16h-74l150 -516h6z" />
    <glyph glyph-name="W.alt" horiz-adv-x="816" 
d="M768 542q7 21 7 42.5t-16.5 38t-29.5 16.5t-13 -8t8 -11q31 -12 31 -46q0 -22 -16 -37.5t-44 -15.5t-45 20t-17 48t22 49.5t58 21.5t58.5 -24t22.5 -50.5t-7 -45.5l-171 -499q-7 -22 -12 -33q-15 -28 -47 -28h-3l-139 450l-130 -389q-7 -22 -13 -33q-14 -28 -46 -28h-3
l-202 654h-71v16h260v-16h-74l150 -516h6l113 344l-53 172h-71v16h260v-16h-74l150 -516h6z" />
    <glyph glyph-name="X.alt" horiz-adv-x="673" 
d="M687 16v-16h-272v16h73l-360 618h-73v16h272v-16h-83l360 -618h83zM570 660q-64 0 -102 -72l-129 -242h20l120 224q38 72 93 72q17 0 33 -10t16 -18.5t-9 -8.5q-3 0 -14 8.5t-30.5 8.5t-35.5 -15.5t-16 -42t20 -43t48 -16.5t48 21.5t20 47t-8 41.5q-22 45 -74 45z
M111 -11q-51 0 -74 45q-8 16 -8 41.5t20 47t48 21.5t48 -16.5t20 -43t-16 -42t-35.5 -15.5t-30.5 8.5t-14 8.5q-9 0 -9 -8.5t16 -18.5t33 -10q55 0 93 72l120 224h20l-129 -242q-38 -72 -102 -72z" />
    <glyph glyph-name="Y.alt" horiz-adv-x="572" 
d="M357 16h83v-16h-260v16h73v265l-179 353h-73v16h268v-16h-83l171 -343v-275zM496.5 622.5q16.5 -16.5 16.5 -39t-6 -43.5q-2 -7 -6.5 -15.5t-7 -12.5t-7.5 -11t-6 -9l-149 -207l10 -18l159 222q32 44 32 83.5t-22.5 63.5t-58.5 24t-58 -21.5t-22 -49.5t17 -48t45 -20
t44 15.5t16 37.5q0 34 -31 46q-8 3 -8 11t13 8t29.5 -16.5z" />
    <glyph glyph-name="Z.alt" horiz-adv-x="568" 
d="M39 563q0 50 40.5 78t103.5 28q38 0 106 -11t126.5 -11t113.5 3v-15l-387 -601h22q66 0 149 -18.5t109 -18.5q54 0 83 25t29 60t-18.5 51t-38.5 16q-9 0 -9 -8.5t7 -9.5q38 -10 38 -46q0 -21 -16 -37t-44.5 -16t-45.5 20t-17 48t22 49.5t56 21.5t59 -24.5t25 -66.5
t-35 -71.5t-94 -29.5q-30 0 -114.5 18.5t-146.5 18.5t-135 -14l-12 15l394 612q-62 2 -125 12t-110.5 10t-80.5 -23t-33 -51q0 -9 8 -9t11.5 12t17.5 20t32.5 8t35 -16t16.5 -44.5t-20 -45.5t-48 -17t-51 22t-23 56z" />
    <glyph glyph-name="N.alt" horiz-adv-x="662" 
d="M537 507v-514h-16q-33 0 -53.5 21t-54.5 80l-264 454h-4v-468q0 -48 -25 -74t-61.5 -26t-58.5 21.5t-22 49.5t17 48t45 20t44 -15.5t16 -37.5q0 -34 -31 -46q-8 -3 -8 -11t14.5 -8t32 19.5t17.5 59.5v509q-27 46 -105 46v15h104q48 0 72.5 -16.5t49.5 -58.5l265 -455h6
v387q0 73 -27.5 100t-100.5 27h-7v16h286v-16q-73 0 -102 -27.5t-29 -99.5z" />
  </font>
</defs>
</svg>
