<?xml version="1.0" standalone="no"?>
<!DOCTYPE svg PUBLIC "-//W3C//DTD SVG 1.1//EN" "http://www.w3.org/Graphics/SVG/1.1/DTD/svg11.dtd" >
<svg>
<metadata>
Created by FontForge 20090622 at Tue Nov 13 21:31:00 2018
 By deploy user
Copyright 2018 The KoHo Project Authors (https://github.com/cadsondemak/Koho)
</metadata>
<defs>
<font id="KoHo-SemiBold" horiz-adv-x="0" >
  <font-face 
    font-family="KoHo SemiBold"
    font-weight="600"
    font-stretch="normal"
    units-per-em="1000"
    panose-1="0 0 7 0 0 0 0 0 0 0"
    ascent="800"
    descent="-200"
    x-height="470"
    cap-height="700"
    bbox="-658 -473 1301 1170"
    underline-thickness="50"
    underline-position="-50"
    unicode-range="U+000D-U+FB02"
  />
<missing-glyph horiz-adv-x="720" 
d="M92 999h536v-999h-536v999zM579 50v899h-439v-899h439z" />
    <glyph glyph-name="fi" unicode="fi" horiz-adv-x="569" 
d="M394.5 41q-17.5 30 -17.5 82v263h-191v-386h-109v537q0 94 52.5 144.5t150.5 50.5h42v-85h-42q-45 0 -69.5 -28.5t-24.5 -81.5v-67h300v-345q0 -24 9.5 -39t33.5 -34l-73 -64q-44 23 -61.5 53zM385.5 566.5q-19.5 19.5 -19.5 46.5q0 26 19.5 45.5t46.5 19.5
q26 0 45.5 -19.5t19.5 -45.5q0 -27 -19.5 -46.5t-45.5 -19.5q-27 0 -46.5 19.5z" />
    <glyph glyph-name="fl" unicode="fl" horiz-adv-x="587" 
d="M129.5 681.5q52.5 50.5 150.5 50.5h42v-85h-42q-45 0 -69.5 -28.5t-24.5 -81.5v-67h136v-84h-136v-386h-109v537q0 94 52.5 144.5zM518.5 86q9.5 -15 33.5 -34l-73 -64q-44 23 -61.5 53t-17.5 82v472q0 25 -9 40t-33 33l73 64q44 -23 61 -52.5t17 -82.5v-472
q0 -24 9.5 -39z" />
    <glyph glyph-name="uni0E240E45" unicode="&#xe24;&#xe45;" horiz-adv-x="959" 
d="M831 520q54 -48 54 -134v-636h-106v636q0 46 -26.5 71.5t-73.5 25.5q-43 0 -71.5 -13.5t-64.5 -53.5q12 -43 12 -100v-566h-107v566q0 85 -35 126t-106 41l-169 -2l103 -91v-51q-34 -14 -52 -40.5t-21 -68.5q15 5 26 5q41 0 65 -27.5t24 -74.5q0 -63 -33.5 -103
t-85.5 -40q-46 0 -72.5 27.5t-26.5 75.5v123q0 116 97 158v4l-114 104v86h259q130 0 191 -66q37 34 79.5 50t101.5 16q98 0 152 -48zM214.5 166.5q-8.5 13.5 -21.5 13.5q-23 0 -37.5 -25.5t-14.5 -64.5q0 -19 8.5 -31.5t21.5 -12.5q22 0 37 24.5t15 62.5q0 20 -8.5 33.5z
" />
    <glyph glyph-name="uni0E260E45" unicode="&#xe26;&#xe45;" horiz-adv-x="988" 
d="M860.5 520.5q54.5 -47.5 54.5 -134.5v-636h-106v636q0 46 -26.5 71.5t-75.5 25.5q-42 0 -71.5 -14t-63.5 -54q10 -36 10 -83v-581h-107v581q0 151 -163 151l-170 -2l110 -96v-292q0 -48 -26.5 -75.5t-72.5 -27.5q-52 0 -85.5 40t-33.5 103q0 47 24 74.5t65 27.5
q15 0 26 -4v162l-97 89v86h263q144 0 210 -68q38 36 80.5 52t101.5 16q99 0 153.5 -47.5zM167.5 58.5q8.5 12.5 8.5 31.5q0 39 -14.5 64.5t-37.5 25.5q-13 0 -21.5 -13.5t-8.5 -33.5q0 -38 15 -62.5t37 -24.5q13 0 21.5 12.5z" />
    <glyph glyph-name=".notdef" horiz-adv-x="720" 
d="M92 999h536v-999h-536v999zM579 50v899h-439v-899h439z" />
    <glyph glyph-name="NULL" 
 />
    <glyph glyph-name="NULL" 
 />
    <glyph glyph-name="nonmarkingreturn" unicode="&#xd;" horiz-adv-x="269" 
 />
    <glyph glyph-name="space" unicode=" " horiz-adv-x="269" 
 />
    <glyph glyph-name="A" unicode="A" horiz-adv-x="680" 
d="M483 184h-287l-55 -184h-118l175 567q17 56 35.5 87t43.5 44.5t63 13.5q37 0 62 -13.5t44 -44.5t36 -87l174 -567h-118zM457 272l-87 293q-6 20 -12.5 29t-17.5 9t-18 -9t-13 -29l-87 -293h235z" />
    <glyph glyph-name="Aacute" unicode="&#xc1;" horiz-adv-x="680" 
d="M483 184h-287l-55 -184h-118l175 567q17 56 35.5 87t43.5 44.5t63 13.5q37 0 62 -13.5t44 -44.5t36 -87l174 -567h-118zM457 272l-87 293q-6 20 -12.5 29t-17.5 9t-18 -9t-13 -29l-87 -293h235zM370 922h115l-107 -153h-88z" />
    <glyph glyph-name="Abreve" unicode="&#x102;" horiz-adv-x="680" 
d="M483 184h-287l-55 -184h-118l175 567q17 56 35.5 87t43.5 44.5t63 13.5q37 0 62 -13.5t44 -44.5t36 -87l174 -567h-118zM457 272l-87 293q-6 20 -12.5 29t-17.5 9t-18 -9t-13 -29l-87 -293h235zM223.5 804q-43.5 43 -43.5 116h78q3 -38 24 -60t58 -22t58.5 22t23.5 60h78
q0 -73 -43.5 -116t-116.5 -43t-116.5 43z" />
    <glyph glyph-name="uni1EAE" unicode="&#x1eae;" horiz-adv-x="680" 
d="M483 184h-287l-55 -184h-118l175 567q17 56 35.5 87t43.5 44.5t63 13.5q37 0 62 -13.5t44 -44.5t36 -87l174 -567h-118zM457 272l-87 293q-6 20 -12.5 29t-17.5 9t-18 -9t-13 -29l-87 -293h235zM356 1085h109l-90 -121h-82zM223.5 804q-43.5 43 -43.5 116h78
q3 -38 24 -60t58 -22t58.5 22t23.5 60h78q0 -73 -43.5 -116t-116.5 -43t-116.5 43z" />
    <glyph glyph-name="uni1EB6" unicode="&#x1eb6;" horiz-adv-x="680" 
d="M483 184h-287l-55 -184h-118l175 567q17 56 35.5 87t43.5 44.5t63 13.5q37 0 62 -13.5t44 -44.5t36 -87l174 -567h-118zM457 272l-87 293q-6 20 -12.5 29t-17.5 9t-18 -9t-13 -29l-87 -293h235zM295 -164.5q-19 18.5 -19 44.5t19 45t45 19t45 -19t19 -45t-19 -44.5
t-45 -18.5t-45 18.5zM223.5 804q-43.5 43 -43.5 116h78q3 -38 24 -60t58 -22t58.5 22t23.5 60h78q0 -73 -43.5 -116t-116.5 -43t-116.5 43z" />
    <glyph glyph-name="uni1EB0" unicode="&#x1eb0;" horiz-adv-x="680" 
d="M483 184h-287l-55 -184h-118l175 567q17 56 35.5 87t43.5 44.5t63 13.5q37 0 62 -13.5t44 -44.5t36 -87l174 -567h-118zM457 272l-87 293q-6 20 -12.5 29t-17.5 9t-18 -9t-13 -29l-87 -293h235zM211 1085h109l63 -121h-82zM223.5 804q-43.5 43 -43.5 116h78q3 -38 24 -60
t58 -22t58.5 22t23.5 60h78q0 -73 -43.5 -116t-116.5 -43t-116.5 43z" />
    <glyph glyph-name="uni1EB2" unicode="&#x1eb2;" horiz-adv-x="680" 
d="M483 184h-287l-55 -184h-118l175 567q17 56 35.5 87t43.5 44.5t63 13.5q37 0 62 -13.5t44 -44.5t36 -87l174 -567h-118zM457 272l-87 293q-6 20 -12.5 29t-17.5 9t-18 -9t-13 -29l-87 -293h235zM292 1057l-17 50q33 16 77 16q45 0 70 -19t25 -57q0 -32 -18.5 -49.5
t-51.5 -25.5v-32h-67v65q38 3 55 11t17 23q0 16 -9.5 22t-31.5 6q-24 0 -49 -10zM500 920q0 -72 -43.5 -115.5t-116.5 -43.5t-116.5 43.5t-43.5 115.5h78q3 -38 24 -60t58 -22t58.5 22t23.5 60h78z" />
    <glyph glyph-name="uni1EB4" unicode="&#x1eb4;" horiz-adv-x="680" 
d="M483 184h-287l-55 -184h-118l175 567q17 56 35.5 87t43.5 44.5t63 13.5q37 0 62 -13.5t44 -44.5t36 -87l174 -567h-118zM457 272l-87 293q-6 20 -12.5 29t-17.5 9t-18 -9t-13 -29l-87 -293h235zM212.5 1048q26.5 32 74.5 32q16 0 29.5 -4.5t24.5 -9.5t14 -6
q12 -6 23.5 -10.5t21.5 -4.5q25 0 31 42h65q-4 -46 -30 -79t-66 -33q-19 0 -34.5 5.5t-34.5 15.5q-12 6 -23.5 10.5t-20.5 4.5q-29 0 -39 -43h-64q2 48 28.5 80zM223.5 804q-43.5 43 -43.5 116h78q3 -38 24 -60t58 -22t58.5 22t23.5 60h78q0 -73 -43.5 -116t-116.5 -43
t-116.5 43z" />
    <glyph glyph-name="uni01CD" unicode="&#x1cd;" horiz-adv-x="680" 
d="M483 184h-287l-55 -184h-118l175 567q17 56 35.5 87t43.5 44.5t63 13.5q37 0 62 -13.5t44 -44.5t36 -87l174 -567h-118zM457 272l-87 293q-6 20 -12.5 29t-17.5 9t-18 -9t-13 -29l-87 -293h235zM234.5 857.5q-36.5 44.5 -63.5 67.5h97q19 -16 39 -38.5t32 -42.5
q12 20 32 42.5t39 38.5h98q-28 -23 -64.5 -68t-59.5 -88h-90q-23 44 -59.5 88.5z" />
    <glyph glyph-name="Acircumflex" unicode="&#xc2;" horiz-adv-x="680" 
d="M483 184h-287l-55 -184h-118l175 567q17 56 35.5 87t43.5 44.5t63 13.5q37 0 62 -13.5t44 -44.5t36 -87l174 -567h-118zM457 272l-87 293q-6 20 -12.5 29t-17.5 9t-18 -9t-13 -29l-87 -293h235zM234.5 836.5q36.5 44.5 59.5 88.5h90q23 -43 59.5 -88t64.5 -68h-98
q-20 17 -40 39t-31 43q-11 -21 -31 -43t-40 -39h-97q27 23 63.5 67.5z" />
    <glyph glyph-name="uni1EA4" unicode="&#x1ea4;" horiz-adv-x="680" 
d="M483 184h-287l-55 -184h-118l175 567q17 56 35.5 87t43.5 44.5t63 13.5q37 0 62 -13.5t44 -44.5t36 -87l174 -567h-118zM457 272l-87 293q-6 20 -12.5 29t-17.5 9t-18 -9t-13 -29l-87 -293h235zM515 989h107l-88 -121h-82zM234.5 836.5q36.5 44.5 59.5 88.5h90
q23 -43 59.5 -88t64.5 -68h-98q-20 17 -40 39t-31 43q-11 -21 -31 -43t-40 -39h-97q27 23 63.5 67.5z" />
    <glyph glyph-name="uni1EAC" unicode="&#x1eac;" horiz-adv-x="680" 
d="M483 184h-287l-55 -184h-118l175 567q17 56 35.5 87t43.5 44.5t63 13.5q37 0 62 -13.5t44 -44.5t36 -87l174 -567h-118zM457 272l-87 293q-6 20 -12.5 29t-17.5 9t-18 -9t-13 -29l-87 -293h235zM295 -164.5q-19 18.5 -19 44.5t19 45t45 19t45 -19t19 -45t-19 -44.5
t-45 -18.5t-45 18.5zM234.5 836.5q36.5 44.5 59.5 88.5h90q23 -43 59.5 -88t64.5 -68h-98q-20 17 -40 39t-31 43q-11 -21 -31 -43t-40 -39h-97q27 23 63.5 67.5z" />
    <glyph glyph-name="uni1EA6" unicode="&#x1ea6;" horiz-adv-x="680" 
d="M483 184h-287l-55 -184h-118l175 567q17 56 35.5 87t43.5 44.5t63 13.5q37 0 62 -13.5t44 -44.5t36 -87l174 -567h-118zM457 272l-87 293q-6 20 -12.5 29t-17.5 9t-18 -9t-13 -29l-87 -293h235zM409 989h107l63 -121h-82zM234.5 836.5q36.5 44.5 59.5 88.5h90
q23 -43 59.5 -88t64.5 -68h-98q-20 17 -40 39t-31 43q-11 -21 -31 -43t-40 -39h-97q27 23 63.5 67.5z" />
    <glyph glyph-name="uni1EA8" unicode="&#x1ea8;" horiz-adv-x="680" 
d="M483 184h-287l-55 -184h-118l175 567q17 56 35.5 87t43.5 44.5t63 13.5q37 0 62 -13.5t44 -44.5t36 -87l174 -567h-118zM457 272l-87 293q-6 20 -12.5 29t-17.5 9t-18 -9t-13 -29l-87 -293h235zM534 895v-32h-67v64q39 4 55.5 12t16.5 23q0 16 -10 22t-31 6
q-17 0 -49 -10l-16 50q31 15 76 15t70.5 -19t25.5 -57q0 -58 -71 -74zM443.5 837q36.5 -45 64.5 -68h-98q-20 17 -40 39t-31 43q-11 -21 -31 -43t-40 -39h-97q27 23 63.5 67.5t59.5 88.5h90q23 -43 59.5 -88z" />
    <glyph glyph-name="uni1EAA" unicode="&#x1eaa;" horiz-adv-x="680" 
d="M483 184h-287l-55 -184h-118l175 567q17 56 35.5 87t43.5 44.5t63 13.5q37 0 62 -13.5t44 -44.5t36 -87l174 -567h-118zM457 272l-87 293q-6 20 -12.5 29t-17.5 9t-18 -9t-13 -29l-87 -293h235zM212.5 1037.5q26.5 32.5 74.5 32.5q18 0 32.5 -5t35.5 -16
q12 -6 23.5 -10.5t21.5 -4.5q25 0 31 42h65q-4 -46 -30 -79t-66 -33q-19 0 -34.5 5.5t-34.5 15.5q-12 6 -23.5 10.5t-20.5 4.5q-29 0 -39 -43h-64q2 48 28.5 80.5zM234.5 836.5q36.5 44.5 59.5 88.5h90q23 -43 59.5 -88t64.5 -68h-98q-20 17 -40 39t-31 43q-11 -21 -31 -43
t-40 -39h-97q27 23 63.5 67.5z" />
    <glyph glyph-name="Adieresis" unicode="&#xc4;" horiz-adv-x="680" 
d="M483 184h-287l-55 -184h-118l175 567q17 56 35.5 87t43.5 44.5t63 13.5q37 0 62 -13.5t44 -44.5t36 -87l174 -567h-118zM457 272l-87 293q-6 20 -12.5 29t-17.5 9t-18 -9t-13 -29l-87 -293h235zM214 780.5q-17 16.5 -17 39.5t17 39.5t40 16.5t39 -16.5t16 -39.5
t-16 -39.5t-39 -16.5t-40 16.5zM387 780.5q-16 16.5 -16 39.5t16 39.5t40 16.5q23 0 40 -16.5t17 -39.5t-17 -39.5t-40 -16.5q-24 0 -40 16.5z" />
    <glyph glyph-name="uni1EA0" unicode="&#x1ea0;" horiz-adv-x="680" 
d="M483 184h-287l-55 -184h-118l175 567q17 56 35.5 87t43.5 44.5t63 13.5q37 0 62 -13.5t44 -44.5t36 -87l174 -567h-118zM457 272l-87 293q-6 20 -12.5 29t-17.5 9t-18 -9t-13 -29l-87 -293h235zM295 -164.5q-19 18.5 -19 44.5t19 45t45 19t45 -19t19 -45t-19 -44.5
t-45 -18.5t-45 18.5z" />
    <glyph glyph-name="Agrave" unicode="&#xc0;" horiz-adv-x="680" 
d="M483 184h-287l-55 -184h-118l175 567q17 56 35.5 87t43.5 44.5t63 13.5q37 0 62 -13.5t44 -44.5t36 -87l174 -567h-118zM457 272l-87 293q-6 20 -12.5 29t-17.5 9t-18 -9t-13 -29l-87 -293h235zM190 922h115l80 -153h-88z" />
    <glyph glyph-name="uni1EA2" unicode="&#x1ea2;" horiz-adv-x="680" 
d="M483 184h-287l-55 -184h-118l175 567q17 56 35.5 87t43.5 44.5t63 13.5q37 0 62 -13.5t44 -44.5t36 -87l174 -567h-118zM457 272l-87 293q-6 20 -12.5 29t-17.5 9t-18 -9t-13 -29l-87 -293h235zM374 807v-38h-79v76q45 4 65 14.5t20 27.5q0 19 -12 27t-35 8
q-26 0 -58 -13l-19 60q39 18 89 18q56 0 87.5 -23t31.5 -68q0 -70 -90 -89z" />
    <glyph glyph-name="Amacron" unicode="&#x100;" horiz-adv-x="680" 
d="M483 184h-287l-55 -184h-118l175 567q17 56 35.5 87t43.5 44.5t63 13.5q37 0 62 -13.5t44 -44.5t36 -87l174 -567h-118zM457 272l-87 293q-6 20 -12.5 29t-17.5 9t-18 -9t-13 -29l-87 -293h235zM183 862h314v-78h-314v78z" />
    <glyph glyph-name="Aogonek" unicode="&#x104;" horiz-adv-x="680" 
d="M722 -199q-39 -24 -82 -24q-72 0 -103 31.5t-31 71.5q0 66 57 120h-25l-55 184h-287l-55 -184h-118l175 567q17 56 35.5 87t43.5 44.5t63 13.5q37 0 62 -13.5t44 -44.5t36 -87l174 -567h-15q-43 -54 -43 -104q0 -24 14.5 -35.5t37.5 -11.5t54 13zM457 272l-87 293
q-6 20 -12.5 29t-17.5 9t-18 -9t-13 -29l-87 -293h235z" />
    <glyph glyph-name="Aring" unicode="&#xc5;" horiz-adv-x="680" 
d="M483 184h-287l-55 -184h-118l175 567q17 56 35.5 87t43.5 44.5t63 13.5q37 0 62 -13.5t44 -44.5t36 -87l174 -567h-118zM457 272l-87 293q-6 20 -12.5 29t-17.5 9t-18 -9t-13 -29l-87 -293h235zM261.5 784q-29.5 27 -29.5 72q0 46 29.5 73t78.5 27t78.5 -27t29.5 -73
q0 -45 -29.5 -72t-78.5 -27t-78.5 27zM373.5 823.5q12.5 12.5 12.5 32.5q0 21 -12.5 33.5t-33.5 12.5t-33.5 -12.5t-12.5 -33.5q0 -20 12.5 -32.5t33.5 -12.5t33.5 12.5z" />
    <glyph glyph-name="Aringacute" unicode="&#x1fa;" horiz-adv-x="680" 
d="M371 1001h-82l75 123h107zM261 784q-29 27 -29 72q0 46 29 73t79 27q49 0 78.5 -27t29.5 -73q0 -45 -29.5 -72t-78.5 -27q-50 0 -79 27zM306 889.5q-12 -12.5 -12 -33.5q0 -20 12.5 -32.5t33.5 -12.5t33 12.5t12 32.5q0 21 -12 33.5t-33 12.5q-22 0 -34 -12.5zM483 184
h-287l-55 -184h-118l175 567q17 56 35.5 87t43.5 44.5t63 13.5q37 0 62 -13.5t44 -44.5t36 -87l174 -567h-118zM457 272l-87 293q-6 20 -12.5 29t-17.5 9t-18 -9t-13 -29l-87 -293h235z" />
    <glyph glyph-name="Atilde" unicode="&#xc3;" horiz-adv-x="680" 
d="M483 184h-287l-55 -184h-118l175 567q17 56 35.5 87t43.5 44.5t63 13.5q37 0 62 -13.5t44 -44.5t36 -87l174 -567h-118zM457 272l-87 293q-6 20 -12.5 29t-17.5 9t-18 -9t-13 -29l-87 -293h235zM202.5 865q27.5 37 79.5 37q20 0 36.5 -6t38.5 -18q32 -17 49 -17
q13 0 19.5 11.5t9.5 37.5h72q-5 -55 -31.5 -92.5t-69.5 -37.5q-20 0 -36.5 6t-38.5 18q-32 17 -49 17q-15 0 -23.5 -11.5t-13.5 -37.5h-72q2 56 29.5 93z" />
    <glyph glyph-name="AE" unicode="&#xc6;" horiz-adv-x="1031" 
d="M993 93v-93h-240q-117 0 -175 46.5t-66 137.5h-261l-97 -184h-131l293 555q30 58 54 88.5t53 43.5t72 13q61 0 96 -38q58 38 162 38h236v-93h-236q-63 0 -93.5 -30t-30.5 -92v-89h314v-92h-314v-89q0 -63 30 -92.5t94 -29.5h240zM297 272h214v283q0 36 -25 36
q-13 0 -21 -8.5t-19 -28.5z" />
    <glyph glyph-name="AEacute" unicode="&#x1fc;" horiz-adv-x="1031" 
d="M993 93v-93h-240q-117 0 -175 46.5t-66 137.5h-261l-97 -184h-131l293 555q30 58 54 88.5t53 43.5t72 13q61 0 96 -38q58 38 162 38h236v-93h-236q-63 0 -93.5 -30t-30.5 -92v-89h314v-92h-314v-89q0 -63 30 -92.5t94 -29.5h240zM297 272h214v283q0 36 -25 36
q-13 0 -21 -8.5t-19 -28.5zM552 922h115l-107 -153h-88z" />
    <glyph glyph-name="B" unicode="B" horiz-adv-x="680" 
d="M88 700h307q103 0 159.5 -48t56.5 -134q0 -53 -30.5 -93.5t-86.5 -55.5q63 -13 100.5 -59t37.5 -118q0 -89 -61.5 -140.5t-167.5 -51.5h-315v700zM391 411q45 0 73.5 27t28.5 71q0 45 -28 71.5t-74 26.5h-185v-196h185zM378 93q136 0 136 112q0 56 -34.5 84.5
t-101.5 28.5h-172v-225h172z" />
    <glyph glyph-name="C" unicode="C" horiz-adv-x="635" 
d="M132 53q-74 65 -74 190v214q0 125 73 190t211 65q95 0 157 -31t100 -94l-84 -59q-32 48 -70.5 69.5t-101.5 21.5q-167 0 -167 -162v-214q0 -162 169 -162q67 0 108 23t71 72l84 -62q-47 -66 -106 -96t-156 -30q-140 0 -214 65z" />
    <glyph glyph-name="Cacute" unicode="&#x106;" horiz-adv-x="635" 
d="M132 53q-74 65 -74 190v214q0 125 73 190t211 65q95 0 157 -31t100 -94l-84 -59q-32 48 -70.5 69.5t-101.5 21.5q-167 0 -167 -162v-214q0 -162 169 -162q67 0 108 23t71 72l84 -62q-47 -66 -106 -96t-156 -30q-140 0 -214 65zM370 922h115l-107 -153h-88z" />
    <glyph glyph-name="Ccaron" unicode="&#x10c;" horiz-adv-x="635" 
d="M132 53q-74 65 -74 190v214q0 125 73 190t211 65q95 0 157 -31t100 -94l-84 -59q-32 48 -70.5 69.5t-101.5 21.5q-167 0 -167 -162v-214q0 -162 169 -162q67 0 108 23t71 72l84 -62q-47 -66 -106 -96t-156 -30q-140 0 -214 65zM234.5 857.5q-36.5 44.5 -63.5 67.5h97
q19 -16 39 -38.5t32 -42.5q12 20 32 42.5t39 38.5h98q-28 -23 -64.5 -68t-59.5 -88h-90q-23 44 -59.5 88.5z" />
    <glyph glyph-name="Ccedilla" unicode="&#xc7;" horiz-adv-x="635" 
d="M512.5 23q-52.5 -30 -134.5 -34l-8 -28q85 -9 85 -89q0 -47 -33.5 -70.5t-96.5 -23.5q-56 0 -102 23l19 61q36 -18 71 -18q30 0 44 6.5t14 21.5q0 16 -12 25.5t-47 9.5q-8 0 -32 -2l20 85q-118 10 -180 74t-62 179v214q0 125 73 190t211 65q95 0 157 -31t100 -94l-84 -59
q-32 48 -70.5 69.5t-101.5 21.5q-167 0 -167 -162v-214q0 -162 169 -162q67 0 108 23t71 72l84 -62q-43 -61 -95.5 -91z" />
    <glyph glyph-name="Ccircumflex" unicode="&#x108;" horiz-adv-x="635" 
d="M132 53q-74 65 -74 190v214q0 125 73 190t211 65q95 0 157 -31t100 -94l-84 -59q-32 48 -70.5 69.5t-101.5 21.5q-167 0 -167 -162v-214q0 -162 169 -162q67 0 108 23t71 72l84 -62q-47 -66 -106 -96t-156 -30q-140 0 -214 65zM234.5 836.5q36.5 44.5 59.5 88.5h90
q23 -43 59.5 -88t64.5 -68h-98q-20 17 -40 39t-31 43q-11 -21 -31 -43t-40 -39h-97q27 23 63.5 67.5z" />
    <glyph glyph-name="Cdotaccent" unicode="&#x10a;" horiz-adv-x="635" 
d="M132 53q-74 65 -74 190v214q0 125 73 190t211 65q95 0 157 -31t100 -94l-84 -59q-32 48 -70.5 69.5t-101.5 21.5q-167 0 -167 -162v-214q0 -162 169 -162q67 0 108 23t71 72l84 -62q-47 -66 -106 -96t-156 -30q-140 0 -214 65zM295 782.5q-19 18.5 -19 45.5q0 26 19 44.5
t45 18.5t45 -18.5t19 -44.5q0 -27 -19 -45.5t-45 -18.5t-45 18.5z" />
    <glyph glyph-name="D" unicode="D" horiz-adv-x="708" 
d="M88 700h257q115 0 182 -34t97 -109.5t30 -206.5t-30 -206.5t-97 -109.5t-182 -34h-257v700zM345 93q71 0 112.5 25t60 80.5t18.5 151.5t-18.5 151.5t-60 80.5t-112.5 25h-139v-514h139z" />
    <glyph glyph-name="Eth" unicode="&#xd0;" horiz-adv-x="708" 
d="M527 666q67 -34 97 -109.5t30 -206.5t-30 -206.5t-97 -109.5t-182 -34h-257v312h-84v81h84v307h257q115 0 182 -34zM457.5 118q41.5 25 60 80.5t18.5 151.5t-18.5 151.5t-60 80.5t-112.5 25h-139v-214h183v-81h-183v-219h139q71 0 112.5 25z" />
    <glyph glyph-name="Dcaron" unicode="&#x10e;" horiz-adv-x="708" 
d="M88 700h257q115 0 182 -34t97 -109.5t30 -206.5t-30 -206.5t-97 -109.5t-182 -34h-257v700zM345 93q71 0 112.5 25t60 80.5t18.5 151.5t-18.5 151.5t-60 80.5t-112.5 25h-139v-514h139zM253.5 857.5q-36.5 44.5 -63.5 67.5h97q19 -16 39 -38.5t32 -42.5q12 20 32 42.5
t39 38.5h98q-28 -23 -64.5 -68t-59.5 -88h-90q-23 44 -59.5 88.5z" />
    <glyph glyph-name="Dcroat" unicode="&#x110;" horiz-adv-x="708" 
d="M527 666q67 -34 97 -109.5t30 -206.5t-30 -206.5t-97 -109.5t-182 -34h-257v312h-84v81h84v307h257q115 0 182 -34zM457.5 118q41.5 25 60 80.5t18.5 151.5t-18.5 151.5t-60 80.5t-112.5 25h-139v-214h183v-81h-183v-219h139q71 0 112.5 25z" />
    <glyph glyph-name="uni1E0C" unicode="&#x1e0c;" horiz-adv-x="708" 
d="M88 700h257q115 0 182 -34t97 -109.5t30 -206.5t-30 -206.5t-97 -109.5t-182 -34h-257v700zM345 93q71 0 112.5 25t60 80.5t18.5 151.5t-18.5 151.5t-60 80.5t-112.5 25h-139v-514h139zM314 -164.5q-19 18.5 -19 44.5t19 45t45 19t45 -19t19 -45t-19 -44.5t-45 -18.5
t-45 18.5z" />
    <glyph glyph-name="uni1E0E" unicode="&#x1e0e;" horiz-adv-x="708" 
d="M88 700h257q115 0 182 -34t97 -109.5t30 -206.5t-30 -206.5t-97 -109.5t-182 -34h-257v700zM345 93q71 0 112.5 25t60 80.5t18.5 151.5t-18.5 151.5t-60 80.5t-112.5 25h-139v-514h139zM202 -75h314v-78h-314v78z" />
    <glyph glyph-name="E" unicode="E" horiz-adv-x="577" 
d="M114 54.5q-58 54.5 -58 160.5v270q0 106 58 160.5t185 54.5h236v-93h-236q-64 0 -94.5 -29.5t-30.5 -92.5v-89h315v-92h-315v-89q0 -63 30.5 -92.5t94.5 -29.5h240v-93h-240q-127 0 -185 54.5z" />
    <glyph glyph-name="Eacute" unicode="&#xc9;" horiz-adv-x="577" 
d="M114 54.5q-58 54.5 -58 160.5v270q0 106 58 160.5t185 54.5h236v-93h-236q-64 0 -94.5 -29.5t-30.5 -92.5v-89h315v-92h-315v-89q0 -63 30.5 -92.5t94.5 -29.5h240v-93h-240q-127 0 -185 54.5zM368 922h115l-107 -153h-88z" />
    <glyph glyph-name="Ebreve" unicode="&#x114;" horiz-adv-x="577" 
d="M114 54.5q-58 54.5 -58 160.5v270q0 106 58 160.5t185 54.5h236v-93h-236q-64 0 -94.5 -29.5t-30.5 -92.5v-89h315v-92h-315v-89q0 -63 30.5 -92.5t94.5 -29.5h240v-93h-240q-127 0 -185 54.5zM221.5 804q-43.5 43 -43.5 116h78q3 -38 24 -60t58 -22t58.5 22t23.5 60h78
q0 -73 -43.5 -116t-116.5 -43t-116.5 43z" />
    <glyph glyph-name="Ecaron" unicode="&#x11a;" horiz-adv-x="577" 
d="M114 54.5q-58 54.5 -58 160.5v270q0 106 58 160.5t185 54.5h236v-93h-236q-64 0 -94.5 -29.5t-30.5 -92.5v-89h315v-92h-315v-89q0 -63 30.5 -92.5t94.5 -29.5h240v-93h-240q-127 0 -185 54.5zM232.5 857.5q-36.5 44.5 -63.5 67.5h97q19 -16 39 -38.5t32 -42.5
q12 20 32 42.5t39 38.5h98q-28 -23 -64.5 -68t-59.5 -88h-90q-23 44 -59.5 88.5z" />
    <glyph glyph-name="Ecircumflex" unicode="&#xca;" horiz-adv-x="577" 
d="M114 54.5q-58 54.5 -58 160.5v270q0 106 58 160.5t185 54.5h236v-93h-236q-64 0 -94.5 -29.5t-30.5 -92.5v-89h315v-92h-315v-89q0 -63 30.5 -92.5t94.5 -29.5h240v-93h-240q-127 0 -185 54.5zM232.5 836.5q36.5 44.5 59.5 88.5h90q23 -43 59.5 -88t64.5 -68h-98
q-20 17 -40 39t-31 43q-11 -21 -31 -43t-40 -39h-97q27 23 63.5 67.5z" />
    <glyph glyph-name="uni1EBE" unicode="&#x1ebe;" horiz-adv-x="577" 
d="M114 54.5q-58 54.5 -58 160.5v270q0 106 58 160.5t185 54.5h236v-93h-236q-64 0 -94.5 -29.5t-30.5 -92.5v-89h315v-92h-315v-89q0 -63 30.5 -92.5t94.5 -29.5h240v-93h-240q-127 0 -185 54.5zM513 989h107l-88 -121h-82zM232.5 836.5q36.5 44.5 59.5 88.5h90
q23 -43 59.5 -88t64.5 -68h-98q-20 17 -40 39t-31 43q-11 -21 -31 -43t-40 -39h-97q27 23 63.5 67.5z" />
    <glyph glyph-name="uni1EC6" unicode="&#x1ec6;" horiz-adv-x="577" 
d="M114 54.5q-58 54.5 -58 160.5v270q0 106 58 160.5t185 54.5h236v-93h-236q-64 0 -94.5 -29.5t-30.5 -92.5v-89h315v-92h-315v-89q0 -63 30.5 -92.5t94.5 -29.5h240v-93h-240q-127 0 -185 54.5zM303 -164.5q-19 18.5 -19 44.5t19 45t45 19t45 -19t19 -45t-19 -44.5
t-45 -18.5t-45 18.5zM232.5 836.5q36.5 44.5 59.5 88.5h90q23 -43 59.5 -88t64.5 -68h-98q-20 17 -40 39t-31 43q-11 -21 -31 -43t-40 -39h-97q27 23 63.5 67.5z" />
    <glyph glyph-name="uni1EC0" unicode="&#x1ec0;" horiz-adv-x="577" 
d="M114 54.5q-58 54.5 -58 160.5v270q0 106 58 160.5t185 54.5h236v-93h-236q-64 0 -94.5 -29.5t-30.5 -92.5v-89h315v-92h-315v-89q0 -63 30.5 -92.5t94.5 -29.5h240v-93h-240q-127 0 -185 54.5zM407 989h107l63 -121h-82zM232.5 836.5q36.5 44.5 59.5 88.5h90
q23 -43 59.5 -88t64.5 -68h-98q-20 17 -40 39t-31 43q-11 -21 -31 -43t-40 -39h-97q27 23 63.5 67.5z" />
    <glyph glyph-name="uni1EC2" unicode="&#x1ec2;" horiz-adv-x="577" 
d="M114 54.5q-58 54.5 -58 160.5v270q0 106 58 160.5t185 54.5h236v-93h-236q-64 0 -94.5 -29.5t-30.5 -92.5v-89h315v-92h-315v-89q0 -63 30.5 -92.5t94.5 -29.5h240v-93h-240q-127 0 -185 54.5zM532 895v-32h-67v64q39 4 55.5 12t16.5 23q0 16 -10 22t-31 6q-17 0 -49 -10
l-16 50q31 15 76 15t70.5 -19t25.5 -57q0 -58 -71 -74zM441.5 837q36.5 -45 64.5 -68h-98q-20 17 -40 39t-31 43q-11 -21 -31 -43t-40 -39h-97q27 23 63.5 67.5t59.5 88.5h90q23 -43 59.5 -88z" />
    <glyph glyph-name="uni1EC4" unicode="&#x1ec4;" horiz-adv-x="577" 
d="M114 54.5q-58 54.5 -58 160.5v270q0 106 58 160.5t185 54.5h236v-93h-236q-64 0 -94.5 -29.5t-30.5 -92.5v-89h315v-92h-315v-89q0 -63 30.5 -92.5t94.5 -29.5h240v-93h-240q-127 0 -185 54.5zM210.5 1037.5q26.5 32.5 74.5 32.5q18 0 32.5 -5t35.5 -16q12 -6 23.5 -10.5
t21.5 -4.5q25 0 31 42h65q-4 -46 -30 -79t-66 -33q-19 0 -34.5 5.5t-34.5 15.5q-12 6 -23.5 10.5t-20.5 4.5q-29 0 -39 -43h-64q2 48 28.5 80.5zM232.5 836.5q36.5 44.5 59.5 88.5h90q23 -43 59.5 -88t64.5 -68h-98q-20 17 -40 39t-31 43q-11 -21 -31 -43t-40 -39h-97
q27 23 63.5 67.5z" />
    <glyph glyph-name="Edieresis" unicode="&#xcb;" horiz-adv-x="577" 
d="M114 54.5q-58 54.5 -58 160.5v270q0 106 58 160.5t185 54.5h236v-93h-236q-64 0 -94.5 -29.5t-30.5 -92.5v-89h315v-92h-315v-89q0 -63 30.5 -92.5t94.5 -29.5h240v-93h-240q-127 0 -185 54.5zM212 780.5q-17 16.5 -17 39.5t17 39.5t40 16.5t39 -16.5t16 -39.5t-16 -39.5
t-39 -16.5t-40 16.5zM385 780.5q-16 16.5 -16 39.5t16 39.5t40 16.5q23 0 40 -16.5t17 -39.5t-17 -39.5t-40 -16.5q-24 0 -40 16.5z" />
    <glyph glyph-name="Edotaccent" unicode="&#x116;" horiz-adv-x="577" 
d="M114 54.5q-58 54.5 -58 160.5v270q0 106 58 160.5t185 54.5h236v-93h-236q-64 0 -94.5 -29.5t-30.5 -92.5v-89h315v-92h-315v-89q0 -63 30.5 -92.5t94.5 -29.5h240v-93h-240q-127 0 -185 54.5zM293 782.5q-19 18.5 -19 45.5q0 26 19 44.5t45 18.5t45 -18.5t19 -44.5
q0 -27 -19 -45.5t-45 -18.5t-45 18.5z" />
    <glyph glyph-name="uni1EB8" unicode="&#x1eb8;" horiz-adv-x="577" 
d="M114 54.5q-58 54.5 -58 160.5v270q0 106 58 160.5t185 54.5h236v-93h-236q-64 0 -94.5 -29.5t-30.5 -92.5v-89h315v-92h-315v-89q0 -63 30.5 -92.5t94.5 -29.5h240v-93h-240q-127 0 -185 54.5zM303 -164.5q-19 18.5 -19 44.5t19 45t45 19t45 -19t19 -45t-19 -44.5
t-45 -18.5t-45 18.5z" />
    <glyph glyph-name="Egrave" unicode="&#xc8;" horiz-adv-x="577" 
d="M114 54.5q-58 54.5 -58 160.5v270q0 106 58 160.5t185 54.5h236v-93h-236q-64 0 -94.5 -29.5t-30.5 -92.5v-89h315v-92h-315v-89q0 -63 30.5 -92.5t94.5 -29.5h240v-93h-240q-127 0 -185 54.5zM188 922h115l80 -153h-88z" />
    <glyph glyph-name="uni1EBA" unicode="&#x1eba;" horiz-adv-x="577" 
d="M114 54.5q-58 54.5 -58 160.5v270q0 106 58 160.5t185 54.5h236v-93h-236q-64 0 -94.5 -29.5t-30.5 -92.5v-89h315v-92h-315v-89q0 -63 30.5 -92.5t94.5 -29.5h240v-93h-240q-127 0 -185 54.5zM372 807v-38h-79v76q45 4 65 14.5t20 27.5q0 19 -12 27t-35 8q-26 0 -58 -13
l-19 60q39 18 89 18q56 0 87.5 -23t31.5 -68q0 -70 -90 -89z" />
    <glyph glyph-name="Emacron" unicode="&#x112;" horiz-adv-x="577" 
d="M114 54.5q-58 54.5 -58 160.5v270q0 106 58 160.5t185 54.5h236v-93h-236q-64 0 -94.5 -29.5t-30.5 -92.5v-89h315v-92h-315v-89q0 -63 30.5 -92.5t94.5 -29.5h240v-93h-240q-127 0 -185 54.5zM181 862h314v-78h-314v78z" />
    <glyph glyph-name="Eogonek" unicode="&#x118;" horiz-adv-x="577" 
d="M577 -199q-41 -24 -83 -24q-72 0 -103 31.5t-31 71.5q0 66 57 120h-118q-127 0 -185 54.5t-58 160.5v270q0 106 58 160.5t185 54.5h236v-93h-236q-64 0 -94.5 -29.5t-30.5 -92.5v-89h315v-92h-315v-89q0 -63 30.5 -92.5t94.5 -29.5h240v-93h-44q-43 -54 -43 -104
q0 -24 14.5 -35.5t37.5 -11.5t54 13z" />
    <glyph glyph-name="uni1EBC" unicode="&#x1ebc;" horiz-adv-x="577" 
d="M114 54.5q-58 54.5 -58 160.5v270q0 106 58 160.5t185 54.5h236v-93h-236q-64 0 -94.5 -29.5t-30.5 -92.5v-89h315v-92h-315v-89q0 -63 30.5 -92.5t94.5 -29.5h240v-93h-240q-127 0 -185 54.5zM200.5 865q27.5 37 79.5 37q20 0 36.5 -6t38.5 -18q32 -17 49 -17
q13 0 19.5 11.5t9.5 37.5h72q-5 -55 -31.5 -92.5t-69.5 -37.5q-20 0 -36.5 6t-38.5 18q-32 17 -49 17q-15 0 -23.5 -11.5t-13.5 -37.5h-72q2 56 29.5 93z" />
    <glyph glyph-name="F" unicode="F" horiz-adv-x="581" 
d="M63 485q0 106 58 160.5t185 54.5h236v-93h-236q-64 0 -94.5 -29.5t-30.5 -92.5v-109h315v-92h-315v-284h-118v485z" />
    <glyph glyph-name="G" unicode="G" horiz-adv-x="671" 
d="M132.5 53q-74.5 65 -74.5 190v214q0 125 74.5 190t215.5 65q97 0 161.5 -30.5t103.5 -90.5l-89 -62q-32 47 -72 68.5t-104 21.5q-88 0 -130 -40.5t-42 -121.5v-214q0 -81 42 -121.5t130 -40.5q77 0 119 27t42 77v42q0 72 -69 72h-116v93h147q78 0 116 -36.5t38 -112.5
v-66q0 -58 -34 -100.5t-96.5 -65.5t-146.5 -23q-141 0 -215.5 65z" />
    <glyph glyph-name="Gbreve" unicode="&#x11e;" horiz-adv-x="671" 
d="M132.5 53q-74.5 65 -74.5 190v214q0 125 74.5 190t215.5 65q97 0 161.5 -30.5t103.5 -90.5l-89 -62q-32 47 -72 68.5t-104 21.5q-88 0 -130 -40.5t-42 -121.5v-214q0 -81 42 -121.5t130 -40.5q77 0 119 27t42 77v42q0 72 -69 72h-116v93h147q78 0 116 -36.5t38 -112.5
v-66q0 -58 -34 -100.5t-96.5 -65.5t-146.5 -23q-141 0 -215.5 65zM221.5 804q-43.5 43 -43.5 116h78q3 -38 24 -60t58 -22t58.5 22t23.5 60h78q0 -73 -43.5 -116t-116.5 -43t-116.5 43z" />
    <glyph glyph-name="Gcaron" unicode="&#x1e6;" horiz-adv-x="671" 
d="M132.5 53q-74.5 65 -74.5 190v214q0 125 74.5 190t215.5 65q97 0 161.5 -30.5t103.5 -90.5l-89 -62q-32 47 -72 68.5t-104 21.5q-88 0 -130 -40.5t-42 -121.5v-214q0 -81 42 -121.5t130 -40.5q77 0 119 27t42 77v42q0 72 -69 72h-116v93h147q78 0 116 -36.5t38 -112.5
v-66q0 -58 -34 -100.5t-96.5 -65.5t-146.5 -23q-141 0 -215.5 65zM232.5 857.5q-36.5 44.5 -63.5 67.5h97q19 -16 39 -38.5t32 -42.5q12 20 32 42.5t39 38.5h98q-28 -23 -64.5 -68t-59.5 -88h-90q-23 44 -59.5 88.5z" />
    <glyph glyph-name="Gcircumflex" unicode="&#x11c;" horiz-adv-x="671" 
d="M132.5 53q-74.5 65 -74.5 190v214q0 125 74.5 190t215.5 65q97 0 161.5 -30.5t103.5 -90.5l-89 -62q-32 47 -72 68.5t-104 21.5q-88 0 -130 -40.5t-42 -121.5v-214q0 -81 42 -121.5t130 -40.5q77 0 119 27t42 77v42q0 72 -69 72h-116v93h147q78 0 116 -36.5t38 -112.5
v-66q0 -58 -34 -100.5t-96.5 -65.5t-146.5 -23q-141 0 -215.5 65zM232.5 836.5q36.5 44.5 59.5 88.5h90q23 -43 59.5 -88t64.5 -68h-98q-20 17 -40 39t-31 43q-11 -21 -31 -43t-40 -39h-97q27 23 63.5 67.5z" />
    <glyph glyph-name="uni0122" unicode="&#x122;" horiz-adv-x="671" 
d="M132.5 53q-74.5 65 -74.5 190v214q0 125 74.5 190t215.5 65q97 0 161.5 -30.5t103.5 -90.5l-89 -62q-32 47 -72 68.5t-104 21.5q-88 0 -130 -40.5t-42 -121.5v-214q0 -81 42 -121.5t130 -40.5q77 0 119 27t42 77v42q0 72 -69 72h-116v93h147q78 0 116 -36.5t38 -112.5
v-66q0 -58 -34 -100.5t-96.5 -65.5t-146.5 -23q-141 0 -215.5 65zM389 -80q18 -22 18 -61q0 -50 -24 -90.5t-69 -75.5l-34 32q55 41 63 87q-11 -6 -28 -6q-23 0 -36 15.5t-13 43.5q0 29 21 53t51 24q33 0 51 -22z" />
    <glyph glyph-name="Gdotaccent" unicode="&#x120;" horiz-adv-x="671" 
d="M132.5 53q-74.5 65 -74.5 190v214q0 125 74.5 190t215.5 65q97 0 161.5 -30.5t103.5 -90.5l-89 -62q-32 47 -72 68.5t-104 21.5q-88 0 -130 -40.5t-42 -121.5v-214q0 -81 42 -121.5t130 -40.5q77 0 119 27t42 77v42q0 72 -69 72h-116v93h147q78 0 116 -36.5t38 -112.5
v-66q0 -58 -34 -100.5t-96.5 -65.5t-146.5 -23q-141 0 -215.5 65zM293 782.5q-19 18.5 -19 45.5q0 26 19 44.5t45 18.5t45 -18.5t19 -44.5q0 -27 -19 -45.5t-45 -18.5t-45 18.5z" />
    <glyph glyph-name="uni1E20" unicode="&#x1e20;" horiz-adv-x="671" 
d="M132.5 53q-74.5 65 -74.5 190v214q0 125 74.5 190t215.5 65q97 0 161.5 -30.5t103.5 -90.5l-89 -62q-32 47 -72 68.5t-104 21.5q-88 0 -130 -40.5t-42 -121.5v-214q0 -81 42 -121.5t130 -40.5q77 0 119 27t42 77v42q0 72 -69 72h-116v93h147q78 0 116 -36.5t38 -112.5
v-66q0 -58 -34 -100.5t-96.5 -65.5t-146.5 -23q-141 0 -215.5 65zM181 862h314v-78h-314v78z" />
    <glyph glyph-name="H" unicode="H" horiz-adv-x="723" 
d="M88 700h118v-303h310v303h118v-700h-118v305h-310v-305h-118v700z" />
    <glyph glyph-name="Hbar" unicode="&#x126;" horiz-adv-x="731" 
d="M725 507h-86v-507h-118v305h-310v-305h-118v507h-87v81h87v112h118v-112h310v112h118v-112h86v-81zM521 507h-310v-110h310v110z" />
    <glyph glyph-name="uni1E2A" unicode="&#x1e2a;" horiz-adv-x="723" 
d="M88 700h118v-303h310v303h118v-700h-118v305h-310v-305h-118v700zM244 -183.5q-43 43.5 -43 117.5h78q3 -39 24 -61.5t58 -22.5t58.5 23t23.5 61h78q0 -74 -43 -117.5t-117 -43.5t-117 43.5z" />
    <glyph glyph-name="Hcircumflex" unicode="&#x124;" horiz-adv-x="723" 
d="M88 700h118v-303h310v303h118v-700h-118v305h-310v-305h-118v700zM255.5 836.5q36.5 44.5 59.5 88.5h90q23 -43 59.5 -88t64.5 -68h-98q-20 17 -40 39t-31 43q-11 -21 -31 -43t-40 -39h-97q27 23 63.5 67.5z" />
    <glyph glyph-name="uni1E24" unicode="&#x1e24;" horiz-adv-x="723" 
d="M88 700h118v-303h310v303h118v-700h-118v305h-310v-305h-118v700zM316 -164.5q-19 18.5 -19 44.5t19 45t45 19t45 -19t19 -45t-19 -44.5t-45 -18.5t-45 18.5z" />
    <glyph glyph-name="I" unicode="I" horiz-adv-x="295" 
d="M88 700h118v-700h-118v700z" />
    <glyph glyph-name="IJ" unicode="&#x132;" horiz-adv-x="813" 
d="M88 700h118v-700h-118v700zM378 10.5q-46 22.5 -89 70.5l70 72q30 -40 60 -56t75 -16q67 0 102.5 31.5t35.5 91.5v496h118v-497q0 -105 -64.5 -160t-187.5 -55q-74 0 -120 22.5z" />
    <glyph glyph-name="Iacute" unicode="&#xcd;" horiz-adv-x="295" 
d="M88 700h118v-700h-118v700zM178 922h115l-107 -153h-88z" />
    <glyph glyph-name="Ibreve" unicode="&#x12c;" horiz-adv-x="295" 
d="M88 700h118v-700h-118v700zM31.5 804q-43.5 43 -43.5 116h78q3 -38 24 -60t58 -22t58.5 22t23.5 60h78q0 -73 -43.5 -116t-116.5 -43t-116.5 43z" />
    <glyph glyph-name="uni01CF" unicode="&#x1cf;" horiz-adv-x="295" 
d="M88 700h118v-700h-118v700zM42.5 857.5q-36.5 44.5 -63.5 67.5h97q19 -16 39 -38.5t32 -42.5q12 20 32 42.5t39 38.5h98q-28 -23 -64.5 -68t-59.5 -88h-90q-23 44 -59.5 88.5z" />
    <glyph glyph-name="Icircumflex" unicode="&#xce;" horiz-adv-x="295" 
d="M88 700h118v-700h-118v700zM42.5 836.5q36.5 44.5 59.5 88.5h90q23 -43 59.5 -88t64.5 -68h-98q-20 17 -40 39t-31 43q-11 -21 -31 -43t-40 -39h-97q27 23 63.5 67.5z" />
    <glyph glyph-name="Idieresis" unicode="&#xcf;" horiz-adv-x="295" 
d="M88 700h118v-700h-118v700zM22 780.5q-17 16.5 -17 39.5t17 39.5t40 16.5t39 -16.5t16 -39.5t-16 -39.5t-39 -16.5t-40 16.5zM195 780.5q-16 16.5 -16 39.5t16 39.5t40 16.5q23 0 40 -16.5t17 -39.5t-17 -39.5t-40 -16.5q-24 0 -40 16.5z" />
    <glyph glyph-name="Idotaccent" unicode="&#x130;" horiz-adv-x="295" 
d="M88 700h118v-700h-118v700zM103 782.5q-19 18.5 -19 45.5q0 26 19 44.5t45 18.5t45 -18.5t19 -44.5q0 -27 -19 -45.5t-45 -18.5t-45 18.5z" />
    <glyph glyph-name="uni1ECA" unicode="&#x1eca;" horiz-adv-x="295" 
d="M88 700h118v-700h-118v700zM103 -164.5q-19 18.5 -19 44.5t19 45t45 19t45 -19t19 -45t-19 -44.5t-45 -18.5t-45 18.5z" />
    <glyph glyph-name="Igrave" unicode="&#xcc;" horiz-adv-x="295" 
d="M88 700h118v-700h-118v700zM-2 922h115l80 -153h-88z" />
    <glyph glyph-name="uni1EC8" unicode="&#x1ec8;" horiz-adv-x="295" 
d="M88 700h118v-700h-118v700zM182 807v-38h-79v76q45 4 65 14.5t20 27.5q0 19 -12 27t-35 8q-26 0 -58 -13l-19 60q39 18 89 18q56 0 87.5 -23t31.5 -68q0 -70 -90 -89z" />
    <glyph glyph-name="Imacron" unicode="&#x12a;" horiz-adv-x="295" 
d="M88 700h118v-700h-118v700zM-9 862h314v-78h-314v78z" />
    <glyph glyph-name="Iogonek" unicode="&#x12e;" horiz-adv-x="295" 
d="M281 -199q-39 -24 -83 -24q-72 0 -103 31.5t-31 71.5q0 66 57 120h-33v700h118v-700h-6q-43 -54 -43 -104q0 -24 14 -35.5t37 -11.5t54 13z" />
    <glyph glyph-name="Itilde" unicode="&#x128;" horiz-adv-x="295" 
d="M88 700h118v-700h-118v700zM10.5 865q27.5 37 79.5 37q20 0 36.5 -6t38.5 -18q32 -17 49 -17q13 0 19.5 11.5t9.5 37.5h72q-5 -55 -31.5 -92.5t-69.5 -37.5q-20 0 -36.5 6t-38.5 18q-32 17 -49 17q-15 0 -23.5 -11.5t-13.5 -37.5h-72q2 56 29.5 93z" />
    <glyph glyph-name="J" unicode="J" horiz-adv-x="547" 
d="M112 10.5q-46 22.5 -89 70.5l70 72q30 -40 60 -56t75 -16q67 0 102.5 31.5t35.5 91.5v496h118v-497q0 -105 -64.5 -160t-187.5 -55q-74 0 -120 22.5z" />
    <glyph glyph-name="Jcircumflex" unicode="&#x134;" horiz-adv-x="547" 
d="M112 10.5q-46 22.5 -89 70.5l70 72q30 -40 60 -56t75 -16q67 0 102.5 31.5t35.5 91.5v496h118v-497q0 -105 -64.5 -160t-187.5 -55q-74 0 -120 22.5zM318.5 836.5q36.5 44.5 59.5 88.5h90q23 -43 59.5 -88t64.5 -68h-98q-20 17 -40 39t-31 43q-11 -21 -31 -43t-40 -39
h-97q27 23 63.5 67.5z" />
    <glyph glyph-name="K" unicode="K" horiz-adv-x="687" 
d="M484 393q30 -22 51.5 -60t43.5 -101l77 -232h-119l-74 221q-14 42 -28 65t-38 37t-67 19l-124 -135v-207h-118v700h118v-347l314 347h141l-254 -275q47 -10 77 -32z" />
    <glyph glyph-name="uni0136" unicode="&#x136;" horiz-adv-x="687" 
d="M484 393q30 -22 51.5 -60t43.5 -101l77 -232h-119l-74 221q-14 42 -28 65t-38 37t-67 19l-124 -135v-207h-118v700h118v-347l314 347h141l-254 -275q47 -10 77 -32zM414 -80q18 -22 18 -61q0 -50 -24 -90.5t-69 -75.5l-34 32q55 41 63 87q-11 -6 -28 -6q-23 0 -36 15.5
t-13 43.5q0 29 21 53t51 24q33 0 51 -22z" />
    <glyph glyph-name="L" unicode="L" horiz-adv-x="551" 
d="M118.5 54.5q-55.5 54.5 -55.5 160.5v485h118v-485q0 -63 28.5 -92.5t88.5 -29.5h224v-93h-224q-124 0 -179.5 54.5z" />
    <glyph glyph-name="Lacute" unicode="&#x139;" horiz-adv-x="551" 
d="M118.5 54.5q-55.5 54.5 -55.5 160.5v485h118v-485q0 -63 28.5 -92.5t88.5 -29.5h224v-93h-224q-124 0 -179.5 54.5zM153 922h115l-107 -153h-88z" />
    <glyph glyph-name="Lcaron" unicode="&#x13d;" horiz-adv-x="575" 
d="M118.5 54.5q-55.5 54.5 -55.5 160.5v485h118v-485q0 -63 28.5 -92.5t88.5 -29.5h224v-93h-224q-124 0 -179.5 54.5zM479 708.5q18 -22.5 18 -61.5q0 -51 -24 -91.5t-69 -76.5l-33 32q55 41 63 89q-10 -5 -28 -5q-23 0 -36.5 15.5t-13.5 42.5q0 29 21 53.5t52 24.5
q32 0 50 -22.5z" />
    <glyph glyph-name="uni013B" unicode="&#x13b;" horiz-adv-x="551" 
d="M118.5 54.5q-55.5 54.5 -55.5 160.5v485h118v-485q0 -63 28.5 -92.5t88.5 -29.5h224v-93h-224q-124 0 -179.5 54.5zM368 -80q18 -22 18 -61q0 -50 -24 -90.5t-69 -75.5l-34 32q55 41 63 87q-11 -6 -28 -6q-23 0 -36 15.5t-13 43.5q0 29 21 53t51 24q33 0 51 -22z" />
    <glyph glyph-name="Ldot" unicode="&#x13f;" horiz-adv-x="551" 
d="M118.5 54.5q-55.5 54.5 -55.5 160.5v485h118v-485q0 -63 28.5 -92.5t88.5 -29.5h224v-93h-224q-124 0 -179.5 54.5zM352 297.5q-23 22.5 -23 54.5q0 33 23 56t57 23q32 0 54.5 -23t22.5 -56q0 -32 -22.5 -54.5t-54.5 -22.5q-34 0 -57 22.5z" />
    <glyph glyph-name="uni1E36" unicode="&#x1e36;" horiz-adv-x="551" 
d="M118.5 54.5q-55.5 54.5 -55.5 160.5v485h118v-485q0 -63 28.5 -92.5t88.5 -29.5h224v-93h-224q-124 0 -179.5 54.5zM272 -164.5q-19 18.5 -19 44.5t19 45t45 19t45 -19t19 -45t-19 -44.5t-45 -18.5t-45 18.5z" />
    <glyph glyph-name="uni1E38" unicode="&#x1e38;" horiz-adv-x="551" 
d="M118.5 54.5q-55.5 54.5 -55.5 160.5v485h118v-485q0 -63 28.5 -92.5t88.5 -29.5h224v-93h-224q-124 0 -179.5 54.5zM272 -164.5q-19 18.5 -19 44.5t19 45t45 19t45 -19t19 -45t-19 -44.5t-45 -18.5t-45 18.5zM-34 862h314v-78h-314v78z" />
    <glyph glyph-name="uni1E3A" unicode="&#x1e3a;" horiz-adv-x="551" 
d="M118.5 54.5q-55.5 54.5 -55.5 160.5v485h118v-485q0 -63 28.5 -92.5t88.5 -29.5h224v-93h-224q-124 0 -179.5 54.5zM160 -75h314v-78h-314v78z" />
    <glyph glyph-name="Lslash" unicode="&#x141;" horiz-adv-x="564" 
d="M535 93v-93h-224q-124 0 -179.5 54.5t-55.5 160.5v36l-76 -34v93l76 35v355h118v-302l228 104v-94l-228 -103v-90q0 -63 28.5 -92.5t88.5 -29.5h224z" />
    <glyph glyph-name="M" unicode="M" horiz-adv-x="830" 
d="M88 700h63q47 0 76 -13t51 -41t49 -82l88 -173l88 173q27 54 49 82t51 41t76 13h63v-700h-108v578q-13 -1 -22.5 -11.5t-22.5 -35.5l-174 -324l-174 324q-14 26 -23 36.5t-22 11.5v-579h-108v700z" />
    <glyph glyph-name="uni1E42" unicode="&#x1e42;" horiz-adv-x="830" 
d="M88 700h63q47 0 76 -13t51 -41t49 -82l88 -173l88 173q27 54 49 82t51 41t76 13h63v-700h-108v578q-13 -1 -22.5 -11.5t-22.5 -35.5l-174 -324l-174 324q-14 26 -23 36.5t-22 11.5v-579h-108v700zM370 -164.5q-19 18.5 -19 44.5t19 45t45 19t45 -19t19 -45t-19 -44.5
t-45 -18.5t-45 18.5z" />
    <glyph glyph-name="N" unicode="N" horiz-adv-x="728" 
d="M652 700v-555q0 -72 -29.5 -108.5t-93.5 -36.5h-83l-247 515v-515h-111v700h135l285 -599h5q16 0 22 13.5t6 47.5v538h111z" />
    <glyph glyph-name="Nacute" unicode="&#x143;" horiz-adv-x="728" 
d="M652 700v-555q0 -72 -29.5 -108.5t-93.5 -36.5h-83l-247 515v-515h-111v700h135l285 -599h5q16 0 22 13.5t6 47.5v538h111zM399 922h115l-107 -153h-88z" />
    <glyph glyph-name="Ncaron" unicode="&#x147;" horiz-adv-x="728" 
d="M652 700v-555q0 -72 -29.5 -108.5t-93.5 -36.5h-83l-247 515v-515h-111v700h135l285 -599h5q16 0 22 13.5t6 47.5v538h111zM263.5 857.5q-36.5 44.5 -63.5 67.5h97q19 -16 39 -38.5t32 -42.5q12 20 32 42.5t39 38.5h98q-28 -23 -64.5 -68t-59.5 -88h-90
q-23 44 -59.5 88.5z" />
    <glyph glyph-name="uni0145" unicode="&#x145;" horiz-adv-x="728" 
d="M652 700v-555q0 -72 -29.5 -108.5t-93.5 -36.5h-83l-247 515v-515h-111v700h135l285 -599h5q16 0 22 13.5t6 47.5v538h111zM412 -80q18 -22 18 -61q0 -50 -24 -90.5t-69 -75.5l-34 32q55 41 63 87q-11 -6 -28 -6q-23 0 -36 15.5t-13 43.5q0 29 21 53t51 24q33 0 51 -22z
" />
    <glyph glyph-name="uni1E44" unicode="&#x1e44;" horiz-adv-x="728" 
d="M652 700v-555q0 -72 -29.5 -108.5t-93.5 -36.5h-83l-247 515v-515h-111v700h135l285 -599h5q16 0 22 13.5t6 47.5v538h111zM324 782.5q-19 18.5 -19 45.5q0 26 19 44.5t45 18.5t45 -18.5t19 -44.5q0 -27 -19 -45.5t-45 -18.5t-45 18.5z" />
    <glyph glyph-name="uni1E46" unicode="&#x1e46;" horiz-adv-x="728" 
d="M652 700v-555q0 -72 -29.5 -108.5t-93.5 -36.5h-83l-247 515v-515h-111v700h135l285 -599h5q16 0 22 13.5t6 47.5v538h111zM316 -164.5q-19 18.5 -19 44.5t19 45t45 19t45 -19t19 -45t-19 -44.5t-45 -18.5t-45 18.5z" />
    <glyph glyph-name="Eng" unicode="&#x14a;" horiz-adv-x="728" 
d="M403 -139h50q48 0 68 23t20 77v40q-6 -1 -17 -1h-78l-247 515v-515h-111v700h135l286 -599h4q16 0 22 13.5t6 47.5v538h111v-739q0 -104 -46 -148.5t-153 -44.5h-50v93z" />
    <glyph glyph-name="uni1E48" unicode="&#x1e48;" horiz-adv-x="728" 
d="M652 700v-555q0 -72 -29.5 -108.5t-93.5 -36.5h-83l-247 515v-515h-111v700h135l285 -599h5q16 0 22 13.5t6 47.5v538h111zM204 -75h314v-78h-314v78z" />
    <glyph glyph-name="Ntilde" unicode="&#xd1;" horiz-adv-x="728" 
d="M652 700v-555q0 -72 -29.5 -108.5t-93.5 -36.5h-83l-247 515v-515h-111v700h135l285 -599h5q16 0 22 13.5t6 47.5v538h111zM231.5 865q27.5 37 79.5 37q20 0 36.5 -6t38.5 -18q32 -17 49 -17q13 0 19.5 11.5t9.5 37.5h72q-5 -55 -31.5 -92.5t-69.5 -37.5q-20 0 -36.5 6
t-38.5 18q-32 17 -49 17q-15 0 -23.5 -11.5t-13.5 -37.5h-72q2 56 29.5 93z" />
    <glyph glyph-name="O" unicode="O" horiz-adv-x="681" 
d="M131 53q-73 65 -73 190v214q0 125 73 190t210 65t209.5 -65t72.5 -190v-214q0 -125 -72.5 -190t-209.5 -65t-210 65zM462.5 122.5q42.5 41.5 42.5 120.5v214q0 79 -42.5 120.5t-121.5 41.5q-80 0 -122.5 -41.5t-42.5 -120.5v-214q0 -79 42.5 -120.5t122.5 -41.5
q79 0 121.5 41.5z" />
    <glyph glyph-name="Oacute" unicode="&#xd3;" horiz-adv-x="681" 
d="M131 53q-73 65 -73 190v214q0 125 73 190t210 65t209.5 -65t72.5 -190v-214q0 -125 -72.5 -190t-209.5 -65t-210 65zM462.5 122.5q42.5 41.5 42.5 120.5v214q0 79 -42.5 120.5t-121.5 41.5q-80 0 -122.5 -41.5t-42.5 -120.5v-214q0 -79 42.5 -120.5t122.5 -41.5
q79 0 121.5 41.5zM371 922h115l-107 -153h-88z" />
    <glyph glyph-name="Obreve" unicode="&#x14e;" horiz-adv-x="681" 
d="M131 53q-73 65 -73 190v214q0 125 73 190t210 65t209.5 -65t72.5 -190v-214q0 -125 -72.5 -190t-209.5 -65t-210 65zM462.5 122.5q42.5 41.5 42.5 120.5v214q0 79 -42.5 120.5t-121.5 41.5q-80 0 -122.5 -41.5t-42.5 -120.5v-214q0 -79 42.5 -120.5t122.5 -41.5
q79 0 121.5 41.5zM224.5 804q-43.5 43 -43.5 116h78q3 -38 24 -60t58 -22t58.5 22t23.5 60h78q0 -73 -43.5 -116t-116.5 -43t-116.5 43z" />
    <glyph glyph-name="uni01D1" unicode="&#x1d1;" horiz-adv-x="681" 
d="M131 53q-73 65 -73 190v214q0 125 73 190t210 65t209.5 -65t72.5 -190v-214q0 -125 -72.5 -190t-209.5 -65t-210 65zM462.5 122.5q42.5 41.5 42.5 120.5v214q0 79 -42.5 120.5t-121.5 41.5q-80 0 -122.5 -41.5t-42.5 -120.5v-214q0 -79 42.5 -120.5t122.5 -41.5
q79 0 121.5 41.5zM235.5 857.5q-36.5 44.5 -63.5 67.5h97q19 -16 39 -38.5t32 -42.5q12 20 32 42.5t39 38.5h98q-28 -23 -64.5 -68t-59.5 -88h-90q-23 44 -59.5 88.5z" />
    <glyph glyph-name="Ocircumflex" unicode="&#xd4;" horiz-adv-x="681" 
d="M131 53q-73 65 -73 190v214q0 125 73 190t210 65t209.5 -65t72.5 -190v-214q0 -125 -72.5 -190t-209.5 -65t-210 65zM462.5 122.5q42.5 41.5 42.5 120.5v214q0 79 -42.5 120.5t-121.5 41.5q-80 0 -122.5 -41.5t-42.5 -120.5v-214q0 -79 42.5 -120.5t122.5 -41.5
q79 0 121.5 41.5zM235.5 836.5q36.5 44.5 59.5 88.5h90q23 -43 59.5 -88t64.5 -68h-98q-20 17 -40 39t-31 43q-11 -21 -31 -43t-40 -39h-97q27 23 63.5 67.5z" />
    <glyph glyph-name="uni1ED0" unicode="&#x1ed0;" horiz-adv-x="681" 
d="M131 53q-73 65 -73 190v214q0 125 73 190t210 65t209.5 -65t72.5 -190v-214q0 -125 -72.5 -190t-209.5 -65t-210 65zM462.5 122.5q42.5 41.5 42.5 120.5v214q0 79 -42.5 120.5t-121.5 41.5q-80 0 -122.5 -41.5t-42.5 -120.5v-214q0 -79 42.5 -120.5t122.5 -41.5
q79 0 121.5 41.5zM516 989h107l-88 -121h-82zM235.5 836.5q36.5 44.5 59.5 88.5h90q23 -43 59.5 -88t64.5 -68h-98q-20 17 -40 39t-31 43q-11 -21 -31 -43t-40 -39h-97q27 23 63.5 67.5z" />
    <glyph glyph-name="uni1ED8" unicode="&#x1ed8;" horiz-adv-x="681" 
d="M131 53q-73 65 -73 190v214q0 125 73 190t210 65t209.5 -65t72.5 -190v-214q0 -125 -72.5 -190t-209.5 -65t-210 65zM462.5 122.5q42.5 41.5 42.5 120.5v214q0 79 -42.5 120.5t-121.5 41.5q-80 0 -122.5 -41.5t-42.5 -120.5v-214q0 -79 42.5 -120.5t122.5 -41.5
q79 0 121.5 41.5zM296 -164.5q-19 18.5 -19 44.5t19 45t45 19t45 -19t19 -45t-19 -44.5t-45 -18.5t-45 18.5zM235.5 836.5q36.5 44.5 59.5 88.5h90q23 -43 59.5 -88t64.5 -68h-98q-20 17 -40 39t-31 43q-11 -21 -31 -43t-40 -39h-97q27 23 63.5 67.5z" />
    <glyph glyph-name="uni1ED2" unicode="&#x1ed2;" horiz-adv-x="681" 
d="M131 53q-73 65 -73 190v214q0 125 73 190t210 65t209.5 -65t72.5 -190v-214q0 -125 -72.5 -190t-209.5 -65t-210 65zM462.5 122.5q42.5 41.5 42.5 120.5v214q0 79 -42.5 120.5t-121.5 41.5q-80 0 -122.5 -41.5t-42.5 -120.5v-214q0 -79 42.5 -120.5t122.5 -41.5
q79 0 121.5 41.5zM410 989h107l63 -121h-82zM235.5 836.5q36.5 44.5 59.5 88.5h90q23 -43 59.5 -88t64.5 -68h-98q-20 17 -40 39t-31 43q-11 -21 -31 -43t-40 -39h-97q27 23 63.5 67.5z" />
    <glyph glyph-name="uni1ED4" unicode="&#x1ed4;" horiz-adv-x="681" 
d="M131 53q-73 65 -73 190v214q0 125 73 190t210 65t209.5 -65t72.5 -190v-214q0 -125 -72.5 -190t-209.5 -65t-210 65zM462.5 122.5q42.5 41.5 42.5 120.5v214q0 79 -42.5 120.5t-121.5 41.5q-80 0 -122.5 -41.5t-42.5 -120.5v-214q0 -79 42.5 -120.5t122.5 -41.5
q79 0 121.5 41.5zM535 895v-32h-67v64q39 4 55.5 12t16.5 23q0 16 -10 22t-31 6q-17 0 -49 -10l-16 50q31 15 76 15t70.5 -19t25.5 -57q0 -58 -71 -74zM444.5 837q36.5 -45 64.5 -68h-98q-20 17 -40 39t-31 43q-11 -21 -31 -43t-40 -39h-97q27 23 63.5 67.5t59.5 88.5h90
q23 -43 59.5 -88z" />
    <glyph glyph-name="uni1ED6" unicode="&#x1ed6;" horiz-adv-x="681" 
d="M131 53q-73 65 -73 190v214q0 125 73 190t210 65t209.5 -65t72.5 -190v-214q0 -125 -72.5 -190t-209.5 -65t-210 65zM462.5 122.5q42.5 41.5 42.5 120.5v214q0 79 -42.5 120.5t-121.5 41.5q-80 0 -122.5 -41.5t-42.5 -120.5v-214q0 -79 42.5 -120.5t122.5 -41.5
q79 0 121.5 41.5zM213.5 1037.5q26.5 32.5 74.5 32.5q18 0 32.5 -5t35.5 -16q12 -6 23.5 -10.5t21.5 -4.5q25 0 31 42h65q-4 -46 -30 -79t-66 -33q-19 0 -34.5 5.5t-34.5 15.5q-12 6 -23.5 10.5t-20.5 4.5q-29 0 -39 -43h-64q2 48 28.5 80.5zM235.5 836.5
q36.5 44.5 59.5 88.5h90q23 -43 59.5 -88t64.5 -68h-98q-20 17 -40 39t-31 43q-11 -21 -31 -43t-40 -39h-97q27 23 63.5 67.5z" />
    <glyph glyph-name="Odieresis" unicode="&#xd6;" horiz-adv-x="681" 
d="M131 53q-73 65 -73 190v214q0 125 73 190t210 65t209.5 -65t72.5 -190v-214q0 -125 -72.5 -190t-209.5 -65t-210 65zM462.5 122.5q42.5 41.5 42.5 120.5v214q0 79 -42.5 120.5t-121.5 41.5q-80 0 -122.5 -41.5t-42.5 -120.5v-214q0 -79 42.5 -120.5t122.5 -41.5
q79 0 121.5 41.5zM215 780.5q-17 16.5 -17 39.5t17 39.5t40 16.5t39 -16.5t16 -39.5t-16 -39.5t-39 -16.5t-40 16.5zM388 780.5q-16 16.5 -16 39.5t16 39.5t40 16.5q23 0 40 -16.5t17 -39.5t-17 -39.5t-40 -16.5q-24 0 -40 16.5z" />
    <glyph glyph-name="uni1ECC" unicode="&#x1ecc;" horiz-adv-x="681" 
d="M131 53q-73 65 -73 190v214q0 125 73 190t210 65t209.5 -65t72.5 -190v-214q0 -125 -72.5 -190t-209.5 -65t-210 65zM462.5 122.5q42.5 41.5 42.5 120.5v214q0 79 -42.5 120.5t-121.5 41.5q-80 0 -122.5 -41.5t-42.5 -120.5v-214q0 -79 42.5 -120.5t122.5 -41.5
q79 0 121.5 41.5zM296 -164.5q-19 18.5 -19 44.5t19 45t45 19t45 -19t19 -45t-19 -44.5t-45 -18.5t-45 18.5z" />
    <glyph glyph-name="Ograve" unicode="&#xd2;" horiz-adv-x="681" 
d="M131 53q-73 65 -73 190v214q0 125 73 190t210 65t209.5 -65t72.5 -190v-214q0 -125 -72.5 -190t-209.5 -65t-210 65zM462.5 122.5q42.5 41.5 42.5 120.5v214q0 79 -42.5 120.5t-121.5 41.5q-80 0 -122.5 -41.5t-42.5 -120.5v-214q0 -79 42.5 -120.5t122.5 -41.5
q79 0 121.5 41.5zM191 922h115l80 -153h-88z" />
    <glyph glyph-name="uni1ECE" unicode="&#x1ece;" horiz-adv-x="681" 
d="M131 53q-73 65 -73 190v214q0 125 73 190t210 65t209.5 -65t72.5 -190v-214q0 -125 -72.5 -190t-209.5 -65t-210 65zM462.5 122.5q42.5 41.5 42.5 120.5v214q0 79 -42.5 120.5t-121.5 41.5q-80 0 -122.5 -41.5t-42.5 -120.5v-214q0 -79 42.5 -120.5t122.5 -41.5
q79 0 121.5 41.5zM375 807v-38h-79v76q45 4 65 14.5t20 27.5q0 19 -12 27t-35 8q-26 0 -58 -13l-19 60q39 18 89 18q56 0 87.5 -23t31.5 -68q0 -70 -90 -89z" />
    <glyph glyph-name="Ohorn" unicode="&#x1a0;" horiz-adv-x="698" 
d="M726 588.5q-34 -46.5 -111 -56.5q8 -37 8 -75v-214q0 -125 -72.5 -190t-209.5 -65t-210 65t-73 190v214q0 125 73 190t210 65q95 0 159.5 -31.5t95.5 -93.5q40 8 54 41.5t15 101.5h98q-3 -95 -37 -141.5zM505 457q0 79 -42.5 120.5t-121.5 41.5q-80 0 -122.5 -41.5
t-42.5 -120.5v-214q0 -79 42.5 -120.5t122.5 -41.5q79 0 121.5 41.5t42.5 120.5v214z" />
    <glyph glyph-name="uni1EDA" unicode="&#x1eda;" horiz-adv-x="698" 
d="M726 588.5q-34 -46.5 -111 -56.5q8 -37 8 -75v-214q0 -125 -72.5 -190t-209.5 -65t-210 65t-73 190v214q0 125 73 190t210 65q95 0 159.5 -31.5t95.5 -93.5q40 8 54 41.5t15 101.5h98q-3 -95 -37 -141.5zM505 457q0 79 -42.5 120.5t-121.5 41.5q-80 0 -122.5 -41.5
t-42.5 -120.5v-214q0 -79 42.5 -120.5t122.5 -41.5q79 0 121.5 41.5t42.5 120.5v214zM371 922h115l-107 -153h-88z" />
    <glyph glyph-name="uni1EE2" unicode="&#x1ee2;" horiz-adv-x="698" 
d="M726 588.5q-34 -46.5 -111 -56.5q8 -37 8 -75v-214q0 -125 -72.5 -190t-209.5 -65t-210 65t-73 190v214q0 125 73 190t210 65q95 0 159.5 -31.5t95.5 -93.5q40 8 54 41.5t15 101.5h98q-3 -95 -37 -141.5zM505 457q0 79 -42.5 120.5t-121.5 41.5q-80 0 -122.5 -41.5
t-42.5 -120.5v-214q0 -79 42.5 -120.5t122.5 -41.5q79 0 121.5 41.5t42.5 120.5v214zM296 -164.5q-19 18.5 -19 44.5t19 45t45 19t45 -19t19 -45t-19 -44.5t-45 -18.5t-45 18.5z" />
    <glyph glyph-name="uni1EDC" unicode="&#x1edc;" horiz-adv-x="698" 
d="M726 588.5q-34 -46.5 -111 -56.5q8 -37 8 -75v-214q0 -125 -72.5 -190t-209.5 -65t-210 65t-73 190v214q0 125 73 190t210 65q95 0 159.5 -31.5t95.5 -93.5q40 8 54 41.5t15 101.5h98q-3 -95 -37 -141.5zM505 457q0 79 -42.5 120.5t-121.5 41.5q-80 0 -122.5 -41.5
t-42.5 -120.5v-214q0 -79 42.5 -120.5t122.5 -41.5q79 0 121.5 41.5t42.5 120.5v214zM191 922h115l80 -153h-88z" />
    <glyph glyph-name="uni1EDE" unicode="&#x1ede;" horiz-adv-x="698" 
d="M726 588.5q-34 -46.5 -111 -56.5q8 -37 8 -75v-214q0 -125 -72.5 -190t-209.5 -65t-210 65t-73 190v214q0 125 73 190t210 65q95 0 159.5 -31.5t95.5 -93.5q40 8 54 41.5t15 101.5h98q-3 -95 -37 -141.5zM505 457q0 79 -42.5 120.5t-121.5 41.5q-80 0 -122.5 -41.5
t-42.5 -120.5v-214q0 -79 42.5 -120.5t122.5 -41.5q79 0 121.5 41.5t42.5 120.5v214zM375 807v-38h-79v76q45 4 65 14.5t20 27.5q0 19 -12 27t-35 8q-26 0 -58 -13l-19 60q39 18 89 18q56 0 87.5 -23t31.5 -68q0 -70 -90 -89z" />
    <glyph glyph-name="uni1EE0" unicode="&#x1ee0;" horiz-adv-x="698" 
d="M726 588.5q-34 -46.5 -111 -56.5q8 -37 8 -75v-214q0 -125 -72.5 -190t-209.5 -65t-210 65t-73 190v214q0 125 73 190t210 65q95 0 159.5 -31.5t95.5 -93.5q40 8 54 41.5t15 101.5h98q-3 -95 -37 -141.5zM505 457q0 79 -42.5 120.5t-121.5 41.5q-80 0 -122.5 -41.5
t-42.5 -120.5v-214q0 -79 42.5 -120.5t122.5 -41.5q79 0 121.5 41.5t42.5 120.5v214zM203.5 865q27.5 37 79.5 37q20 0 36.5 -6t38.5 -18q32 -17 49 -17q13 0 19.5 11.5t9.5 37.5h72q-5 -55 -31.5 -92.5t-69.5 -37.5q-20 0 -36.5 6t-38.5 18q-32 17 -49 17
q-15 0 -23.5 -11.5t-13.5 -37.5h-72q2 56 29.5 93z" />
    <glyph glyph-name="Ohungarumlaut" unicode="&#x150;" horiz-adv-x="681" 
d="M131 53q-73 65 -73 190v214q0 125 73 190t210 65t209.5 -65t72.5 -190v-214q0 -125 -72.5 -190t-209.5 -65t-210 65zM462.5 122.5q42.5 41.5 42.5 120.5v214q0 79 -42.5 120.5t-121.5 41.5q-80 0 -122.5 -41.5t-42.5 -120.5v-214q0 -79 42.5 -120.5t122.5 -41.5
q79 0 121.5 41.5zM277 922h100l-81 -153h-81zM445 922h100l-82 -153h-80z" />
    <glyph glyph-name="Omacron" unicode="&#x14c;" horiz-adv-x="681" 
d="M131 53q-73 65 -73 190v214q0 125 73 190t210 65t209.5 -65t72.5 -190v-214q0 -125 -72.5 -190t-209.5 -65t-210 65zM462.5 122.5q42.5 41.5 42.5 120.5v214q0 79 -42.5 120.5t-121.5 41.5q-80 0 -122.5 -41.5t-42.5 -120.5v-214q0 -79 42.5 -120.5t122.5 -41.5
q79 0 121.5 41.5zM184 862h314v-78h-314v78z" />
    <glyph glyph-name="Oslash" unicode="&#xd8;" horiz-adv-x="681" 
d="M623 457v-214q0 -125 -72.5 -190t-209.5 -65q-70 0 -121 16l-38 -74h-87l55 108q-92 64 -92 205v214q0 125 73 190t210 65q84 0 142 -24l42 82h87l-63 -122q74 -65 74 -191zM203 141l233 456q-37 22 -95 22q-80 0 -122.5 -41.5t-42.5 -120.5v-214q0 -63 27 -102zM505 457
q0 43 -14 77l-225 -441q31 -12 75 -12q79 0 121.5 41.5t42.5 120.5v214z" />
    <glyph glyph-name="Oslashacute" unicode="&#x1fe;" horiz-adv-x="681" 
d="M623 457v-214q0 -125 -72.5 -190t-209.5 -65q-70 0 -121 16l-38 -74h-87l55 108q-92 64 -92 205v214q0 125 73 190t210 65q84 0 142 -24l42 82h87l-63 -122q74 -65 74 -191zM203 141l233 456q-37 22 -95 22q-80 0 -122.5 -41.5t-42.5 -120.5v-214q0 -63 27 -102zM505 457
q0 43 -14 77l-225 -441q31 -12 75 -12q79 0 121.5 41.5t42.5 120.5v214zM371 922h115l-107 -153h-88z" />
    <glyph glyph-name="Otilde" unicode="&#xd5;" horiz-adv-x="681" 
d="M131 53q-73 65 -73 190v214q0 125 73 190t210 65t209.5 -65t72.5 -190v-214q0 -125 -72.5 -190t-209.5 -65t-210 65zM462.5 122.5q42.5 41.5 42.5 120.5v214q0 79 -42.5 120.5t-121.5 41.5q-80 0 -122.5 -41.5t-42.5 -120.5v-214q0 -79 42.5 -120.5t122.5 -41.5
q79 0 121.5 41.5zM203.5 865q27.5 37 79.5 37q20 0 36.5 -6t38.5 -18q32 -17 49 -17q13 0 19.5 11.5t9.5 37.5h72q-5 -55 -31.5 -92.5t-69.5 -37.5q-20 0 -36.5 6t-38.5 18q-32 17 -49 17q-15 0 -23.5 -11.5t-13.5 -37.5h-72q2 56 29.5 93z" />
    <glyph glyph-name="OE" unicode="&#x152;" horiz-adv-x="1025" 
d="M987 93v-93h-240q-130 0 -190 60q-70 -72 -216 -72q-137 0 -210 65t-73 190v214q0 125 73 190t210 65q145 0 216 -72q60 60 190 60h237v-93h-237q-64 0 -94 -29.5t-30 -92.5v-89h314v-92h-314v-89q0 -63 30 -92.5t94 -29.5h240zM462.5 122.5q42.5 41.5 42.5 120.5v214
q0 79 -42.5 120.5t-121.5 41.5q-80 0 -122 -41.5t-42 -120.5v-214q0 -79 42 -120.5t122 -41.5q79 0 121.5 41.5z" />
    <glyph glyph-name="P" unicode="P" horiz-adv-x="634" 
d="M88 700h288q119 0 177 -53.5t58 -162.5q0 -110 -58 -163.5t-177 -53.5h-170v-267h-118v700zM377 360q52 0 84 31.5t32 92.5t-32 92t-84 31h-171v-247h171z" />
    <glyph glyph-name="Thorn" unicode="&#xde;" horiz-adv-x="634" 
d="M88 700h118v-133h170q235 0 235 -216q0 -109 -58.5 -163t-176.5 -54h-170v-134h-118v700zM377 227q52 0 84 31.5t32 92.5t-32 92.5t-84 31.5h-171v-248h171z" />
    <glyph glyph-name="Q" unicode="Q" horiz-adv-x="681" 
d="M575.5 80.5q-47.5 -62.5 -137.5 -82.5q47 -47 156 -47v-100q-107 1 -172.5 34.5t-98.5 102.5q-129 5 -197 70t-68 185v214q0 125 73 190t210 65t209.5 -65t72.5 -190v-214q0 -100 -47.5 -162.5zM505 457q0 79 -42.5 120.5t-121.5 41.5q-80 0 -122.5 -41.5t-42.5 -120.5
v-214q0 -79 42.5 -120.5t122.5 -41.5q79 0 121.5 41.5t42.5 120.5v214z" />
    <glyph glyph-name="R" unicode="R" horiz-adv-x="676" 
d="M642 0h-125l-47 163q-14 49 -29 76.5t-41.5 41.5t-71.5 14h-122v-295h-118v700h289q118 0 176 -50t58 -151q0 -71 -36 -114t-101 -54q49 -17 75 -58t46 -110zM377 388q52 0 84 28t32 81q0 54 -32 82t-84 28h-171v-219h171z" />
    <glyph glyph-name="Racute" unicode="&#x154;" horiz-adv-x="676" 
d="M642 0h-125l-47 163q-14 49 -29 76.5t-41.5 41.5t-71.5 14h-122v-295h-118v700h289q118 0 176 -50t58 -151q0 -71 -36 -114t-101 -54q49 -17 75 -58t46 -110zM377 388q52 0 84 28t32 81q0 54 -32 82t-84 28h-171v-219h171zM371 922h115l-107 -153h-88z" />
    <glyph glyph-name="Rcaron" unicode="&#x158;" horiz-adv-x="676" 
d="M642 0h-125l-47 163q-14 49 -29 76.5t-41.5 41.5t-71.5 14h-122v-295h-118v700h289q118 0 176 -50t58 -151q0 -71 -36 -114t-101 -54q49 -17 75 -58t46 -110zM377 388q52 0 84 28t32 81q0 54 -32 82t-84 28h-171v-219h171zM235.5 857.5q-36.5 44.5 -63.5 67.5h97
q19 -16 39 -38.5t32 -42.5q12 20 32 42.5t39 38.5h98q-28 -23 -64.5 -68t-59.5 -88h-90q-23 44 -59.5 88.5z" />
    <glyph glyph-name="uni0156" unicode="&#x156;" horiz-adv-x="676" 
d="M642 0h-125l-47 163q-14 49 -29 76.5t-41.5 41.5t-71.5 14h-122v-295h-118v700h289q118 0 176 -50t58 -151q0 -71 -36 -114t-101 -54q49 -17 75 -58t46 -110zM377 388q52 0 84 28t32 81q0 54 -32 82t-84 28h-171v-219h171zM403 -80q18 -22 18 -61q0 -50 -24 -90.5
t-69 -75.5l-34 32q55 41 63 87q-11 -6 -28 -6q-23 0 -36 15.5t-13 43.5q0 29 21 53t51 24q33 0 51 -22z" />
    <glyph glyph-name="uni1E5A" unicode="&#x1e5a;" horiz-adv-x="676" 
d="M642 0h-125l-47 163q-14 49 -29 76.5t-41.5 41.5t-71.5 14h-122v-295h-118v700h289q118 0 176 -50t58 -151q0 -71 -36 -114t-101 -54q49 -17 75 -58t46 -110zM377 388q52 0 84 28t32 81q0 54 -32 82t-84 28h-171v-219h171zM307 -164.5q-19 18.5 -19 44.5t19 45t45 19
t45 -19t19 -45t-19 -44.5t-45 -18.5t-45 18.5z" />
    <glyph glyph-name="uni1E5C" unicode="&#x1e5c;" horiz-adv-x="676" 
d="M642 0h-125l-47 163q-14 49 -29 76.5t-41.5 41.5t-71.5 14h-122v-295h-118v700h289q118 0 176 -50t58 -151q0 -71 -36 -114t-101 -54q49 -17 75 -58t46 -110zM377 388q52 0 84 28t32 81q0 54 -32 82t-84 28h-171v-219h171zM307 -164.5q-19 18.5 -19 44.5t19 45t45 19
t45 -19t19 -45t-19 -44.5t-45 -18.5t-45 18.5zM184 862h314v-78h-314v78z" />
    <glyph glyph-name="uni1E5E" unicode="&#x1e5e;" horiz-adv-x="676" 
d="M642 0h-125l-47 163q-14 49 -29 76.5t-41.5 41.5t-71.5 14h-122v-295h-118v700h289q118 0 176 -50t58 -151q0 -71 -36 -114t-101 -54q49 -17 75 -58t46 -110zM377 388q52 0 84 28t32 81q0 54 -32 82t-84 28h-171v-219h171zM195 -75h314v-78h-314v78z" />
    <glyph glyph-name="S" unicode="S" horiz-adv-x="629" 
d="M188.5 2.5q-47.5 14.5 -81.5 42.5t-69 74l80 67q41 -57 82.5 -81t103.5 -24q84 0 125 27t41 83q0 31 -17.5 50.5t-61 34t-129.5 32.5q-98 20 -146 70t-48 133q0 61 31 106.5t88 70t134 24.5q94 0 153.5 -29t94.5 -86l-78 -64q-39 45 -76.5 65.5t-94.5 20.5
q-64 0 -99 -28.5t-35 -80.5q0 -47 39 -71.5t108 -39.5q89 -18 142 -39.5t83 -61.5t30 -107q0 -203 -283 -203q-69 0 -116.5 14.5z" />
    <glyph glyph-name="Sacute" unicode="&#x15a;" horiz-adv-x="629" 
d="M188.5 2.5q-47.5 14.5 -81.5 42.5t-69 74l80 67q41 -57 82.5 -81t103.5 -24q84 0 125 27t41 83q0 31 -17.5 50.5t-61 34t-129.5 32.5q-98 20 -146 70t-48 133q0 61 31 106.5t88 70t134 24.5q94 0 153.5 -29t94.5 -86l-78 -64q-39 45 -76.5 65.5t-94.5 20.5
q-64 0 -99 -28.5t-35 -80.5q0 -47 39 -71.5t108 -39.5q89 -18 142 -39.5t83 -61.5t30 -107q0 -203 -283 -203q-69 0 -116.5 14.5zM351 922h115l-107 -153h-88z" />
    <glyph glyph-name="Scaron" unicode="&#x160;" horiz-adv-x="629" 
d="M188.5 2.5q-47.5 14.5 -81.5 42.5t-69 74l80 67q41 -57 82.5 -81t103.5 -24q84 0 125 27t41 83q0 31 -17.5 50.5t-61 34t-129.5 32.5q-98 20 -146 70t-48 133q0 61 31 106.5t88 70t134 24.5q94 0 153.5 -29t94.5 -86l-78 -64q-39 45 -76.5 65.5t-94.5 20.5
q-64 0 -99 -28.5t-35 -80.5q0 -47 39 -71.5t108 -39.5q89 -18 142 -39.5t83 -61.5t30 -107q0 -203 -283 -203q-69 0 -116.5 14.5zM215.5 857.5q-36.5 44.5 -63.5 67.5h97q19 -16 39 -38.5t32 -42.5q12 20 32 42.5t39 38.5h98q-28 -23 -64.5 -68t-59.5 -88h-90
q-23 44 -59.5 88.5z" />
    <glyph glyph-name="Scedilla" unicode="&#x15e;" horiz-adv-x="629" 
d="M531 50.5q-57 -50.5 -169 -60.5l-8 -29q85 -9 85 -89q0 -47 -33.5 -70.5t-96.5 -23.5q-56 0 -102 23l19 61q36 -18 71 -18q30 0 44 6.5t14 21.5q0 16 -12 25.5t-47 9.5q-8 0 -32 -2l20 83q-89 4 -143 34.5t-103 96.5l80 67q41 -57 82.5 -81t103.5 -24q84 0 125 27t41 83
q0 31 -17.5 50.5t-61 34t-129.5 32.5q-98 20 -146 70t-48 133q0 61 31 106.5t88 70t134 24.5q94 0 153.5 -29t94.5 -86l-78 -64q-39 45 -76.5 65.5t-94.5 20.5q-64 0 -99 -28.5t-35 -80.5q0 -47 39 -71.5t108 -39.5q89 -18 142 -39.5t83 -61.5t30 -107q0 -90 -57 -140.5z
" />
    <glyph glyph-name="Scircumflex" unicode="&#x15c;" horiz-adv-x="629" 
d="M188.5 2.5q-47.5 14.5 -81.5 42.5t-69 74l80 67q41 -57 82.5 -81t103.5 -24q84 0 125 27t41 83q0 31 -17.5 50.5t-61 34t-129.5 32.5q-98 20 -146 70t-48 133q0 61 31 106.5t88 70t134 24.5q94 0 153.5 -29t94.5 -86l-78 -64q-39 45 -76.5 65.5t-94.5 20.5
q-64 0 -99 -28.5t-35 -80.5q0 -47 39 -71.5t108 -39.5q89 -18 142 -39.5t83 -61.5t30 -107q0 -203 -283 -203q-69 0 -116.5 14.5zM215.5 836.5q36.5 44.5 59.5 88.5h90q23 -43 59.5 -88t64.5 -68h-98q-20 17 -40 39t-31 43q-11 -21 -31 -43t-40 -39h-97q27 23 63.5 67.5z
" />
    <glyph glyph-name="uni0218" unicode="&#x218;" horiz-adv-x="629" 
d="M188.5 2.5q-47.5 14.5 -81.5 42.5t-69 74l80 67q41 -57 82.5 -81t103.5 -24q84 0 125 27t41 83q0 31 -17.5 50.5t-61 34t-129.5 32.5q-98 20 -146 70t-48 133q0 61 31 106.5t88 70t134 24.5q94 0 153.5 -29t94.5 -86l-78 -64q-39 45 -76.5 65.5t-94.5 20.5
q-64 0 -99 -28.5t-35 -80.5q0 -47 39 -71.5t108 -39.5q89 -18 142 -39.5t83 -61.5t30 -107q0 -203 -283 -203q-69 0 -116.5 14.5zM375 -80q18 -22 18 -61q0 -50 -24 -90.5t-69 -75.5l-34 32q55 41 63 87q-11 -6 -28 -6q-23 0 -36 15.5t-13 43.5q0 29 21 53t51 24
q33 0 51 -22z" />
    <glyph glyph-name="uni1E60" unicode="&#x1e60;" horiz-adv-x="629" 
d="M188.5 2.5q-47.5 14.5 -81.5 42.5t-69 74l80 67q41 -57 82.5 -81t103.5 -24q84 0 125 27t41 83q0 31 -17.5 50.5t-61 34t-129.5 32.5q-98 20 -146 70t-48 133q0 61 31 106.5t88 70t134 24.5q94 0 153.5 -29t94.5 -86l-78 -64q-39 45 -76.5 65.5t-94.5 20.5
q-64 0 -99 -28.5t-35 -80.5q0 -47 39 -71.5t108 -39.5q89 -18 142 -39.5t83 -61.5t30 -107q0 -203 -283 -203q-69 0 -116.5 14.5zM276 782.5q-19 18.5 -19 45.5q0 26 19 44.5t45 18.5t45 -18.5t19 -44.5q0 -27 -19 -45.5t-45 -18.5t-45 18.5z" />
    <glyph glyph-name="uni1E62" unicode="&#x1e62;" horiz-adv-x="629" 
d="M188.5 2.5q-47.5 14.5 -81.5 42.5t-69 74l80 67q41 -57 82.5 -81t103.5 -24q84 0 125 27t41 83q0 31 -17.5 50.5t-61 34t-129.5 32.5q-98 20 -146 70t-48 133q0 61 31 106.5t88 70t134 24.5q94 0 153.5 -29t94.5 -86l-78 -64q-39 45 -76.5 65.5t-94.5 20.5
q-64 0 -99 -28.5t-35 -80.5q0 -47 39 -71.5t108 -39.5q89 -18 142 -39.5t83 -61.5t30 -107q0 -203 -283 -203q-69 0 -116.5 14.5zM279 -164.5q-19 18.5 -19 44.5t19 45t45 19t45 -19t19 -45t-19 -44.5t-45 -18.5t-45 18.5z" />
    <glyph glyph-name="uni1E9E" unicode="&#x1e9e;" horiz-adv-x="666" 
d="M278 9v93q42 -21 98 -21q63 0 93.5 20t30.5 62v77q0 38 -37.5 59.5t-99.5 21.5h-26v101l157 153q-36 19 -79.5 31.5t-84.5 12.5q-64 0 -94 -37t-30 -118v-464h-118v464q0 122 58 185t185 63q71 0 140 -21.5t129 -60.5v-83l-146 -143q84 -14 124 -53.5t40 -110.5v-86
q0 -82 -58.5 -124t-172.5 -42q-61 0 -109 21z" />
    <glyph glyph-name="uni018F" unicode="&#x18f;" horiz-adv-x="691" 
d="M559.5 648q72.5 -64 72.5 -189v-222q0 -121 -73 -185t-209 -64q-139 0 -215.5 68.5t-76.5 198.5q0 74 38.5 109t124.5 35h293v60q0 80 -40.5 120t-126.5 40q-70 0 -113.5 -19.5t-79.5 -62.5l-74 68q40 54 104.5 80.5t163.5 26.5q139 0 211.5 -64zM471 121.5
q43 40.5 43 115.5v70h-249q-48 0 -68.5 -16t-20.5 -56q0 -73 46.5 -113.5t127.5 -40.5q78 0 121 40.5z" />
    <glyph glyph-name="T" unicode="T" horiz-adv-x="597" 
d="M240 607h-217v93h551v-93h-216v-607h-118v607z" />
    <glyph glyph-name="Tbar" unicode="&#x166;" horiz-adv-x="597" 
d="M358 607v-214h145v-83h-145v-310h-118v310h-146v83h146v214h-217v93h551v-93h-216z" />
    <glyph glyph-name="Tcaron" unicode="&#x164;" horiz-adv-x="597" 
d="M240 607h-217v93h551v-93h-216v-607h-118v607zM192.5 857.5q-36.5 44.5 -63.5 67.5h97q19 -16 39 -38.5t32 -42.5q12 20 32 42.5t39 38.5h98q-28 -23 -64.5 -68t-59.5 -88h-90q-23 44 -59.5 88.5z" />
    <glyph glyph-name="uni0162" unicode="&#x162;" horiz-adv-x="597" 
d="M340 0l-12 -39q86 -9 86 -89q0 -47 -34 -70.5t-97 -23.5q-56 0 -102 23l19 61q36 -18 71 -18q30 0 44 6.5t14 21.5q0 16 -11.5 25.5t-46.5 9.5q-7 0 -33 -2l24 95h-22v607h-217v93h551v-93h-216v-607h-18z" />
    <glyph glyph-name="uni021A" unicode="&#x21a;" horiz-adv-x="597" 
d="M240 607h-217v93h551v-93h-216v-607h-118v607zM349 -80q18 -22 18 -61q0 -50 -24 -90.5t-69 -75.5l-34 32q55 41 63 87q-11 -6 -28 -6q-23 0 -36 15.5t-13 43.5q0 29 21 53t51 24q33 0 51 -22z" />
    <glyph glyph-name="uni1E6C" unicode="&#x1e6c;" horiz-adv-x="597" 
d="M240 607h-217v93h551v-93h-216v-607h-118v607zM253 -164.5q-19 18.5 -19 44.5t19 45t45 19t45 -19t19 -45t-19 -44.5t-45 -18.5t-45 18.5z" />
    <glyph glyph-name="uni1E6E" unicode="&#x1e6e;" horiz-adv-x="597" 
d="M240 607h-217v93h551v-93h-216v-607h-118v607zM141 -75h314v-78h-314v78z" />
    <glyph glyph-name="U" unicode="U" horiz-adv-x="673" 
d="M133.5 44.5q-70.5 56.5 -70.5 157.5v498h118v-498q0 -60 39.5 -91t115.5 -31t115.5 31t39.5 91v498h118v-498q0 -101 -70.5 -157.5t-202.5 -56.5t-202.5 56.5z" />
    <glyph glyph-name="Uacute" unicode="&#xda;" horiz-adv-x="673" 
d="M133.5 44.5q-70.5 56.5 -70.5 157.5v498h118v-498q0 -60 39.5 -91t115.5 -31t115.5 31t39.5 91v498h118v-498q0 -101 -70.5 -157.5t-202.5 -56.5t-202.5 56.5zM366 922h115l-107 -153h-88z" />
    <glyph glyph-name="Ubreve" unicode="&#x16c;" horiz-adv-x="673" 
d="M133.5 44.5q-70.5 56.5 -70.5 157.5v498h118v-498q0 -60 39.5 -91t115.5 -31t115.5 31t39.5 91v498h118v-498q0 -101 -70.5 -157.5t-202.5 -56.5t-202.5 56.5zM219.5 804q-43.5 43 -43.5 116h78q3 -38 24 -60t58 -22t58.5 22t23.5 60h78q0 -73 -43.5 -116t-116.5 -43
t-116.5 43z" />
    <glyph glyph-name="uni01D3" unicode="&#x1d3;" horiz-adv-x="673" 
d="M133.5 44.5q-70.5 56.5 -70.5 157.5v498h118v-498q0 -60 39.5 -91t115.5 -31t115.5 31t39.5 91v498h118v-498q0 -101 -70.5 -157.5t-202.5 -56.5t-202.5 56.5zM230.5 857.5q-36.5 44.5 -63.5 67.5h97q19 -16 39 -38.5t32 -42.5q12 20 32 42.5t39 38.5h98
q-28 -23 -64.5 -68t-59.5 -88h-90q-23 44 -59.5 88.5z" />
    <glyph glyph-name="Ucircumflex" unicode="&#xdb;" horiz-adv-x="673" 
d="M133.5 44.5q-70.5 56.5 -70.5 157.5v498h118v-498q0 -60 39.5 -91t115.5 -31t115.5 31t39.5 91v498h118v-498q0 -101 -70.5 -157.5t-202.5 -56.5t-202.5 56.5zM230.5 836.5q36.5 44.5 59.5 88.5h90q23 -43 59.5 -88t64.5 -68h-98q-20 17 -40 39t-31 43q-11 -21 -31 -43
t-40 -39h-97q27 23 63.5 67.5z" />
    <glyph glyph-name="Udieresis" unicode="&#xdc;" horiz-adv-x="673" 
d="M133.5 44.5q-70.5 56.5 -70.5 157.5v498h118v-498q0 -60 39.5 -91t115.5 -31t115.5 31t39.5 91v498h118v-498q0 -101 -70.5 -157.5t-202.5 -56.5t-202.5 56.5zM210 780.5q-17 16.5 -17 39.5t17 39.5t40 16.5t39 -16.5t16 -39.5t-16 -39.5t-39 -16.5t-40 16.5zM383 780.5
q-16 16.5 -16 39.5t16 39.5t40 16.5q23 0 40 -16.5t17 -39.5t-17 -39.5t-40 -16.5q-24 0 -40 16.5z" />
    <glyph glyph-name="uni01D7" unicode="&#x1d7;" horiz-adv-x="673" 
d="M133.5 44.5q-70.5 56.5 -70.5 157.5v498h118v-498q0 -60 39.5 -91t115.5 -31t115.5 31t39.5 91v498h118v-498q0 -101 -70.5 -157.5t-202.5 -56.5t-202.5 56.5zM352 1045h109l-90 -121h-82zM210 780.5q-17 16.5 -17 39.5t17 39.5t40 16.5t39 -16.5t16 -39.5t-16 -39.5
t-39 -16.5t-40 16.5zM383 780.5q-16 16.5 -16 39.5t16 39.5t40 16.5q23 0 40 -16.5t17 -39.5t-17 -39.5t-40 -16.5q-24 0 -40 16.5z" />
    <glyph glyph-name="uni01D9" unicode="&#x1d9;" horiz-adv-x="673" 
d="M133.5 44.5q-70.5 56.5 -70.5 157.5v498h118v-498q0 -60 39.5 -91t115.5 -31t115.5 31t39.5 91v498h118v-498q0 -101 -70.5 -157.5t-202.5 -56.5t-202.5 56.5zM238.5 993.5q-34.5 36.5 -60.5 56.5h92q45 -35 66 -67q11 17 29.5 35.5t36.5 31.5h92q-26 -20 -60.5 -56.5
t-55.5 -71.5h-84q-21 35 -55.5 71.5zM210 780.5q-17 16.5 -17 39.5t17 39.5t40 16.5t39 -16.5t16 -39.5t-16 -39.5t-39 -16.5t-40 16.5zM383 780.5q-16 16.5 -16 39.5t16 39.5t40 16.5q23 0 40 -16.5t17 -39.5t-17 -39.5t-40 -16.5q-24 0 -40 16.5z" />
    <glyph glyph-name="uni01DB" unicode="&#x1db;" horiz-adv-x="673" 
d="M133.5 44.5q-70.5 56.5 -70.5 157.5v498h118v-498q0 -60 39.5 -91t115.5 -31t115.5 31t39.5 91v498h118v-498q0 -101 -70.5 -157.5t-202.5 -56.5t-202.5 56.5zM205 1046h108l63 -121h-81zM210 780.5q-17 16.5 -17 39.5t17 39.5t40 16.5t39 -16.5t16 -39.5t-16 -39.5
t-39 -16.5t-40 16.5zM383 780.5q-16 16.5 -16 39.5t16 39.5t40 16.5q23 0 40 -16.5t17 -39.5t-17 -39.5t-40 -16.5q-24 0 -40 16.5z" />
    <glyph glyph-name="uni01D5" unicode="&#x1d5;" horiz-adv-x="673" 
d="M133.5 44.5q-70.5 56.5 -70.5 157.5v498h118v-498q0 -60 39.5 -91t115.5 -31t115.5 31t39.5 91v498h118v-498q0 -101 -70.5 -157.5t-202.5 -56.5t-202.5 56.5zM178 1006h314v-78h-314v78zM210 780.5q-17 16.5 -17 39.5t17 39.5t40 16.5t39 -16.5t16 -39.5t-16 -39.5
t-39 -16.5t-40 16.5zM383 780.5q-16 16.5 -16 39.5t16 39.5t40 16.5q23 0 40 -16.5t17 -39.5t-17 -39.5t-40 -16.5q-24 0 -40 16.5z" />
    <glyph glyph-name="uni1EE4" unicode="&#x1ee4;" horiz-adv-x="673" 
d="M133.5 44.5q-70.5 56.5 -70.5 157.5v498h118v-498q0 -60 39.5 -91t115.5 -31t115.5 31t39.5 91v498h118v-498q0 -101 -70.5 -157.5t-202.5 -56.5t-202.5 56.5zM291 -164.5q-19 18.5 -19 44.5t19 45t45 19t45 -19t19 -45t-19 -44.5t-45 -18.5t-45 18.5z" />
    <glyph glyph-name="Ugrave" unicode="&#xd9;" horiz-adv-x="673" 
d="M133.5 44.5q-70.5 56.5 -70.5 157.5v498h118v-498q0 -60 39.5 -91t115.5 -31t115.5 31t39.5 91v498h118v-498q0 -101 -70.5 -157.5t-202.5 -56.5t-202.5 56.5zM186 922h115l80 -153h-88z" />
    <glyph glyph-name="uni1EE6" unicode="&#x1ee6;" horiz-adv-x="673" 
d="M133.5 44.5q-70.5 56.5 -70.5 157.5v498h118v-498q0 -60 39.5 -91t115.5 -31t115.5 31t39.5 91v498h118v-498q0 -101 -70.5 -157.5t-202.5 -56.5t-202.5 56.5zM370 807v-38h-79v76q45 4 65 14.5t20 27.5q0 19 -12 27t-35 8q-26 0 -58 -13l-19 60q39 18 89 18
q56 0 87.5 -23t31.5 -68q0 -70 -90 -89z" />
    <glyph glyph-name="Uhorn" unicode="&#x1af;" horiz-adv-x="756" 
d="M742.5 579.5q-40.5 -46.5 -133.5 -49.5v-328q0 -101 -70.5 -157.5t-202.5 -56.5t-202.5 56.5t-70.5 157.5v498h118v-498q0 -60 39.5 -91t115.5 -31t115.5 31t39.5 91v498h118v-114q46 4 62.5 38.5t16.5 105.5h99q-4 -104 -44.5 -150.5z" />
    <glyph glyph-name="uni1EE8" unicode="&#x1ee8;" horiz-adv-x="756" 
d="M742.5 579.5q-40.5 -46.5 -133.5 -49.5v-328q0 -101 -70.5 -157.5t-202.5 -56.5t-202.5 56.5t-70.5 157.5v498h118v-498q0 -60 39.5 -91t115.5 -31t115.5 31t39.5 91v498h118v-114q46 4 62.5 38.5t16.5 105.5h99q-4 -104 -44.5 -150.5zM366 922h115l-107 -153h-88z" />
    <glyph glyph-name="uni1EF0" unicode="&#x1ef0;" horiz-adv-x="756" 
d="M742.5 579.5q-40.5 -46.5 -133.5 -49.5v-328q0 -101 -70.5 -157.5t-202.5 -56.5t-202.5 56.5t-70.5 157.5v498h118v-498q0 -60 39.5 -91t115.5 -31t115.5 31t39.5 91v498h118v-114q46 4 62.5 38.5t16.5 105.5h99q-4 -104 -44.5 -150.5zM291 -164.5q-19 18.5 -19 44.5
t19 45t45 19t45 -19t19 -45t-19 -44.5t-45 -18.5t-45 18.5z" />
    <glyph glyph-name="uni1EEA" unicode="&#x1eea;" horiz-adv-x="756" 
d="M742.5 579.5q-40.5 -46.5 -133.5 -49.5v-328q0 -101 -70.5 -157.5t-202.5 -56.5t-202.5 56.5t-70.5 157.5v498h118v-498q0 -60 39.5 -91t115.5 -31t115.5 31t39.5 91v498h118v-114q46 4 62.5 38.5t16.5 105.5h99q-4 -104 -44.5 -150.5zM186 922h115l80 -153h-88z" />
    <glyph glyph-name="uni1EEC" unicode="&#x1eec;" horiz-adv-x="756" 
d="M742.5 579.5q-40.5 -46.5 -133.5 -49.5v-328q0 -101 -70.5 -157.5t-202.5 -56.5t-202.5 56.5t-70.5 157.5v498h118v-498q0 -60 39.5 -91t115.5 -31t115.5 31t39.5 91v498h118v-114q46 4 62.5 38.5t16.5 105.5h99q-4 -104 -44.5 -150.5zM370 807v-38h-79v76q45 4 65 14.5
t20 27.5q0 19 -12 27t-35 8q-26 0 -58 -13l-19 60q39 18 89 18q56 0 87.5 -23t31.5 -68q0 -70 -90 -89z" />
    <glyph glyph-name="uni1EEE" unicode="&#x1eee;" horiz-adv-x="756" 
d="M742.5 579.5q-40.5 -46.5 -133.5 -49.5v-328q0 -101 -70.5 -157.5t-202.5 -56.5t-202.5 56.5t-70.5 157.5v498h118v-498q0 -60 39.5 -91t115.5 -31t115.5 31t39.5 91v498h118v-114q46 4 62.5 38.5t16.5 105.5h99q-4 -104 -44.5 -150.5zM198.5 865q27.5 37 79.5 37
q20 0 36.5 -6t38.5 -18q32 -17 49 -17q13 0 19.5 11.5t9.5 37.5h72q-5 -55 -31.5 -92.5t-69.5 -37.5q-20 0 -36.5 6t-38.5 18q-32 17 -49 17q-15 0 -23.5 -11.5t-13.5 -37.5h-72q2 56 29.5 93z" />
    <glyph glyph-name="Uhungarumlaut" unicode="&#x170;" horiz-adv-x="673" 
d="M133.5 44.5q-70.5 56.5 -70.5 157.5v498h118v-498q0 -60 39.5 -91t115.5 -31t115.5 31t39.5 91v498h118v-498q0 -101 -70.5 -157.5t-202.5 -56.5t-202.5 56.5zM272 922h100l-81 -153h-81zM440 922h100l-82 -153h-80z" />
    <glyph glyph-name="Umacron" unicode="&#x16a;" horiz-adv-x="673" 
d="M133.5 44.5q-70.5 56.5 -70.5 157.5v498h118v-498q0 -60 39.5 -91t115.5 -31t115.5 31t39.5 91v498h118v-498q0 -101 -70.5 -157.5t-202.5 -56.5t-202.5 56.5zM179 862h314v-78h-314v78z" />
    <glyph glyph-name="Uogonek" unicode="&#x172;" horiz-adv-x="673" 
d="M609 700v-498q0 -93 -60.5 -149t-175.5 -64q-34 -48 -34 -93q0 -24 14 -35.5t37 -11.5t54 13l19 -61q-39 -24 -83 -24q-72 0 -103 31.5t-31 71.5q0 60 47 110q-112 9 -171 64.5t-59 147.5v498h118v-498q0 -60 39.5 -91t115.5 -31t115.5 31t39.5 91v498h118z" />
    <glyph glyph-name="Uring" unicode="&#x16e;" horiz-adv-x="673" 
d="M133.5 44.5q-70.5 56.5 -70.5 157.5v498h118v-498q0 -60 39.5 -91t115.5 -31t115.5 31t39.5 91v498h118v-498q0 -101 -70.5 -157.5t-202.5 -56.5t-202.5 56.5zM257.5 784q-29.5 27 -29.5 72q0 46 29.5 73t78.5 27t78.5 -27t29.5 -73q0 -45 -29.5 -72t-78.5 -27t-78.5 27z
M369.5 823.5q12.5 12.5 12.5 32.5q0 21 -12.5 33.5t-33.5 12.5t-33.5 -12.5t-12.5 -33.5q0 -20 12.5 -32.5t33.5 -12.5t33.5 12.5z" />
    <glyph glyph-name="Utilde" unicode="&#x168;" horiz-adv-x="673" 
d="M133.5 44.5q-70.5 56.5 -70.5 157.5v498h118v-498q0 -60 39.5 -91t115.5 -31t115.5 31t39.5 91v498h118v-498q0 -101 -70.5 -157.5t-202.5 -56.5t-202.5 56.5zM198.5 865q27.5 37 79.5 37q20 0 36.5 -6t38.5 -18q32 -17 49 -17q13 0 19.5 11.5t9.5 37.5h72
q-5 -55 -31.5 -92.5t-69.5 -37.5q-20 0 -36.5 6t-38.5 18q-32 17 -49 17q-15 0 -23.5 -11.5t-13.5 -37.5h-72q2 56 29.5 93z" />
    <glyph glyph-name="V" unicode="V" horiz-adv-x="661" 
d="M244.5 20q-31.5 32 -55.5 113l-166 567h118l160 -565q6 -20 12.5 -29t17.5 -9q10 0 17 9t12 29l160 565h118l-166 -567q-24 -81 -55.5 -113t-85.5 -32q-55 0 -86.5 32z" />
    <glyph glyph-name="W" unicode="W" horiz-adv-x="913" 
d="M887 700l-160 -700h-35q-50 0 -80 12t-49.5 41t-37.5 83l-69 210l-67 -210q-17 -53 -37.5 -82t-51 -41.5t-79.5 -12.5h-35l-160 700h111l133 -590q14 12 26 46l160 462l162 -462q10 -33 25 -46l133 590h111z" />
    <glyph glyph-name="Wacute" unicode="&#x1e82;" horiz-adv-x="913" 
d="M887 700l-160 -700h-35q-50 0 -80 12t-49.5 41t-37.5 83l-69 210l-67 -210q-17 -53 -37.5 -82t-51 -41.5t-79.5 -12.5h-35l-160 700h111l133 -590q14 12 26 46l160 462l162 -462q10 -33 25 -46l133 590h111zM486 922h115l-107 -153h-88z" />
    <glyph glyph-name="Wcircumflex" unicode="&#x174;" horiz-adv-x="913" 
d="M887 700l-160 -700h-35q-50 0 -80 12t-49.5 41t-37.5 83l-69 210l-67 -210q-17 -53 -37.5 -82t-51 -41.5t-79.5 -12.5h-35l-160 700h111l133 -590q14 12 26 46l160 462l162 -462q10 -33 25 -46l133 590h111zM350.5 836.5q36.5 44.5 59.5 88.5h90q23 -43 59.5 -88
t64.5 -68h-98q-20 17 -40 39t-31 43q-11 -21 -31 -43t-40 -39h-97q27 23 63.5 67.5z" />
    <glyph glyph-name="Wdieresis" unicode="&#x1e84;" horiz-adv-x="913" 
d="M887 700l-160 -700h-35q-50 0 -80 12t-49.5 41t-37.5 83l-69 210l-67 -210q-17 -53 -37.5 -82t-51 -41.5t-79.5 -12.5h-35l-160 700h111l133 -590q14 12 26 46l160 462l162 -462q10 -33 25 -46l133 590h111zM330 780.5q-17 16.5 -17 39.5t17 39.5t40 16.5t39 -16.5
t16 -39.5t-16 -39.5t-39 -16.5t-40 16.5zM503 780.5q-16 16.5 -16 39.5t16 39.5t40 16.5q23 0 40 -16.5t17 -39.5t-17 -39.5t-40 -16.5q-24 0 -40 16.5z" />
    <glyph glyph-name="Wgrave" unicode="&#x1e80;" horiz-adv-x="913" 
d="M887 700l-160 -700h-35q-50 0 -80 12t-49.5 41t-37.5 83l-69 210l-67 -210q-17 -53 -37.5 -82t-51 -41.5t-79.5 -12.5h-35l-160 700h111l133 -590q14 12 26 46l160 462l162 -462q10 -33 25 -46l133 590h111zM306 922h115l80 -153h-88z" />
    <glyph glyph-name="X" unicode="X" horiz-adv-x="600" 
d="M372 343l219 -343h-134l-161 253l-162 -253h-132l228 357l-219 343h134l161 -253l161 253h131z" />
    <glyph glyph-name="Y" unicode="Y" horiz-adv-x="595" 
d="M237 298l-234 402h132l164 -294l160 294h133l-237 -402v-298h-118v298z" />
    <glyph glyph-name="Yacute" unicode="&#xdd;" horiz-adv-x="595" 
d="M237 298l-234 402h132l164 -294l160 294h133l-237 -402v-298h-118v298zM327 922h115l-107 -153h-88z" />
    <glyph glyph-name="Ycircumflex" unicode="&#x176;" horiz-adv-x="595" 
d="M237 298l-234 402h132l164 -294l160 294h133l-237 -402v-298h-118v298zM191.5 836.5q36.5 44.5 59.5 88.5h90q23 -43 59.5 -88t64.5 -68h-98q-20 17 -40 39t-31 43q-11 -21 -31 -43t-40 -39h-97q27 23 63.5 67.5z" />
    <glyph glyph-name="Ydieresis" unicode="&#x178;" horiz-adv-x="595" 
d="M237 298l-234 402h132l164 -294l160 294h133l-237 -402v-298h-118v298zM171 780.5q-17 16.5 -17 39.5t17 39.5t40 16.5t39 -16.5t16 -39.5t-16 -39.5t-39 -16.5t-40 16.5zM344 780.5q-16 16.5 -16 39.5t16 39.5t40 16.5q23 0 40 -16.5t17 -39.5t-17 -39.5t-40 -16.5
q-24 0 -40 16.5z" />
    <glyph glyph-name="uni1E8E" unicode="&#x1e8e;" horiz-adv-x="595" 
d="M237 298l-234 402h132l164 -294l160 294h133l-237 -402v-298h-118v298zM252 782.5q-19 18.5 -19 45.5q0 26 19 44.5t45 18.5t45 -18.5t19 -44.5q0 -27 -19 -45.5t-45 -18.5t-45 18.5z" />
    <glyph glyph-name="uni1EF4" unicode="&#x1ef4;" horiz-adv-x="595" 
d="M237 298l-234 402h132l164 -294l160 294h133l-237 -402v-298h-118v298zM251 -164.5q-19 18.5 -19 44.5t19 45t45 19t45 -19t19 -45t-19 -44.5t-45 -18.5t-45 18.5z" />
    <glyph glyph-name="Ygrave" unicode="&#x1ef2;" horiz-adv-x="595" 
d="M237 298l-234 402h132l164 -294l160 294h133l-237 -402v-298h-118v298zM147 922h115l80 -153h-88z" />
    <glyph glyph-name="uni1EF6" unicode="&#x1ef6;" horiz-adv-x="595" 
d="M237 298l-234 402h132l164 -294l160 294h133l-237 -402v-298h-118v298zM331 807v-38h-79v76q45 4 65 14.5t20 27.5q0 19 -12 27t-35 8q-26 0 -58 -13l-19 60q39 18 89 18q56 0 87.5 -23t31.5 -68q0 -70 -90 -89z" />
    <glyph glyph-name="uni1EF8" unicode="&#x1ef8;" horiz-adv-x="595" 
d="M237 298l-234 402h132l164 -294l160 294h133l-237 -402v-298h-118v298zM159.5 865q27.5 37 79.5 37q20 0 36.5 -6t38.5 -18q32 -17 49 -17q13 0 19.5 11.5t9.5 37.5h72q-5 -55 -31.5 -92.5t-69.5 -37.5q-20 0 -36.5 6t-38.5 18q-32 17 -49 17q-15 0 -23.5 -11.5
t-13.5 -37.5h-72q2 56 29.5 93z" />
    <glyph glyph-name="Z" unicode="Z" horiz-adv-x="585" 
d="M559 92v-93h-402q-64 0 -96.5 27.5t-32.5 86.5v61l391 433h-376v93h499v-106l-406 -456v-9q0 -21 11 -29t34 -8h378z" />
    <glyph glyph-name="Zacute" unicode="&#x179;" horiz-adv-x="585" 
d="M559 92v-93h-402q-64 0 -96.5 27.5t-32.5 86.5v61l391 433h-376v93h499v-106l-406 -456v-9q0 -21 11 -29t34 -8h378zM325 922h115l-107 -153h-88z" />
    <glyph glyph-name="Zcaron" unicode="&#x17d;" horiz-adv-x="585" 
d="M559 92v-93h-402q-64 0 -96.5 27.5t-32.5 86.5v61l391 433h-376v93h499v-106l-406 -456v-9q0 -21 11 -29t34 -8h378zM189.5 857.5q-36.5 44.5 -63.5 67.5h97q19 -16 39 -38.5t32 -42.5q12 20 32 42.5t39 38.5h98q-28 -23 -64.5 -68t-59.5 -88h-90q-23 44 -59.5 88.5z" />
    <glyph glyph-name="Zdotaccent" unicode="&#x17b;" horiz-adv-x="585" 
d="M559 92v-93h-402q-64 0 -96.5 27.5t-32.5 86.5v61l391 433h-376v93h499v-106l-406 -456v-9q0 -21 11 -29t34 -8h378zM250 782.5q-19 18.5 -19 45.5q0 26 19 44.5t45 18.5t45 -18.5t19 -44.5q0 -27 -19 -45.5t-45 -18.5t-45 18.5z" />
    <glyph glyph-name="uni1E92" unicode="&#x1e92;" horiz-adv-x="585" 
d="M559 92v-93h-402q-64 0 -96.5 27.5t-32.5 86.5v61l391 433h-376v93h499v-106l-406 -456v-9q0 -21 11 -29t34 -8h378zM250 -164.5q-19 18.5 -19 44.5t19 45t45 19t45 -19t19 -45t-19 -44.5t-45 -18.5t-45 18.5z" />
    <glyph glyph-name="a" unicode="a" horiz-adv-x="530" 
d="M470 86q9 -15 33 -34l-73 -64q-56 28 -71 74q-23 -32 -63 -53t-95 -21q-72 0 -114 36.5t-42 103.5q0 77 53 109t135 41l58 6q32 3 45.5 11.5t15.5 25.5q-6 84 -101 84q-37 0 -63.5 -12.5t-50.5 -41.5l-75 53q27 37 72 57.5t117 20.5q105 0 157.5 -43.5t52.5 -126.5v-187
q0 -24 9 -39zM319 97q33 29 33 73v54q-19 -8 -66 -13l-45 -5q-92 -10 -92 -73q0 -32 20.5 -48.5t58.5 -16.5q58 0 91 29z" />
    <glyph glyph-name="aacute" unicode="&#xe1;" horiz-adv-x="530" 
d="M470 86q9 -15 33 -34l-73 -64q-56 28 -71 74q-23 -32 -63 -53t-95 -21q-72 0 -114 36.5t-42 103.5q0 77 53 109t135 41l58 6q32 3 45.5 11.5t15.5 25.5q-6 84 -101 84q-37 0 -63.5 -12.5t-50.5 -41.5l-75 53q27 37 72 57.5t117 20.5q105 0 157.5 -43.5t52.5 -126.5v-187
q0 -24 9 -39zM319 97q33 29 33 73v54q-19 -8 -66 -13l-45 -5q-92 -10 -92 -73q0 -32 20.5 -48.5t58.5 -16.5q58 0 91 29zM304 692h115l-107 -153h-88z" />
    <glyph glyph-name="abreve" unicode="&#x103;" horiz-adv-x="530" 
d="M470 86q9 -15 33 -34l-73 -64q-56 28 -71 74q-23 -32 -63 -53t-95 -21q-72 0 -114 36.5t-42 103.5q0 77 53 109t135 41l58 6q32 3 45.5 11.5t15.5 25.5q-6 84 -101 84q-37 0 -63.5 -12.5t-50.5 -41.5l-75 53q27 37 72 57.5t117 20.5q105 0 157.5 -43.5t52.5 -126.5v-187
q0 -24 9 -39zM319 97q33 29 33 73v54q-19 -8 -66 -13l-45 -5q-92 -10 -92 -73q0 -32 20.5 -48.5t58.5 -16.5q58 0 91 29zM157.5 574q-43.5 43 -43.5 116h78q3 -38 24 -60t58 -22t58.5 22t23.5 60h78q0 -73 -43.5 -116t-116.5 -43t-116.5 43z" />
    <glyph glyph-name="uni1EAF" unicode="&#x1eaf;" horiz-adv-x="530" 
d="M470 86q9 -15 33 -34l-73 -64q-56 28 -71 74q-23 -32 -63 -53t-95 -21q-72 0 -114 36.5t-42 103.5q0 77 53 109t135 41l58 6q32 3 45.5 11.5t15.5 25.5q-6 84 -101 84q-37 0 -63.5 -12.5t-50.5 -41.5l-75 53q27 37 72 57.5t117 20.5q105 0 157.5 -43.5t52.5 -126.5v-187
q0 -24 9 -39zM319 97q33 29 33 73v54q-19 -8 -66 -13l-45 -5q-92 -10 -92 -73q0 -32 20.5 -48.5t58.5 -16.5q58 0 91 29zM290 855h109l-90 -121h-82zM157.5 574q-43.5 43 -43.5 116h78q3 -38 24 -60t58 -22t58.5 22t23.5 60h78q0 -73 -43.5 -116t-116.5 -43t-116.5 43z" />
    <glyph glyph-name="uni1EB7" unicode="&#x1eb7;" horiz-adv-x="530" 
d="M470 86q9 -15 33 -34l-73 -64q-56 28 -71 74q-23 -32 -63 -53t-95 -21q-72 0 -114 36.5t-42 103.5q0 77 53 109t135 41l58 6q32 3 45.5 11.5t15.5 25.5q-6 84 -101 84q-37 0 -63.5 -12.5t-50.5 -41.5l-75 53q27 37 72 57.5t117 20.5q105 0 157.5 -43.5t52.5 -126.5v-187
q0 -24 9 -39zM319 97q33 29 33 73v54q-19 -8 -66 -13l-45 -5q-92 -10 -92 -73q0 -32 20.5 -48.5t58.5 -16.5q58 0 91 29zM229 -164.5q-19 18.5 -19 44.5t19 45t45 19t45 -19t19 -45t-19 -44.5t-45 -18.5t-45 18.5zM157.5 574q-43.5 43 -43.5 116h78q3 -38 24 -60t58 -22
t58.5 22t23.5 60h78q0 -73 -43.5 -116t-116.5 -43t-116.5 43z" />
    <glyph glyph-name="uni1EB1" unicode="&#x1eb1;" horiz-adv-x="530" 
d="M470 86q9 -15 33 -34l-73 -64q-56 28 -71 74q-23 -32 -63 -53t-95 -21q-72 0 -114 36.5t-42 103.5q0 77 53 109t135 41l58 6q32 3 45.5 11.5t15.5 25.5q-6 84 -101 84q-37 0 -63.5 -12.5t-50.5 -41.5l-75 53q27 37 72 57.5t117 20.5q105 0 157.5 -43.5t52.5 -126.5v-187
q0 -24 9 -39zM319 97q33 29 33 73v54q-19 -8 -66 -13l-45 -5q-92 -10 -92 -73q0 -32 20.5 -48.5t58.5 -16.5q58 0 91 29zM145 855h109l63 -121h-82zM157.5 574q-43.5 43 -43.5 116h78q3 -38 24 -60t58 -22t58.5 22t23.5 60h78q0 -73 -43.5 -116t-116.5 -43t-116.5 43z" />
    <glyph glyph-name="uni1EB3" unicode="&#x1eb3;" horiz-adv-x="530" 
d="M470 86q9 -15 33 -34l-73 -64q-56 28 -71 74q-23 -32 -63 -53t-95 -21q-72 0 -114 36.5t-42 103.5q0 77 53 109t135 41l58 6q32 3 45.5 11.5t15.5 25.5q-6 84 -101 84q-37 0 -63.5 -12.5t-50.5 -41.5l-75 53q27 37 72 57.5t117 20.5q105 0 157.5 -43.5t52.5 -126.5v-187
q0 -24 9 -39zM319 97q33 29 33 73v54q-19 -8 -66 -13l-45 -5q-92 -10 -92 -73q0 -32 20.5 -48.5t58.5 -16.5q58 0 91 29zM226 827l-17 50q33 16 77 16q45 0 70 -19t25 -57q0 -32 -18.5 -49.5t-51.5 -25.5v-32h-67v65q38 3 55 11t17 23q0 16 -9.5 22t-31.5 6q-24 0 -49 -10z
M434 690q0 -72 -43.5 -115.5t-116.5 -43.5t-116.5 43.5t-43.5 115.5h78q3 -38 24 -60t58 -22t58.5 22t23.5 60h78z" />
    <glyph glyph-name="uni1EB5" unicode="&#x1eb5;" horiz-adv-x="530" 
d="M470 86q9 -15 33 -34l-73 -64q-56 28 -71 74q-23 -32 -63 -53t-95 -21q-72 0 -114 36.5t-42 103.5q0 77 53 109t135 41l58 6q32 3 45.5 11.5t15.5 25.5q-6 84 -101 84q-37 0 -63.5 -12.5t-50.5 -41.5l-75 53q27 37 72 57.5t117 20.5q105 0 157.5 -43.5t52.5 -126.5v-187
q0 -24 9 -39zM319 97q33 29 33 73v54q-19 -8 -66 -13l-45 -5q-92 -10 -92 -73q0 -32 20.5 -48.5t58.5 -16.5q58 0 91 29zM146.5 818q26.5 32 74.5 32q16 0 29.5 -4.5t24.5 -9.5t14 -6q12 -6 23.5 -10.5t21.5 -4.5q25 0 31 42h65q-4 -46 -30 -79t-66 -33q-19 0 -34.5 5.5
t-34.5 15.5q-12 6 -23.5 10.5t-20.5 4.5q-29 0 -39 -43h-64q2 48 28.5 80zM157.5 574q-43.5 43 -43.5 116h78q3 -38 24 -60t58 -22t58.5 22t23.5 60h78q0 -73 -43.5 -116t-116.5 -43t-116.5 43z" />
    <glyph glyph-name="uni01CE" unicode="&#x1ce;" horiz-adv-x="530" 
d="M470 86q9 -15 33 -34l-73 -64q-56 28 -71 74q-23 -32 -63 -53t-95 -21q-72 0 -114 36.5t-42 103.5q0 77 53 109t135 41l58 6q32 3 45.5 11.5t15.5 25.5q-6 84 -101 84q-37 0 -63.5 -12.5t-50.5 -41.5l-75 53q27 37 72 57.5t117 20.5q105 0 157.5 -43.5t52.5 -126.5v-187
q0 -24 9 -39zM319 97q33 29 33 73v54q-19 -8 -66 -13l-45 -5q-92 -10 -92 -73q0 -32 20.5 -48.5t58.5 -16.5q58 0 91 29zM168.5 627.5q-36.5 44.5 -63.5 67.5h97q19 -16 39 -38.5t32 -42.5q12 20 32 42.5t39 38.5h98q-28 -23 -64.5 -68t-59.5 -88h-90q-23 44 -59.5 88.5z
" />
    <glyph glyph-name="acircumflex" unicode="&#xe2;" horiz-adv-x="530" 
d="M470 86q9 -15 33 -34l-73 -64q-56 28 -71 74q-23 -32 -63 -53t-95 -21q-72 0 -114 36.5t-42 103.5q0 77 53 109t135 41l58 6q32 3 45.5 11.5t15.5 25.5q-6 84 -101 84q-37 0 -63.5 -12.5t-50.5 -41.5l-75 53q27 37 72 57.5t117 20.5q105 0 157.5 -43.5t52.5 -126.5v-187
q0 -24 9 -39zM319 97q33 29 33 73v54q-19 -8 -66 -13l-45 -5q-92 -10 -92 -73q0 -32 20.5 -48.5t58.5 -16.5q58 0 91 29zM168.5 606.5q36.5 44.5 59.5 88.5h90q23 -43 59.5 -88t64.5 -68h-98q-20 17 -40 39t-31 43q-11 -21 -31 -43t-40 -39h-97q27 23 63.5 67.5z" />
    <glyph glyph-name="uni1EA5" unicode="&#x1ea5;" horiz-adv-x="530" 
d="M470 86q9 -15 33 -34l-73 -64q-56 28 -71 74q-23 -32 -63 -53t-95 -21q-72 0 -114 36.5t-42 103.5q0 77 53 109t135 41l58 6q32 3 45.5 11.5t15.5 25.5q-6 84 -101 84q-37 0 -63.5 -12.5t-50.5 -41.5l-75 53q27 37 72 57.5t117 20.5q105 0 157.5 -43.5t52.5 -126.5v-187
q0 -24 9 -39zM319 97q33 29 33 73v54q-19 -8 -66 -13l-45 -5q-92 -10 -92 -73q0 -32 20.5 -48.5t58.5 -16.5q58 0 91 29zM449 759h107l-88 -121h-82zM168.5 606.5q36.5 44.5 59.5 88.5h90q23 -43 59.5 -88t64.5 -68h-98q-20 17 -40 39t-31 43q-11 -21 -31 -43t-40 -39h-97
q27 23 63.5 67.5z" />
    <glyph glyph-name="uni1EAD" unicode="&#x1ead;" horiz-adv-x="530" 
d="M470 86q9 -15 33 -34l-73 -64q-56 28 -71 74q-23 -32 -63 -53t-95 -21q-72 0 -114 36.5t-42 103.5q0 77 53 109t135 41l58 6q32 3 45.5 11.5t15.5 25.5q-6 84 -101 84q-37 0 -63.5 -12.5t-50.5 -41.5l-75 53q27 37 72 57.5t117 20.5q105 0 157.5 -43.5t52.5 -126.5v-187
q0 -24 9 -39zM319 97q33 29 33 73v54q-19 -8 -66 -13l-45 -5q-92 -10 -92 -73q0 -32 20.5 -48.5t58.5 -16.5q58 0 91 29zM229 -164.5q-19 18.5 -19 44.5t19 45t45 19t45 -19t19 -45t-19 -44.5t-45 -18.5t-45 18.5zM168.5 606.5q36.5 44.5 59.5 88.5h90q23 -43 59.5 -88
t64.5 -68h-98q-20 17 -40 39t-31 43q-11 -21 -31 -43t-40 -39h-97q27 23 63.5 67.5z" />
    <glyph glyph-name="uni1EA7" unicode="&#x1ea7;" horiz-adv-x="530" 
d="M470 86q9 -15 33 -34l-73 -64q-56 28 -71 74q-23 -32 -63 -53t-95 -21q-72 0 -114 36.5t-42 103.5q0 77 53 109t135 41l58 6q32 3 45.5 11.5t15.5 25.5q-6 84 -101 84q-37 0 -63.5 -12.5t-50.5 -41.5l-75 53q27 37 72 57.5t117 20.5q105 0 157.5 -43.5t52.5 -126.5v-187
q0 -24 9 -39zM319 97q33 29 33 73v54q-19 -8 -66 -13l-45 -5q-92 -10 -92 -73q0 -32 20.5 -48.5t58.5 -16.5q58 0 91 29zM343 759h107l63 -121h-82zM168.5 606.5q36.5 44.5 59.5 88.5h90q23 -43 59.5 -88t64.5 -68h-98q-20 17 -40 39t-31 43q-11 -21 -31 -43t-40 -39h-97
q27 23 63.5 67.5z" />
    <glyph glyph-name="uni1EA9" unicode="&#x1ea9;" horiz-adv-x="530" 
d="M470 86q9 -15 33 -34l-73 -64q-56 28 -71 74q-23 -32 -63 -53t-95 -21q-72 0 -114 36.5t-42 103.5q0 77 53 109t135 41l58 6q32 3 45.5 11.5t15.5 25.5q-6 84 -101 84q-37 0 -63.5 -12.5t-50.5 -41.5l-75 53q27 37 72 57.5t117 20.5q105 0 157.5 -43.5t52.5 -126.5v-187
q0 -24 9 -39zM319 97q33 29 33 73v54q-19 -8 -66 -13l-45 -5q-92 -10 -92 -73q0 -32 20.5 -48.5t58.5 -16.5q58 0 91 29zM468 665v-32h-67v64q39 4 55.5 12t16.5 23q0 16 -10 22t-31 6q-17 0 -49 -10l-16 50q31 15 76 15t70.5 -19t25.5 -57q0 -58 -71 -74zM377.5 607
q36.5 -45 64.5 -68h-98q-20 17 -40 39t-31 43q-11 -21 -31 -43t-40 -39h-97q27 23 63.5 67.5t59.5 88.5h90q23 -43 59.5 -88z" />
    <glyph glyph-name="uni1EAB" unicode="&#x1eab;" horiz-adv-x="530" 
d="M470 86q9 -15 33 -34l-73 -64q-56 28 -71 74q-23 -32 -63 -53t-95 -21q-72 0 -114 36.5t-42 103.5q0 77 53 109t135 41l58 6q32 3 45.5 11.5t15.5 25.5q-6 84 -101 84q-37 0 -63.5 -12.5t-50.5 -41.5l-75 53q27 37 72 57.5t117 20.5q105 0 157.5 -43.5t52.5 -126.5v-187
q0 -24 9 -39zM319 97q33 29 33 73v54q-19 -8 -66 -13l-45 -5q-92 -10 -92 -73q0 -32 20.5 -48.5t58.5 -16.5q58 0 91 29zM146.5 807.5q26.5 32.5 74.5 32.5q18 0 32.5 -5t35.5 -16q12 -6 23.5 -10.5t21.5 -4.5q25 0 31 42h65q-4 -46 -30 -79t-66 -33q-19 0 -34.5 5.5
t-34.5 15.5q-12 6 -23.5 10.5t-20.5 4.5q-29 0 -39 -43h-64q2 48 28.5 80.5zM168.5 606.5q36.5 44.5 59.5 88.5h90q23 -43 59.5 -88t64.5 -68h-98q-20 17 -40 39t-31 43q-11 -21 -31 -43t-40 -39h-97q27 23 63.5 67.5z" />
    <glyph glyph-name="adieresis" unicode="&#xe4;" horiz-adv-x="530" 
d="M470 86q9 -15 33 -34l-73 -64q-56 28 -71 74q-23 -32 -63 -53t-95 -21q-72 0 -114 36.5t-42 103.5q0 77 53 109t135 41l58 6q32 3 45.5 11.5t15.5 25.5q-6 84 -101 84q-37 0 -63.5 -12.5t-50.5 -41.5l-75 53q27 37 72 57.5t117 20.5q105 0 157.5 -43.5t52.5 -126.5v-187
q0 -24 9 -39zM319 97q33 29 33 73v54q-19 -8 -66 -13l-45 -5q-92 -10 -92 -73q0 -32 20.5 -48.5t58.5 -16.5q58 0 91 29zM148 550.5q-17 16.5 -17 39.5t17 39.5t40 16.5t39 -16.5t16 -39.5t-16 -39.5t-39 -16.5t-40 16.5zM321 550.5q-16 16.5 -16 39.5t16 39.5t40 16.5
q23 0 40 -16.5t17 -39.5t-17 -39.5t-40 -16.5q-24 0 -40 16.5z" />
    <glyph glyph-name="uni1EA1" unicode="&#x1ea1;" horiz-adv-x="530" 
d="M470 86q9 -15 33 -34l-73 -64q-56 28 -71 74q-23 -32 -63 -53t-95 -21q-72 0 -114 36.5t-42 103.5q0 77 53 109t135 41l58 6q32 3 45.5 11.5t15.5 25.5q-6 84 -101 84q-37 0 -63.5 -12.5t-50.5 -41.5l-75 53q27 37 72 57.5t117 20.5q105 0 157.5 -43.5t52.5 -126.5v-187
q0 -24 9 -39zM319 97q33 29 33 73v54q-19 -8 -66 -13l-45 -5q-92 -10 -92 -73q0 -32 20.5 -48.5t58.5 -16.5q58 0 91 29zM229 -164.5q-19 18.5 -19 44.5t19 45t45 19t45 -19t19 -45t-19 -44.5t-45 -18.5t-45 18.5z" />
    <glyph glyph-name="agrave" unicode="&#xe0;" horiz-adv-x="530" 
d="M470 86q9 -15 33 -34l-73 -64q-56 28 -71 74q-23 -32 -63 -53t-95 -21q-72 0 -114 36.5t-42 103.5q0 77 53 109t135 41l58 6q32 3 45.5 11.5t15.5 25.5q-6 84 -101 84q-37 0 -63.5 -12.5t-50.5 -41.5l-75 53q27 37 72 57.5t117 20.5q105 0 157.5 -43.5t52.5 -126.5v-187
q0 -24 9 -39zM319 97q33 29 33 73v54q-19 -8 -66 -13l-45 -5q-92 -10 -92 -73q0 -32 20.5 -48.5t58.5 -16.5q58 0 91 29zM124 692h115l80 -153h-88z" />
    <glyph glyph-name="uni1EA3" unicode="&#x1ea3;" horiz-adv-x="530" 
d="M470 86q9 -15 33 -34l-73 -64q-56 28 -71 74q-23 -32 -63 -53t-95 -21q-72 0 -114 36.5t-42 103.5q0 77 53 109t135 41l58 6q32 3 45.5 11.5t15.5 25.5q-6 84 -101 84q-37 0 -63.5 -12.5t-50.5 -41.5l-75 53q27 37 72 57.5t117 20.5q105 0 157.5 -43.5t52.5 -126.5v-187
q0 -24 9 -39zM319 97q33 29 33 73v54q-19 -8 -66 -13l-45 -5q-92 -10 -92 -73q0 -32 20.5 -48.5t58.5 -16.5q58 0 91 29zM308 577v-38h-79v76q45 4 65 14.5t20 27.5q0 19 -12 27t-35 8q-26 0 -58 -13l-19 60q39 18 89 18q56 0 87.5 -23t31.5 -68q0 -70 -90 -89z" />
    <glyph glyph-name="uni0251" unicode="&#x251;" horiz-adv-x="586" 
d="M517.5 85q9.5 -15 33.5 -33l-73 -64q-59 32 -71 77q-52 -77 -156 -77q-94 0 -150 62.5t-56 168.5v32q0 65 24 117.5t70.5 83t110.5 30.5q98 0 149 -73v61h109v-345q0 -25 9.5 -40zM399 163v144q-28 90 -120 90q-59 0 -92 -41.5t-33 -104.5v-32q0 -63 33 -104.5t92 -41.5
q92 0 120 90z" />
    <glyph glyph-name="amacron" unicode="&#x101;" horiz-adv-x="530" 
d="M470 86q9 -15 33 -34l-73 -64q-56 28 -71 74q-23 -32 -63 -53t-95 -21q-72 0 -114 36.5t-42 103.5q0 77 53 109t135 41l58 6q32 3 45.5 11.5t15.5 25.5q-6 84 -101 84q-37 0 -63.5 -12.5t-50.5 -41.5l-75 53q27 37 72 57.5t117 20.5q105 0 157.5 -43.5t52.5 -126.5v-187
q0 -24 9 -39zM319 97q33 29 33 73v54q-19 -8 -66 -13l-45 -5q-92 -10 -92 -73q0 -32 20.5 -48.5t58.5 -16.5q58 0 91 29zM117 632h314v-78h-314v78z" />
    <glyph glyph-name="aogonek" unicode="&#x105;" horiz-adv-x="530" 
d="M528 -189q-39 -24 -83 -24q-72 0 -103 31.5t-31 71.5q0 38 17 70t54 63q-16 19 -23 39q-23 -32 -63 -53t-95 -21q-72 0 -114 36.5t-42 103.5q0 77 53 109t135 41l58 6q32 3 45.5 11.5t15.5 25.5q-6 84 -101 84q-37 0 -63.5 -12.5t-50.5 -41.5l-75 53q27 37 72 57.5
t117 20.5q105 0 157.5 -43.5t52.5 -126.5v-187q0 -24 9 -39t33 -34l-71 -62q-28 -44 -28 -84q0 -24 14 -35.5t37 -11.5t54 13zM319 97q33 29 33 73v54q-19 -8 -66 -13l-45 -5q-92 -10 -92 -73q0 -32 20.5 -48.5t58.5 -16.5q58 0 91 29z" />
    <glyph glyph-name="aring" unicode="&#xe5;" horiz-adv-x="530" 
d="M470 86q9 -15 33 -34l-73 -64q-56 28 -71 74q-23 -32 -63 -53t-95 -21q-72 0 -114 36.5t-42 103.5q0 77 53 109t135 41l58 6q32 3 45.5 11.5t15.5 25.5q-6 84 -101 84q-37 0 -63.5 -12.5t-50.5 -41.5l-75 53q27 37 72 57.5t117 20.5q105 0 157.5 -43.5t52.5 -126.5v-187
q0 -24 9 -39zM319 97q33 29 33 73v54q-19 -8 -66 -13l-45 -5q-92 -10 -92 -73q0 -32 20.5 -48.5t58.5 -16.5q58 0 91 29zM195.5 554q-29.5 27 -29.5 72q0 46 29.5 73t78.5 27t78.5 -27t29.5 -73q0 -45 -29.5 -72t-78.5 -27t-78.5 27zM307.5 593.5q12.5 12.5 12.5 32.5
q0 21 -12.5 33.5t-33.5 12.5t-33.5 -12.5t-12.5 -33.5q0 -20 12.5 -32.5t33.5 -12.5t33.5 12.5z" />
    <glyph glyph-name="aringacute" unicode="&#x1fb;" horiz-adv-x="530" 
d="M305 753h-88l80 123h115zM195.5 554q-29.5 27 -29.5 72q0 46 29.5 73t78.5 27q50 0 79 -27t29 -73q0 -45 -29 -72t-79 -27q-49 0 -78.5 27zM241 659.5q-12 -12.5 -12 -33.5q0 -20 12 -32.5t33 -12.5q22 0 34 12.5t12 32.5q0 21 -12 33.5t-34 12.5q-21 0 -33 -12.5z
M470 86q9 -15 33 -34l-73 -64q-56 28 -71 74q-23 -32 -63 -53t-95 -21q-72 0 -114 36.5t-42 103.5q0 77 53 109t135 41l58 6q32 3 45.5 11.5t15.5 25.5q-6 84 -101 84q-37 0 -63.5 -12.5t-50.5 -41.5l-75 53q27 37 72 57.5t117 20.5q105 0 157.5 -43.5t52.5 -126.5v-187
q0 -24 9 -39zM319 97q33 29 33 73v54q-19 -8 -66 -13l-45 -5q-92 -10 -92 -73q0 -32 20.5 -48.5t58.5 -16.5q58 0 91 29z" />
    <glyph glyph-name="atilde" unicode="&#xe3;" horiz-adv-x="530" 
d="M470 86q9 -15 33 -34l-73 -64q-56 28 -71 74q-23 -32 -63 -53t-95 -21q-72 0 -114 36.5t-42 103.5q0 77 53 109t135 41l58 6q32 3 45.5 11.5t15.5 25.5q-6 84 -101 84q-37 0 -63.5 -12.5t-50.5 -41.5l-75 53q27 37 72 57.5t117 20.5q105 0 157.5 -43.5t52.5 -126.5v-187
q0 -24 9 -39zM319 97q33 29 33 73v54q-19 -8 -66 -13l-45 -5q-92 -10 -92 -73q0 -32 20.5 -48.5t58.5 -16.5q58 0 91 29zM136.5 635q27.5 37 79.5 37q20 0 36.5 -6t38.5 -18q32 -17 49 -17q13 0 19.5 11.5t9.5 37.5h72q-5 -55 -31.5 -92.5t-69.5 -37.5q-20 0 -36.5 6
t-38.5 18q-32 17 -49 17q-15 0 -23.5 -11.5t-13.5 -37.5h-72q2 56 29.5 93z" />
    <glyph glyph-name="ae" unicode="&#xe6;" horiz-adv-x="796" 
d="M630.5 84q25.5 11 52.5 36l67 -61q-60 -71 -185 -71q-65 0 -103.5 18t-64.5 57q-24 -36 -69.5 -55.5t-109.5 -19.5q-86 0 -129.5 35.5t-43.5 103.5q0 77 53 108.5t135 40.5l58 7q33 3 46.5 11t14.5 26q-4 85 -101 85q-37 0 -63.5 -12.5t-50.5 -41.5l-75 53
q29 39 74.5 58.5t117.5 19.5q58 0 95.5 -12.5t64.5 -40.5q26 25 61.5 38t85.5 13q94 0 147 -45t53 -136q0 -45 -12.5 -67t-33.5 -29t-54 -7h-200v-27q0 -41 22.5 -68.5t85.5 -27.5q36 0 61.5 11zM461 264h141q27 0 38.5 8t11.5 35q0 41 -25.5 65t-69.5 24q-45 0 -70.5 -24.5
t-25.5 -65.5v-42zM319 96.5q33 28.5 33 74.5v52q-22 -10 -66 -14l-45 -4q-91 -10 -91 -74q0 -31 21.5 -47t60.5 -16q54 0 87 28.5z" />
    <glyph glyph-name="aeacute" unicode="&#x1fd;" horiz-adv-x="796" 
d="M630.5 84q25.5 11 52.5 36l67 -61q-60 -71 -185 -71q-65 0 -103.5 18t-64.5 57q-24 -36 -69.5 -55.5t-109.5 -19.5q-86 0 -129.5 35.5t-43.5 103.5q0 77 53 108.5t135 40.5l58 7q33 3 46.5 11t14.5 26q-4 85 -101 85q-37 0 -63.5 -12.5t-50.5 -41.5l-75 53
q29 39 74.5 58.5t117.5 19.5q58 0 95.5 -12.5t64.5 -40.5q26 25 61.5 38t85.5 13q94 0 147 -45t53 -136q0 -45 -12.5 -67t-33.5 -29t-54 -7h-200v-27q0 -41 22.5 -68.5t85.5 -27.5q36 0 61.5 11zM461 264h141q27 0 38.5 8t11.5 35q0 41 -25.5 65t-69.5 24q-45 0 -70.5 -24.5
t-25.5 -65.5v-42zM319 96.5q33 28.5 33 74.5v52q-22 -10 -66 -14l-45 -4q-91 -10 -91 -74q0 -31 21.5 -47t60.5 -16q54 0 87 28.5zM442 692h115l-107 -153h-88z" />
    <glyph glyph-name="b" unicode="b" horiz-adv-x="586" 
d="M186 53v-53h-109v605q0 24 -9 39t-33 34l73 63q44 -23 61 -52.5t17 -81.5v-192q52 67 149 67q65 0 111.5 -30.5t70.5 -83t24 -117.5v-32q0 -65 -24 -117.5t-70.5 -83t-111.5 -30.5q-98 0 -149 65zM398 114.5q33 41.5 33 104.5v32q0 63 -33 104.5t-92 41.5q-92 0 -120 -91
v-142q28 -91 120 -91q59 0 92 41.5z" />
    <glyph glyph-name="c" unicode="c" horiz-adv-x="471" 
d="M105 35q-55 47 -55 135v130q0 87 55.5 134.5t156.5 47.5q125 0 183 -79l-75 -61q-25 30 -48.5 42.5t-59.5 12.5q-49 0 -76 -25.5t-27 -71.5v-130q0 -47 26.5 -72t76.5 -25q37 0 61.5 12.5t47.5 41.5l75 -61q-29 -39 -73 -58.5t-111 -19.5q-102 0 -157 47z" />
    <glyph glyph-name="cacute" unicode="&#x107;" horiz-adv-x="471" 
d="M105 35q-55 47 -55 135v130q0 87 55.5 134.5t156.5 47.5q125 0 183 -79l-75 -61q-25 30 -48.5 42.5t-59.5 12.5q-49 0 -76 -25.5t-27 -71.5v-130q0 -47 26.5 -72t76.5 -25q37 0 61.5 12.5t47.5 41.5l75 -61q-29 -39 -73 -58.5t-111 -19.5q-102 0 -157 47zM286 692h115
l-107 -153h-88z" />
    <glyph glyph-name="ccaron" unicode="&#x10d;" horiz-adv-x="471" 
d="M105 35q-55 47 -55 135v130q0 87 55.5 134.5t156.5 47.5q125 0 183 -79l-75 -61q-25 30 -48.5 42.5t-59.5 12.5q-49 0 -76 -25.5t-27 -71.5v-130q0 -47 26.5 -72t76.5 -25q37 0 61.5 12.5t47.5 41.5l75 -61q-29 -39 -73 -58.5t-111 -19.5q-102 0 -157 47zM150.5 627.5
q-36.5 44.5 -63.5 67.5h97q19 -16 39 -38.5t32 -42.5q12 20 32 42.5t39 38.5h98q-28 -23 -64.5 -68t-59.5 -88h-90q-23 44 -59.5 88.5z" />
    <glyph glyph-name="ccedilla" unicode="&#xe7;" horiz-adv-x="471" 
d="M385 12q-36 -19 -90 -23l-8 -28q85 -9 85 -89q0 -47 -33.5 -70.5t-96.5 -23.5q-56 0 -102 23l18 61q36 -18 72 -18q30 0 43.5 6.5t13.5 21.5q0 16 -11.5 25.5t-46.5 9.5q-8 0 -32 -2l20 86q-81 10 -124 56t-43 123v130q0 87 55.5 134.5t156.5 47.5q125 0 183 -79l-75 -61
q-25 30 -48.5 42.5t-59.5 12.5q-49 0 -76 -25.5t-27 -71.5v-130q0 -47 26.5 -72t76.5 -25q37 0 61.5 12.5t47.5 41.5l75 -61q-25 -35 -61 -54z" />
    <glyph glyph-name="ccircumflex" unicode="&#x109;" horiz-adv-x="471" 
d="M105 35q-55 47 -55 135v130q0 87 55.5 134.5t156.5 47.5q125 0 183 -79l-75 -61q-25 30 -48.5 42.5t-59.5 12.5q-49 0 -76 -25.5t-27 -71.5v-130q0 -47 26.5 -72t76.5 -25q37 0 61.5 12.5t47.5 41.5l75 -61q-29 -39 -73 -58.5t-111 -19.5q-102 0 -157 47zM150.5 606.5
q36.5 44.5 59.5 88.5h90q23 -43 59.5 -88t64.5 -68h-98q-20 17 -40 39t-31 43q-11 -21 -31 -43t-40 -39h-97q27 23 63.5 67.5z" />
    <glyph glyph-name="cdotaccent" unicode="&#x10b;" horiz-adv-x="471" 
d="M105 35q-55 47 -55 135v130q0 87 55.5 134.5t156.5 47.5q125 0 183 -79l-75 -61q-25 30 -48.5 42.5t-59.5 12.5q-49 0 -76 -25.5t-27 -71.5v-130q0 -47 26.5 -72t76.5 -25q37 0 61.5 12.5t47.5 41.5l75 -61q-29 -39 -73 -58.5t-111 -19.5q-102 0 -157 47zM211 552.5
q-19 18.5 -19 45.5q0 26 19 44.5t45 18.5t45 -18.5t19 -44.5q0 -27 -19 -45.5t-45 -18.5t-45 18.5z" />
    <glyph glyph-name="d" unicode="d" horiz-adv-x="585" 
d="M517 86q9 -15 33 -34l-72 -64q-54 28 -70 80q-26 -40 -64.5 -60t-93.5 -20q-94 0 -149.5 62.5t-55.5 168.5v32q0 65 24 117.5t70 83t111 30.5q99 0 149 -65v188q0 24 -9 39t-33 34l73 63q44 -23 61 -52.5t17 -81.5v-482q0 -24 9 -39zM399 306q-27 91 -120 91
q-59 0 -92 -41.5t-33 -104.5v-32q0 -63 33 -104.5t92 -41.5q93 0 120 91v142z" />
    <glyph glyph-name="eth" unicode="&#xf0;" horiz-adv-x="521" 
d="M471 298v-126q0 -88 -55 -136t-156 -48q-100 0 -155 48t-55 136v126q0 88 54.5 136t154.5 48q20 0 29 -1l-42 64h-140v58h103l-63 97h104l64 -97h127v-58h-89l84 -129q35 -53 35 -118zM362 298q0 48 -26.5 73.5t-75.5 25.5q-48 0 -74.5 -25.5t-26.5 -73.5v-126
q0 -48 26.5 -73.5t74.5 -25.5q49 0 75.5 25.5t26.5 73.5v126z" />
    <glyph glyph-name="dcaron" unicode="&#x10f;" horiz-adv-x="687" 
d="M517 86q9 -15 33 -34l-72 -64q-54 28 -70 80q-26 -40 -64.5 -60t-93.5 -20q-94 0 -149.5 62.5t-55.5 168.5v32q0 65 24 117.5t70 83t111 30.5q99 0 149 -65v188q0 24 -9 39t-33 34l73 63q44 -23 61 -52.5t17 -81.5v-482q0 -24 9 -39zM399 306q-27 91 -120 91
q-59 0 -92 -41.5t-33 -104.5v-32q0 -63 33 -104.5t92 -41.5q93 0 120 91v142zM662 708.5q18 -22.5 18 -61.5q0 -51 -24 -91.5t-69 -76.5l-33 32q55 41 63 89q-10 -5 -28 -5q-23 0 -36.5 15.5t-13.5 42.5q0 29 21 53.5t52 24.5q32 0 50 -22.5z" />
    <glyph glyph-name="dcroat" unicode="&#x111;" horiz-adv-x="585" 
d="M508 542v-417q0 -24 9 -39t33 -34l-72 -64q-54 28 -70 80q-26 -40 -64.5 -60t-93.5 -20q-94 0 -149.5 62.5t-55.5 168.5v32q0 65 24 117.5t70 83t111 30.5q99 0 149 -65v125h-174v57h174v6q0 24 -9 39t-33 34l73 63q44 -23 61 -52.5t17 -81.5v-8h67v-57h-67zM399 306
q-27 91 -120 91q-59 0 -92 -41.5t-33 -104.5v-32q0 -63 33 -104.5t92 -41.5q93 0 120 91v142z" />
    <glyph glyph-name="uni1E0D" unicode="&#x1e0d;" horiz-adv-x="585" 
d="M517 86q9 -15 33 -34l-72 -64q-54 28 -70 80q-26 -40 -64.5 -60t-93.5 -20q-94 0 -149.5 62.5t-55.5 168.5v32q0 65 24 117.5t70 83t111 30.5q99 0 149 -65v188q0 24 -9 39t-33 34l73 63q44 -23 61 -52.5t17 -81.5v-482q0 -24 9 -39zM399 306q-27 91 -120 91
q-59 0 -92 -41.5t-33 -104.5v-32q0 -63 33 -104.5t92 -41.5q93 0 120 91v142zM246 -164.5q-19 18.5 -19 44.5t19 45t45 19t45 -19t19 -45t-19 -44.5t-45 -18.5t-45 18.5z" />
    <glyph glyph-name="uni1E0F" unicode="&#x1e0f;" horiz-adv-x="585" 
d="M517 86q9 -15 33 -34l-72 -64q-54 28 -70 80q-26 -40 -64.5 -60t-93.5 -20q-94 0 -149.5 62.5t-55.5 168.5v32q0 65 24 117.5t70 83t111 30.5q99 0 149 -65v188q0 24 -9 39t-33 34l73 63q44 -23 61 -52.5t17 -81.5v-482q0 -24 9 -39zM399 306q-27 91 -120 91
q-59 0 -92 -41.5t-33 -104.5v-32q0 -63 33 -104.5t92 -41.5q93 0 120 91v142zM134 -75h314v-78h-314v78z" />
    <glyph glyph-name="e" unicode="e" horiz-adv-x="494" 
d="M329.5 82.5q26.5 10.5 53.5 36.5l65 -60q-30 -35 -75 -53t-111 -18q-108 0 -160 44.5t-52 136.5v146q0 77 54.5 121.5t149.5 44.5q97 0 151 -47.5t54 -136.5q0 -41 -8 -64t-29 -33.5t-62 -10.5h-202v-20q0 -97 106 -97q39 0 65.5 10.5zM183.5 373q-25.5 -25 -25.5 -66
v-43h143q28 0 39 9.5t11 33.5q0 44 -25.5 67.5t-72.5 23.5q-44 0 -69.5 -25z" />
    <glyph glyph-name="eacute" unicode="&#xe9;" horiz-adv-x="494" 
d="M329.5 82.5q26.5 10.5 53.5 36.5l65 -60q-30 -35 -75 -53t-111 -18q-108 0 -160 44.5t-52 136.5v146q0 77 54.5 121.5t149.5 44.5q97 0 151 -47.5t54 -136.5q0 -41 -8 -64t-29 -33.5t-62 -10.5h-202v-20q0 -97 106 -97q39 0 65.5 10.5zM183.5 373q-25.5 -25 -25.5 -66
v-43h143q28 0 39 9.5t11 33.5q0 44 -25.5 67.5t-72.5 23.5q-44 0 -69.5 -25zM283 692h115l-107 -153h-88z" />
    <glyph glyph-name="ebreve" unicode="&#x115;" horiz-adv-x="494" 
d="M329.5 82.5q26.5 10.5 53.5 36.5l65 -60q-30 -35 -75 -53t-111 -18q-108 0 -160 44.5t-52 136.5v146q0 77 54.5 121.5t149.5 44.5q97 0 151 -47.5t54 -136.5q0 -41 -8 -64t-29 -33.5t-62 -10.5h-202v-20q0 -97 106 -97q39 0 65.5 10.5zM183.5 373q-25.5 -25 -25.5 -66
v-43h143q28 0 39 9.5t11 33.5q0 44 -25.5 67.5t-72.5 23.5q-44 0 -69.5 -25zM136.5 574q-43.5 43 -43.5 116h78q3 -38 24 -60t58 -22t58.5 22t23.5 60h78q0 -73 -43.5 -116t-116.5 -43t-116.5 43z" />
    <glyph glyph-name="ecaron" unicode="&#x11b;" horiz-adv-x="494" 
d="M329.5 82.5q26.5 10.5 53.5 36.5l65 -60q-30 -35 -75 -53t-111 -18q-108 0 -160 44.5t-52 136.5v146q0 77 54.5 121.5t149.5 44.5q97 0 151 -47.5t54 -136.5q0 -41 -8 -64t-29 -33.5t-62 -10.5h-202v-20q0 -97 106 -97q39 0 65.5 10.5zM183.5 373q-25.5 -25 -25.5 -66
v-43h143q28 0 39 9.5t11 33.5q0 44 -25.5 67.5t-72.5 23.5q-44 0 -69.5 -25zM147.5 627.5q-36.5 44.5 -63.5 67.5h97q19 -16 39 -38.5t32 -42.5q12 20 32 42.5t39 38.5h98q-28 -23 -64.5 -68t-59.5 -88h-90q-23 44 -59.5 88.5z" />
    <glyph glyph-name="ecircumflex" unicode="&#xea;" horiz-adv-x="494" 
d="M329.5 82.5q26.5 10.5 53.5 36.5l65 -60q-30 -35 -75 -53t-111 -18q-108 0 -160 44.5t-52 136.5v146q0 77 54.5 121.5t149.5 44.5q97 0 151 -47.5t54 -136.5q0 -41 -8 -64t-29 -33.5t-62 -10.5h-202v-20q0 -97 106 -97q39 0 65.5 10.5zM183.5 373q-25.5 -25 -25.5 -66
v-43h143q28 0 39 9.5t11 33.5q0 44 -25.5 67.5t-72.5 23.5q-44 0 -69.5 -25zM147.5 606.5q36.5 44.5 59.5 88.5h90q23 -43 59.5 -88t64.5 -68h-98q-20 17 -40 39t-31 43q-11 -21 -31 -43t-40 -39h-97q27 23 63.5 67.5z" />
    <glyph glyph-name="uni1EBF" unicode="&#x1ebf;" horiz-adv-x="494" 
d="M329.5 82.5q26.5 10.5 53.5 36.5l65 -60q-30 -35 -75 -53t-111 -18q-108 0 -160 44.5t-52 136.5v146q0 77 54.5 121.5t149.5 44.5q97 0 151 -47.5t54 -136.5q0 -41 -8 -64t-29 -33.5t-62 -10.5h-202v-20q0 -97 106 -97q39 0 65.5 10.5zM183.5 373q-25.5 -25 -25.5 -66
v-43h143q28 0 39 9.5t11 33.5q0 44 -25.5 67.5t-72.5 23.5q-44 0 -69.5 -25zM428 759h107l-88 -121h-82zM147.5 606.5q36.5 44.5 59.5 88.5h90q23 -43 59.5 -88t64.5 -68h-98q-20 17 -40 39t-31 43q-11 -21 -31 -43t-40 -39h-97q27 23 63.5 67.5z" />
    <glyph glyph-name="uni1EC7" unicode="&#x1ec7;" horiz-adv-x="494" 
d="M329.5 82.5q26.5 10.5 53.5 36.5l65 -60q-30 -35 -75 -53t-111 -18q-108 0 -160 44.5t-52 136.5v146q0 77 54.5 121.5t149.5 44.5q97 0 151 -47.5t54 -136.5q0 -41 -8 -64t-29 -33.5t-62 -10.5h-202v-20q0 -97 106 -97q39 0 65.5 10.5zM183.5 373q-25.5 -25 -25.5 -66
v-43h143q28 0 39 9.5t11 33.5q0 44 -25.5 67.5t-72.5 23.5q-44 0 -69.5 -25zM208 -164.5q-19 18.5 -19 44.5t19 45t45 19t45 -19t19 -45t-19 -44.5t-45 -18.5t-45 18.5zM147.5 606.5q36.5 44.5 59.5 88.5h90q23 -43 59.5 -88t64.5 -68h-98q-20 17 -40 39t-31 43
q-11 -21 -31 -43t-40 -39h-97q27 23 63.5 67.5z" />
    <glyph glyph-name="uni1EC1" unicode="&#x1ec1;" horiz-adv-x="494" 
d="M329.5 82.5q26.5 10.5 53.5 36.5l65 -60q-30 -35 -75 -53t-111 -18q-108 0 -160 44.5t-52 136.5v146q0 77 54.5 121.5t149.5 44.5q97 0 151 -47.5t54 -136.5q0 -41 -8 -64t-29 -33.5t-62 -10.5h-202v-20q0 -97 106 -97q39 0 65.5 10.5zM183.5 373q-25.5 -25 -25.5 -66
v-43h143q28 0 39 9.5t11 33.5q0 44 -25.5 67.5t-72.5 23.5q-44 0 -69.5 -25zM322 759h107l63 -121h-82zM147.5 606.5q36.5 44.5 59.5 88.5h90q23 -43 59.5 -88t64.5 -68h-98q-20 17 -40 39t-31 43q-11 -21 -31 -43t-40 -39h-97q27 23 63.5 67.5z" />
    <glyph glyph-name="uni1EC3" unicode="&#x1ec3;" horiz-adv-x="494" 
d="M329.5 82.5q26.5 10.5 53.5 36.5l65 -60q-30 -35 -75 -53t-111 -18q-108 0 -160 44.5t-52 136.5v146q0 77 54.5 121.5t149.5 44.5q97 0 151 -47.5t54 -136.5q0 -41 -8 -64t-29 -33.5t-62 -10.5h-202v-20q0 -97 106 -97q39 0 65.5 10.5zM183.5 373q-25.5 -25 -25.5 -66
v-43h143q28 0 39 9.5t11 33.5q0 44 -25.5 67.5t-72.5 23.5q-44 0 -69.5 -25zM447 665v-32h-67v64q39 4 55.5 12t16.5 23q0 16 -10 22t-31 6q-17 0 -49 -10l-16 50q31 15 76 15t70.5 -19t25.5 -57q0 -58 -71 -74zM356.5 607q36.5 -45 64.5 -68h-98q-20 17 -40 39t-31 43
q-11 -21 -31 -43t-40 -39h-97q27 23 63.5 67.5t59.5 88.5h90q23 -43 59.5 -88z" />
    <glyph glyph-name="uni1EC5" unicode="&#x1ec5;" horiz-adv-x="494" 
d="M329.5 82.5q26.5 10.5 53.5 36.5l65 -60q-30 -35 -75 -53t-111 -18q-108 0 -160 44.5t-52 136.5v146q0 77 54.5 121.5t149.5 44.5q97 0 151 -47.5t54 -136.5q0 -41 -8 -64t-29 -33.5t-62 -10.5h-202v-20q0 -97 106 -97q39 0 65.5 10.5zM183.5 373q-25.5 -25 -25.5 -66
v-43h143q28 0 39 9.5t11 33.5q0 44 -25.5 67.5t-72.5 23.5q-44 0 -69.5 -25zM125.5 807.5q26.5 32.5 74.5 32.5q18 0 32.5 -5t35.5 -16q12 -6 23.5 -10.5t21.5 -4.5q25 0 31 42h65q-4 -46 -30 -79t-66 -33q-19 0 -34.5 5.5t-34.5 15.5q-12 6 -23.5 10.5t-20.5 4.5
q-29 0 -39 -43h-64q2 48 28.5 80.5zM147.5 606.5q36.5 44.5 59.5 88.5h90q23 -43 59.5 -88t64.5 -68h-98q-20 17 -40 39t-31 43q-11 -21 -31 -43t-40 -39h-97q27 23 63.5 67.5z" />
    <glyph glyph-name="edieresis" unicode="&#xeb;" horiz-adv-x="494" 
d="M329.5 82.5q26.5 10.5 53.5 36.5l65 -60q-30 -35 -75 -53t-111 -18q-108 0 -160 44.5t-52 136.5v146q0 77 54.5 121.5t149.5 44.5q97 0 151 -47.5t54 -136.5q0 -41 -8 -64t-29 -33.5t-62 -10.5h-202v-20q0 -97 106 -97q39 0 65.5 10.5zM183.5 373q-25.5 -25 -25.5 -66
v-43h143q28 0 39 9.5t11 33.5q0 44 -25.5 67.5t-72.5 23.5q-44 0 -69.5 -25zM127 550.5q-17 16.5 -17 39.5t17 39.5t40 16.5t39 -16.5t16 -39.5t-16 -39.5t-39 -16.5t-40 16.5zM300 550.5q-16 16.5 -16 39.5t16 39.5t40 16.5q23 0 40 -16.5t17 -39.5t-17 -39.5t-40 -16.5
q-24 0 -40 16.5z" />
    <glyph glyph-name="edotaccent" unicode="&#x117;" horiz-adv-x="494" 
d="M329.5 82.5q26.5 10.5 53.5 36.5l65 -60q-30 -35 -75 -53t-111 -18q-108 0 -160 44.5t-52 136.5v146q0 77 54.5 121.5t149.5 44.5q97 0 151 -47.5t54 -136.5q0 -41 -8 -64t-29 -33.5t-62 -10.5h-202v-20q0 -97 106 -97q39 0 65.5 10.5zM183.5 373q-25.5 -25 -25.5 -66
v-43h143q28 0 39 9.5t11 33.5q0 44 -25.5 67.5t-72.5 23.5q-44 0 -69.5 -25zM208 552.5q-19 18.5 -19 45.5q0 26 19 44.5t45 18.5t45 -18.5t19 -44.5q0 -27 -19 -45.5t-45 -18.5t-45 18.5z" />
    <glyph glyph-name="uni1EB9" unicode="&#x1eb9;" horiz-adv-x="494" 
d="M329.5 82.5q26.5 10.5 53.5 36.5l65 -60q-30 -35 -75 -53t-111 -18q-108 0 -160 44.5t-52 136.5v146q0 77 54.5 121.5t149.5 44.5q97 0 151 -47.5t54 -136.5q0 -41 -8 -64t-29 -33.5t-62 -10.5h-202v-20q0 -97 106 -97q39 0 65.5 10.5zM183.5 373q-25.5 -25 -25.5 -66
v-43h143q28 0 39 9.5t11 33.5q0 44 -25.5 67.5t-72.5 23.5q-44 0 -69.5 -25zM208 -164.5q-19 18.5 -19 44.5t19 45t45 19t45 -19t19 -45t-19 -44.5t-45 -18.5t-45 18.5z" />
    <glyph glyph-name="egrave" unicode="&#xe8;" horiz-adv-x="494" 
d="M329.5 82.5q26.5 10.5 53.5 36.5l65 -60q-30 -35 -75 -53t-111 -18q-108 0 -160 44.5t-52 136.5v146q0 77 54.5 121.5t149.5 44.5q97 0 151 -47.5t54 -136.5q0 -41 -8 -64t-29 -33.5t-62 -10.5h-202v-20q0 -97 106 -97q39 0 65.5 10.5zM183.5 373q-25.5 -25 -25.5 -66
v-43h143q28 0 39 9.5t11 33.5q0 44 -25.5 67.5t-72.5 23.5q-44 0 -69.5 -25zM103 692h115l80 -153h-88z" />
    <glyph glyph-name="uni1EBB" unicode="&#x1ebb;" horiz-adv-x="494" 
d="M329.5 82.5q26.5 10.5 53.5 36.5l65 -60q-30 -35 -75 -53t-111 -18q-108 0 -160 44.5t-52 136.5v146q0 77 54.5 121.5t149.5 44.5q97 0 151 -47.5t54 -136.5q0 -41 -8 -64t-29 -33.5t-62 -10.5h-202v-20q0 -97 106 -97q39 0 65.5 10.5zM183.5 373q-25.5 -25 -25.5 -66
v-43h143q28 0 39 9.5t11 33.5q0 44 -25.5 67.5t-72.5 23.5q-44 0 -69.5 -25zM287 577v-38h-79v76q45 4 65 14.5t20 27.5q0 19 -12 27t-35 8q-26 0 -58 -13l-19 60q39 18 89 18q56 0 87.5 -23t31.5 -68q0 -70 -90 -89z" />
    <glyph glyph-name="emacron" unicode="&#x113;" horiz-adv-x="494" 
d="M329.5 82.5q26.5 10.5 53.5 36.5l65 -60q-30 -35 -75 -53t-111 -18q-108 0 -160 44.5t-52 136.5v146q0 77 54.5 121.5t149.5 44.5q97 0 151 -47.5t54 -136.5q0 -41 -8 -64t-29 -33.5t-62 -10.5h-202v-20q0 -97 106 -97q39 0 65.5 10.5zM183.5 373q-25.5 -25 -25.5 -66
v-43h143q28 0 39 9.5t11 33.5q0 44 -25.5 67.5t-72.5 23.5q-44 0 -69.5 -25zM96 632h314v-78h-314v78z" />
    <glyph glyph-name="eogonek" unicode="&#x119;" horiz-adv-x="494" 
d="M329.5 82.5q26.5 10.5 53.5 36.5l65 -60q-57 -67 -170 -71q-35 -48 -35 -92q0 -24 14.5 -35.5t37.5 -11.5t54 13l18 -61q-39 -24 -82 -24q-72 0 -103 31.5t-31 71.5q0 60 49 112q-76 12 -113 55.5t-37 121.5v146q0 77 54.5 121.5t149.5 44.5q97 0 151 -47.5t54 -136.5
q0 -41 -8 -64t-29 -33.5t-62 -10.5h-202v-20q0 -97 106 -97q39 0 65.5 10.5zM183.5 373q-25.5 -25 -25.5 -66v-43h143q28 0 39 9.5t11 33.5q0 44 -25.5 67.5t-72.5 23.5q-44 0 -69.5 -25z" />
    <glyph glyph-name="uni1EBD" unicode="&#x1ebd;" horiz-adv-x="494" 
d="M329.5 82.5q26.5 10.5 53.5 36.5l65 -60q-30 -35 -75 -53t-111 -18q-108 0 -160 44.5t-52 136.5v146q0 77 54.5 121.5t149.5 44.5q97 0 151 -47.5t54 -136.5q0 -41 -8 -64t-29 -33.5t-62 -10.5h-202v-20q0 -97 106 -97q39 0 65.5 10.5zM183.5 373q-25.5 -25 -25.5 -66
v-43h143q28 0 39 9.5t11 33.5q0 44 -25.5 67.5t-72.5 23.5q-44 0 -69.5 -25zM115.5 635q27.5 37 79.5 37q20 0 36.5 -6t38.5 -18q32 -17 49 -17q13 0 19.5 11.5t9.5 37.5h72q-5 -55 -31.5 -92.5t-69.5 -37.5q-20 0 -36.5 6t-38.5 18q-32 17 -49 17q-15 0 -23.5 -11.5
t-13.5 -37.5h-72q2 56 29.5 93z" />
    <glyph glyph-name="uni0259" unicode="&#x259;" horiz-adv-x="494" 
d="M393.5 437q50.5 -43 50.5 -138v-145q0 -77 -54 -121.5t-148 -44.5q-97 0 -152 47t-55 137q0 41 8 63.5t29.5 33.5t62.5 11h200v20q0 48 -25.5 71.5t-78.5 23.5q-40 0 -65.5 -11t-52.5 -36l-67 61q58 71 185 71q112 0 162.5 -43zM310.5 97.5q24.5 24.5 24.5 64.5v42h-141
q-29 0 -39.5 -8t-10.5 -32q0 -45 25.5 -68t72.5 -23q44 0 68.5 24.5z" />
    <glyph glyph-name="f" unicode="f" horiz-adv-x="332" 
d="M210.5 618.5q-24.5 -28.5 -24.5 -81.5v-67h136v-85h-136v-385h-109v537q0 94 52.5 144.5t150.5 50.5h42v-85h-42q-45 0 -69.5 -28.5z" />
    <glyph glyph-name="g" unicode="g" horiz-adv-x="585" 
d="M550 418q-24 -19 -33 -34t-9 -39v-366q0 -93 -50.5 -136t-160.5 -43h-128v84h128q52 0 77 23t25 72v88q-23 -33 -58 -50t-90 -17q-94 0 -150 62.5t-56 168.5v20q0 65 23.5 117.5t70 83t111.5 30.5q103 0 157 -80q6 26 22.5 44.5t48.5 35.5zM399 174v133q-28 90 -120 90
q-59 0 -92 -41.5t-33 -104.5v-20q0 -63 33 -104.5t92 -41.5q92 0 120 89z" />
    <glyph glyph-name="gbreve" unicode="&#x11f;" horiz-adv-x="585" 
d="M550 418q-24 -19 -33 -34t-9 -39v-366q0 -93 -50.5 -136t-160.5 -43h-128v84h128q52 0 77 23t25 72v88q-23 -33 -58 -50t-90 -17q-94 0 -150 62.5t-56 168.5v20q0 65 23.5 117.5t70 83t111.5 30.5q103 0 157 -80q6 26 22.5 44.5t48.5 35.5zM399 174v133q-28 90 -120 90
q-59 0 -92 -41.5t-33 -104.5v-20q0 -63 33 -104.5t92 -41.5q92 0 120 89zM173.5 574q-43.5 43 -43.5 116h78q3 -38 24 -60t58 -22t58.5 22t23.5 60h78q0 -73 -43.5 -116t-116.5 -43t-116.5 43z" />
    <glyph glyph-name="gcaron" unicode="&#x1e7;" horiz-adv-x="585" 
d="M550 418q-24 -19 -33 -34t-9 -39v-366q0 -93 -50.5 -136t-160.5 -43h-128v84h128q52 0 77 23t25 72v88q-23 -33 -58 -50t-90 -17q-94 0 -150 62.5t-56 168.5v20q0 65 23.5 117.5t70 83t111.5 30.5q103 0 157 -80q6 26 22.5 44.5t48.5 35.5zM399 174v133q-28 90 -120 90
q-59 0 -92 -41.5t-33 -104.5v-20q0 -63 33 -104.5t92 -41.5q92 0 120 89zM184.5 627.5q-36.5 44.5 -63.5 67.5h97q19 -16 39 -38.5t32 -42.5q12 20 32 42.5t39 38.5h98q-28 -23 -64.5 -68t-59.5 -88h-90q-23 44 -59.5 88.5z" />
    <glyph glyph-name="gcircumflex" unicode="&#x11d;" horiz-adv-x="585" 
d="M550 418q-24 -19 -33 -34t-9 -39v-366q0 -93 -50.5 -136t-160.5 -43h-128v84h128q52 0 77 23t25 72v88q-23 -33 -58 -50t-90 -17q-94 0 -150 62.5t-56 168.5v20q0 65 23.5 117.5t70 83t111.5 30.5q103 0 157 -80q6 26 22.5 44.5t48.5 35.5zM399 174v133q-28 90 -120 90
q-59 0 -92 -41.5t-33 -104.5v-20q0 -63 33 -104.5t92 -41.5q92 0 120 89zM184.5 606.5q36.5 44.5 59.5 88.5h90q23 -43 59.5 -88t64.5 -68h-98q-20 17 -40 39t-31 43q-11 -21 -31 -43t-40 -39h-97q27 23 63.5 67.5z" />
    <glyph glyph-name="uni0123" unicode="&#x123;" horiz-adv-x="585" 
d="M239 550q-18 22 -18 61q0 50 24 90.5t69 75.5l34 -32q-55 -41 -63 -87q11 6 28 6q23 0 36 -15.5t13 -43.5q0 -29 -21 -53t-51 -24q-33 0 -51 22zM550 418q-24 -19 -33 -34t-9 -39v-366q0 -93 -50.5 -136t-160.5 -43h-128v84h128q52 0 77 23t25 72v88q-23 -33 -58 -50
t-90 -17q-94 0 -150 62.5t-56 168.5v20q0 65 23.5 117.5t70 83t111.5 30.5q103 0 157 -80q6 26 22.5 44.5t48.5 35.5zM399 174v133q-28 90 -120 90q-59 0 -92 -41.5t-33 -104.5v-20q0 -63 33 -104.5t92 -41.5q92 0 120 89z" />
    <glyph glyph-name="gdotaccent" unicode="&#x121;" horiz-adv-x="585" 
d="M550 418q-24 -19 -33 -34t-9 -39v-366q0 -93 -50.5 -136t-160.5 -43h-128v84h128q52 0 77 23t25 72v88q-23 -33 -58 -50t-90 -17q-94 0 -150 62.5t-56 168.5v20q0 65 23.5 117.5t70 83t111.5 30.5q103 0 157 -80q6 26 22.5 44.5t48.5 35.5zM399 174v133q-28 90 -120 90
q-59 0 -92 -41.5t-33 -104.5v-20q0 -63 33 -104.5t92 -41.5q92 0 120 89zM245 552.5q-19 18.5 -19 45.5q0 26 19 44.5t45 18.5t45 -18.5t19 -44.5q0 -27 -19 -45.5t-45 -18.5t-45 18.5z" />
    <glyph glyph-name="uni1E21" unicode="&#x1e21;" horiz-adv-x="585" 
d="M550 418q-24 -19 -33 -34t-9 -39v-366q0 -93 -50.5 -136t-160.5 -43h-128v84h128q52 0 77 23t25 72v88q-23 -33 -58 -50t-90 -17q-94 0 -150 62.5t-56 168.5v20q0 65 23.5 117.5t70 83t111.5 30.5q103 0 157 -80q6 26 22.5 44.5t48.5 35.5zM399 174v133q-28 90 -120 90
q-59 0 -92 -41.5t-33 -104.5v-20q0 -63 33 -104.5t92 -41.5q92 0 120 89zM133 632h314v-78h-314v78z" />
    <glyph glyph-name="h" unicode="h" horiz-adv-x="552" 
d="M446.5 439.5q40.5 -42.5 40.5 -119.5v-320h-109v309q0 41 -20.5 64.5t-57.5 23.5q-43 0 -71 -28t-43 -74v-295h-109v605q0 25 -9 40t-33 33l73 64q44 -23 61 -52.5t17 -82.5v-200q22 35 58.5 55t86.5 20q75 0 115.5 -42.5z" />
    <glyph glyph-name="hbar" unicode="&#x127;" horiz-adv-x="552" 
d="M446.5 439.5q40.5 -42.5 40.5 -119.5v-320h-109v309q0 41 -20.5 64.5t-57.5 23.5q-43 0 -71 -28t-43 -74v-295h-109v541h-75v58h75v6q0 25 -9 40t-33 33l73 64q44 -23 61 -52.5t17 -82.5v-8h161v-58h-161v-134q22 35 58.5 55t86.5 20q75 0 115.5 -42.5z" />
    <glyph glyph-name="uni1E2B" unicode="&#x1e2b;" horiz-adv-x="552" 
d="M446.5 439.5q40.5 -42.5 40.5 -119.5v-320h-109v309q0 41 -20.5 64.5t-57.5 23.5q-43 0 -71 -28t-43 -74v-295h-109v605q0 25 -9 40t-33 33l73 64q44 -23 61 -52.5t17 -82.5v-200q22 35 58.5 55t86.5 20q75 0 115.5 -42.5zM166 -183.5q-43 43.5 -43 117.5h78
q3 -39 24 -61.5t58 -22.5t58.5 23t23.5 61h78q0 -74 -43 -117.5t-117 -43.5t-117 43.5z" />
    <glyph glyph-name="hcircumflex" unicode="&#x125;" horiz-adv-x="552" 
d="M446.5 439.5q40.5 -42.5 40.5 -119.5v-320h-109v309q0 41 -20.5 64.5t-57.5 23.5q-43 0 -71 -28t-43 -74v-295h-109v605q0 25 -9 40t-33 33l73 64q44 -23 61 -52.5t17 -82.5v-200q22 35 58.5 55t86.5 20q75 0 115.5 -42.5zM187.5 850.5q36.5 44.5 59.5 88.5h90
q23 -43 59.5 -88t64.5 -68h-98q-20 17 -40 39t-31 43q-11 -21 -31 -43t-40 -39h-97q27 23 63.5 67.5z" />
    <glyph glyph-name="uni1E25" unicode="&#x1e25;" horiz-adv-x="552" 
d="M446.5 439.5q40.5 -42.5 40.5 -119.5v-320h-109v309q0 41 -20.5 64.5t-57.5 23.5q-43 0 -71 -28t-43 -74v-295h-109v605q0 25 -9 40t-33 33l73 64q44 -23 61 -52.5t17 -82.5v-200q22 35 58.5 55t86.5 20q75 0 115.5 -42.5zM238 -164.5q-19 18.5 -19 44.5t19 45t45 19
t45 -19t19 -45t-19 -44.5t-45 -18.5t-45 18.5z" />
    <glyph glyph-name="i" unicode="i" horiz-adv-x="269" 
d="M86.5 566.5q-19.5 19.5 -19.5 46.5q0 26 19.5 45.5t46.5 19.5q26 0 45.5 -19.5t19.5 -45.5q0 -27 -19.5 -46.5t-45.5 -19.5q-27 0 -46.5 19.5zM95.5 41q-17.5 30 -17.5 82v347h109v-345q0 -24 9 -39t33 -34l-72 -64q-44 23 -61.5 53z" />
    <glyph glyph-name="dotlessi" unicode="&#x131;" horiz-adv-x="269" 
d="M97 41q-17 30 -17 82v347h109v-345q0 -25 9 -40t33 -33l-73 -64q-44 23 -61 53z" />
    <glyph glyph-name="iacute" unicode="&#xed;" horiz-adv-x="269" 
d="M97 41q-17 30 -17 82v347h109v-345q0 -25 9 -40t33 -33l-73 -64q-44 23 -61 53zM165 692h115l-107 -153h-88z" />
    <glyph glyph-name="ibreve" unicode="&#x12d;" horiz-adv-x="269" 
d="M97 41q-17 30 -17 82v347h109v-345q0 -25 9 -40t33 -33l-73 -64q-44 23 -61 53zM18.5 574q-43.5 43 -43.5 116h78q3 -38 24 -60t58 -22t58.5 22t23.5 60h78q0 -73 -43.5 -116t-116.5 -43t-116.5 43z" />
    <glyph glyph-name="uni01D0" unicode="&#x1d0;" horiz-adv-x="269" 
d="M97 41q-17 30 -17 82v347h109v-345q0 -25 9 -40t33 -33l-73 -64q-44 23 -61 53zM29.5 627.5q-36.5 44.5 -63.5 67.5h97q19 -16 39 -38.5t32 -42.5q12 20 32 42.5t39 38.5h98q-28 -23 -64.5 -68t-59.5 -88h-90q-23 44 -59.5 88.5z" />
    <glyph glyph-name="icircumflex" unicode="&#xee;" horiz-adv-x="269" 
d="M97 41q-17 30 -17 82v347h109v-345q0 -25 9 -40t33 -33l-73 -64q-44 23 -61 53zM29.5 606.5q36.5 44.5 59.5 88.5h90q23 -43 59.5 -88t64.5 -68h-98q-20 17 -40 39t-31 43q-11 -21 -31 -43t-40 -39h-97q27 23 63.5 67.5z" />
    <glyph glyph-name="idieresis" unicode="&#xef;" horiz-adv-x="269" 
d="M97 41q-17 30 -17 82v347h109v-345q0 -25 9 -40t33 -33l-73 -64q-44 23 -61 53zM9 550.5q-17 16.5 -17 39.5t17 39.5t40 16.5t39 -16.5t16 -39.5t-16 -39.5t-39 -16.5t-40 16.5zM182 550.5q-16 16.5 -16 39.5t16 39.5t40 16.5q23 0 40 -16.5t17 -39.5t-17 -39.5
t-40 -16.5q-24 0 -40 16.5z" />
    <glyph glyph-name="uni1ECB" unicode="&#x1ecb;" horiz-adv-x="269" 
d="M86.5 566.5q-19.5 19.5 -19.5 46.5q0 26 19.5 45.5t46.5 19.5q26 0 45.5 -19.5t19.5 -45.5q0 -27 -19.5 -46.5t-45.5 -19.5q-27 0 -46.5 19.5zM95.5 41q-17.5 30 -17.5 82v347h109v-345q0 -24 9 -39t33 -34l-72 -64q-44 23 -61.5 53zM92 -164.5q-19 18.5 -19 44.5t19 45
t45 19t45 -19t19 -45t-19 -44.5t-45 -18.5t-45 18.5z" />
    <glyph glyph-name="igrave" unicode="&#xec;" horiz-adv-x="269" 
d="M97 41q-17 30 -17 82v347h109v-345q0 -25 9 -40t33 -33l-73 -64q-44 23 -61 53zM-15 692h115l80 -153h-88z" />
    <glyph glyph-name="uni1EC9" unicode="&#x1ec9;" horiz-adv-x="269" 
d="M97 41q-17 30 -17 82v347h109v-345q0 -25 9 -40t33 -33l-73 -64q-44 23 -61 53zM169 577v-38h-79v76q45 4 65 14.5t20 27.5q0 19 -12 27t-35 8q-26 0 -58 -13l-19 60q39 18 89 18q56 0 87.5 -23t31.5 -68q0 -70 -90 -89z" />
    <glyph glyph-name="ij" unicode="&#x133;" horiz-adv-x="504" 
d="M86.5 566.5q-19.5 19.5 -19.5 46.5q0 26 19.5 45.5t46.5 19.5q26 0 45.5 -19.5t19.5 -45.5q0 -27 -19.5 -46.5t-45.5 -19.5q-27 0 -46.5 19.5zM95.5 41q-17.5 30 -17.5 82v347h109v-345q0 -24 9 -39t33 -34l-72 -64q-44 23 -61.5 53zM335.5 566.5q-19.5 19.5 -19.5 46.5
q0 26 19.5 45.5t46.5 19.5t46 -19.5t19 -45.5q0 -27 -19 -46.5t-46 -19.5t-46.5 19.5zM175 -147h50q55 0 78.5 25.5t23.5 84.5v507h109v-507q0 -71 -21 -113.5t-67 -62t-123 -19.5h-50v85z" />
    <glyph glyph-name="imacron" unicode="&#x12b;" horiz-adv-x="269" 
d="M97 41q-17 30 -17 82v347h109v-345q0 -25 9 -40t33 -33l-73 -64q-44 23 -61 53zM-22 632h314v-78h-314v78z" />
    <glyph glyph-name="iogonek" unicode="&#x12f;" horiz-adv-x="269" 
d="M89.5 552.5q-18.5 18.5 -18.5 45.5q0 26 18.5 44.5t45.5 18.5q26 0 44.5 -18.5t18.5 -44.5q0 -27 -18.5 -45.5t-44.5 -18.5q-27 0 -45.5 18.5zM255 -195q-37 -24 -83 -24q-72 0 -103 31.5t-31 70.5q0 38 18.5 71.5t57.5 64.5q-18 18 -26 42.5t-8 61.5v347h109v-345
q0 -25 9 -40t33 -33l-61 -54q-39 -50 -39 -99q0 -24 14 -35.5t37 -11.5q21 0 54 14z" />
    <glyph glyph-name="itilde" unicode="&#x129;" horiz-adv-x="269" 
d="M97 41q-17 30 -17 82v347h109v-345q0 -25 9 -40t33 -33l-73 -64q-44 23 -61 53zM-2.5 635q27.5 37 79.5 37q20 0 36.5 -6t38.5 -18q32 -17 49 -17q13 0 19.5 11.5t9.5 37.5h72q-5 -55 -31.5 -92.5t-69.5 -37.5q-20 0 -36.5 6t-38.5 18q-32 17 -49 17q-15 0 -23.5 -11.5
t-13.5 -37.5h-72q2 56 29.5 93z" />
    <glyph glyph-name="j" unicode="j" horiz-adv-x="264" 
d="M95.5 566.5q-19.5 19.5 -19.5 46.5q0 26 19.5 45.5t46.5 19.5t46 -19.5t19 -45.5q0 -27 -19 -46.5t-46 -19.5t-46.5 19.5zM-65 -147h50q55 0 78.5 25.5t23.5 84.5v507h109v-507q0 -71 -21 -113.5t-67 -62t-123 -19.5h-50v85z" />
    <glyph glyph-name="uni0237" unicode="&#x237;" horiz-adv-x="255" 
d="M-65 -147h50q55 0 78.5 26t23.5 85v506h109v-506q0 -71 -21 -113.5t-67 -62t-123 -19.5h-50v84z" />
    <glyph glyph-name="jcircumflex" unicode="&#x135;" horiz-adv-x="255" 
d="M-65 -147h50q55 0 78.5 26t23.5 85v506h109v-506q0 -71 -21 -113.5t-67 -62t-123 -19.5h-50v84zM35.5 606.5q36.5 44.5 59.5 88.5h90q23 -43 59.5 -88t64.5 -68h-98q-20 17 -40 39t-31 43q-11 -21 -31 -43t-40 -39h-97q27 23 63.5 67.5z" />
    <glyph glyph-name="k" unicode="k" horiz-adv-x="534" 
d="M506 0h-112l-44 161q-9 33 -27.5 48t-59.5 19l-77 -78v-150h-109v605q0 24 -9 39t-33 34l73 63q44 -22 61 -51.5t17 -82.5v-324l183 187h133l-161 -163q48 -10 75 -44t46 -102z" />
    <glyph glyph-name="uni0137" unicode="&#x137;" horiz-adv-x="534" 
d="M506 0h-112l-44 161q-9 33 -27.5 48t-59.5 19l-77 -78v-150h-109v605q0 24 -9 39t-33 34l73 63q44 -22 61 -51.5t17 -82.5v-324l183 187h133l-161 -163q48 -10 75 -44t46 -102zM333 -80q18 -22 18 -61q0 -50 -24 -90.5t-69 -75.5l-34 32q55 41 63 87q-11 -6 -28 -6
q-23 0 -36 15.5t-13 43.5q0 29 21 53t51 24q33 0 51 -22z" />
    <glyph glyph-name="kgreenlandic" unicode="&#x138;" horiz-adv-x="498" 
d="M470 0h-112l-50 161q-10 32 -29 46t-61 18l-74 -75v-150h-109v470h109v-187l184 187h134l-167 -168q49 -9 76.5 -41.5t48.5 -99.5z" />
    <glyph glyph-name="l" unicode="l" horiz-adv-x="264" 
d="M94.5 41q-17.5 30 -17.5 82v482q0 25 -9 40t-33 33l73 64q44 -23 61 -52.5t17 -82.5v-482q0 -24 9.5 -39t33.5 -34l-73 -64q-44 23 -61.5 53z" />
    <glyph glyph-name="lacute" unicode="&#x13a;" horiz-adv-x="264" 
d="M94.5 41q-17.5 30 -17.5 82v482q0 25 -9 40t-33 33l73 64q44 -23 61 -52.5t17 -82.5v-482q0 -24 9.5 -39t33.5 -34l-73 -64q-44 23 -61.5 53zM153 954h115l-107 -153h-88z" />
    <glyph glyph-name="lcaron" unicode="&#x13e;" horiz-adv-x="360" 
d="M94.5 41q-17.5 30 -17.5 82v482q0 25 -9 40t-33 33l73 64q44 -23 61 -52.5t17 -82.5v-482q0 -24 9.5 -39t33.5 -34l-73 -64q-44 23 -61.5 53zM346 708.5q18 -22.5 18 -61.5q0 -51 -24 -91.5t-69 -76.5l-33 32q55 41 63 89q-10 -5 -28 -5q-23 0 -36.5 15.5t-13.5 42.5
q0 29 21 53.5t52 24.5q32 0 50 -22.5z" />
    <glyph glyph-name="uni013C" unicode="&#x13c;" horiz-adv-x="264" 
d="M94.5 41q-17.5 30 -17.5 82v482q0 25 -9 40t-33 33l73 64q44 -23 61 -52.5t17 -82.5v-482q0 -24 9.5 -39t33.5 -34l-73 -64q-44 23 -61.5 53zM204 -80q18 -22 18 -61q0 -50 -24 -90.5t-69 -75.5l-34 32q55 41 63 87q-11 -6 -28 -6q-23 0 -36 15.5t-13 43.5q0 29 21 53
t51 24q33 0 51 -22z" />
    <glyph glyph-name="ldot" unicode="&#x140;" horiz-adv-x="402" 
d="M94.5 41q-17.5 30 -17.5 82v482q0 25 -9 40t-33 33l73 64q44 -23 61 -52.5t17 -82.5v-482q0 -24 9.5 -39t33.5 -34l-73 -64q-44 23 -61.5 53zM264 244.5q-23 22.5 -23 54.5q0 33 23 56t57 23q32 0 54.5 -23t22.5 -56q0 -32 -22.5 -54.5t-54.5 -22.5q-34 0 -57 22.5z" />
    <glyph glyph-name="uni1E37" unicode="&#x1e37;" horiz-adv-x="264" 
d="M94.5 41q-17.5 30 -17.5 82v482q0 25 -9 40t-33 33l73 64q44 -23 61 -52.5t17 -82.5v-482q0 -24 9.5 -39t33.5 -34l-73 -64q-44 23 -61.5 53zM108 -164.5q-19 18.5 -19 44.5t19 45t45 19t45 -19t19 -45t-19 -44.5t-45 -18.5t-45 18.5z" />
    <glyph glyph-name="uni1E39" unicode="&#x1e39;" horiz-adv-x="264" 
d="M94.5 41q-17.5 30 -17.5 82v482q0 25 -9 40t-33 33l73 64q44 -23 61 -52.5t17 -82.5v-482q0 -24 9.5 -39t33.5 -34l-73 -64q-44 23 -61.5 53zM108 -164.5q-19 18.5 -19 44.5t19 45t45 19t45 -19t19 -45t-19 -44.5t-45 -18.5t-45 18.5zM-34 894h314v-78h-314v78z" />
    <glyph glyph-name="uni1E3B" unicode="&#x1e3b;" horiz-adv-x="264" 
d="M94.5 41q-17.5 30 -17.5 82v482q0 25 -9 40t-33 33l73 64q44 -23 61 -52.5t17 -82.5v-482q0 -24 9.5 -39t33.5 -34l-73 -64q-44 23 -61.5 53zM-4 -75h314v-78h-314v78z" />
    <glyph glyph-name="lslash" unicode="&#x142;" horiz-adv-x="276" 
d="M193 381v-256q0 -24 9 -39t33 -34l-72 -64q-44 23 -61.5 53t-17.5 82v183l-83 -57v93l83 57v206q0 25 -9 40t-33 33l72 64q44 -23 61.5 -53t17.5 -82v-132l81 56v-94z" />
    <glyph glyph-name="m" unicode="m" horiz-adv-x="818" 
d="M714.5 439.5q38.5 -42.5 38.5 -119.5v-320h-109v309q0 41 -18.5 64.5t-51.5 23.5q-39 0 -65.5 -28t-39.5 -73v-296h-109v309q0 41 -18 64.5t-51 23.5q-39 0 -66 -28t-39 -73v-296h-109v345q0 24 -9 39t-33 34l73 64q59 -29 72 -82q50 82 143 82q52 0 87 -24t48 -70
q18 43 56 68.5t92 25.5q70 0 108.5 -42.5z" />
    <glyph glyph-name="uni1E43" unicode="&#x1e43;" horiz-adv-x="818" 
d="M714.5 439.5q38.5 -42.5 38.5 -119.5v-320h-109v309q0 41 -18.5 64.5t-51.5 23.5q-39 0 -65.5 -28t-39.5 -73v-296h-109v309q0 41 -18 64.5t-51 23.5q-39 0 -66 -28t-39 -73v-296h-109v345q0 24 -9 39t-33 34l73 64q59 -29 72 -82q50 82 143 82q52 0 87 -24t48 -70
q18 43 56 68.5t92 25.5q70 0 108.5 -42.5zM370 -164.5q-19 18.5 -19 44.5t19 45t45 19t45 -19t19 -45t-19 -44.5t-45 -18.5t-45 18.5z" />
    <glyph glyph-name="n" unicode="n" horiz-adv-x="552" 
d="M446.5 439.5q40.5 -42.5 40.5 -119.5v-320h-109v309q0 41 -20.5 64.5t-57.5 23.5q-43 0 -71 -27.5t-43 -72.5v-297h-109v345q0 24 -9 39t-33 34l73 64q32 -17 49 -36.5t24 -46.5q21 38 59 60.5t90 22.5q76 0 116.5 -42.5z" />
    <glyph glyph-name="nacute" unicode="&#x144;" horiz-adv-x="552" 
d="M446.5 439.5q40.5 -42.5 40.5 -119.5v-320h-109v309q0 41 -20.5 64.5t-57.5 23.5q-43 0 -71 -27.5t-43 -72.5v-297h-109v345q0 24 -9 39t-33 34l73 64q32 -17 49 -36.5t24 -46.5q21 38 59 60.5t90 22.5q76 0 116.5 -42.5zM308 692h115l-107 -153h-88z" />
    <glyph glyph-name="napostrophe" unicode="&#x149;" horiz-adv-x="633" 
d="M150 691.5q18 -22.5 18 -61.5q0 -51 -24 -91.5t-69 -76.5l-33 32q55 41 63 89q-10 -5 -28 -5q-23 0 -36.5 15.5t-13.5 42.5q0 29 21 53.5t52 24.5q32 0 50 -22.5zM527.5 439.5q40.5 -42.5 40.5 -119.5v-320h-109v309q0 41 -20.5 64.5t-57.5 23.5q-43 0 -71 -27.5
t-43 -72.5v-297h-109v345q0 24 -9 39t-33 34l73 64q32 -17 49 -36.5t24 -46.5q21 38 59 60.5t90 22.5q76 0 116.5 -42.5z" />
    <glyph glyph-name="ncaron" unicode="&#x148;" horiz-adv-x="552" 
d="M446.5 439.5q40.5 -42.5 40.5 -119.5v-320h-109v309q0 41 -20.5 64.5t-57.5 23.5q-43 0 -71 -27.5t-43 -72.5v-297h-109v345q0 24 -9 39t-33 34l73 64q32 -17 49 -36.5t24 -46.5q21 38 59 60.5t90 22.5q76 0 116.5 -42.5zM172.5 627.5q-36.5 44.5 -63.5 67.5h97
q19 -16 39 -38.5t32 -42.5q12 20 32 42.5t39 38.5h98q-28 -23 -64.5 -68t-59.5 -88h-90q-23 44 -59.5 88.5z" />
    <glyph glyph-name="uni0146" unicode="&#x146;" horiz-adv-x="552" 
d="M446.5 439.5q40.5 -42.5 40.5 -119.5v-320h-109v309q0 41 -20.5 64.5t-57.5 23.5q-43 0 -71 -27.5t-43 -72.5v-297h-109v345q0 24 -9 39t-33 34l73 64q32 -17 49 -36.5t24 -46.5q21 38 59 60.5t90 22.5q76 0 116.5 -42.5zM338 -80q18 -22 18 -61q0 -50 -24 -90.5
t-69 -75.5l-34 32q55 41 63 87q-11 -6 -28 -6q-23 0 -36 15.5t-13 43.5q0 29 21 53t51 24q33 0 51 -22z" />
    <glyph glyph-name="uni1E45" unicode="&#x1e45;" horiz-adv-x="552" 
d="M446.5 439.5q40.5 -42.5 40.5 -119.5v-320h-109v309q0 41 -20.5 64.5t-57.5 23.5q-43 0 -71 -27.5t-43 -72.5v-297h-109v345q0 24 -9 39t-33 34l73 64q32 -17 49 -36.5t24 -46.5q21 38 59 60.5t90 22.5q76 0 116.5 -42.5zM233 552.5q-19 18.5 -19 45.5q0 26 19 44.5
t45 18.5t45 -18.5t19 -44.5q0 -27 -19 -45.5t-45 -18.5t-45 18.5z" />
    <glyph glyph-name="uni1E47" unicode="&#x1e47;" horiz-adv-x="552" 
d="M446.5 439.5q40.5 -42.5 40.5 -119.5v-320h-109v309q0 41 -20.5 64.5t-57.5 23.5q-43 0 -71 -27.5t-43 -72.5v-297h-109v345q0 24 -9 39t-33 34l73 64q32 -17 49 -36.5t24 -46.5q21 38 59 60.5t90 22.5q76 0 116.5 -42.5zM242 -164.5q-19 18.5 -19 44.5t19 45t45 19
t45 -19t19 -45t-19 -44.5t-45 -18.5t-45 18.5z" />
    <glyph glyph-name="eng" unicode="&#x14b;" horiz-adv-x="552" 
d="M446.5 439.5q40.5 -42.5 40.5 -119.5v-357q0 -71 -21 -113.5t-67 -62t-123 -19.5h-44v85h44q55 0 78.5 25.5t23.5 84.5v346q0 41 -20.5 64.5t-57.5 23.5q-43 0 -71.5 -27.5t-42.5 -74.5v-295h-109v345q0 24 -9 39t-33 34l73 64q32 -17 48.5 -36t23.5 -47q22 38 59.5 60.5
t90.5 22.5q76 0 116.5 -42.5z" />
    <glyph glyph-name="uni1E49" unicode="&#x1e49;" horiz-adv-x="552" 
d="M446.5 439.5q40.5 -42.5 40.5 -119.5v-320h-109v309q0 41 -20.5 64.5t-57.5 23.5q-43 0 -71 -27.5t-43 -72.5v-297h-109v345q0 24 -9 39t-33 34l73 64q32 -17 49 -36.5t24 -46.5q21 38 59 60.5t90 22.5q76 0 116.5 -42.5zM130 -75h314v-78h-314v78z" />
    <glyph glyph-name="ntilde" unicode="&#xf1;" horiz-adv-x="552" 
d="M446.5 439.5q40.5 -42.5 40.5 -119.5v-320h-109v309q0 41 -20.5 64.5t-57.5 23.5q-43 0 -71 -27.5t-43 -72.5v-297h-109v345q0 24 -9 39t-33 34l73 64q32 -17 49 -36.5t24 -46.5q21 38 59 60.5t90 22.5q76 0 116.5 -42.5zM140.5 635q27.5 37 79.5 37q20 0 36.5 -6
t38.5 -18q32 -17 49 -17q13 0 19.5 11.5t9.5 37.5h72q-5 -55 -31.5 -92.5t-69.5 -37.5q-20 0 -36.5 6t-38.5 18q-32 17 -49 17q-15 0 -23.5 -11.5t-13.5 -37.5h-72q2 56 29.5 93z" />
    <glyph glyph-name="o" unicode="o" horiz-adv-x="521" 
d="M105 36q-55 48 -55 136v126q0 88 55 136t155 48q101 0 156 -48t55 -136v-126q0 -88 -55 -136t-156 -48q-100 0 -155 48zM335.5 98.5q26.5 25.5 26.5 73.5v126q0 48 -26.5 73.5t-75.5 25.5q-48 0 -74.5 -25.5t-26.5 -73.5v-126q0 -48 26.5 -73.5t74.5 -25.5
q49 0 75.5 25.5z" />
    <glyph glyph-name="oacute" unicode="&#xf3;" horiz-adv-x="521" 
d="M105 36q-55 48 -55 136v126q0 88 55 136t155 48q101 0 156 -48t55 -136v-126q0 -88 -55 -136t-156 -48q-100 0 -155 48zM335.5 98.5q26.5 25.5 26.5 73.5v126q0 48 -26.5 73.5t-75.5 25.5q-48 0 -74.5 -25.5t-26.5 -73.5v-126q0 -48 26.5 -73.5t74.5 -25.5
q49 0 75.5 25.5zM290 692h115l-107 -153h-88z" />
    <glyph glyph-name="obreve" unicode="&#x14f;" horiz-adv-x="521" 
d="M105 36q-55 48 -55 136v126q0 88 55 136t155 48q101 0 156 -48t55 -136v-126q0 -88 -55 -136t-156 -48q-100 0 -155 48zM335.5 98.5q26.5 25.5 26.5 73.5v126q0 48 -26.5 73.5t-75.5 25.5q-48 0 -74.5 -25.5t-26.5 -73.5v-126q0 -48 26.5 -73.5t74.5 -25.5
q49 0 75.5 25.5zM143.5 574q-43.5 43 -43.5 116h78q3 -38 24 -60t58 -22t58.5 22t23.5 60h78q0 -73 -43.5 -116t-116.5 -43t-116.5 43z" />
    <glyph glyph-name="uni01D2" unicode="&#x1d2;" horiz-adv-x="521" 
d="M105 36q-55 48 -55 136v126q0 88 55 136t155 48q101 0 156 -48t55 -136v-126q0 -88 -55 -136t-156 -48q-100 0 -155 48zM335.5 98.5q26.5 25.5 26.5 73.5v126q0 48 -26.5 73.5t-75.5 25.5q-48 0 -74.5 -25.5t-26.5 -73.5v-126q0 -48 26.5 -73.5t74.5 -25.5
q49 0 75.5 25.5zM154.5 627.5q-36.5 44.5 -63.5 67.5h97q19 -16 39 -38.5t32 -42.5q12 20 32 42.5t39 38.5h98q-28 -23 -64.5 -68t-59.5 -88h-90q-23 44 -59.5 88.5z" />
    <glyph glyph-name="ocircumflex" unicode="&#xf4;" horiz-adv-x="521" 
d="M105 36q-55 48 -55 136v126q0 88 55 136t155 48q101 0 156 -48t55 -136v-126q0 -88 -55 -136t-156 -48q-100 0 -155 48zM335.5 98.5q26.5 25.5 26.5 73.5v126q0 48 -26.5 73.5t-75.5 25.5q-48 0 -74.5 -25.5t-26.5 -73.5v-126q0 -48 26.5 -73.5t74.5 -25.5
q49 0 75.5 25.5zM154.5 606.5q36.5 44.5 59.5 88.5h90q23 -43 59.5 -88t64.5 -68h-98q-20 17 -40 39t-31 43q-11 -21 -31 -43t-40 -39h-97q27 23 63.5 67.5z" />
    <glyph glyph-name="uni1ED1" unicode="&#x1ed1;" horiz-adv-x="521" 
d="M105 36q-55 48 -55 136v126q0 88 55 136t155 48q101 0 156 -48t55 -136v-126q0 -88 -55 -136t-156 -48q-100 0 -155 48zM335.5 98.5q26.5 25.5 26.5 73.5v126q0 48 -26.5 73.5t-75.5 25.5q-48 0 -74.5 -25.5t-26.5 -73.5v-126q0 -48 26.5 -73.5t74.5 -25.5
q49 0 75.5 25.5zM435 759h107l-88 -121h-82zM154.5 606.5q36.5 44.5 59.5 88.5h90q23 -43 59.5 -88t64.5 -68h-98q-20 17 -40 39t-31 43q-11 -21 -31 -43t-40 -39h-97q27 23 63.5 67.5z" />
    <glyph glyph-name="uni1ED9" unicode="&#x1ed9;" horiz-adv-x="521" 
d="M105 36q-55 48 -55 136v126q0 88 55 136t155 48q101 0 156 -48t55 -136v-126q0 -88 -55 -136t-156 -48q-100 0 -155 48zM335.5 98.5q26.5 25.5 26.5 73.5v126q0 48 -26.5 73.5t-75.5 25.5q-48 0 -74.5 -25.5t-26.5 -73.5v-126q0 -48 26.5 -73.5t74.5 -25.5
q49 0 75.5 25.5zM215 -164.5q-19 18.5 -19 44.5t19 45t45 19t45 -19t19 -45t-19 -44.5t-45 -18.5t-45 18.5zM154.5 606.5q36.5 44.5 59.5 88.5h90q23 -43 59.5 -88t64.5 -68h-98q-20 17 -40 39t-31 43q-11 -21 -31 -43t-40 -39h-97q27 23 63.5 67.5z" />
    <glyph glyph-name="uni1ED3" unicode="&#x1ed3;" horiz-adv-x="521" 
d="M105 36q-55 48 -55 136v126q0 88 55 136t155 48q101 0 156 -48t55 -136v-126q0 -88 -55 -136t-156 -48q-100 0 -155 48zM335.5 98.5q26.5 25.5 26.5 73.5v126q0 48 -26.5 73.5t-75.5 25.5q-48 0 -74.5 -25.5t-26.5 -73.5v-126q0 -48 26.5 -73.5t74.5 -25.5
q49 0 75.5 25.5zM329 759h107l63 -121h-82zM154.5 606.5q36.5 44.5 59.5 88.5h90q23 -43 59.5 -88t64.5 -68h-98q-20 17 -40 39t-31 43q-11 -21 -31 -43t-40 -39h-97q27 23 63.5 67.5z" />
    <glyph glyph-name="uni1ED5" unicode="&#x1ed5;" horiz-adv-x="521" 
d="M105 36q-55 48 -55 136v126q0 88 55 136t155 48q101 0 156 -48t55 -136v-126q0 -88 -55 -136t-156 -48q-100 0 -155 48zM335.5 98.5q26.5 25.5 26.5 73.5v126q0 48 -26.5 73.5t-75.5 25.5q-48 0 -74.5 -25.5t-26.5 -73.5v-126q0 -48 26.5 -73.5t74.5 -25.5
q49 0 75.5 25.5zM454 665v-32h-67v64q39 4 55.5 12t16.5 23q0 16 -10 22t-31 6q-17 0 -49 -10l-16 50q31 15 76 15t70.5 -19t25.5 -57q0 -58 -71 -74zM363.5 607q36.5 -45 64.5 -68h-98q-20 17 -40 39t-31 43q-11 -21 -31 -43t-40 -39h-97q27 23 63.5 67.5t59.5 88.5h90
q23 -43 59.5 -88z" />
    <glyph glyph-name="uni1ED7" unicode="&#x1ed7;" horiz-adv-x="521" 
d="M105 36q-55 48 -55 136v126q0 88 55 136t155 48q101 0 156 -48t55 -136v-126q0 -88 -55 -136t-156 -48q-100 0 -155 48zM335.5 98.5q26.5 25.5 26.5 73.5v126q0 48 -26.5 73.5t-75.5 25.5q-48 0 -74.5 -25.5t-26.5 -73.5v-126q0 -48 26.5 -73.5t74.5 -25.5
q49 0 75.5 25.5zM132.5 807.5q26.5 32.5 74.5 32.5q18 0 32.5 -5t35.5 -16q12 -6 23.5 -10.5t21.5 -4.5q25 0 31 42h65q-4 -46 -30 -79t-66 -33q-19 0 -34.5 5.5t-34.5 15.5q-12 6 -23.5 10.5t-20.5 4.5q-29 0 -39 -43h-64q2 48 28.5 80.5zM154.5 606.5q36.5 44.5 59.5 88.5
h90q23 -43 59.5 -88t64.5 -68h-98q-20 17 -40 39t-31 43q-11 -21 -31 -43t-40 -39h-97q27 23 63.5 67.5z" />
    <glyph glyph-name="odieresis" unicode="&#xf6;" horiz-adv-x="521" 
d="M105 36q-55 48 -55 136v126q0 88 55 136t155 48q101 0 156 -48t55 -136v-126q0 -88 -55 -136t-156 -48q-100 0 -155 48zM335.5 98.5q26.5 25.5 26.5 73.5v126q0 48 -26.5 73.5t-75.5 25.5q-48 0 -74.5 -25.5t-26.5 -73.5v-126q0 -48 26.5 -73.5t74.5 -25.5
q49 0 75.5 25.5zM134 550.5q-17 16.5 -17 39.5t17 39.5t40 16.5t39 -16.5t16 -39.5t-16 -39.5t-39 -16.5t-40 16.5zM307 550.5q-16 16.5 -16 39.5t16 39.5t40 16.5q23 0 40 -16.5t17 -39.5t-17 -39.5t-40 -16.5q-24 0 -40 16.5z" />
    <glyph glyph-name="uni1ECD" unicode="&#x1ecd;" horiz-adv-x="521" 
d="M105 36q-55 48 -55 136v126q0 88 55 136t155 48q101 0 156 -48t55 -136v-126q0 -88 -55 -136t-156 -48q-100 0 -155 48zM335.5 98.5q26.5 25.5 26.5 73.5v126q0 48 -26.5 73.5t-75.5 25.5q-48 0 -74.5 -25.5t-26.5 -73.5v-126q0 -48 26.5 -73.5t74.5 -25.5
q49 0 75.5 25.5zM215 -164.5q-19 18.5 -19 44.5t19 45t45 19t45 -19t19 -45t-19 -44.5t-45 -18.5t-45 18.5z" />
    <glyph glyph-name="ograve" unicode="&#xf2;" horiz-adv-x="521" 
d="M105 36q-55 48 -55 136v126q0 88 55 136t155 48q101 0 156 -48t55 -136v-126q0 -88 -55 -136t-156 -48q-100 0 -155 48zM335.5 98.5q26.5 25.5 26.5 73.5v126q0 48 -26.5 73.5t-75.5 25.5q-48 0 -74.5 -25.5t-26.5 -73.5v-126q0 -48 26.5 -73.5t74.5 -25.5
q49 0 75.5 25.5zM110 692h115l80 -153h-88z" />
    <glyph glyph-name="uni1ECF" unicode="&#x1ecf;" horiz-adv-x="521" 
d="M105 36q-55 48 -55 136v126q0 88 55 136t155 48q101 0 156 -48t55 -136v-126q0 -88 -55 -136t-156 -48q-100 0 -155 48zM335.5 98.5q26.5 25.5 26.5 73.5v126q0 48 -26.5 73.5t-75.5 25.5q-48 0 -74.5 -25.5t-26.5 -73.5v-126q0 -48 26.5 -73.5t74.5 -25.5
q49 0 75.5 25.5zM294 577v-38h-79v76q45 4 65 14.5t20 27.5q0 19 -12 27t-35 8q-26 0 -58 -13l-19 60q39 18 89 18q56 0 87.5 -23t31.5 -68q0 -70 -90 -89z" />
    <glyph glyph-name="ohorn" unicode="&#x1a1;" horiz-adv-x="555" 
d="M567 391.5q-31 -46.5 -98 -58.5q2 -22 2 -35v-126q0 -88 -55 -136t-156 -48q-100 0 -155 48t-55 136v126q0 88 55 136t155 48q70 0 119 -23.5t72 -68.5q29 12 40 45t11 93h99q-3 -90 -34 -136.5zM362 298q0 48 -26.5 73.5t-75.5 25.5q-48 0 -74.5 -25.5t-26.5 -73.5v-126
q0 -48 26.5 -73.5t74.5 -25.5q49 0 75.5 25.5t26.5 73.5v126z" />
    <glyph glyph-name="uni1EDB" unicode="&#x1edb;" horiz-adv-x="555" 
d="M567 391.5q-31 -46.5 -98 -58.5q2 -22 2 -35v-126q0 -88 -55 -136t-156 -48q-100 0 -155 48t-55 136v126q0 88 55 136t155 48q70 0 119 -23.5t72 -68.5q29 12 40 45t11 93h99q-3 -90 -34 -136.5zM362 298q0 48 -26.5 73.5t-75.5 25.5q-48 0 -74.5 -25.5t-26.5 -73.5v-126
q0 -48 26.5 -73.5t74.5 -25.5q49 0 75.5 25.5t26.5 73.5v126zM290 692h115l-107 -153h-88z" />
    <glyph glyph-name="uni1EE3" unicode="&#x1ee3;" horiz-adv-x="555" 
d="M567 391.5q-31 -46.5 -98 -58.5q2 -22 2 -35v-126q0 -88 -55 -136t-156 -48q-100 0 -155 48t-55 136v126q0 88 55 136t155 48q70 0 119 -23.5t72 -68.5q29 12 40 45t11 93h99q-3 -90 -34 -136.5zM362 298q0 48 -26.5 73.5t-75.5 25.5q-48 0 -74.5 -25.5t-26.5 -73.5v-126
q0 -48 26.5 -73.5t74.5 -25.5q49 0 75.5 25.5t26.5 73.5v126zM215 -164.5q-19 18.5 -19 44.5t19 45t45 19t45 -19t19 -45t-19 -44.5t-45 -18.5t-45 18.5z" />
    <glyph glyph-name="uni1EDD" unicode="&#x1edd;" horiz-adv-x="555" 
d="M567 391.5q-31 -46.5 -98 -58.5q2 -22 2 -35v-126q0 -88 -55 -136t-156 -48q-100 0 -155 48t-55 136v126q0 88 55 136t155 48q70 0 119 -23.5t72 -68.5q29 12 40 45t11 93h99q-3 -90 -34 -136.5zM362 298q0 48 -26.5 73.5t-75.5 25.5q-48 0 -74.5 -25.5t-26.5 -73.5v-126
q0 -48 26.5 -73.5t74.5 -25.5q49 0 75.5 25.5t26.5 73.5v126zM110 692h115l80 -153h-88z" />
    <glyph glyph-name="uni1EDF" unicode="&#x1edf;" horiz-adv-x="555" 
d="M567 391.5q-31 -46.5 -98 -58.5q2 -22 2 -35v-126q0 -88 -55 -136t-156 -48q-100 0 -155 48t-55 136v126q0 88 55 136t155 48q70 0 119 -23.5t72 -68.5q29 12 40 45t11 93h99q-3 -90 -34 -136.5zM362 298q0 48 -26.5 73.5t-75.5 25.5q-48 0 -74.5 -25.5t-26.5 -73.5v-126
q0 -48 26.5 -73.5t74.5 -25.5q49 0 75.5 25.5t26.5 73.5v126zM294 577v-38h-79v76q45 4 65 14.5t20 27.5q0 19 -12 27t-35 8q-26 0 -58 -13l-19 60q39 18 89 18q56 0 87.5 -23t31.5 -68q0 -70 -90 -89z" />
    <glyph glyph-name="uni1EE1" unicode="&#x1ee1;" horiz-adv-x="555" 
d="M567 391.5q-31 -46.5 -98 -58.5q2 -22 2 -35v-126q0 -88 -55 -136t-156 -48q-100 0 -155 48t-55 136v126q0 88 55 136t155 48q70 0 119 -23.5t72 -68.5q29 12 40 45t11 93h99q-3 -90 -34 -136.5zM362 298q0 48 -26.5 73.5t-75.5 25.5q-48 0 -74.5 -25.5t-26.5 -73.5v-126
q0 -48 26.5 -73.5t74.5 -25.5q49 0 75.5 25.5t26.5 73.5v126zM122.5 635q27.5 37 79.5 37q20 0 36.5 -6t38.5 -18q32 -17 49 -17q13 0 19.5 11.5t9.5 37.5h72q-5 -55 -31.5 -92.5t-69.5 -37.5q-20 0 -36.5 6t-38.5 18q-32 17 -49 17q-15 0 -23.5 -11.5t-13.5 -37.5h-72
q2 56 29.5 93z" />
    <glyph glyph-name="ohungarumlaut" unicode="&#x151;" horiz-adv-x="521" 
d="M105 36q-55 48 -55 136v126q0 88 55 136t155 48q101 0 156 -48t55 -136v-126q0 -88 -55 -136t-156 -48q-100 0 -155 48zM335.5 98.5q26.5 25.5 26.5 73.5v126q0 48 -26.5 73.5t-75.5 25.5q-48 0 -74.5 -25.5t-26.5 -73.5v-126q0 -48 26.5 -73.5t74.5 -25.5
q49 0 75.5 25.5zM196 692h100l-81 -153h-81zM364 692h100l-82 -153h-80z" />
    <glyph glyph-name="omacron" unicode="&#x14d;" horiz-adv-x="521" 
d="M105 36q-55 48 -55 136v126q0 88 55 136t155 48q101 0 156 -48t55 -136v-126q0 -88 -55 -136t-156 -48q-100 0 -155 48zM335.5 98.5q26.5 25.5 26.5 73.5v126q0 48 -26.5 73.5t-75.5 25.5q-48 0 -74.5 -25.5t-26.5 -73.5v-126q0 -48 26.5 -73.5t74.5 -25.5
q49 0 75.5 25.5zM103 632h314v-78h-314v78z" />
    <glyph glyph-name="oslash" unicode="&#xf8;" horiz-adv-x="521" 
d="M471 298v-126q0 -88 -55 -136t-156 -48q-53 0 -95 14l-32 -62h-57l43 85q-69 48 -69 147v126q0 88 55 136t155 48q49 0 88 -12l30 60h57l-41 -80q77 -48 77 -152zM169 122l137 268q-23 7 -46 7q-48 0 -74.5 -25.5t-26.5 -73.5v-126q0 -30 10 -50zM362 298q0 36 -15 60
l-140 -274q22 -11 53 -11q49 0 75.5 25.5t26.5 73.5v126z" />
    <glyph glyph-name="oslashacute" unicode="&#x1ff;" horiz-adv-x="521" 
d="M471 298v-126q0 -88 -55 -136t-156 -48q-53 0 -95 14l-32 -62h-57l43 85q-69 48 -69 147v126q0 88 55 136t155 48q49 0 88 -12l30 60h57l-41 -80q77 -48 77 -152zM169 122l137 268q-23 7 -46 7q-48 0 -74.5 -25.5t-26.5 -73.5v-126q0 -30 10 -50zM362 298q0 36 -15 60
l-140 -274q22 -11 53 -11q49 0 75.5 25.5t26.5 73.5v126zM290 692h115l-107 -153h-88z" />
    <glyph glyph-name="otilde" unicode="&#xf5;" horiz-adv-x="521" 
d="M105 36q-55 48 -55 136v126q0 88 55 136t155 48q101 0 156 -48t55 -136v-126q0 -88 -55 -136t-156 -48q-100 0 -155 48zM335.5 98.5q26.5 25.5 26.5 73.5v126q0 48 -26.5 73.5t-75.5 25.5q-48 0 -74.5 -25.5t-26.5 -73.5v-126q0 -48 26.5 -73.5t74.5 -25.5
q49 0 75.5 25.5zM122.5 635q27.5 37 79.5 37q20 0 36.5 -6t38.5 -18q32 -17 49 -17q13 0 19.5 11.5t9.5 37.5h72q-5 -55 -31.5 -92.5t-69.5 -37.5q-20 0 -36.5 6t-38.5 18q-32 17 -49 17q-15 0 -23.5 -11.5t-13.5 -37.5h-72q2 56 29.5 93z" />
    <glyph glyph-name="oe" unicode="&#x153;" horiz-adv-x="806" 
d="M105 36q-55 48 -55 136v126q0 88 55 136t155 48q105 0 156 -63q52 61 150 61q97 0 151 -47.5t54 -136.5q0 -41 -8 -64t-29.5 -33t-62.5 -10h-200v-20q0 -49 25.5 -72.5t78.5 -23.5q39 0 65 10.5t53 36.5l67 -61q-60 -71 -185 -71q-115 0 -162 60q-54 -60 -153 -60
q-100 0 -155 48zM335.5 98.5q26.5 25.5 26.5 73.5v126q0 48 -26.5 73.5t-75.5 25.5q-48 0 -74.5 -25.5t-26.5 -73.5v-126q0 -48 26.5 -73.5t74.5 -25.5q49 0 75.5 25.5zM612 264q29 0 39.5 8.5t10.5 32.5q0 43 -25.5 67t-71.5 24q-44 0 -69 -24.5t-25 -65.5v-42h141z" />
    <glyph glyph-name="p" unicode="p" horiz-adv-x="585" 
d="M448 450.5q46 -31.5 69 -84t23 -115.5v-32q0 -63 -23 -115.5t-69 -84t-112 -31.5q-58 0 -92.5 17.5t-57.5 49.5v-274h-109v564q0 24 -9.5 39.5t-32.5 33.5l73 64q31 -16 48 -35.5t23 -45.5q52 81 157 81q66 0 112 -31.5zM431 251q0 63 -33 104.5t-92 41.5q-92 0 -120 -91
v-142q28 -91 120 -91q59 0 92 41.5t33 104.5v32z" />
    <glyph glyph-name="thorn" unicode="&#xfe;" horiz-adv-x="585" 
d="M77 605q0 24 -9 39t-33 34l73 64q44 -23 61 -52.5t17 -82.5v-196q52 71 150 71q64 0 110.5 -30.5t70 -83t23.5 -117.5v-32q0 -65 -24 -117.5t-70.5 -83t-111.5 -30.5q-55 0 -89.5 17t-58.5 50v-274h-109v824zM398 114.5q33 41.5 33 104.5v32q0 63 -33 104.5t-92 41.5
q-92 0 -120 -91v-142q28 -91 120 -91q59 0 92 41.5z" />
    <glyph glyph-name="q" unicode="q" horiz-adv-x="565" 
d="M399 55q-50 -67 -149 -67q-94 0 -149.5 62.5t-55.5 168.5v32q0 65 24 117.5t70.5 83t111.5 30.5q98 0 148 -64v53h109v-688h-109v272zM399 164v142q-27 91 -120 91q-59 0 -92 -41.5t-33 -104.5v-32q0 -63 33 -104.5t92 -41.5q93 0 120 91z" />
    <glyph glyph-name="r" unicode="r" horiz-adv-x="408" 
d="M403 457l-28 -92q-18 12 -36.5 17.5t-42.5 5.5q-78 0 -110 -115v-273h-109v345q0 24 -9 39t-33 34l73 64q35 -18 52.5 -39.5t22.5 -53.5q21 43 56 68t83 25q46 0 81 -25z" />
    <glyph glyph-name="racute" unicode="&#x155;" horiz-adv-x="408" 
d="M403 457l-28 -92q-18 12 -36.5 17.5t-42.5 5.5q-78 0 -110 -115v-273h-109v345q0 24 -9 39t-33 34l73 64q35 -18 52.5 -39.5t22.5 -53.5q21 43 56 68t83 25q46 0 81 -25zM235 692h115l-107 -153h-88z" />
    <glyph glyph-name="rcaron" unicode="&#x159;" horiz-adv-x="408" 
d="M403 457l-28 -92q-18 12 -36.5 17.5t-42.5 5.5q-78 0 -110 -115v-273h-109v345q0 24 -9 39t-33 34l73 64q35 -18 52.5 -39.5t22.5 -53.5q21 43 56 68t83 25q46 0 81 -25zM99.5 627.5q-36.5 44.5 -63.5 67.5h97q19 -16 39 -38.5t32 -42.5q12 20 32 42.5t39 38.5h98
q-28 -23 -64.5 -68t-59.5 -88h-90q-23 44 -59.5 88.5z" />
    <glyph glyph-name="uni0157" unicode="&#x157;" horiz-adv-x="408" 
d="M403 457l-28 -92q-18 12 -36.5 17.5t-42.5 5.5q-78 0 -110 -115v-273h-109v345q0 24 -9 39t-33 34l73 64q35 -18 52.5 -39.5t22.5 -53.5q21 43 56 68t83 25q46 0 81 -25zM183 -80q18 -22 18 -61q0 -50 -24 -90.5t-69 -75.5l-34 32q55 41 63 87q-11 -6 -28 -6
q-23 0 -36 15.5t-13 43.5q0 29 21 53t51 24q33 0 51 -22z" />
    <glyph glyph-name="uni1E5B" unicode="&#x1e5b;" horiz-adv-x="408" 
d="M403 457l-28 -92q-18 12 -36.5 17.5t-42.5 5.5q-78 0 -110 -115v-273h-109v345q0 24 -9 39t-33 34l73 64q35 -18 52.5 -39.5t22.5 -53.5q21 43 56 68t83 25q46 0 81 -25zM87 -164.5q-19 18.5 -19 44.5t19 45t45 19t45 -19t19 -45t-19 -44.5t-45 -18.5t-45 18.5z" />
    <glyph glyph-name="uni1E5D" unicode="&#x1e5d;" horiz-adv-x="408" 
d="M403 457l-28 -92q-18 12 -36.5 17.5t-42.5 5.5q-78 0 -110 -115v-273h-109v345q0 24 -9 39t-33 34l73 64q35 -18 52.5 -39.5t22.5 -53.5q21 43 56 68t83 25q46 0 81 -25zM87 -164.5q-19 18.5 -19 44.5t19 45t45 19t45 -19t19 -45t-19 -44.5t-45 -18.5t-45 18.5zM48 632
h314v-78h-314v78z" />
    <glyph glyph-name="uni1E5F" unicode="&#x1e5f;" horiz-adv-x="408" 
d="M403 457l-28 -92q-18 12 -36.5 17.5t-42.5 5.5q-78 0 -110 -115v-273h-109v345q0 24 -9 39t-33 34l73 64q35 -18 52.5 -39.5t22.5 -53.5q21 43 56 68t83 25q46 0 81 -25zM-25 -75h314v-78h-314v78z" />
    <glyph glyph-name="s" unicode="s" horiz-adv-x="455" 
d="M106.5 8.5q-39.5 20.5 -73.5 65.5l68 58q28 -33 53 -46t65 -13q49 0 72 14t23 43q0 18 -10.5 29.5t-38 20.5t-79.5 18q-140 26 -140 146q0 64 49.5 101t132.5 37q125 0 174 -79l-67 -57q-25 27 -49 39t-58 12q-38 0 -58.5 -15t-20.5 -41q0 -25 23 -38.5t63 -21.5
q63 -14 101 -29.5t60 -45t22 -78.5q0 -140 -199 -140q-73 0 -112.5 20.5z" />
    <glyph glyph-name="sacute" unicode="&#x15b;" horiz-adv-x="455" 
d="M106.5 8.5q-39.5 20.5 -73.5 65.5l68 58q28 -33 53 -46t65 -13q49 0 72 14t23 43q0 18 -10.5 29.5t-38 20.5t-79.5 18q-140 26 -140 146q0 64 49.5 101t132.5 37q125 0 174 -79l-67 -57q-25 27 -49 39t-58 12q-38 0 -58.5 -15t-20.5 -41q0 -25 23 -38.5t63 -21.5
q63 -14 101 -29.5t60 -45t22 -78.5q0 -140 -199 -140q-73 0 -112.5 20.5zM256 692h115l-107 -153h-88z" />
    <glyph glyph-name="scaron" unicode="&#x161;" horiz-adv-x="455" 
d="M106.5 8.5q-39.5 20.5 -73.5 65.5l68 58q28 -33 53 -46t65 -13q49 0 72 14t23 43q0 18 -10.5 29.5t-38 20.5t-79.5 18q-140 26 -140 146q0 64 49.5 101t132.5 37q125 0 174 -79l-67 -57q-25 27 -49 39t-58 12q-38 0 -58.5 -15t-20.5 -41q0 -25 23 -38.5t63 -21.5
q63 -14 101 -29.5t60 -45t22 -78.5q0 -140 -199 -140q-73 0 -112.5 20.5zM120.5 627.5q-36.5 44.5 -63.5 67.5h97q19 -16 39 -38.5t32 -42.5q12 20 32 42.5t39 38.5h98q-28 -23 -64.5 -68t-59.5 -88h-90q-23 44 -59.5 88.5z" />
    <glyph glyph-name="scedilla" unicode="&#x15f;" horiz-adv-x="455" 
d="M267 -10l-8 -29q85 -9 85 -89q0 -47 -33.5 -70.5t-96.5 -23.5q-56 0 -102 23l18 61q36 -18 72 -18q30 0 43.5 6.5t13.5 21.5q0 16 -11.5 25.5t-46.5 9.5q-8 0 -32 -2l20 84q-58 4 -92 24.5t-64 60.5l68 58q28 -33 53 -46t65 -13q49 0 72 14t23 43q0 18 -10.5 29.5
t-38 20.5t-79.5 18q-140 26 -140 146q0 64 49.5 101t132.5 37q125 0 174 -79l-67 -57q-25 27 -49 39t-58 12q-38 0 -58.5 -15t-20.5 -41q0 -25 23 -38.5t63 -21.5q63 -14 101 -29.5t60 -45t22 -78.5q0 -121 -151 -138z" />
    <glyph glyph-name="scircumflex" unicode="&#x15d;" horiz-adv-x="455" 
d="M106.5 8.5q-39.5 20.5 -73.5 65.5l68 58q28 -33 53 -46t65 -13q49 0 72 14t23 43q0 18 -10.5 29.5t-38 20.5t-79.5 18q-140 26 -140 146q0 64 49.5 101t132.5 37q125 0 174 -79l-67 -57q-25 27 -49 39t-58 12q-38 0 -58.5 -15t-20.5 -41q0 -25 23 -38.5t63 -21.5
q63 -14 101 -29.5t60 -45t22 -78.5q0 -140 -199 -140q-73 0 -112.5 20.5zM120.5 606.5q36.5 44.5 59.5 88.5h90q23 -43 59.5 -88t64.5 -68h-98q-20 17 -40 39t-31 43q-11 -21 -31 -43t-40 -39h-97q27 23 63.5 67.5z" />
    <glyph glyph-name="uni0219" unicode="&#x219;" horiz-adv-x="455" 
d="M106.5 8.5q-39.5 20.5 -73.5 65.5l68 58q28 -33 53 -46t65 -13q49 0 72 14t23 43q0 18 -10.5 29.5t-38 20.5t-79.5 18q-140 26 -140 146q0 64 49.5 101t132.5 37q125 0 174 -79l-67 -57q-25 27 -49 39t-58 12q-38 0 -58.5 -15t-20.5 -41q0 -25 23 -38.5t63 -21.5
q63 -14 101 -29.5t60 -45t22 -78.5q0 -140 -199 -140q-73 0 -112.5 20.5zM280 -80q18 -22 18 -61q0 -50 -24 -90.5t-69 -75.5l-34 32q55 41 63 87q-11 -6 -28 -6q-23 0 -36 15.5t-13 43.5q0 29 21 53t51 24q33 0 51 -22z" />
    <glyph glyph-name="uni1E61" unicode="&#x1e61;" horiz-adv-x="455" 
d="M106.5 8.5q-39.5 20.5 -73.5 65.5l68 58q28 -33 53 -46t65 -13q49 0 72 14t23 43q0 18 -10.5 29.5t-38 20.5t-79.5 18q-140 26 -140 146q0 64 49.5 101t132.5 37q125 0 174 -79l-67 -57q-25 27 -49 39t-58 12q-38 0 -58.5 -15t-20.5 -41q0 -25 23 -38.5t63 -21.5
q63 -14 101 -29.5t60 -45t22 -78.5q0 -140 -199 -140q-73 0 -112.5 20.5zM181 552.5q-19 18.5 -19 45.5q0 26 19 44.5t45 18.5t45 -18.5t19 -44.5q0 -27 -19 -45.5t-45 -18.5t-45 18.5z" />
    <glyph glyph-name="uni1E63" unicode="&#x1e63;" horiz-adv-x="455" 
d="M106.5 8.5q-39.5 20.5 -73.5 65.5l68 58q28 -33 53 -46t65 -13q49 0 72 14t23 43q0 18 -10.5 29.5t-38 20.5t-79.5 18q-140 26 -140 146q0 64 49.5 101t132.5 37q125 0 174 -79l-67 -57q-25 27 -49 39t-58 12q-38 0 -58.5 -15t-20.5 -41q0 -25 23 -38.5t63 -21.5
q63 -14 101 -29.5t60 -45t22 -78.5q0 -140 -199 -140q-73 0 -112.5 20.5zM184 -164.5q-19 18.5 -19 44.5t19 45t45 19t45 -19t19 -45t-19 -44.5t-45 -18.5t-45 18.5z" />
    <glyph glyph-name="germandbls" unicode="&#xdf;" horiz-adv-x="634" 
d="M560 332q26 -34 26 -82v-94q0 -84 -52.5 -126t-154.5 -42q-60 0 -108 21v91q46 -22 98 -22q49 0 78.5 22.5t29.5 63.5v86q0 43 -31 65.5t-85 22.5h-68v85h66q50 0 78.5 24.5t28.5 67.5q0 52 -34 81t-96 29q-71 0 -105 -39.5t-34 -121.5v-464h-109v464q0 125 60.5 185
t187.5 60q111 0 175 -49t64 -132q0 -52 -23 -88.5t-67 -55.5q49 -18 75 -52z" />
    <glyph glyph-name="t" unicode="t" horiz-adv-x="350" 
d="M181 385v-222q0 -43 15 -62t49 -19h72v-84h-72q-94 0 -133.5 37.5t-39.5 127.5v392q0 24 -9 39t-33 34l73 64q44 -23 61 -52.5t17 -82.5v-87h136v-85h-136z" />
    <glyph glyph-name="tbar" unicode="&#x167;" horiz-adv-x="372" 
d="M203 385v-89h94v-58h-94v-75q0 -44 15 -62.5t49 -18.5h71v-84h-71q-94 0 -133.5 37.5t-39.5 127.5v75h-72v58h72v259q0 24 -9.5 39t-33.5 34l73 64q44 -23 61.5 -53t17.5 -82v-87h135v-85h-135z" />
    <glyph glyph-name="tcaron" unicode="&#x165;" horiz-adv-x="388" 
d="M181 385v-222q0 -43 15 -62t49 -19h72v-84h-72q-94 0 -133.5 37.5t-39.5 127.5v392q0 24 -9 39t-33 34l73 64q44 -23 61 -52.5t17 -82.5v-87h136v-85h-136zM352 763.5q18 -22.5 18 -61.5q0 -51 -24 -91.5t-69 -76.5l-33 32q55 41 63 89q-10 -5 -28 -5q-23 0 -36.5 15.5
t-13.5 42.5q0 29 21 53.5t52 24.5q32 0 50 -22.5z" />
    <glyph glyph-name="uni0163" unicode="&#x163;" horiz-adv-x="350" 
d="M329 -128q0 -47 -33.5 -70.5t-96.5 -23.5q-56 0 -102 23l18 61q36 -18 72 -18q30 0 43.5 6.5t13.5 21.5q0 16 -11.5 25.5t-46.5 9.5q-8 0 -32 -2l24 99q-57 12 -81.5 49.5t-24.5 109.5v392q0 24 -9 39t-33 34l73 64q44 -23 61 -52.5t17 -82.5v-87h136v-85h-136v-222
q0 -43 15 -62t49 -19h72v-84h-62l-11 -37q85 -9 85 -89z" />
    <glyph glyph-name="uni021B" unicode="&#x21b;" horiz-adv-x="350" 
d="M181 385v-222q0 -43 15 -62t49 -19h72v-84h-72q-94 0 -133.5 37.5t-39.5 127.5v392q0 24 -9 39t-33 34l73 64q44 -23 61 -52.5t17 -82.5v-87h136v-85h-136zM265 -80q18 -22 18 -61q0 -50 -24 -90.5t-69 -75.5l-34 32q55 41 63 87q-11 -6 -28 -6q-23 0 -36 15.5t-13 43.5
q0 29 21 53t51 24q33 0 51 -22z" />
    <glyph glyph-name="uni1E97" unicode="&#x1e97;" horiz-adv-x="350" 
d="M181 385v-222q0 -43 15 -62t49 -19h72v-84h-72q-94 0 -133.5 37.5t-39.5 127.5v392q0 24 -9 39t-33 34l73 64q44 -23 61 -52.5t17 -82.5v-87h136v-85h-136zM-7 763.5q-17 16.5 -17 39.5t17 39.5t40 16.5t39 -16.5t16 -39.5t-16 -39.5t-39 -16.5t-40 16.5zM166 763.5
q-16 16.5 -16 39.5t16 39.5t40 16.5q23 0 40 -16.5t17 -39.5t-17 -39.5t-40 -16.5q-24 0 -40 16.5z" />
    <glyph glyph-name="uni1E6D" unicode="&#x1e6d;" horiz-adv-x="350" 
d="M181 385v-222q0 -43 15 -62t49 -19h72v-84h-72q-94 0 -133.5 37.5t-39.5 127.5v392q0 24 -9 39t-33 34l73 64q44 -23 61 -52.5t17 -82.5v-87h136v-85h-136zM169 -164.5q-19 18.5 -19 44.5t19 45t45 19t45 -19t19 -45t-19 -44.5t-45 -18.5t-45 18.5z" />
    <glyph glyph-name="uni1E6F" unicode="&#x1e6f;" horiz-adv-x="350" 
d="M181 385v-222q0 -43 15 -62t49 -19h72v-84h-72q-94 0 -133.5 37.5t-39.5 127.5v392q0 24 -9 39t-33 34l73 64q44 -23 61 -52.5t17 -82.5v-87h136v-85h-136zM57 -75h314v-78h-314v78z" />
    <glyph glyph-name="u" unicode="u" horiz-adv-x="558" 
d="M489 86.5q9 -15.5 34 -33.5l-73 -63q-33 17 -50 36.5t-24 47.5q-23 -40 -60 -63t-90 -23q-77 0 -119 42.5t-42 121.5v318h109v-309q0 -41 22 -64.5t62 -23.5q42 0 70 29t43 77v291h109v-344q0 -24 9 -39.5z" />
    <glyph glyph-name="uacute" unicode="&#xfa;" horiz-adv-x="558" 
d="M489 86.5q9 -15.5 34 -33.5l-73 -63q-33 17 -50 36.5t-24 47.5q-23 -40 -60 -63t-90 -23q-77 0 -119 42.5t-42 121.5v318h109v-309q0 -41 22 -64.5t62 -23.5q42 0 70 29t43 77v291h109v-344q0 -24 9 -39.5zM302 692h115l-107 -153h-88z" />
    <glyph glyph-name="ubreve" unicode="&#x16d;" horiz-adv-x="558" 
d="M489 86.5q9 -15.5 34 -33.5l-73 -63q-33 17 -50 36.5t-24 47.5q-23 -40 -60 -63t-90 -23q-77 0 -119 42.5t-42 121.5v318h109v-309q0 -41 22 -64.5t62 -23.5q42 0 70 29t43 77v291h109v-344q0 -24 9 -39.5zM155.5 574q-43.5 43 -43.5 116h78q3 -38 24 -60t58 -22t58.5 22
t23.5 60h78q0 -73 -43.5 -116t-116.5 -43t-116.5 43z" />
    <glyph glyph-name="uni01D4" unicode="&#x1d4;" horiz-adv-x="558" 
d="M489 86.5q9 -15.5 34 -33.5l-73 -63q-33 17 -50 36.5t-24 47.5q-23 -40 -60 -63t-90 -23q-77 0 -119 42.5t-42 121.5v318h109v-309q0 -41 22 -64.5t62 -23.5q42 0 70 29t43 77v291h109v-344q0 -24 9 -39.5zM166.5 627.5q-36.5 44.5 -63.5 67.5h97q19 -16 39 -38.5
t32 -42.5q12 20 32 42.5t39 38.5h98q-28 -23 -64.5 -68t-59.5 -88h-90q-23 44 -59.5 88.5z" />
    <glyph glyph-name="ucircumflex" unicode="&#xfb;" horiz-adv-x="558" 
d="M489 86.5q9 -15.5 34 -33.5l-73 -63q-33 17 -50 36.5t-24 47.5q-23 -40 -60 -63t-90 -23q-77 0 -119 42.5t-42 121.5v318h109v-309q0 -41 22 -64.5t62 -23.5q42 0 70 29t43 77v291h109v-344q0 -24 9 -39.5zM166.5 606.5q36.5 44.5 59.5 88.5h90q23 -43 59.5 -88t64.5 -68
h-98q-20 17 -40 39t-31 43q-11 -21 -31 -43t-40 -39h-97q27 23 63.5 67.5z" />
    <glyph glyph-name="udieresis" unicode="&#xfc;" horiz-adv-x="558" 
d="M489 86.5q9 -15.5 34 -33.5l-73 -63q-33 17 -50 36.5t-24 47.5q-23 -40 -60 -63t-90 -23q-77 0 -119 42.5t-42 121.5v318h109v-309q0 -41 22 -64.5t62 -23.5q42 0 70 29t43 77v291h109v-344q0 -24 9 -39.5zM146 550.5q-17 16.5 -17 39.5t17 39.5t40 16.5t39 -16.5
t16 -39.5t-16 -39.5t-39 -16.5t-40 16.5zM319 550.5q-16 16.5 -16 39.5t16 39.5t40 16.5q23 0 40 -16.5t17 -39.5t-17 -39.5t-40 -16.5q-24 0 -40 16.5z" />
    <glyph glyph-name="uni01D8" unicode="&#x1d8;" horiz-adv-x="558" 
d="M489 86.5q9 -15.5 34 -33.5l-73 -63q-33 17 -50 36.5t-24 47.5q-23 -40 -60 -63t-90 -23q-77 0 -119 42.5t-42 121.5v318h109v-309q0 -41 22 -64.5t62 -23.5q42 0 70 29t43 77v291h109v-344q0 -24 9 -39.5zM288 815h109l-90 -121h-82zM146 550.5q-17 16.5 -17 39.5
t17 39.5t40 16.5t39 -16.5t16 -39.5t-16 -39.5t-39 -16.5t-40 16.5zM319 550.5q-16 16.5 -16 39.5t16 39.5t40 16.5q23 0 40 -16.5t17 -39.5t-17 -39.5t-40 -16.5q-24 0 -40 16.5z" />
    <glyph glyph-name="uni01DA" unicode="&#x1da;" horiz-adv-x="558" 
d="M489 86.5q9 -15.5 34 -33.5l-73 -63q-33 17 -50 36.5t-24 47.5q-23 -40 -60 -63t-90 -23q-77 0 -119 42.5t-42 121.5v318h109v-309q0 -41 22 -64.5t62 -23.5q42 0 70 29t43 77v291h109v-344q0 -24 9 -39.5zM174.5 763.5q-34.5 36.5 -60.5 56.5h92q45 -35 66 -67
q11 17 29.5 35.5t36.5 31.5h92q-26 -20 -60.5 -56.5t-55.5 -71.5h-84q-21 35 -55.5 71.5zM146 550.5q-17 16.5 -17 39.5t17 39.5t40 16.5t39 -16.5t16 -39.5t-16 -39.5t-39 -16.5t-40 16.5zM319 550.5q-16 16.5 -16 39.5t16 39.5t40 16.5q23 0 40 -16.5t17 -39.5t-17 -39.5
t-40 -16.5q-24 0 -40 16.5z" />
    <glyph glyph-name="uni01DC" unicode="&#x1dc;" horiz-adv-x="558" 
d="M489 86.5q9 -15.5 34 -33.5l-73 -63q-33 17 -50 36.5t-24 47.5q-23 -40 -60 -63t-90 -23q-77 0 -119 42.5t-42 121.5v318h109v-309q0 -41 22 -64.5t62 -23.5q42 0 70 29t43 77v291h109v-344q0 -24 9 -39.5zM141 816h108l63 -121h-81zM146 550.5q-17 16.5 -17 39.5
t17 39.5t40 16.5t39 -16.5t16 -39.5t-16 -39.5t-39 -16.5t-40 16.5zM319 550.5q-16 16.5 -16 39.5t16 39.5t40 16.5q23 0 40 -16.5t17 -39.5t-17 -39.5t-40 -16.5q-24 0 -40 16.5z" />
    <glyph glyph-name="uni01D6" unicode="&#x1d6;" horiz-adv-x="558" 
d="M489 86.5q9 -15.5 34 -33.5l-73 -63q-33 17 -50 36.5t-24 47.5q-23 -40 -60 -63t-90 -23q-77 0 -119 42.5t-42 121.5v318h109v-309q0 -41 22 -64.5t62 -23.5q42 0 70 29t43 77v291h109v-344q0 -24 9 -39.5zM114 776h314v-78h-314v78zM146 550.5q-17 16.5 -17 39.5
t17 39.5t40 16.5t39 -16.5t16 -39.5t-16 -39.5t-39 -16.5t-40 16.5zM319 550.5q-16 16.5 -16 39.5t16 39.5t40 16.5q23 0 40 -16.5t17 -39.5t-17 -39.5t-40 -16.5q-24 0 -40 16.5z" />
    <glyph glyph-name="uni1EE5" unicode="&#x1ee5;" horiz-adv-x="558" 
d="M489 86.5q9 -15.5 34 -33.5l-73 -63q-33 17 -50 36.5t-24 47.5q-23 -40 -60 -63t-90 -23q-77 0 -119 42.5t-42 121.5v318h109v-309q0 -41 22 -64.5t62 -23.5q42 0 70 29t43 77v291h109v-344q0 -24 9 -39.5zM214 -164.5q-19 18.5 -19 44.5t19 45t45 19t45 -19t19 -45
t-19 -44.5t-45 -18.5t-45 18.5z" />
    <glyph glyph-name="ugrave" unicode="&#xf9;" horiz-adv-x="558" 
d="M489 86.5q9 -15.5 34 -33.5l-73 -63q-33 17 -50 36.5t-24 47.5q-23 -40 -60 -63t-90 -23q-77 0 -119 42.5t-42 121.5v318h109v-309q0 -41 22 -64.5t62 -23.5q42 0 70 29t43 77v291h109v-344q0 -24 9 -39.5zM122 692h115l80 -153h-88z" />
    <glyph glyph-name="uni1EE7" unicode="&#x1ee7;" horiz-adv-x="558" 
d="M489 86.5q9 -15.5 34 -33.5l-73 -63q-33 17 -50 36.5t-24 47.5q-23 -40 -60 -63t-90 -23q-77 0 -119 42.5t-42 121.5v318h109v-309q0 -41 22 -64.5t62 -23.5q42 0 70 29t43 77v291h109v-344q0 -24 9 -39.5zM306 577v-38h-79v76q45 4 65 14.5t20 27.5q0 19 -12 27t-35 8
q-26 0 -58 -13l-19 60q39 18 89 18q56 0 87.5 -23t31.5 -68q0 -70 -90 -89z" />
    <glyph glyph-name="uhorn" unicode="&#x1b0;" horiz-adv-x="606" 
d="M603 381q-38 -47 -123 -52v-203q0 -24 9 -39.5t34 -33.5l-73 -63q-33 17 -50 36.5t-24 47.5q-23 -40 -60 -63t-90 -23q-77 0 -119 42.5t-42 121.5v318h109v-309q0 -41 22 -64.5t62 -23.5q42 0 70 29t43 77v291h109v-84q38 8 52 41.5t15 100.5h98q-4 -100 -42 -147z" />
    <glyph glyph-name="uni1EE9" unicode="&#x1ee9;" horiz-adv-x="606" 
d="M603 381q-38 -47 -123 -52v-203q0 -24 9 -39.5t34 -33.5l-73 -63q-33 17 -50 36.5t-24 47.5q-23 -40 -60 -63t-90 -23q-77 0 -119 42.5t-42 121.5v318h109v-309q0 -41 22 -64.5t62 -23.5q42 0 70 29t43 77v291h109v-84q38 8 52 41.5t15 100.5h98q-4 -100 -42 -147z
M302 692h115l-107 -153h-88z" />
    <glyph glyph-name="uni1EF1" unicode="&#x1ef1;" horiz-adv-x="606" 
d="M603 381q-38 -47 -123 -52v-203q0 -24 9 -39.5t34 -33.5l-73 -63q-33 17 -50 36.5t-24 47.5q-23 -40 -60 -63t-90 -23q-77 0 -119 42.5t-42 121.5v318h109v-309q0 -41 22 -64.5t62 -23.5q42 0 70 29t43 77v291h109v-84q38 8 52 41.5t15 100.5h98q-4 -100 -42 -147z
M214 -164.5q-19 18.5 -19 44.5t19 45t45 19t45 -19t19 -45t-19 -44.5t-45 -18.5t-45 18.5z" />
    <glyph glyph-name="uni1EEB" unicode="&#x1eeb;" horiz-adv-x="606" 
d="M603 381q-38 -47 -123 -52v-203q0 -24 9 -39.5t34 -33.5l-73 -63q-33 17 -50 36.5t-24 47.5q-23 -40 -60 -63t-90 -23q-77 0 -119 42.5t-42 121.5v318h109v-309q0 -41 22 -64.5t62 -23.5q42 0 70 29t43 77v291h109v-84q38 8 52 41.5t15 100.5h98q-4 -100 -42 -147z
M122 692h115l80 -153h-88z" />
    <glyph glyph-name="uni1EED" unicode="&#x1eed;" horiz-adv-x="606" 
d="M603 381q-38 -47 -123 -52v-203q0 -24 9 -39.5t34 -33.5l-73 -63q-33 17 -50 36.5t-24 47.5q-23 -40 -60 -63t-90 -23q-77 0 -119 42.5t-42 121.5v318h109v-309q0 -41 22 -64.5t62 -23.5q42 0 70 29t43 77v291h109v-84q38 8 52 41.5t15 100.5h98q-4 -100 -42 -147z
M306 577v-38h-79v76q45 4 65 14.5t20 27.5q0 19 -12 27t-35 8q-26 0 -58 -13l-19 60q39 18 89 18q56 0 87.5 -23t31.5 -68q0 -70 -90 -89z" />
    <glyph glyph-name="uni1EEF" unicode="&#x1eef;" horiz-adv-x="606" 
d="M603 381q-38 -47 -123 -52v-203q0 -24 9 -39.5t34 -33.5l-73 -63q-33 17 -50 36.5t-24 47.5q-23 -40 -60 -63t-90 -23q-77 0 -119 42.5t-42 121.5v318h109v-309q0 -41 22 -64.5t62 -23.5q42 0 70 29t43 77v291h109v-84q38 8 52 41.5t15 100.5h98q-4 -100 -42 -147z
M134.5 635q27.5 37 79.5 37q20 0 36.5 -6t38.5 -18q32 -17 49 -17q13 0 19.5 11.5t9.5 37.5h72q-5 -55 -31.5 -92.5t-69.5 -37.5q-20 0 -36.5 6t-38.5 18q-32 17 -49 17q-15 0 -23.5 -11.5t-13.5 -37.5h-72q2 56 29.5 93z" />
    <glyph glyph-name="uhungarumlaut" unicode="&#x171;" horiz-adv-x="558" 
d="M489 86.5q9 -15.5 34 -33.5l-73 -63q-33 17 -50 36.5t-24 47.5q-23 -40 -60 -63t-90 -23q-77 0 -119 42.5t-42 121.5v318h109v-309q0 -41 22 -64.5t62 -23.5q42 0 70 29t43 77v291h109v-344q0 -24 9 -39.5zM208 692h100l-81 -153h-81zM376 692h100l-82 -153h-80z" />
    <glyph glyph-name="umacron" unicode="&#x16b;" horiz-adv-x="558" 
d="M489 86.5q9 -15.5 34 -33.5l-73 -63q-33 17 -50 36.5t-24 47.5q-23 -40 -60 -63t-90 -23q-77 0 -119 42.5t-42 121.5v318h109v-309q0 -41 22 -64.5t62 -23.5q42 0 70 29t43 77v291h109v-344q0 -24 9 -39.5zM115 632h314v-78h-314v78z" />
    <glyph glyph-name="uogonek" unicode="&#x173;" horiz-adv-x="558" 
d="M544 -199q-40 -24 -83 -24q-72 0 -103 31.5t-31 71.5q0 39 19.5 73t59.5 66q-23 23 -30 55q-23 -40 -60 -63t-90 -23q-77 0 -119 42.5t-42 121.5v318h109v-309q0 -41 22 -64.5t62 -23.5q42 0 70 29t43 77v291h109v-344q0 -24 9 -39.5t34 -33.5l-59 -50q-45 -58 -45 -107
q0 -24 14.5 -35.5t37.5 -11.5t54 13z" />
    <glyph glyph-name="uring" unicode="&#x16f;" horiz-adv-x="558" 
d="M489 86.5q9 -15.5 34 -33.5l-73 -63q-33 17 -50 36.5t-24 47.5q-23 -40 -60 -63t-90 -23q-77 0 -119 42.5t-42 121.5v318h109v-309q0 -41 22 -64.5t62 -23.5q42 0 70 29t43 77v291h109v-344q0 -24 9 -39.5zM193.5 554q-29.5 27 -29.5 72q0 46 29.5 73t78.5 27t78.5 -27
t29.5 -73q0 -45 -29.5 -72t-78.5 -27t-78.5 27zM305.5 593.5q12.5 12.5 12.5 32.5q0 21 -12.5 33.5t-33.5 12.5t-33.5 -12.5t-12.5 -33.5q0 -20 12.5 -32.5t33.5 -12.5t33.5 12.5z" />
    <glyph glyph-name="utilde" unicode="&#x169;" horiz-adv-x="558" 
d="M489 86.5q9 -15.5 34 -33.5l-73 -63q-33 17 -50 36.5t-24 47.5q-23 -40 -60 -63t-90 -23q-77 0 -119 42.5t-42 121.5v318h109v-309q0 -41 22 -64.5t62 -23.5q42 0 70 29t43 77v291h109v-344q0 -24 9 -39.5zM134.5 635q27.5 37 79.5 37q20 0 36.5 -6t38.5 -18
q32 -17 49 -17q13 0 19.5 11.5t9.5 37.5h72q-5 -55 -31.5 -92.5t-69.5 -37.5q-20 0 -36.5 6t-38.5 18q-32 17 -49 17q-15 0 -23.5 -11.5t-13.5 -37.5h-72q2 56 29.5 93z" />
    <glyph glyph-name="v" unicode="v" horiz-adv-x="492" 
d="M172 12.5q-28 24.5 -45 81.5l-117 376h106l110 -366q6 -19 9.5 -25t11.5 -6q7 0 11.5 6.5t9.5 24.5l109 366h105l-115 -376q-17 -57 -44.5 -81.5t-75.5 -24.5q-47 0 -75 24.5z" />
    <glyph glyph-name="w" unicode="w" horiz-adv-x="659" 
d="M18 470h99l81 -373q15 7 25 35l107 303l108 -303q11 -27 24 -34l80 372h99l-107 -470h-43q-50 0 -75 20t-42 73l-44 134l-45 -134q-17 -55 -41.5 -74t-74.5 -19h-43z" />
    <glyph glyph-name="wacute" unicode="&#x1e83;" horiz-adv-x="659" 
d="M18 470h99l81 -373q15 7 25 35l107 303l108 -303q11 -27 24 -34l80 372h99l-107 -470h-43q-50 0 -75 20t-42 73l-44 134l-45 -134q-17 -55 -41.5 -74t-74.5 -19h-43zM360 692h115l-107 -153h-88z" />
    <glyph glyph-name="wcircumflex" unicode="&#x175;" horiz-adv-x="659" 
d="M18 470h99l81 -373q15 7 25 35l107 303l108 -303q11 -27 24 -34l80 372h99l-107 -470h-43q-50 0 -75 20t-42 73l-44 134l-45 -134q-17 -55 -41.5 -74t-74.5 -19h-43zM224.5 606.5q36.5 44.5 59.5 88.5h90q23 -43 59.5 -88t64.5 -68h-98q-20 17 -40 39t-31 43
q-11 -21 -31 -43t-40 -39h-97q27 23 63.5 67.5z" />
    <glyph glyph-name="wdieresis" unicode="&#x1e85;" horiz-adv-x="659" 
d="M18 470h99l81 -373q15 7 25 35l107 303l108 -303q11 -27 24 -34l80 372h99l-107 -470h-43q-50 0 -75 20t-42 73l-44 134l-45 -134q-17 -55 -41.5 -74t-74.5 -19h-43zM204 550.5q-17 16.5 -17 39.5t17 39.5t40 16.5t39 -16.5t16 -39.5t-16 -39.5t-39 -16.5t-40 16.5z
M377 550.5q-16 16.5 -16 39.5t16 39.5t40 16.5q23 0 40 -16.5t17 -39.5t-17 -39.5t-40 -16.5q-24 0 -40 16.5z" />
    <glyph glyph-name="wgrave" unicode="&#x1e81;" horiz-adv-x="659" 
d="M18 470h99l81 -373q15 7 25 35l107 303l108 -303q11 -27 24 -34l80 372h99l-107 -470h-43q-50 0 -75 20t-42 73l-44 134l-45 -134q-17 -55 -41.5 -74t-74.5 -19h-43zM180 692h115l80 -153h-88z" />
    <glyph glyph-name="x" unicode="x" horiz-adv-x="452" 
d="M332 0l-108 162l-103 -162h-111l157 246l-150 224h110l103 -154l99 154h110l-152 -239l155 -231h-110z" />
    <glyph glyph-name="y" unicode="y" horiz-adv-x="551" 
d="M494 470v-520q0 -93 -50.5 -136t-159.5 -43h-129v85h129q52 0 76.5 22.5t24.5 71.5v119q-47 -79 -149 -79q-78 0 -121 42.5t-43 120.5v192q0 24 -9 39t-33 33l73 64q44 -23 61 -52t17 -82v-184q0 -41 22.5 -65t62.5 -24q50 0 80 34.5t39 86.5v275h109z" />
    <glyph glyph-name="yacute" unicode="&#xfd;" horiz-adv-x="551" 
d="M494 470v-520q0 -93 -50.5 -136t-159.5 -43h-129v85h129q52 0 76.5 22.5t24.5 71.5v119q-47 -79 -149 -79q-78 0 -121 42.5t-43 120.5v192q0 24 -9 39t-33 33l73 64q44 -23 61 -52t17 -82v-184q0 -41 22.5 -65t62.5 -24q50 0 80 34.5t39 86.5v275h109zM308 692h115
l-107 -153h-88z" />
    <glyph glyph-name="ycircumflex" unicode="&#x177;" horiz-adv-x="551" 
d="M494 470v-520q0 -93 -50.5 -136t-159.5 -43h-129v85h129q52 0 76.5 22.5t24.5 71.5v119q-47 -79 -149 -79q-78 0 -121 42.5t-43 120.5v192q0 24 -9 39t-33 33l73 64q44 -23 61 -52t17 -82v-184q0 -41 22.5 -65t62.5 -24q50 0 80 34.5t39 86.5v275h109zM172.5 606.5
q36.5 44.5 59.5 88.5h90q23 -43 59.5 -88t64.5 -68h-98q-20 17 -40 39t-31 43q-11 -21 -31 -43t-40 -39h-97q27 23 63.5 67.5z" />
    <glyph glyph-name="ydieresis" unicode="&#xff;" horiz-adv-x="551" 
d="M494 470v-520q0 -93 -50.5 -136t-159.5 -43h-129v85h129q52 0 76.5 22.5t24.5 71.5v119q-47 -79 -149 -79q-78 0 -121 42.5t-43 120.5v192q0 24 -9 39t-33 33l73 64q44 -23 61 -52t17 -82v-184q0 -41 22.5 -65t62.5 -24q50 0 80 34.5t39 86.5v275h109zM152 550.5
q-17 16.5 -17 39.5t17 39.5t40 16.5t39 -16.5t16 -39.5t-16 -39.5t-39 -16.5t-40 16.5zM325 550.5q-16 16.5 -16 39.5t16 39.5t40 16.5q23 0 40 -16.5t17 -39.5t-17 -39.5t-40 -16.5q-24 0 -40 16.5z" />
    <glyph glyph-name="uni1E8F" unicode="&#x1e8f;" horiz-adv-x="551" 
d="M494 470v-520q0 -93 -50.5 -136t-159.5 -43h-129v85h129q52 0 76.5 22.5t24.5 71.5v119q-47 -79 -149 -79q-78 0 -121 42.5t-43 120.5v192q0 24 -9 39t-33 33l73 64q44 -23 61 -52t17 -82v-184q0 -41 22.5 -65t62.5 -24q50 0 80 34.5t39 86.5v275h109zM233 552.5
q-19 18.5 -19 45.5q0 26 19 44.5t45 18.5t45 -18.5t19 -44.5q0 -27 -19 -45.5t-45 -18.5t-45 18.5z" />
    <glyph glyph-name="uni1EF5" unicode="&#x1ef5;" horiz-adv-x="551" 
d="M494 470v-520q0 -93 -50.5 -136t-159.5 -43h-129v85h129q52 0 76.5 22.5t24.5 71.5v119q-47 -79 -149 -79q-78 0 -121 42.5t-43 120.5v192q0 24 -9 39t-33 33l73 64q44 -23 61 -52t17 -82v-184q0 -41 22.5 -65t62.5 -24q50 0 80 34.5t39 86.5v275h109zM236 -396.5
q-19 18.5 -19 44.5t19 45t45 19t45 -19t19 -45t-19 -44.5t-45 -18.5t-45 18.5z" />
    <glyph glyph-name="ygrave" unicode="&#x1ef3;" horiz-adv-x="551" 
d="M494 470v-520q0 -93 -50.5 -136t-159.5 -43h-129v85h129q52 0 76.5 22.5t24.5 71.5v119q-47 -79 -149 -79q-78 0 -121 42.5t-43 120.5v192q0 24 -9 39t-33 33l73 64q44 -23 61 -52t17 -82v-184q0 -41 22.5 -65t62.5 -24q50 0 80 34.5t39 86.5v275h109zM128 692h115
l80 -153h-88z" />
    <glyph glyph-name="uni1EF7" unicode="&#x1ef7;" horiz-adv-x="551" 
d="M494 470v-520q0 -93 -50.5 -136t-159.5 -43h-129v85h129q52 0 76.5 22.5t24.5 71.5v119q-47 -79 -149 -79q-78 0 -121 42.5t-43 120.5v192q0 24 -9 39t-33 33l73 64q44 -23 61 -52t17 -82v-184q0 -41 22.5 -65t62.5 -24q50 0 80 34.5t39 86.5v275h109zM312 577v-38h-79
v76q45 4 65 14.5t20 27.5q0 19 -12 27t-35 8q-26 0 -58 -13l-19 60q39 18 89 18q56 0 87.5 -23t31.5 -68q0 -70 -90 -89z" />
    <glyph glyph-name="uni1EF9" unicode="&#x1ef9;" horiz-adv-x="551" 
d="M494 470v-520q0 -93 -50.5 -136t-159.5 -43h-129v85h129q52 0 76.5 22.5t24.5 71.5v119q-47 -79 -149 -79q-78 0 -121 42.5t-43 120.5v192q0 24 -9 39t-33 33l73 64q44 -23 61 -52t17 -82v-184q0 -41 22.5 -65t62.5 -24q50 0 80 34.5t39 86.5v275h109zM140.5 635
q27.5 37 79.5 37q20 0 36.5 -6t38.5 -18q32 -17 49 -17q13 0 19.5 11.5t9.5 37.5h72q-5 -55 -31.5 -92.5t-69.5 -37.5q-20 0 -36.5 6t-38.5 18q-32 17 -49 17q-15 0 -23.5 -11.5t-13.5 -37.5h-72q2 56 29.5 93z" />
    <glyph glyph-name="z" unicode="z" horiz-adv-x="458" 
d="M433 84v-84h-301q-50 0 -76 18.5t-26 59.5v45l266 263h-256v84h381v-82l-292 -288q7 -16 30 -16h274z" />
    <glyph glyph-name="zacute" unicode="&#x17a;" horiz-adv-x="458" 
d="M433 84v-84h-301q-50 0 -76 18.5t-26 59.5v45l266 263h-256v84h381v-82l-292 -288q7 -16 30 -16h274zM264 692h115l-107 -153h-88z" />
    <glyph glyph-name="zcaron" unicode="&#x17e;" horiz-adv-x="458" 
d="M433 84v-84h-301q-50 0 -76 18.5t-26 59.5v45l266 263h-256v84h381v-82l-292 -288q7 -16 30 -16h274zM128.5 627.5q-36.5 44.5 -63.5 67.5h97q19 -16 39 -38.5t32 -42.5q12 20 32 42.5t39 38.5h98q-28 -23 -64.5 -68t-59.5 -88h-90q-23 44 -59.5 88.5z" />
    <glyph glyph-name="zdotaccent" unicode="&#x17c;" horiz-adv-x="458" 
d="M433 84v-84h-301q-50 0 -76 18.5t-26 59.5v45l266 263h-256v84h381v-82l-292 -288q7 -16 30 -16h274zM189 552.5q-19 18.5 -19 45.5q0 26 19 44.5t45 18.5t45 -18.5t19 -44.5q0 -27 -19 -45.5t-45 -18.5t-45 18.5z" />
    <glyph glyph-name="uni1E93" unicode="&#x1e93;" horiz-adv-x="458" 
d="M433 84v-84h-301q-50 0 -76 18.5t-26 59.5v45l266 263h-256v84h381v-82l-292 -288q7 -16 30 -16h274zM189 -164.5q-19 18.5 -19 44.5t19 45t45 19t45 -19t19 -45t-19 -44.5t-45 -18.5t-45 18.5z" />
    <glyph glyph-name="ordfeminine" unicode="&#xaa;" horiz-adv-x="425" 
d="M372 400.5q7 -11.5 26 -26.5l-57 -49q-42 21 -54 55q-19 -25 -49 -40t-72 -15q-56 0 -88.5 27.5t-32.5 79.5q0 60 40.5 84.5t103.5 31.5l45 5q23 2 33.5 7t12.5 15q0 29 -16.5 49t-59.5 20q-27 0 -47.5 -9.5t-39.5 -31.5l-58 41q21 29 55.5 44.5t89.5 15.5q81 0 121 -33
t40 -97v-144q0 -18 7 -29.5zM255 409q25 22 25 56v40q-14 -7 -50 -10l-35 -3q-68 -6 -68 -56q0 -49 59 -49q44 0 69 22z" />
    <glyph glyph-name="ordmasculine" unicode="&#xba;" horiz-adv-x="422" 
d="M92 361.5q-42 36.5 -42 104.5v97q0 68 42 104.5t120 36.5q77 0 118.5 -36.5t41.5 -104.5v-97q0 -68 -41.5 -104.5t-118.5 -36.5q-78 0 -120 36.5zM268.5 409.5q19.5 19.5 19.5 56.5v97q0 37 -19.5 56t-56.5 19q-38 0 -57.5 -19t-19.5 -56v-97q0 -37 20 -56.5t57 -19.5
t56.5 19.5z" />
    <glyph glyph-name="uni207F" unicode="&#x207f;" horiz-adv-x="494" 
d="M393.5 668.5q35.5 -37.5 35.5 -103.5v-281h-94v271q0 35 -18 55.5t-50 20.5q-37 0 -62 -24t-38 -64v-259h-95v300q0 23 -8 36t-29 28l64 58q27 -15 42 -32t21 -41q43 73 131 73q65 0 100.5 -37.5z" />
    <glyph glyph-name="uni0394" unicode="&#x394;" horiz-adv-x="677" 
d="M657 0h-637l261 700h115zM169 94h339l-170 476z" />
    <glyph glyph-name="uni0394" unicode="&#x3b4;" horiz-adv-x="677" 
d="M657 0h-637l261 700h115zM169 94h339l-170 476z" />
    <glyph glyph-name="uni03A9" unicode="&#x3a9;" horiz-adv-x="717" 
d="M670 93v-93h-262v102q60 12 96 51.5t36 102.5v195q0 79 -48 123.5t-134 44.5t-133.5 -44.5t-47.5 -123.5v-195q0 -64 35.5 -103t95.5 -51v-102h-261v93h110q-98 62 -98 202v143q0 274 299 274q300 0 300 -274v-143q0 -140 -99 -202h111z" />
    <glyph glyph-name="uni03A9" unicode="&#x3c9;" horiz-adv-x="717" 
d="M670 93v-93h-262v102q60 12 96 51.5t36 102.5v195q0 79 -48 123.5t-134 44.5t-133.5 -44.5t-47.5 -123.5v-195q0 -64 35.5 -103t95.5 -51v-102h-261v93h110q-98 62 -98 202v143q0 274 299 274q300 0 300 -274v-143q0 -140 -99 -202h111z" />
    <glyph glyph-name="uni03BC" unicode="&#x3bc;" horiz-adv-x="570" 
d="M501 87q9 -15 34 -33l-73 -64q-32 17 -49 35.5t-24 45.5q-20 -38 -51.5 -60.5t-75.5 -22.5q-42 0 -76 29v-249h-109v702h109v-307q0 -41 22.5 -65t61.5 -24q42 0 70 29t43 76v293h109v-345q0 -25 9 -40z" />
    <glyph glyph-name="pi" unicode="&#x3c0;" horiz-adv-x="661" 
d="M504 381v-239q0 -39 16 -52.5t63 -13.5l-23 -88q-65 0 -100.5 13.5t-50 46t-14.5 92.5v241h-170v-381h-109v381h-98v89h598v-89h-112z" />
    <glyph glyph-name="uni0E01" unicode="&#xe01;" horiz-adv-x="620" 
d="M66 216q0 58 25 98t73 60v4l-116 104v86h253q124 0 185 -62.5t61 -189.5v-316h-107v316q0 167 -140 167l-162 -2l105 -91v-51q-36 -15 -53 -45t-17 -78v-216h-107v216z" />
    <glyph glyph-name="uni0E02" unicode="&#xe02;" horiz-adv-x="512" 
d="M437 560v-409q0 -161 -182 -161q-91 0 -136 41t-45 124q0 44 10.5 76.5t41.5 87.5l6 11q-4 -1 -13 -1q-40 0 -65.5 28.5t-25.5 74.5q0 59 34 97.5t85 38.5q49 0 74.5 -29.5t25.5 -87.5q0 -37 -8.5 -69.5t-27.5 -74.5q-19 -41 -25 -72t-6 -78q0 -40 18.5 -59t56.5 -19
q37 0 56.5 18.5t19.5 53.5v409h106zM97.5 397q8.5 -13 22.5 -13q22 0 36.5 24t14.5 58q0 20 -8.5 33t-22.5 13q-22 0 -36.5 -22.5t-14.5 -58.5q0 -21 8.5 -34z" />
    <glyph glyph-name="uni0E03" unicode="&#xe03;" horiz-adv-x="561" 
d="M486 560v-415q0 -74 -48 -114.5t-137 -40.5q-88 0 -135 40.5t-47 114.5q0 49 15 85t52 85q28 38 40.5 61t12.5 42v15q0 16 -9 32t-24 28q3 -12 3 -24q0 -55 -30.5 -91.5t-76.5 -36.5q-39 0 -63 26.5t-24 71.5q0 54 34.5 91.5t85.5 37.5q35 0 63.5 -15t52.5 -48v55h36
q22 -77 22 -127q0 -45 -9 -75t-35 -73q-24 -41 -32 -68.5t-8 -70.5q0 -36 18 -53.5t58 -17.5q38 0 58 18t20 52v415h107zM139.5 414.5q14.5 22.5 14.5 55.5q0 20 -8.5 33t-22.5 13q-21 0 -36 -22.5t-15 -54.5q0 -21 8.5 -34t22.5 -13q22 0 36.5 22.5z" />
    <glyph glyph-name="uni0E04" unicode="&#xe04;" horiz-adv-x="657" 
d="M513 517q68 -51 68 -139v-378h-104v378q0 49 -39.5 77t-109.5 28t-109.5 -28t-39.5 -77v-108q32 33 72 52t85 19q46 0 73 -19.5t27 -53.5q0 -39 -36 -63.5t-90 -24.5q-35 0 -60.5 13.5t-33.5 37.5q-20 -21 -28.5 -50t-8.5 -75v-106h-104v378q0 88 68 139t185 51t185 -51z
M281 285.5q-24 -13.5 -24 -32.5q0 -14 14.5 -22.5t38.5 -8.5q35 0 57 13.5t22 32.5q0 14 -14.5 22.5t-38.5 8.5q-31 0 -55 -13.5z" />
    <glyph glyph-name="uni0E05" unicode="&#xe05;" horiz-adv-x="663" 
d="M537.5 512q49.5 -43 49.5 -103v-409h-104v394q0 36 -17.5 64t-46.5 40l-89 -81l-86 81q-31 -11 -48 -38.5t-17 -65.5v-124q32 33 72 52t84 19q47 0 74 -19.5t27 -53.5q0 -39 -36 -63.5t-90 -24.5q-35 0 -60.5 13.5t-33.5 37.5q-20 -21 -28.5 -50t-8.5 -75v-106h-104v409
q0 61 49.5 104t134.5 55l71 -76l73 76q85 -13 134.5 -56zM281.5 285.5q-24.5 -13.5 -24.5 -32.5q0 -14 14.5 -22.5t38.5 -8.5q35 0 57 13.5t22 32.5q0 14 -14.5 22.5t-38.5 8.5q-30 0 -54.5 -13.5z" />
    <glyph glyph-name="uni0E06" unicode="&#xe06;" horiz-adv-x="658" 
d="M583 560v-402q0 -168 -159 -168q-51 0 -95.5 22t-76.5 62q-8 -84 -90 -84q-34 0 -61 22t-41.5 56.5t-14.5 72.5q0 52 25 80.5t68 28.5q12 0 22 -3q3 23 16.5 42.5t40.5 47.5q44 44 44 88v8q0 29 -23 54q1 -6 1 -17q0 -56 -31 -92.5t-76 -36.5q-39 0 -63 26t-24 71
q0 55 34.5 92.5t85.5 37.5q68 0 116 -64v56h36q11 -38 16.5 -64t5.5 -52q0 -39 -9.5 -67.5t-34.5 -65.5q-19 -28 -24.5 -47t-5.5 -50v-18q0 -22 20 -51t51 -49.5t64 -20.5q38 0 57.5 21.5t19.5 61.5v402h106zM169.5 414.5q14.5 22.5 14.5 56.5q0 20 -8.5 32.5t-21.5 12.5
q-22 0 -37 -22t-15 -56q0 -20 8.5 -33t21.5 -13q23 0 37.5 22.5zM195 94q0 41 -16.5 70.5t-40.5 29.5q-15 0 -23.5 -13t-8.5 -40q0 -36 16.5 -66t38.5 -30q34 0 34 49z" />
    <glyph glyph-name="uni0E07" unicode="&#xe07;" horiz-adv-x="508" 
d="M406.5 540.5q26.5 -27.5 26.5 -75.5v-321q0 -73 -37 -108.5t-113 -35.5h-104q-37 123 -73.5 212.5t-83.5 163.5l82 47q46 -64 80 -144.5t72 -201.5h10q64 0 64 67v184q-15 -5 -27 -5q-41 0 -65 28t-24 76q0 61 34 101t86 40q46 0 72.5 -27.5zM283.5 391.5
q8.5 -13.5 22.5 -13.5q22 0 36.5 25.5t14.5 62.5q0 20 -8.5 33t-22.5 13q-21 0 -36 -24.5t-15 -60.5q0 -22 8.5 -35.5z" />
    <glyph glyph-name="uni0E08" unicode="&#xe08;" horiz-adv-x="558" 
d="M428 522q64 -46 64 -130v-250q0 -72 -36.5 -107t-112.5 -35h-117q-3 109 -6 144q-12 -3 -24 -3q-46 0 -77 38t-31 95q0 44 23.5 70t63.5 26q46 0 78 -33t46 -95q12 -60 18 -165h9q63 0 63 65v250q0 43 -38 67t-107 24q-61 0 -104 -14.5t-76 -47.5l-55 65q39 42 98 62
t142 20q115 0 179 -46zM218.5 205q8.5 13 8.5 33q0 36 -14.5 58.5t-36.5 22.5q-14 0 -22.5 -12.5t-8.5 -32.5q0 -34 15 -58t37 -24q13 0 21.5 13z" />
    <glyph glyph-name="uni0E09" unicode="&#xe09;" horiz-adv-x="651" 
d="M602 207q22 -36 22 -86q0 -57 -27.5 -94t-73.5 -37q-35 0 -60 23t-35 63q-30 -40 -65 -63t-79 -23q-141 0 -144 141q-13 -5 -25 -5q-40 0 -64 28.5t-24 75.5q0 61 33.5 100.5t85.5 39.5q46 0 72 -27.5t26 -75.5v-115q0 -38 17 -57.5t51 -19.5q38 0 72 31.5t49 71.5
q5 13 5 25v189q0 43 -38.5 67t-107.5 24q-61 0 -104 -14.5t-76 -47.5l-55 65q39 42 98 62t142 20q116 0 180.5 -46t64.5 -130v-142q38 -7 60 -43zM155 207q15 25 15 61q0 20 -8.5 33t-22.5 13q-22 0 -36.5 -24.5t-14.5 -59.5q0 -21 8.5 -34.5t21.5 -13.5q22 0 37 25z
M553 66.5q11 21.5 11 54.5t-11.5 54.5t-29.5 21.5t-28.5 -21t-10.5 -55q0 -33 10.5 -54.5t28.5 -21.5q19 0 30 21.5z" />
    <glyph glyph-name="uni0E0A" unicode="&#xe0a;" horiz-adv-x="528" 
d="M446.5 376.5q10.5 -25.5 10.5 -66.5v-159q0 -161 -186 -161q-94 0 -141.5 41t-47.5 121q0 44 10.5 75t45.5 92l6 11q-4 -1 -13 -1q-40 0 -65.5 28.5t-25.5 74.5q0 59 34 97.5t86 38.5q49 0 74 -29.5t25 -87.5q0 -38 -8.5 -71t-27.5 -73q-21 -44 -28 -75.5t-7 -76.5
q0 -37 21.5 -56.5t61.5 -19.5q80 0 80 72v146q0 45 -5 62t-22 35l-20 21v50q27 19 38.5 34.5t15 34.5t3.5 56h106q0 -55 -17 -84.5t-65 -57.5l27 -24q24 -22 34.5 -47.5zM109.5 397q8.5 -13 22.5 -13q22 0 36.5 24t14.5 58q0 20 -8.5 33t-22.5 13q-22 0 -36.5 -22.5
t-14.5 -58.5q0 -21 8.5 -34z" />
    <glyph glyph-name="uni0E0B" unicode="&#xe0b;" horiz-adv-x="563" 
d="M481.5 378q10.5 -25 10.5 -68v-165q0 -74 -48.5 -114.5t-139.5 -40.5q-89 0 -137 40.5t-48 114.5q0 49 15.5 86.5t51.5 83.5q27 35 40 59.5t13 43.5v15q0 33 -32 60q2 -18 2 -23q0 -56 -30.5 -92.5t-76.5 -36.5q-39 0 -63 26.5t-24 70.5q0 55 34.5 92.5t85.5 37.5
q69 0 116 -63v55h36q22 -75 22 -126q0 -44 -9 -75.5t-35 -73.5q-24 -38 -32 -67t-8 -73q0 -35 19 -52.5t60 -17.5q39 0 60.5 18t21.5 52v152q0 47 -4.5 63.5t-21.5 33.5l-20 21v50q27 19 38.5 34.5t15 34.5t3.5 56h106q0 -55 -17 -84t-65 -58l27 -24q23 -21 33.5 -46z
M139.5 414.5q14.5 22.5 14.5 56.5q0 19 -8.5 32t-21.5 13q-22 0 -37 -22t-15 -56q0 -20 8.5 -33t21.5 -13q23 0 37.5 22.5z" />
    <glyph glyph-name="uni0E0C" unicode="&#xe0c;" horiz-adv-x="913" 
d="M838 560v-404q0 -166 -153 -166q-44 0 -80 17.5t-62 48.5q-17 -66 -88 -66q-49 0 -82.5 39.5t-33.5 98.5q0 52 24.5 80t67.5 28q8 0 12 -1v81q0 85 -33.5 126t-102.5 41l-169 -2l103 -91v-51q-34 -14 -52 -40.5t-21 -68.5q15 5 26 5q41 0 65 -28t24 -74q0 -63 -33.5 -103
t-85.5 -40q-47 0 -73 27t-26 76v123q0 116 97 158v4l-114 104v86h259q123 0 183 -62t60 -190v-122q0 -22 16.5 -50.5t42 -48.5t52.5 -20q35 0 53 20.5t18 60.5v404h106zM214.5 166.5q-8.5 13.5 -21.5 13.5q-23 0 -37.5 -25.5t-14.5 -64.5q0 -19 8.5 -32t21.5 -13
q23 0 37.5 25t14.5 63q0 20 -8.5 33.5zM479 58q9 13 9 36q0 35 -16.5 60.5t-40.5 25.5q-14 0 -22.5 -14t-8.5 -38q0 -35 15.5 -59t39.5 -24q15 0 24 13z" />
    <glyph glyph-name="uni0E0D" unicode="&#xe0d;" horiz-adv-x="904" 
d="M831 561v-321q0 -240 -247 -240h-141v316q0 85 -34 126t-104 41l-167 -2l103 -91v-51q-34 -14 -52 -40.5t-21 -68.5q15 5 26 5q41 0 65 -27.5t24 -74.5q0 -63 -33.5 -103t-85.5 -40q-46 0 -72.5 27.5t-26.5 75.5v123q0 116 97 158v4l-114 104v86h257q124 0 184.5 -62.5
t60.5 -189.5v-231h34q74 0 107 36.5t33 118.5v321h107zM214.5 166.5q-8.5 13.5 -21.5 13.5q-23 0 -37.5 -25.5t-14.5 -64.5q0 -19 8.5 -31.5t21.5 -12.5q22 0 37 24.5t15 62.5q0 20 -8.5 33.5zM710 -118.5q18 31.5 23 75.5h93q-9 -89 -68 -134t-172 -45q-64 0 -103 23.5
t-39 64.5q0 33 32 55.5t80 22.5q49 0 81 -22t32 -56q0 -15 -6 -28q29 12 47 43.5zM598 -157q18 10 18 23q0 12 -18 22t-42 10t-41.5 -10t-17.5 -22q0 -13 17.5 -23t41.5 -10t42 10z" />
    <glyph glyph-name="yoYingthai.less" horiz-adv-x="904" 
d="M831 561v-321q0 -240 -247 -240h-141v316q0 85 -34 126t-104 41l-167 -2l103 -91v-51q-34 -14 -52 -40.5t-21 -68.5q15 5 26 5q41 0 65 -27.5t24 -74.5q0 -63 -33.5 -103t-85.5 -40q-46 0 -72.5 27.5t-26.5 75.5v123q0 116 97 158v4l-114 104v86h257q124 0 184.5 -62.5
t60.5 -189.5v-231h34q74 0 107 36.5t33 118.5v321h107zM214.5 166.5q-8.5 13.5 -21.5 13.5q-23 0 -37.5 -25.5t-14.5 -64.5q0 -19 8.5 -31.5t21.5 -12.5q22 0 37 24.5t15 62.5q0 20 -8.5 33.5z" />
    <glyph glyph-name="uni0E0E" unicode="&#xe0e;" horiz-adv-x="655" 
d="M515.5 509.5q66.5 -58.5 66.5 -177.5v-598h-106q-56 56 -110 88q-25 -34 -62 -53t-80 -19q-52 0 -85 19t-33 59q0 39 33.5 61.5t84.5 22.5q59 0 116 -22q10 29 11 54h59q-3 -42 -18 -78q41 -22 83 -57v523q0 77 -39 114t-121 37q-87 0 -173 -3l110 -95v-292
q0 -48 -26.5 -75.5t-72.5 -27.5q-52 0 -85.5 40t-33.5 103q0 47 24 74.5t65 27.5q15 0 26 -4v162l-97 89v86h263q134 0 200.5 -58.5zM167.5 58.5q8.5 12.5 8.5 31.5q0 39 -14.5 64.5t-37.5 25.5q-13 0 -21.5 -13.5t-8.5 -33.5q0 -38 15 -62.5t37 -24.5q13 0 21.5 12.5z
M318 -153q-52 20 -94 20q-60 0 -60 -39q0 -15 15 -24t45 -9q57 0 94 52z" />
    <glyph glyph-name="doChadathai.short" horiz-adv-x="655" 
d="M515.5 509.5q66.5 -58.5 66.5 -177.5v-532h-106q-56 49 -108 78q-26 -35 -63.5 -54.5t-81.5 -19.5q-53 0 -85 19.5t-32 58.5q0 38 32.5 61t86.5 23q55 0 115 -20q9 28 10 52h60q-3 -42 -18 -75q41 -21 83 -52v461q0 77 -40 114t-123 37l-170 -2l110 -96v-282
q0 -48 -26.5 -75.5t-72.5 -27.5q-52 0 -85.5 40t-33.5 102q0 48 23.5 76t64.5 28q11 0 27 -4v151l-97 89v86h263q134 0 200.5 -58.5zM167.5 69q8.5 13 8.5 33q0 37 -14.5 62.5t-36.5 25.5q-14 0 -22.5 -13.5t-8.5 -34.5q0 -37 15 -61.5t37 -24.5q13 0 21.5 13zM276.5 -137
q24.5 14 41.5 39q-49 19 -94 19q-60 0 -60 -38q0 -16 14.5 -25t43.5 -9q30 0 54.5 14z" />
    <glyph glyph-name="uni0E0F" unicode="&#xe0f;" horiz-adv-x="655" 
d="M400 -171l-72 -95q-26 34 -61 67q-49 -51 -117 -51q-47 0 -75 22t-28 60t29 59t74 21q29 0 53 -8.5t50 -27.5q17 28 17 73h60q-5 -62 -34 -107q20 -20 31 -34l73 100l75 -101v525q0 77 -39 114t-121 37l-172 -2l109 -96v-292q0 -48 -26.5 -75.5t-72.5 -27.5
q-52 0 -85.5 40t-33.5 103q0 47 24 74.5t65 27.5q16 0 26 -9v166l-97 90v86h263q134 0 200.5 -58.5t66.5 -177.5v-598h-109zM167.5 58.5q8.5 12.5 8.5 31.5q0 39 -14.5 64.5t-37.5 25.5q-13 0 -21.5 -13.5t-8.5 -33.5q0 -38 15 -62.5t37 -24.5q13 0 21.5 12.5zM226 -166
q-19 16 -36.5 24.5t-39.5 8.5q-24 0 -36.5 -9.5t-12.5 -25.5t12 -25t37 -9q45 0 76 36z" />
    <glyph glyph-name="toPatakthai.short" horiz-adv-x="655" 
d="M515.5 509.5q66.5 -58.5 66.5 -177.5v-542h-109l-70 88l-67 -89q-28 37 -62 67q-48 -50 -115 -50q-47 0 -74.5 22t-27.5 60q0 36 27.5 58t74.5 22q29 0 53 -8.5t49 -27.5q12 22 15 50h58q-8 -49 -31 -84q14 -13 31 -35l69 93l72 -94v470q0 77 -39 114t-121 37
q-44 0 -173 -2l110 -96v-282q0 -48 -26.5 -75.5t-72.5 -27.5q-52 0 -85.5 40t-33.5 103q0 47 24 75t65 28q10 0 26 -4v151l-97 89v86h263q134 0 200.5 -58.5zM167.5 68.5q8.5 12.5 8.5 32.5q0 39 -14.5 64t-37.5 25q-13 0 -21.5 -13.5t-8.5 -33.5q0 -38 15 -62.5t37 -24.5
q13 0 21.5 12.5zM233 -110q-18 16 -35 24t-39 8q-24 0 -36.5 -9t-12.5 -25t12.5 -25t36.5 -9q45 0 74 36z" />
    <glyph glyph-name="uni0E10" unicode="&#xe10;" horiz-adv-x="558" 
d="M512 513l-25 -81q-41 22 -108.5 40.5t-129.5 18.5q-59 0 -91 -10.5t-32 -26.5q0 -11 23.5 -19.5t71.5 -18.5l40 -9q80 -18 126 -36.5t68 -46.5t22 -72v-110q0 -72 -37 -107t-113 -35h-116l-6 91q-10 -3 -23 -3q-47 0 -76.5 34t-29.5 89q0 44 24 70t65 26q44 0 74.5 -31
t43.5 -89q11 -54 17 -110h11q63 0 63 65v100q0 34 -34.5 53.5t-114.5 37.5q-76 18 -118.5 32.5t-64.5 34t-22 48.5q0 33 27 60t79.5 43.5t125.5 16.5q132 0 260 -55zM147 160.5q14 -21.5 35 -21.5q14 0 22.5 12.5t8.5 31.5q0 32 -14 52t-35 20q-15 0 -23 -12t-8 -31
q0 -30 14 -51.5zM458.5 -47q27.5 -19 27.5 -51v-166h-77l-78 45l-60 -46l-59 45q-21 -21 -47 -32.5t-53 -11.5q-40 0 -62.5 18t-22.5 50q0 31 22.5 49.5t62.5 18.5q42 0 87 -27q9 21 9 56h52q-3 -50 -21 -81l15 -12l20 -16l53 42l95 -51v66q-22 -4 -37 -4q-43 0 -68.5 17
t-25.5 46t25.5 46.5t68.5 17.5q46 0 73.5 -19zM418 -108.5q14 6.5 14 16.5t-14 17.5t-33 7.5q-21 0 -35 -7t-14 -18q0 -10 13.5 -16.5t34.5 -6.5q20 0 34 6.5zM177 -194q-32 27 -65 27q-19 0 -29.5 -8t-10.5 -21t10.5 -21t29.5 -8q36 0 65 31z" />
    <glyph glyph-name="thoThanthai.less" horiz-adv-x="558" 
d="M158 480q-32 -11 -32 -27q0 -11 27.5 -19.5t84.5 -21.5l23 -5q80 -16 126 -34.5t68 -47t22 -73.5v-110q0 -72 -37 -107t-113 -35h-116l-6 91q-10 -3 -23 -3q-47 0 -76.5 34t-29.5 89q0 44 24 70t65 26q44 0 74.5 -31t43.5 -89q11 -54 17 -110h11q63 0 63 65v100
q0 34 -34.5 53.5t-114.5 37.5q-76 17 -118.5 31.5t-64.5 33t-22 46.5q0 34 27 62.5t79.5 45t125.5 16.5q132 0 260 -55l-25 -81q-41 22 -108.5 40.5t-129.5 18.5q-59 0 -91 -11zM147 160.5q14 -21.5 35 -21.5q14 0 22.5 12.5t8.5 31.5q0 32 -14 52t-35 20q-15 0 -23 -12
t-8 -31q0 -30 14 -51.5z" />
    <glyph glyph-name="uni0E11" unicode="&#xe11;" horiz-adv-x="692" 
d="M581.5 525q34.5 -43 34.5 -131v-394h-106v394q0 46 -14.5 67.5t-45.5 21.5q-49 0 -97 -52t-85 -135q-12 -27 -16 -50.5t-4 -56.5v-189h-106v189q0 39 13.5 71.5t38.5 75.5q18 30 26 47t8 33v17q0 27 -25 52q1 -5 1 -16q0 -55 -30.5 -91.5t-76.5 -36.5q-39 0 -63 26.5
t-24 71.5q0 54 32.5 91.5t81.5 37.5q37 0 67 -17t55 -54v63h36q19 -61 22 -95q28 49 72.5 76t99.5 27q71 0 105.5 -43zM134.5 415q14.5 23 14.5 55q0 20 -8.5 33t-22.5 13q-22 0 -36.5 -22.5t-14.5 -54.5q0 -21 8.5 -34t22.5 -13q22 0 36.5 23z" />
    <glyph glyph-name="uni0E12" unicode="&#xe12;" horiz-adv-x="944" 
d="M868 560v-404q0 -166 -151 -166q-79 0 -132 53q-20 -53 -83 -53q-50 0 -83.5 39t-33.5 97q0 48 24 77t65 31v160q0 37 -16 64.5t-44 39.5l-88 -81l-86 81q-29 -12 -44.5 -39t-15.5 -65v-315q39 11 70.5 39t47.5 64h-6q-34 0 -54 23t-20 61q0 50 26.5 83.5t66.5 33.5
q38 0 57 -25t19 -67q0 -68 -29.5 -128.5t-81.5 -102.5t-116 -57h-85v406q0 61 49 104t131 55l71 -76l73 76q82 -13 131 -56t49 -103v-215q0 -22 16.5 -50.5t43 -48.5t54.5 -20q34 0 51.5 20.5t17.5 60.5v404h106zM272 234.5q7 -11.5 20 -11.5q20 0 33.5 22.5t13.5 54.5
q0 19 -7.5 30.5t-20.5 11.5q-20 0 -33 -22t-13 -55q0 -19 7 -30.5zM525.5 58q8.5 13 8.5 36q0 34 -15.5 59.5t-38.5 25.5q-16 0 -25 -14t-9 -39q0 -34 16 -57.5t39 -23.5q16 0 24.5 13z" />
    <glyph glyph-name="uni0E13" unicode="&#xe13;" horiz-adv-x="931" 
d="M882 206q22 -36 22 -85q0 -57 -27.5 -94t-73.5 -37q-34 0 -59 22.5t-35 61.5q-61 -84 -141 -84q-72 0 -106 40t-34 122v164q0 85 -31.5 126t-97.5 41l-161 -2l103 -91v-51q-34 -14 -52 -40.5t-21 -68.5q15 5 26 5q41 0 65 -27.5t24 -74.5q0 -63 -33.5 -103t-85.5 -40
q-46 0 -72.5 27.5t-26.5 75.5v123q0 116 97 158v4l-114 104v86h251q119 0 177.5 -62.5t58.5 -189.5v-164q0 -39 13.5 -58t45.5 -19q30 0 58.5 22t46.5 52.5t18 53.5v357h107v-310q36 -8 58 -44zM833 66.5q11 21.5 11 54.5t-11 54.5t-30 21.5q-18 0 -28.5 -21t-10.5 -55
q0 -33 10.5 -54.5t28.5 -21.5q19 0 30 21.5zM214.5 166.5q-8.5 13.5 -21.5 13.5q-23 0 -37.5 -25.5t-14.5 -64.5q0 -19 8.5 -31.5t21.5 -12.5q22 0 37 24.5t15 62.5q0 20 -8.5 33.5z" />
    <glyph glyph-name="uni0E14" unicode="&#xe14;" horiz-adv-x="648" 
d="M506 517q67 -51 67 -139v-378h-105v378q0 49 -38 77t-106 28t-106 -28t-38 -77v-301q31 6 64 29q29 20 48 45q-34 4 -50.5 29.5t-16.5 63.5q0 32 13 62.5t36.5 50t52.5 19.5q41 0 62 -27.5t21 -71.5q0 -62 -29 -118t-79 -96q-29 -23 -72 -42t-70 -21h-85v378q0 88 67 139
t182 51t182 -51zM284.5 210q8.5 -13 22.5 -13q22 0 36.5 25t14.5 61q0 20 -8.5 33t-21.5 13q-22 0 -37 -24.5t-15 -60.5q0 -21 8.5 -34z" />
    <glyph glyph-name="uni0E15" unicode="&#xe15;" horiz-adv-x="654" 
d="M530 512q49 -43 49 -103v-409h-105v394q0 37 -16 64.5t-44 39.5l-88 -81l-87 81q-28 -12 -43.5 -39t-15.5 -65v-316q34 8 63 27.5t49 45.5q-34 4 -50.5 29.5t-16.5 63.5q0 32 13 62.5t36 50t52 19.5q42 0 63 -27.5t21 -71.5q0 -67 -32 -125t-89 -98t-129 -54h-85v409
q0 61 49 104t131 55l71 -76l73 76q82 -13 131 -56zM284.5 210q8.5 -13 22.5 -13q22 0 36.5 25t14.5 61q0 20 -8.5 33t-21.5 13q-22 0 -37 -24.5t-15 -60.5q0 -21 8.5 -34z" />
    <glyph glyph-name="uni0E16" unicode="&#xe16;" horiz-adv-x="628" 
d="M493.5 505.5q61.5 -62.5 61.5 -189.5v-316h-107v316q0 85 -35 126t-106 41l-169 -2l103 -91v-51q-34 -14 -52 -40t-21 -68q18 4 27 4q41 0 64.5 -28t23.5 -76q0 -61 -33.5 -101t-85.5 -40q-46 0 -72.5 27.5t-26.5 75.5v123q0 116 97 158v4l-114 104v86h259
q125 0 186.5 -62.5zM214.5 166.5q-8.5 13.5 -22.5 13.5q-22 0 -36.5 -25.5t-14.5 -62.5q0 -21 8 -33.5t22 -12.5q22 0 37 24.5t15 61.5q0 21 -8.5 34.5z" />
    <glyph glyph-name="uni0E17" unicode="&#xe17;" horiz-adv-x="681" 
d="M569 524q36 -44 36 -128v-396h-106v396q0 87 -57 87q-47 0 -93.5 -60.5t-89.5 -175.5q-11 -30 -16 -54t-5 -52v-141h-106v328q-13 -5 -25 -5q-40 0 -64 28t-24 76q0 62 34 101.5t86 39.5q46 0 72.5 -27.5t26.5 -75.5v-114q43 114 97 165.5t128 51.5q70 0 106 -44z
M147.5 403.5q14.5 25.5 14.5 62.5q0 20 -8.5 33t-22.5 13q-22 0 -36.5 -24.5t-14.5 -61.5q0 -21 8.5 -34.5t22.5 -13.5q22 0 36.5 25.5z" />
    <glyph glyph-name="uni0E18" unicode="&#xe18;" horiz-adv-x="575" 
d="M88 123v164h106v-162q0 -24 26.5 -37t75.5 -13t75.5 13t26.5 37v104q0 20 -11.5 32t-41.5 23t-97 29q-75 20 -115.5 36.5t-58.5 37.5t-18 53q0 61 65.5 94.5t176.5 33.5q53 0 114 -11.5t112 -30.5l-25 -76q-42 17 -99.5 27.5t-104.5 10.5q-59 0 -96 -11.5t-37 -29.5
q0 -17 25 -28t95 -30q92 -25 138 -44t65 -43.5t19 -63.5v-115q0 -133 -208 -133t-208 133z" />
    <glyph glyph-name="uni0E19" unicode="&#xe19;" horiz-adv-x="658" 
d="M609 206q22 -36 22 -85q0 -57 -27.5 -94t-73.5 -37q-35 0 -60.5 23t-34.5 64q-71 -87 -162 -87q-147 0 -147 162v175q-13 -5 -24 -5q-40 0 -64.5 28.5t-24.5 75.5q0 62 34 102t86 40q46 0 72.5 -27.5t26.5 -75.5v-313q0 -77 68 -77q36 0 69 22t54 52t21 53v358h106v-310
q37 -8 59 -44zM141.5 403.5q14.5 25.5 14.5 62.5q0 20 -8.5 33t-21.5 13q-22 0 -37 -24.5t-15 -61.5q0 -21 8.5 -34.5t22.5 -13.5q22 0 36.5 25.5zM559 66.5q11 21.5 11 54.5t-11 54.5t-29 21.5t-29 -21.5t-11 -54.5t11 -54.5t29 -21.5t29 21.5z" />
    <glyph glyph-name="uni0E1A" unicode="&#xe1a;" horiz-adv-x="658" 
d="M583 560v-415q0 -77 -58 -116t-171 -39q-228 0 -228 155v181q-11 -4 -24 -4q-41 0 -65 28t-24 76q0 62 34 102t86 40q46 0 72.5 -27.5t26.5 -75.5v-318q0 -35 31.5 -53.5t90.5 -18.5q60 0 91.5 18.5t31.5 53.5v413h106zM82.5 391.5q8.5 -13.5 22.5 -13.5q22 0 36.5 25.5
t14.5 62.5q0 20 -8.5 33t-21.5 13q-22 0 -37 -24.5t-15 -61.5q0 -21 8.5 -34.5z" />
    <glyph glyph-name="uni0E1B" unicode="&#xe1b;" horiz-adv-x="658" 
d="M583 815v-670q0 -77 -58 -116t-171 -39q-228 0 -228 155v181q-11 -4 -24 -4q-41 0 -65 28t-24 76q0 62 34 102t86 40q46 0 72.5 -27.5t26.5 -75.5v-318q0 -35 31.5 -53.5t90.5 -18.5q60 0 91.5 18.5t31.5 53.5v668h106zM82.5 391.5q8.5 -13.5 22.5 -13.5q22 0 36.5 25.5
t14.5 62.5q0 20 -8.5 33t-21.5 13q-22 0 -37 -24.5t-15 -61.5q0 -21 8.5 -34.5z" />
    <glyph glyph-name="uni0E1C" unicode="&#xe1c;" horiz-adv-x="681" 
d="M603 560v-560h-100q-50 30 -89.5 71t-73.5 100q-35 -59 -74.5 -100t-89.5 -71h-101v396q0 82 33 127t92 45q40 0 64 -28.5t24 -73.5q0 -59 -30.5 -99.5t-77.5 -43.5v-225q48 34 89.5 90t69.5 121q28 -65 69.5 -121t89.5 -90v462h105zM160.5 487.5
q-14.5 -24.5 -14.5 -61.5q0 -21 8.5 -34.5t21.5 -13.5q22 0 37 25.5t15 62.5q0 20 -8.5 33t-22.5 13q-22 0 -36.5 -24.5z" />
    <glyph glyph-name="uni0E1D" unicode="&#xe1d;" horiz-adv-x="681" 
d="M603 815v-815h-100q-50 30 -89.5 71t-73.5 100q-35 -59 -74.5 -100t-89.5 -71h-101v396q0 82 33 127t92 45q40 0 64 -28.5t24 -73.5q0 -59 -30.5 -99.5t-77.5 -43.5v-225q48 34 89.5 90t69.5 121q28 -65 69.5 -121t89.5 -90v717h105zM160.5 487.5
q-14.5 -24.5 -14.5 -61.5q0 -21 8.5 -34.5t21.5 -13.5q22 0 37 25.5t15 62.5q0 20 -8.5 33t-22.5 13q-22 0 -36.5 -24.5z" />
    <glyph glyph-name="uni0E1E" unicode="&#xe1e;" horiz-adv-x="709" 
d="M630 560v-560h-119q-37 38 -74 111.5t-65 155.5q-28 -83 -63 -156t-71 -111h-116v323q-46 3 -76 42t-30 95q0 50 26.5 79t70.5 29q50 0 82.5 -43t32.5 -108v-295q37 56 76.5 154t67.5 194q26 -89 68.5 -190.5t83.5 -161.5v442h106zM92 403.5q15 -25.5 37 -25.5
q14 0 22 12.5t8 32.5q0 38 -15 63.5t-37 25.5q-14 0 -22 -12.5t-8 -33.5q0 -37 15 -62.5z" />
    <glyph glyph-name="uni0E1F" unicode="&#xe1f;" horiz-adv-x="709" 
d="M630 815v-815h-119q-37 38 -74 111.5t-65 155.5q-28 -83 -63 -156t-71 -111h-116v323q-46 3 -76 42t-30 95q0 50 26.5 79t70.5 29q50 0 82.5 -43t32.5 -108v-295q37 57 76.5 154.5t67.5 193.5q26 -89 68.5 -190.5t83.5 -161.5v697h106zM92 403.5q15 -25.5 37 -25.5
q14 0 22 12.5t8 32.5q0 38 -15 63.5t-37 25.5q-14 0 -22 -12.5t-8 -33.5q0 -37 15 -62.5z" />
    <glyph glyph-name="uni0E20" unicode="&#xe20;" horiz-adv-x="655" 
d="M515.5 509.5q66.5 -58.5 66.5 -177.5v-332h-107v332q0 77 -39 114t-121 37l-172 -2l109 -96v-292q0 -48 -26.5 -75.5t-72.5 -27.5q-52 0 -85.5 40.5t-33.5 102.5q0 47 24 74.5t65 27.5q10 0 26 -4v161l-97 90v86h263q134 0 200.5 -58.5zM168 58q8 12 8 32q0 38 -15 64
t-37 26q-13 0 -21.5 -13t-8.5 -34q0 -37 15 -62t37 -25q14 0 22 12z" />
    <glyph glyph-name="uni0E21" unicode="&#xe21;" horiz-adv-x="657" 
d="M582 560v-402q0 -168 -157 -168q-52 0 -96.5 22.5t-75.5 62.5v-3q-5 -40 -28.5 -61t-61.5 -21q-34 0 -61 21.5t-41.5 57t-14.5 73.5q0 51 25 79.5t67 28.5q11 0 21 -3v80q-10 -8 -22 -8q-40 0 -64 28.5t-24 77.5q0 62 34 102.5t86 40.5q44 0 70.5 -28t26.5 -77v-267
q0 -22 19.5 -51t51 -49.5t64.5 -20.5q36 0 55.5 21.5t19.5 61.5v402h106zM177.5 401.5q14.5 25.5 14.5 62.5q0 20 -8.5 33t-22.5 13q-22 0 -36.5 -24.5t-14.5 -61.5q0 -21 8.5 -34.5t22.5 -13.5q22 0 36.5 25.5zM196 94q0 41 -16.5 70.5t-40.5 29.5q-32 0 -32 -52
q0 -37 16.5 -67t39.5 -30q33 0 33 49z" />
    <glyph glyph-name="uni0E22" unicode="&#xe22;" horiz-adv-x="647" 
d="M568 560v-560h-341q-72 0 -116.5 40t-44.5 109q0 42 23 74t58 49q-41 18 -68 53.5t-27 87.5q0 70 46 112.5t132 42.5q44 0 81.5 -17.5t59.5 -48t22 -65.5q0 -37 -24.5 -59t-64.5 -22q-50 0 -89 31.5t-48 74.5q-11 -20 -11 -51q0 -40 29 -70.5t70 -30.5h124v-78h-120
q-40 0 -64.5 -20.5t-24.5 -53.5q0 -34 24 -53.5t65 -19.5h204v475h105zM227.5 505.5q-8.5 -8.5 -8.5 -21.5q0 -17 13 -35t33 -30t39 -12q14 0 23 8.5t9 21.5q0 17 -13.5 35t-34 30t-39.5 12q-13 0 -21.5 -8.5z" />
    <glyph glyph-name="uni0E23" unicode="&#xe23;" horiz-adv-x="541" 
d="M161.5 475.5q-31.5 -12.5 -31.5 -31.5q0 -12 23 -22t74 -25l32 -9q75 -22 117 -40t65 -44t23 -66v-97q0 -68 -46.5 -109.5t-132.5 -41.5q-51 0 -93 18t-66 49t-24 69q0 37 24 59.5t65 22.5q36 0 68.5 -20t52.5 -51t20 -61v-8q26 20 26 81v73q0 30 -29 47.5t-107 41.5
q-77 23 -116 38.5t-60.5 36t-21.5 50.5q0 36 26.5 66t79 48t126.5 18q131 0 259 -55l-25 -81q-41 21 -108.5 38.5t-128.5 17.5q-60 0 -91.5 -12.5zM268 57.5q8 8.5 8 21.5q0 17 -13 35t-32.5 30t-38.5 12q-15 0 -24 -8t-9 -21q0 -17 13.5 -35.5t34 -30.5t39.5 -12
q14 0 22 8.5z" />
    <glyph glyph-name="uni0E24" unicode="&#xe24;" horiz-adv-x="628" 
d="M493.5 505.5q61.5 -62.5 61.5 -189.5v-566h-107v566q0 85 -35 126t-106 41l-169 -2l103 -91v-51q-34 -14 -52 -40.5t-21 -68.5q15 5 26 5q41 0 65 -27.5t24 -74.5q0 -63 -33.5 -103t-85.5 -40q-46 0 -72.5 27.5t-26.5 75.5v123q0 116 97 158v4l-114 104v86h259
q125 0 186.5 -62.5zM214.5 166.5q-8.5 13.5 -21.5 13.5q-23 0 -37.5 -25.5t-14.5 -64.5q0 -19 8.5 -31.5t21.5 -12.5q22 0 37 24.5t15 62.5q0 20 -8.5 33.5z" />
    <glyph glyph-name="uni0E24.short" horiz-adv-x="628" 
d="M493.5 505.5q61.5 -62.5 61.5 -189.5v-476h-107v476q0 85 -35 126t-106 41l-169 -2l103 -91v-51q-34 -14 -52 -40.5t-21 -68.5q15 5 26 5q41 0 65 -27.5t24 -74.5q0 -63 -33.5 -103t-85.5 -40q-46 0 -72.5 27.5t-26.5 75.5v123q0 116 97 158v4l-114 104v86h259
q125 0 186.5 -62.5zM214.5 166.5q-8.5 13.5 -21.5 13.5q-23 0 -37.5 -25.5t-14.5 -64.5q0 -19 8.5 -31.5t21.5 -12.5q22 0 37 24.5t15 62.5q0 20 -8.5 33.5z" />
    <glyph glyph-name="uni0E25" unicode="&#xe25;" horiz-adv-x="624" 
d="M483 522q66 -46 66 -131v-391h-103v275q-21 -11 -75 -17l-100 -11q-129 -14 -129 -109q0 -35 18 -54q4 43 42.5 70t92.5 27q47 0 74.5 -22.5t27.5 -59.5q0 -48 -46.5 -78.5t-119.5 -30.5q-86 0 -134.5 43t-48.5 117q0 76 50.5 120t147.5 55l103 12q39 4 58.5 9t28.5 16
t10 33q-2 42 -41.5 65t-112.5 23q-129 0 -189 -74l-60 62q81 97 254 97q120 0 186 -46zM238 113q-27 -18 -27 -40q0 -16 11.5 -24t32.5 -8q32 0 59.5 17.5t27.5 40.5q0 15 -12 23.5t-32 8.5q-33 0 -60 -18z" />
    <glyph glyph-name="uni0E26" unicode="&#xe26;" horiz-adv-x="655" 
d="M515.5 509.5q66.5 -58.5 66.5 -177.5v-581h-107v581q0 77 -39 114t-121 37q-87 0 -173 -3l110 -95v-292q0 -48 -26.5 -75.5t-72.5 -27.5q-52 0 -85.5 40t-33.5 103q0 47 24 74.5t65 27.5q15 0 26 -4v162l-97 89v86h263q134 0 200.5 -58.5zM167.5 58.5q8.5 12.5 8.5 31.5
q0 39 -14.5 64.5t-37.5 25.5q-13 0 -21.5 -13.5t-8.5 -33.5q0 -38 15 -62.5t37 -24.5q13 0 21.5 12.5z" />
    <glyph glyph-name="uni0E26.short" horiz-adv-x="655" 
d="M515.5 509.5q66.5 -58.5 66.5 -177.5v-492h-107v492q0 77 -39 114t-121 37q-87 0 -173 -3l110 -95v-292q0 -48 -26.5 -75.5t-72.5 -27.5q-52 0 -85.5 40t-33.5 103q0 47 24 74.5t65 27.5q15 0 26 -4v162l-97 89v86h263q134 0 200.5 -58.5zM167.5 58.5q8.5 12.5 8.5 31.5
q0 39 -14.5 64.5t-37.5 25.5q-13 0 -21.5 -13.5t-8.5 -33.5q0 -38 15 -62.5t37 -24.5q13 0 21.5 12.5z" />
    <glyph glyph-name="uni0E27" unicode="&#xe27;" horiz-adv-x="531" 
d="M406.5 520.5q59.5 -47.5 59.5 -134.5v-245q0 -68 -47.5 -109.5t-131.5 -41.5q-51 0 -93 18t-66 49t-24 69t24 60t65 22q35 0 67.5 -20t52 -51t19.5 -61v-9q27 20 27 82v237q0 47 -32 72t-91 25q-52 0 -88 -14.5t-73 -54.5l-66 63q43 47 97 69t132 22q109 0 168.5 -47.5z
M269 57.5q8 8.5 8 21.5q0 17 -13 35t-32.5 30t-38.5 12q-15 0 -24 -8t-9 -22q0 -17 13.5 -35t34 -30t39.5 -12q14 0 22 8.5z" />
    <glyph glyph-name="uni0E28" unicode="&#xe28;" horiz-adv-x="657" 
d="M547 483q34 -45 34 -105v-378h-104v378q0 49 -39.5 77t-109.5 28t-109.5 -28t-39.5 -77v-108q32 33 72 52t85 19q46 0 73 -19.5t27 -53.5q0 -39 -36 -63.5t-90 -24.5q-35 0 -60.5 13.5t-33.5 37.5q-20 -21 -28.5 -50t-8.5 -75v-106h-104v378q0 88 68 139t185 51
q98 0 160 -35q28 17 31 63h105q-6 -85 -77 -113zM281 285.5q-24 -13.5 -24 -32.5q0 -14 14.5 -22.5t38.5 -8.5q35 0 57 13.5t22 32.5q0 14 -14.5 22.5t-38.5 8.5q-31 0 -55 -13.5z" />
    <glyph glyph-name="uni0E29" unicode="&#xe29;" horiz-adv-x="682" 
d="M599 275v-130q0 -155 -237 -155q-117 0 -176.5 39t-59.5 116v182q-11 -4 -24 -4q-41 0 -65 28t-24 76q0 61 34 101t86 40q46 0 72.5 -27.5t26.5 -75.5v-318q0 -35 33 -53.5t97 -18.5t97 18.5t33 53.5v86q-47 -7 -90 -7q-63 0 -99.5 19.5t-36.5 54.5q0 31 28.5 51t71.5 20
t71.5 -20t28.5 -50q0 -18 -12 -32q20 1 38 6v285h107v-226q25 27 37 71h50q-22 -86 -87 -130zM82.5 391.5q8.5 -13.5 22.5 -13.5q22 0 36.5 25.5t14.5 62.5q0 20 -8.5 33t-22.5 13q-21 0 -36 -25t-15 -61q0 -21 8.5 -34.5zM406.5 276q16.5 10 16.5 25q0 14 -16.5 24
t-40.5 10q-23 0 -40 -10t-17 -24q0 -15 16.5 -25t40.5 -10t40.5 10z" />
    <glyph glyph-name="uni0E2A" unicode="&#xe2a;" horiz-adv-x="624" 
d="M519 487q30 -39 30 -96v-391h-103v275q-21 -11 -75 -17l-100 -11q-129 -14 -129 -109q0 -35 18 -54q4 43 42.5 70t92.5 27q47 0 74.5 -22.5t27.5 -59.5q0 -48 -46.5 -78.5t-119.5 -30.5q-86 0 -134.5 43t-48.5 117q0 76 50.5 120t147.5 55l103 12q39 4 58.5 9t28.5 16
t10 33q-2 42 -41.5 65t-112.5 23q-129 0 -189 -74l-60 62q81 97 254 97q96 0 160 -31q22 18 25 59h105q-6 -80 -68 -109zM238 113q-27 -18 -27 -40q0 -16 11.5 -24t32.5 -8q32 0 59.5 17.5t27.5 40.5q0 15 -12 23.5t-32 8.5q-33 0 -60 -18z" />
    <glyph glyph-name="uni0E2B" unicode="&#xe2b;" horiz-adv-x="688" 
d="M610 421q-19 -22 -54 -33q49 -35 49 -107v-281h-106v265q0 38 -16.5 58.5t-47.5 20.5q-45 0 -89.5 -38.5t-83.5 -116.5q-15 -28 -19.5 -53.5t-4.5 -66.5v-69h-106v328q-13 -5 -25 -5q-40 0 -64 28t-24 76q0 62 34 101.5t86 39.5q46 0 72.5 -27.5t26.5 -75.5v-200
q28 50 65 86t80 52q-40 27 -40 70t39.5 69t103.5 26t103.5 -26t39.5 -69q0 -30 -19 -52zM147.5 403.5q14.5 25.5 14.5 62.5q0 20 -8.5 33t-22.5 13q-22 0 -36.5 -24.5t-14.5 -61.5q0 -21 8.5 -34.5t22.5 -13.5q22 0 36.5 25.5zM542 444.5q21 10.5 21 28.5q0 17 -21.5 28
t-55.5 11t-55.5 -11t-21.5 -28q0 -18 21 -28.5t56 -10.5t56 10.5z" />
    <glyph glyph-name="uni0E2C" unicode="&#xe2c;" horiz-adv-x="718" 
d="M709 574q-3 -102 -79 -132v-442h-119q-72 54 -138 178q-64 -124 -135 -178h-116v323q-47 3 -76.5 41t-29.5 94q0 51 26.5 80.5t70.5 29.5q50 0 82.5 -43t32.5 -108v-309q38 40 77.5 106t67.5 130q28 -66 70 -135.5t81 -107.5v284q-9 -4 -23 -4q-52 0 -86.5 24.5
t-34.5 62.5t34.5 62.5t86.5 24.5q40 0 71 -13t44 -36q18 21 20 68h73zM91.5 403q14.5 -25 36.5 -25q14 0 22.5 13t8.5 34q0 36 -14.5 61.5t-36.5 25.5q-14 0 -22.5 -13t-8.5 -35q0 -36 14.5 -61zM547.5 441q18.5 11 18.5 27q0 17 -18.5 27.5t-46.5 10.5t-46.5 -11t-18.5 -27
t19 -27t46 -11q28 0 46.5 11z" />
    <glyph glyph-name="loChulathai.short" horiz-adv-x="718" 
d="M709 574q-3 -102 -79 -132v-442h-119q-72 54 -138 178q-64 -124 -135 -178h-116v323q-47 3 -76.5 41t-29.5 94q0 51 26.5 80.5t70.5 29.5q50 0 82.5 -43t32.5 -108v-309q38 40 77.5 106t67.5 130q28 -66 70 -135.5t81 -107.5v284q-9 -4 -23 -4q-52 0 -86.5 24.5
t-34.5 62.5t34.5 62.5t86.5 24.5q40 0 71 -13t44 -36q18 21 20 68h73zM91.5 403q14.5 -25 36.5 -25q14 0 22.5 13t8.5 34q0 36 -14.5 61.5t-36.5 25.5q-14 0 -22.5 -13t-8.5 -35q0 -36 14.5 -61zM547.5 441q18.5 11 18.5 27q0 17 -18.5 27.5t-46.5 10.5t-46.5 -11t-18.5 -27
t19 -27t46 -11q28 0 46.5 11z" />
    <glyph glyph-name="uni0E2D" unicode="&#xe2d;" horiz-adv-x="621" 
d="M486.5 522q69.5 -46 69.5 -130v-232q0 -82 -69.5 -126t-191.5 -44q-119 0 -180.5 48t-61.5 137q0 56 31.5 102.5t82 73t103.5 26.5q43 0 68.5 -20t25.5 -55q0 -46 -41.5 -76t-103.5 -30q-46 0 -65 25q-11 -19 -11 -43q0 -50 34 -76.5t116 -26.5q71 0 113.5 23t42.5 62
v232q0 43 -42 67t-118 24q-65 0 -111 -14.5t-79 -47.5l-56 65q41 42 102 62t148 20q124 0 193.5 -46zM208.5 313.5q-26.5 -16.5 -26.5 -40.5q0 -13 11 -21t30 -8q32 0 61 16.5t29 40.5q0 13 -11.5 21t-31.5 8q-35 0 -61.5 -16.5z" />
    <glyph glyph-name="uni0E2E" unicode="&#xe2e;" horiz-adv-x="612" 
d="M524 470q23 -32 23 -71v-239q0 -83 -69.5 -126.5t-191.5 -43.5q-118 0 -180 43.5t-62 123.5q0 52 32 95t82.5 68t102.5 25q44 0 69 -20t25 -54q0 -44 -41.5 -74t-103.5 -30q-47 0 -66 26q-9 -15 -9 -35q0 -41 34 -62t115 -21q70 0 113.5 23t43.5 62v239q0 11 -1 16
q-77 -31 -177 -31q-84 0 -150 22.5t-66 68.5q0 42 58.5 67.5t155.5 25.5q54 0 104.5 -10.5t90.5 -31.5q14 26 14 56h104q-3 -65 -50 -112zM400 474q-26 18 -64 27t-82 9q-53 0 -87 -9.5t-34 -24.5q0 -16 33.5 -25.5t87.5 -9.5q86 0 146 33zM200 283q-26 -16 -26 -40
q0 -14 10.5 -22t29.5 -8q33 0 61.5 17t28.5 41q0 13 -11 20.5t-32 7.5q-35 0 -61 -16z" />
    <glyph glyph-name="uni0E30" unicode="&#xe30;" horiz-adv-x="490" 
d="M82.5 362q-42.5 25 -42.5 70q0 38 33.5 63.5t85.5 25.5t85.5 -25t33.5 -63q0 -16 -8 -34q37 10 58.5 41t26.5 79h97q-15 -182 -255 -182q-72 0 -114.5 25zM114.5 460.5q-18.5 -11.5 -18.5 -27.5t18.5 -27.5t44.5 -11.5q27 0 45 11t18 28t-18 28t-45 11q-26 0 -44.5 -11.5
zM328.5 142q21.5 31 26.5 79h97q-15 -182 -255 -182q-72 0 -114.5 25t-42.5 70q0 38 33.5 63.5t85.5 25.5t85.5 -25t33.5 -63q0 -16 -8 -34q37 10 58.5 41zM204 108q18 11 18 27q0 17 -18 28t-45 11q-26 0 -44.5 -11.5t-18.5 -27.5t18.5 -27t44.5 -11q27 0 45 11z" />
    <glyph glyph-name="uni0E32" unicode="&#xe32;" horiz-adv-x="478" 
d="M307 386q0 46 -26.5 71.5t-74.5 25.5q-41 0 -71 -14t-66 -55l-66 63q43 48 90 69.5t114 21.5q98 0 152 -47.5t54 -134.5v-386h-106v386z" />
    <glyph glyph-name="uni0E33" unicode="&#xe33;" horiz-adv-x="478" 
d="M-209 671q-30 28 -30 74q0 45 30 73t79 28t79 -28t30 -73q0 -46 -30 -74t-79 -28t-79 28zM-95.5 711q12.5 13 12.5 34t-13 33.5t-34 12.5t-34 -13t-13 -33q0 -21 13 -34t34 -13q22 0 34.5 13zM307 386q0 46 -26.5 71.5t-74.5 25.5q-41 0 -71 -14t-66 -55l-66 63
q43 48 90 69.5t114 21.5q98 0 152 -47.5t54 -134.5v-386h-106v386z" />
    <glyph glyph-name="uni0E40" unicode="&#xe40;" horiz-adv-x="310" 
d="M269.5 206.5q24.5 -28.5 24.5 -75.5q0 -62 -33.5 -101.5t-86.5 -39.5q-46 0 -72.5 27.5t-26.5 75.5v467h107v-329q11 4 23 4q40 0 64.5 -28.5zM218.5 70q14.5 25 14.5 61q0 22 -8.5 35.5t-21.5 13.5q-22 0 -37 -26t-15 -62q0 -21 8.5 -34t22.5 -13q22 0 36.5 25z" />
    <glyph glyph-name="uni0E41" unicode="&#xe41;" horiz-adv-x="598" 
d="M269.5 206.5q24.5 -28.5 24.5 -75.5q0 -62 -33.5 -101.5t-86.5 -39.5q-46 0 -72.5 27.5t-26.5 75.5v467h107v-329q11 4 23 4q40 0 64.5 -28.5zM557.5 206.5q24.5 -28.5 24.5 -75.5q0 -62 -34 -101.5t-86 -39.5q-46 0 -72.5 27.5t-26.5 75.5v467h106v-329q11 4 24 4
q40 0 64.5 -28.5zM218.5 70q14.5 25 14.5 61q0 22 -8.5 35.5t-21.5 13.5q-22 0 -37 -26t-15 -62q0 -21 8.5 -34t22.5 -13q22 0 36.5 25zM506.5 70q14.5 25 14.5 61q0 22 -8.5 35.5t-22.5 13.5q-22 0 -36.5 -26t-14.5 -62q0 -21 8.5 -34t22.5 -13q22 0 36.5 25z" />
    <glyph glyph-name="uni0E42" unicode="&#xe42;" horiz-adv-x="367" 
d="M84.5 892.5q-38.5 -15.5 -38.5 -37.5q0 -9 9.5 -15.5t37.5 -20.5l44 -23q39 -21 57.5 -40.5t24.5 -42.5t6 -64v-418q11 4 23 4q41 0 65 -28t24 -76q0 -62 -34 -101.5t-86 -39.5q-46 0 -72.5 27.5t-26.5 75.5v564q0 28 -11.5 42.5t-51.5 37.5q-61 36 -84.5 59.5
t-23.5 58.5q0 40 31 71t84.5 47.5t118.5 16.5q56 0 108.5 -11t110.5 -35l-25 -83q-103 47 -196 47q-56 0 -94.5 -15.5zM267.5 166.5q-8.5 13.5 -22.5 13.5q-22 0 -36.5 -25.5t-14.5 -62.5q0 -21 8.5 -34t22.5 -13q22 0 36.5 25t14.5 61q0 22 -8.5 35.5z" />
    <glyph glyph-name="uni0E43" unicode="&#xe43;" horiz-adv-x="342" 
d="M297 207q24 -28 24 -76q0 -62 -34 -101.5t-86 -39.5q-46 0 -72.5 27.5t-26.5 75.5v447q0 55 9.5 84.5t42.5 65.5q50 56 67 81.5t17 52.5q0 41 -24 65.5t-65 24.5q-34 0 -53 -12q16 -15 25 -36.5t9 -48.5q0 -47 -23.5 -77.5t-60.5 -30.5q-38 0 -63 30t-25 78q0 47 26 87
t71.5 63.5t100.5 23.5q83 0 132.5 -46t49.5 -122q0 -45 -17 -76t-70 -93q-28 -34 -35 -54t-7 -60v-309q11 4 23 4q41 0 65 -28zM67.5 776.5q8.5 15.5 8.5 40.5q0 24 -8.5 39.5t-21.5 15.5q-14 0 -23.5 -15.5t-9.5 -39.5q0 -25 9.5 -40.5t23.5 -15.5q13 0 21.5 15.5z
M245.5 70q14.5 25 14.5 61q0 22 -8.5 35.5t-22.5 13.5q-22 0 -36.5 -25.5t-14.5 -62.5q0 -21 8.5 -34t22.5 -13q22 0 36.5 25z" />
    <glyph glyph-name="uni0E44" unicode="&#xe44;" horiz-adv-x="346" 
d="M305 207q24 -28 24 -74q0 -63 -33.5 -103t-85.5 -40q-47 0 -73 27t-26 76v766q0 26 -7 39t-25 13q-28 0 -54.5 -26.5t-49.5 -74.5q-26 44 -56 68t-72 32v85q92 -21 128 -86q21 39 56.5 62.5t77.5 23.5q52 0 80 -30t28 -85v-649q11 4 23 4q41 0 65 -28zM254 70
q15 25 15 63q0 20 -8.5 33.5t-21.5 13.5q-23 0 -37.5 -25.5t-14.5 -64.5q0 -19 8.5 -32t21.5 -13q22 0 37 25z" />
    <glyph glyph-name="uni0E45" unicode="&#xe45;" horiz-adv-x="486" 
d="M307 386q0 46 -27 71.5t-76 25.5q-41 0 -69.5 -14t-65.5 -55l-66 63q43 48 89 69.5t113 21.5q99 0 153.5 -47.5t54.5 -134.5v-636h-106v636z" />
    <glyph glyph-name="uni210A" unicode="&#x210a;" horiz-adv-x="576" 
d="M541 389q-47 -5 -69 -25q8 -26 8 -50v-48q0 -46 -23.5 -83.5t-69.5 -59.5t-111 -22q-44 0 -80 11q-7 -10 -7 -22q0 -33 59 -37l103 -7q93 -6 139 -37.5t46 -95.5q0 -70 -62 -110t-185 -40q-121 0 -182.5 36t-61.5 106q0 36 18 64.5t49 46.5q-25 27 -25 65q0 46 31 79
q-37 43 -37 106v48q0 46 22.5 83.5t66.5 59.5t106 22q99 0 155 -51q17 27 44 40t66 14v-93zM371 314q0 35 -25.5 58t-69.5 23t-68.5 -23t-24.5 -58v-48q0 -36 24.5 -58.5t68.5 -22.5t69.5 23t25.5 58v48zM183 -26q-14 -9 -21.5 -24.5t-7.5 -34.5q0 -36 34.5 -52t103.5 -16
q67 0 101 15.5t34 44.5q0 24 -21 34.5t-64 13.5l-87 6q-41 3 -72 13z" />
    <glyph glyph-name="zero" unicode="0" horiz-adv-x="613" 
d="M122 56.5q-64 68.5 -64 196.5v202q0 124 64 190.5t184 66.5q121 0 185 -66t64 -191v-202q0 -128 -64 -196.5t-185 -68.5q-120 0 -184 68.5zM410 119q36 46 36 134v202q0 84 -36 128t-104 44q-67 0 -103 -44.5t-36 -127.5v-202q0 -88 35.5 -134t103.5 -46t104 46z" />
    <glyph glyph-name="one" unicode="1" horiz-adv-x="402" 
d="M314 700v-700h-109v601l-160 -94v97l165 96h104z" />
    <glyph glyph-name="two" unicode="2" horiz-adv-x="594" 
d="M550 85v-85h-506v81l218 192q64 56 98.5 94.5t49 70.5t14.5 68q0 57 -41.5 88t-108.5 31q-104 0 -166 -76l-48 76q45 47 100.5 66t121.5 19q109 0 180 -48.5t71 -153.5q0 -121 -138 -243l-203 -180h358z" />
    </font>
</defs>
</svg>
