<?xml version="1.0" standalone="no"?>
<!DOCTYPE svg PUBLIC "-//W3C//DTD SVG 1.1//EN" "http://www.w3.org/Graphics/SVG/1.1/DTD/svg11.dtd" >
<svg>
<metadata>
Created by FontForge 20090622 at Fri Oct 19 12:28:48 2018
 By deploy user
Copyright (c) 2012, Pablo Impallari (www.impallari.com|impallari@gmail.com),Copyright (c) 2012, Rodrigo Fuenzalida (www.rfuenzalida.com|hello@rfuenzalida.com), Copyright (c) 2012, Igino Marini. (www.ikern.com|mail@iginomarini.com),with Reserved Font Name Life Savers.
</metadata>
<defs>
<font id="LifeSavers-Bold" horiz-adv-x="529" >
  <font-face 
    font-family="Life Savers"
    font-weight="700"
    font-stretch="normal"
    units-per-em="1000"
    panose-1="3 5 6 2 4 3 2 0 0 4"
    ascent="800"
    descent="-200"
    x-height="428"
    cap-height="821"
    bbox="-113 -250 1170 972"
    underline-thickness="56"
    underline-position="-56"
    unicode-range="U+0020-U+FB06"
  />
<missing-glyph horiz-adv-x="670" 
d="M589 815q13 -1 17 -12t4 -23q-1 -92 -1.5 -182.5l-1 -182t-0.5 -185.5v-193q0 -21 -5 -28t-14 -7h-476q-9 0 -14 7t-5 28v193t-0.5 185.5l-1 182t-1.5 182.5q0 12 4 23t19 12q16 1 43 1.5l55.5 1t54 0.5h38.5h65.5t83 -0.5t80 -1t56.5 -1.5zM529 54q19 0 19 21v657
q0 14 -6 20.5t-23 6.5h-339q-21 0 -24.5 -6.5t-3.5 -26.5v-654q0 -11 4 -14.5t15 -3.5h358zM474 194q0 -6 -3.5 -13t-8.5 -13t-10.5 -10.5t-10.5 -4.5q-8 0 -24.5 25.5t-58.5 70.5q-19 -20 -36.5 -40.5l-32 -37t-26.5 -26.5t-19 -10t-16.5 11.5t-9.5 18.5q0 9 9 18t17 20
l37 45l18 21l9.5 11t12.5 16l-53.5 70.5l-35 46t-19.5 26.5t-6 13q0 3 3.5 8.5t8 11.5t9.5 10t8 4q12 0 23.5 -15.5l27.5 -35.5l20.5 -26.5l48.5 -63.5l38 52q20 28 32 40.5t23 12.5q3 0 7.5 -3.5t9 -8.5t8 -10.5t3.5 -9.5q0 -8 -6 -15q-24 -29 -41 -52l-38 -52
q40 -46 61 -72.5t21 -32.5z" />
    <glyph glyph-name="f_b" unicode="fb" horiz-adv-x="807" 
d="M426 334q28 60 73 92t102 32q49 0 83 -23t54 -58t29 -77t9 -80q0 -65 -21.5 -109t-54 -70.5t-71.5 -38t-74 -11.5q-30 0 -52 7t-38 18t-27.5 24.5t-19.5 27.5q-2 -26 -4 -41.5t-6 -24t-11 -11.5t-18 -3q-18 0 -25 11t-7 37q0 44 4.5 164t4.5 326v58.5v44.5t-0.5 38
t-0.5 38q-1 29 -16 46.5t-42 17.5q-34 0 -57.5 -14t-38.5 -37.5t-23 -53.5t-12 -61.5t-4.5 -62.5t-0.5 -56q0 -6 8 -6h78q10 0 21.5 -6.5t11.5 -24.5q0 -16 -12 -22.5t-23 -6.5q-5 0 -14 0.5t-19 0.5t-19.5 0.5t-13.5 0.5q-18 0 -18 -11v-351h109q15 0 22 -6.5t7 -27.5
q0 -7 -8 -15t-34 -8q-9 0 -23 0.5t-29.5 0.5t-31 0.5t-26.5 0.5q-27 0 -54.5 -1.5t-38.5 -1.5q-14 0 -24 6.5t-10 14.5q0 13 3 19.5t7.5 9t10.5 3t11 1.5q21 3 28.5 6t8.5 15q2 12 3 36t1.5 55t0.5 66v68v94q0 14 -2.5 20t-10.5 6h-47q-17 0 -26 9t-9 23q0 15 10 20.5
t28 5.5h44q8 0 10 4t2 9q0 54 6 112.5t28 108t65 81.5t118 32q42 0 65.5 -10.5t34.5 -28.5t13.5 -42t2.5 -51v-359zM425 179q0 -23 5.5 -45.5t19.5 -40.5t39.5 -29.5t65.5 -11.5q21 0 47 6.5t48.5 26t37.5 53.5t15 90q0 45 -11 77t-27.5 52.5t-36 30t-36.5 9.5
q-33 0 -63 -17t-53 -46.5t-37 -69.5t-14 -85z" />
    <glyph glyph-name="f_f" unicode="ff" horiz-adv-x="511" 
d="M342 702q-7 6 -16 11.5t-25 5.5q-57 0 -88.5 -24.5t-45.5 -60t-16.5 -76.5t-2.5 -74q0 -11 8 -11h78q10 0 23.5 -4.5t13.5 -23.5q0 -12 -4 -18.5t-10 -9.5t-12.5 -3.5t-12.5 -0.5q-5 0 -14 0.5t-19 0.5t-19.5 0.5t-13.5 0.5q-12 0 -15 -3t-3 -8v-435h109q15 0 27 -4.5
t12 -25.5q0 -17 -13 -23t-39 -6q-9 0 -23 0.5t-29.5 0.5t-31 0.5t-26.5 0.5q-14 0 -29.5 -0.5l-30.5 -1t-26.5 -1t-17.5 -0.5q-7 0 -14.5 0.5t-14 3t-11 7.5t-4.5 15q0 9 4.5 14t11 8t14 4.5t12.5 1.5q24 2 33.5 6t10.5 15q1 18 2.5 49.5t2 66.5l1 67t0.5 50q0 48 -1 96
t-1 96q0 3 -2.5 4.5t-10.5 1.5h-37q-17 0 -28 6.5t-11 23.5q0 20 12 24t30 4h34q8 0 10 5.5t2 12.5q1 26 3.5 57t10 62.5t22 61.5t39.5 52.5t61.5 36.5t89.5 14q32 0 51.5 -9t34.5 -23zM287 75q6 70 6 142q0 48 -1 96t-1 96q0 3 -2.5 4.5t-10.5 1.5h-37q-17 0 -28 6.5
t-11 23.5q0 20 12 24t30 4h34q8 0 10 5.5t2 12.5q1 26 3.5 61t10 72t22 73t39.5 64.5t61.5 46t89.5 17.5q37 0 62 -11.5t39 -28t20 -35t6 -32.5q0 -42 -18 -59t-36 -17q-24 0 -36 14t-12 30q0 8 3.5 18t11.5 17q6 6 10.5 10t4.5 11q0 6 -15 16.5t-40 10.5q-38 0 -64.5 -14.5
t-43.5 -38.5t-26 -54.5t-13.5 -62t-5 -62t-0.5 -53.5q0 -11 8 -11h78q10 0 23.5 -4.5t13.5 -23.5q0 -12 -4 -18.5t-10 -9.5t-12.5 -3.5t-12.5 -0.5q-5 0 -14 0.5t-19 0.5t-19.5 0.5t-13.5 0.5q-12 0 -15 -3t-3 -8v-344h109q15 0 27 -4.5t12 -25.5q0 -17 -13 -23t-39 -6
q-9 0 -23 0.5t-29.5 0.5t-31 0.5t-26.5 0.5q-14 0 -29.5 -0.5l-30.5 -1t-26.5 -1t-17.5 -0.5q-7 0 -14.5 0.5t-14 3t-11 7.5t-4.5 15q0 9 4.5 14t11 8t14 4.5t12.5 1.5q24 2 33.5 6t10.5 15z" />
    <glyph glyph-name="f_f_b" unicode="ffb" horiz-adv-x="1021" 
d="M639 179q0 -23 5.5 -45.5t19.5 -40.5t39.5 -29.5t65.5 -11.5q21 0 47 6.5t48.5 26t37.5 53.5t15 90q0 45 -11 77t-27.5 52.5t-36 30t-36.5 9.5q-33 0 -63 -17t-53 -46.5t-37 -69.5t-14 -85zM640 334q28 60 73 92t102 32q49 0 83 -23t54 -58t29 -77t9 -80
q0 -65 -21.5 -109t-54 -70.5t-71.5 -38t-74 -11.5q-30 0 -52 7t-38 18t-27.5 24.5t-19.5 27.5q-2 -26 -4 -41.5t-6 -24t-11 -11.5t-18 -3q-18 0 -25 11t-7 37q0 44 4.5 164t4.5 326v58.5v44.5t-0.5 38t-0.5 38q-1 29 -16 46.5t-42 17.5q-34 0 -57.5 -14t-38.5 -37.5
t-23 -53.5t-12 -61.5t-4.5 -62.5t-0.5 -56q0 -6 8 -6h78q10 0 21.5 -6.5t11.5 -24.5q0 -16 -12 -22.5t-23 -6.5q-5 0 -14 0.5t-19 0.5t-19.5 0.5t-13.5 0.5q-18 0 -18 -11v-351h109q15 0 22 -6.5t7 -27.5q0 -7 -8 -15t-34 -8q-9 0 -23 0.5t-29.5 0.5t-31 0.5t-26.5 0.5
q-27 0 -54.5 -1.5t-38.5 -1.5q-14 0 -24 6.5t-10 14.5q0 13 3 19.5t7.5 9t10.5 3t11 1.5q21 3 28.5 6t8.5 15q2 12 3 36t1.5 55t0.5 66v68v94q0 14 -2.5 20t-10.5 8h-126q-12 0 -15 -3t-3 -8v-435h89q15 0 27 -4.5t12 -25.5q0 -17 -13 -23t-39 -6q-18 0 -42.5 1t-47.5 1
q-14 0 -32.5 -0.5l-37 -1t-33.5 -1t-21 -0.5q-7 0 -14.5 0.5t-14 3t-11 7.5t-4.5 15q0 9 4.5 14t11 8t14 4.5t12.5 1.5q24 2 43.5 6t20.5 15q1 18 2.5 49.5t2 66.5l1 67t0.5 50q0 48 -1 96t-1 96q0 3 -2.5 4.5t-10.5 1.5h-37q-17 0 -28 6.5t-11 23.5q0 20 12 24t30 4h34
q8 0 10 5.5t2 12.5q1 26 3.5 57t10 62.5t22 61.5t39.5 52.5t61.5 36.5t89.5 14q23 0 39.5 -5.5t29.5 -13.5q24 29 60.5 45.5t90.5 16.5q42 0 65.5 -10.5t34.5 -28.5t13.5 -42t2.5 -51v-359zM295 478q8 0 10 4t2 9q0 54 5.5 112.5t28.5 108.5q-6 5 -14.5 9.5t-22.5 4.5
q-57 0 -88.5 -24.5t-45.5 -60t-16.5 -76.5t-2.5 -74q0 -11 8 -11z" />
    <glyph glyph-name="f_f_h" unicode="ffh" horiz-adv-x="1029" 
d="M515 825q42 0 66.5 -12.5t37.5 -30.5t17 -37t4 -32v-13.5v-23t-0.5 -40.5t-0.5 -66v-100.5v-142.5q26 48 69 74.5t97 26.5q41 0 66.5 -14t40.5 -35t21 -44.5t8 -41.5q3 -26 3.5 -52t0.5 -65v-188h49q20 0 37 -4t17 -24q0 -6 -7 -13.5t-22 -7.5q-8 0 -20.5 0.5t-26.5 1
l-28 1t-24 0.5q-22 0 -48.5 -1.5t-40.5 -1.5q-17 0 -24 8t-7 13q0 10 6.5 15.5t16.5 8t21.5 3t22.5 2.5q3 2 4 8t1 23q1 8 1.5 21.5t1 28.5t0.5 29.5v23.5v30t-1 43l-2 47t-3 42q-1 10 -5 24.5t-13.5 28t-25.5 22.5t-42 9q-38 0 -66 -16.5t-47 -43.5t-28 -61t-9 -68v-128h73
q16 0 30.5 -4t14.5 -24q0 -6 -7.5 -15t-15.5 -9q-29 0 -61 1.5t-55 1.5t-35 -1.5t-34 -1.5q-18 0 -26.5 7t-8.5 14q0 14 3.5 20t8 7.5t9.5 1.5t8 2q14 2 20 9.5t6 30.5q0 21 1 58.5t2.5 85t2.5 99.5t1 101q-1 76 -1 138v151q0 44 -46 44q-35 0 -58.5 -15t-39 -39t-24 -55
t-12.5 -62.5t-4.5 -61.5t-0.5 -52q0 -11 8 -11h78q10 0 21 -6t11 -20q0 -17 -11.5 -23t-22.5 -6q-5 0 -14 0.5t-19 0.5t-19.5 0.5t-13.5 0.5q-18 0 -18 -11v-361h31q15 0 22.5 -4t7.5 -20q0 -7 -8.5 -15t-34.5 -8q-9 0 -14 0.5t-9.5 0.5t-10.5 0.5t-17 0.5q-27 0 -52.5 -1.5
t-36.5 -1.5q-14 0 -26.5 6.5t-12.5 14.5q0 10 4 14.5t9.5 6t12 1.5t11.5 1l36.5 7t16.5 14q1 6 2 31.5t1.5 60t0.5 73v70.5v94q0 14 -2.5 20t-10.5 6h-27q-7 -5 -14.5 -6t-14.5 -1q-5 0 -14 0.5t-19 0.5t-19.5 0.5t-13.5 0.5q-12 0 -15 -3t-3 -8v-435h109q15 0 27 -4.5
t12 -25.5q0 -17 -13 -23t-39 -6q-9 0 -23 0.5t-29.5 0.5t-31 0.5t-26.5 0.5q-14 0 -29.5 -0.5l-30.5 -1t-26.5 -1t-17.5 -0.5q-7 0 -14.5 0.5t-14 3t-11 7.5t-4.5 15q0 9 4.5 14t11 8t14 4.5t12.5 1.5q24 2 33.5 6t10.5 15q1 18 2.5 49.5t2 66.5l1 67t0.5 50q0 48 -1 96
t-1 96q0 3 -2.5 4.5t-10.5 1.5h-57q-17 0 -28 6.5t-11 23.5q0 20 12 24t30 4h54q8 0 10 5.5t2 12.5q1 26 3.5 57t10 62.5t22 61.5t38.5 52.5t59.5 36.5t85.5 14q40 0 69 -16q22 30 55 48t81 18zM304 473q9 0 11.5 9t2.5 24q1 47 7 100.5t26 101.5q-6 5 -14.5 8t-19.5 3
q-57 0 -88.5 -24.5t-45.5 -60t-16.5 -76.5t-2.5 -74q0 -11 8 -11h132z" />
    <glyph glyph-name="f_f_i" unicode="ffi" horiz-adv-x="725" 
d="M633 428q0 -35 -1 -81.5t-1.5 -94.5t-1.5 -94t-1 -81v-25v-29t0.5 -29.5t0.5 -24.5h70q23 0 35.5 -6t12.5 -20q0 -15 -10 -18.5t-20 -3.5h-161q-12 0 -25 0.5t-23.5 2.5t-17 6.5t-6.5 12.5q0 14 11 18t23 6q26 3 34 6t8 15q3 20 4 60t1 97q0 38 -0.5 80.5t-1 79.5t-1 64
t-1.5 34q-1 6 -4 11.5t-14 5.5q-2 0 -12.5 -0.5t-23 -0.5t-24.5 -0.5t-18 -0.5q-8 0 -21 0.5t-25.5 0.5t-23.5 0.5t-16 0.5q-18 0 -18 -11v-21.5t-0.5 -44.5t-0.5 -56t-0.5 -57t-0.5 -47.5v-27.5q0 -38 4 -70t5 -37h102q31 0 31 -24q0 -12 -9 -17.5t-35 -5.5q-9 0 -23 0.5
t-29.5 0.5t-31 0.5t-26.5 0.5q-27 0 -52.5 -1.5t-36.5 -1.5q-14 0 -26.5 2.5t-12.5 18.5q0 14 13 17.5t24 5.5q23 3 27 6.5t6 14.5t3 36.5t1.5 58.5t0.5 70v70v94q0 14 -2.5 20t-10.5 7h-115q-12 0 -15 -3t-3 -8v-438h109q15 0 27 -4.5t12 -25.5q0 -17 -13 -23t-39 -6
q-9 0 -23 0.5t-29.5 0.5t-31 0.5t-26.5 0.5q-14 0 -29.5 -0.5l-30.5 -1t-26.5 -1t-17.5 -0.5q-7 0 -14.5 0.5t-14 3t-11 7.5t-4.5 15q0 9 4.5 14t11 8t14 4.5t12.5 1.5q24 2 33.5 7.5t10.5 16.5q1 18 2.5 49.5t2 66.5l1 67t0.5 50q0 48 -1 96t-1 96q0 3 -2.5 4.5t-10.5 1.5
h-37q-17 0 -28 6.5t-11 23.5q0 20 12 24t30 4h34q8 0 10 5.5t2 12.5q1 26 3.5 57t10 62.5t22 61.5t39.5 52.5t61.5 36.5t89.5 14q20 0 34.5 -3.5t25.5 -9.5q23 26 58.5 41.5t86.5 15.5q24 0 49 -6.5t45.5 -25.5t33 -52t12.5 -85q0 -16 -2.5 -30.5t-9.5 -26t-18 -18t-29 -6.5
q-29 0 -41 13t-12 30q0 13 6 19.5t13.5 13.5t14 16.5t6.5 29.5q0 12 -4.5 24t-14.5 22t-26.5 16t-40.5 6q-30 0 -51 -14t-35 -37t-22 -52t-12.5 -58.5t-5.5 -57.5t-1 -48q0 -14 1.5 -17t6.5 -3h232q19 0 25.5 -13.5t6.5 -36.5zM294 509q1 49 6.5 105t27.5 104q-5 3 -11.5 5
t-15.5 2q-57 0 -88.5 -24.5t-45.5 -60t-16.5 -76.5t-2.5 -74q0 -7 2 -9t6 -3h125q9 0 11 8t2 23z" />
    <glyph glyph-name="f_f_j" unicode="ffj" horiz-adv-x="701" 
d="M341 702q-7 6 -16 11.5t-25 5.5q-53 0 -83.5 -27t-46 -64t-19.5 -76t-4 -63q0 -8 2 -9.5t6 -1.5h88q5 0 12.5 -1t15 -4t12.5 -8.5t5 -14.5q0 -20 -15 -25t-32 -5h-76q-18 0 -18 -11v-439h109q15 0 27 -4.5t12 -25.5q0 -17 -13 -23t-39 -6q-9 0 -23 0.5t-29.5 0.5t-31 0.5
t-26.5 0.5q-14 0 -29.5 -0.5l-30.5 -1t-26.5 -1t-17.5 -0.5q-7 0 -14.5 0.5t-14 3t-11 7.5t-4.5 15q0 9 4.5 14t11 8t14 4.5t12.5 1.5q24 2 33.5 7t10.5 16q1 18 2.5 49t2 65.5l1 66t0.5 49.5q0 51 -1 98.5t-1 98.5q0 3 -2.5 4.5t-10.5 1.5h-37q-17 0 -28 6.5t-11 23.5
q0 20 12 24t30 4h34q8 0 10 8t2 15q1 25 3.5 55t10 60.5t22 59t39.5 50.5t61.5 35.5t89.5 13.5q32 0 51.5 -9t34.5 -23zM442 -89q0 -21 -12 -27t-25 -8q-8 -1 -12 -4.5t-4 -14.5q0 -31 85 -31q19 0 34.5 6.5t27.5 22t19.5 41.5t10.5 64q2 26 3.5 71t2.5 93t1.5 90.5
t0.5 63.5v118q0 21 -25 21h-50q-11 0 -25.5 0.5l-30 1t-29.5 1t-22 0.5q-18 0 -18 -11v-21t-0.5 -43.5t-0.5 -55t-0.5 -56.5t-0.5 -47v-27q0 -19 1 -37.5t2 -34.5t2.5 -26.5t1.5 -12.5h106q29 0 29 -24q0 -11 -8 -17t-34 -6q-9 0 -23.5 0.5t-30.5 0.5t-31.5 0.5t-26.5 0.5
q-14 0 -29 -0.5t-28.5 -1t-24.5 -1t-17 -0.5q-14 0 -24 4t-10 17q0 14 10.5 17.5t21.5 5.5q22 3 32 6.5t11 14.5q2 11 3 36.5t1.5 58.5t0.5 70v70v94q0 14 -2.5 20t-10.5 6h-47q-17 0 -26.5 10.5t-9.5 21.5q0 18 10.5 22t28.5 4h44q9 0 11 8t2 23q1 32 3 68.5t9.5 71.5
t21 67t37 56t58 38.5t83.5 14.5q24 0 49 -6.5t45.5 -25.5t33 -52t12.5 -85q0 -41 -13.5 -62t-48.5 -21q-27 0 -38.5 14t-11.5 31q0 13 6 19.5t13.5 13.5t14 16.5t6.5 29.5q0 25 -17.5 46.5t-54.5 21.5q-35 0 -59.5 -14t-40 -37t-24 -52t-12.5 -58.5t-4.5 -57.5t-0.5 -48
q0 -14 1.5 -17t6.5 -3h232q20 0 23.5 -13.5t3.5 -39.5v-35.5t-0.5 -65.5t-1 -81t-1 -81t-0.5 -66v-35q0 -10 -0.5 -24t-1.5 -29t-2 -28.5t-2 -23.5q-6 -59 -21.5 -96t-37 -58.5t-47 -29.5t-50.5 -8q-44 0 -73 9.5t-46.5 25t-24.5 36.5t-7 45q0 29 22.5 48t53.5 19
q11 0 26 -8.5t15 -27.5z" />
    <glyph glyph-name="f_f_k" unicode="ffk" horiz-adv-x="1020" 
d="M341 702q-7 6 -16 11.5t-25 5.5q-53 0 -83.5 -27t-46 -64t-19.5 -76t-4 -63q0 -8 2 -9.5t6 -1.5h88q5 0 12.5 -1t15 -4t12.5 -8.5t5 -14.5q0 -20 -15 -25t-32 -5h-76q-18 0 -18 -11v-439h109q15 0 27 -4.5t12 -25.5q0 -17 -13 -23t-39 -6q-9 0 -23 0.5t-29.5 0.5t-31 0.5
t-26.5 0.5q-14 0 -29.5 -0.5l-30.5 -1t-26.5 -1t-17.5 -0.5q-7 0 -14.5 0.5t-14 3t-11 7.5t-4.5 15q0 9 4.5 14t11 8t14 4.5t12.5 1.5q24 2 33.5 7t10.5 16q1 18 2.5 49t2 65.5l1 66t0.5 49.5q0 51 -1 98.5t-1 98.5q0 3 -2.5 4.5t-10.5 1.5h-37q-17 0 -28 6.5t-11 23.5
q0 20 12 24t30 4h34q8 0 10 8t2 15q1 25 3.5 55t10 60.5t22 59t39.5 50.5t61.5 35.5t89.5 13.5q32 0 51.5 -9t34.5 -23zM577 659q0 27 -0.5 47.5t-5 34.5t-14 21t-27.5 7q-59 0 -91 -30.5t-47 -73.5t-17.5 -89t-2.5 -77q0 -14 2 -17.5t6 -3.5h78q10 0 20 -7.5t10 -23.5
q0 -17 -10.5 -23t-21.5 -6q-5 0 -14 0.5t-19 0.5t-19.5 0.5t-13.5 0.5q-18 0 -18 -11v-361h109q29 0 29 -24q0 -12 -8 -17.5t-34 -5.5q-9 0 -23 0.5t-29.5 0.5t-31 0.5t-26.5 0.5q-27 0 -52.5 -1.5t-36.5 -1.5q-14 0 -25 2.5t-11 18.5q0 14 11.5 17.5t22.5 5.5q21 3 27 6.5
t7 14.5q1 6 2 31.5t1.5 60t0.5 72.5v71v94q0 14 -2.5 20t-10.5 6h-47q-17 0 -27.5 10.5t-10.5 21.5q0 18 11.5 22t29.5 4h44q9 0 11 12t3 33q1 42 8 94t30.5 98.5t68.5 78t122 31.5q38 0 60 -11t32.5 -27.5t13 -36t2.5 -37.5v-448l87.5 79.5t28.5 33.5q0 10 -9 10h-4
q-11 0 -18 5.5t-7 17.5q0 17 20 20.5t57 3.5h79q50 0 72.5 -3.5t22.5 -18.5t-24.5 -20t-76.5 -10q-20 -2 -31 -13l-36 -34l-24.5 -23.5l-20.5 -20.5t-25 -23q18 -40 40 -83.5l43.5 -82.5t40.5 -68.5t30 -41.5q5 -5 11 -9t15 -6t22.5 -3t34.5 -1q12 0 23.5 -1t21 -3.5
t15.5 -7.5t6 -13q0 -17 -43.5 -20.5t-144.5 -4.5q-9 0 -23 19t-31.5 48t-35.5 64l-34.5 67.5l-29 58.5t-18.5 37l-33 -32v-217h61q23 0 32.5 -6.5t9.5 -18.5q0 -14 -8.5 -18t-20.5 -4q-22 0 -46.5 1t-62.5 1q-16 0 -37.5 -1t-35.5 -1q-17 0 -30 4.5t-13 18.5q0 17 8.5 19
t25.5 5q27 5 37 25t10 49q0 32 0.5 56.5t1 46l1 42.5t1 47t1 58.5t0.5 77.5q0 100 -1 168.5t-1 119.5z" />
    <glyph glyph-name="f_f_l" unicode="ffl" horiz-adv-x="711" 
d="M342 702q-7 6 -16 11.5t-25 5.5q-57 0 -88.5 -24.5t-45.5 -60t-16.5 -76.5t-2.5 -74q0 -11 8 -11h78q10 0 23.5 -4.5t13.5 -23.5q0 -12 -4 -18.5t-10 -9.5t-12.5 -3.5t-12.5 -0.5q-5 0 -14 0.5t-19 0.5t-19.5 0.5t-13.5 0.5q-12 0 -15 -3t-3 -8v-435h109q15 0 27 -4.5
t12 -25.5q0 -17 -13 -23t-39 -6q-9 0 -23 0.5t-29.5 0.5t-31 0.5t-26.5 0.5q-14 0 -29.5 -0.5l-30.5 -1t-26.5 -1t-17.5 -0.5q-7 0 -14.5 0.5t-14 3t-11 7.5t-4.5 15q0 9 4.5 14t11 8t14 4.5t12.5 1.5q24 2 33.5 6t10.5 15q1 18 2.5 49.5t2 66.5l1 67t0.5 50q0 48 -1 96
t-1 96q0 3 -2.5 4.5t-10.5 1.5h-37q-17 0 -28 6.5t-11 23.5q0 20 12 24t30 4h34q8 0 10 5.5t2 12.5q1 26 3.5 57t10 62.5t22 61.5t39.5 52.5t61.5 36.5t89.5 14q32 0 51.5 -9t34.5 -23zM524 820q41 0 63 -12t32.5 -29.5t12 -37t1.5 -33.5v-29t-0.5 -34t-0.5 -48.5v-72.5v-94
t0.5 -109.5t0.5 -113t0.5 -105t0.5 -85.5v-54h78q16 0 27 -5.5t11 -16.5q0 -8 -10 -16.5t-32 -8.5q-10 0 -39.5 1t-57.5 1q-20 0 -45.5 -0.5t-55.5 -0.5q-14 0 -24 6t-10 16q0 8 9.5 15.5t21.5 7.5h23q16 0 23.5 8.5t8.5 21.5q2 33 3 85.5t1.5 112.5t0.5 123v118v81
t-0.5 71.5t-0.5 57v37.5q0 18 -0.5 33.5t-5 27t-14 18.5t-27.5 7q-39 0 -66 -15t-44.5 -39.5t-27 -55t-14 -62.5t-5.5 -61.5t-1 -51.5q0 -6 8 -6h78q10 0 20 -7.5t10 -23.5q0 -17 -10.5 -23t-21.5 -6q-5 0 -14 0.5t-19 0.5t-19.5 0.5t-13.5 0.5q-18 0 -18 -11v-361h109
q29 0 29 -24q0 -12 -8 -17.5t-34 -5.5q-9 0 -23 0.5t-29.5 0.5t-31 0.5t-26.5 0.5q-27 0 -52.5 -1.5t-36.5 -1.5q-7 0 -14.5 0.5t-14 2.5t-11 6t-4.5 12q0 7 4.5 11t11 7t14 4t12.5 2q21 3 27 6t7 14q1 6 2 31.5t1.5 60t0.5 72.5v71v94q0 14 -2.5 20t-10.5 6h-47
q-39 0 -39 28q0 18 12 24t30 6h43q9 0 11.5 8t3.5 22q1 44 8 99t30.5 103.5t68.5 81.5t122 33z" />
    <glyph glyph-name="f_h" unicode="fh" horiz-adv-x="824" 
d="M322 825q42 0 64.5 -12.5t33.5 -30.5t13 -37t2 -32v-13.5v-23t-0.5 -40.5t-0.5 -66v-100.5v-142.5q26 48 69 74.5t97 26.5q41 0 66.5 -14t40.5 -35t21 -44.5t8 -41.5q3 -26 3.5 -52t0.5 -65v-188h49q20 0 37 -4t17 -24q0 -6 -7 -13.5t-22 -7.5q-8 0 -20.5 0.5t-26.5 1
l-28 1t-24 0.5q-22 0 -48.5 -1.5t-40.5 -1.5q-17 0 -24 8t-7 13q0 10 6.5 15.5t16.5 8t21.5 3t22.5 2.5q3 2 4 8t1 23q1 8 1.5 21.5t1 28.5t0.5 29.5v23.5v30t-1 43l-2 47t-3 42q-1 10 -5 24.5t-13.5 28t-25.5 22.5t-42 9q-38 0 -66 -16.5t-47 -43.5t-28 -61t-9 -68v-128h73
q16 0 30.5 -4t14.5 -24q0 -6 -7.5 -15t-15.5 -9q-29 0 -61 1.5t-55 1.5t-35 -1.5t-34 -1.5q-18 0 -26.5 7t-8.5 14q0 14 3.5 20t8 7.5t9.5 1.5t8 2q14 2 20 9.5t6 30.5q0 21 1 58.5t2.5 85t2.5 99.5t1 101q-1 76 -1 138v151q0 44 -46 44q-39 0 -66 -15t-44.5 -39t-27 -55
t-14 -62.5t-5.5 -61.5t-1 -52q0 -11 8 -11h78q10 0 21 -6t11 -20q0 -17 -11.5 -23t-22.5 -6q-5 0 -14 0.5t-19 0.5t-19.5 0.5t-13.5 0.5q-18 0 -18 -11v-361h67q15 0 22.5 -4t7.5 -20q0 -7 -8.5 -15t-34.5 -8q-18 0 -31.5 1t-36.5 1q-27 0 -52.5 -1.5t-36.5 -1.5
q-14 0 -26.5 6.5t-12.5 14.5q0 10 4 14.5t9.5 6t12 1.5t11.5 1q21 3 27 6.5t7 14.5q1 6 2 31.5t1.5 60t0.5 73v70.5v94q0 14 -2.5 20t-10.5 6h-47q-17 0 -25.5 10.5t-8.5 21.5q0 14 9.5 17.5t27.5 3.5h44q9 0 11 9t3 24q1 46 8.5 101.5t30.5 104t68 81t121 32.5z" />
    <glyph glyph-name="f_i" unicode="fi" horiz-adv-x="524" 
d="M432 428q0 -35 -1 -81.5t-1.5 -94.5t-1.5 -94t-1 -81v-25v-29t0.5 -29.5t0.5 -24.5h70q23 0 35.5 -6t12.5 -20q0 -15 -10 -18.5t-20 -3.5h-161q-12 0 -25 0.5t-23.5 2.5t-17 6.5t-6.5 12.5q0 14 11 18t23 6q26 3 34 6t8 15q3 20 4 60t1 97q0 38 -0.5 80.5t-1 79.5t-1 64
t-1.5 34q-1 6 -4 11.5t-14 5.5q-2 0 -12.5 -0.5t-23 -0.5t-24.5 -0.5t-18 -0.5q-8 0 -21 0.5t-25.5 0.5t-23.5 0.5t-16 0.5q-18 0 -18 -11v-21.5t-0.5 -44.5t-0.5 -56t-0.5 -57t-0.5 -47.5v-27.5q0 -38 4 -70t5 -37h102q31 0 31 -24q0 -12 -9 -17.5t-35 -5.5q-9 0 -23 0.5
t-29.5 0.5t-31 0.5t-26.5 0.5q-27 0 -52.5 -1.5t-36.5 -1.5q-14 0 -26.5 2.5t-12.5 18.5q0 14 13 17.5t24 5.5q23 3 27 6.5t6 14.5t3 36.5t1.5 58.5t0.5 70v70v94q0 14 -2.5 20t-10.5 6h-47q-17 0 -26 9t-9 22q0 15 10 21t28 6h44q9 0 11 8t2 23q0 32 2.5 68.5t10 71.5
t21 67t37 56t58 38.5t83.5 14.5q24 0 49 -6.5t45.5 -25.5t33 -52t12.5 -85q0 -16 -2.5 -30.5t-9.5 -26t-18 -18t-29 -6.5q-29 0 -41 13t-12 30q0 13 6 19.5t13.5 13.5t14 16.5t6.5 29.5q0 12 -4.5 24t-14.5 22t-26.5 16t-40.5 6q-30 0 -51 -14t-35 -37t-22 -52t-12.5 -58.5
t-5.5 -57.5t-1 -48q0 -14 1.5 -17t6.5 -3h232q19 0 25.5 -13.5t6.5 -36.5z" />
    <glyph glyph-name="f_j" unicode="fj" horiz-adv-x="490" 
d="M231 -89q0 -21 -12 -27t-25 -8q-8 -1 -12 -4.5t-4 -14.5q0 -31 85 -31q19 0 34.5 6.5t27.5 22t19.5 41.5t10.5 64q2 26 3.5 71t2.5 93t1.5 90.5t0.5 63.5v118q0 21 -25 21h-50q-11 0 -25.5 0.5l-30 1t-29.5 1t-22 0.5q-18 0 -18 -11v-21t-0.5 -43.5t-0.5 -55t-0.5 -56.5
t-0.5 -47v-27q0 -19 1 -37.5t2 -34.5t2.5 -26.5t1.5 -12.5h106q29 0 29 -24q0 -11 -8 -17t-34 -6q-9 0 -23.5 0.5t-30.5 0.5t-31.5 0.5t-26.5 0.5q-14 0 -29 -0.5t-28.5 -1t-24.5 -1t-17 -0.5q-14 0 -24 4t-10 17q0 14 10.5 17.5t21.5 5.5q22 3 32 6.5t11 14.5q2 11 3 36.5
t1.5 58.5t0.5 70v70v94q0 14 -2.5 20t-10.5 6h-47q-17 0 -26.5 10.5t-9.5 21.5q0 18 10.5 22t28.5 4h44q9 0 11 8t2 23q1 32 3 68.5t9.5 71.5t21 67t37 56t58 38.5t83.5 14.5q24 0 49 -6.5t45.5 -25.5t33 -52t12.5 -85q0 -41 -13.5 -62t-48.5 -21q-27 0 -38.5 14t-11.5 31
q0 13 6 19.5t13.5 13.5t14 16.5t6.5 29.5q0 25 -17.5 46.5t-54.5 21.5q-35 0 -59.5 -14t-40 -37t-24 -52t-12.5 -58.5t-4.5 -57.5t-0.5 -48q0 -14 1.5 -17t6.5 -3h232q20 0 23.5 -13.5t3.5 -39.5v-35.5t-0.5 -65.5t-1 -81t-1 -81t-0.5 -66v-35q0 -10 -0.5 -24t-1.5 -29
t-2 -28.5t-2 -23.5q-6 -59 -21.5 -96t-37 -58.5t-47 -29.5t-50.5 -8q-44 0 -73 9.5t-46.5 25t-24.5 36.5t-7 45q0 29 22.5 48t53.5 19q11 0 26 -8.5t15 -27.5z" />
    <glyph glyph-name="f_k" unicode="fk" horiz-adv-x="809" 
d="M366 659q0 27 -0.5 47.5t-5 34.5t-14 21t-27.5 7q-59 0 -91 -30.5t-47 -73.5t-17.5 -89t-2.5 -77q0 -14 2 -17.5t6 -3.5h78q10 0 20 -7.5t10 -23.5q0 -17 -10.5 -23t-21.5 -6q-5 0 -14 0.5t-19 0.5t-19.5 0.5t-13.5 0.5q-18 0 -18 -11v-361h109q29 0 29 -24
q0 -12 -8 -17.5t-34 -5.5q-9 0 -23 0.5t-29.5 0.5t-31 0.5t-26.5 0.5q-27 0 -52.5 -1.5t-36.5 -1.5q-14 0 -25 2.5t-11 18.5q0 14 11.5 17.5t22.5 5.5q21 3 27 6.5t7 14.5q1 6 2 31.5t1.5 60t0.5 72.5v71v94q0 14 -2.5 20t-10.5 6h-47q-17 0 -27.5 10.5t-10.5 21.5
q0 18 11.5 22t29.5 4h44q9 0 11 12t3 33q1 42 8 94t30.5 98.5t68.5 78t122 31.5q38 0 60 -11t32.5 -27.5t13 -36t2.5 -37.5v-448l87.5 79.5t28.5 33.5q0 10 -9 10h-4q-11 0 -18 5.5t-7 17.5q0 17 20 20.5t57 3.5h79q50 0 72.5 -3.5t22.5 -18.5t-24.5 -20t-76.5 -10
q-20 -2 -31 -13l-36 -34l-24.5 -23.5l-20.5 -20.5t-25 -23q18 -40 40 -83.5l43.5 -82.5t40.5 -68.5t30 -41.5q5 -5 11 -9t15 -6t22.5 -3t34.5 -1q12 0 23.5 -1t21 -3.5t15.5 -7.5t6 -13q0 -17 -43.5 -20.5t-144.5 -4.5q-9 0 -23 19t-31.5 48t-35.5 64l-34.5 67.5l-29 58.5
t-18.5 37l-33 -32v-217h61q23 0 32.5 -6.5t9.5 -18.5q0 -14 -8.5 -18t-20.5 -4q-22 0 -46.5 1t-62.5 1q-16 0 -37.5 -1t-35.5 -1q-17 0 -30 4.5t-13 18.5q0 17 8.5 19t25.5 5q27 5 37 25t10 49q0 32 0.5 56.5t1 46l1 42.5t1 47t1 58.5t0.5 77.5q0 100 -1 168.5t-1 119.5z
" />
    <glyph glyph-name="f_l" unicode="fl" horiz-adv-x="532" 
d="M327 825q41 0 63 -12t32.5 -29.5t12 -37t1.5 -33.5v-29t-0.5 -34t-0.5 -48.5v-72.5v-94t0.5 -109.5t0.5 -113t0.5 -105t0.5 -85.5v-54h78q16 0 27 -5.5t11 -16.5q0 -8 -10 -16.5t-32 -8.5q-10 0 -39.5 1t-57.5 1q-20 0 -45.5 -0.5t-55.5 -0.5q-14 0 -24 6t-10 16
q0 8 9.5 15.5t21.5 7.5h23q16 0 23.5 8.5t8.5 21.5q2 33 3 85.5t1.5 112.5t0.5 123v118v81t-0.5 71.5t-0.5 57v37.5q0 18 -0.5 33.5t-5 27t-14 18.5t-27.5 7q-39 0 -66 -15t-44.5 -39.5t-27 -55t-14 -62.5t-5.5 -61.5t-1 -51.5q0 -6 8 -6h78q10 0 20 -7.5t10 -23.5
q0 -17 -10.5 -23t-21.5 -6q-5 0 -14 0.5t-19 0.5t-19.5 0.5t-13.5 0.5q-18 0 -18 -11v-361h109q29 0 29 -24q0 -12 -8 -17.5t-34 -5.5q-9 0 -23 0.5t-29.5 0.5t-31 0.5t-26.5 0.5q-27 0 -52.5 -1.5t-36.5 -1.5q-7 0 -14.5 0.5t-14 2.5t-11 6t-4.5 12q0 7 4.5 11t11 7t14 4
t12.5 2q21 3 27 6t7 14q1 6 2 31.5t1.5 60t0.5 72.5v71v94q0 14 -2.5 20t-10.5 6h-47q-39 0 -39 28q0 18 12 24t30 6h43q9 0 11.5 8t3.5 22q1 44 8 99t30.5 103.5t68.5 81.5t122 33z" />
    <glyph glyph-name="f_t" unicode="ft" horiz-adv-x="614" 
d="M323 418q-9 0 -31 0.5t-45 0.5t-41.5 0.5t-22.5 0.5q-18 0 -18 -11v-361h109q14 0 23 -5t9 -17t-10.5 -18.5t-37.5 -6.5q-6 0 -19.5 0.5t-29.5 0.5t-31.5 0.5t-26.5 0.5q-27 0 -52 -1.5t-39 -1.5q-5 0 -12.5 0.5t-14 2.5t-11 6t-4.5 11t4.5 11t11 7t13.5 4t13 2
q21 3 26.5 6t7.5 15q1 13 2.5 67.5t1.5 167.5v94q0 14 -2.5 20t-10.5 6h-47q-17 0 -28 7.5t-11 24.5t12 21.5t30 4.5h44q8 0 10 9t2 19q0 27 2 61.5t8.5 70t18.5 69t32.5 60t51 42.5t74.5 16q40 0 62 -12.5t33 -30.5t13.5 -38t2.5 -34v-19.5t-0.5 -39t-0.5 -67v-104.5
q9 0 33.5 0.5t51.5 1t50 1t28 0.5q14 0 27 -5.5t13 -22.5q0 -15 -10 -22t-18 -8q-17 -2 -39.5 -2.5t-46.5 -1.5t-47.5 -1.5t-41.5 -1.5v-266q0 -14 1 -32t8 -34t22 -26.5t42 -10.5q19 0 31 5t20 13t12.5 17.5t7.5 17.5l12.5 31t23.5 14q14 0 23 -9t9 -23q0 -11 -7 -32
t-24 -42t-45.5 -36.5t-72.5 -15.5q-29 0 -58.5 9.5t-47.5 32.5q-11 13 -16.5 31t-8.5 36t-3.5 35.5t-0.5 31.5zM165 505q0 -17 1.5 -22t6.5 -5h150v205q0 50 -8 68t-33 18q-38 0 -61 -28.5t-35.5 -69.5t-16.5 -86.5t-4 -79.5z" />
    <glyph glyph-name="l_l" unicode="ll" horiz-adv-x="453" 
d="M0 0zM167 785q0 -25 -0.5 -52.5t-0.5 -51v-39v-16.5q0 -226 1 -364t1 -205h46q31 0 40.5 -10t9.5 -22q0 -8 -8.5 -17t-29.5 -9q-7 0 -19 0.5t-25.5 1l-28 1t-27.5 0.5q-10 0 -22.5 -0.5t-25 -0.5t-24 -0.5t-19.5 -0.5q-24 0 -33.5 8.5t-9.5 17.5q0 15 8 20.5t13 5.5l33 2
q45 3 47 31q1 28 2 59t2 70t1 88v111v112.5t-0.5 87t-0.5 69.5v60q0 16 -3 22t-16 6h-62q-21 0 -33.5 4.5t-12.5 16.5q0 10 14.5 15.5t36 8.5t45.5 4t44 1q28 0 42.5 -4.5t14.5 -30.5zM372 720q0 -25 -0.5 -52.5t-0.5 -51v-39v-16.5q0 -226 1 -364t1 -205h46q31 0 40.5 -10
t9.5 -22q0 -8 -8.5 -17t-29.5 -9q-7 0 -19 0.5t-25.5 1l-28 1t-27.5 0.5q-10 0 -22.5 -0.5t-25 -0.5t-24 -0.5t-19.5 -0.5q-24 0 -33.5 8.5t-9.5 17.5q0 15 8 20.5t13 5.5l33 2q45 3 47 31q1 28 2 59t2 70t1 88v111v112.5t-0.5 87t-0.5 69.5v60q0 16 -3 22t-16 6h-62
q-21 0 -33.5 4.5t-12.5 16.5q0 10 14.5 15.5t36 8.5t45.5 4t44 1q28 0 42.5 -4.5t14.5 -30.5z" />
    <glyph glyph-name="t_t" unicode="tt" horiz-adv-x="541" 
d="M96 404q-19 0 -42.5 -1t-41.5 -1q-6 0 -17.5 6t-11.5 24q0 14 10 20.5t24 8.5l51 5q20 2 24 9.5t4 24.5q0 21 0.5 45.5t5.5 44.5t16 24t16 4q13 0 23 -6.5t10 -36.5v-114l76 5q17 1 22.5 9t5.5 25q0 21 0.5 45.5t5.5 44.5t16 24t16 4q13 0 23 -6.5t10 -36.5v-107
q7 0 27 0.5t42.5 1.5t41.5 1.5t25 0.5q12 0 24 -6.5t12 -22.5q0 -14 -9 -20.5t-18 -8.5q-36 -4 -73.5 -5t-71.5 -3v-316q0 -16 2 -34t7.5 -33.5t16 -25.5t28.5 -10q16 0 26 5.5t17 13.5t11 17t7 17t5.5 16t6.5 14.5t11 10.5t19 4q8 0 13 -4t7.5 -9t3.5 -10t1 -7
q0 -14 -8 -36t-25.5 -42.5t-44.5 -35t-64 -14.5q-57 0 -84 41q-14 22 -20 47q-15 -12 -32.5 -19t-39.5 -7q-57 0 -84 41q-10 15 -15 32.5t-7.5 36t-3 35.5t-0.5 31v239zM272 404q-9 0 -22.5 -0.5t-28.5 -0.5t-29.5 -0.5t-24.5 -0.5v-250q0 -16 1.5 -34t7 -33.5t16 -25.5
t28.5 -10q20 0 32.5 15.5t17.5 38.5z" />
    <glyph glyph-name="t_z" unicode="t&#x7a;" horiz-adv-x="690" 
d="M474 438q32 0 72 1t72 1q17 0 24 -5t7 -12q0 -10 -20.5 -38t-51.5 -65.5l-66.5 -79.5l-66.5 -78.5l-51.5 -62.5t-20.5 -33t17 -7h189q7 0 9 19l7 73q2 26 8 40.5t28 14.5q17 0 21 -8.5t4 -16.5l-6 -96q-1 -11 -1.5 -32.5t-0.5 -34.5q0 -19 -14 -19q-35 0 -59 0.5
t-42.5 0.5t-35.5 0.5t-39 0.5t-46.5 -0.5t-46.5 -1t-39.5 -1t-25.5 -0.5q-18 0 -26.5 2t-8.5 13q0 9 14 32t35.5 53t49 65l55 68l51.5 61.5l40 47.5q2 2 6 6.5l8 9t7 8.5t3 6t-3.5 5t-11.5 3h-68q-72 0 -142.5 -2t-142.5 -3v-221q0 -18 0.5 -38t5 -36.5t14 -27.5t27.5 -11
q8 0 14.5 -6t6.5 -19q0 -10 -7.5 -17.5t-20.5 -7.5q-57 0 -84 41q-10 15 -15.5 32.5t-8.5 36t-3.5 35.5t-0.5 31v208q-19 0 -42 -1t-41 -1q-8 0 -16 6.5t-8 20.5q0 9 6 18t23 11l51 6q10 1 15.5 7.5t8.5 16t3.5 21t0.5 22.5q0 21 1 45.5t6 44.5t12.5 26.5t17.5 6.5
q17 0 25.5 -9t8.5 -39v-140q29 0 48 0.5t39 0.5t46 0.5t69 0.5q13 0 36 0.5t49 0.5h22z" />
    <glyph glyph-name=".notdef" horiz-adv-x="670" 
d="M589 815q13 -1 17 -12t4 -23q-1 -92 -1.5 -182.5l-1 -182t-0.5 -185.5v-193q0 -21 -5 -28t-14 -7h-476q-9 0 -14 7t-5 28v193t-0.5 185.5l-1 182t-1.5 182.5q0 12 4 23t19 12q16 1 43 1.5l55.5 1t54 0.5h38.5h65.5t83 -0.5t80 -1t56.5 -1.5zM529 54q19 0 19 21v657
q0 14 -6 20.5t-23 6.5h-339q-21 0 -24.5 -6.5t-3.5 -26.5v-654q0 -11 4 -14.5t15 -3.5h358zM474 194q0 -6 -3.5 -13t-8.5 -13t-10.5 -10.5t-10.5 -4.5q-8 0 -24.5 25.5t-58.5 70.5q-19 -20 -36.5 -40.5l-32 -37t-26.5 -26.5t-19 -10t-16.5 11.5t-9.5 18.5q0 9 9 18t17 20
l37 45l18 21l9.5 11t12.5 16l-53.5 70.5l-35 46t-19.5 26.5t-6 13q0 3 3.5 8.5t8 11.5t9.5 10t8 4q12 0 23.5 -15.5l27.5 -35.5l20.5 -26.5l48.5 -63.5l38 52q20 28 32 40.5t23 12.5q3 0 7.5 -3.5t9 -8.5t8 -10.5t3.5 -9.5q0 -8 -6 -15q-24 -29 -41 -52l-38 -52
q40 -46 61 -72.5t21 -32.5z" />
    <glyph glyph-name="NULL" horiz-adv-x="0" 
 />
    <glyph glyph-name="nonmarkingreturn" horiz-adv-x="338" 
 />
    <glyph glyph-name="space" unicode=" " horiz-adv-x="218" 
 />
    <glyph glyph-name="Aacute" unicode="&#xc1;" horiz-adv-x="698" 
d="M429 941q0 -12 -14 -27t-32.5 -28.5t-38 -22.5t-29.5 -9q-11 0 -17.5 6.5t-6.5 16.5t12.5 26t29.5 31.5t35 26.5t29 11q15 0 23.5 -8.5t8.5 -22.5zM600 23q6 -23 35.5 -27.5t77.5 -4.5q14 0 27.5 -4t13.5 -18t-9 -19t-26 -5h-233q-18 0 -24.5 4t-6.5 12q0 11 11 13.5
t24.5 5t24.5 9.5t11 26q0 5 -3.5 20.5l-8.5 36l-11 44t-12 44.5l-11 38t-7 25h-248l-14.5 -43.5t-14 -46t-10.5 -41t-4 -27.5q0 -6 7.5 -9.5t19 -5t25 -1.5h24.5q10 0 19.5 -5t9.5 -20q0 -9 -7 -16.5t-27 -7.5h-267q-9 0 -16 6.5t-7 17.5q0 10 7.5 15.5t17.5 5.5q7 0 18 1
l22 2t19.5 2t11.5 1q21 2 32 11t17 27q15 42 33.5 103l38 131l40 143.5l38.5 140l33.5 121.5l25.5 88q2 8 10 14.5t26 6.5q29 0 35 -21zM356 715l-13 -50l-18 -69l-21.5 -80l-22 -83l-20.5 -78.5l-17 -65.5q31 -1 59.5 -1h59.5h47.5t47.5 1l-25 99l-26.5 109l-26.5 111.5z
" />
    <glyph glyph-name="Abreve" unicode="&#x102;" horiz-adv-x="698" 
d="M0 0zM600 23q6 -23 35.5 -27.5t77.5 -4.5q14 0 27.5 -4t13.5 -18t-9 -19t-26 -5h-233q-18 0 -24.5 4t-6.5 12q0 11 11 13.5t24.5 5t24.5 9.5t11 26q0 5 -3.5 20.5l-8.5 36l-11 44t-12 44.5l-11 38t-7 25h-248l-14.5 -43.5t-14 -46t-10.5 -41t-4 -27.5q0 -6 7.5 -9.5
t19 -5t25 -1.5h24.5q10 0 19.5 -5t9.5 -20q0 -9 -7 -16.5t-27 -7.5h-267q-9 0 -16 6.5t-7 17.5q0 10 7.5 15.5t17.5 5.5q7 0 18 1l22 2t19.5 2t11.5 1q21 2 32 11t17 27q15 42 33.5 103l38 131l40 143.5l38.5 140l33.5 121.5l25.5 88q2 8 10 14.5t26 6.5q29 0 35 -21z
M356 715l-13 -50l-18 -69l-21.5 -80l-22 -83l-20.5 -78.5l-17 -65.5q31 -1 59.5 -1h59.5h47.5t47.5 1l-25 99l-26.5 109l-26.5 111.5zM480 944q0 -19 -11 -34t-28 -25t-38 -15t-40 -5q-57 0 -89.5 24t-32.5 55q0 28 26 28q14 0 21 -6t7 -21q0 -10 6 -16.5t15.5 -10.5t21 -6
t22.5 -2q29 0 46.5 11t17.5 24q0 11 7.5 19t18.5 8q10 0 20 -4t10 -24z" />
    <glyph glyph-name="Acircumflex" unicode="&#xc2;" horiz-adv-x="698" 
d="M478 848q-5 0 -18 4t-30 11t-36 16t-36 19q-17 -10 -36 -19t-35.5 -16t-29.5 -11t-18 -4q-11 0 -11 13q0 16 17.5 35t40 36t43.5 28.5t29 11.5q9 0 30.5 -11.5t44 -28.5t39.5 -35.5t17 -31.5q0 -7 -2.5 -12t-8.5 -5zM600 23q6 -23 35.5 -27.5t77.5 -4.5q14 0 27.5 -4
t13.5 -18t-9 -19t-26 -5h-233q-18 0 -24.5 4t-6.5 12q0 11 11 13.5t24.5 5t24.5 9.5t11 26q0 5 -3.5 20.5l-8.5 36l-11 44t-12 44.5l-11 38t-7 25h-248l-14.5 -43.5t-14 -46t-10.5 -41t-4 -27.5q0 -6 7.5 -9.5t19 -5t25 -1.5h24.5q10 0 19.5 -5t9.5 -20q0 -9 -7 -16.5
t-27 -7.5h-267q-9 0 -16 6.5t-7 17.5q0 10 7.5 15.5t17.5 5.5q7 0 18 1l22 2t19.5 2t11.5 1q21 2 32 11t17 27q15 42 33.5 103l38 131l40 143.5l38.5 140l33.5 121.5l25.5 88q2 8 10 14.5t26 6.5q29 0 35 -21zM356 715l-13 -50l-18 -69l-21.5 -80l-22 -83l-20.5 -78.5
l-17 -65.5q31 -1 59.5 -1h59.5h47.5t47.5 1l-25 99l-26.5 109l-26.5 111.5z" />
    <glyph glyph-name="Adieresis" unicode="&#xc4;" horiz-adv-x="698" 
d="M200 916q0 7 3 16.5t10 18.5t17.5 15t25.5 6q20 0 34.5 -14.5t14.5 -37.5q0 -36 -18.5 -48.5t-37.5 -12.5q-20 0 -34.5 16t-14.5 41zM407 904q0 7 3 16.5t10 18.5t17.5 15t25.5 6q20 0 34.5 -14.5t14.5 -37.5q0 -36 -18.5 -48.5t-37.5 -12.5q-20 0 -34.5 16t-14.5 41z
M600 23q6 -23 35.5 -27.5t77.5 -4.5q14 0 27.5 -4t13.5 -18t-9 -19t-26 -5h-233q-18 0 -24.5 4t-6.5 12q0 11 11 13.5t24.5 5t24.5 9.5t11 26q0 5 -3.5 20.5l-8.5 36l-11 44t-12 44.5l-11 38t-7 25h-248l-14.5 -43.5t-14 -46t-10.5 -41t-4 -27.5q0 -6 7.5 -9.5t19 -5
t25 -1.5h24.5q10 0 19.5 -5t9.5 -20q0 -9 -7 -16.5t-27 -7.5h-267q-9 0 -16 6.5t-7 17.5q0 10 7.5 15.5t17.5 5.5q7 0 18 1l22 2t19.5 2t11.5 1q21 2 32 11t17 27q15 42 33.5 103l38 131l40 143.5l38.5 140l33.5 121.5l25.5 88q2 8 10 14.5t26 6.5q29 0 35 -21zM356 715
l-13 -50l-18 -69l-21.5 -80l-22 -83l-20.5 -78.5l-17 -65.5q31 -1 59.5 -1h59.5h47.5t47.5 1l-25 99l-26.5 109l-26.5 111.5z" />
    <glyph glyph-name="Agrave" unicode="&#xc0;" horiz-adv-x="698" 
d="M291 941q0 14 8.5 22.5t23.5 8.5q11 0 29 -11t35 -26.5t29.5 -31.5t12.5 -26t-6.5 -16.5t-17.5 -6.5t-30 9t-37.5 22.5t-32.5 28.5t-14 27zM600 23q6 -23 35.5 -27.5t77.5 -4.5q14 0 27.5 -4t13.5 -18t-9 -19t-26 -5h-233q-18 0 -24.5 4t-6.5 12q0 11 11 13.5t24.5 5
t24.5 9.5t11 26q0 5 -3.5 20.5l-8.5 36l-11 44t-12 44.5l-11 38t-7 25h-248l-14.5 -43.5t-14 -46t-10.5 -41t-4 -27.5q0 -6 7.5 -9.5t19 -5t25 -1.5h24.5q10 0 19.5 -5t9.5 -20q0 -9 -7 -16.5t-27 -7.5h-267q-9 0 -16 6.5t-7 17.5q0 10 7.5 15.5t17.5 5.5q7 0 18 1l22 2
t19.5 2t11.5 1q21 2 32 11t17 27q15 42 33.5 103l38 131l40 143.5l38.5 140l33.5 121.5l25.5 88q2 8 10 14.5t26 6.5q29 0 35 -21zM356 715l-13 -50l-18 -69l-21.5 -80l-22 -83l-20.5 -78.5l-17 -65.5q31 -1 59.5 -1h59.5h47.5t47.5 1l-25 99l-26.5 109l-26.5 111.5z" />
    <glyph glyph-name="Amacron" unicode="&#x100;" horiz-adv-x="698" 
d="M0 0zM600 23q6 -23 35.5 -27.5t77.5 -4.5q14 0 27.5 -4t13.5 -18t-9 -19t-26 -5h-233q-18 0 -24.5 4t-6.5 12q0 11 11 13.5t24.5 5t24.5 9.5t11 26q0 5 -3.5 20.5l-8.5 36l-11 44t-12 44.5l-11 38t-7 25h-248l-14.5 -43.5t-14 -46t-10.5 -41t-4 -27.5q0 -6 7.5 -9.5
t19 -5t25 -1.5h24.5q10 0 19.5 -5t9.5 -20q0 -9 -7 -16.5t-27 -7.5h-267q-9 0 -16 6.5t-7 17.5q0 10 7.5 15.5t17.5 5.5q7 0 18 1l22 2t19.5 2t11.5 1q21 2 32 11t17 27q15 42 33.5 103l38 131l40 143.5l38.5 140l33.5 121.5l25.5 88q2 8 10 14.5t26 6.5q29 0 35 -21z
M356 715l-13 -50l-18 -69l-21.5 -80l-22 -83l-20.5 -78.5l-17 -65.5q31 -1 59.5 -1h59.5h47.5t47.5 1l-25 99l-26.5 109l-26.5 111.5zM498 939q8 0 14.5 -8.5t6.5 -19.5q0 -8 -6 -20.5t-23 -12.5h-53.5t-69.5 -0.5t-68 -0.5h-50q-11 0 -18.5 10t-7.5 21t6 20.5t20 9.5
q7 0 22 -0.5t33 -0.5t35.5 -0.5t30.5 -0.5q42 0 73 1.5t55 1.5z" />
    <glyph glyph-name="Aogonek" unicode="&#x104;" horiz-adv-x="698" 
d="M0 0zM600 23q6 -23 35.5 -27.5t77.5 -4.5q14 0 27.5 -4t13.5 -18t-9 -19t-26 -5h-233q-18 0 -24.5 4t-6.5 12q0 11 11 13.5t24.5 5t24.5 9.5t11 26q0 5 -3.5 20.5l-8.5 36l-11 44t-12 44.5l-11 38t-7 25h-248l-14.5 -43.5t-14 -46t-10.5 -41t-4 -27.5q0 -6 7.5 -9.5
t19 -5t25 -1.5h24.5q10 0 19.5 -5t9.5 -20q0 -9 -7 -16.5t-27 -7.5h-267q-9 0 -16 6.5t-7 17.5q0 10 7.5 15.5t17.5 5.5q7 0 18 1l22 2t19.5 2t11.5 1q21 2 32 11t17 27q15 42 33.5 103l38 131l40 143.5l38.5 140l33.5 121.5l25.5 88q2 8 10 14.5t26 6.5q29 0 35 -21z
M356 715l-13 -50l-18 -69l-21.5 -80l-22 -83l-20.5 -78.5l-17 -65.5q31 -1 59.5 -1h59.5h47.5t47.5 1l-25 99l-26.5 109l-26.5 111.5zM625 -39q-18 -6 -29.5 -18.5t-18 -25.5t-9 -25.5t-2.5 -18.5q0 -12 9.5 -21.5t21.5 -9.5q25 0 33.5 8.5t16.5 15.5q7 6 13 6q11 0 16 -7
t5 -15q0 -4 -5.5 -12.5t-16 -17t-24.5 -15t-32 -6.5q-44 0 -72.5 20.5t-28.5 52.5q0 23 11 39.5t25 27.5q16 13 37 23z" />
    <glyph glyph-name="Aring" unicode="&#xc5;" horiz-adv-x="698" 
d="M433 914q0 -31 -21.5 -46t-48.5 -15q-30 0 -51 16.5t-21 42.5t20.5 43t50.5 17q71 0 71 -58zM362 938q-8 0 -17 -5.5t-9 -20.5t10.5 -20t16.5 -5q5 0 15 5t10 21q0 14 -8 19.5t-18 5.5zM600 23q6 -23 35.5 -27.5t77.5 -4.5q14 0 27.5 -4t13.5 -18t-9 -19t-26 -5h-233
q-18 0 -24.5 4t-6.5 12q0 11 11 13.5t24.5 5t24.5 9.5t11 26q0 5 -3.5 20.5l-8.5 36l-11 44t-12 44.5l-11 38t-7 25h-248l-14.5 -43.5t-14 -46t-10.5 -41t-4 -27.5q0 -6 7.5 -9.5t19 -5t25 -1.5h24.5q10 0 19.5 -5t9.5 -20q0 -9 -7 -16.5t-27 -7.5h-267q-9 0 -16 6.5
t-7 17.5q0 10 7.5 15.5t17.5 5.5q7 0 18 1l22 2t19.5 2t11.5 1q21 2 32 11t17 27q15 42 33.5 103l38 131l40 143.5l38.5 140l33.5 121.5l25.5 88q2 8 10 14.5t26 6.5q29 0 35 -21zM356 715l-13 -50l-18 -69l-21.5 -80l-22 -83l-20.5 -78.5l-17 -65.5q31 -1 59.5 -1h59.5
h47.5t47.5 1l-25 99l-26.5 109l-26.5 111.5z" />
    <glyph glyph-name="Aringacute" unicode="&#x1fa;" horiz-adv-x="703" 
d="M603 23q7 -23 36 -27.5t77 -4.5q14 0 27.5 -4t13.5 -18t-9 -19t-26 -5h-233q-18 0 -24.5 4t-6.5 12q0 11 11 13.5t24.5 5t24.5 9.5t11 26q0 5 -4 20.5t-10 36l-13.5 44l-14.5 44.5l-12.5 38t-8.5 25h-228l-17 -44t-16.5 -46.5t-13 -41t-6.5 -26.5q0 -6 7.5 -9.5t19 -5
t25 -1.5h24.5q10 0 19.5 -5t9.5 -20q0 -9 -7 -16.5t-27 -7.5h-267q-9 0 -16 6.5t-7 17.5q0 10 7.5 15.5t17.5 5.5q7 0 18 1l22 2t19.5 2t11.5 1q21 2 32 11t17 27q15 37 33.5 90l38 113.5l40 124l38.5 120.5l33.5 104l25.5 75q2 8 10 14.5t26 6.5q29 0 35 -21zM359 615
q-6 -21 -19.5 -63l-29.5 -90l-30.5 -95t-22.5 -78q29 -1 54.5 -1h54.5h42.5t42.5 1l-23 74.5l-24 83.5l-23.5 86zM452 939q0 -9 -8.5 -19.5t-21.5 -20t-29 -18t-30 -14.5h4q71 0 71 -58q0 -31 -21.5 -46t-48.5 -15q-30 0 -51 16.5t-21 42.5q0 17 9 30.5t25 21.5
q-9 1 -12 7.5t-3 15.5q1 10 13.5 25.5t29.5 30t34.5 24.5t29.5 10q15 -2 22.5 -10.5t7.5 -22.5zM367 833q-8 0 -17 -5.5t-9 -20.5t10.5 -20t16.5 -5q5 0 15 5t10 21q0 14 -8 19.5t-18 5.5z" />
    <glyph glyph-name="Atilde" unicode="&#xc3;" horiz-adv-x="698" 
d="M0 0zM600 23q6 -23 35.5 -27.5t77.5 -4.5q14 0 27.5 -4t13.5 -18t-9 -19t-26 -5h-233q-18 0 -24.5 4t-6.5 12q0 11 11 13.5t24.5 5t24.5 9.5t11 26q0 5 -3.5 20.5l-8.5 36l-11 44t-12 44.5l-11 38t-7 25h-248l-14.5 -43.5t-14 -46t-10.5 -41t-4 -27.5q0 -6 7.5 -9.5
t19 -5t25 -1.5h24.5q10 0 19.5 -5t9.5 -20q0 -9 -7 -16.5t-27 -7.5h-267q-9 0 -16 6.5t-7 17.5q0 10 7.5 15.5t17.5 5.5q7 0 18 1l22 2t19.5 2t11.5 1q21 2 32 11t17 27q15 42 33.5 103l38 131l40 143.5l38.5 140l33.5 121.5l25.5 88q2 8 10 14.5t26 6.5q29 0 35 -21z
M356 715l-13 -50l-18 -69l-21.5 -80l-22 -83l-20.5 -78.5l-17 -65.5q31 -1 59.5 -1h59.5h47.5t47.5 1l-25 99l-26.5 109l-26.5 111.5zM197 924q2 5 8 12t21 16q31 18 68 18q15 0 32.5 -4.5l35.5 -9.5t36 -9.5t33 -4.5q26 0 60 17q14 8 19.5 10.5t10.5 2.5t11.5 -8t6.5 -20
q0 -10 -5 -19q-10 -17 -35 -31t-67 -14q-19 0 -37.5 3.5t-36 8l-33.5 8.5t-30 4q-15 0 -27.5 -4t-23 -8.5t-19 -8.5t-14.5 -4q-8 0 -12.5 8.5t-4.5 19.5q0 9 3 17z" />
    <glyph glyph-name="B" unicode="B" horiz-adv-x="689" 
d="M67 48q10 0 22.5 0.5t23.5 3t18.5 7t7.5 13.5q0 68 0.5 134t0.5 107q0 51 -1 113.5t-2.5 122t-2.5 109t-2 75.5q-1 27 -16.5 31.5t-48.5 4.5q-26 0 -26 25q0 11 7.5 17.5t18.5 6.5q37 0 82.5 0.5t86.5 1t72 1t40 0.5q53 0 101.5 -13.5t85 -39.5t58.5 -65t22 -91
q0 -70 -39 -121.5t-107 -69.5q86 -16 137 -69t51 -132q0 -61 -30.5 -103t-81.5 -68t-117.5 -37.5t-138.5 -11.5h-200q-25 0 -38 5.5t-13 19.5t8 18.5t21 4.5zM289 380q-19 0 -30 -0.5t-18.5 -1t-14 -1t-16.5 -0.5v-315q41 0 84.5 1.5t85 6.5t78.5 15t65 28t44 44.5t16 64.5
q0 53 -26 84t-67.5 47.5t-94 21.5t-106.5 5zM291 757q-17 0 -32 -0.5t-26 -1.5q-13 -1 -23 -2v-306q0 -2 18.5 -2.5t51.5 -0.5q32 0 77 3.5t86.5 19t70.5 47.5t29 91q0 46 -22.5 76t-58.5 46.5t-81 23t-90 6.5z" />
    <glyph glyph-name="C" unicode="C" horiz-adv-x="646" 
d="M610 219q0 -32 -15.5 -72t-48.5 -76t-86 -60.5t-128 -24.5q-54 0 -107 23.5t-95 74t-67.5 130t-25.5 191.5q0 91 24.5 170t66.5 137.5t98 92t119 33.5q41 0 73 -13.5t55 -33.5t37.5 -44t22.5 -45q-2 31 -3 48l-1.5 25.5t-0.5 10.5v2q0 12 7.5 23.5t25.5 11.5
q12 0 19.5 -4t11 -9t4.5 -11t1 -9q0 -35 -2 -77.5t-2 -78.5q0 -32 1 -66t1 -66q0 -9 -6 -21.5t-28 -12.5q-18 0 -27 11t-9 48q0 49 -9.5 94.5t-31 80t-55.5 55t-83 20.5q-52 0 -95 -31t-74 -83t-48 -119.5t-17 -139.5q0 -73 14 -138t42.5 -113.5t71.5 -76.5t100 -28
q44 0 80 12t62.5 33t43.5 49t23 61q4 20 9 33t23 13q29 0 29 -30z" />
    <glyph glyph-name="AE" unicode="&#xc6;" horiz-adv-x="1054" 
d="M991 320q10 0 15.5 -4.5t8.5 -11t3.5 -14t0.5 -13.5q0 -9 -1 -36.5t-3.5 -63.5t-5.5 -75t-6 -69q-2 -20 -11.5 -26.5t-30.5 -6.5q-69 0 -133.5 1t-133.5 1q-61 0 -121.5 -0.5t-121.5 -1.5q-15 0 -30.5 5t-15.5 19q0 15 9.5 19.5t29.5 4.5q47 0 64 7.5t17 28.5
q0 46 0.5 76t0.5 63h-227l-27.5 -47.5l-26.5 -48t-20 -39.5t-8 -23q0 -14 9.5 -14.5t21.5 -1.5q10 0 23 -4t13 -20q0 -14 -11 -19.5t-31 -5.5q-32 0 -61.5 1t-61.5 1t-65 -1t-65 -1q-14 0 -22 5t-8 17t9 17.5t23 5.5q11 0 26 1l29.5 2t26 2t15.5 1q22 2 34 11t23 27
q24 40 52.5 94.5l60 116.5l63.5 128l62.5 128l57 115.5l46.5 91.5q-11 5 -24.5 5.5t-24.5 0.5q-12 0 -26 3.5t-14 19.5q0 10 5 16t13 9t16.5 3.5t16.5 0.5q33 0 68 -0.5t67 -0.5t59.5 -0.5t46.5 -0.5q42 0 68.5 0.5t51.5 0.5t56 0.5t81 0.5q14 0 21 -7.5t7 -28.5v-134
q0 -19 -6.5 -34.5t-26.5 -15.5q-12 0 -19 4.5t-10 11t-4 14t-1 14.5v82q0 10 -4 16t-9.5 8.5t-12 3t-11.5 0.5h-273v-300l41.5 -2t42.5 -1q14 0 31 0.5l32.5 1t27.5 1t17 0.5q6 0 9.5 9t5 21t2 24.5t0.5 20.5q0 21 9.5 28.5t24.5 7.5q17 0 23.5 -11t6.5 -22q0 -29 -1 -56.5
t-1 -56.5t1 -57t1 -56q0 -15 -7.5 -24t-23.5 -9q-15 0 -23 11t-8 24q0 11 -2 24.5t-7 25.5t-14.5 20t-24.5 8q-14 0 -32 0.5t-47 0.5q-21 0 -42 -0.5t-42 -1.5v-320h299q7 0 14.5 1t13.5 4.5t10 11t5 20.5q1 12 3 33t4 46t3.5 49t2.5 42q1 20 9 33.5t29 13.5zM410 287h58
t58 1q1 26 1 58.5v78.5q0 56 -1 92.5t-2 64l-2 53t-1 59.5v4q-8 -20 -23 -49.5l-33.5 -65.5l-39 -75l-40.5 -78t-37 -75.5t-29 -65.5q23 0 45 -1t46 -1z" />
    <glyph glyph-name="Cacute" unicode="&#x106;" horiz-adv-x="646" 
d="M441 941q0 -12 -14 -27t-32.5 -28.5t-38 -22.5t-29.5 -9q-11 0 -17.5 6.5t-6.5 16.5t12.5 26t29.5 31.5t35 26.5t29 11q15 0 23.5 -8.5t8.5 -22.5zM610 219q0 -32 -15.5 -72t-48.5 -76t-86 -60.5t-128 -24.5q-54 0 -107 23.5t-95 74t-67.5 130t-25.5 191.5q0 91 24.5 170
t66.5 137.5t98 92t119 33.5q41 0 73 -13.5t55 -33.5t37.5 -44t22.5 -45q-2 31 -3 48l-1.5 25.5t-0.5 10.5v2q0 12 7.5 23.5t25.5 11.5q12 0 19.5 -4t11 -9t4.5 -11t1 -9q0 -35 -2 -77.5t-2 -78.5q0 -32 1 -66t1 -66q0 -9 -6 -21.5t-28 -12.5q-18 0 -27 11t-9 48
q0 49 -9.5 94.5t-31 80t-55.5 55t-83 20.5q-52 0 -95 -31t-74 -83t-48 -119.5t-17 -139.5q0 -73 14 -138t42.5 -113.5t71.5 -76.5t100 -28q44 0 80 12t62.5 33t43.5 49t23 61q4 20 9 33t23 13q29 0 29 -30z" />
    <glyph glyph-name="Ccaron" unicode="&#x10c;" horiz-adv-x="646" 
d="M461 972q6 0 8.5 -5t2.5 -12q0 -14 -17 -32.5t-39.5 -35t-44 -28.5t-30.5 -12q-8 0 -29 11.5t-43.5 28.5t-40 36.5t-17.5 35.5q0 13 11 13q5 0 18 -4t29.5 -11t35.5 -16.5t36 -19.5q17 10 36 19.5t36 16.5t30 11t18 4zM610 219q0 -32 -15.5 -72t-48.5 -76t-86 -60.5
t-128 -24.5q-54 0 -107 23.5t-95 74t-67.5 130t-25.5 191.5q0 91 24.5 170t66.5 137.5t98 92t119 33.5q41 0 73 -13.5t55 -33.5t37.5 -44t22.5 -45q-2 31 -3 48l-1.5 25.5t-0.5 10.5v2q0 12 7.5 23.5t25.5 11.5q12 0 19.5 -4t11 -9t4.5 -11t1 -9q0 -35 -2 -77.5t-2 -78.5
q0 -32 1 -66t1 -66q0 -9 -6 -21.5t-28 -12.5q-18 0 -27 11t-9 48q0 49 -9.5 94.5t-31 80t-55.5 55t-83 20.5q-52 0 -95 -31t-74 -83t-48 -119.5t-17 -139.5q0 -73 14 -138t42.5 -113.5t71.5 -76.5t100 -28q44 0 80 12t62.5 33t43.5 49t23 61q4 20 9 33t23 13q29 0 29 -30z
" />
    <glyph glyph-name="Ccedilla" unicode="&#xc7;" horiz-adv-x="646" 
d="M37 0zM610 219q0 -32 -15.5 -72t-48.5 -76t-86 -60.5t-128 -24.5q-54 0 -107 23.5t-95 74t-67.5 130t-25.5 191.5q0 91 24.5 170t66.5 137.5t98 92t119 33.5q41 0 73 -13.5t55 -33.5t37.5 -44t22.5 -45q-2 31 -3 48l-1.5 25.5t-0.5 10.5v2q0 12 7.5 23.5t25.5 11.5
q12 0 19.5 -4t11 -9t4.5 -11t1 -9q0 -35 -2 -77.5t-2 -78.5q0 -32 1 -66t1 -66q0 -9 -6 -21.5t-28 -12.5q-18 0 -27 11t-9 48q0 49 -9.5 94.5t-31 80t-55.5 55t-83 20.5q-52 0 -95 -31t-74 -83t-48 -119.5t-17 -139.5q0 -73 14 -138t42.5 -113.5t71.5 -76.5t100 -28
q44 0 80 12t62.5 33t43.5 49t23 61q4 20 9 33t23 13q29 0 29 -30zM361 7l19 -4l-13 -72q24 14 41.5 21.5t38.5 7.5q33 0 55 -17t22 -46q0 -20 -10.5 -34.5t-28.5 -24t-41.5 -14.5t-48.5 -5q-32 0 -48.5 3.5t-16.5 16.5q0 7 10.5 14.5t50.5 7.5q32 0 49 5t17 25q0 14 -12 19
t-19 5q-14 0 -25.5 -4.5t-22 -9.5t-21 -9.5t-22.5 -4.5q-17 0 -23 8.5t-6 16.5q0 3 1 8t2 9q5 21 7.5 45t4.5 33h40z" />
    <glyph glyph-name="Ccircumflex" unicode="&#x108;" horiz-adv-x="646" 
d="M461 847q-5 0 -18 4t-30 11t-36 16.5t-36 19.5q-17 -10 -36 -19.5t-35.5 -16.5t-29.5 -11t-18 -4q-11 0 -11 13q0 16 17.5 35.5t40 36.5t43.5 28.5t29 11.5q9 0 30.5 -12t44 -28.5t39.5 -35.5t17 -32q0 -7 -2.5 -12t-8.5 -5zM610 219q0 -32 -15.5 -72t-48.5 -76
t-86 -60.5t-128 -24.5q-54 0 -107 23.5t-95 74t-67.5 130t-25.5 191.5q0 91 24.5 170t66.5 137.5t98 92t119 33.5q41 0 73 -13.5t55 -33.5t37.5 -44t22.5 -45q-2 31 -3 48l-1.5 25.5t-0.5 10.5v2q0 12 7.5 23.5t25.5 11.5q12 0 19.5 -4t11 -9t4.5 -11t1 -9q0 -35 -2 -77.5
t-2 -78.5q0 -32 1 -66t1 -66q0 -9 -6 -21.5t-28 -12.5q-18 0 -27 11t-9 48q0 49 -9.5 94.5t-31 80t-55.5 55t-83 20.5q-52 0 -95 -31t-74 -83t-48 -119.5t-17 -139.5q0 -73 14 -138t42.5 -113.5t71.5 -76.5t100 -28q44 0 80 12t62.5 33t43.5 49t23 61q4 20 9 33t23 13
q29 0 29 -30z" />
    <glyph glyph-name="Cdotaccent" unicode="&#x10a;" horiz-adv-x="646" 
d="M37 0zM610 219q0 -32 -15.5 -72t-48.5 -76t-86 -60.5t-128 -24.5q-54 0 -107 23.5t-95 74t-67.5 130t-25.5 191.5q0 91 24.5 170t66.5 137.5t98 92t119 33.5q41 0 73 -13.5t55 -33.5t37.5 -44t22.5 -45q-2 31 -3 48l-1.5 25.5t-0.5 10.5v2q0 12 7.5 23.5t25.5 11.5
q12 0 19.5 -4t11 -9t4.5 -11t1 -9q0 -35 -2 -77.5t-2 -78.5q0 -32 1 -66t1 -66q0 -9 -6 -21.5t-28 -12.5q-18 0 -27 11t-9 48q0 49 -9.5 94.5t-31 80t-55.5 55t-83 20.5q-52 0 -95 -31t-74 -83t-48 -119.5t-17 -139.5q0 -73 14 -138t42.5 -113.5t71.5 -76.5t100 -28
q44 0 80 12t62.5 33t43.5 49t23 61q4 20 9 33t23 13q29 0 29 -30zM296 916q0 8 3 18t10 18.5t17.5 14t25.5 5.5q20 0 34.5 -14.5t14.5 -37.5q0 -36 -18.5 -48.5t-37.5 -12.5q-20 0 -34.5 15t-14.5 42z" />
    <glyph glyph-name="D" unicode="D" horiz-adv-x="698" 
d="M63 818q50 2 102.5 2.5t113.5 0.5q63 0 131 -20t124 -65t92 -118t36 -179q0 -90 -24.5 -170t-73.5 -139.5t-123 -94.5t-172 -35h-194q-17 0 -26.5 5.5t-9.5 18.5t7 18.5t24 5.5q9 0 20.5 0.5t22.5 2.5t18.5 7t7.5 14v93t0.5 76t0.5 83v113q0 18 -1 57t-2.5 83t-2.5 85.5
t-1 64.5q0 15 -5.5 23.5t-15 12.5t-22 5t-25.5 1q-12 0 -17.5 7.5t-5.5 17.5q0 8 5 15.5t16 8.5zM273 756q-15 0 -31 -1.5t-31 -2.5v-678q0 -4 6.5 -6t15.5 -3t20 -1h20q82 0 141.5 28.5t98 79t56.5 119t18 148.5q0 65 -18.5 123t-57 101t-97.5 68t-141 25z" />
    <glyph glyph-name="Dcaron" unicode="&#x10e;" horiz-adv-x="698" 
d="M423 972q6 0 8.5 -5t2.5 -12q0 -14 -17 -32.5t-39.5 -35t-44 -28.5t-30.5 -12q-8 0 -29 11.5t-43.5 28.5t-40 36.5t-17.5 35.5q0 13 11 13q5 0 18 -4t29.5 -11t35.5 -16.5t36 -19.5q17 10 36 19.5t36 16.5t30 11t18 4zM63 818q50 2 102.5 2.5t113.5 0.5q63 0 131 -20
t124 -65t92 -118t36 -179q0 -90 -24.5 -170t-73.5 -139.5t-123 -94.5t-172 -35h-194q-17 0 -26.5 5.5t-9.5 18.5t7 18.5t24 5.5q9 0 20.5 0.5t22.5 2.5t18.5 7t7.5 14v93t0.5 76t0.5 83v113q0 18 -1 57t-2.5 83t-2.5 85.5t-1 64.5q0 15 -5.5 23.5t-15 12.5t-22 5t-25.5 1
q-12 0 -17.5 7.5t-5.5 17.5q0 8 5 15.5t16 8.5zM273 756q-15 0 -31 -1.5t-31 -2.5v-678q0 -4 6.5 -6t15.5 -3t20 -1h20q82 0 141.5 28.5t98 79t56.5 119t18 148.5q0 65 -18.5 123t-57 101t-97.5 68t-141 25z" />
    <glyph glyph-name="Dcroat" unicode="&#x110;" horiz-adv-x="700" 
d="M326 444q8 0 14.5 -11t6.5 -21q0 -4 -1.5 -10t-4.5 -12t-8.5 -10.5t-14.5 -4.5h-53.5t-69.5 -0.5t-68 -0.5h-50q-11 0 -18.5 13t-7.5 22q0 10 6 22t20 12q7 0 22 -0.5t33 -0.5t35.5 -0.5t30.5 -0.5q42 0 73 1.5t55 1.5zM65 818q50 2 102.5 2.5t113.5 0.5q63 0 131 -20
t124 -65t92 -118t36 -179q0 -90 -24.5 -170t-73.5 -139.5t-123 -94.5t-172 -35h-194q-17 0 -26.5 5.5t-9.5 18.5t7 18.5t24 5.5q9 0 20.5 0.5t22.5 2.5t18.5 7t7.5 14v93t0.5 76t0.5 83v113q0 18 -1 57t-2.5 83t-2.5 85.5t-1 64.5q0 15 -5.5 23.5t-15 12.5t-22 5t-25.5 1
q-12 0 -17.5 7.5t-5.5 17.5q0 8 5 15.5t16 8.5zM275 756q-15 0 -31 -1.5t-31 -2.5v-678q0 -4 6.5 -6t15.5 -3t20 -1h20q82 0 141.5 28.5t98 79t56.5 119t18 148.5q0 65 -18.5 123t-57 101t-97.5 68t-141 25z" />
    <glyph glyph-name="E" unicode="E" horiz-adv-x="667" 
d="M602 315q14 0 22 -9t8 -24q0 -9 -1.5 -37.5t-4 -65.5l-5 -76.5t-5.5 -69.5q-2 -25 -12 -29t-30 -4q-61 0 -118.5 1t-118.5 1t-126.5 -1t-126.5 -1q-17 0 -31.5 3.5t-14.5 17.5q0 16 9.5 21.5t29.5 5.5q29 0 45 7.5t16 28.5v58t0.5 47t0.5 44t0.5 49t0.5 61v82q0 53 -1 95
t-2 78t-2 68t-1 64q0 15 -6 22.5t-14.5 11.5t-17.5 4.5t-15 0.5q-17 0 -28.5 6t-11.5 19q0 18 13 22.5t28 4.5q33 0 69.5 -0.5t70.5 -0.5t63 -0.5t48 -0.5q37 0 60.5 0.5t46 0.5t49.5 0.5t71 0.5q14 0 21 -7.5t7 -28.5v-139q0 -24 -7 -35t-24 -11q-22 0 -29 13t-7 27v87
q0 10 -4 16t-9.5 8.5t-12 3t-11.5 0.5h-273v-300q28 -1 49 -2t50 -1q12 0 26.5 0.5l28 1t24 1t14.5 0.5q6 0 9.5 9t5 21.5t2 25.5t0.5 21q0 11 7 22.5t25 11.5q14 0 23 -7t9 -24q0 -29 -1 -57.5t-1 -57.5t1 -58.5t1 -57.5q0 -17 -9 -22t-22 -5q-19 0 -25 8t-6 21q0 11 -2 25
t-7.5 26.5t-14.5 21t-24 8.5q-11 0 -26 0.5t-38 0.5q-29 0 -49.5 -0.5t-49.5 -1.5v-320h299q7 0 14.5 1t13.5 4.5t10 11t5 20.5q1 12 3 34t4 47.5t3.5 50.5l2.5 43q1 21 12 29t24 8z" />
    <glyph glyph-name="Eacute" unicode="&#xc9;" horiz-adv-x="667" 
d="M429 941q0 -12 -14 -27t-32.5 -28.5t-38 -22.5t-29.5 -9q-11 0 -17.5 6.5t-6.5 16.5t12.5 26t29.5 31.5t35 26.5t29 11q15 0 23.5 -8.5t8.5 -22.5zM602 315q14 0 22 -9t8 -24q0 -9 -1.5 -37.5t-4 -65.5l-5 -76.5t-5.5 -69.5q-2 -25 -12 -29t-30 -4q-61 0 -118.5 1
t-118.5 1t-126.5 -1t-126.5 -1q-17 0 -31.5 3.5t-14.5 17.5q0 16 9.5 21.5t29.5 5.5q29 0 45 7.5t16 28.5v58t0.5 47t0.5 44t0.5 49t0.5 61v82q0 53 -1 95t-2 78t-2 68t-1 64q0 15 -6 22.5t-14.5 11.5t-17.5 4.5t-15 0.5q-17 0 -28.5 6t-11.5 19q0 18 13 22.5t28 4.5
q33 0 69.5 -0.5t70.5 -0.5t63 -0.5t48 -0.5q37 0 60.5 0.5t46 0.5t49.5 0.5t71 0.5q14 0 21 -7.5t7 -28.5v-139q0 -24 -7 -35t-24 -11q-22 0 -29 13t-7 27v87q0 10 -4 16t-9.5 8.5t-12 3t-11.5 0.5h-273v-300q28 -1 49 -2t50 -1q12 0 26.5 0.5l28 1t24 1t14.5 0.5q6 0 9.5 9
t5 21.5t2 25.5t0.5 21q0 11 7 22.5t25 11.5q14 0 23 -7t9 -24q0 -29 -1 -57.5t-1 -57.5t1 -58.5t1 -57.5q0 -17 -9 -22t-22 -5q-19 0 -25 8t-6 21q0 11 -2 25t-7.5 26.5t-14.5 21t-24 8.5q-11 0 -26 0.5t-38 0.5q-29 0 -49.5 -0.5t-49.5 -1.5v-320h299q7 0 14.5 1t13.5 4.5
t10 11t5 20.5q1 12 3 34t4 47.5t3.5 50.5l2.5 43q1 21 12 29t24 8z" />
    <glyph glyph-name="Ebreve" unicode="&#x114;" horiz-adv-x="667" 
d="M38 0zM602 315q14 0 22 -9t8 -24q0 -9 -1.5 -37.5t-4 -65.5l-5 -76.5t-5.5 -69.5q-2 -25 -12 -29t-30 -4q-61 0 -118.5 1t-118.5 1t-126.5 -1t-126.5 -1q-17 0 -31.5 3.5t-14.5 17.5q0 16 9.5 21.5t29.5 5.5q29 0 45 7.5t16 28.5v58t0.5 47t0.5 44t0.5 49t0.5 61v82
q0 53 -1 95t-2 78t-2 68t-1 64q0 15 -6 22.5t-14.5 11.5t-17.5 4.5t-15 0.5q-17 0 -28.5 6t-11.5 19q0 18 13 22.5t28 4.5q33 0 69.5 -0.5t70.5 -0.5t63 -0.5t48 -0.5q37 0 60.5 0.5t46 0.5t49.5 0.5t71 0.5q14 0 21 -7.5t7 -28.5v-139q0 -24 -7 -35t-24 -11q-22 0 -29 13
t-7 27v87q0 10 -4 16t-9.5 8.5t-12 3t-11.5 0.5h-273v-300q28 -1 49 -2t50 -1q12 0 26.5 0.5l28 1t24 1t14.5 0.5q6 0 9.5 9t5 21.5t2 25.5t0.5 21q0 11 7 22.5t25 11.5q14 0 23 -7t9 -24q0 -29 -1 -57.5t-1 -57.5t1 -58.5t1 -57.5q0 -17 -9 -22t-22 -5q-19 0 -25 8t-6 21
q0 11 -2 25t-7.5 26.5t-14.5 21t-24 8.5q-11 0 -26 0.5t-38 0.5q-29 0 -49.5 -0.5t-49.5 -1.5v-320h299q7 0 14.5 1t13.5 4.5t10 11t5 20.5q1 12 3 34t4 47.5t3.5 50.5l2.5 43q1 21 12 29t24 8zM475 944q0 -19 -11 -34t-28 -25t-38 -15t-40 -5q-57 0 -89.5 24t-32.5 55
q0 28 26 28q14 0 21 -6t7 -21q0 -10 6 -16.5t15.5 -10.5t21 -6t22.5 -2q29 0 46.5 11t17.5 24q0 11 7.5 19t18.5 8q10 0 20 -4t10 -24z" />
    <glyph glyph-name="Ecaron" unicode="&#x11a;" horiz-adv-x="667" 
d="M468 972q6 0 8.5 -5t2.5 -12q0 -14 -17 -32.5t-39.5 -35t-44 -28.5t-30.5 -12q-8 0 -29 11.5t-43.5 28.5t-40 36.5t-17.5 35.5q0 13 11 13q5 0 18 -4t29.5 -11t35.5 -16.5t36 -19.5q17 10 36 19.5t36 16.5t30 11t18 4zM602 315q14 0 22 -9t8 -24q0 -9 -1.5 -37.5
t-4 -65.5l-5 -76.5t-5.5 -69.5q-2 -25 -12 -29t-30 -4q-61 0 -118.5 1t-118.5 1t-126.5 -1t-126.5 -1q-17 0 -31.5 3.5t-14.5 17.5q0 16 9.5 21.5t29.5 5.5q29 0 45 7.5t16 28.5v58t0.5 47t0.5 44t0.5 49t0.5 61v82q0 53 -1 95t-2 78t-2 68t-1 64q0 15 -6 22.5t-14.5 11.5
t-17.5 4.5t-15 0.5q-17 0 -28.5 6t-11.5 19q0 18 13 22.5t28 4.5q33 0 69.5 -0.5t70.5 -0.5t63 -0.5t48 -0.5q37 0 60.5 0.5t46 0.5t49.5 0.5t71 0.5q14 0 21 -7.5t7 -28.5v-139q0 -24 -7 -35t-24 -11q-22 0 -29 13t-7 27v87q0 10 -4 16t-9.5 8.5t-12 3t-11.5 0.5h-273v-300
q28 -1 49 -2t50 -1q12 0 26.5 0.5l28 1t24 1t14.5 0.5q6 0 9.5 9t5 21.5t2 25.5t0.5 21q0 11 7 22.5t25 11.5q14 0 23 -7t9 -24q0 -29 -1 -57.5t-1 -57.5t1 -58.5t1 -57.5q0 -17 -9 -22t-22 -5q-19 0 -25 8t-6 21q0 11 -2 25t-7.5 26.5t-14.5 21t-24 8.5q-11 0 -26 0.5
t-38 0.5q-29 0 -49.5 -0.5t-49.5 -1.5v-320h299q7 0 14.5 1t13.5 4.5t10 11t5 20.5q1 12 3 34t4 47.5t3.5 50.5l2.5 43q1 21 12 29t24 8z" />
    <glyph glyph-name="Ecircumflex" unicode="&#xca;" horiz-adv-x="667" 
d="M468 847q-5 0 -18 4t-30 11t-36 16.5t-36 19.5q-17 -10 -36 -19.5t-35.5 -16.5t-29.5 -11t-18 -4q-11 0 -11 13q0 16 17.5 35.5t40 36.5t43.5 28.5t29 11.5q9 0 30.5 -12t44 -28.5t39.5 -35.5t17 -32q0 -7 -2.5 -12t-8.5 -5zM602 315q14 0 22 -9t8 -24q0 -9 -1.5 -37.5
t-4 -65.5l-5 -76.5t-5.5 -69.5q-2 -25 -12 -29t-30 -4q-61 0 -118.5 1t-118.5 1t-126.5 -1t-126.5 -1q-17 0 -31.5 3.5t-14.5 17.5q0 16 9.5 21.5t29.5 5.5q29 0 45 7.5t16 28.5v58t0.5 47t0.5 44t0.5 49t0.5 61v82q0 53 -1 95t-2 78t-2 68t-1 64q0 15 -6 22.5t-14.5 11.5
t-17.5 4.5t-15 0.5q-17 0 -28.5 6t-11.5 19q0 18 13 22.5t28 4.5q33 0 69.5 -0.5t70.5 -0.5t63 -0.5t48 -0.5q37 0 60.5 0.5t46 0.5t49.5 0.5t71 0.5q14 0 21 -7.5t7 -28.5v-139q0 -24 -7 -35t-24 -11q-22 0 -29 13t-7 27v87q0 10 -4 16t-9.5 8.5t-12 3t-11.5 0.5h-273v-300
q28 -1 49 -2t50 -1q12 0 26.5 0.5l28 1t24 1t14.5 0.5q6 0 9.5 9t5 21.5t2 25.5t0.5 21q0 11 7 22.5t25 11.5q14 0 23 -7t9 -24q0 -29 -1 -57.5t-1 -57.5t1 -58.5t1 -57.5q0 -17 -9 -22t-22 -5q-19 0 -25 8t-6 21q0 11 -2 25t-7.5 26.5t-14.5 21t-24 8.5q-11 0 -26 0.5
t-38 0.5q-29 0 -49.5 -0.5t-49.5 -1.5v-320h299q7 0 14.5 1t13.5 4.5t10 11t5 20.5q1 12 3 34t4 47.5t3.5 50.5l2.5 43q1 21 12 29t24 8z" />
    <glyph glyph-name="Edieresis" unicode="&#xcb;" horiz-adv-x="667" 
d="M188 916q0 7 3 16.5t10 18.5t17.5 15t25.5 6q20 0 34.5 -14.5t14.5 -37.5q0 -36 -18.5 -48.5t-37.5 -12.5q-20 0 -34.5 16t-14.5 41zM395 904q0 7 3 16.5t10 18.5t17.5 15t25.5 6q20 0 34.5 -14.5t14.5 -37.5q0 -36 -18.5 -48.5t-37.5 -12.5q-20 0 -34.5 16t-14.5 41z
M602 315q14 0 22 -9t8 -24q0 -9 -1.5 -37.5t-4 -65.5l-5 -76.5t-5.5 -69.5q-2 -25 -12 -29t-30 -4q-61 0 -118.5 1t-118.5 1t-126.5 -1t-126.5 -1q-17 0 -31.5 3.5t-14.5 17.5q0 16 9.5 21.5t29.5 5.5q29 0 45 7.5t16 28.5v58t0.5 47t0.5 44t0.5 49t0.5 61v82q0 53 -1 95
t-2 78t-2 68t-1 64q0 15 -6 22.5t-14.5 11.5t-17.5 4.5t-15 0.5q-17 0 -28.5 6t-11.5 19q0 18 13 22.5t28 4.5q33 0 69.5 -0.5t70.5 -0.5t63 -0.5t48 -0.5q37 0 60.5 0.5t46 0.5t49.5 0.5t71 0.5q14 0 21 -7.5t7 -28.5v-139q0 -24 -7 -35t-24 -11q-22 0 -29 13t-7 27v87
q0 10 -4 16t-9.5 8.5t-12 3t-11.5 0.5h-273v-300q28 -1 49 -2t50 -1q12 0 26.5 0.5l28 1t24 1t14.5 0.5q6 0 9.5 9t5 21.5t2 25.5t0.5 21q0 11 7 22.5t25 11.5q14 0 23 -7t9 -24q0 -29 -1 -57.5t-1 -57.5t1 -58.5t1 -57.5q0 -17 -9 -22t-22 -5q-19 0 -25 8t-6 21q0 11 -2 25
t-7.5 26.5t-14.5 21t-24 8.5q-11 0 -26 0.5t-38 0.5q-29 0 -49.5 -0.5t-49.5 -1.5v-320h299q7 0 14.5 1t13.5 4.5t10 11t5 20.5q1 12 3 34t4 47.5t3.5 50.5l2.5 43q1 21 12 29t24 8z" />
    <glyph glyph-name="Edotaccent" unicode="&#x116;" horiz-adv-x="667" 
d="M38 0zM602 315q14 0 22 -9t8 -24q0 -9 -1.5 -37.5t-4 -65.5l-5 -76.5t-5.5 -69.5q-2 -25 -12 -29t-30 -4q-61 0 -118.5 1t-118.5 1t-126.5 -1t-126.5 -1q-17 0 -31.5 3.5t-14.5 17.5q0 16 9.5 21.5t29.5 5.5q29 0 45 7.5t16 28.5v58t0.5 47t0.5 44t0.5 49t0.5 61v82
q0 53 -1 95t-2 78t-2 68t-1 64q0 15 -6 22.5t-14.5 11.5t-17.5 4.5t-15 0.5q-17 0 -28.5 6t-11.5 19q0 18 13 22.5t28 4.5q33 0 69.5 -0.5t70.5 -0.5t63 -0.5t48 -0.5q37 0 60.5 0.5t46 0.5t49.5 0.5t71 0.5q14 0 21 -7.5t7 -28.5v-139q0 -24 -7 -35t-24 -11q-22 0 -29 13
t-7 27v87q0 10 -4 16t-9.5 8.5t-12 3t-11.5 0.5h-273v-300q28 -1 49 -2t50 -1q12 0 26.5 0.5l28 1t24 1t14.5 0.5q6 0 9.5 9t5 21.5t2 25.5t0.5 21q0 11 7 22.5t25 11.5q14 0 23 -7t9 -24q0 -29 -1 -57.5t-1 -57.5t1 -58.5t1 -57.5q0 -17 -9 -22t-22 -5q-19 0 -25 8t-6 21
q0 11 -2 25t-7.5 26.5t-14.5 21t-24 8.5q-11 0 -26 0.5t-38 0.5q-29 0 -49.5 -0.5t-49.5 -1.5v-320h299q7 0 14.5 1t13.5 4.5t10 11t5 20.5q1 12 3 34t4 47.5t3.5 50.5l2.5 43q1 21 12 29t24 8zM289 916q0 8 3 18t10 18.5t17.5 14t25.5 5.5q20 0 34.5 -14.5t14.5 -37.5
q0 -36 -18.5 -48.5t-37.5 -12.5q-20 0 -34.5 15t-14.5 42z" />
    <glyph glyph-name="Egrave" unicode="&#xc8;" horiz-adv-x="667" 
d="M275 941q0 14 8.5 22.5t23.5 8.5q11 0 29 -11t35 -26.5t29.5 -31.5t12.5 -26t-6.5 -16.5t-17.5 -6.5t-30 9t-37.5 22.5t-32.5 28.5t-14 27zM602 315q14 0 22 -9t8 -24q0 -9 -1.5 -37.5t-4 -65.5l-5 -76.5t-5.5 -69.5q-2 -25 -12 -29t-30 -4q-61 0 -118.5 1t-118.5 1
t-126.5 -1t-126.5 -1q-17 0 -31.5 3.5t-14.5 17.5q0 16 9.5 21.5t29.5 5.5q29 0 45 7.5t16 28.5v58t0.5 47t0.5 44t0.5 49t0.5 61v82q0 53 -1 95t-2 78t-2 68t-1 64q0 15 -6 22.5t-14.5 11.5t-17.5 4.5t-15 0.5q-17 0 -28.5 6t-11.5 19q0 18 13 22.5t28 4.5q33 0 69.5 -0.5
t70.5 -0.5t63 -0.5t48 -0.5q37 0 60.5 0.5t46 0.5t49.5 0.5t71 0.5q14 0 21 -7.5t7 -28.5v-139q0 -24 -7 -35t-24 -11q-22 0 -29 13t-7 27v87q0 10 -4 16t-9.5 8.5t-12 3t-11.5 0.5h-273v-300q28 -1 49 -2t50 -1q12 0 26.5 0.5l28 1t24 1t14.5 0.5q6 0 9.5 9t5 21.5t2 25.5
t0.5 21q0 11 7 22.5t25 11.5q14 0 23 -7t9 -24q0 -29 -1 -57.5t-1 -57.5t1 -58.5t1 -57.5q0 -17 -9 -22t-22 -5q-19 0 -25 8t-6 21q0 11 -2 25t-7.5 26.5t-14.5 21t-24 8.5q-11 0 -26 0.5t-38 0.5q-29 0 -49.5 -0.5t-49.5 -1.5v-320h299q7 0 14.5 1t13.5 4.5t10 11t5 20.5
q1 12 3 34t4 47.5t3.5 50.5l2.5 43q1 21 12 29t24 8z" />
    <glyph glyph-name="Emacron" unicode="&#x112;" horiz-adv-x="667" 
d="M38 0zM602 315q14 0 22 -9t8 -24q0 -9 -1.5 -37.5t-4 -65.5l-5 -76.5t-5.5 -69.5q-2 -25 -12 -29t-30 -4q-61 0 -118.5 1t-118.5 1t-126.5 -1t-126.5 -1q-17 0 -31.5 3.5t-14.5 17.5q0 16 9.5 21.5t29.5 5.5q29 0 45 7.5t16 28.5v58t0.5 47t0.5 44t0.5 49t0.5 61v82
q0 53 -1 95t-2 78t-2 68t-1 64q0 15 -6 22.5t-14.5 11.5t-17.5 4.5t-15 0.5q-17 0 -28.5 6t-11.5 19q0 18 13 22.5t28 4.5q33 0 69.5 -0.5t70.5 -0.5t63 -0.5t48 -0.5q37 0 60.5 0.5t46 0.5t49.5 0.5t71 0.5q14 0 21 -7.5t7 -28.5v-139q0 -24 -7 -35t-24 -11q-22 0 -29 13
t-7 27v87q0 10 -4 16t-9.5 8.5t-12 3t-11.5 0.5h-273v-300q28 -1 49 -2t50 -1q12 0 26.5 0.5l28 1t24 1t14.5 0.5q6 0 9.5 9t5 21.5t2 25.5t0.5 21q0 11 7 22.5t25 11.5q14 0 23 -7t9 -24q0 -29 -1 -57.5t-1 -57.5t1 -58.5t1 -57.5q0 -17 -9 -22t-22 -5q-19 0 -25 8t-6 21
q0 11 -2 25t-7.5 26.5t-14.5 21t-24 8.5q-11 0 -26 0.5t-38 0.5q-29 0 -49.5 -0.5t-49.5 -1.5v-320h299q7 0 14.5 1t13.5 4.5t10 11t5 20.5q1 12 3 34t4 47.5t3.5 50.5l2.5 43q1 21 12 29t24 8zM491 942q8 0 14.5 -8.5t6.5 -19.5q0 -8 -6 -20.5t-23 -12.5h-53.5t-69.5 -0.5
t-68 -0.5h-50q-11 0 -18.5 10t-7.5 21t6 20.5t20 9.5q7 0 22 -0.5t33 -0.5t35.5 -0.5t30.5 -0.5q42 0 73 1.5t55 1.5z" />
    <glyph glyph-name="Eng" unicode="&#x14a;" horiz-adv-x="824" 
d="M213 51h100q11 0 20.5 -5.5t9.5 -20.5q0 -25 -20 -25h-226q-14 0 -27.5 4.5t-13.5 20.5q0 13 10 18t19 5q6 0 13.5 0.5t15 5t13 14t6.5 26.5q2 68 5.5 143.5t3.5 150.5q0 86 -1.5 177.5t-1.5 172.5q0 15 -16.5 20t-36.5 8.5t-36.5 10.5t-16.5 27q0 17 58 17h138
q12 0 19 -7.5t21 -32.5l45 -84l64.5 -119.5l73 -136l70 -132.5l56.5 -109.5t33 -67.5v599q0 9 -6 13.5t-15 6.5t-18.5 2.5t-15.5 0.5q-11 0 -24 5t-13 22q0 23 37 23h206q32 0 41.5 -5t9.5 -18q0 -17 -12.5 -22t-24.5 -5q-5 0 -19.5 -0.5t-30.5 -2.5t-28.5 -7.5t-12.5 -14.5
q-1 -55 -1.5 -96.5l-1 -81l-1 -82.5t-0.5 -101q0 -32 0.5 -74.5t0.5 -88.5t0.5 -91t0.5 -81q0 -141 -36 -206.5t-120 -65.5q-28 0 -55.5 7.5t-49 23t-34.5 38.5t-13 55q0 21 6.5 40.5t19.5 34.5t32 24t45 9q18 0 34 -10t16 -33q0 -22 -12 -32t-28 -10q-12 0 -21.5 5
t-14.5 11q-6 -3 -9 -8t-5 -11t-2.5 -11t-0.5 -7q0 -17 7.5 -28t19.5 -18.5t26 -10.5t26 -3q26 0 43.5 9t28.5 29.5t17 53.5t8 81q0 1 -2.5 4.5t-13.5 23.5l-35 62.5l-68.5 121.5l-112 199.5l-166.5 296.5v-657z" />
    <glyph glyph-name="Eogonek" unicode="&#x118;" horiz-adv-x="667" 
d="M38 0zM602 315q14 0 22 -9t8 -24q0 -9 -1.5 -37.5t-4 -65.5l-5 -76.5t-5.5 -69.5q-2 -25 -12 -29t-30 -4q-61 0 -118.5 1t-118.5 1t-126.5 -1t-126.5 -1q-17 0 -31.5 3.5t-14.5 17.5q0 16 9.5 21.5t29.5 5.5q29 0 45 7.5t16 28.5v58t0.5 47t0.5 44t0.5 49t0.5 61v82
q0 53 -1 95t-2 78t-2 68t-1 64q0 15 -6 22.5t-14.5 11.5t-17.5 4.5t-15 0.5q-17 0 -28.5 6t-11.5 19q0 18 13 22.5t28 4.5q33 0 69.5 -0.5t70.5 -0.5t63 -0.5t48 -0.5q37 0 60.5 0.5t46 0.5t49.5 0.5t71 0.5q14 0 21 -7.5t7 -28.5v-139q0 -24 -7 -35t-24 -11q-22 0 -29 13
t-7 27v87q0 10 -4 16t-9.5 8.5t-12 3t-11.5 0.5h-273v-300q28 -1 49 -2t50 -1q12 0 26.5 0.5l28 1t24 1t14.5 0.5q6 0 9.5 9t5 21.5t2 25.5t0.5 21q0 11 7 22.5t25 11.5q14 0 23 -7t9 -24q0 -29 -1 -57.5t-1 -57.5t1 -58.5t1 -57.5q0 -17 -9 -22t-22 -5q-19 0 -25 8t-6 21
q0 11 -2 25t-7.5 26.5t-14.5 21t-24 8.5q-11 0 -26 0.5t-38 0.5q-29 0 -49.5 -0.5t-49.5 -1.5v-320h299q7 0 14.5 1t13.5 4.5t10 11t5 20.5q1 12 3 34t4 47.5t3.5 50.5l2.5 43q1 21 12 29t24 8zM378 13q-18 -6 -29.5 -18.5t-18 -25.5t-9 -25.5t-2.5 -18.5q0 -12 9.5 -21.5
t21.5 -9.5q25 0 33.5 8.5t16.5 15.5q7 6 13 6q11 0 16 -7t5 -15q0 -4 -5.5 -12.5t-16 -17t-24.5 -15t-32 -6.5q-44 0 -72.5 20.5t-28.5 52.5q0 23 11 39.5t25 27.5q16 13 37 23z" />
    <glyph glyph-name="Eth" unicode="&#xd0;" horiz-adv-x="700" 
d="M326 444q8 0 14.5 -11t6.5 -21q0 -4 -1.5 -10t-4.5 -12t-8.5 -10.5t-14.5 -4.5h-53.5t-69.5 -0.5t-68 -0.5h-50q-11 0 -18.5 13t-7.5 22q0 10 6 22t20 12q7 0 22 -0.5t33 -0.5t35.5 -0.5t30.5 -0.5q42 0 73 1.5t55 1.5zM65 818q50 2 102.5 2.5t113.5 0.5q63 0 131 -20
t124 -65t92 -118t36 -179q0 -90 -24.5 -170t-73.5 -139.5t-123 -94.5t-172 -35h-194q-17 0 -26.5 5.5t-9.5 18.5t7 18.5t24 5.5q9 0 20.5 0.5t22.5 2.5t18.5 7t7.5 14v93t0.5 76t0.5 83v113q0 18 -1 57t-2.5 83t-2.5 85.5t-1 64.5q0 15 -5.5 23.5t-15 12.5t-22 5t-25.5 1
q-12 0 -17.5 7.5t-5.5 17.5q0 8 5 15.5t16 8.5zM275 756q-15 0 -31 -1.5t-31 -2.5v-678q0 -4 6.5 -6t15.5 -3t20 -1h20q82 0 141.5 28.5t98 79t56.5 119t18 148.5q0 65 -18.5 123t-57 101t-97.5 68t-141 25z" />
    <glyph glyph-name="Etilde" unicode="&#x1ebc;" horiz-adv-x="667" 
d="M38 0zM602 315q14 0 22 -9t8 -24q0 -9 -1.5 -37.5t-4 -65.5l-5 -76.5t-5.5 -69.5q-2 -25 -12 -29t-30 -4q-61 0 -118.5 1t-118.5 1t-126.5 -1t-126.5 -1q-17 0 -31.5 3.5t-14.5 17.5q0 16 9.5 21.5t29.5 5.5q29 0 45 7.5t16 28.5v58t0.5 47t0.5 44t0.5 49t0.5 61v82
q0 53 -1 95t-2 78t-2 68t-1 64q0 15 -6 22.5t-14.5 11.5t-17.5 4.5t-15 0.5q-17 0 -28.5 6t-11.5 19q0 18 13 22.5t28 4.5q33 0 69.5 -0.5t70.5 -0.5t63 -0.5t48 -0.5q37 0 60.5 0.5t46 0.5t49.5 0.5t71 0.5q14 0 21 -7.5t7 -28.5v-139q0 -24 -7 -35t-24 -11q-22 0 -29 13
t-7 27v87q0 10 -4 16t-9.5 8.5t-12 3t-11.5 0.5h-273v-300q28 -1 49 -2t50 -1q12 0 26.5 0.5l28 1t24 1t14.5 0.5q6 0 9.5 9t5 21.5t2 25.5t0.5 21q0 11 7 22.5t25 11.5q14 0 23 -7t9 -24q0 -29 -1 -57.5t-1 -57.5t1 -58.5t1 -57.5q0 -17 -9 -22t-22 -5q-19 0 -25 8t-6 21
q0 11 -2 25t-7.5 26.5t-14.5 21t-24 8.5q-11 0 -26 0.5t-38 0.5q-29 0 -49.5 -0.5t-49.5 -1.5v-320h299q7 0 14.5 1t13.5 4.5t10 11t5 20.5q1 12 3 34t4 47.5t3.5 50.5l2.5 43q1 21 12 29t24 8zM168 905q2 5 8 12t21 16q31 18 68 18q15 0 32.5 -4.5l35.5 -9.5t36 -9.5
t33 -4.5q26 0 60 17q14 8 19.5 10.5t10.5 2.5t11.5 -8t6.5 -20q0 -10 -5 -19q-10 -17 -35 -31t-67 -14q-19 0 -37.5 3.5t-36 8l-33.5 8.5t-30 4q-15 0 -27.5 -4t-23 -8.5t-19 -8.5t-14.5 -4q-8 0 -12.5 8.5t-4.5 19.5q0 9 3 17z" />
    <glyph glyph-name="Euro" unicode="&#x20ac;" horiz-adv-x="657" 
d="M617 166q0 -32 -11 -64t-38 -57.5t-72 -42t-113 -16.5q-51 0 -95 17t-78.5 51t-58 84t-33.5 116h-60q-11 0 -18.5 11t-7.5 21q0 11 6 21t20 10q8 0 22 -0.5t31 -0.5q-2 20 -3.5 42t-1.5 47v15h-48q-11 0 -18.5 11t-7.5 21q0 11 6 21t20 10q7 0 20.5 -0.5t29.5 -0.5
q10 81 32.5 146.5t58.5 112t85.5 72t111.5 25.5q41 0 81.5 -11.5t72 -39.5t51 -75t19.5 -117q0 -14 -7 -29t-25 -15q-13 0 -20.5 5.5t-11.5 15.5t-5 22t-1 26q0 34 -8.5 62.5t-26.5 49.5t-47 33t-70 12q-56 0 -95.5 -27.5t-65.5 -71t-39 -96t-15 -101.5h26q33 0 65.5 1.5
t52.5 1.5q8 0 14.5 -9t6.5 -20q0 -8 -6 -21t-23 -13q-20 0 -59.5 -0.5t-78.5 -0.5v-16q0 -23 1 -45.5t4 -43.5h23q33 0 65.5 1.5t52.5 1.5q8 0 14.5 -9t6.5 -20q0 -8 -6 -21t-23 -13q-19 0 -55.5 -0.5t-73.5 -0.5q6 -45 22 -83t41 -65t57.5 -42.5t73.5 -15.5q31 0 58 4.5
t49.5 15.5t39 31t25.5 50q1 6 2 15.5t4 18.5t9 15.5t18 6.5q19 0 23.5 -12.5t4.5 -26.5z" />
    <glyph glyph-name="F" unicode="F" horiz-adv-x="595" 
d="M137 92q2 100 3 198.5t1 198.5q0 34 -1 63.5l-2 58l-2 57.5t-1 64q0 39 -72 39q-12 0 -17 8.5t-5 16.5q0 11 8 18t30 7q64 0 132.5 -1t132.5 -1q53 0 105 1t105 1q21 0 27.5 -11t6.5 -37v-126q0 -25 -7 -36t-27 -11q-21 0 -27 14.5t-6 32.5v67q0 28 -9.5 34.5t-29.5 6.5
h-271v-300q29 -2 49 -2h48q12 0 27.5 0.5t30 0.5t26 0.5t14.5 0.5q5 0 8 8.5t4.5 19t1.5 20.5v14q0 10 0.5 18.5t3.5 15t10 10t20 3.5q22 0 26 -15.5t4 -31.5q0 -25 -1 -51t-1 -51t1 -53.5t1 -52.5q0 -21 -7.5 -29.5t-22.5 -8.5q-14 0 -23 7t-9 21q0 25 -4.5 41.5t-11.5 27
t-14.5 15t-13.5 4.5q-17 1 -33.5 1.5t-33.5 0.5q-29 0 -50 -0.5t-50 -2.5v-42.5t-0.5 -48t-0.5 -48v-42.5q0 -17 0.5 -40l1 -45t1 -39t0.5 -21h127q6 0 12 -0.5t11.5 -3.5t9 -10t3.5 -20q0 -16 -9.5 -21t-20.5 -5h-265q-13 0 -28 3t-15 20q0 16 7.5 20.5t20.5 4.5q14 0 27 1
t22.5 5.5t15.5 13.5t6 24z" />
    <glyph glyph-name="G" unicode="G" horiz-adv-x="656" 
d="M512 254q-50 0 -103.5 -3.5t-107.5 -3.5q-21 0 -31.5 8.5t-10.5 19.5q0 20 17.5 27.5t33.5 7.5q62 0 121.5 5t113.5 6q24 0 42 -11t18 -37q0 -17 -1 -45t-1 -64q0 -48 1 -78.5t1 -50.5q0 -16 -9.5 -24.5t-21.5 -8.5q-14 0 -23 8.5t-9 25.5q0 19 1 39t1 28
q-17 -31 -40 -53t-50.5 -36.5t-57.5 -21t-60 -6.5q-53 0 -106.5 21.5t-96.5 71t-69.5 129.5t-26.5 196q0 87 23 166t64 138.5t99 94.5t127 35q54 0 104.5 -31.5t78.5 -104.5l-5 87q0 13 8.5 22.5t23.5 9.5q18 0 27.5 -10.5t9.5 -22.5q0 -21 -0.5 -37.5t-1.5 -32.5t-1.5 -33
t-0.5 -37q0 -26 1 -64t1 -64t-7.5 -41t-26.5 -15q-17 0 -26.5 14.5t-9.5 38.5q0 55 -10 102.5t-32 82.5t-57 55t-85 20q-47 0 -88.5 -29.5t-73 -80t-49.5 -118.5t-18 -145q0 -65 12.5 -129t40 -114t72 -81t108.5 -31q37 0 71.5 14t61.5 38t43 56t16 68q0 17 -3 23t-22 6z
" />
    <glyph glyph-name="Gbreve" unicode="&#x11e;" horiz-adv-x="656" 
d="M37 0zM512 254q-50 0 -103.5 -3.5t-107.5 -3.5q-21 0 -31.5 8.5t-10.5 19.5q0 20 17.5 27.5t33.5 7.5q62 0 121.5 5t113.5 6q24 0 42 -11t18 -37q0 -17 -1 -45t-1 -64q0 -48 1 -78.5t1 -50.5q0 -16 -9.5 -24.5t-21.5 -8.5q-14 0 -23 8.5t-9 25.5q0 19 1 39t1 28
q-17 -31 -40 -53t-50.5 -36.5t-57.5 -21t-60 -6.5q-53 0 -106.5 21.5t-96.5 71t-69.5 129.5t-26.5 196q0 87 23 166t64 138.5t99 94.5t127 35q54 0 104.5 -31.5t78.5 -104.5l-5 87q0 13 8.5 22.5t23.5 9.5q18 0 27.5 -10.5t9.5 -22.5q0 -21 -0.5 -37.5t-1.5 -32.5t-1.5 -33
t-0.5 -37q0 -26 1 -64t1 -64t-7.5 -41t-26.5 -15q-17 0 -26.5 14.5t-9.5 38.5q0 55 -10 102.5t-32 82.5t-57 55t-85 20q-47 0 -88.5 -29.5t-73 -80t-49.5 -118.5t-18 -145q0 -65 12.5 -129t40 -114t72 -81t108.5 -31q37 0 71.5 14t61.5 38t43 56t16 68q0 17 -3 23t-22 6z
M472 944q0 -19 -11 -34t-28 -25t-38 -15t-40 -5q-57 0 -89.5 24t-32.5 55q0 28 26 28q14 0 21 -6t7 -21q0 -10 6 -16.5t15.5 -10.5t21 -6t22.5 -2q29 0 46.5 11t17.5 24q0 11 7.5 19t18.5 8q10 0 20 -4t10 -24z" />
    <glyph glyph-name="Gcircumflex" unicode="&#x11c;" horiz-adv-x="656" 
d="M465 847q-5 0 -18 4t-30 11t-36 16.5t-36 19.5q-17 -10 -36 -19.5t-35.5 -16.5t-29.5 -11t-18 -4q-11 0 -11 13q0 16 17.5 35.5t40 36.5t43.5 28.5t29 11.5q9 0 30.5 -12t44 -28.5t39.5 -35.5t17 -32q0 -7 -2.5 -12t-8.5 -5zM512 254q-50 0 -103.5 -3.5t-107.5 -3.5
q-21 0 -31.5 8.5t-10.5 19.5q0 20 17.5 27.5t33.5 7.5q62 0 121.5 5t113.5 6q24 0 42 -11t18 -37q0 -17 -1 -45t-1 -64q0 -48 1 -78.5t1 -50.5q0 -16 -9.5 -24.5t-21.5 -8.5q-14 0 -23 8.5t-9 25.5q0 19 1 39t1 28q-17 -31 -40 -53t-50.5 -36.5t-57.5 -21t-60 -6.5
q-53 0 -106.5 21.5t-96.5 71t-69.5 129.5t-26.5 196q0 87 23 166t64 138.5t99 94.5t127 35q54 0 104.5 -31.5t78.5 -104.5l-5 87q0 13 8.5 22.5t23.5 9.5q18 0 27.5 -10.5t9.5 -22.5q0 -21 -0.5 -37.5t-1.5 -32.5t-1.5 -33t-0.5 -37q0 -26 1 -64t1 -64t-7.5 -41t-26.5 -15
q-17 0 -26.5 14.5t-9.5 38.5q0 55 -10 102.5t-32 82.5t-57 55t-85 20q-47 0 -88.5 -29.5t-73 -80t-49.5 -118.5t-18 -145q0 -65 12.5 -129t40 -114t72 -81t108.5 -31q37 0 71.5 14t61.5 38t43 56t16 68q0 17 -3 23t-22 6z" />
    <glyph glyph-name="Gcommaaccent" unicode="&#x122;" horiz-adv-x="657" 
d="M38 0zM513 254q-50 0 -103.5 -3.5t-107.5 -3.5q-21 0 -31.5 8.5t-10.5 19.5q0 20 17.5 27.5t33.5 7.5q62 0 121.5 5t113.5 6q24 0 42 -11t18 -37q0 -17 -1 -45t-1 -64q0 -48 1 -78.5t1 -50.5q0 -16 -9.5 -24.5t-21.5 -8.5q-14 0 -23 8.5t-9 25.5q0 19 1 39t1 28
q-17 -31 -40 -53t-50.5 -36.5t-57.5 -21t-60 -6.5q-53 0 -106.5 21.5t-96.5 71t-69.5 129.5t-26.5 196q0 87 23 166t64 138.5t99 94.5t127 35q54 0 104.5 -31.5t78.5 -104.5l-5 87q0 13 8.5 22.5t23.5 9.5q18 0 27.5 -10.5t9.5 -22.5q0 -21 -0.5 -37.5t-1.5 -32.5t-1.5 -33
t-0.5 -37q0 -26 1 -64t1 -64t-7.5 -41t-26.5 -15q-17 0 -26.5 14.5t-9.5 38.5q0 55 -10 102.5t-32 82.5t-57 55t-85 20q-47 0 -88.5 -29.5t-73 -80t-49.5 -118.5t-18 -145q0 -65 12.5 -129t40 -114t72 -81t108.5 -31q37 0 71.5 14t61.5 38t43 56t16 68q0 17 -3 23t-22 6z
M302 -103q0 18 12 33.5t40 15.5q20 0 38.5 -16t18.5 -56q0 -23 -7 -42t-17.5 -32.5t-21.5 -21.5t-19 -8q-5 0 -13 3t-8 16q0 9 6.5 21.5t6.5 38.5q0 6 -5.5 10t-12.5 8.5t-12.5 11t-5.5 18.5z" />
    <glyph glyph-name="Gdotaccent" unicode="&#x120;" horiz-adv-x="656" 
d="M37 0zM512 254q-50 0 -103.5 -3.5t-107.5 -3.5q-21 0 -31.5 8.5t-10.5 19.5q0 20 17.5 27.5t33.5 7.5q62 0 121.5 5t113.5 6q24 0 42 -11t18 -37q0 -17 -1 -45t-1 -64q0 -48 1 -78.5t1 -50.5q0 -16 -9.5 -24.5t-21.5 -8.5q-14 0 -23 8.5t-9 25.5q0 19 1 39t1 28
q-17 -31 -40 -53t-50.5 -36.5t-57.5 -21t-60 -6.5q-53 0 -106.5 21.5t-96.5 71t-69.5 129.5t-26.5 196q0 87 23 166t64 138.5t99 94.5t127 35q54 0 104.5 -31.5t78.5 -104.5l-5 87q0 13 8.5 22.5t23.5 9.5q18 0 27.5 -10.5t9.5 -22.5q0 -21 -0.5 -37.5t-1.5 -32.5t-1.5 -33
t-0.5 -37q0 -26 1 -64t1 -64t-7.5 -41t-26.5 -15q-17 0 -26.5 14.5t-9.5 38.5q0 55 -10 102.5t-32 82.5t-57 55t-85 20q-47 0 -88.5 -29.5t-73 -80t-49.5 -118.5t-18 -145q0 -65 12.5 -129t40 -114t72 -81t108.5 -31q37 0 71.5 14t61.5 38t43 56t16 68q0 17 -3 23t-22 6z
M308 916q0 8 3 18t10 18.5t17.5 14t25.5 5.5q20 0 34.5 -14.5t14.5 -37.5q0 -36 -18.5 -48.5t-37.5 -12.5q-20 0 -34.5 15t-14.5 42z" />
    <glyph glyph-name="H" unicode="H" horiz-adv-x="807" 
d="M657 732q0 -19 -0.5 -63t-0.5 -94.5t-0.5 -98.5t-0.5 -75q0 -68 1.5 -135.5t3.5 -124l3.5 -96t1.5 -49.5h96q11 0 23 -5.5t12 -22.5q0 -14 -7.5 -18.5t-17.5 -4.5h-218q-14 0 -27.5 3.5t-13.5 19.5q0 15 10 20t19 5q7 0 14.5 0.5t14 5t11 14t4.5 26.5v347q-32 0 -63 1
q-26 0 -55.5 0.5t-51.5 0.5q-51 0 -102 -0.5t-102 -1.5v-335h96q19 0 27 -7t8 -17q0 -17 -7.5 -22t-17.5 -5h-222q-14 0 -27.5 5t-13.5 22q0 14 10 17.5t19 3.5q7 0 16.5 0.5t17.5 5t13.5 14t5.5 26.5q0 77 2 151t2 156t-2 173.5t-2 173.5q0 9 -6.5 13.5t-16 6.5t-20 2.5
t-17.5 0.5q-11 0 -24 5t-13 20q0 18 14 21.5t23 3.5h192q32 0 44 -5.5t12 -19.5q0 -16 -15 -20.5t-27 -4.5q-5 0 -16.5 -0.5t-23.5 -2.5t-21.5 -7.5t-9.5 -14.5v-292q51 -2 102 -2h102h51t55.5 0.5t44 1t16.5 0.5v280q0 9 -5 13.5t-12.5 6.5t-16.5 2.5t-16 0.5
q-11 0 -24 5.5t-13 19.5q0 15 14 20t23 5h192q32 0 44 -5t12 -20q0 -17 -15 -21t-27 -4q-5 0 -18 -0.5t-27 -2.5t-25 -7.5t-11 -14.5z" />
    <glyph glyph-name="Hbar" unicode="&#x126;" horiz-adv-x="812" 
d="M710 625q8 0 14.5 -9t6.5 -21q0 -8 -6 -21.5t-23 -13.5h-59h-108t-132 -0.5t-131.5 -0.5h-106h-56.5q-11 0 -18.5 11t-7.5 22t6 21.5t20 10.5h27t52.5 -0.5t66.5 -0.5t68 -0.5t56.5 -0.5h33.5h39t55.5 0.5l63 1t60.5 1t49.5 0.5h29.5zM659 732q0 -19 -0.5 -63t-0.5 -94.5
t-0.5 -98.5t-0.5 -75q0 -68 1.5 -135.5t3.5 -124l3.5 -96t1.5 -49.5h96q11 0 23 -5.5t12 -22.5q0 -14 -7.5 -18.5t-17.5 -4.5h-218q-14 0 -27.5 3.5t-13.5 19.5q0 15 10 20t19 5q7 0 14.5 0.5t14 5t11 14t4.5 26.5v347q-32 0 -63 1q-26 0 -55.5 0.5t-51.5 0.5
q-51 0 -102 -0.5t-102 -1.5v-335h96q19 0 27 -7t8 -17q0 -17 -7.5 -22t-17.5 -5h-222q-14 0 -27.5 5t-13.5 22q0 14 10 17.5t19 3.5q7 0 16.5 0.5t17.5 5t13.5 14t5.5 26.5q0 77 2 151t2 156t-2 173.5t-2 173.5q0 9 -6.5 13.5t-16 6.5t-20 2.5t-17.5 0.5q-11 0 -24 5t-13 20
q0 18 14 21.5t23 3.5h192q32 0 44 -5.5t12 -19.5q0 -16 -15 -20.5t-27 -4.5q-5 0 -16.5 -0.5t-23.5 -2.5t-21.5 -7.5t-9.5 -14.5v-292q51 -2 102 -2h102h51t55.5 0.5t44 1t16.5 0.5v280q0 9 -5 13.5t-12.5 6.5t-16.5 2.5t-16 0.5q-11 0 -24 5.5t-13 19.5q0 15 14 20t23 5
h192q32 0 44 -5t12 -20q0 -17 -15 -21t-27 -4q-5 0 -18 -0.5t-27 -2.5t-25 -7.5t-11 -14.5z" />
    <glyph glyph-name="Hcircumflex" unicode="&#x124;" horiz-adv-x="807" 
d="M533 847q-5 0 -18 4t-30 11t-36 16.5t-36 19.5q-17 -10 -36 -19.5t-35.5 -16.5t-29.5 -11t-18 -4q-11 0 -11 13q0 16 17.5 35.5t40 36.5t43.5 28.5t29 11.5q9 0 30.5 -12t44 -28.5t39.5 -35.5t17 -32q0 -7 -2.5 -12t-8.5 -5zM657 732q0 -19 -0.5 -63t-0.5 -94.5
t-0.5 -98.5t-0.5 -75q0 -68 1.5 -135.5t3.5 -124l3.5 -96t1.5 -49.5h96q11 0 23 -5.5t12 -22.5q0 -14 -7.5 -18.5t-17.5 -4.5h-218q-14 0 -27.5 3.5t-13.5 19.5q0 15 10 20t19 5q7 0 14.5 0.5t14 5t11 14t4.5 26.5v347q-32 0 -63 1q-26 0 -55.5 0.5t-51.5 0.5
q-51 0 -102 -0.5t-102 -1.5v-335h96q19 0 27 -7t8 -17q0 -17 -7.5 -22t-17.5 -5h-222q-14 0 -27.5 5t-13.5 22q0 14 10 17.5t19 3.5q7 0 16.5 0.5t17.5 5t13.5 14t5.5 26.5q0 77 2 151t2 156t-2 173.5t-2 173.5q0 9 -6.5 13.5t-16 6.5t-20 2.5t-17.5 0.5q-11 0 -24 5t-13 20
q0 18 14 21.5t23 3.5h192q32 0 44 -5.5t12 -19.5q0 -16 -15 -20.5t-27 -4.5q-5 0 -16.5 -0.5t-23.5 -2.5t-21.5 -7.5t-9.5 -14.5v-292q51 -2 102 -2h102h51t55.5 0.5t44 1t16.5 0.5v280q0 9 -5 13.5t-12.5 6.5t-16.5 2.5t-16 0.5q-11 0 -24 5.5t-13 19.5q0 15 14 20t23 5
h192q32 0 44 -5t12 -20q0 -17 -15 -21t-27 -4q-5 0 -18 -0.5t-27 -2.5t-25 -7.5t-11 -14.5z" />
    <glyph glyph-name="I" unicode="I" horiz-adv-x="354" 
d="M214 51h91q11 0 20.5 -7t9.5 -21q0 -6 -3.5 -14.5t-16.5 -8.5h-232q-15 0 -28 4t-13 19q0 14 10 19.5t19 5.5q8 0 19.5 0.5t22.5 5t18.5 14t7.5 26.5q0 77 2 151t2 156q0 83 -2 173.5t-2 173.5q0 9 -8.5 13.5t-20.5 6.5t-24.5 2.5t-21.5 0.5q-5 0 -11.5 1t-12 3.5
t-9.5 7.5t-4 13q0 17 14 21t23 4h202q32 0 41.5 -6t9.5 -19q0 -14 -12.5 -19.5t-24.5 -5.5q-4 0 -14.5 -0.5t-22 -2.5t-20.5 -7.5t-9 -14.5v-695z" />
    <glyph glyph-name="IJ" unicode="&#x132;" horiz-adv-x="877" 
d="M27 0zM214 51h91q11 0 20.5 -7t9.5 -21q0 -6 -3.5 -14.5t-16.5 -8.5h-232q-15 0 -28 4t-13 19q0 14 10 19.5t19 5.5q8 0 19.5 0.5t22.5 5t18.5 14t7.5 26.5q0 77 2 151t2 156q0 83 -2 173.5t-2 173.5q0 9 -8.5 13.5t-20.5 6.5t-24.5 2.5t-21.5 0.5q-5 0 -11.5 1t-12 3.5
t-9.5 7.5t-4 13q0 17 14 21t23 4h202q32 0 41.5 -6t9.5 -19q0 -14 -12.5 -19.5t-24.5 -5.5q-4 0 -14.5 -0.5t-22 -2.5t-20.5 -7.5t-9 -14.5v-695zM411 135q0 -21 10.5 -37t27 -26.5t37 -16t40.5 -5.5q61 0 94 27t49 73t19 105t3 124q0 53 -0.5 113.5t-1 114t-1 92.5t-0.5 49
q0 9 -9.5 13.5t-22.5 6.5t-28 2.5t-25 0.5q-11 0 -24 5.5t-13 19.5q0 17 14 21t23 4h197q32 0 41.5 -6t9.5 -19q0 -14 -12.5 -19.5t-24.5 -5.5q-3 0 -11 -0.5t-17 -2.5t-16 -7.5t-7 -14.5v-467q0 -147 -58.5 -220t-183.5 -73q-36 0 -67 11.5t-54.5 31.5t-36.5 47.5t-13 60.5
q0 57 26 92t67 35q8 0 17.5 -2.5t17.5 -8.5t13.5 -15t5.5 -22q0 -18 -8.5 -32t-27.5 -14q-20 0 -33 12q-8 -5 -12.5 -18.5t-4.5 -28.5z" />
    <glyph glyph-name="Iacute" unicode="&#xcd;" horiz-adv-x="354" 
d="M240 941q0 -12 -14 -27t-32.5 -28.5t-38 -22.5t-29.5 -9q-11 0 -17.5 6.5t-6.5 16.5t12.5 26t29.5 31.5t35 26.5t29 11q15 0 23.5 -8.5t8.5 -22.5zM214 51h91q11 0 20.5 -7t9.5 -21q0 -6 -3.5 -14.5t-16.5 -8.5h-232q-15 0 -28 4t-13 19q0 14 10 19.5t19 5.5
q8 0 19.5 0.5t22.5 5t18.5 14t7.5 26.5q0 77 2 151t2 156q0 83 -2 173.5t-2 173.5q0 9 -8.5 13.5t-20.5 6.5t-24.5 2.5t-21.5 0.5q-5 0 -11.5 1t-12 3.5t-9.5 7.5t-4 13q0 17 14 21t23 4h202q32 0 41.5 -6t9.5 -19q0 -14 -12.5 -19.5t-24.5 -5.5q-4 0 -14.5 -0.5t-22 -2.5
t-20.5 -7.5t-9 -14.5v-695z" />
    <glyph glyph-name="Ibreve" unicode="&#x12c;" horiz-adv-x="354" 
d="M27 0zM214 51h91q11 0 20.5 -7t9.5 -21q0 -6 -3.5 -14.5t-16.5 -8.5h-232q-15 0 -28 4t-13 19q0 14 10 19.5t19 5.5q8 0 19.5 0.5t22.5 5t18.5 14t7.5 26.5q0 77 2 151t2 156q0 83 -2 173.5t-2 173.5q0 9 -8.5 13.5t-20.5 6.5t-24.5 2.5t-21.5 0.5q-5 0 -11.5 1t-12 3.5
t-9.5 7.5t-4 13q0 17 14 21t23 4h202q32 0 41.5 -6t9.5 -19q0 -14 -12.5 -19.5t-24.5 -5.5q-4 0 -14.5 -0.5t-22 -2.5t-20.5 -7.5t-9 -14.5v-695zM294 944q0 -19 -11 -34t-28 -25t-38 -15t-40 -5q-57 0 -89.5 24t-32.5 55q0 28 26 28q14 0 21 -6t7 -21q0 -10 6 -16.5
t15.5 -10.5t21 -6t22.5 -2q29 0 46.5 11t17.5 24q0 11 7.5 19t18.5 8q10 0 20 -4t10 -24z" />
    <glyph glyph-name="Icircumflex" unicode="&#xce;" horiz-adv-x="354" 
d="M291 847q-5 0 -18 4t-30 11t-36 16.5t-36 19.5q-17 -10 -36 -19.5t-35.5 -16.5t-29.5 -11t-18 -4q-11 0 -11 13q0 16 17.5 35.5t40 36.5t43.5 28.5t29 11.5q9 0 30.5 -12t44 -28.5t39.5 -35.5t17 -32q0 -7 -2.5 -12t-8.5 -5zM214 51h91q11 0 20.5 -7t9.5 -21
q0 -6 -3.5 -14.5t-16.5 -8.5h-232q-15 0 -28 4t-13 19q0 14 10 19.5t19 5.5q8 0 19.5 0.5t22.5 5t18.5 14t7.5 26.5q0 77 2 151t2 156q0 83 -2 173.5t-2 173.5q0 9 -8.5 13.5t-20.5 6.5t-24.5 2.5t-21.5 0.5q-5 0 -11.5 1t-12 3.5t-9.5 7.5t-4 13q0 17 14 21t23 4h202
q32 0 41.5 -6t9.5 -19q0 -14 -12.5 -19.5t-24.5 -5.5q-4 0 -14.5 -0.5t-22 -2.5t-20.5 -7.5t-9 -14.5v-695z" />
    <glyph glyph-name="Idieresis" unicode="&#xcf;" horiz-adv-x="354" 
d="M17 916q0 7 3 16.5t10 18.5t17.5 15t25.5 6q20 0 34.5 -14.5t14.5 -37.5q0 -36 -18.5 -48.5t-37.5 -12.5q-20 0 -34.5 16t-14.5 41zM224 904q0 7 3 16.5t10 18.5t17.5 15t25.5 6q20 0 34.5 -14.5t14.5 -37.5q0 -36 -18.5 -48.5t-37.5 -12.5q-20 0 -34.5 16t-14.5 41z
M214 51h91q11 0 20.5 -7t9.5 -21q0 -6 -3.5 -14.5t-16.5 -8.5h-232q-15 0 -28 4t-13 19q0 14 10 19.5t19 5.5q8 0 19.5 0.5t22.5 5t18.5 14t7.5 26.5q0 77 2 151t2 156q0 83 -2 173.5t-2 173.5q0 9 -8.5 13.5t-20.5 6.5t-24.5 2.5t-21.5 0.5q-5 0 -11.5 1t-12 3.5t-9.5 7.5
t-4 13q0 17 14 21t23 4h202q32 0 41.5 -6t9.5 -19q0 -14 -12.5 -19.5t-24.5 -5.5q-4 0 -14.5 -0.5t-22 -2.5t-20.5 -7.5t-9 -14.5v-695z" />
    <glyph glyph-name="Idotaccent" unicode="&#x130;" horiz-adv-x="354" 
d="M27 0zM214 51h91q11 0 20.5 -7t9.5 -21q0 -6 -3.5 -14.5t-16.5 -8.5h-232q-15 0 -28 4t-13 19q0 14 10 19.5t19 5.5q8 0 19.5 0.5t22.5 5t18.5 14t7.5 26.5q0 77 2 151t2 156q0 83 -2 173.5t-2 173.5q0 9 -8.5 13.5t-20.5 6.5t-24.5 2.5t-21.5 0.5q-5 0 -11.5 1t-12 3.5
t-9.5 7.5t-4 13q0 17 14 21t23 4h202q32 0 41.5 -6t9.5 -19q0 -14 -12.5 -19.5t-24.5 -5.5q-4 0 -14.5 -0.5t-22 -2.5t-20.5 -7.5t-9 -14.5v-695zM122 916q0 8 3 18t10 18.5t17.5 14t25.5 5.5q20 0 34.5 -14.5t14.5 -37.5q0 -36 -18.5 -48.5t-37.5 -12.5q-20 0 -34.5 15
t-14.5 42z" />
    <glyph glyph-name="Igrave" unicode="&#xcc;" horiz-adv-x="354" 
d="M103 941q0 14 8.5 22.5t23.5 8.5q11 0 29 -11t35 -26.5t29.5 -31.5t12.5 -26t-6.5 -16.5t-17.5 -6.5t-30 9t-37.5 22.5t-32.5 28.5t-14 27zM214 51h91q11 0 20.5 -7t9.5 -21q0 -6 -3.5 -14.5t-16.5 -8.5h-232q-15 0 -28 4t-13 19q0 14 10 19.5t19 5.5q8 0 19.5 0.5
t22.5 5t18.5 14t7.5 26.5q0 77 2 151t2 156q0 83 -2 173.5t-2 173.5q0 9 -8.5 13.5t-20.5 6.5t-24.5 2.5t-21.5 0.5q-5 0 -11.5 1t-12 3.5t-9.5 7.5t-4 13q0 17 14 21t23 4h202q32 0 41.5 -6t9.5 -19q0 -14 -12.5 -19.5t-24.5 -5.5q-4 0 -14.5 -0.5t-22 -2.5t-20.5 -7.5
t-9 -14.5v-695z" />
    <glyph glyph-name="Imacron" unicode="&#x12a;" horiz-adv-x="354" 
d="M27 0zM214 51h91q11 0 20.5 -7t9.5 -21q0 -6 -3.5 -14.5t-16.5 -8.5h-232q-15 0 -28 4t-13 19q0 14 10 19.5t19 5.5q8 0 19.5 0.5t22.5 5t18.5 14t7.5 26.5q0 77 2 151t2 156q0 83 -2 173.5t-2 173.5q0 9 -8.5 13.5t-20.5 6.5t-24.5 2.5t-21.5 0.5q-5 0 -11.5 1t-12 3.5
t-9.5 7.5t-4 13q0 17 14 21t23 4h202q32 0 41.5 -6t9.5 -19q0 -14 -12.5 -19.5t-24.5 -5.5q-4 0 -14.5 -0.5t-22 -2.5t-20.5 -7.5t-9 -14.5v-695zM311 942q8 0 14.5 -8.5t6.5 -19.5q0 -8 -6 -20.5t-23 -12.5h-53.5t-69.5 -0.5t-68 -0.5h-50q-11 0 -18.5 10t-7.5 21t6 20.5
t20 9.5q7 0 22 -0.5t33 -0.5t35.5 -0.5t30.5 -0.5q42 0 73 1.5t55 1.5z" />
    <glyph glyph-name="Iogonek" unicode="&#x12e;" horiz-adv-x="354" 
d="M27 0zM214 51h91q11 0 20.5 -7t9.5 -21q0 -6 -3.5 -14.5t-16.5 -8.5h-232q-15 0 -28 4t-13 19q0 14 10 19.5t19 5.5q8 0 19.5 0.5t22.5 5t18.5 14t7.5 26.5q0 77 2 151t2 156q0 83 -2 173.5t-2 173.5q0 9 -8.5 13.5t-20.5 6.5t-24.5 2.5t-21.5 0.5q-5 0 -11.5 1t-12 3.5
t-9.5 7.5t-4 13q0 17 14 21t23 4h202q32 0 41.5 -6t9.5 -19q0 -14 -12.5 -19.5t-24.5 -5.5q-4 0 -14.5 -0.5t-22 -2.5t-20.5 -7.5t-9 -14.5v-695zM206 13q-18 -6 -29.5 -18.5t-18 -25.5t-9 -25.5t-2.5 -18.5q0 -12 9.5 -21.5t21.5 -9.5q25 0 33.5 8.5t16.5 15.5q7 6 13 6
q11 0 16 -7t5 -15q0 -4 -5.5 -12.5t-16 -17t-24.5 -15t-32 -6.5q-44 0 -72.5 20.5t-28.5 52.5q0 23 11 39.5t25 27.5q16 13 37 23z" />
    <glyph glyph-name="Itilde" unicode="&#x128;" horiz-adv-x="354" 
d="M6 0zM214 51h91q11 0 20.5 -7t9.5 -21q0 -6 -3.5 -14.5t-16.5 -8.5h-232q-15 0 -28 4t-13 19q0 14 10 19.5t19 5.5q8 0 19.5 0.5t22.5 5t18.5 14t7.5 26.5q0 77 2 151t2 156q0 83 -2 173.5t-2 173.5q0 9 -8.5 13.5t-20.5 6.5t-24.5 2.5t-21.5 0.5q-5 0 -11.5 1t-12 3.5
t-9.5 7.5t-4 13q0 17 14 21t23 4h202q32 0 41.5 -6t9.5 -19q0 -14 -12.5 -19.5t-24.5 -5.5q-4 0 -14.5 -0.5t-22 -2.5t-20.5 -7.5t-9 -14.5v-695zM9 915q2 5 8 12t21 16q31 18 68 18q15 0 32.5 -4.5l35.5 -9.5t36 -9.5t33 -4.5q26 0 60 17q14 8 19.5 10.5t10.5 2.5t11.5 -8
t6.5 -20q0 -10 -5 -19q-10 -17 -35 -31t-67 -14q-19 0 -37.5 3.5t-36 8l-33.5 8.5t-30 4q-15 0 -27.5 -4t-23 -8.5t-19 -8.5t-14.5 -4q-8 0 -12.5 8.5t-4.5 19.5q0 9 3 17z" />
    <glyph glyph-name="J" unicode="J" horiz-adv-x="523" 
d="M57 135q0 -21 10.5 -37t27 -26.5t37 -16t40.5 -5.5q61 0 94 27t49 73t19 105t3 124q0 53 -0.5 113.5t-1 114t-1 92.5t-0.5 49q0 9 -9.5 13.5t-22.5 6.5t-28 2.5t-25 0.5q-11 0 -24 5.5t-13 19.5q0 17 14 21t23 4h197q32 0 41.5 -6t9.5 -19q0 -14 -12.5 -19.5t-24.5 -5.5
q-3 0 -11 -0.5t-17 -2.5t-16 -7.5t-7 -14.5v-467q0 -147 -58.5 -220t-183.5 -73q-36 0 -67 11.5t-54.5 31.5t-36.5 47.5t-13 60.5q0 57 26 92t67 35q8 0 17.5 -2.5t17.5 -8.5t13.5 -15t5.5 -22q0 -18 -8.5 -32t-27.5 -14q-20 0 -33 12q-8 -5 -12.5 -18.5t-4.5 -28.5z" />
    <glyph glyph-name="Jcircumflex" unicode="&#x134;" horiz-adv-x="523" 
d="M478 847q-5 0 -18 4t-30 11t-36 16.5t-36 19.5q-17 -10 -36 -19.5t-35.5 -16.5t-29.5 -11t-18 -4q-11 0 -11 13q0 16 17.5 35.5t40 36.5t43.5 28.5t29 11.5q9 0 30.5 -12t44 -28.5t39.5 -35.5t17 -32q0 -7 -2.5 -12t-8.5 -5zM57 135q0 -21 10.5 -37t27 -26.5t37 -16
t40.5 -5.5q61 0 94 27t49 73t19 105t3 124q0 53 -0.5 113.5t-1 114t-1 92.5t-0.5 49q0 9 -9.5 13.5t-22.5 6.5t-28 2.5t-25 0.5q-11 0 -24 5.5t-13 19.5q0 17 14 21t23 4h197q32 0 41.5 -6t9.5 -19q0 -14 -12.5 -19.5t-24.5 -5.5q-3 0 -11 -0.5t-17 -2.5t-16 -7.5t-7 -14.5
v-467q0 -147 -58.5 -220t-183.5 -73q-36 0 -67 11.5t-54.5 31.5t-36.5 47.5t-13 60.5q0 57 26 92t67 35q8 0 17.5 -2.5t17.5 -8.5t13.5 -15t5.5 -22q0 -18 -8.5 -32t-27.5 -14q-20 0 -33 12q-8 -5 -12.5 -18.5t-4.5 -28.5z" />
    <glyph glyph-name="K" unicode="K" horiz-adv-x="747" 
d="M210 421l49.5 48l61.5 62l64 66.5l57.5 61.5l41.5 47t16 24q0 14 -9.5 14.5t-22.5 1.5q-10 0 -22 5t-12 19q0 10 7 17.5t27 7.5h268q9 0 16 -6t7 -18q0 -7 -5 -14t-15 -7q-18 -1 -39 -1.5t-40.5 -2.5t-35.5 -6t-24 -11l-76.5 -75l-82.5 -83l-84 -88l-82 -88l108 -141
l46.5 -60l48.5 -61l47 -57l42 -48q8 -8 42.5 -10t76.5 -2q23 0 43 -2.5t20 -15.5q0 -9 -7 -15.5t-29 -10.5t-61.5 -6t-104.5 -2q-9 0 -29 19.5t-46.5 51.5l-58.5 73.5l-64.5 84.5l-63.5 85l-57 75l-18 -18v-285h96q11 0 23 -5t12 -18q0 -14 -7.5 -20.5t-17.5 -6.5h-217
q-7 0 -15 0.5t-15 2.5t-11.5 6.5t-4.5 13.5q0 17 12.5 21t21.5 4q6 0 14 0.5t15.5 5t13 14t5.5 26.5q0 77 2 151t2 156q0 83 -2 173.5t-2 173.5q0 9 -6.5 13.5t-15.5 6.5t-18.5 2.5t-15.5 0.5q-11 0 -26 5.5t-15 19.5q0 9 4.5 14t11.5 7.5t13.5 3t11.5 0.5h188q32 0 44 -5
t12 -20q0 -8 -4.5 -13t-10.5 -7.5t-13.5 -3.5t-13.5 -1q-5 0 -16.5 -0.5t-23.5 -2.5t-21.5 -7.5t-9.5 -14.5v-325z" />
    <glyph glyph-name="K.salt" horiz-adv-x="763" 
d="M211 421l51 51l62 62.5l64.5 65t57.5 60.5t41 47.5t16 26.5q0 9 -11.5 10.5t-19.5 1.5q-16 0 -25 6.5t-9 17.5q0 5 7 15t27 10h267q9 0 16 -8t7 -15q0 -5 -4.5 -13t-15.5 -9q-50 -2 -88.5 -6t-50.5 -15l-127 -124l-167 -169q60 -1 103 -13t72.5 -30.5t48 -42t29 -47
t14.5 -45.5t6 -38q3 -27 4 -62.5t5.5 -68t14 -54.5t29.5 -22q18 0 23 10.5t6 30.5q0 10 7 22t27 12q10 0 16.5 -4.5t9.5 -10.5t4 -12.5t1 -10.5q0 -30 -7.5 -48.5t-19.5 -29.5t-26.5 -15t-28.5 -4q-37 0 -61 12.5t-38 33.5t-20 48.5t-8.5 57.5t-3.5 59.5t-4 55.5
q-3 28 -15.5 56t-40.5 50.5t-76 37.5t-123 18l-46 -47v-285h91q11 0 23.5 -4.5t12.5 -24.5q0 -21 -38 -21q-8 0 -20 0.5t-26.5 0.5t-29 0.5t-27.5 0.5q-26 0 -54 -1t-54 -1q-19 0 -36 4.5t-17 18.5t8 19.5t30 5.5q16 0 27 1t18.5 5.5t11.5 13t4 24.5q1 40 1.5 90.5t1.5 97
t1.5 81t0.5 43.5t-0.5 46t-1 82l-1 86.5t-0.5 59.5q0 34 -2 53t-7.5 28t-15 10.5t-25.5 1.5q-19 0 -33.5 4t-14.5 21q0 16 14 20.5t23 4.5h196q32 0 41.5 -8.5t9.5 -16.5q0 -15 -12.5 -20t-24.5 -5q-5 0 -17 -0.5t-25 -2.5t-23 -7.5t-10 -14.5v-325z" />
    <glyph glyph-name="Kcommaaccent" unicode="&#x136;" horiz-adv-x="747" 
d="M38 0zM210 421l49.5 48l61.5 62l64 66.5l57.5 61.5l41.5 47t16 24q0 14 -9.5 14.5t-22.5 1.5q-10 0 -22 5t-12 19q0 10 7 17.5t27 7.5h268q9 0 16 -6t7 -18q0 -7 -5 -14t-15 -7q-18 -1 -39 -1.5t-40.5 -2.5t-35.5 -6t-24 -11l-76.5 -75l-82.5 -83l-84 -88l-82 -88
l108 -141l46.5 -60l48.5 -61l47 -57l42 -48q8 -8 42.5 -10t76.5 -2q23 0 43 -2.5t20 -15.5q0 -9 -7 -15.5t-29 -10.5t-61.5 -6t-104.5 -2q-9 0 -29 19.5t-46.5 51.5l-58.5 73.5l-64.5 84.5l-63.5 85l-57 75l-18 -18v-285h96q11 0 23 -5t12 -18q0 -14 -7.5 -20.5t-17.5 -6.5
h-217q-7 0 -15 0.5t-15 2.5t-11.5 6.5t-4.5 13.5q0 17 12.5 21t21.5 4q6 0 14 0.5t15.5 5t13 14t5.5 26.5q0 77 2 151t2 156q0 83 -2 173.5t-2 173.5q0 9 -6.5 13.5t-15.5 6.5t-18.5 2.5t-15.5 0.5q-11 0 -26 5.5t-15 19.5q0 9 4.5 14t11.5 7.5t13.5 3t11.5 0.5h188
q32 0 44 -5t12 -20q0 -8 -4.5 -13t-10.5 -7.5t-13.5 -3.5t-13.5 -1q-5 0 -16.5 -0.5t-23.5 -2.5t-21.5 -7.5t-9.5 -14.5v-325zM326 -94q0 18 12 33.5t40 15.5q20 0 38.5 -16t18.5 -56q0 -23 -7 -42t-17.5 -32.5t-21.5 -21.5t-19 -8q-5 0 -13 3t-8 16q0 9 6.5 21.5t6.5 38.5
q0 6 -5.5 10t-12.5 8.5t-12.5 11t-5.5 18.5z" />
    <glyph glyph-name="L" unicode="L" horiz-adv-x="565" 
d="M67 48q11 0 23.5 0.5t23.5 3.5t18 9t7 17q0 12 0.5 49.5t0.5 86.5t0.5 103t0.5 99q0 63 -1 110t-2 83.5t-2 66t-1 58.5q0 13 -7 20.5t-17 11t-20.5 4.5t-17.5 1q-11 0 -24 4t-13 21t14 21t23 4h202q32 0 41.5 -5.5t9.5 -19.5q0 -16 -12.5 -20.5t-24.5 -4.5
q-5 0 -17.5 -0.5t-25.5 -2.5t-23.5 -7.5t-10.5 -14.5v-680h211q15 0 26 7t14 24q1 5 3 28t4 50l4 51.5t2 32.5q0 23 5.5 36.5t27.5 13.5q14 0 24 -5.5t10 -19.5q0 -18 -2 -50.5t-4.5 -69l-5 -73t-4.5 -62.5q-2 -17 -10 -23t-23 -6h-438q-17 0 -20.5 9.5t-3.5 14.5
q0 15 9 19.5t26 4.5z" />
    <glyph glyph-name="Lacute" unicode="&#x139;" horiz-adv-x="565" 
d="M248 941q0 -12 -14 -27t-32.5 -28.5t-38 -22.5t-29.5 -9q-11 0 -17.5 6.5t-6.5 16.5t12.5 26t29.5 31.5t35 26.5t29 11q15 0 23.5 -8.5t8.5 -22.5zM67 48q11 0 23.5 0.5t23.5 3.5t18 9t7 17q0 12 0.5 49.5t0.5 86.5t0.5 103t0.5 99q0 63 -1 110t-2 83.5t-2 66t-1 58.5
q0 13 -7 20.5t-17 11t-20.5 4.5t-17.5 1q-11 0 -24 4t-13 21t14 21t23 4h202q32 0 41.5 -5.5t9.5 -19.5q0 -16 -12.5 -20.5t-24.5 -4.5q-5 0 -17.5 -0.5t-25.5 -2.5t-23.5 -7.5t-10.5 -14.5v-680h211q15 0 26 7t14 24q1 5 3 28t4 50l4 51.5t2 32.5q0 23 5.5 36.5t27.5 13.5
q14 0 24 -5.5t10 -19.5q0 -18 -2 -50.5t-4.5 -69l-5 -73t-4.5 -62.5q-2 -17 -10 -23t-23 -6h-438q-17 0 -20.5 9.5t-3.5 14.5q0 15 9 19.5t26 4.5z" />
    <glyph glyph-name="Lcaron" unicode="&#x13d;" horiz-adv-x="565" 
d="M304 972q6 0 8.5 -5t2.5 -12q0 -14 -17 -32.5t-39.5 -35t-44 -28.5t-30.5 -12q-8 0 -29 11.5t-43.5 28.5t-40 36.5t-17.5 35.5q0 13 11 13q5 0 18 -4t29.5 -11t35.5 -16.5t36 -19.5q17 10 36 19.5t36 16.5t30 11t18 4zM67 48q11 0 23.5 0.5t23.5 3.5t18 9t7 17
q0 12 0.5 49.5t0.5 86.5t0.5 103t0.5 99q0 63 -1 110t-2 83.5t-2 66t-1 58.5q0 13 -7 20.5t-17 11t-20.5 4.5t-17.5 1q-11 0 -24 4t-13 21t14 21t23 4h202q32 0 41.5 -5.5t9.5 -19.5q0 -16 -12.5 -20.5t-24.5 -4.5q-5 0 -17.5 -0.5t-25.5 -2.5t-23.5 -7.5t-10.5 -14.5v-680
h211q15 0 26 7t14 24q1 5 3 28t4 50l4 51.5t2 32.5q0 23 5.5 36.5t27.5 13.5q14 0 24 -5.5t10 -19.5q0 -18 -2 -50.5t-4.5 -69l-5 -73t-4.5 -62.5q-2 -17 -10 -23t-23 -6h-438q-17 0 -20.5 9.5t-3.5 14.5q0 15 9 19.5t26 4.5z" />
    <glyph glyph-name="Lcommaaccent" unicode="&#x13b;" horiz-adv-x="565" 
d="M32 0zM67 48q11 0 23.5 0.5t23.5 3.5t18 9t7 17q0 12 0.5 49.5t0.5 86.5t0.5 103t0.5 99q0 63 -1 110t-2 83.5t-2 66t-1 58.5q0 13 -7 20.5t-17 11t-20.5 4.5t-17.5 1q-11 0 -24 4t-13 21t14 21t23 4h202q32 0 41.5 -5.5t9.5 -19.5q0 -16 -12.5 -20.5t-24.5 -4.5
q-5 0 -17.5 -0.5t-25.5 -2.5t-23.5 -7.5t-10.5 -14.5v-680h211q15 0 26 7t14 24q1 5 3 28t4 50l4 51.5t2 32.5q0 23 5.5 36.5t27.5 13.5q14 0 24 -5.5t10 -19.5q0 -18 -2 -50.5t-4.5 -69l-5 -73t-4.5 -62.5q-2 -17 -10 -23t-23 -6h-438q-17 0 -20.5 9.5t-3.5 14.5
q0 15 9 19.5t26 4.5zM251 -105q0 18 12 33.5t40 15.5q20 0 38.5 -16t18.5 -56q0 -23 -7 -42t-17.5 -32.5t-21.5 -21.5t-19 -8q-5 0 -13 3t-8 16q0 9 6.5 21.5t6.5 38.5q0 6 -5.5 10t-12.5 8.5t-12.5 11t-5.5 18.5z" />
    <glyph glyph-name="Ldot" unicode="&#x13f;" horiz-adv-x="562" 
d="M32 0zM67 48q11 0 23.5 0.5t23.5 3.5t18 9t7 17q0 12 0.5 49.5t0.5 86.5t0.5 103t0.5 99q0 63 -1 110t-2 83.5t-2 66t-1 58.5q0 13 -7 20.5t-17 11t-20.5 4.5t-17.5 1q-11 0 -24 4t-13 21t14 21t23 4h202q32 0 41.5 -5.5t9.5 -19.5q0 -16 -12.5 -20.5t-24.5 -4.5
q-5 0 -17.5 -0.5t-25.5 -2.5t-23.5 -7.5t-10.5 -14.5v-680h211q15 0 26 7t14 24q1 5 3 28t4 50l4 51.5t2 32.5q0 23 5.5 36.5t27.5 13.5q14 0 24 -5.5t10 -19.5q0 -18 -2 -50.5t-4.5 -69l-5 -73t-4.5 -62.5q-2 -17 -10 -23t-23 -6h-438q-17 0 -20.5 9.5t-3.5 14.5
q0 15 9 19.5t26 4.5zM300 361q0 8 3 18t10 18.5t17.5 14t25.5 5.5q20 0 34.5 -14.5t14.5 -37.5q0 -36 -18.5 -48.5t-37.5 -12.5q-20 0 -34.5 15t-14.5 42z" />
    <glyph glyph-name="Lslash" unicode="&#x141;" horiz-adv-x="567" 
d="M358 442q9 0 17 -9.5t8 -20.5q0 -8 -7.5 -21.5t-29.5 -13.5h-65.5t-77 -0.5t-75.5 -0.5h-61q-13 0 -22.5 11.5t-9.5 21.5t7.5 21t24.5 11q20 0 57.5 -1t73.5 -1q29 0 51 0.5t41 1t35 1t33 0.5zM69 48q11 0 23.5 0.5t23.5 3.5t18 9t7 17q0 12 0.5 49.5t0.5 86.5t0.5 103
t0.5 99q0 63 -1 110t-2 83.5t-2 66t-1 58.5q0 13 -7 20.5t-17 11t-20.5 4.5t-17.5 1q-11 0 -24 4t-13 21t14 21t23 4h202q32 0 41.5 -5.5t9.5 -19.5q0 -16 -12.5 -20.5t-24.5 -4.5q-5 0 -17.5 -0.5t-25.5 -2.5t-23.5 -7.5t-10.5 -14.5v-680h211q15 0 26 7t14 24q1 5 3 28
t4 50l4 51.5t2 32.5q0 23 5.5 36.5t27.5 13.5q14 0 24 -5.5t10 -19.5q0 -18 -2 -50.5t-4.5 -69l-5 -73t-4.5 -62.5q-2 -17 -10 -23t-23 -6h-438q-17 0 -20.5 9.5t-3.5 14.5q0 15 9 19.5t26 4.5z" />
    <glyph glyph-name="M" unicode="M" horiz-adv-x="1033" 
d="M998 733q-31 -3 -55 -4t-55 -4q-22 -2 -26.5 -16.5t-4.5 -30.5q0 -43 -2 -115t-2 -183q0 -43 1 -98t1.5 -108.5t1.5 -98t1 -65.5h112q11 0 20.5 -5t9.5 -20q0 -26 -20 -26h-225q-14 0 -27.5 4.5t-13.5 21.5q0 15 10 18.5t19 3.5q5 0 12 0.5t13 5t10 14t4 26.5v579
l-72 -199.5l-67 -183.5l-54.5 -148.5t-33.5 -93.5q-12 -35 -40 -35q-11 0 -18.5 5t-13.5 12t-9.5 14.5t-5.5 12.5l-35 91.5l-46 113.5l-51.5 123l-50.5 120.5l-43.5 106t-30.5 79.5v-599h100q11 0 20.5 -5.5t9.5 -22.5q0 -9 -5 -16t-15 -7h-226q-14 0 -27.5 4t-13.5 19
q0 17 10 21t19 4q6 0 14 0.5t15.5 5t13 14t5.5 26.5q5 68 7 141t2 148q0 86 -1.5 167t-1.5 162q0 22 -16.5 29t-36.5 9t-36.5 5.5t-16.5 19.5q0 17 14.5 21.5t43.5 4.5h125q14 0 21.5 -6.5t15.5 -33.5q9 -30 28.5 -82.5t45.5 -116.5l54.5 -134l55.5 -136.5l49 -123.5t34 -94
l33.5 90.5l42 115.5l45.5 128l45 127.5l41 114.5l32 89l11 22t11.5 12.5t21.5 6t42 1.5h148q16 0 30.5 -3t14.5 -20t-11.5 -19t-26.5 -6z" />
    <glyph glyph-name="N" unicode="N" horiz-adv-x="824" 
d="M213 708v-657h100q11 0 20.5 -5.5t9.5 -20.5q0 -25 -20 -25h-226q-14 0 -27.5 4.5t-13.5 20.5q0 13 10 18t19 5q6 0 13.5 0.5t15 5t13 14t6.5 26.5q2 68 5.5 143.5t3.5 150.5q0 86 -1.5 177.5t-1.5 172.5q0 15 -16.5 20t-36.5 8.5t-36.5 10.5t-16.5 27q0 17 58 17h138
q12 0 19 -7.5t21 -32.5l45 -84l64.5 -119.5l73 -136l70 -132.5l56.5 -109.5t33 -67.5v599q0 9 -6 13.5t-15 6.5t-18.5 2.5t-15.5 0.5q-11 0 -24 5t-13 22q0 23 37 23h206q32 0 41.5 -5t9.5 -18q0 -17 -12.5 -22t-24.5 -5q-5 0 -19.5 -0.5t-30.5 -2.5t-28.5 -7.5t-12.5 -14.5
q-1 -55 -1.5 -96.5l-1 -81l-1 -82.5t-0.5 -101q0 -33 0.5 -78t0.5 -93t0.5 -94.5t0.5 -81.5q0 -14 -9.5 -23t-25.5 -9q-14 0 -25 4t-16 13z" />
    <glyph glyph-name="A" unicode="A" horiz-adv-x="698" 
d="M600 23q6 -23 35.5 -27.5t77.5 -4.5q14 0 27.5 -4t13.5 -18t-9 -19t-26 -5h-233q-18 0 -24.5 4t-6.5 12q0 11 11 13.5t24.5 5t24.5 9.5t11 26q0 5 -3.5 20.5l-8.5 36l-11 44t-12 44.5l-11 38t-7 25h-248l-14.5 -43.5t-14 -46t-10.5 -41t-4 -27.5q0 -6 7.5 -9.5t19 -5
t25 -1.5h24.5q10 0 19.5 -5t9.5 -20q0 -9 -7 -16.5t-27 -7.5h-267q-9 0 -16 6.5t-7 17.5q0 10 7.5 15.5t17.5 5.5q7 0 18 1l22 2t19.5 2t11.5 1q21 2 32 11t17 27q15 42 33.5 103l38 131l40 143.5l38.5 140l33.5 121.5l25.5 88q2 8 10 14.5t26 6.5q29 0 35 -21zM356 715
l-13 -50l-18 -69l-21.5 -80l-22 -83l-20.5 -78.5l-17 -65.5q31 -1 59.5 -1h59.5h47.5t47.5 1l-25 99l-26.5 109l-26.5 111.5z" />
    <glyph glyph-name="Nacute" unicode="&#x143;" horiz-adv-x="824" 
d="M491 941q0 -12 -14 -27t-32.5 -28.5t-38 -22.5t-29.5 -9q-11 0 -17.5 6.5t-6.5 16.5t12.5 26t29.5 31.5t35 26.5t29 11q15 0 23.5 -8.5t8.5 -22.5zM213 708v-657h100q11 0 20.5 -5.5t9.5 -20.5q0 -25 -20 -25h-226q-14 0 -27.5 4.5t-13.5 20.5q0 13 10 18t19 5
q6 0 13.5 0.5t15 5t13 14t6.5 26.5q2 68 5.5 143.5t3.5 150.5q0 86 -1.5 177.5t-1.5 172.5q0 15 -16.5 20t-36.5 8.5t-36.5 10.5t-16.5 27q0 17 58 17h138q12 0 19 -7.5t21 -32.5l45 -84l64.5 -119.5l73 -136l70 -132.5l56.5 -109.5t33 -67.5v599q0 9 -6 13.5t-15 6.5
t-18.5 2.5t-15.5 0.5q-11 0 -24 5t-13 22q0 23 37 23h206q32 0 41.5 -5t9.5 -18q0 -17 -12.5 -22t-24.5 -5q-5 0 -19.5 -0.5t-30.5 -2.5t-28.5 -7.5t-12.5 -14.5q-1 -55 -1.5 -96.5l-1 -81l-1 -82.5t-0.5 -101q0 -33 0.5 -78t0.5 -93t0.5 -94.5t0.5 -81.5q0 -14 -9.5 -23
t-25.5 -9q-14 0 -25 4t-16 13z" />
    <glyph glyph-name="Ncaron" unicode="&#x147;" horiz-adv-x="824" 
d="M532 972q6 0 8.5 -5t2.5 -12q0 -14 -17 -32.5t-39.5 -35t-44 -28.5t-30.5 -12q-8 0 -29 11.5t-43.5 28.5t-40 36.5t-17.5 35.5q0 13 11 13q5 0 18 -4t29.5 -11t35.5 -16.5t36 -19.5q17 10 36 19.5t36 16.5t30 11t18 4zM213 708v-657h100q11 0 20.5 -5.5t9.5 -20.5
q0 -25 -20 -25h-226q-14 0 -27.5 4.5t-13.5 20.5q0 13 10 18t19 5q6 0 13.5 0.5t15 5t13 14t6.5 26.5q2 68 5.5 143.5t3.5 150.5q0 86 -1.5 177.5t-1.5 172.5q0 15 -16.5 20t-36.5 8.5t-36.5 10.5t-16.5 27q0 17 58 17h138q12 0 19 -7.5t21 -32.5l45 -84l64.5 -119.5
l73 -136l70 -132.5l56.5 -109.5t33 -67.5v599q0 9 -6 13.5t-15 6.5t-18.5 2.5t-15.5 0.5q-11 0 -24 5t-13 22q0 23 37 23h206q32 0 41.5 -5t9.5 -18q0 -17 -12.5 -22t-24.5 -5q-5 0 -19.5 -0.5t-30.5 -2.5t-28.5 -7.5t-12.5 -14.5q-1 -55 -1.5 -96.5l-1 -81l-1 -82.5
t-0.5 -101q0 -33 0.5 -78t0.5 -93t0.5 -94.5t0.5 -81.5q0 -14 -9.5 -23t-25.5 -9q-14 0 -25 4t-16 13z" />
    <glyph glyph-name="Ncommaaccent" unicode="&#x145;" horiz-adv-x="824" 
d="M33 0zM213 708v-657h100q11 0 20.5 -5.5t9.5 -20.5q0 -25 -20 -25h-226q-14 0 -27.5 4.5t-13.5 20.5q0 13 10 18t19 5q6 0 13.5 0.5t15 5t13 14t6.5 26.5q2 68 5.5 143.5t3.5 150.5q0 86 -1.5 177.5t-1.5 172.5q0 15 -16.5 20t-36.5 8.5t-36.5 10.5t-16.5 27q0 17 58 17
h138q12 0 19 -7.5t21 -32.5l45 -84l64.5 -119.5l73 -136l70 -132.5l56.5 -109.5t33 -67.5v599q0 9 -6 13.5t-15 6.5t-18.5 2.5t-15.5 0.5q-11 0 -24 5t-13 22q0 23 37 23h206q32 0 41.5 -5t9.5 -18q0 -17 -12.5 -22t-24.5 -5q-5 0 -19.5 -0.5t-30.5 -2.5t-28.5 -7.5
t-12.5 -14.5q-1 -55 -1.5 -96.5l-1 -81l-1 -82.5t-0.5 -101q0 -33 0.5 -78t0.5 -93t0.5 -94.5t0.5 -81.5q0 -14 -9.5 -23t-25.5 -9q-14 0 -25 4t-16 13zM384 -102q0 18 12 33.5t40 15.5q20 0 38.5 -16t18.5 -56q0 -23 -7 -42t-17.5 -32.5t-21.5 -21.5t-19 -8q-5 0 -13 3
t-8 16q0 9 6.5 21.5t6.5 38.5q0 6 -5.5 10t-12.5 8.5t-12.5 11t-5.5 18.5z" />
    <glyph glyph-name="Ndotaccent" unicode="&#x1e44;" horiz-adv-x="824" 
d="M33 0zM213 708v-657h100q11 0 20.5 -5.5t9.5 -20.5q0 -25 -20 -25h-226q-14 0 -27.5 4.5t-13.5 20.5q0 13 10 18t19 5q6 0 13.5 0.5t15 5t13 14t6.5 26.5q2 68 5.5 143.5t3.5 150.5q0 86 -1.5 177.5t-1.5 172.5q0 15 -16.5 20t-36.5 8.5t-36.5 10.5t-16.5 27q0 17 58 17
h138q12 0 19 -7.5t21 -32.5l45 -84l64.5 -119.5l73 -136l70 -132.5l56.5 -109.5t33 -67.5v599q0 9 -6 13.5t-15 6.5t-18.5 2.5t-15.5 0.5q-11 0 -24 5t-13 22q0 23 37 23h206q32 0 41.5 -5t9.5 -18q0 -17 -12.5 -22t-24.5 -5q-5 0 -19.5 -0.5t-30.5 -2.5t-28.5 -7.5
t-12.5 -14.5q-1 -55 -1.5 -96.5l-1 -81l-1 -82.5t-0.5 -101q0 -33 0.5 -78t0.5 -93t0.5 -94.5t0.5 -81.5q0 -14 -9.5 -23t-25.5 -9q-14 0 -25 4t-16 13zM366 916q0 8 3 18t10 18.5t17.5 14t25.5 5.5q20 0 34.5 -14.5t14.5 -37.5q0 -36 -18.5 -48.5t-37.5 -12.5
q-20 0 -34.5 15t-14.5 42z" />
    <glyph glyph-name="Ntilde" unicode="&#xd1;" horiz-adv-x="824" 
d="M33 0zM213 708v-657h100q11 0 20.5 -5.5t9.5 -20.5q0 -25 -20 -25h-226q-14 0 -27.5 4.5t-13.5 20.5q0 13 10 18t19 5q6 0 13.5 0.5t15 5t13 14t6.5 26.5q2 68 5.5 143.5t3.5 150.5q0 86 -1.5 177.5t-1.5 172.5q0 15 -16.5 20t-36.5 8.5t-36.5 10.5t-16.5 27q0 17 58 17
h138q12 0 19 -7.5t21 -32.5l45 -84l64.5 -119.5l73 -136l70 -132.5l56.5 -109.5t33 -67.5v599q0 9 -6 13.5t-15 6.5t-18.5 2.5t-15.5 0.5q-11 0 -24 5t-13 22q0 23 37 23h206q32 0 41.5 -5t9.5 -18q0 -17 -12.5 -22t-24.5 -5q-5 0 -19.5 -0.5t-30.5 -2.5t-28.5 -7.5
t-12.5 -14.5q-1 -55 -1.5 -96.5l-1 -81l-1 -82.5t-0.5 -101q0 -33 0.5 -78t0.5 -93t0.5 -94.5t0.5 -81.5q0 -14 -9.5 -23t-25.5 -9q-14 0 -25 4t-16 13zM253 924q2 5 8 12t21 16q31 18 68 18q15 0 32.5 -4.5l35.5 -9.5t36 -9.5t33 -4.5q26 0 60 17q14 8 19.5 10.5t10.5 2.5
t11.5 -8t6.5 -20q0 -10 -5 -19q-10 -17 -35 -31t-67 -14q-19 0 -37.5 3.5t-36 8l-33.5 8.5t-30 4q-15 0 -27.5 -4t-23 -8.5t-19 -8.5t-14.5 -4q-8 0 -12.5 8.5t-4.5 19.5q0 9 3 17z" />
    <glyph glyph-name="O" unicode="O" horiz-adv-x="709" 
d="M112 400q0 -81 17.5 -146.5t49 -111t75.5 -70t97 -24.5q55 0 100.5 23t77.5 68t49.5 113t17.5 158q0 76 -15.5 143t-44.5 117t-70 78.5t-93 28.5q-65 0 -114 -34t-81.5 -88t-49 -121t-16.5 -134zM37 404q0 51 9 103t26.5 100t44.5 90.5t64 73.5t83 49t103 18
q75 0 132 -34.5t95.5 -93.5t57.5 -137t19 -165q0 -81 -14.5 -144.5t-39 -110.5t-57 -79.5t-68 -52t-72.5 -28.5t-71 -9q-63 0 -119.5 24.5t-99.5 75.5t-68 130.5t-25 189.5z" />
    <glyph glyph-name="OE" unicode="&#x152;" horiz-adv-x="1128" 
d="M37 404q0 51 9 103t26.5 100t44 90.5t62 73.5t80.5 49t99 18q56 0 97 -17t69.5 -43.5t46 -57.5t25.5 -59q-1 27 -1 45v44q0 13 0.5 26t5 23t13 16t25.5 6q32 0 59.5 -1t65.5 -1q42 0 68.5 0.5t51.5 0.5t56 0.5t81 0.5q14 0 21 -7.5t7 -28.5v-134q0 -26 -6.5 -39
t-26.5 -13q-22 0 -28 12.5t-6 33.5v62q0 18 -4 27.5t-9.5 14t-12 5.5t-11.5 1h-273v-300l41.5 -2t42.5 -1q14 0 31 0.5l32.5 1t27.5 1t17 0.5q6 0 9.5 9t5 21t2 24.5t0.5 20.5q0 1 0.5 6.5t3.5 11t9.5 10t18.5 4.5q18 0 25 -9t7 -20q0 -29 -1 -56.5t-1 -56.5t1 -57t1 -56
q0 -17 -10 -23.5t-21 -6.5q-18 0 -24.5 9.5t-6.5 22.5q0 11 -2 24.5t-7 25.5t-14.5 20t-24.5 8q-14 0 -32 0.5t-47 0.5q-21 0 -42 -0.5t-42 -1.5v-320h299q7 0 14.5 1t13.5 4.5t10 11t5 20.5q1 12 3 33t4 46t3.5 49t2.5 42q1 20 9.5 32t25.5 12q22 0 26.5 -14t4.5 -26
q0 -9 -1.5 -36.5l-3.5 -63.5t-5 -75t-6 -69q-2 -22 -11.5 -27.5t-30.5 -5.5q-35 0 -61.5 0.5t-50.5 0.5t-50.5 0.5t-61.5 0.5q-61 0 -95 -1t-59 -1q-22 0 -33.5 2.5t-17 9.5t-6.5 19.5t-1 32.5v95q-37 -85 -98 -130t-158 -45q-61 0 -116.5 24.5t-97.5 75.5t-67 130.5
t-25 189.5zM112 400q0 -81 16 -146.5t45.5 -111t71.5 -70t93 -24.5q55 0 102.5 23t82 68t54 113t19.5 158q0 75 -18 142t-49.5 117t-75 79t-95.5 29q-63 0 -109.5 -34t-76.5 -88t-45 -121t-15 -134z" />
    <glyph glyph-name="Oacute" unicode="&#xd3;" horiz-adv-x="709" 
d="M429 941q0 -12 -14 -27t-32.5 -28.5t-38 -22.5t-29.5 -9q-11 0 -17.5 6.5t-6.5 16.5t12.5 26t29.5 31.5t35 26.5t29 11q15 0 23.5 -8.5t8.5 -22.5zM112 400q0 -81 17.5 -146.5t49 -111t75.5 -70t97 -24.5q55 0 100.5 23t77.5 68t49.5 113t17.5 158q0 76 -15.5 143
t-44.5 117t-70 78.5t-93 28.5q-65 0 -114 -34t-81.5 -88t-49 -121t-16.5 -134zM37 404q0 51 9 103t26.5 100t44.5 90.5t64 73.5t83 49t103 18q75 0 132 -34.5t95.5 -93.5t57.5 -137t19 -165q0 -81 -14.5 -144.5t-39 -110.5t-57 -79.5t-68 -52t-72.5 -28.5t-71 -9
q-63 0 -119.5 24.5t-99.5 75.5t-68 130.5t-25 189.5z" />
    <glyph glyph-name="Obreve" unicode="&#x14e;" horiz-adv-x="709" 
d="M37 0zM112 400q0 -81 17.5 -146.5t49 -111t75.5 -70t97 -24.5q55 0 100.5 23t77.5 68t49.5 113t17.5 158q0 76 -15.5 143t-44.5 117t-70 78.5t-93 28.5q-65 0 -114 -34t-81.5 -88t-49 -121t-16.5 -134zM37 404q0 51 9 103t26.5 100t44.5 90.5t64 73.5t83 49t103 18
q75 0 132 -34.5t95.5 -93.5t57.5 -137t19 -165q0 -81 -14.5 -144.5t-39 -110.5t-57 -79.5t-68 -52t-72.5 -28.5t-71 -9q-63 0 -119.5 24.5t-99.5 75.5t-68 130.5t-25 189.5zM478 944q0 -19 -11 -34t-28 -25t-38 -15t-40 -5q-57 0 -89.5 24t-32.5 55q0 28 26 28q14 0 21 -6
t7 -21q0 -10 6 -16.5t15.5 -10.5t21 -6t22.5 -2q29 0 46.5 11t17.5 24q0 11 7.5 19t18.5 8q10 0 20 -4t10 -24z" />
    <glyph glyph-name="Ocircumflex" unicode="&#xd4;" horiz-adv-x="709" 
d="M473 847q-5 0 -18 4t-30 11t-36 16.5t-36 19.5q-17 -10 -36 -19.5t-35.5 -16.5t-29.5 -11t-18 -4q-11 0 -11 13q0 16 17.5 35.5t40 36.5t43.5 28.5t29 11.5q9 0 30.5 -12t44 -28.5t39.5 -35.5t17 -32q0 -7 -2.5 -12t-8.5 -5zM112 400q0 -81 17.5 -146.5t49 -111t75.5 -70
t97 -24.5q55 0 100.5 23t77.5 68t49.5 113t17.5 158q0 76 -15.5 143t-44.5 117t-70 78.5t-93 28.5q-65 0 -114 -34t-81.5 -88t-49 -121t-16.5 -134zM37 404q0 51 9 103t26.5 100t44.5 90.5t64 73.5t83 49t103 18q75 0 132 -34.5t95.5 -93.5t57.5 -137t19 -165
q0 -81 -14.5 -144.5t-39 -110.5t-57 -79.5t-68 -52t-72.5 -28.5t-71 -9q-63 0 -119.5 24.5t-99.5 75.5t-68 130.5t-25 189.5z" />
    <glyph glyph-name="Odieresis" unicode="&#xd6;" horiz-adv-x="709" 
d="M207 916q0 7 3 16.5t10 18.5t17.5 15t25.5 6q20 0 34.5 -14.5t14.5 -37.5q0 -36 -18.5 -48.5t-37.5 -12.5q-20 0 -34.5 16t-14.5 41zM414 904q0 7 3 16.5t10 18.5t17.5 15t25.5 6q20 0 34.5 -14.5t14.5 -37.5q0 -36 -18.5 -48.5t-37.5 -12.5q-20 0 -34.5 16t-14.5 41z
M112 400q0 -81 17.5 -146.5t49 -111t75.5 -70t97 -24.5q55 0 100.5 23t77.5 68t49.5 113t17.5 158q0 76 -15.5 143t-44.5 117t-70 78.5t-93 28.5q-65 0 -114 -34t-81.5 -88t-49 -121t-16.5 -134zM37 404q0 51 9 103t26.5 100t44.5 90.5t64 73.5t83 49t103 18q75 0 132 -34.5
t95.5 -93.5t57.5 -137t19 -165q0 -81 -14.5 -144.5t-39 -110.5t-57 -79.5t-68 -52t-72.5 -28.5t-71 -9q-63 0 -119.5 24.5t-99.5 75.5t-68 130.5t-25 189.5z" />
    <glyph glyph-name="Ograve" unicode="&#xd2;" horiz-adv-x="709" 
d="M293 941q0 14 8.5 22.5t23.5 8.5q11 0 29 -11t35 -26.5t29.5 -31.5t12.5 -26t-6.5 -16.5t-17.5 -6.5t-30 9t-37.5 22.5t-32.5 28.5t-14 27zM112 400q0 -81 17.5 -146.5t49 -111t75.5 -70t97 -24.5q55 0 100.5 23t77.5 68t49.5 113t17.5 158q0 76 -15.5 143t-44.5 117
t-70 78.5t-93 28.5q-65 0 -114 -34t-81.5 -88t-49 -121t-16.5 -134zM37 404q0 51 9 103t26.5 100t44.5 90.5t64 73.5t83 49t103 18q75 0 132 -34.5t95.5 -93.5t57.5 -137t19 -165q0 -81 -14.5 -144.5t-39 -110.5t-57 -79.5t-68 -52t-72.5 -28.5t-71 -9q-63 0 -119.5 24.5
t-99.5 75.5t-68 130.5t-25 189.5z" />
    <glyph glyph-name="Ohungarumlaut" unicode="&#x150;" horiz-adv-x="709" 
d="M359 941q0 -12 -14 -27t-32.5 -28.5t-38 -22.5t-29.5 -9q-11 0 -17.5 6.5t-6.5 16.5t12.5 26t29.5 31.5t35 26.5t29 11q15 0 23.5 -8.5t8.5 -22.5zM519 941q0 -12 -14 -27t-32.5 -28.5t-38 -22.5t-29.5 -9q-11 0 -17.5 6.5t-6.5 16.5t12.5 26t29.5 31.5t35 26.5t29 11
q15 0 23.5 -8.5t8.5 -22.5zM112 400q0 -81 17.5 -146.5t49 -111t75.5 -70t97 -24.5q55 0 100.5 23t77.5 68t49.5 113t17.5 158q0 76 -15.5 143t-44.5 117t-70 78.5t-93 28.5q-65 0 -114 -34t-81.5 -88t-49 -121t-16.5 -134zM37 404q0 51 9 103t26.5 100t44.5 90.5t64 73.5
t83 49t103 18q75 0 132 -34.5t95.5 -93.5t57.5 -137t19 -165q0 -81 -14.5 -144.5t-39 -110.5t-57 -79.5t-68 -52t-72.5 -28.5t-71 -9q-63 0 -119.5 24.5t-99.5 75.5t-68 130.5t-25 189.5z" />
    <glyph glyph-name="Omacron" unicode="&#x14c;" horiz-adv-x="709" 
d="M37 0zM112 400q0 -81 17.5 -146.5t49 -111t75.5 -70t97 -24.5q55 0 100.5 23t77.5 68t49.5 113t17.5 158q0 76 -15.5 143t-44.5 117t-70 78.5t-93 28.5q-65 0 -114 -34t-81.5 -88t-49 -121t-16.5 -134zM37 404q0 51 9 103t26.5 100t44.5 90.5t64 73.5t83 49t103 18
q75 0 132 -34.5t95.5 -93.5t57.5 -137t19 -165q0 -81 -14.5 -144.5t-39 -110.5t-57 -79.5t-68 -52t-72.5 -28.5t-71 -9q-63 0 -119.5 24.5t-99.5 75.5t-68 130.5t-25 189.5zM493 947q8 0 14.5 -8.5t6.5 -19.5q0 -8 -6 -20.5t-23 -12.5h-53.5t-69.5 -0.5t-68 -0.5h-50
q-11 0 -18.5 10t-7.5 21t6 20.5t20 9.5q7 0 22 -0.5t33 -0.5t35.5 -0.5t30.5 -0.5q42 0 73 1.5t55 1.5z" />
    <glyph glyph-name="Oogonek" unicode="&#x1ea;" horiz-adv-x="707" 
d="M37 0zM112 400q0 -81 17.5 -146.5t49 -111t75.5 -70t97 -24.5q55 0 100.5 23t77.5 68t49.5 113t17.5 158q0 76 -15.5 143t-44.5 117t-70 78.5t-93 28.5q-65 0 -114 -34t-81.5 -88t-49 -121t-16.5 -134zM37 404q0 51 9 103t26.5 100t44.5 90.5t64 73.5t83 49t103 18
q75 0 132 -34.5t95.5 -93.5t57.5 -137t19 -165q0 -81 -14.5 -144.5t-39 -110.5t-57 -79.5t-68 -52t-72.5 -28.5t-71 -9q-63 0 -119.5 24.5t-99.5 75.5t-68 130.5t-25 189.5zM387 -6q-18 -6 -29.5 -18.5t-18 -25.5t-9 -25.5t-2.5 -18.5q0 -12 9.5 -21.5t21.5 -9.5
q25 0 33.5 8.5t16.5 15.5q7 6 13 6q11 0 16 -7t5 -15q0 -4 -5.5 -12.5t-16 -17t-24.5 -15t-32 -6.5q-44 0 -72.5 20.5t-28.5 52.5q0 23 11 39.5t25 27.5q16 13 37 23z" />
    <glyph glyph-name="Oslash" unicode="&#xd8;" horiz-adv-x="709" 
d="M37 0zM112 400q0 -81 17.5 -146.5t49 -111t75.5 -70t97 -24.5q55 0 100.5 23t77.5 68t49.5 113t17.5 158q0 76 -15.5 143t-44.5 117t-70 78.5t-93 28.5q-65 0 -114 -34t-81.5 -88t-49 -121t-16.5 -134zM37 404q0 51 9 103t26.5 100t44.5 90.5t64 73.5t83 49t103 18
q75 0 132 -34.5t95.5 -93.5t57.5 -137t19 -165q0 -81 -14.5 -144.5t-39 -110.5t-57 -79.5t-68 -52t-72.5 -28.5t-71 -9q-63 0 -119.5 24.5t-99.5 75.5t-68 130.5t-25 189.5zM112 18l56 111.5l36 71t22.5 42l14 24.5t11.5 19t15 24.5l24 42l39 70.5l51 93.5l33 61.5
l21.5 42.5l18 37.5l22.5 46.5l34 69.5q15 31 27.5 44t36.5 13q18 0 21.5 -9t3.5 -15q0 -8 -5 -20t-9 -19l-405 -763q-5 -11 -16.5 -17.5t-25.5 -6.5q-9 0 -18.5 8.5t-9.5 19.5q0 6 2 9z" />
    <glyph glyph-name="Oslashacute" unicode="&#x1fe;" horiz-adv-x="709" 
d="M449 941q0 -12 -14 -27t-32.5 -28.5t-38 -22.5t-29.5 -9q-11 0 -17.5 6.5t-6.5 16.5t12.5 26t29.5 31.5t35 26.5t29 11q15 0 23.5 -8.5t8.5 -22.5zM112 400q0 -81 17.5 -146.5t49 -111t75.5 -70t97 -24.5q55 0 100.5 23t77.5 68t49.5 113t17.5 158q0 76 -15.5 143
t-44.5 117t-70 78.5t-93 28.5q-65 0 -114 -34t-81.5 -88t-49 -121t-16.5 -134zM37 404q0 51 9 103t26.5 100t44.5 90.5t64 73.5t83 49t103 18q75 0 132 -34.5t95.5 -93.5t57.5 -137t19 -165q0 -81 -14.5 -144.5t-39 -110.5t-57 -79.5t-68 -52t-72.5 -28.5t-71 -9
q-63 0 -119.5 24.5t-99.5 75.5t-68 130.5t-25 189.5zM112 18l56 111.5l36 71t22.5 42l14 24.5t11.5 19t15 24.5l24 42l39 70.5l51 93.5l33 61.5l21.5 42.5l18 37.5l22.5 46.5l34 69.5q15 31 27.5 44t36.5 13q18 0 21.5 -9t3.5 -15q0 -8 -5 -20t-9 -19l-405 -763
q-5 -11 -16.5 -17.5t-25.5 -6.5q-9 0 -18.5 8.5t-9.5 19.5q0 6 2 9z" />
    <glyph glyph-name="Otilde" unicode="&#xd5;" horiz-adv-x="709" 
d="M37 0zM112 400q0 -81 17.5 -146.5t49 -111t75.5 -70t97 -24.5q55 0 100.5 23t77.5 68t49.5 113t17.5 158q0 76 -15.5 143t-44.5 117t-70 78.5t-93 28.5q-65 0 -114 -34t-81.5 -88t-49 -121t-16.5 -134zM37 404q0 51 9 103t26.5 100t44.5 90.5t64 73.5t83 49t103 18
q75 0 132 -34.5t95.5 -93.5t57.5 -137t19 -165q0 -81 -14.5 -144.5t-39 -110.5t-57 -79.5t-68 -52t-72.5 -28.5t-71 -9q-63 0 -119.5 24.5t-99.5 75.5t-68 130.5t-25 189.5zM175 924q2 5 8 12t21 16q31 18 68 18q15 0 32.5 -4.5l35.5 -9.5t36 -9.5t33 -4.5q26 0 60 17
q14 8 19.5 10.5t10.5 2.5t11.5 -8t6.5 -20q0 -10 -5 -19q-10 -17 -35 -31t-67 -14q-19 0 -37.5 3.5t-36 8l-33.5 8.5t-30 4q-15 0 -27.5 -4t-23 -8.5t-19 -8.5t-14.5 -4q-8 0 -12.5 8.5t-4.5 19.5q0 9 3 17z" />
    <glyph glyph-name="P" unicode="P" horiz-adv-x="624" 
d="M81 48q35 0 46 12.5t11 31.5v95.5t0.5 75.5t0.5 76v98q0 90 -3 166t-3 126q0 15 -8.5 27.5t-40.5 12.5h-14q-17 0 -22.5 7t-5.5 18q0 7 5 15.5t23 8.5q36 0 64.5 0.5l57 1t60 1t73.5 0.5q61 0 114 -12t92.5 -39t62 -70t22.5 -105q0 -72 -32 -121t-81.5 -79t-109.5 -43
t-116 -13h-20t-22 1q-12 0 -24 1v-290h107q43 0 43 -26q0 -13 -9.5 -19t-35.5 -6h-216q-25 0 -43 4t-18 19q0 8 6.5 16.5t35.5 8.5zM283 757q-19 0 -37 -2t-35 -5v-345q9 -1 20 -1q9 -1 20.5 -1h24.5q15 0 41 2t55.5 8.5t59.5 18.5t54 33t39.5 52t15.5 75q0 60 -29 93.5
t-69.5 49t-84.5 19t-75 3.5z" />
    <glyph glyph-name="Q" unicode="Q" horiz-adv-x="708" 
d="M188 -80q0 12 9.5 22.5t24 19.5t33 15.5t36.5 11.5q-51 9 -97 38t-81 80t-55.5 124.5t-20.5 172.5q0 51 9 103t27 100t45 90.5t62 73.5t79 49t97 18q75 0 134 -34.5t99 -93.5t61 -137t21 -165q0 -112 -28 -190t-71 -127.5t-96 -74t-102 -30.5q26 -10 53.5 -24t50.5 -14
q19 0 43.5 8t45.5 8q13 0 18.5 -7.5t5.5 -18.5q0 -9 -10 -18.5t-25.5 -17t-35.5 -12t-41 -4.5q-19 0 -38.5 6.5t-37.5 15t-35 15t-31 6.5q-18 0 -36 -4t-33.5 -9.5l-27.5 -9.5t-19 -4q-12 0 -22.5 3.5t-10.5 14.5zM112 400q0 -81 17 -146.5t47.5 -111t73 -70t93.5 -24.5
q55 0 101.5 23t80.5 68t52.5 113t18.5 158q0 76 -17.5 143t-49 117t-74.5 78.5t-95 28.5q-63 0 -109.5 -34t-77.5 -88t-46 -121t-15 -134z" />
    <glyph glyph-name="R" unicode="R" horiz-adv-x="691" 
d="M541 588q0 36 -14 62.5t-36 45.5t-50.5 31t-57 18.5t-55 9t-45.5 2.5q-14 0 -27 -1t-23 -3q-12 -2 -22 -3v-345q1 0 7 -0.5t13.5 -0.5t14 -0.5t7.5 -0.5q45 0 95.5 7t93.5 27.5t71 56.5t28 94zM214 337q-2 0 -3 1v-287h80q19 0 33 -4.5t14 -21.5q0 -11 -12.5 -18
t-56.5 -7h-187q-29 0 -36 8t-7 19q0 10 9.5 15.5t42.5 5.5q7 0 15.5 1.5t15.5 7t11.5 15t4.5 25.5q0 78 1 157t1 158q0 82 -3 161.5t-3 161.5q0 23 -17.5 29t-42.5 6q-32 0 -32 29q0 11 9.5 15t19.5 4q40 0 66.5 0.5l52 1t55 1t74.5 0.5q46 0 98 -12t96 -38.5t73.5 -70
t29.5 -106.5q0 -64 -26 -110.5t-68.5 -77t-98 -47t-115.5 -21.5l82 -126q35 -53 77 -109t78 -97h123q23 0 34.5 -4t11.5 -20q0 -7 -6.5 -12t-27.5 -8t-61 -4.5t-107 -1.5q-9 0 -27 19.5t-42 51l-52.5 72l-57.5 83l-57.5 83t-53.5 72.5h-8z" />
    <glyph glyph-name="R.salt" horiz-adv-x="700" 
d="M617 602q0 -50 -17 -87.5t-46.5 -64t-68.5 -42.5t-84 -24q21 -9 44 -21.5t43 -33.5t34.5 -54t18.5 -84q3 -29 3 -68.5t4 -74.5t15 -59.5t36 -24.5q18 0 26 17t9 30q0 5 4.5 17t21.5 12q10 0 15.5 -4.5t8.5 -10.5t3.5 -12.5t0.5 -10.5q0 -30 -7.5 -49t-19 -30t-26.5 -15
t-30 -4q-39 0 -64.5 14t-40 37.5t-21 53.5t-9 62t-2.5 63t-2 57q-2 27 -12 56.5t-37 54t-76 40.5t-129 16v-308h91q11 0 21 -6t10 -20q0 -11 -7.5 -17.5t-25.5 -6.5q-8 0 -20 0.5t-26.5 0.5t-29 0.5t-27.5 0.5q-26 0 -54 -1t-54 -1q-6 0 -15.5 0.5t-17.5 3t-14 7t-6 12.5
q0 16 12.5 20.5t25.5 4.5q15 0 26.5 1t19 5.5t11.5 13t4 24.5q0 15 0.5 43t1 62l1 70.5t1 67t1 51.5t0.5 26q0 7 -0.5 41.5t-1.5 81.5l-2 98t-2 90q-1 30 -12 36t-38 6q-3 0 -10 1t-14 4t-12.5 9t-5.5 15q0 17 21 20.5t47 3.5q22 0 45.5 0.5l47 1t44.5 1t37 0.5
q66 0 126 -10.5t105.5 -35.5t73 -67t27.5 -106zM542 597q0 36 -14 62t-36 44t-49.5 28.5t-55.5 16t-53.5 7.5t-42.5 2q-18 0 -32.5 -1t-25.5 -3l-21 -3v-325q1 0 7 -0.5t13.5 -0.5t14 -0.5t7.5 -0.5q45 0 95.5 6t93 24t71 52.5t28.5 91.5z" />
    <glyph glyph-name="Racute" unicode="&#x154;" horiz-adv-x="691" 
d="M381 941q0 -12 -14 -27t-32.5 -28.5t-38 -22.5t-29.5 -9q-11 0 -17.5 6.5t-6.5 16.5t12.5 26t29.5 31.5t35 26.5t29 11q15 0 23.5 -8.5t8.5 -22.5zM541 588q0 36 -14 62.5t-36 45.5t-50.5 31t-57 18.5t-55 9t-45.5 2.5q-14 0 -27 -1t-23 -3q-12 -2 -22 -3v-345
q1 0 7 -0.5t13.5 -0.5t14 -0.5t7.5 -0.5q45 0 95.5 7t93.5 27.5t71 56.5t28 94zM214 337q-2 0 -3 1v-287h80q19 0 33 -4.5t14 -21.5q0 -11 -12.5 -18t-56.5 -7h-187q-29 0 -36 8t-7 19q0 10 9.5 15.5t42.5 5.5q7 0 15.5 1.5t15.5 7t11.5 15t4.5 25.5q0 78 1 157t1 158
q0 82 -3 161.5t-3 161.5q0 23 -17.5 29t-42.5 6q-32 0 -32 29q0 11 9.5 15t19.5 4q40 0 66.5 0.5l52 1t55 1t74.5 0.5q46 0 98 -12t96 -38.5t73.5 -70t29.5 -106.5q0 -64 -26 -110.5t-68.5 -77t-98 -47t-115.5 -21.5l82 -126q35 -53 77 -109t78 -97h123q23 0 34.5 -4
t11.5 -20q0 -7 -6.5 -12t-27.5 -8t-61 -4.5t-107 -1.5q-9 0 -27 19.5t-42 51l-52.5 72l-57.5 83l-57.5 83t-53.5 72.5h-8z" />
    <glyph glyph-name="Rcaron" unicode="&#x158;" horiz-adv-x="691" 
d="M445 972q6 0 8.5 -5t2.5 -12q0 -14 -17 -32.5t-39.5 -35t-44 -28.5t-30.5 -12q-8 0 -29 11.5t-43.5 28.5t-40 36.5t-17.5 35.5q0 13 11 13q5 0 18 -4t29.5 -11t35.5 -16.5t36 -19.5q17 10 36 19.5t36 16.5t30 11t18 4zM541 588q0 36 -14 62.5t-36 45.5t-50.5 31t-57 18.5
t-55 9t-45.5 2.5q-14 0 -27 -1t-23 -3q-12 -2 -22 -3v-345q1 0 7 -0.5t13.5 -0.5t14 -0.5t7.5 -0.5q45 0 95.5 7t93.5 27.5t71 56.5t28 94zM214 337q-2 0 -3 1v-287h80q19 0 33 -4.5t14 -21.5q0 -11 -12.5 -18t-56.5 -7h-187q-29 0 -36 8t-7 19q0 10 9.5 15.5t42.5 5.5
q7 0 15.5 1.5t15.5 7t11.5 15t4.5 25.5q0 78 1 157t1 158q0 82 -3 161.5t-3 161.5q0 23 -17.5 29t-42.5 6q-32 0 -32 29q0 11 9.5 15t19.5 4q40 0 66.5 0.5l52 1t55 1t74.5 0.5q46 0 98 -12t96 -38.5t73.5 -70t29.5 -106.5q0 -64 -26 -110.5t-68.5 -77t-98 -47t-115.5 -21.5
l82 -126q35 -53 77 -109t78 -97h123q23 0 34.5 -4t11.5 -20q0 -7 -6.5 -12t-27.5 -8t-61 -4.5t-107 -1.5q-9 0 -27 19.5t-42 51l-52.5 72l-57.5 83l-57.5 83t-53.5 72.5h-8z" />
    <glyph glyph-name="Rcommaaccent" unicode="&#x156;" horiz-adv-x="691" 
d="M39 0zM541 588q0 36 -14 62.5t-36 45.5t-50.5 31t-57 18.5t-55 9t-45.5 2.5q-14 0 -27 -1t-23 -3q-12 -2 -22 -3v-345q1 0 7 -0.5t13.5 -0.5t14 -0.5t7.5 -0.5q45 0 95.5 7t93.5 27.5t71 56.5t28 94zM214 337q-2 0 -3 1v-287h80q19 0 33 -4.5t14 -21.5q0 -11 -12.5 -18
t-56.5 -7h-187q-29 0 -36 8t-7 19q0 10 9.5 15.5t42.5 5.5q7 0 15.5 1.5t15.5 7t11.5 15t4.5 25.5q0 78 1 157t1 158q0 82 -3 161.5t-3 161.5q0 23 -17.5 29t-42.5 6q-32 0 -32 29q0 11 9.5 15t19.5 4q40 0 66.5 0.5l52 1t55 1t74.5 0.5q46 0 98 -12t96 -38.5t73.5 -70
t29.5 -106.5q0 -64 -26 -110.5t-68.5 -77t-98 -47t-115.5 -21.5l82 -126q35 -53 77 -109t78 -97h123q23 0 34.5 -4t11.5 -20q0 -7 -6.5 -12t-27.5 -8t-61 -4.5t-107 -1.5q-9 0 -27 19.5t-42 51l-52.5 72l-57.5 83l-57.5 83t-53.5 72.5h-8zM301 -100q0 18 12 33.5t40 15.5
q20 0 38.5 -16t18.5 -56q0 -23 -7 -42t-17.5 -32.5t-21.5 -21.5t-19 -8q-5 0 -13 3t-8 16q0 9 6.5 21.5t6.5 38.5q0 6 -5.5 10t-12.5 8.5t-12.5 11t-5.5 18.5z" />
    <glyph glyph-name="S" unicode="S" horiz-adv-x="613" 
d="M110 85q0 -21 1 -38l2 -38q0 -12 -8 -23.5t-26 -11.5q-17 0 -26 13t-9 20q0 6 0.5 18t1.5 27t1.5 30t0.5 26q0 16 -0.5 27t-0.5 21.5t-0.5 21.5t-0.5 27q0 14 6 29t28 15q13 0 20 -6.5t11 -17t5 -22.5t1 -23q0 -26 12.5 -50t36.5 -43.5t59 -31t80 -11.5q36 0 68.5 7.5
t57 20.5t39.5 31.5t15 41.5q0 30 -24.5 54t-61.5 44t-79 37t-77 34q-32 15 -65.5 33.5t-61 47t-45 71.5t-17.5 108q0 56 23.5 104t60.5 83.5t83 55.5t91 20q73 0 124 -39.5t81 -126.5l-6 93.5t-2 31.5q0 12 6.5 23.5t27.5 11.5q12 0 19 -4t10.5 -9t4.5 -11t1 -9
q0 -35 -2 -72.5t-2 -73.5q0 -32 1 -60t1 -60q0 -14 -9 -24t-27 -10q-20 0 -27 18.5t-7 40.5q-4 48 -22 88t-44 69.5t-57.5 46t-62.5 16.5q-41 0 -76.5 -18t-61.5 -48t-41.5 -68t-15.5 -78q0 -45 11 -75.5t29.5 -51t42 -33.5t47.5 -24q22 -10 53 -22t64.5 -27.5t66.5 -34
t59 -41t42 -50.5t16 -61q0 -45 -24.5 -76t-61.5 -49.5t-80.5 -27t-81.5 -8.5q-27 0 -56.5 5t-56.5 16.5t-49.5 31t-35.5 48.5z" />
    <glyph glyph-name="Sacute" unicode="&#x15a;" horiz-adv-x="613" 
d="M391 941q0 -12 -14 -27t-32.5 -28.5t-38 -22.5t-29.5 -9q-11 0 -17.5 6.5t-6.5 16.5t12.5 26t29.5 31.5t35 26.5t29 11q15 0 23.5 -8.5t8.5 -22.5zM110 85q0 -21 1 -38l2 -38q0 -12 -8 -23.5t-26 -11.5q-17 0 -26 13t-9 20q0 6 0.5 18t1.5 27t1.5 30t0.5 26q0 16 -0.5 27
t-0.5 21.5t-0.5 21.5t-0.5 27q0 14 6 29t28 15q13 0 20 -6.5t11 -17t5 -22.5t1 -23q0 -26 12.5 -50t36.5 -43.5t59 -31t80 -11.5q36 0 68.5 7.5t57 20.5t39.5 31.5t15 41.5q0 30 -24.5 54t-61.5 44t-79 37t-77 34q-32 15 -65.5 33.5t-61 47t-45 71.5t-17.5 108
q0 56 23.5 104t60.5 83.5t83 55.5t91 20q73 0 124 -39.5t81 -126.5l-6 93.5t-2 31.5q0 12 6.5 23.5t27.5 11.5q12 0 19 -4t10.5 -9t4.5 -11t1 -9q0 -35 -2 -72.5t-2 -73.5q0 -32 1 -60t1 -60q0 -14 -9 -24t-27 -10q-20 0 -27 18.5t-7 40.5q-4 48 -22 88t-44 69.5t-57.5 46
t-62.5 16.5q-41 0 -76.5 -18t-61.5 -48t-41.5 -68t-15.5 -78q0 -45 11 -75.5t29.5 -51t42 -33.5t47.5 -24q22 -10 53 -22t64.5 -27.5t66.5 -34t59 -41t42 -50.5t16 -61q0 -45 -24.5 -76t-61.5 -49.5t-80.5 -27t-81.5 -8.5q-27 0 -56.5 5t-56.5 16.5t-49.5 31t-35.5 48.5z
" />
    <glyph glyph-name="Scaron" unicode="&#x160;" horiz-adv-x="613" 
d="M432 972q6 0 8.5 -5t2.5 -12q0 -14 -17 -32.5t-39.5 -35t-44 -28.5t-30.5 -12q-8 0 -29 11.5t-43.5 28.5t-40 36.5t-17.5 35.5q0 13 11 13q5 0 18 -4t29.5 -11t35.5 -16.5t36 -19.5q17 10 36 19.5t36 16.5t30 11t18 4zM110 85q0 -21 1 -38l2 -38q0 -12 -8 -23.5
t-26 -11.5q-17 0 -26 13t-9 20q0 6 0.5 18t1.5 27t1.5 30t0.5 26q0 16 -0.5 27t-0.5 21.5t-0.5 21.5t-0.5 27q0 14 6 29t28 15q13 0 20 -6.5t11 -17t5 -22.5t1 -23q0 -26 12.5 -50t36.5 -43.5t59 -31t80 -11.5q36 0 68.5 7.5t57 20.5t39.5 31.5t15 41.5q0 30 -24.5 54
t-61.5 44t-79 37t-77 34q-32 15 -65.5 33.5t-61 47t-45 71.5t-17.5 108q0 56 23.5 104t60.5 83.5t83 55.5t91 20q73 0 124 -39.5t81 -126.5l-6 93.5t-2 31.5q0 12 6.5 23.5t27.5 11.5q12 0 19 -4t10.5 -9t4.5 -11t1 -9q0 -35 -2 -72.5t-2 -73.5q0 -32 1 -60t1 -60
q0 -14 -9 -24t-27 -10q-20 0 -27 18.5t-7 40.5q-4 48 -22 88t-44 69.5t-57.5 46t-62.5 16.5q-41 0 -76.5 -18t-61.5 -48t-41.5 -68t-15.5 -78q0 -45 11 -75.5t29.5 -51t42 -33.5t47.5 -24q22 -10 53 -22t64.5 -27.5t66.5 -34t59 -41t42 -50.5t16 -61q0 -45 -24.5 -76
t-61.5 -49.5t-80.5 -27t-81.5 -8.5q-27 0 -56.5 5t-56.5 16.5t-49.5 31t-35.5 48.5z" />
    <glyph glyph-name="Schwa" unicode="&#x18f;" horiz-adv-x="659" 
d="M145 312q-15 0 -19.5 -9t-4.5 -24q0 -31 13.5 -70.5t38.5 -74t60.5 -58.5t79.5 -24q52 0 90.5 25.5t65 64.5t42.5 86t24 91zM543 383l2 29t1 27q0 57 -15.5 116t-45.5 108t-73.5 80t-100.5 31q-37 0 -73.5 -17.5t-66 -47.5t-48 -69t-18.5 -81q0 -14 -9.5 -27.5
t-29.5 -13.5q-19 0 -28.5 13.5t-9.5 27.5q0 60 23.5 111t62.5 88t89.5 58t104.5 21q80 0 139 -31.5t97.5 -87t57.5 -131t19 -162.5q0 -96 -24 -176.5t-66.5 -138t-100.5 -89.5t-126 -32q-48 0 -86 16t-67 41.5t-50 58t-34 66t-19 65t-6 54.5q0 33 11.5 60.5t37.5 28.5
q35 2 87.5 2h108.5q17 0 52 0.5t74 0.5t75 0.5t55 0.5z" />
    <glyph glyph-name="Scircumflex" unicode="&#x15c;" horiz-adv-x="613" 
d="M432 847q-5 0 -18 4t-30 11t-36 16.5t-36 19.5q-17 -10 -36 -19.5t-35.5 -16.5t-29.5 -11t-18 -4q-11 0 -11 13q0 16 17.5 35.5t40 36.5t43.5 28.5t29 11.5q9 0 30.5 -12t44 -28.5t39.5 -35.5t17 -32q0 -7 -2.5 -12t-8.5 -5zM110 85q0 -21 1 -38l2 -38q0 -12 -8 -23.5
t-26 -11.5q-17 0 -26 13t-9 20q0 6 0.5 18t1.5 27t1.5 30t0.5 26q0 16 -0.5 27t-0.5 21.5t-0.5 21.5t-0.5 27q0 14 6 29t28 15q13 0 20 -6.5t11 -17t5 -22.5t1 -23q0 -26 12.5 -50t36.5 -43.5t59 -31t80 -11.5q36 0 68.5 7.5t57 20.5t39.5 31.5t15 41.5q0 30 -24.5 54
t-61.5 44t-79 37t-77 34q-32 15 -65.5 33.5t-61 47t-45 71.5t-17.5 108q0 56 23.5 104t60.5 83.5t83 55.5t91 20q73 0 124 -39.5t81 -126.5l-6 93.5t-2 31.5q0 12 6.5 23.5t27.5 11.5q12 0 19 -4t10.5 -9t4.5 -11t1 -9q0 -35 -2 -72.5t-2 -73.5q0 -32 1 -60t1 -60
q0 -14 -9 -24t-27 -10q-20 0 -27 18.5t-7 40.5q-4 48 -22 88t-44 69.5t-57.5 46t-62.5 16.5q-41 0 -76.5 -18t-61.5 -48t-41.5 -68t-15.5 -78q0 -45 11 -75.5t29.5 -51t42 -33.5t47.5 -24q22 -10 53 -22t64.5 -27.5t66.5 -34t59 -41t42 -50.5t16 -61q0 -45 -24.5 -76
t-61.5 -49.5t-80.5 -27t-81.5 -8.5q-27 0 -56.5 5t-56.5 16.5t-49.5 31t-35.5 48.5z" />
    <glyph glyph-name="T" unicode="T" horiz-adv-x="635" 
d="M118 755q-26 0 -31.5 -10t-5.5 -39v-96q0 -32 -7.5 -43.5t-26.5 -11.5q-13 0 -23 7t-10 37v20.5t0.5 26t0.5 26.5v21q0 16 -0.5 42t-0.5 43q0 29 7.5 36t30.5 7q71 0 132.5 -1t132.5 -1t132.5 1t132.5 1q24 0 31 -7t7 -36q0 -17 -0.5 -43t-0.5 -42v-21t0.5 -26.5t0.5 -26
v-20.5q0 -30 -9.5 -37t-23.5 -7q-23 0 -28.5 11.5t-5.5 43.5v96q0 29 -5.5 39t-31.5 10h-165v-704h91q11 0 20.5 -5t9.5 -22q0 -9 -5 -16.5t-15 -7.5h-232q-14 0 -27.5 3.5t-13.5 19.5q0 17 10 21t19 4q8 0 19.5 0.5t22.5 5t18.5 14t7.5 26.5q0 77 2 151t2 156
q0 40 -0.5 85.5t-1.5 91.5t-1.5 91.5t-0.5 85.5h-158z" />
    <glyph glyph-name="Tbar" unicode="&#x166;" horiz-adv-x="635" 
d="M456 471q8 0 14.5 -11t6.5 -21q0 -4 -1.5 -10t-4.5 -12t-8.5 -10t-14.5 -4h-56.5t-76 -0.5t-75 -0.5h-53.5q-11 0 -18.5 12t-7.5 22t6 22t20 12q7 0 23.5 -0.5t36 -0.5t39 -0.5t32.5 -0.5q42 0 78 1.5t60 1.5zM118 755q-26 0 -31.5 -10t-5.5 -39v-96q0 -32 -7.5 -43.5
t-26.5 -11.5q-13 0 -23 7t-10 37v20.5t0.5 26t0.5 26.5v21q0 16 -0.5 42t-0.5 43q0 29 7.5 36t30.5 7q71 0 132.5 -1t132.5 -1t132.5 1t132.5 1q24 0 31 -7t7 -36q0 -17 -0.5 -43t-0.5 -42v-21t0.5 -26.5t0.5 -26v-20.5q0 -30 -9.5 -37t-23.5 -7q-23 0 -28.5 11.5t-5.5 43.5
v96q0 29 -5.5 39t-31.5 10h-165v-704h91q11 0 20.5 -5t9.5 -22q0 -9 -5 -16.5t-15 -7.5h-232q-14 0 -27.5 3.5t-13.5 19.5q0 17 10 21t19 4q8 0 19.5 0.5t22.5 5t18.5 14t7.5 26.5q0 77 2 151t2 156q0 40 -0.5 85.5t-1.5 91.5t-1.5 91.5t-0.5 85.5h-158z" />
    <glyph glyph-name="Tcaron" unicode="&#x164;" horiz-adv-x="635" 
d="M430 972q6 0 8.5 -5t2.5 -12q0 -14 -17 -32.5t-39.5 -35t-44 -28.5t-30.5 -12q-8 0 -29 11.5t-43.5 28.5t-40 36.5t-17.5 35.5q0 13 11 13q5 0 18 -4t29.5 -11t35.5 -16.5t36 -19.5q17 10 36 19.5t36 16.5t30 11t18 4zM118 755q-26 0 -31.5 -10t-5.5 -39v-96
q0 -32 -7.5 -43.5t-26.5 -11.5q-13 0 -23 7t-10 37v20.5t0.5 26t0.5 26.5v21q0 16 -0.5 42t-0.5 43q0 29 7.5 36t30.5 7q71 0 132.5 -1t132.5 -1t132.5 1t132.5 1q24 0 31 -7t7 -36q0 -17 -0.5 -43t-0.5 -42v-21t0.5 -26.5t0.5 -26v-20.5q0 -30 -9.5 -37t-23.5 -7
q-23 0 -28.5 11.5t-5.5 43.5v96q0 29 -5.5 39t-31.5 10h-165v-704h91q11 0 20.5 -5t9.5 -22q0 -9 -5 -16.5t-15 -7.5h-232q-14 0 -27.5 3.5t-13.5 19.5q0 17 10 21t19 4q8 0 19.5 0.5t22.5 5t18.5 14t7.5 26.5q0 77 2 151t2 156q0 40 -0.5 85.5t-1.5 91.5t-1.5 91.5
t-0.5 85.5h-158z" />
    <glyph glyph-name="Thorn" unicode="&#xde;" horiz-adv-x="633" 
d="M91 48q18 0 27.5 5t14 12t5 14.5t0.5 12.5v63.5v47.5t0.5 39t0.5 39.5v48.5v65q0 45 -1 93.5l-2 94t-2 84t-1 63.5q0 15 -8.5 27.5t-40.5 12.5h-4q-22 0 -30 6.5t-8 16.5q0 26 38 26q17 0 45.5 0.5t58.5 0.5t56 0.5t38 0.5q7 0 16 -0.5t16.5 -3t12.5 -7.5t5 -13
q0 -9 -5.5 -14.5t-13.5 -8t-17 -3t-16 -0.5q-9 0 -20.5 -0.5t-21.5 -3.5t-17 -9t-7 -18v-92q24 1 51 1h64q61 0 114 -12t92.5 -39t62 -70t22.5 -105q0 -68 -32 -114t-81.5 -74.5t-109.5 -40.5t-116 -12h-20t-22 1q-12 0 -24 1v-133h97q22 0 37.5 -5.5t15.5 -20.5
q0 -19 -15.5 -22t-39.5 -3h-196q-38 0 -54.5 5t-16.5 19q0 11 11.5 17.5t40.5 6.5zM283 585q-19 0 -37 -2t-35 -5v-330q9 -1 20 -1q9 -1 20.5 -1h24.5q15 0 41 1.5t55.5 7.5t59.5 17.5t54 31t39.5 48t15.5 68.5q0 60 -29 93.5t-69.5 49t-84.5 19t-75 3.5z" />
    <glyph glyph-name="U" unicode="U" horiz-adv-x="772" 
d="M184 323q0 -54 4 -103.5t23 -87.5t59 -61t113 -23q54 0 91.5 19.5t60.5 51.5t33 72t10 81v422q0 9 -7 13.5t-16.5 6.5t-19.5 2.5t-17 0.5q-11 0 -24 5t-13 20q0 25 37 25h196q32 0 41.5 -5.5t9.5 -19.5q0 -17 -12.5 -21t-24.5 -4q-5 0 -18.5 -0.5t-27 -2.5t-24 -7.5
t-10.5 -14.5q0 -51 -1 -100.5t-1 -99.5q0 -55 1 -110t1 -110q0 -74 -19.5 -128t-54.5 -89t-84 -52t-108 -17q-46 0 -86.5 8.5t-73 25.5t-55.5 43.5t-33 61.5q-15 51 -17.5 102.5t-2.5 106.5q0 32 0.5 65.5t0.5 67.5q0 70 -1 140t-1 141q0 9 -7 13.5t-16.5 6.5t-20 2.5
t-16.5 0.5q-11 0 -24 3.5t-13 21.5q0 16 14 20.5t23 4.5h197q32 0 41.5 -5.5t9.5 -19.5t-12.5 -19.5t-24.5 -5.5q-5 0 -18 -0.5t-26.5 -2.5t-24.5 -7.5t-11 -14.5v-423z" />
    <glyph glyph-name="Uacute" unicode="&#xda;" horiz-adv-x="772" 
d="M466 941q0 -12 -14 -27t-32.5 -28.5t-38 -22.5t-29.5 -9q-11 0 -17.5 6.5t-6.5 16.5t12.5 26t29.5 31.5t35 26.5t29 11q15 0 23.5 -8.5t8.5 -22.5zM184 323q0 -54 4 -103.5t23 -87.5t59 -61t113 -23q54 0 91.5 19.5t60.5 51.5t33 72t10 81v422q0 9 -7 13.5t-16.5 6.5
t-19.5 2.5t-17 0.5q-11 0 -24 5t-13 20q0 25 37 25h196q32 0 41.5 -5.5t9.5 -19.5q0 -17 -12.5 -21t-24.5 -4q-5 0 -18.5 -0.5t-27 -2.5t-24 -7.5t-10.5 -14.5q0 -51 -1 -100.5t-1 -99.5q0 -55 1 -110t1 -110q0 -74 -19.5 -128t-54.5 -89t-84 -52t-108 -17q-46 0 -86.5 8.5
t-73 25.5t-55.5 43.5t-33 61.5q-15 51 -17.5 102.5t-2.5 106.5q0 32 0.5 65.5t0.5 67.5q0 70 -1 140t-1 141q0 9 -7 13.5t-16.5 6.5t-20 2.5t-16.5 0.5q-11 0 -24 3.5t-13 21.5q0 16 14 20.5t23 4.5h197q32 0 41.5 -5.5t9.5 -19.5t-12.5 -19.5t-24.5 -5.5q-5 0 -18 -0.5
t-26.5 -2.5t-24.5 -7.5t-11 -14.5v-423z" />
    <glyph glyph-name="Ubreve" unicode="&#x16c;" horiz-adv-x="772" 
d="M16 0zM184 323q0 -54 4 -103.5t23 -87.5t59 -61t113 -23q54 0 91.5 19.5t60.5 51.5t33 72t10 81v422q0 9 -7 13.5t-16.5 6.5t-19.5 2.5t-17 0.5q-11 0 -24 5t-13 20q0 25 37 25h196q32 0 41.5 -5.5t9.5 -19.5q0 -17 -12.5 -21t-24.5 -4q-5 0 -18.5 -0.5t-27 -2.5
t-24 -7.5t-10.5 -14.5q0 -51 -1 -100.5t-1 -99.5q0 -55 1 -110t1 -110q0 -74 -19.5 -128t-54.5 -89t-84 -52t-108 -17q-46 0 -86.5 8.5t-73 25.5t-55.5 43.5t-33 61.5q-15 51 -17.5 102.5t-2.5 106.5q0 32 0.5 65.5t0.5 67.5q0 70 -1 140t-1 141q0 9 -7 13.5t-16.5 6.5
t-20 2.5t-16.5 0.5q-11 0 -24 3.5t-13 21.5q0 16 14 20.5t23 4.5h197q32 0 41.5 -5.5t9.5 -19.5t-12.5 -19.5t-24.5 -5.5q-5 0 -18 -0.5t-26.5 -2.5t-24.5 -7.5t-11 -14.5v-423zM519 944q0 -19 -11 -34t-28 -25t-38 -15t-40 -5q-57 0 -89.5 24t-32.5 55q0 28 26 28
q14 0 21 -6t7 -21q0 -10 6 -16.5t15.5 -10.5t21 -6t22.5 -2q29 0 46.5 11t17.5 24q0 11 7.5 19t18.5 8q10 0 20 -4t10 -24z" />
    <glyph glyph-name="Ucircumflex" unicode="&#xdb;" horiz-adv-x="772" 
d="M512 847q-5 0 -18 4t-30 11t-36 16.5t-36 19.5q-17 -10 -36 -19.5t-35.5 -16.5t-29.5 -11t-18 -4q-11 0 -11 13q0 16 17.5 35.5t40 36.5t43.5 28.5t29 11.5q9 0 30.5 -12t44 -28.5t39.5 -35.5t17 -32q0 -7 -2.5 -12t-8.5 -5zM184 323q0 -54 4 -103.5t23 -87.5t59 -61
t113 -23q54 0 91.5 19.5t60.5 51.5t33 72t10 81v422q0 9 -7 13.5t-16.5 6.5t-19.5 2.5t-17 0.5q-11 0 -24 5t-13 20q0 25 37 25h196q32 0 41.5 -5.5t9.5 -19.5q0 -17 -12.5 -21t-24.5 -4q-5 0 -18.5 -0.5t-27 -2.5t-24 -7.5t-10.5 -14.5q0 -51 -1 -100.5t-1 -99.5
q0 -55 1 -110t1 -110q0 -74 -19.5 -128t-54.5 -89t-84 -52t-108 -17q-46 0 -86.5 8.5t-73 25.5t-55.5 43.5t-33 61.5q-15 51 -17.5 102.5t-2.5 106.5q0 32 0.5 65.5t0.5 67.5q0 70 -1 140t-1 141q0 9 -7 13.5t-16.5 6.5t-20 2.5t-16.5 0.5q-11 0 -24 3.5t-13 21.5
q0 16 14 20.5t23 4.5h197q32 0 41.5 -5.5t9.5 -19.5t-12.5 -19.5t-24.5 -5.5q-5 0 -18 -0.5t-26.5 -2.5t-24.5 -7.5t-11 -14.5v-423z" />
    <glyph glyph-name="Udieresis" unicode="&#xdc;" horiz-adv-x="772" 
d="M240 916q0 7 3 16.5t10 18.5t17.5 15t25.5 6q20 0 34.5 -14.5t14.5 -37.5q0 -36 -18.5 -48.5t-37.5 -12.5q-20 0 -34.5 16t-14.5 41zM447 904q0 7 3 16.5t10 18.5t17.5 15t25.5 6q20 0 34.5 -14.5t14.5 -37.5q0 -36 -18.5 -48.5t-37.5 -12.5q-20 0 -34.5 16t-14.5 41z
M184 323q0 -54 4 -103.5t23 -87.5t59 -61t113 -23q54 0 91.5 19.5t60.5 51.5t33 72t10 81v422q0 9 -7 13.5t-16.5 6.5t-19.5 2.5t-17 0.5q-11 0 -24 5t-13 20q0 25 37 25h196q32 0 41.5 -5.5t9.5 -19.5q0 -17 -12.5 -21t-24.5 -4q-5 0 -18.5 -0.5t-27 -2.5t-24 -7.5
t-10.5 -14.5q0 -51 -1 -100.5t-1 -99.5q0 -55 1 -110t1 -110q0 -74 -19.5 -128t-54.5 -89t-84 -52t-108 -17q-46 0 -86.5 8.5t-73 25.5t-55.5 43.5t-33 61.5q-15 51 -17.5 102.5t-2.5 106.5q0 32 0.5 65.5t0.5 67.5q0 70 -1 140t-1 141q0 9 -7 13.5t-16.5 6.5t-20 2.5
t-16.5 0.5q-11 0 -24 3.5t-13 21.5q0 16 14 20.5t23 4.5h197q32 0 41.5 -5.5t9.5 -19.5t-12.5 -19.5t-24.5 -5.5q-5 0 -18 -0.5t-26.5 -2.5t-24.5 -7.5t-11 -14.5v-423z" />
    <glyph glyph-name="Ugrave" unicode="&#xd9;" horiz-adv-x="772" 
d="M325 941q0 14 8.5 22.5t23.5 8.5q11 0 29 -11t35 -26.5t29.5 -31.5t12.5 -26t-6.5 -16.5t-17.5 -6.5t-30 9t-37.5 22.5t-32.5 28.5t-14 27zM184 323q0 -54 4 -103.5t23 -87.5t59 -61t113 -23q54 0 91.5 19.5t60.5 51.5t33 72t10 81v422q0 9 -7 13.5t-16.5 6.5t-19.5 2.5
t-17 0.5q-11 0 -24 5t-13 20q0 25 37 25h196q32 0 41.5 -5.5t9.5 -19.5q0 -17 -12.5 -21t-24.5 -4q-5 0 -18.5 -0.5t-27 -2.5t-24 -7.5t-10.5 -14.5q0 -51 -1 -100.5t-1 -99.5q0 -55 1 -110t1 -110q0 -74 -19.5 -128t-54.5 -89t-84 -52t-108 -17q-46 0 -86.5 8.5t-73 25.5
t-55.5 43.5t-33 61.5q-15 51 -17.5 102.5t-2.5 106.5q0 32 0.5 65.5t0.5 67.5q0 70 -1 140t-1 141q0 9 -7 13.5t-16.5 6.5t-20 2.5t-16.5 0.5q-11 0 -24 3.5t-13 21.5q0 16 14 20.5t23 4.5h197q32 0 41.5 -5.5t9.5 -19.5t-12.5 -19.5t-24.5 -5.5q-5 0 -18 -0.5t-26.5 -2.5
t-24.5 -7.5t-11 -14.5v-423z" />
    <glyph glyph-name="Uhungarumlaut" unicode="&#x170;" horiz-adv-x="772" 
d="M382 941q0 -12 -14 -27t-32.5 -28.5t-38 -22.5t-29.5 -9q-11 0 -17.5 6.5t-6.5 16.5t12.5 26t29.5 31.5t35 26.5t29 11q15 0 23.5 -8.5t8.5 -22.5zM553 941q0 -12 -14 -27t-32.5 -28.5t-38 -22.5t-29.5 -9q-11 0 -17.5 6.5t-6.5 16.5t12.5 26t29.5 31.5t35 26.5t29 11
q15 0 23.5 -8.5t8.5 -22.5zM184 323q0 -54 4 -103.5t23 -87.5t59 -61t113 -23q54 0 91.5 19.5t60.5 51.5t33 72t10 81v422q0 9 -7 13.5t-16.5 6.5t-19.5 2.5t-17 0.5q-11 0 -24 5t-13 20q0 25 37 25h196q32 0 41.5 -5.5t9.5 -19.5q0 -17 -12.5 -21t-24.5 -4q-5 0 -18.5 -0.5
t-27 -2.5t-24 -7.5t-10.5 -14.5q0 -51 -1 -100.5t-1 -99.5q0 -55 1 -110t1 -110q0 -74 -19.5 -128t-54.5 -89t-84 -52t-108 -17q-46 0 -86.5 8.5t-73 25.5t-55.5 43.5t-33 61.5q-15 51 -17.5 102.5t-2.5 106.5q0 32 0.5 65.5t0.5 67.5q0 70 -1 140t-1 141q0 9 -7 13.5
t-16.5 6.5t-20 2.5t-16.5 0.5q-11 0 -24 3.5t-13 21.5q0 16 14 20.5t23 4.5h197q32 0 41.5 -5.5t9.5 -19.5t-12.5 -19.5t-24.5 -5.5q-5 0 -18 -0.5t-26.5 -2.5t-24.5 -7.5t-11 -14.5v-423z" />
    <glyph glyph-name="Umacron" unicode="&#x16a;" horiz-adv-x="772" 
d="M16 0zM184 323q0 -54 4 -103.5t23 -87.5t59 -61t113 -23q54 0 91.5 19.5t60.5 51.5t33 72t10 81v422q0 9 -7 13.5t-16.5 6.5t-19.5 2.5t-17 0.5q-11 0 -24 5t-13 20q0 25 37 25h196q32 0 41.5 -5.5t9.5 -19.5q0 -17 -12.5 -21t-24.5 -4q-5 0 -18.5 -0.5t-27 -2.5
t-24 -7.5t-10.5 -14.5q0 -51 -1 -100.5t-1 -99.5q0 -55 1 -110t1 -110q0 -74 -19.5 -128t-54.5 -89t-84 -52t-108 -17q-46 0 -86.5 8.5t-73 25.5t-55.5 43.5t-33 61.5q-15 51 -17.5 102.5t-2.5 106.5q0 32 0.5 65.5t0.5 67.5q0 70 -1 140t-1 141q0 9 -7 13.5t-16.5 6.5
t-20 2.5t-16.5 0.5q-11 0 -24 3.5t-13 21.5q0 16 14 20.5t23 4.5h197q32 0 41.5 -5.5t9.5 -19.5t-12.5 -19.5t-24.5 -5.5q-5 0 -18 -0.5t-26.5 -2.5t-24.5 -7.5t-11 -14.5v-423zM537 942q8 0 14.5 -8.5t6.5 -19.5q0 -8 -6 -20.5t-23 -12.5h-53.5t-69.5 -0.5t-68 -0.5h-50
q-11 0 -18.5 10t-7.5 21t6 20.5t20 9.5q7 0 22 -0.5t33 -0.5t35.5 -0.5t30.5 -0.5q42 0 73 1.5t55 1.5z" />
    <glyph glyph-name="Uogonek" unicode="&#x172;" horiz-adv-x="773" 
d="M17 0zM185 323q0 -54 4 -103.5t23 -87.5t59 -61t113 -23q54 0 91.5 19.5t60.5 51.5t33 72t10 81v422q0 9 -7 13.5t-16.5 6.5t-19.5 2.5t-17 0.5q-11 0 -24 5t-13 20q0 25 37 25h196q32 0 41.5 -5.5t9.5 -19.5q0 -17 -12.5 -21t-24.5 -4q-5 0 -18.5 -0.5t-27 -2.5
t-24 -7.5t-10.5 -14.5q0 -51 -1 -100.5t-1 -99.5q0 -55 1 -110t1 -110q0 -74 -19.5 -128t-54.5 -89t-84 -52t-108 -17q-46 0 -86.5 8.5t-73 25.5t-55.5 43.5t-33 61.5q-15 51 -17.5 102.5t-2.5 106.5q0 32 0.5 65.5t0.5 67.5q0 70 -1 140t-1 141q0 9 -7 13.5t-16.5 6.5
t-20 2.5t-16.5 0.5q-11 0 -24 3.5t-13 21.5q0 16 14 20.5t23 4.5h197q32 0 41.5 -5.5t9.5 -19.5t-12.5 -19.5t-24.5 -5.5q-5 0 -18 -0.5t-26.5 -2.5t-24.5 -7.5t-11 -14.5v-423zM412 13q-18 -6 -29.5 -18.5t-18 -25.5t-9 -25.5t-2.5 -18.5q0 -12 9.5 -21.5t21.5 -9.5
q25 0 33.5 8.5t16.5 15.5q7 6 13 6q11 0 16 -7t5 -15q0 -4 -5.5 -12.5t-16 -17t-24.5 -15t-32 -6.5q-44 0 -72.5 20.5t-28.5 52.5q0 23 11 39.5t25 27.5q16 13 37 23z" />
    <glyph glyph-name="Uring" unicode="&#x16e;" horiz-adv-x="772" 
d="M16 0zM184 323q0 -54 4 -103.5t23 -87.5t59 -61t113 -23q54 0 91.5 19.5t60.5 51.5t33 72t10 81v422q0 9 -7 13.5t-16.5 6.5t-19.5 2.5t-17 0.5q-11 0 -24 5t-13 20q0 25 37 25h196q32 0 41.5 -5.5t9.5 -19.5q0 -17 -12.5 -21t-24.5 -4q-5 0 -18.5 -0.5t-27 -2.5
t-24 -7.5t-10.5 -14.5q0 -51 -1 -100.5t-1 -99.5q0 -55 1 -110t1 -110q0 -74 -19.5 -128t-54.5 -89t-84 -52t-108 -17q-46 0 -86.5 8.5t-73 25.5t-55.5 43.5t-33 61.5q-15 51 -17.5 102.5t-2.5 106.5q0 32 0.5 65.5t0.5 67.5q0 70 -1 140t-1 141q0 9 -7 13.5t-16.5 6.5
t-20 2.5t-16.5 0.5q-11 0 -24 3.5t-13 21.5q0 16 14 20.5t23 4.5h197q32 0 41.5 -5.5t9.5 -19.5t-12.5 -19.5t-24.5 -5.5q-5 0 -18 -0.5t-26.5 -2.5t-24.5 -7.5t-11 -14.5v-423zM469 904q0 -36 -21.5 -53.5t-48.5 -17.5q-30 0 -51 19t-21 50q0 30 20.5 50t50.5 20
q35 0 53 -18t18 -50zM398 938q-8 0 -17 -7.5t-9 -28.5q0 -22 10.5 -28.5t16.5 -6.5q5 0 15 6.5t10 29.5q0 19 -8 27t-18 8z" />
    <glyph glyph-name="Utilde" unicode="&#x168;" horiz-adv-x="772" 
d="M16 0zM184 323q0 -54 4 -103.5t23 -87.5t59 -61t113 -23q54 0 91.5 19.5t60.5 51.5t33 72t10 81v422q0 9 -7 13.5t-16.5 6.5t-19.5 2.5t-17 0.5q-11 0 -24 5t-13 20q0 25 37 25h196q32 0 41.5 -5.5t9.5 -19.5q0 -17 -12.5 -21t-24.5 -4q-5 0 -18.5 -0.5t-27 -2.5
t-24 -7.5t-10.5 -14.5q0 -51 -1 -100.5t-1 -99.5q0 -55 1 -110t1 -110q0 -74 -19.5 -128t-54.5 -89t-84 -52t-108 -17q-46 0 -86.5 8.5t-73 25.5t-55.5 43.5t-33 61.5q-15 51 -17.5 102.5t-2.5 106.5q0 32 0.5 65.5t0.5 67.5q0 70 -1 140t-1 141q0 9 -7 13.5t-16.5 6.5
t-20 2.5t-16.5 0.5q-11 0 -24 3.5t-13 21.5q0 16 14 20.5t23 4.5h197q32 0 41.5 -5.5t9.5 -19.5t-12.5 -19.5t-24.5 -5.5q-5 0 -18 -0.5t-26.5 -2.5t-24.5 -7.5t-11 -14.5v-423zM229 924q2 5 8 12t21 16q31 18 68 18q15 0 32.5 -4.5l35.5 -9.5t36 -9.5t33 -4.5q26 0 60 17
q14 8 19.5 10.5t10.5 2.5t11.5 -8t6.5 -20q0 -10 -5 -19q-10 -17 -35 -31t-67 -14q-19 0 -37.5 3.5t-36 8l-33.5 8.5t-30 4q-15 0 -27.5 -4t-23 -8.5t-19 -8.5t-14.5 -4q-8 0 -12.5 8.5t-4.5 19.5q0 9 3 17z" />
    <glyph glyph-name="V" unicode="V" horiz-adv-x="687" 
d="M347 99l81 281l29.5 107l26 97.5t18.5 75.5t7 41q0 13 -14 14l-27 2q-5 0 -11.5 0.5t-12.5 3t-10.5 7.5t-4.5 13q0 14 9.5 19.5t29.5 5.5h243q17 0 25 -4.5t8 -19.5q0 -14 -10 -17.5t-20 -3.5q-11 0 -23 -1l-23.5 -2t-20 -2t-12.5 -1q-22 -2 -32 -11t-17 -27
q-16 -43 -34.5 -101l-38 -123l-39 -132.5l-37.5 -129.5l-33 -114l-25 -86q-2 -8 -10 -16.5t-24 -8.5q-12 0 -22.5 6t-14.5 19l-212 752q-4 20 -21.5 26t-51.5 6q-14 0 -30 4.5t-16 21.5q0 14 14 17t31 3h217q18 0 24.5 -4.5t6.5 -15.5q0 -16 -15 -20.5t-33 -6t-33 -5.5
t-15 -18q0 -9 7.5 -41.5t19.5 -80l27.5 -105l31.5 -116.5z" />
    <glyph glyph-name="W" unicode="W" horiz-adv-x="1122" 
d="M936 681q0 11 -6 17t-14 8.5t-17.5 3t-16.5 0.5q-10 0 -22 5t-12 19q0 12 7 18.5t27 6.5h255q9 0 21 -3t12 -21q0 -12 -10 -16.5t-20 -4.5q-11 0 -25 -1l-27.5 -2t-24 -2t-14.5 -1q-41 -4 -49 -38l-28 -109.5l-26 -98.5l-26.5 -97.5l-29 -106.5l-34 -124l-41.5 -151
q-5 -20 -16.5 -27t-25.5 -7t-28 6.5t-20 29.5l-34 133l-35.5 134.5l-33.5 125l-28.5 106l-20 76t-8.5 35.5l-64 -220l-27 -94.5l-27.5 -96l-25.5 -90.5l-22 -78q-2 -8 -11.5 -18t-23.5 -10t-25 5.5t-16 19.5l-53.5 173.5l-53.5 176l-57 184l-65 196.5q-5 20 -29.5 26
t-57.5 6q-14 0 -26 4.5t-12 17.5q0 14 10 19t27 5h237q18 0 24.5 -5.5t6.5 -15.5q0 -16 -16 -21t-34.5 -7t-34.5 -5.5t-16 -15.5q0 -10 9 -44.5t24.5 -85.5l35 -114l40.5 -130.5l41.5 -135l37.5 -126.5l68 249l27 99l26 94l21.5 78.5t15.5 54.5q6 21 15 39t32 18
q21 0 29.5 -14t15.5 -43q25 -111 48.5 -201.5l44 -166l38 -138l31.5 -116.5q7 33 22 89l33.5 120.5l37.5 132l34.5 124.5t25.5 97t10 50z" />
    <glyph glyph-name="Wacute" unicode="&#x1e82;" horiz-adv-x="1122" 
d="M634 941q0 -12 -14 -27t-32.5 -28.5t-38 -22.5t-29.5 -9q-11 0 -17.5 6.5t-6.5 16.5t12.5 26t29.5 31.5t35 26.5t29 11q15 0 23.5 -8.5t8.5 -22.5zM936 681q0 11 -6 17t-14 8.5t-17.5 3t-16.5 0.5q-10 0 -22 5t-12 19q0 12 7 18.5t27 6.5h255q9 0 21 -3t12 -21
q0 -12 -10 -16.5t-20 -4.5q-11 0 -25 -1l-27.5 -2t-24 -2t-14.5 -1q-41 -4 -49 -38l-28 -109.5l-26 -98.5l-26.5 -97.5l-29 -106.5l-34 -124l-41.5 -151q-5 -20 -16.5 -27t-25.5 -7t-28 6.5t-20 29.5l-34 133l-35.5 134.5l-33.5 125l-28.5 106l-20 76t-8.5 35.5l-64 -220
l-27 -94.5l-27.5 -96l-25.5 -90.5l-22 -78q-2 -8 -11.5 -18t-23.5 -10t-25 5.5t-16 19.5l-53.5 173.5l-53.5 176l-57 184l-65 196.5q-5 20 -29.5 26t-57.5 6q-14 0 -26 4.5t-12 17.5q0 14 10 19t27 5h237q18 0 24.5 -5.5t6.5 -15.5q0 -16 -16 -21t-34.5 -7t-34.5 -5.5
t-16 -15.5q0 -10 9 -44.5t24.5 -85.5l35 -114l40.5 -130.5l41.5 -135l37.5 -126.5l68 249l27 99l26 94l21.5 78.5t15.5 54.5q6 21 15 39t32 18q21 0 29.5 -14t15.5 -43q25 -111 48.5 -201.5l44 -166l38 -138l31.5 -116.5q7 33 22 89l33.5 120.5l37.5 132l34.5 124.5t25.5 97
t10 50z" />
    <glyph glyph-name="Wcircumflex" unicode="&#x174;" horiz-adv-x="1122" 
d="M694 847q-5 0 -18 4t-30 11t-36 16.5t-36 19.5q-17 -10 -36 -19.5t-35.5 -16.5t-29.5 -11t-18 -4q-11 0 -11 13q0 16 17.5 35.5t40 36.5t43.5 28.5t29 11.5q9 0 30.5 -12t44 -28.5t39.5 -35.5t17 -32q0 -7 -2.5 -12t-8.5 -5zM936 681q0 11 -6 17t-14 8.5t-17.5 3
t-16.5 0.5q-10 0 -22 5t-12 19q0 12 7 18.5t27 6.5h255q9 0 21 -3t12 -21q0 -12 -10 -16.5t-20 -4.5q-11 0 -25 -1l-27.5 -2t-24 -2t-14.5 -1q-41 -4 -49 -38l-28 -109.5l-26 -98.5l-26.5 -97.5l-29 -106.5l-34 -124l-41.5 -151q-5 -20 -16.5 -27t-25.5 -7t-28 6.5t-20 29.5
l-34 133l-35.5 134.5l-33.5 125l-28.5 106l-20 76t-8.5 35.5l-64 -220l-27 -94.5l-27.5 -96l-25.5 -90.5l-22 -78q-2 -8 -11.5 -18t-23.5 -10t-25 5.5t-16 19.5l-53.5 173.5l-53.5 176l-57 184l-65 196.5q-5 20 -29.5 26t-57.5 6q-14 0 -26 4.5t-12 17.5q0 14 10 19t27 5
h237q18 0 24.5 -5.5t6.5 -15.5q0 -16 -16 -21t-34.5 -7t-34.5 -5.5t-16 -15.5q0 -10 9 -44.5t24.5 -85.5l35 -114l40.5 -130.5l41.5 -135l37.5 -126.5l68 249l27 99l26 94l21.5 78.5t15.5 54.5q6 21 15 39t32 18q21 0 29.5 -14t15.5 -43q25 -111 48.5 -201.5l44 -166
l38 -138l31.5 -116.5q7 33 22 89l33.5 120.5l37.5 132l34.5 124.5t25.5 97t10 50z" />
    <glyph glyph-name="Wdieresis" unicode="&#x1e84;" horiz-adv-x="1122" 
d="M425 916q0 7 3 16.5t10 18.5t17.5 15t25.5 6q20 0 34.5 -14.5t14.5 -37.5q0 -36 -18.5 -48.5t-37.5 -12.5q-20 0 -34.5 16t-14.5 41zM632 904q0 7 3 16.5t10 18.5t17.5 15t25.5 6q20 0 34.5 -14.5t14.5 -37.5q0 -36 -18.5 -48.5t-37.5 -12.5q-20 0 -34.5 16t-14.5 41z
M936 681q0 11 -6 17t-14 8.5t-17.5 3t-16.5 0.5q-10 0 -22 5t-12 19q0 12 7 18.5t27 6.5h255q9 0 21 -3t12 -21q0 -12 -10 -16.5t-20 -4.5q-11 0 -25 -1l-27.5 -2t-24 -2t-14.5 -1q-41 -4 -49 -38l-28 -109.5l-26 -98.5l-26.5 -97.5l-29 -106.5l-34 -124l-41.5 -151
q-5 -20 -16.5 -27t-25.5 -7t-28 6.5t-20 29.5l-34 133l-35.5 134.5l-33.5 125l-28.5 106l-20 76t-8.5 35.5l-64 -220l-27 -94.5l-27.5 -96l-25.5 -90.5l-22 -78q-2 -8 -11.5 -18t-23.5 -10t-25 5.5t-16 19.5l-53.5 173.5l-53.5 176l-57 184l-65 196.5q-5 20 -29.5 26
t-57.5 6q-14 0 -26 4.5t-12 17.5q0 14 10 19t27 5h237q18 0 24.5 -5.5t6.5 -15.5q0 -16 -16 -21t-34.5 -7t-34.5 -5.5t-16 -15.5q0 -10 9 -44.5t24.5 -85.5l35 -114l40.5 -130.5l41.5 -135l37.5 -126.5l68 249l27 99l26 94l21.5 78.5t15.5 54.5q6 21 15 39t32 18
q21 0 29.5 -14t15.5 -43q25 -111 48.5 -201.5l44 -166l38 -138l31.5 -116.5q7 33 22 89l33.5 120.5l37.5 132l34.5 124.5t25.5 97t10 50z" />
    <glyph glyph-name="Wgrave" unicode="&#x1e80;" horiz-adv-x="1122" 
d="M512 941q0 14 8.5 22.5t23.5 8.5q11 0 29 -11t35 -26.5t29.5 -31.5t12.5 -26t-6.5 -16.5t-17.5 -6.5t-30 9t-37.5 22.5t-32.5 28.5t-14 27zM936 681q0 11 -6 17t-14 8.5t-17.5 3t-16.5 0.5q-10 0 -22 5t-12 19q0 12 7 18.5t27 6.5h255q9 0 21 -3t12 -21q0 -12 -10 -16.5
t-20 -4.5q-11 0 -25 -1l-27.5 -2t-24 -2t-14.5 -1q-41 -4 -49 -38l-28 -109.5l-26 -98.5l-26.5 -97.5l-29 -106.5l-34 -124l-41.5 -151q-5 -20 -16.5 -27t-25.5 -7t-28 6.5t-20 29.5l-34 133l-35.5 134.5l-33.5 125l-28.5 106l-20 76t-8.5 35.5l-64 -220l-27 -94.5
l-27.5 -96l-25.5 -90.5l-22 -78q-2 -8 -11.5 -18t-23.5 -10t-25 5.5t-16 19.5l-53.5 173.5l-53.5 176l-57 184l-65 196.5q-5 20 -29.5 26t-57.5 6q-14 0 -26 4.5t-12 17.5q0 14 10 19t27 5h237q18 0 24.5 -5.5t6.5 -15.5q0 -16 -16 -21t-34.5 -7t-34.5 -5.5t-16 -15.5
q0 -10 9 -44.5t24.5 -85.5l35 -114l40.5 -130.5l41.5 -135l37.5 -126.5l68 249l27 99l26 94l21.5 78.5t15.5 54.5q6 21 15 39t32 18q21 0 29.5 -14t15.5 -43q25 -111 48.5 -201.5l44 -166l38 -138l31.5 -116.5q7 33 22 89l33.5 120.5l37.5 132l34.5 124.5t25.5 97t10 50z
" />
    <glyph glyph-name="X" unicode="X" horiz-adv-x="685" 
d="M203 734q0 -4 5 -16.5t13.5 -30.5l19.5 -40.5l22 -44.5q26 -53 61 -117q7 16 20 41.5l28 53.5l30.5 57t27.5 54l20 42.5t8 22.5q0 12 -7.5 14t-29.5 2q-14 0 -24 6t-10 20q0 12 7 17.5t27 5.5h223q14 0 23.5 -4t9.5 -18q0 -11 -9.5 -16t-20.5 -7q-21 -3 -43 -4t-30 -2
q-22 -2 -31 -11.5t-18 -26.5l-167 -318l195 -373q11 -20 43 -26t80 -6q19 0 30 -5t11 -19q0 -13 -11.5 -17.5t-28.5 -4.5h-227q-18 0 -24.5 5t-6.5 17q0 13 10.5 18t23 7t23 4t10.5 8q0 4 -7 19.5t-18.5 39l-26 51.5l-29.5 57l-80 152q0 -1 -9.5 -20l-24 -48.5l-31 -64
l-31 -65t-24 -52.5t-9.5 -26q0 -7 6 -10t15.5 -4t21 -1t22.5 -1q14 -1 24 -5.5t10 -18.5q0 -12 -7 -18.5t-27 -6.5h-244q-9 0 -21 5t-12 19q0 11 10 16t20 5q7 0 17.5 1t20 2t17.5 2t11 1q21 2 30 11.5t19 26.5l160 325l-157 307q-10 18 -32.5 25t-57.5 7q-14 0 -25 4.5
t-11 19.5q0 22 35 22h223q18 0 24.5 -4.5t6.5 -17.5q0 -14 -14.5 -18.5t-31.5 -7t-31.5 -5t-14.5 -12.5z" />
    <glyph glyph-name="Y" unicode="Y" horiz-adv-x="660" 
d="M188 743q0 -6 9 -27.5t23 -51.5l31.5 -66l34 -69.5l30 -61.5t20.5 -44q5 15 17 39.5l27.5 53.5l31.5 60l29.5 58t22.5 47.5t9 29.5q0 12 -14 14t-27 2q-16 0 -27.5 5t-11.5 19q0 12 8 18.5t31 6.5h242q9 0 21 -3t12 -21q0 -12 -10 -16.5t-20 -4.5q-11 0 -24.5 -1
l-26.5 -2t-23 -2t-14 -1q-22 -2 -31 -11.5t-18 -26.5l-47 -88.5l-49 -95l-45.5 -91.5t-36.5 -78q0 -49 1 -99q1 -43 1.5 -92.5t0.5 -91.5h86q11 0 23 -4t12 -19q0 -17 -7.5 -22.5t-17.5 -5.5h-210q-22 0 -36.5 5t-14.5 21q0 22 39 22q6 0 15 0.5t18 5t15 14t6 26.5v261
l-38.5 84.5l-30 63l-25.5 51.5l-25 49.5l-29 57l-36 74.5q-9 18 -38.5 25t-63.5 7q-14 0 -25 4t-11 18q0 24 35 24h228q18 0 27 -6.5t9 -17.5q0 -14 -13 -18t-28 -6t-28 -6t-13 -16z" />
    <glyph glyph-name="Yacute" unicode="&#xdd;" horiz-adv-x="660" 
d="M407 941q0 -12 -14 -27t-32.5 -28.5t-38 -22.5t-29.5 -9q-11 0 -17.5 6.5t-6.5 16.5t12.5 26t29.5 31.5t35 26.5t29 11q15 0 23.5 -8.5t8.5 -22.5zM188 743q0 -6 9 -27.5t23 -51.5l31.5 -66l34 -69.5l30 -61.5t20.5 -44q5 15 17 39.5l27.5 53.5l31.5 60l29.5 58
t22.5 47.5t9 29.5q0 12 -14 14t-27 2q-16 0 -27.5 5t-11.5 19q0 12 8 18.5t31 6.5h242q9 0 21 -3t12 -21q0 -12 -10 -16.5t-20 -4.5q-11 0 -24.5 -1l-26.5 -2t-23 -2t-14 -1q-22 -2 -31 -11.5t-18 -26.5l-47 -88.5l-49 -95l-45.5 -91.5t-36.5 -78q0 -49 1 -99
q1 -43 1.5 -92.5t0.5 -91.5h86q11 0 23 -4t12 -19q0 -17 -7.5 -22.5t-17.5 -5.5h-210q-22 0 -36.5 5t-14.5 21q0 22 39 22q6 0 15 0.5t18 5t15 14t6 26.5v261l-38.5 84.5l-30 63l-25.5 51.5l-25 49.5l-29 57l-36 74.5q-9 18 -38.5 25t-63.5 7q-14 0 -25 4t-11 18q0 24 35 24
h228q18 0 27 -6.5t9 -17.5q0 -14 -13 -18t-28 -6t-28 -6t-13 -16z" />
    <glyph glyph-name="Ycircumflex" unicode="&#x176;" horiz-adv-x="660" 
d="M466 847q-5 0 -18 4t-30 11t-36 16.5t-36 19.5q-17 -10 -36 -19.5t-35.5 -16.5t-29.5 -11t-18 -4q-11 0 -11 13q0 16 17.5 35.5t40 36.5t43.5 28.5t29 11.5q9 0 30.5 -12t44 -28.5t39.5 -35.5t17 -32q0 -7 -2.5 -12t-8.5 -5zM188 743q0 -6 9 -27.5t23 -51.5l31.5 -66
l34 -69.5l30 -61.5t20.5 -44q5 15 17 39.5l27.5 53.5l31.5 60l29.5 58t22.5 47.5t9 29.5q0 12 -14 14t-27 2q-16 0 -27.5 5t-11.5 19q0 12 8 18.5t31 6.5h242q9 0 21 -3t12 -21q0 -12 -10 -16.5t-20 -4.5q-11 0 -24.5 -1l-26.5 -2t-23 -2t-14 -1q-22 -2 -31 -11.5t-18 -26.5
l-47 -88.5l-49 -95l-45.5 -91.5t-36.5 -78q0 -49 1 -99q1 -43 1.5 -92.5t0.5 -91.5h86q11 0 23 -4t12 -19q0 -17 -7.5 -22.5t-17.5 -5.5h-210q-22 0 -36.5 5t-14.5 21q0 22 39 22q6 0 15 0.5t18 5t15 14t6 26.5v261l-38.5 84.5l-30 63l-25.5 51.5l-25 49.5l-29 57l-36 74.5
q-9 18 -38.5 25t-63.5 7q-14 0 -25 4t-11 18q0 24 35 24h228q18 0 27 -6.5t9 -17.5q0 -14 -13 -18t-28 -6t-28 -6t-13 -16z" />
    <glyph glyph-name="Ydieresis" unicode="&#x178;" horiz-adv-x="660" 
d="M181 916q0 7 3 16.5t10 18.5t17.5 15t25.5 6q20 0 34.5 -14.5t14.5 -37.5q0 -36 -18.5 -48.5t-37.5 -12.5q-20 0 -34.5 16t-14.5 41zM388 904q0 7 3 16.5t10 18.5t17.5 15t25.5 6q20 0 34.5 -14.5t14.5 -37.5q0 -36 -18.5 -48.5t-37.5 -12.5q-20 0 -34.5 16t-14.5 41z
M188 743q0 -6 9 -27.5t23 -51.5l31.5 -66l34 -69.5l30 -61.5t20.5 -44q5 15 17 39.5l27.5 53.5l31.5 60l29.5 58t22.5 47.5t9 29.5q0 12 -14 14t-27 2q-16 0 -27.5 5t-11.5 19q0 12 8 18.5t31 6.5h242q9 0 21 -3t12 -21q0 -12 -10 -16.5t-20 -4.5q-11 0 -24.5 -1l-26.5 -2
t-23 -2t-14 -1q-22 -2 -31 -11.5t-18 -26.5l-47 -88.5l-49 -95l-45.5 -91.5t-36.5 -78q0 -49 1 -99q1 -43 1.5 -92.5t0.5 -91.5h86q11 0 23 -4t12 -19q0 -17 -7.5 -22.5t-17.5 -5.5h-210q-22 0 -36.5 5t-14.5 21q0 22 39 22q6 0 15 0.5t18 5t15 14t6 26.5v261l-38.5 84.5
l-30 63l-25.5 51.5l-25 49.5l-29 57l-36 74.5q-9 18 -38.5 25t-63.5 7q-14 0 -25 4t-11 18q0 24 35 24h228q18 0 27 -6.5t9 -17.5q0 -14 -13 -18t-28 -6t-28 -6t-13 -16z" />
    <glyph glyph-name="Ygrave" unicode="&#x1ef2;" horiz-adv-x="660" 
d="M269 941q0 14 8.5 22.5t23.5 8.5q11 0 29 -11t35 -26.5t29.5 -31.5t12.5 -26t-6.5 -16.5t-17.5 -6.5t-30 9t-37.5 22.5t-32.5 28.5t-14 27zM188 743q0 -6 9 -27.5t23 -51.5l31.5 -66l34 -69.5l30 -61.5t20.5 -44q5 15 17 39.5l27.5 53.5l31.5 60l29.5 58t22.5 47.5
t9 29.5q0 12 -14 14t-27 2q-16 0 -27.5 5t-11.5 19q0 12 8 18.5t31 6.5h242q9 0 21 -3t12 -21q0 -12 -10 -16.5t-20 -4.5q-11 0 -24.5 -1l-26.5 -2t-23 -2t-14 -1q-22 -2 -31 -11.5t-18 -26.5l-47 -88.5l-49 -95l-45.5 -91.5t-36.5 -78q0 -49 1 -99q1 -43 1.5 -92.5
t0.5 -91.5h86q11 0 23 -4t12 -19q0 -17 -7.5 -22.5t-17.5 -5.5h-210q-22 0 -36.5 5t-14.5 21q0 22 39 22q6 0 15 0.5t18 5t15 14t6 26.5v261l-38.5 84.5l-30 63l-25.5 51.5l-25 49.5l-29 57l-36 74.5q-9 18 -38.5 25t-63.5 7q-14 0 -25 4t-11 18q0 24 35 24h228
q18 0 27 -6.5t9 -17.5q0 -14 -13 -18t-28 -6t-28 -6t-13 -16z" />
    <glyph glyph-name="Ytilde" unicode="&#x1ef8;" horiz-adv-x="660" 
d="M0 0zM188 743q0 -6 9 -27.5t23 -51.5l31.5 -66l34 -69.5l30 -61.5t20.5 -44q5 15 17 39.5l27.5 53.5l31.5 60l29.5 58t22.5 47.5t9 29.5q0 12 -14 14t-27 2q-16 0 -27.5 5t-11.5 19q0 12 8 18.5t31 6.5h242q9 0 21 -3t12 -21q0 -12 -10 -16.5t-20 -4.5q-11 0 -24.5 -1
l-26.5 -2t-23 -2t-14 -1q-22 -2 -31 -11.5t-18 -26.5l-47 -88.5l-49 -95l-45.5 -91.5t-36.5 -78q0 -49 1 -99q1 -43 1.5 -92.5t0.5 -91.5h86q11 0 23 -4t12 -19q0 -17 -7.5 -22.5t-17.5 -5.5h-210q-22 0 -36.5 5t-14.5 21q0 22 39 22q6 0 15 0.5t18 5t15 14t6 26.5v261
l-38.5 84.5l-30 63l-25.5 51.5l-25 49.5l-29 57l-36 74.5q-9 18 -38.5 25t-63.5 7q-14 0 -25 4t-11 18q0 24 35 24h228q18 0 27 -6.5t9 -17.5q0 -14 -13 -18t-28 -6t-28 -6t-13 -16zM166 924q2 5 8 12t21 16q31 18 68 18q15 0 32.5 -4.5l35.5 -9.5t36 -9.5t33 -4.5
q26 0 60 17q14 8 19.5 10.5t10.5 2.5t11.5 -8t6.5 -20q0 -10 -5 -19q-10 -17 -35 -31t-67 -14q-19 0 -37.5 3.5t-36 8l-33.5 8.5t-30 4q-15 0 -27.5 -4t-23 -8.5t-19 -8.5t-14.5 -4q-8 0 -12.5 8.5t-4.5 19.5q0 9 3 17z" />
    <glyph glyph-name="Z" unicode="Z" horiz-adv-x="642" 
d="M605 281q0 -1 -1 -17.5l-2.5 -42t-3 -55l-3 -57t-2.5 -49t-1 -29.5q0 -23 -8 -27t-28 -4q-58 0 -116 0.5t-116 0.5t-115.5 -0.5t-115.5 -0.5q-37 0 -55.5 3.5t-18.5 15.5q0 5 0.5 8.5t3 7.5t6.5 9.5t11 16.5l29.5 44.5l54 81l70 105.5l77 117l74.5 116l64 102.5t45 75.5
t17 36q0 5 -1 8t-5.5 5t-14 2.5t-27.5 0.5h-262q-29 0 -35.5 -9.5t-6.5 -33.5v-18t-0.5 -25.5t-0.5 -26.5v-22q0 -37 -7 -51t-24 -14q-23 0 -29.5 15.5t-6.5 30.5q0 23 0.5 44.5t0.5 44.5t-0.5 45t-0.5 45q0 15 3.5 23.5t13 12.5t25.5 4.5t42 0.5q51 0 101.5 -1t101.5 -1
t102 1t102 1q20 0 36 -2.5t16 -16.5q0 -3 -5 -12l-11.5 -20t-12.5 -20t-7 -12l-50 -81.5l-62.5 -99l-70 -108l-71 -108.5l-65.5 -100.5l-54.5 -83.5l-37 -58t-13.5 -24q0 -6 4 -8t16 -2h312q11 0 21.5 0.5t18.5 3.5t13 10t7 20q2 17 4 42l4 50.5t3.5 48.5t1.5 36q0 15 7 29
t28 14q16 0 23.5 -10.5t7.5 -27.5z" />
    <glyph glyph-name="Zacute" unicode="&#x179;" horiz-adv-x="642" 
d="M400 941q0 -12 -14 -27t-32.5 -28.5t-38 -22.5t-29.5 -9q-11 0 -17.5 6.5t-6.5 16.5t12.5 26t29.5 31.5t35 26.5t29 11q15 0 23.5 -8.5t8.5 -22.5zM605 281q0 -1 -1 -17.5l-2.5 -42t-3 -55l-3 -57t-2.5 -49t-1 -29.5q0 -23 -8 -27t-28 -4q-58 0 -116 0.5t-116 0.5
t-115.5 -0.5t-115.5 -0.5q-37 0 -55.5 3.5t-18.5 15.5q0 5 0.5 8.5t3 7.5t6.5 9.5t11 16.5l29.5 44.5l54 81l70 105.5l77 117l74.5 116l64 102.5t45 75.5t17 36q0 5 -1 8t-5.5 5t-14 2.5t-27.5 0.5h-262q-29 0 -35.5 -9.5t-6.5 -33.5v-18t-0.5 -25.5t-0.5 -26.5v-22
q0 -37 -7 -51t-24 -14q-23 0 -29.5 15.5t-6.5 30.5q0 23 0.5 44.5t0.5 44.5t-0.5 45t-0.5 45q0 15 3.5 23.5t13 12.5t25.5 4.5t42 0.5q51 0 101.5 -1t101.5 -1t102 1t102 1q20 0 36 -2.5t16 -16.5q0 -3 -5 -12l-11.5 -20t-12.5 -20t-7 -12l-50 -81.5l-62.5 -99l-70 -108
l-71 -108.5l-65.5 -100.5l-54.5 -83.5l-37 -58t-13.5 -24q0 -6 4 -8t16 -2h312q11 0 21.5 0.5t18.5 3.5t13 10t7 20q2 17 4 42l4 50.5t3.5 48.5t1.5 36q0 15 7 29t28 14q16 0 23.5 -10.5t7.5 -27.5z" />
    <glyph glyph-name="Zcaron" unicode="&#x17d;" horiz-adv-x="642" 
d="M444 972q6 0 8.5 -5t2.5 -12q0 -14 -17 -32.5t-39.5 -35t-44 -28.5t-30.5 -12q-8 0 -29 11.5t-43.5 28.5t-40 36.5t-17.5 35.5q0 13 11 13q5 0 18 -4t29.5 -11t35.5 -16.5t36 -19.5q17 10 36 19.5t36 16.5t30 11t18 4zM605 281q0 -1 -1 -17.5l-2.5 -42t-3 -55l-3 -57
t-2.5 -49t-1 -29.5q0 -23 -8 -27t-28 -4q-58 0 -116 0.5t-116 0.5t-115.5 -0.5t-115.5 -0.5q-37 0 -55.5 3.5t-18.5 15.5q0 5 0.5 8.5t3 7.5t6.5 9.5t11 16.5l29.5 44.5l54 81l70 105.5l77 117l74.5 116l64 102.5t45 75.5t17 36q0 5 -1 8t-5.5 5t-14 2.5t-27.5 0.5h-262
q-29 0 -35.5 -9.5t-6.5 -33.5v-18t-0.5 -25.5t-0.5 -26.5v-22q0 -37 -7 -51t-24 -14q-23 0 -29.5 15.5t-6.5 30.5q0 23 0.5 44.5t0.5 44.5t-0.5 45t-0.5 45q0 15 3.5 23.5t13 12.5t25.5 4.5t42 0.5q51 0 101.5 -1t101.5 -1t102 1t102 1q20 0 36 -2.5t16 -16.5q0 -3 -5 -12
l-11.5 -20t-12.5 -20t-7 -12l-50 -81.5l-62.5 -99l-70 -108l-71 -108.5l-65.5 -100.5l-54.5 -83.5l-37 -58t-13.5 -24q0 -6 4 -8t16 -2h312q11 0 21.5 0.5t18.5 3.5t13 10t7 20q2 17 4 42l4 50.5t3.5 48.5t1.5 36q0 15 7 29t28 14q16 0 23.5 -10.5t7.5 -27.5z" />
    <glyph glyph-name="Zdotaccent" unicode="&#x17b;" horiz-adv-x="642" 
d="M19 0zM605 281q0 -1 -1 -17.5l-2.5 -42t-3 -55l-3 -57t-2.5 -49t-1 -29.5q0 -23 -8 -27t-28 -4q-58 0 -116 0.5t-116 0.5t-115.5 -0.5t-115.5 -0.5q-37 0 -55.5 3.5t-18.5 15.5q0 5 0.5 8.5t3 7.5t6.5 9.5t11 16.5l29.5 44.5l54 81l70 105.5l77 117l74.5 116l64 102.5
t45 75.5t17 36q0 5 -1 8t-5.5 5t-14 2.5t-27.5 0.5h-262q-29 0 -35.5 -9.5t-6.5 -33.5v-18t-0.5 -25.5t-0.5 -26.5v-22q0 -37 -7 -51t-24 -14q-23 0 -29.5 15.5t-6.5 30.5q0 23 0.5 44.5t0.5 44.5t-0.5 45t-0.5 45q0 15 3.5 23.5t13 12.5t25.5 4.5t42 0.5q51 0 101.5 -1
t101.5 -1t102 1t102 1q20 0 36 -2.5t16 -16.5q0 -3 -5 -12l-11.5 -20t-12.5 -20t-7 -12l-50 -81.5l-62.5 -99l-70 -108l-71 -108.5l-65.5 -100.5l-54.5 -83.5l-37 -58t-13.5 -24q0 -6 4 -8t16 -2h312q11 0 21.5 0.5t18.5 3.5t13 10t7 20q2 17 4 42l4 50.5t3.5 48.5t1.5 36
q0 15 7 29t28 14q16 0 23.5 -10.5t7.5 -27.5zM282 916q0 8 3 18t10 18.5t17.5 14t25.5 5.5q20 0 34.5 -14.5t14.5 -37.5q0 -36 -18.5 -48.5t-37.5 -12.5q-20 0 -34.5 15t-14.5 42z" />
    <glyph glyph-name="a" unicode="a" horiz-adv-x="468" 
d="M332 224q0 11 0.5 21.5t0.5 15.5q0 66 -27.5 103.5t-87.5 37.5q-17 0 -36 -3.5t-34.5 -10t-26 -16t-10.5 -21.5q0 -8 5 -10.5t15 -4.5q7 -1 16 -8t9 -23q0 -17 -12 -26.5t-32 -9.5q-31 0 -44 22t-13 48q0 54 46 88.5t125 34.5q177 0 177 -195q0 -11 -0.5 -29t-1 -38.5
l-1 -41t-0.5 -35.5q0 -46 4 -60t18 -14q11 0 14.5 7t5.5 20q1 6 7 14t20 8q13 0 17 -10t4 -23q0 -21 -6.5 -35.5t-17.5 -23.5t-24.5 -13t-28.5 -4q-27 0 -48.5 13.5t-30.5 45.5q-32 -29 -70.5 -44t-85.5 -15q-70 0 -111.5 32t-41.5 86q0 29 12 54t34 43t52.5 28.5t68.5 10.5
q77 0 140 -46v27zM96 108q0 -30 31 -44.5t74 -14.5q27 0 50.5 5.5t41.5 14.5t28.5 21.5t10.5 27.5q0 14 -9 26t-25 20.5t-36.5 13.5t-44.5 5q-26 0 -48 -5.5t-38 -15.5t-25.5 -24t-9.5 -30z" />
    <glyph glyph-name="a.salt" horiz-adv-x="504" 
d="M335 241q0 11 0.5 23.5t0.5 22.5q0 30 -8.5 54t-23 41t-33 26t-38.5 9q-62 0 -88.5 -29t-26.5 -76q0 -11 -5 -22t-22 -11q-11 0 -18 4t-10.5 9t-4.5 11t-1 10q0 11 -0.5 43.5t-0.5 92.5q0 5 1 11.5t4.5 12t10 9t17.5 3.5q17 0 23 -13t6 -24q0 -9 -1.5 -19.5t-2.5 -16.5
q23 35 59 49t77 14q79 0 115.5 -45.5t36.5 -142.5q0 -14 -0.5 -34.5t-1 -44l-1 -47.5t-0.5 -44q0 -42 10.5 -55.5t23.5 -13.5q11 0 18 5.5t7 22.5q0 5 5.5 13.5t21.5 8.5q15 0 20.5 -10.5t5.5 -15.5q0 -48 -20.5 -65.5t-58.5 -17.5t-60 11.5t-35 35.5q-23 -27 -57 -37
t-72 -10q-90 0 -136 32t-46 85q0 30 13 55t38 43t61 28.5t81 10.5q29 0 60 -7t56 -21v26zM96 107q0 -27 32.5 -43.5t83.5 -16.5q57 0 90 21t33 49q0 14 -10 26.5t-26.5 21.5t-37 14.5t-42.5 5.5q-57 0 -90 -22t-33 -56z" />
    <glyph glyph-name="aacute" unicode="&#xe1;" horiz-adv-x="468" 
d="M320 623q0 -11 -17 -32.5t-39.5 -42.5t-45 -37t-33.5 -16q-8 0 -16.5 4t-8.5 14q0 2 5.5 14t14.5 28.5t21 35t24.5 34t24 26t21.5 10.5q23 0 36 -10.5t13 -27.5zM332 224q0 11 0.5 21.5t0.5 15.5q0 66 -27.5 103.5t-87.5 37.5q-17 0 -36 -3.5t-34.5 -10t-26 -16
t-10.5 -21.5q0 -8 5 -10.5t15 -4.5q7 -1 16 -8t9 -23q0 -17 -12 -26.5t-32 -9.5q-31 0 -44 22t-13 48q0 54 46 88.5t125 34.5q177 0 177 -195q0 -11 -0.5 -29t-1 -38.5l-1 -41t-0.5 -35.5q0 -46 4 -60t18 -14q11 0 14.5 7t5.5 20q1 6 7 14t20 8q13 0 17 -10t4 -23
q0 -21 -6.5 -35.5t-17.5 -23.5t-24.5 -13t-28.5 -4q-27 0 -48.5 13.5t-30.5 45.5q-32 -29 -70.5 -44t-85.5 -15q-70 0 -111.5 32t-41.5 86q0 29 12 54t34 43t52.5 28.5t68.5 10.5q77 0 140 -46v27zM96 108q0 -30 31 -44.5t74 -14.5q27 0 50.5 5.5t41.5 14.5t28.5 21.5
t10.5 27.5q0 14 -9 26t-25 20.5t-36.5 13.5t-44.5 5q-26 0 -48 -5.5t-38 -15.5t-25.5 -24t-9.5 -30z" />
    <glyph glyph-name="abreve" unicode="&#x103;" horiz-adv-x="468" 
d="M25 0zM332 224q0 11 0.5 21.5t0.5 15.5q0 66 -27.5 103.5t-87.5 37.5q-17 0 -36 -3.5t-34.5 -10t-26 -16t-10.5 -21.5q0 -8 5 -10.5t15 -4.5q7 -1 16 -8t9 -23q0 -17 -12 -26.5t-32 -9.5q-31 0 -44 22t-13 48q0 54 46 88.5t125 34.5q177 0 177 -195q0 -11 -0.5 -29
t-1 -38.5l-1 -41t-0.5 -35.5q0 -46 4 -60t18 -14q11 0 14.5 7t5.5 20q1 6 7 14t20 8q13 0 17 -10t4 -23q0 -21 -6.5 -35.5t-17.5 -23.5t-24.5 -13t-28.5 -4q-27 0 -48.5 13.5t-30.5 45.5q-32 -29 -70.5 -44t-85.5 -15q-70 0 -111.5 32t-41.5 86q0 29 12 54t34 43t52.5 28.5
t68.5 10.5q77 0 140 -46v27zM96 108q0 -30 31 -44.5t74 -14.5q27 0 50.5 5.5t41.5 14.5t28.5 21.5t10.5 27.5q0 14 -9 26t-25 20.5t-36.5 13.5t-44.5 5q-26 0 -48 -5.5t-38 -15.5t-25.5 -24t-9.5 -30zM346 589q0 -19 -11 -34t-28 -25t-38 -15t-40 -5q-57 0 -89.5 24
t-32.5 55q0 28 26 28q14 0 21 -6t7 -21q0 -10 6 -16.5t15.5 -10.5t21 -6t22.5 -2q29 0 46.5 11t17.5 24q0 11 7.5 19t18.5 8q10 0 20 -4t10 -24z" />
    <glyph glyph-name="acircumflex" unicode="&#xe2;" horiz-adv-x="468" 
d="M25 0zM332 224q0 11 0.5 21.5t0.5 15.5q0 66 -27.5 103.5t-87.5 37.5q-17 0 -36 -3.5t-34.5 -10t-26 -16t-10.5 -21.5q0 -8 5 -10.5t15 -4.5q7 -1 16 -8t9 -23q0 -17 -12 -26.5t-32 -9.5q-31 0 -44 22t-13 48q0 54 46 88.5t125 34.5q177 0 177 -195q0 -11 -0.5 -29
t-1 -38.5l-1 -41t-0.5 -35.5q0 -46 4 -60t18 -14q11 0 14.5 7t5.5 20q1 6 7 14t20 8q13 0 17 -10t4 -23q0 -21 -6.5 -35.5t-17.5 -23.5t-24.5 -13t-28.5 -4q-27 0 -48.5 13.5t-30.5 45.5q-32 -29 -70.5 -44t-85.5 -15q-70 0 -111.5 32t-41.5 86q0 29 12 54t34 43t52.5 28.5
t68.5 10.5q77 0 140 -46v27zM96 108q0 -30 31 -44.5t74 -14.5q27 0 50.5 5.5t41.5 14.5t28.5 21.5t10.5 27.5q0 14 -9 26t-25 20.5t-36.5 13.5t-44.5 5q-26 0 -48 -5.5t-38 -15.5t-25.5 -24t-9.5 -30zM343 510q-5 0 -18 7.5l-30 18l-36 23t-36 22.5q-17 -10 -36 -22.5
l-35.5 -23t-29.5 -18t-18 -7.5q-11 0 -11 13q0 16 17.5 38.5t40 43.5t43.5 35.5t29 14.5q9 0 30.5 -15t44 -35.5t39.5 -42.5t17 -35q0 -7 -2.5 -12t-8.5 -5z" />
    <glyph glyph-name="acute" unicode="&#xb4;" horiz-adv-x="154" 
d="M146 656q0 -11 -12 -34t-29 -47t-35.5 -44t-31.5 -26q-6 -2 -10 -2q-17 0 -17 20q0 9 8.5 34.5t20.5 52.5t26 49t25 25q5 2 8 2h7q16 0 28 -8t12 -22z" />
    <glyph glyph-name="adieresis" unicode="&#xe4;" horiz-adv-x="468" 
d="M25 0zM332 224q0 11 0.5 21.5t0.5 15.5q0 66 -27.5 103.5t-87.5 37.5q-17 0 -36 -3.5t-34.5 -10t-26 -16t-10.5 -21.5q0 -8 5 -10.5t15 -4.5q7 -1 16 -8t9 -23q0 -17 -12 -26.5t-32 -9.5q-31 0 -44 22t-13 48q0 54 46 88.5t125 34.5q177 0 177 -195q0 -11 -0.5 -29
t-1 -38.5l-1 -41t-0.5 -35.5q0 -46 4 -60t18 -14q11 0 14.5 7t5.5 20q1 6 7 14t20 8q13 0 17 -10t4 -23q0 -21 -6.5 -35.5t-17.5 -23.5t-24.5 -13t-28.5 -4q-27 0 -48.5 13.5t-30.5 45.5q-32 -29 -70.5 -44t-85.5 -15q-70 0 -111.5 32t-41.5 86q0 29 12 54t34 43t52.5 28.5
t68.5 10.5q77 0 140 -46v27zM96 108q0 -30 31 -44.5t74 -14.5q27 0 50.5 5.5t41.5 14.5t28.5 21.5t10.5 27.5q0 14 -9 26t-25 20.5t-36.5 13.5t-44.5 5q-26 0 -48 -5.5t-38 -15.5t-25.5 -24t-9.5 -30zM73 575q0 7 3 16.5t10 18.5t17.5 15t25.5 6q20 0 34.5 -14.5t14.5 -37.5
q0 -36 -18.5 -48.5t-37.5 -12.5q-20 0 -34.5 16t-14.5 41zM280 552q0 7 3 16.5t10 18.5t17.5 15t25.5 6q20 0 34.5 -14.5t14.5 -37.5q0 -36 -18.5 -48.5t-37.5 -12.5q-20 0 -34.5 16t-14.5 41z" />
    <glyph glyph-name="ae" unicode="&#xe6;" horiz-adv-x="795" 
d="M410 244q-1 -11 -1.5 -21.5t-0.5 -19.5q0 -27 7 -54.5t23 -49t42.5 -35t65.5 -13.5q25 0 51.5 6.5t49.5 21.5t39.5 39t20.5 59q0 4 1.5 9.5t4.5 10.5t9 8.5t17 3.5q21 0 26.5 -13t5.5 -27q0 -29 -13 -60.5t-39.5 -58t-67.5 -44t-98 -17.5q-39 0 -66.5 8.5t-47 21.5
t-33 29.5t-24.5 33.5q-24 -28 -50 -46t-53 -28.5t-52.5 -14.5t-47.5 -4q-71 0 -112 32t-41 88q0 29 12 54.5t34 44t53 29.5t69 11q79 0 139 -51q0 31 0.5 43t0.5 22q0 66 -32.5 100.5t-88.5 34.5q-12 0 -27.5 -2t-29 -6t-22.5 -11.5t-9 -17.5q0 -11 7.5 -13t12.5 -4
q9 -2 16 -9t7 -21q0 -19 -14 -28t-34 -9q-29 0 -46.5 19t-17.5 48q0 24 12.5 45t34 36.5t51.5 24t66 8.5q57 0 99.5 -24t57.5 -75q9 24 24 45.5t37 38t51.5 26t66.5 9.5q50 0 87.5 -17t63 -44t38 -60t12.5 -65q0 -20 -10 -28.5t-26 -12.5q-7 -2 -28 -2.5t-49.5 -1.5t-63 -1
h-68.5h-27.5t-20 -0.5t-21.5 -0.5h-33zM97 114q0 -32 31 -48.5t79 -16.5q54 0 90 19.5t36 48.5q0 27 -31.5 49t-88.5 22q-56 0 -86 -21.5t-30 -52.5zM667 308q10 0 13 4.5t3 9.5q0 10 -8 26t-24.5 31t-41 25.5t-57.5 10.5t-57.5 -11t-41 -27.5t-26 -36t-13.5 -36.5z" />
    <glyph glyph-name="aeacute" unicode="&#x1fd;" horiz-adv-x="795" 
d="M458 623q0 -11 -17 -32.5t-39.5 -42.5t-45 -37t-33.5 -16q-8 0 -16.5 4t-8.5 14q0 2 5.5 14t15 28.5l21 35t24 34t24 26t21.5 10.5q23 0 36 -10.5t13 -27.5zM410 244q-1 -11 -1.5 -21.5t-0.5 -19.5q0 -27 7 -54.5t23 -49t42.5 -35t65.5 -13.5q25 0 51.5 6.5t49.5 21.5
t39.5 39t20.5 59q0 4 1.5 9.5t4.5 10.5t9 8.5t17 3.5q21 0 26.5 -13t5.5 -27q0 -29 -13 -60.5t-39.5 -58t-67.5 -44t-98 -17.5q-39 0 -66.5 8.5t-47 21.5t-33 29.5t-24.5 33.5q-24 -28 -50 -46t-53 -28.5t-52.5 -14.5t-47.5 -4q-71 0 -112 32t-41 88q0 29 12 54.5t34 44
t53 29.5t69 11q79 0 139 -51q0 31 0.5 43t0.5 22q0 66 -32.5 100.5t-88.5 34.5q-12 0 -27.5 -2t-29 -6t-22.5 -11.5t-9 -17.5q0 -11 7.5 -13t12.5 -4q9 -2 16 -9t7 -21q0 -19 -14 -28t-34 -9q-29 0 -46.5 19t-17.5 48q0 24 12.5 45t34 36.5t51.5 24t66 8.5q57 0 99.5 -24
t57.5 -75q9 24 24 45.5t37 38t51.5 26t66.5 9.5q50 0 87.5 -17t63 -44t38 -60t12.5 -65q0 -20 -10 -28.5t-26 -12.5q-7 -2 -28 -2.5t-49.5 -1.5t-63 -1h-68.5h-27.5t-20 -0.5t-21.5 -0.5h-33zM97 114q0 -32 31 -48.5t79 -16.5q54 0 90 19.5t36 48.5q0 27 -31.5 49t-88.5 22
q-56 0 -86 -21.5t-30 -52.5zM667 308q10 0 13 4.5t3 9.5q0 10 -8 26t-24.5 31t-41 25.5t-57.5 10.5t-57.5 -11t-41 -27.5t-26 -36t-13.5 -36.5z" />
    <glyph glyph-name="agrave" unicode="&#xe0;" horiz-adv-x="468" 
d="M160 623q0 17 13 27.5t36 10.5q9 0 21 -10.5t24.5 -26t24 -34l21 -35t15 -28.5t5.5 -14q0 -10 -8.5 -14t-16.5 -4q-11 0 -33.5 16t-45 37t-39.5 42.5t-17 32.5zM332 224q0 11 0.5 21.5t0.5 15.5q0 66 -27.5 103.5t-87.5 37.5q-17 0 -36 -3.5t-34.5 -10t-26 -16
t-10.5 -21.5q0 -8 5 -10.5t15 -4.5q7 -1 16 -8t9 -23q0 -17 -12 -26.5t-32 -9.5q-31 0 -44 22t-13 48q0 54 46 88.5t125 34.5q177 0 177 -195q0 -11 -0.5 -29t-1 -38.5l-1 -41t-0.5 -35.5q0 -46 4 -60t18 -14q11 0 14.5 7t5.5 20q1 6 7 14t20 8q13 0 17 -10t4 -23
q0 -21 -6.5 -35.5t-17.5 -23.5t-24.5 -13t-28.5 -4q-27 0 -48.5 13.5t-30.5 45.5q-32 -29 -70.5 -44t-85.5 -15q-70 0 -111.5 32t-41.5 86q0 29 12 54t34 43t52.5 28.5t68.5 10.5q77 0 140 -46v27zM96 108q0 -30 31 -44.5t74 -14.5q27 0 50.5 5.5t41.5 14.5t28.5 21.5
t10.5 27.5q0 14 -9 26t-25 20.5t-36.5 13.5t-44.5 5q-26 0 -48 -5.5t-38 -15.5t-25.5 -24t-9.5 -30z" />
    <glyph glyph-name="amacron" unicode="&#x101;" horiz-adv-x="468" 
d="M25 0zM332 224q0 11 0.5 21.5t0.5 15.5q0 66 -27.5 103.5t-87.5 37.5q-17 0 -36 -3.5t-34.5 -10t-26 -16t-10.5 -21.5q0 -8 5 -10.5t15 -4.5q7 -1 16 -8t9 -23q0 -17 -12 -26.5t-32 -9.5q-31 0 -44 22t-13 48q0 54 46 88.5t125 34.5q177 0 177 -195q0 -11 -0.5 -29
t-1 -38.5l-1 -41t-0.5 -35.5q0 -46 4 -60t18 -14q11 0 14.5 7t5.5 20q1 6 7 14t20 8q13 0 17 -10t4 -23q0 -21 -6.5 -35.5t-17.5 -23.5t-24.5 -13t-28.5 -4q-27 0 -48.5 13.5t-30.5 45.5q-32 -29 -70.5 -44t-85.5 -15q-70 0 -111.5 32t-41.5 86q0 29 12 54t34 43t52.5 28.5
t68.5 10.5q77 0 140 -46v27zM96 108q0 -30 31 -44.5t74 -14.5q27 0 50.5 5.5t41.5 14.5t28.5 21.5t10.5 27.5q0 14 -9 26t-25 20.5t-36.5 13.5t-44.5 5q-26 0 -48 -5.5t-38 -15.5t-25.5 -24t-9.5 -30zM363 588q8 0 14.5 -8.5t6.5 -19.5q0 -8 -6 -20.5t-23 -12.5h-53.5
t-69.5 -0.5t-68 -0.5h-50q-11 0 -18.5 10t-7.5 21t6 20.5t20 9.5q7 0 22 -0.5t33 -0.5t35.5 -0.5t30.5 -0.5q42 0 73 1.5t55 1.5z" />
    <glyph glyph-name="ampersand" unicode="&#x26;" horiz-adv-x="738" 
d="M446 349q-26 0 -33.5 15t-7.5 28q0 26 18.5 46.5t57.5 20.5q16 0 32 -5t28.5 -18t20.5 -35.5t8 -58.5q0 -60 -19.5 -110t-42.5 -92q35 -48 56 -73t35 -30q5 -2 10.5 -2.5t15 -1t24 -0.5h38.5q38 -1 57 -4.5t19 -20.5q0 -9 -6.5 -14t-25 -8t-53 -4t-90.5 -1
q-13 0 -26.5 9.5t-28.5 24.5t-31 34.5l-33 40.5q-46 -49 -96.5 -74t-113.5 -25q-36 0 -76 9t-73.5 31.5t-56 60t-22.5 94.5q0 53 19 97.5t46.5 80.5t57.5 62t52 43q-28 54 -48 106.5t-20 100.5q0 38 14 68t37.5 51t54.5 32t66 11q23 0 46 -5.5t42 -20t30.5 -38.5t11.5 -60
q0 -41 -14.5 -78t-37 -68.5t-48.5 -58.5l-48 -49q16 -35 38 -70.5t46.5 -71l49 -69l45.5 -63.5q18 33 30 70.5t12 79.5q0 41 -8 53.5t-16 12.5q-9 0 -9.5 -8.5t-2 -18t-7.5 -18t-24 -8.5zM237 414q-29 -27 -53.5 -52.5t-41.5 -51.5t-26.5 -54.5t-9.5 -62.5q0 -47 16.5 -74.5
t40 -42.5t50 -19.5t47.5 -4.5q33 0 59 7.5t46.5 19.5t35 26t24.5 26q-24 29 -46 58.5t-44.5 63.5l-46 73zM366 704q0 27 -13.5 50t-52.5 23q-42 0 -64.5 -27.5t-22.5 -75.5q0 -35 12 -73t31 -80q14 16 33 35.5t36 42t29 48.5t12 57z" />
    <glyph glyph-name="aogonek" unicode="&#x105;" horiz-adv-x="468" 
d="M25 0zM332 224q0 11 0.5 21.5t0.5 15.5q0 66 -27.5 103.5t-87.5 37.5q-17 0 -36 -3.5t-34.5 -10t-26 -16t-10.5 -21.5q0 -8 5 -10.5t15 -4.5q7 -1 16 -8t9 -23q0 -17 -12 -26.5t-32 -9.5q-31 0 -44 22t-13 48q0 54 46 88.5t125 34.5q177 0 177 -195q0 -11 -0.5 -29
t-1 -38.5l-1 -41t-0.5 -35.5q0 -46 4 -60t18 -14q11 0 14.5 7t5.5 20q1 6 7 14t20 8q13 0 17 -10t4 -23q0 -21 -6.5 -35.5t-17.5 -23.5t-24.5 -13t-28.5 -4q-27 0 -48.5 13.5t-30.5 45.5q-32 -29 -70.5 -44t-85.5 -15q-70 0 -111.5 32t-41.5 86q0 29 12 54t34 43t52.5 28.5
t68.5 10.5q77 0 140 -46v27zM96 108q0 -30 31 -44.5t74 -14.5q27 0 50.5 5.5t41.5 14.5t28.5 21.5t10.5 27.5q0 14 -9 26t-25 20.5t-36.5 13.5t-44.5 5q-26 0 -48 -5.5t-38 -15.5t-25.5 -24t-9.5 -30zM462 -1q-18 -6 -29.5 -18.5t-18 -25.5t-9 -25.5t-2.5 -18.5
q0 -12 9.5 -21.5t21.5 -9.5q25 0 33.5 8.5t16.5 15.5q7 6 13 6q11 0 16 -7t5 -15q0 -4 -5.5 -12.5t-16 -17t-24.5 -15t-32 -6.5q-44 0 -72.5 20.5t-28.5 52.5q0 23 11 39.5t25 27.5q16 13 37 23z" />
    <glyph glyph-name="apostrophe" unicode="&#x2bc;" horiz-adv-x="324" 
d="M162 851q14 0 22 -6.5t11.5 -16.5t4 -20.5t0.5 -17.5q0 -4 -1.5 -26.5t-5.5 -48t-11.5 -46.5t-18.5 -21q-13 0 -20.5 18.5t-11.5 42.5t-5 46t-1 29q0 5 0.5 16t4 22.5t11 20t21.5 8.5z" />
    <glyph glyph-name="aring" unicode="&#xe5;" horiz-adv-x="468" 
d="M25 0zM332 224q0 11 0.5 21.5t0.5 15.5q0 66 -27.5 103.5t-87.5 37.5q-17 0 -36 -3.5t-34.5 -10t-26 -16t-10.5 -21.5q0 -8 5 -10.5t15 -4.5q7 -1 16 -8t9 -23q0 -17 -12 -26.5t-32 -9.5q-31 0 -44 22t-13 48q0 54 46 88.5t125 34.5q177 0 177 -195q0 -11 -0.5 -29
t-1 -38.5l-1 -41t-0.5 -35.5q0 -46 4 -60t18 -14q11 0 14.5 7t5.5 20q1 6 7 14t20 8q13 0 17 -10t4 -23q0 -21 -6.5 -35.5t-17.5 -23.5t-24.5 -13t-28.5 -4q-27 0 -48.5 13.5t-30.5 45.5q-32 -29 -70.5 -44t-85.5 -15q-70 0 -111.5 32t-41.5 86q0 29 12 54t34 43t52.5 28.5
t68.5 10.5q77 0 140 -46v27zM96 108q0 -30 31 -44.5t74 -14.5q27 0 50.5 5.5t41.5 14.5t28.5 21.5t10.5 27.5q0 14 -9 26t-25 20.5t-36.5 13.5t-44.5 5q-26 0 -48 -5.5t-38 -15.5t-25.5 -24t-9.5 -30zM302 581q0 -36 -21.5 -53.5t-48.5 -17.5q-30 0 -51 19t-21 50
q0 30 20.5 50t50.5 20q35 0 53 -18t18 -50zM231 615q-8 0 -17 -7.5t-9 -28.5q0 -22 10.5 -28.5t16.5 -6.5q5 0 15 6.5t10 29.5q0 19 -8 27t-18 8z" />
    <glyph glyph-name="aringacute" unicode="&#x1fb;" horiz-adv-x="468" 
d="M316 783q0 -11 -14.5 -29t-34 -35.5t-39.5 -30t-31 -12.5q-8 0 -16.5 4t-8.5 14q0 3 11 23.5t27 43.5t34.5 41.5t32.5 18.5q23 0 31 -10.5t8 -27.5zM332 224q0 11 0.5 21.5t0.5 15.5q0 66 -27.5 103.5t-87.5 37.5q-17 0 -36 -3.5t-34.5 -10t-26 -16t-10.5 -21.5
q0 -8 5 -10.5t15 -4.5q7 -1 16 -8t9 -23q0 -17 -12 -26.5t-32 -9.5q-31 0 -44 22t-13 48q0 54 46 88.5t125 34.5q177 0 177 -195q0 -11 -0.5 -29t-1 -38.5l-1 -41t-0.5 -35.5q0 -46 4 -60t18 -14q11 0 14.5 7t5.5 20q1 6 7 14t20 8q13 0 17 -10t4 -23q0 -21 -6.5 -35.5
t-17.5 -23.5t-24.5 -13t-28.5 -4q-27 0 -48.5 13.5t-30.5 45.5q-32 -29 -70.5 -44t-85.5 -15q-70 0 -111.5 32t-41.5 86q0 29 12 54t34 43t52.5 28.5t68.5 10.5q77 0 140 -46v27zM96 108q0 -30 31 -44.5t74 -14.5q27 0 50.5 5.5t41.5 14.5t28.5 21.5t10.5 27.5q0 14 -9 26
t-25 20.5t-36.5 13.5t-44.5 5q-26 0 -48 -5.5t-38 -15.5t-25.5 -24t-9.5 -30zM302 581q0 -36 -21.5 -53.5t-48.5 -17.5q-30 0 -51 19t-21 50q0 30 20.5 50t50.5 20q35 0 53 -18t18 -50zM231 615q-8 0 -17 -7.5t-9 -28.5q0 -22 10.5 -28.5t16.5 -6.5q5 0 15 6.5t10 29.5
q0 19 -8 27t-18 8z" />
    <glyph glyph-name="asciicircum" unicode="^" horiz-adv-x="315" 
d="M27 510zM277 510q-5 0 -18 7.5l-30 18l-36 23t-36 22.5q-17 -10 -36 -22.5l-35.5 -23t-29.5 -18t-18 -7.5q-11 0 -11 13q0 16 17.5 38.5t40 43.5t43.5 35.5t29 14.5q9 0 30.5 -15t44 -35.5t39.5 -42.5t17 -35q0 -7 -2.5 -12t-8.5 -5z" />
    <glyph glyph-name="asciitilde" unicode="~" horiz-adv-x="423" 
d="M40 507zM43 552q2 5 8 12t21 16q31 18 68 18q15 0 32.5 -4.5l35.5 -9.5t36 -9.5t33 -4.5q26 0 60 17q14 8 19.5 10.5t10.5 2.5t11.5 -8t6.5 -20q0 -10 -5 -19q-10 -17 -35 -31t-67 -14q-19 0 -37.5 3.5t-36 8l-33.5 8.5t-30 4q-15 0 -27.5 -4t-23 -8.5t-19 -8.5t-14.5 -4
q-8 0 -12.5 8.5t-4.5 19.5q0 9 3 17z" />
    <glyph glyph-name="asterisk" unicode="*" horiz-adv-x="364" 
d="M248 828q15 0 20.5 -9t5.5 -19q0 -8 -9 -20.5t-19.5 -24.5l-19.5 -22.5t-9 -14.5q7 1 18.5 2t24.5 1.5l25.5 1t21.5 0.5q11 0 18.5 -8.5t7.5 -19.5q0 -12 -8 -18t-17 -6q-11 0 -25.5 0.5l-28.5 1t-25 1.5t-14 1q1 -2 12.5 -10t25 -20t24 -25.5t10.5 -26.5t-8 -18t-18 -5
q-8 0 -20.5 12.5t-25 28.5t-22 30t-12.5 17q-2 -3 -9.5 -17.5t-17.5 -30t-21.5 -28t-20.5 -12.5q-28 0 -28 25q0 9 7 20t17.5 22t22 21l19.5 17q-23 -2 -43.5 -3t-39.5 -1q-11 0 -23.5 4.5t-12.5 19.5q0 10 9 18.5t27 8.5q21 0 39 -0.5t44 -3.5q-32 35 -49 52t-17 30
q0 17 7 22.5t19 5.5q8 0 15 -6.5t15 -19t18 -30t24 -38.5l17.5 32.5t16.5 30t16 22.5t16 9z" />
    <glyph glyph-name="at" unicode="@" horiz-adv-x="688" 
d="M584 236q0 49 -14.5 93t-44 77t-74.5 52t-105 19q-53 0 -97 -18.5t-75 -51.5t-48 -79t-17 -101q0 -56 16.5 -101.5t46 -78.5t69 -51t84.5 -18q21 0 30 -8.5t9 -24.5t-11 -22.5t-29 -6.5q-56 0 -107 22.5t-89.5 64t-61.5 98.5t-23 126q0 68 22.5 125.5t63 99.5t96.5 65.5
t122 23.5q72 0 128 -24.5t94 -66t58 -97t20 -116.5q0 -50 -12 -85t-32.5 -57t-47.5 -31.5t-56 -9.5q-34 0 -49.5 14t-21.5 29q-16 -20 -41.5 -34t-62.5 -14q-34 0 -62 13t-48.5 35.5t-31.5 52.5t-11 65q0 39 12.5 72.5t35 58t53 39t66.5 14.5q21 0 45.5 -7.5t40.5 -31.5
q-1 8 -1.5 13t-0.5 11q0 12 10 19.5t23 7.5q15 0 23.5 -9.5t8.5 -19.5q0 -39 -1.5 -73t-1.5 -72q0 -20 1 -40t1 -41q0 -26 8 -33.5t26 -7.5q10 0 21 6.5t20.5 20.5t16 37.5t6.5 56.5zM422 243q0 44 -21 70t-65 26q-38 0 -65.5 -33t-27.5 -90q0 -52 23 -79.5t63 -27.5
q27 0 45 10.5t28.5 25.5t15 31.5t4.5 28.5v38z" />
    <glyph glyph-name="atilde" unicode="&#xe3;" horiz-adv-x="468" 
d="M25 0zM66 552q2 5 8 12t21 16q31 18 68 18q15 0 32.5 -4.5l35.5 -9.5t36 -9.5t33 -4.5q26 0 60 17q14 8 19.5 10.5t10.5 2.5t11.5 -8t6.5 -20q0 -10 -5 -19q-10 -17 -35 -31t-67 -14q-19 0 -37.5 3.5t-36 8l-33.5 8.5t-30 4q-15 0 -27.5 -4t-23 -8.5t-19 -8.5t-14.5 -4
q-8 0 -12.5 8.5t-4.5 19.5q0 9 3 17zM332 224q0 11 0.5 21.5t0.5 15.5q0 66 -27.5 103.5t-87.5 37.5q-17 0 -36 -3.5t-34.5 -10t-26 -16t-10.5 -21.5q0 -8 5 -10.5t15 -4.5q7 -1 16 -8t9 -23q0 -17 -12 -26.5t-32 -9.5q-31 0 -44 22t-13 48q0 54 46 88.5t125 34.5
q177 0 177 -195q0 -11 -0.5 -29t-1 -38.5l-1 -41t-0.5 -35.5q0 -46 4 -60t18 -14q11 0 14.5 7t5.5 20q1 6 7 14t20 8q13 0 17 -10t4 -23q0 -21 -6.5 -35.5t-17.5 -23.5t-24.5 -13t-28.5 -4q-27 0 -48.5 13.5t-30.5 45.5q-32 -29 -70.5 -44t-85.5 -15q-70 0 -111.5 32
t-41.5 86q0 29 12 54t34 43t52.5 28.5t68.5 10.5q77 0 140 -46v27zM96 108q0 -30 31 -44.5t74 -14.5q27 0 50.5 5.5t41.5 14.5t28.5 21.5t10.5 27.5q0 14 -9 26t-25 20.5t-36.5 13.5t-44.5 5q-26 0 -48 -5.5t-38 -15.5t-25.5 -24t-9.5 -30z" />
    <glyph glyph-name="b" unicode="b" horiz-adv-x="517" 
d="M136 334q28 60 73 92t102 32q49 0 83 -23t54 -58t29 -77t9 -80q0 -65 -21.5 -109t-54 -70.5t-71.5 -38t-74 -11.5q-30 0 -52 7t-38 18t-27.5 24.5t-19.5 27.5q-2 -24 -3 -39.5t-5 -24.5t-11 -12.5t-19 -3.5q-14 0 -23.5 9t-9.5 27q0 33 1 60l2 54.5t2 59t2 73t1.5 97
t0.5 130.5v74t-0.5 70t-0.5 58.5v39.5q0 27 -45 27h-38q-17 0 -31.5 5t-14.5 17q0 14 22.5 21.5t61.5 7.5h90q9 0 17.5 -5t8.5 -31v-448zM139 205q0 -75 31.5 -114t92.5 -39q21 0 47.5 7.5t49 27t38 53t15.5 85.5q0 49 -12.5 82t-31 53t-39 28.5t-36.5 8.5
q-41 0 -70.5 -23.5t-48 -55t-27.5 -63.5t-9 -50z" />
    <glyph glyph-name="backslash" unicode="\" horiz-adv-x="530" 
d="M20 0zM507.001 18l-55.9961 111.5l-35.998 71t-22.498 42l-14 24.5q-5.49902 10 -11.499 19q-5.99902 9 -14.999 24.5l-23.998 42l-38.998 70.5l-50.9971 93.5l-32.998 61.5l-21.498 42.5l-17.999 37.5l-22.499 46.5l-33.998 69.5q-14.999 31 -27.498 44t-36.498 13
q-17.999 0 -21.498 -9q-3.5 -9 -3.5 -15q0 -8 5 -20q4.99902 -12 8.99902 -19l404.976 -763q4.99902 -11 16.499 -17.5q11.499 -6.5 25.498 -6.5q8.99902 0 18.499 8.5q9.49902 8.5 9.49902 19.5q0 6 -2 9z" />
    <glyph glyph-name="bar" unicode="|" horiz-adv-x="242" 
d="M156 802q0 -54 -0.5 -112.5t-0.5 -118t-0.5 -117.5t-0.5 -112v-114v-121t0.5 -121t1.5 -114q0 -16 -9 -21.5t-26 -5.5q-14 0 -24.5 6.5t-10.5 17.5v116t0.5 123t0.5 123.5v116.5v114.5v120t-0.5 120.5t-0.5 115q0 10 4 16t10 9.5t12 5t10 1.5q19 0 26.5 -16.5t7.5 -31.5z
" />
    <glyph glyph-name="braceleft" unicode="{" horiz-adv-x="334" 
d="M193 47q0 -20 2 -31t8 -16t17 -6t29 -1q7 0 19.5 -0.5t24.5 -3.5t21 -9t9 -16q0 -8 -10.5 -12.5t-24.5 -6.5t-28.5 -2.5t-22.5 -0.5h-46q-16 0 -28.5 3t-21.5 12.5t-13.5 27t-4.5 47.5v168q0 52 -12 81.5t-27 44.5t-29.5 18.5t-20.5 3.5q-36 0 -36 26q0 14 11.5 20
t30.5 6q6 0 19 3t27 19.5t24.5 53t10.5 104.5q0 26 -0.5 67.5t-0.5 99.5q0 6 1.5 20.5t9 29.5t24 26.5t45.5 11.5q7 0 19.5 0.5t26.5 1l27.5 1t22.5 0.5q8 0 18.5 -3.5t10.5 -18.5q0 -11 -8.5 -15.5t-19.5 -6.5l-51 -6q-20 -1 -30.5 -6t-15.5 -10.5t-6 -11t-1 -7.5v-174
q-2 -58 -14 -103q-5 -19 -13.5 -37.5t-20.5 -32.5t-27.5 -23t-36.5 -9q21 0 36.5 -7.5t27.5 -20t20.5 -28t13.5 -31.5q12 -38 14 -86v-154z" />
    <glyph glyph-name="braceright" unicode="}" horiz-adv-x="334" 
d="M9 0zM141.012 733.003q0 19.999 -2 30.998t-7.99902 15.999q-6 5 -16.999 6q-11 1 -28.998 1q-7 0 -19.499 0.5t-24.499 3.49902q-11.999 3 -20.998 9q-9 5.99902 -9 15.999q0 7.99902 10.5 12.499q10.499 4.5 24.498 6.5q13.999 1.99902 28.498 2.49902t22.499 0.5
h45.9971q15.999 0 28.498 -2.99902q12.499 -3 21.499 -12.5q8.99902 -9.49902 13.499 -26.998t4.5 -47.4971v-167.99q0 -51.9961 11.999 -81.4941q11.999 -29.499 26.998 -44.498t29.498 -18.498q14.499 -3.5 20.499 -3.5q35.998 0 35.998 -25.999
q0 -13.999 -11.499 -19.998q-11.5 -6 -30.499 -6q-5.99902 0 -18.998 -3q-13 -3 -26.999 -19.499t-24.498 -52.9961q-10.499 -36.498 -10.499 -104.494q0 -25.998 0.5 -67.4961q0.5 -41.4971 0.5 -99.4932q0 -6 -1.5 -20.499t-9 -29.498q-7.49902 -14.999 -23.998 -26.498
q-16.499 -11.5 -45.498 -11.5q-6.99902 0 -19.498 -0.5q-12.5 -0.5 -26.499 -1l-27.498 -1t-22.499 -0.5q-7.99902 0 -18.498 3.5q-10.5 3.5 -10.5 18.499q0 10.999 8.5 15.499q8.49902 4.5 19.499 6.5l50.9961 5.99902q19.999 1 30.498 6q10.5 5 15.499 10.499q5 5.5 6 11
q1 5.49902 1 7.49902v173.989q2 57.9971 13.999 102.994q5 18.999 13.499 37.4971q8.5 18.499 20.499 32.498t27.498 22.999q15.499 8.99902 36.498 8.99902q-20.999 0 -36.498 7.5q-15.499 7.49902 -27.498 19.999q-11.999 12.499 -20.499 27.998
q-8.49902 15.499 -13.499 31.498q-11.999 37.998 -13.999 85.9951v153.99z" />
    <glyph glyph-name="bracketleft" unicode="[" horiz-adv-x="319" 
d="M106 835q22 1 49.5 1.5l52.5 1t45 0.5h28t18.5 -3.5t10.5 -18.5q0 -14 -8.5 -17.5t-19.5 -4.5l-103 -8q-14 -1 -17.5 -12t-3.5 -18v-746q0 -13 19.5 -15t56.5 -2q13 0 26 -1.5t23.5 -4.5t17.5 -8t7 -12q0 -9 -9 -14t-22 -7.5t-28 -3t-27 -0.5h-115q-9 0 -14 7t-5 28
q0 16 0.5 46.5t0.5 68.5v79.5v79.5v68.5v46.5v90v69t-0.5 58t-1 58t-1 69t-1.5 90q0 12 6.5 23t14.5 12z" />
    <glyph glyph-name="bracketright" unicode="]" horiz-adv-x="319" 
d="M213 835q8 -1 14.5 -12t6.5 -23q-1 -52 -1.5 -90t-1 -69t-1 -58t-0.5 -58v-69v-90v-46.5v-68.5v-79.5v-79.5t0.5 -68.5t0.5 -46.5q0 -21 -5 -28t-14 -7h-115q-12 0 -27 0.5t-28 3t-22 7.5t-9 14q0 7 7 12t17.5 8t23.5 4.5t26 1.5q37 0 56.5 2t19.5 15v746q0 7 -3.5 18
t-17.5 12l-103 8q-11 1 -19.5 4.5t-8.5 17.5q0 15 10.5 18.5t18.5 3.5h28t45 -0.5l52 -1t50 -1.5z" />
    <glyph glyph-name="breve" unicode="&#x2d8;" horiz-adv-x="249" 
d="M234 589q0 -19 -11 -34t-28 -25t-38 -15t-40 -5q-57 0 -89.5 24t-32.5 55q0 28 26 28q14 0 21 -6t7 -21q0 -10 6 -16.5t15.5 -10.5t21 -6t22.5 -2q29 0 46.5 11t17.5 24q0 11 7.5 19t18.5 8q10 0 20 -4t10 -24z" />
    <glyph glyph-name="brokenbar" unicode="&#xa6;" horiz-adv-x="241" 
d="M156 817q0 -51 -1 -105t-1 -104q0 -51 1 -102t1 -102q0 -13 -10 -18.5t-26 -5.5q-14 0 -24 4.5t-10 15.5q0 51 0.5 105t0.5 105v106.5t-1 106.5q0 5 4 10t9.5 8.5t11.5 6t10 2.5q17 0 26 -12.5t9 -20.5zM154 292q0 -51 -1 -105.5t-1 -104.5q0 -51 1 -102.5t1 -102.5
q0 -20 -9 -26.5t-25 -6.5q-14 0 -24 7t-10 24q0 51 0.5 104.5t0.5 104.5q0 52 -0.5 105.5t-0.5 105.5q0 11 13.5 15t21.5 4q18 0 25.5 -8t7.5 -14z" />
    <glyph glyph-name="bullet" unicode="&#x2022;" horiz-adv-x="303" 
d="M237 360q0 -23 -8 -40.5t-20.5 -29t-28 -17.5t-30.5 -6q-34 0 -58.5 25t-24.5 66q0 40 24.5 66t63.5 26q41 0 61.5 -27t20.5 -63z" />
    <glyph glyph-name="c" unicode="c" horiz-adv-x="488" 
d="M382 428q-1 11 -1.5 26t-0.5 29q0 11 7 19.5t24 8.5t25 -9t8 -24v-37t-0.5 -47.5t-0.5 -47.5v-36q0 -8 -10.5 -15t-25.5 -7q-8 0 -17.5 5t-9.5 16q0 52 -27 82.5t-94 30.5q-33 0 -61.5 -14.5t-48.5 -40.5t-31.5 -61.5t-11.5 -78.5q0 -79 37.5 -125t105.5 -46q58 0 97 21
t57 51q10 16 18.5 21t15.5 5q11 0 20.5 -6t9.5 -20q0 -8 -2.5 -13.5t-7.5 -13.5q-70 -107 -204 -107q-53 0 -94.5 18t-70 49.5t-44 73.5t-15.5 90q0 54 17.5 101t48.5 81.5t74 54.5t93 20q38 0 68 -10.5t52 -43.5z" />
    <glyph glyph-name="c.salt" horiz-adv-x="485" 
d="M420 128q11 11 17 14.5t14 3.5q12 0 18 -7t6 -18q0 -6 -2 -13t-7 -12q-43 -48 -93 -75t-121 -27q-54 0 -96 18t-70 49.5t-42.5 74t-14.5 90.5q0 54 17.5 100.5t49 81t75 54.5t96.5 20q35 0 66.5 -8.5t55 -24t37.5 -36.5t14 -46q0 -12 -4 -25t-12 -23.5t-21.5 -17.5
t-31.5 -7q-28 0 -39 15t-11 32q0 12 4.5 18.5t9.5 11t9.5 9t4.5 11.5q0 11 -15 22t-55 11q-42 0 -73.5 -14.5t-52.5 -41t-32 -63t-11 -80.5q0 -77 35 -124t114 -47q51 0 89.5 20.5t71.5 53.5z" />
    <glyph glyph-name="c_h" horiz-adv-x="957" 
d="M894 293q3 -23 3.5 -54t0.5 -63v-208h14q10 0 21.5 -1t21 -4t15.5 -8.5t6 -14.5q0 -12 -12 -16.5t-29 -4.5q-6 0 -17.5 0.5t-24.5 1l-26.5 1t-23.5 0.5q-21 0 -47 -1.5t-39 -1.5q-17 0 -29.5 4.5t-12.5 16.5q0 8 7 13.5t17.5 8.5t24 4.5t26.5 2.5q18 2 25.5 7.5t9.5 23.5
q1 9 1.5 25t1 35t0.5 38v34v36t-1 43l-2 42.5t-3 34.5q-1 8 -5 21.5t-14 27t-28.5 23t-48.5 9.5q-37 0 -63.5 -15.5t-43.5 -40.5t-25 -56.5t-8 -63.5v-141h43q16 0 34 -5.5t18 -22.5q0 -13 -11 -18.5t-19 -5.5q-29 0 -61 1.5t-55 1.5t-46.5 -1.5t-42.5 -1.5q-15 0 -26.5 3
t-11.5 16q0 15 20 21t62 12q14 2 19.5 9.5t6.5 30.5q1 22 2 61t2 84l2 90t1 79q-1 61 -1 111v129q0 39 -14.5 50t-30.5 11q-6 0 -14.5 -2t-16.5 -12t-13.5 -29.5t-5.5 -53.5q0 -33 4.5 -76.5t10.5 -85.5t10.5 -77t4.5 -50q0 -11 -5.5 -23t-27.5 -12q-12 0 -22.5 6.5
t-15.5 26.5q-4 16 -10 34t-18.5 33.5t-33.5 25.5t-54 10q-39 0 -69.5 -14.5t-52 -40.5t-33 -62t-11.5 -79q0 -78 38 -124t114 -46q32 0 54 7.5t36.5 19t23 24t13.5 21.5q2 5 10.5 13.5t26.5 8.5q17 0 21.5 -8.5t4.5 -13.5t-2.5 -11.5t-6.5 -13.5q-10 -19 -27 -38.5
t-40.5 -35t-54 -25.5t-68.5 -10q-50 0 -90 18t-68.5 49.5t-44 74t-15.5 91.5q0 53 17.5 99.5t49 81t74.5 54.5t94 20q35 0 67 -13t58 -49q-1 2 -2.5 7t-3.5 15q-7 28 -16 74.5t-9 97.5q0 84 32 118.5t88 34.5q43 0 66 -14.5t33.5 -33t12.5 -34.5t2 -19v-309q24 39 59.5 55
t80.5 16q49 0 79.5 -15t48 -36t25 -44t9.5 -40z" />
    <glyph glyph-name="c_k" horiz-adv-x="944" 
d="M524 370v66v64.5t-0.5 68t-1.5 77.5q-1 37 -15 49t-30 12q-6 0 -14.5 -2.5t-16.5 -12.5t-13.5 -29.5t-5.5 -52.5t4.5 -76.5t10.5 -85.5t10.5 -77t4.5 -50q0 -11 -5.5 -23t-27.5 -12q-12 0 -22.5 6.5t-15.5 26.5q-4 16 -10 34t-18.5 33.5t-33.5 25.5t-54 10
q-39 0 -69.5 -14.5t-52 -40.5t-33 -62t-11.5 -79q0 -78 38 -124t114 -46q32 0 54 7.5t36.5 19t23 24t13.5 21.5q2 5 10.5 13.5t26.5 8.5q17 0 21.5 -8.5t4.5 -13.5t-2.5 -11.5t-6.5 -13.5q-10 -19 -27 -38.5t-40.5 -35t-54 -25.5t-68.5 -10q-50 0 -90 18t-68.5 49.5t-44 74
t-15.5 91.5q0 53 17.5 99.5t49 81t74.5 54.5t94 20q35 0 67 -13t58 -49q-1 2 -2.5 7t-3.5 15q-7 28 -16 74.5t-9 97.5q0 84 32 118.5t85 34.5q43 0 66.5 -14.5t34.5 -33t13.5 -34.5t2.5 -19v-402l85.5 78t26.5 32q0 10 -9 10h-4q-11 0 -21 5.5t-10 17.5q0 17 23 20.5t60 3.5
h59q50 0 72.5 -3.5t22.5 -18.5q0 -8 -3 -12.5t-11.5 -7.5t-24.5 -5.5t-42 -4.5q-20 -2 -31 -13l-35.5 -33.5l-24 -22.5l-20 -19.5t-24.5 -22.5q15 -38 35.5 -80.5t40.5 -80t38.5 -66t30.5 -39.5q4 -4 7 -6t9.5 -3t17.5 -1.5t32 -0.5q12 0 23.5 -1t21 -3.5t15.5 -7.5t6 -13
q0 -9 -6.5 -13.5t-24.5 -7t-49.5 -3.5t-82.5 -1q-9 0 -23 17.5t-31 44.5t-35 59.5l-34 63l-28.5 55l-18.5 35.5l-33 -31v-144h49q23 0 32.5 -6.5t9.5 -18.5q0 -14 -8.5 -18t-20.5 -4q-11 0 -20.5 0.5t-20 0.5t-24 0.5t-32.5 0.5q-16 0 -37.5 -1t-35.5 -1q-17 0 -30 4.5
t-13 18.5q0 17 8.5 20t25.5 6q25 5 34.5 14t9.5 38q0 32 0.5 52.5t1 36l1 30t1 34t1 48.5t0.5 74z" />
    <glyph glyph-name="c_p" horiz-adv-x="977" 
d="M591 219q0 -36 8 -67t24 -54t40.5 -36t57.5 -13q30 0 57 11.5t48 34t33.5 55.5t12.5 77q0 35 -8.5 68t-26 58.5t-43 41t-58.5 15.5q-30 0 -56 -13t-46 -37.5t-31.5 -60t-11.5 -80.5zM525 155v57.5t-0.5 73.5l-1 78t-1 71.5t-0.5 54.5v27v54q0 38 -14.5 49.5t-27.5 11.5
q-6 0 -15.5 -2.5t-17.5 -12t-14 -28t-6 -49.5q0 -28 4.5 -61t10.5 -63.5t10.5 -56.5t4.5 -39q0 -10 -5.5 -22t-27.5 -12q-18 0 -25.5 9t-12.5 24q-5 14 -12.5 32t-21 33.5t-35 26.5t-53.5 11q-36 0 -65.5 -14.5t-50.5 -40.5t-32.5 -62.5t-11.5 -79.5q0 -78 38 -123.5
t114 -45.5q32 0 54 7.5t36.5 19t23 24t13.5 21.5q2 5 10.5 13.5t26.5 8.5q17 0 21.5 -8.5t4.5 -13.5t-2.5 -11.5t-6.5 -13.5q-10 -19 -27 -38.5t-40.5 -35t-54 -25.5t-68.5 -10q-50 0 -90 18t-68.5 49.5t-44 74t-15.5 91.5q0 53 17.5 99.5t49 81t75 54.5t94.5 20
q34 0 60 -10t55 -36q0 5 -3.5 17t-7.5 28.5t-7.5 37t-3.5 41.5q0 66 33.5 99t89.5 33q42 0 64.5 -15t33 -34t12 -35t1.5 -17v-194q24 32 59.5 53t92.5 21q60 0 99 -23t62 -58.5t32 -78.5t9 -82q0 -66 -20.5 -112t-53 -74.5t-72.5 -41t-79 -12.5q-49 0 -83.5 15.5t-45.5 33.5
v-192h35q23 0 39 -6.5t16 -20.5q0 -11 -8 -16t-17 -5h-225q-6 0 -14.5 3.5t-8.5 16.5q0 9 5.5 14t13 7.5t16.5 3t16 1.5q21 2 33.5 5t18.5 10t8 19.5t2 35.5q1 33 1.5 67.5l1 66.5t0.5 59.5v47.5z" />
    <glyph glyph-name="c_t" horiz-adv-x="783" 
d="M522 571q0 38 -14.5 49.5t-27.5 11.5q-6 0 -15.5 -2.5t-17.5 -12t-14 -28t-6 -49.5q0 -28 4.5 -61t10.5 -63.5t10.5 -56.5t4.5 -39q0 -10 -5.5 -22t-27.5 -12q-18 0 -25.5 9t-12.5 24q-5 14 -12.5 32t-21 33.5t-35 26.5t-53.5 11q-36 0 -65.5 -14.5t-50.5 -40.5
t-32.5 -62.5t-11.5 -79.5q0 -78 38 -123.5t114 -45.5q32 0 53.5 7.5t35.5 19t22 24t13 21.5q2 5 11 14.5t27 9.5q17 0 22.5 -9.5t5.5 -14.5t-2.5 -11.5t-6.5 -13.5q-10 -19 -27 -38.5t-40.5 -35t-54 -25.5t-68.5 -10q-50 0 -90 18t-68.5 49.5t-44 74t-15.5 91.5
q0 53 17.5 99.5t49 81t75 54.5t94.5 20q34 0 60 -10t55 -36q0 5 -3.5 17t-7.5 28.5t-7.5 37t-3.5 41.5q0 66 33.5 99t89.5 33q53 0 82.5 -32t29.5 -85v-101q7 0 27 0.5t42.5 1.5t41.5 1.5t25 0.5q12 0 24 -6.5t12 -22.5q0 -14 -9 -20.5t-18 -8.5q-36 -5 -74 -5.5t-74 -2.5
v-260q0 -51 9.5 -77t44.5 -26q16 0 26 5.5t17 13.5t11 17t7 17t5.5 16t6.5 14.5t11 10.5t19 4q14 0 19.5 -11t5.5 -19q0 -14 -7.5 -36t-24 -42.5t-42 -35t-61.5 -14.5q-64 0 -91 41q-10 15 -15.5 32.5t-8.5 36t-3.5 35.5t-0.5 31z" />
    <glyph glyph-name="cacute" unicode="&#x107;" horiz-adv-x="488" 
d="M364 633q0 -11 -17 -32.5t-39.5 -42.5t-45 -37t-33.5 -16q-8 0 -16.5 4t-8.5 14q0 2 5.5 14t15 28.5l21 35t24 34t24 26t21.5 10.5q23 0 36 -10.5t13 -27.5zM382 428q-1 11 -1.5 26t-0.5 29q0 11 7 19.5t24 8.5t25 -9t8 -24v-37t-0.5 -47.5t-0.5 -47.5v-36
q0 -8 -10.5 -15t-25.5 -7q-8 0 -17.5 5t-9.5 16q0 52 -27 82.5t-94 30.5q-33 0 -61.5 -14.5t-48.5 -40.5t-31.5 -61.5t-11.5 -78.5q0 -79 37.5 -125t105.5 -46q58 0 97 21t57 51q10 16 18.5 21t15.5 5q11 0 20.5 -6t9.5 -20q0 -8 -2.5 -13.5t-7.5 -13.5q-70 -107 -204 -107
q-53 0 -94.5 18t-70 49.5t-44 73.5t-15.5 90q0 54 17.5 101t48.5 81.5t74 54.5t93 20q38 0 68 -10.5t52 -43.5z" />
    <glyph glyph-name="caron" unicode="&#x2c7;" horiz-adv-x="315" 
d="M27 495zM277 640.031q-5 0 -18 -7.5l-30 -17.998l-36 -22.999t-36 -22.499q-17 10 -36 22.499l-35.5 22.999q-16.5 10.499 -29.5 17.998q-13 7.5 -18 7.5q-11 0 -11 -12.999q0 -15.999 17.5 -38.498t40 -43.4971q22.5 -20.999 43.5 -35.498t29 -14.499q9 0 30.5 14.999
t44 35.498q22.5 20.498 39.5 42.4971t17 34.998q0 6.99902 -2.5 11.999t-8.5 5z" />
    <glyph glyph-name="ccaron" unicode="&#x10d;" horiz-adv-x="488" 
d="M29 0zM382 428q-1 11 -1.5 26t-0.5 29q0 11 7 19.5t24 8.5t25 -9t8 -24v-37t-0.5 -47.5t-0.5 -47.5v-36q0 -8 -10.5 -15t-25.5 -7q-8 0 -17.5 5t-9.5 16q0 52 -27 82.5t-94 30.5q-33 0 -61.5 -14.5t-48.5 -40.5t-31.5 -61.5t-11.5 -78.5q0 -79 37.5 -125t105.5 -46
q58 0 97 21t57 51q10 16 18.5 21t15.5 5q11 0 20.5 -6t9.5 -20q0 -8 -2.5 -13.5t-7.5 -13.5q-70 -107 -204 -107q-53 0 -94.5 18t-70 49.5t-44 73.5t-15.5 90q0 54 17.5 101t48.5 81.5t74 54.5t93 20q38 0 68 -10.5t52 -43.5zM393 640.031q-5 0 -18 -7.5l-30 -17.998
l-36 -22.999t-36 -22.499q-17 10 -36 22.499l-35.5 22.999q-16.5 10.499 -29.5 17.998q-13 7.5 -18 7.5q-11 0 -11 -12.999q0 -15.999 17.5 -38.498t40 -43.4971q22.5 -20.999 43.5 -35.498t29 -14.499q9 0 30.5 14.999t44 35.498q22.5 20.498 39.5 42.4971t17 34.998
q0 6.99902 -2.5 11.999t-8.5 5z" />
    <glyph glyph-name="ccedilla" unicode="&#xe7;" horiz-adv-x="488" 
d="M29 0zM382 428q-1 11 -1.5 26t-0.5 29q0 11 7 19.5t24 8.5t25 -9t8 -24v-37t-0.5 -47.5t-0.5 -47.5v-36q0 -8 -10.5 -15t-25.5 -7q-8 0 -17.5 5t-9.5 16q0 52 -27 82.5t-94 30.5q-33 0 -61.5 -14.5t-48.5 -40.5t-31.5 -61.5t-11.5 -78.5q0 -79 37.5 -125t105.5 -46
q58 0 97 21t57 51q10 16 18.5 21t15.5 5q11 0 20.5 -6t9.5 -20q0 -8 -2.5 -13.5t-7.5 -13.5q-70 -107 -204 -107q-53 0 -94.5 18t-70 49.5t-44 73.5t-15.5 90q0 54 17.5 101t48.5 81.5t74 54.5t93 20q38 0 68 -10.5t52 -43.5zM261 7l19 -4l-13 -72q24 14 41.5 21.5t38.5 7.5
q33 0 55 -17t22 -46q0 -20 -10.5 -34.5t-28.5 -24t-41.5 -14.5t-48.5 -5q-32 0 -48.5 3.5t-16.5 16.5q0 7 10.5 14.5t50.5 7.5q32 0 49 5t17 25q0 14 -12 19t-19 5q-14 0 -25.5 -4.5t-22 -9.5t-21 -9.5t-22.5 -4.5q-17 0 -23 8.5t-6 16.5q0 3 1 8t2 9q5 21 7.5 45t4.5 33h40
z" />
    <glyph glyph-name="ccircumflex" unicode="&#x109;" horiz-adv-x="488" 
d="M29 0zM382 428q-1 11 -1.5 26t-0.5 29q0 11 7 19.5t24 8.5t25 -9t8 -24v-37t-0.5 -47.5t-0.5 -47.5v-36q0 -8 -10.5 -15t-25.5 -7q-8 0 -17.5 5t-9.5 16q0 52 -27 82.5t-94 30.5q-33 0 -61.5 -14.5t-48.5 -40.5t-31.5 -61.5t-11.5 -78.5q0 -79 37.5 -125t105.5 -46
q58 0 97 21t57 51q10 16 18.5 21t15.5 5q11 0 20.5 -6t9.5 -20q0 -8 -2.5 -13.5t-7.5 -13.5q-70 -107 -204 -107q-53 0 -94.5 18t-70 49.5t-44 73.5t-15.5 90q0 54 17.5 101t48.5 81.5t74 54.5t93 20q38 0 68 -10.5t52 -43.5zM385 510q-5 0 -18 7.5l-30 18l-36 23t-36 22.5
q-17 -10 -36 -22.5l-35.5 -23t-29.5 -18t-18 -7.5q-11 0 -11 13q0 16 17.5 38.5t40 43.5t43.5 35.5t29 14.5q9 0 30.5 -15t44 -35.5t39.5 -42.5t17 -35q0 -7 -2.5 -12t-8.5 -5z" />
    <glyph glyph-name="cdotaccent" unicode="&#x10b;" horiz-adv-x="488" 
d="M29 0zM382 428q-1 11 -1.5 26t-0.5 29q0 11 7 19.5t24 8.5t25 -9t8 -24v-37t-0.5 -47.5t-0.5 -47.5v-36q0 -8 -10.5 -15t-25.5 -7q-8 0 -17.5 5t-9.5 16q0 52 -27 82.5t-94 30.5q-33 0 -61.5 -14.5t-48.5 -40.5t-31.5 -61.5t-11.5 -78.5q0 -79 37.5 -125t105.5 -46
q58 0 97 21t57 51q10 16 18.5 21t15.5 5q11 0 20.5 -6t9.5 -20q0 -8 -2.5 -13.5t-7.5 -13.5q-70 -107 -204 -107q-53 0 -94.5 18t-70 49.5t-44 73.5t-15.5 90q0 54 17.5 101t48.5 81.5t74 54.5t93 20q38 0 68 -10.5t52 -43.5zM219 580q0 8 3 18t10 18.5t17.5 14t25.5 5.5
q20 0 34.5 -14.5t14.5 -37.5q0 -36 -18.5 -48.5t-37.5 -12.5q-20 0 -34.5 15t-14.5 42z" />
    <glyph glyph-name="cedilla" unicode="&#xb8;" horiz-adv-x="228" 
d="M45 7l19 -4l-13 -72q24 14 41.5 21.5t38.5 7.5q33 0 55 -17t22 -46q0 -20 -10.5 -34.5t-28.5 -24t-41.5 -14.5t-48.5 -5q-32 0 -48.5 3.5t-16.5 16.5q0 7 10.5 14.5t50.5 7.5q32 0 49 5t17 25q0 14 -12 19t-19 5q-14 0 -25.5 -4.5t-22 -9.5t-21 -9.5t-22.5 -4.5
q-17 0 -23 8.5t-6 16.5q0 3 1 8t2 9q5 21 7.5 45t4.5 33h40z" />
    <glyph glyph-name="cent" unicode="&#xa2;" horiz-adv-x="492" 
d="M405 289q10 11 16.5 14.5t14.5 3.5q11 0 17.5 -7t6.5 -18q0 -6 -2 -13t-7 -12q-32 -40 -68 -65.5t-83 -33.5v-99q0 -16 -8 -26.5t-27 -10.5q-16 0 -25.5 11.5t-9.5 22.5v100q-48 4 -84.5 24t-61.5 50.5t-37.5 71t-12.5 85.5q0 48 14 90.5t40 76t62 56t81 29.5
q0 35 -0.5 70.5t-0.5 75.5q0 10 4 16t10 9.5t12 5t10 1.5q19 0 26.5 -16.5t7.5 -31.5v-66.5t-1 -61.5q30 -3 57 -12.5t46.5 -24.5t31 -34.5t11.5 -41.5q0 -12 -4 -25t-12 -23.5t-21.5 -17.5t-31.5 -7q-28 0 -39 15t-11 32q0 12 4.5 18.5t9.5 11t9.5 9t4.5 11.5q0 10 -12 20
t-43 12q0 -24 -0.5 -51t-0.5 -67.5v-99.5v-148q32 7 58 26t49 45zM230 217q0 18 0.5 38.5t0.5 59v100.5v163q-58 -17 -87 -68t-29 -124q0 -69 27 -113.5t88 -55.5z" />
    <glyph glyph-name="circumflex" unicode="&#x2c6;" horiz-adv-x="315" 
d="M277 510q-5 0 -18 7.5l-30 18l-36 23t-36 22.5q-17 -10 -36 -22.5l-35.5 -23t-29.5 -18t-18 -7.5q-11 0 -11 13q0 16 17.5 38.5t40 43.5t43.5 35.5t29 14.5q9 0 30.5 -15t44 -35.5t39.5 -42.5t17 -35q0 -7 -2.5 -12t-8.5 -5z" />
    <glyph glyph-name="colon" unicode=":" horiz-adv-x="233" 
d="M58 0zM58 35q0 9 3 18.5t10 17.5t18.5 13.5t27.5 5.5q30 0 44 -17t14 -36q0 -21 -15.5 -38t-44.5 -17q-31 0 -44 17.5t-13 35.5zM58 338q0 9 3 18.5t10 17.5t18.5 13.5t27.5 5.5q30 0 44 -17t14 -36q0 -21 -15.5 -38t-44.5 -17q-31 0 -44 17.5t-13 35.5z" />
    <glyph glyph-name="comma" unicode="," horiz-adv-x="202" 
d="M46 36q0 18 12 33.5t40 15.5q20 0 38.5 -16t18.5 -56q0 -23 -7 -42t-17.5 -32.5t-21.5 -21.5t-19 -8q-5 0 -13 3t-8 16q0 9 6.5 21.5t6.5 38.5q0 6 -5.5 10t-12.5 8.5t-12.5 11t-5.5 18.5z" />
    <glyph glyph-name="copyright" unicode="&#xa9;" horiz-adv-x="691" 
d="M647 251q0 -80 -29.5 -140t-76 -99.5t-102.5 -59t-110 -19.5q-59 0 -111 22.5t-91 64t-61.5 98.5t-22.5 126q0 68 22.5 125.5t63.5 99.5t97.5 65.5t125.5 23.5q70 0 125 -24.5t93 -66.5t57.5 -97.5t19.5 -118.5zM584 252q0 50 -15 94t-44.5 77t-73.5 52t-101 19
q-56 0 -100.5 -18.5t-76 -51.5t-48 -79t-16.5 -101q0 -56 16.5 -101.5t46 -78.5t70.5 -51t89 -18q43 0 88 15.5t82 47.5t60 80.5t23 113.5zM424 376q-1 8 -1.5 19t-0.5 21q0 8 7.5 15.5t23.5 7.5q17 0 25.5 -7t8.5 -15q0 -10 -0.5 -30t-0.5 -40.5v-37v-19.5q0 -5 -7 -13
t-27 -8q-14 0 -21 5.5t-9 14.5q-7 26 -22.5 46t-50.5 20q-51 0 -78.5 -32.5t-27.5 -86.5q0 -57 29 -84.5t75 -27.5q7 0 17 1t21.5 4.5t23.5 11t23 20.5q8 10 14.5 15.5t18.5 5.5q14 0 20 -7t6 -16t-5 -17q-23 -33 -60 -55t-91 -22q-40 0 -70.5 13t-51.5 35.5t-31.5 52.5
t-10.5 65q0 39 12.5 72.5t35 58t53 39t66.5 14.5q21 0 45.5 -7.5t40.5 -31.5z" />
    <glyph glyph-name="currency" unicode="&#xa4;" horiz-adv-x="560" 
d="M283 561q69 0 116 -41q12 13 17.5 18.5t7.5 8.5q14 17 23.5 24.5t19.5 7.5q14 0 21 -9.5t7 -20.5q0 -5 -6.5 -14t-15.5 -19.5t-19.5 -21t-19.5 -18.5q22 -41 22 -93q0 -31 -7.5 -55.5t-20.5 -44.5l19.5 -19t22 -22.5t18 -21.5t7.5 -15q0 -11 -8.5 -20.5t-19.5 -9.5
q-10 0 -20 7.5t-23 24.5q-5 3 -10.5 10t-21.5 25q-29 -24 -62.5 -34.5t-59.5 -10.5q-30 0 -58.5 8.5t-52.5 26.5q-11 -12 -16 -17t-7 -8q-14 -17 -23.5 -24.5t-19.5 -7.5q-14 0 -21 9.5t-7 20.5q0 4 5.5 12.5t14 18l18.5 20t19 18.5q-12 20 -19 46.5t-7 58.5q0 59 26 100
l-19 19t-18.5 19.5t-14 18t-5.5 13.5q0 11 7 20.5t21 9.5q10 0 19.5 -7.5t23.5 -24.5q2 -3 7 -8t16 -17q51 39 124 39zM273 502q-18 0 -36.5 -7.5t-33.5 -23t-24.5 -38.5t-9.5 -54q0 -32 10 -55t25.5 -38t33.5 -22t34 -7q18 0 37.5 7t36 22t27 38.5t10.5 57.5
q0 55 -29.5 87.5t-80.5 32.5z" />
    <glyph glyph-name="d" unicode="d" horiz-adv-x="548" 
d="M465 57q0 -20 6.5 -23t30.5 -3q43 0 58 -7t15 -26q0 -12 -10.5 -20t-28.5 -8h-45.5t-31 0.5t-19.5 1t-12 0.5q-21 2 -28.5 17t-8.5 40l-2 54q-23 -45 -69 -68.5t-100 -23.5q-52 0 -88.5 22t-59 55.5t-32.5 73.5t-10 76q0 18 3 44.5t11.5 55.5t23.5 57.5t38.5 51
t57.5 36.5t80 14q30 0 53.5 -5.5t42 -14.5t31.5 -20t21 -21v310q0 19 -11.5 23.5t-28.5 4.5q-25 0 -47 -1t-60 -1q-10 0 -20 3.5t-10 10.5q0 26 42 34.5t131 8.5q38 0 57.5 -5t19.5 -33v-55.5t-0.5 -84l-1 -96.5t-1 -93t-0.5 -75v-42q0 -16 0.5 -86.5t2.5 -181.5zM250 51
q39 0 66.5 22t45 52.5t25.5 64.5t8 58q0 20 -2 40.5t-9 45.5q-6 14 -15 29t-23.5 27t-36 20t-51.5 8q-37 0 -66 -16.5t-48.5 -43.5t-30 -62.5t-10.5 -73.5q0 -44 12.5 -76.5t33.5 -53.5t47.5 -31t53.5 -10z" />
    <glyph glyph-name="dagger" unicode="&#x2020;" horiz-adv-x="342" 
d="M288 460q4 0 12.5 -7t8.5 -21q0 -16 -9 -24.5t-20 -8.5h-76v-99.5v-94t0.5 -94t1.5 -99.5q0 -10 -9 -18t-26 -8q-14 0 -24.5 8.5t-10.5 14.5v99.5t0.5 94.5t0.5 94.5v100.5h-78q-7 0 -16.5 8.5t-9.5 22.5q0 13 9 21.5t17 8.5q11 0 34 -1t44 -1v92v87t-0.5 87.5t-0.5 94.5
q0 14 11 21.5t25 7.5q19 0 26.5 -16.5t7.5 -28.5q0 -48 -0.5 -91t-0.5 -84t-0.5 -82.5t-0.5 -87.5q26 0 46.5 1.5t37.5 1.5z" />
    <glyph glyph-name="daggerdbl" unicode="&#x2021;" horiz-adv-x="342" 
d="M288 349q4 0 12.5 -8.5t8.5 -19.5q0 -8 -9 -20.5t-20 -12.5q-14 0 -34 -0.5t-42 -0.5v-140.5t2 -144.5q0 -10 -9 -18.5t-26 -8.5q-14 0 -24.5 9t-10.5 15v146t1 142h-78q-7 0 -16.5 10t-9.5 21t9 20.5t17 9.5q11 0 34 -1t44 -1v109h-78q-7 0 -16.5 10t-9.5 21t9 20.5
t17 9.5q11 0 34 -1t44 -1v148t-1 156q0 14 10.5 23t25.5 9q9 0 15.5 -5.5t10.5 -13t6 -15.5t2 -14q0 -80 -1 -147.5t-1 -140.5q26 0 46.5 1.5t37.5 1.5q4 0 12.5 -8.5t8.5 -19.5q0 -8 -9 -20.5t-20 -12.5q-14 0 -34 -0.5t-42 -0.5v-109q26 0 46.5 1.5t37.5 1.5z" />
    <glyph glyph-name="dcaron" unicode="&#x10f;" horiz-adv-x="548" 
d="M30 0zM465 57q0 -20 6.5 -23t30.5 -3q43 0 58 -7t15 -26q0 -12 -10.5 -20t-28.5 -8h-45.5t-31 0.5t-19.5 1t-12 0.5q-21 2 -28.5 17t-8.5 40l-2 54q-23 -45 -69 -68.5t-100 -23.5q-52 0 -88.5 22t-59 55.5t-32.5 73.5t-10 76q0 18 3 44.5t11.5 55.5t23.5 57.5t38.5 51
t57.5 36.5t80 14q30 0 53.5 -5.5t42 -14.5t31.5 -20t21 -21v310q0 19 -11.5 23.5t-28.5 4.5q-25 0 -47 -1t-60 -1q-10 0 -20 3.5t-10 10.5q0 26 42 34.5t131 8.5q38 0 57.5 -5t19.5 -33v-55.5t-0.5 -84l-1 -96.5t-1 -93t-0.5 -75v-42q0 -16 0.5 -86.5t2.5 -181.5zM250 51
q39 0 66.5 22t45 52.5t25.5 64.5t8 58q0 20 -2 40.5t-9 45.5q-6 14 -15 29t-23.5 27t-36 20t-51.5 8q-37 0 -66 -16.5t-48.5 -43.5t-30 -62.5t-10.5 -73.5q0 -44 12.5 -76.5t33.5 -53.5t47.5 -31t53.5 -10zM513 801q0 18 12 33.5t40 15.5q20 0 38.5 -16t18.5 -56
q0 -23 -7 -42t-17.5 -32.5t-21.5 -21.5t-19 -8q-5 0 -13 3t-8 16q0 9 6.5 21.5t6.5 38.5q0 6 -5.5 10t-12.5 8.5t-12.5 11t-5.5 18.5z" />
    <glyph glyph-name="dcroat" unicode="&#x111;" horiz-adv-x="548" 
d="M542 628q8 0 14.5 -9.5t6.5 -20.5q0 -8 -6 -21.5t-23 -13.5h-53.5t-69.5 -0.5t-68 -0.5h-50q-11 0 -18.5 11.5t-7.5 21.5t6 21t20 11q7 0 22 -0.5t33 -0.5t35.5 -0.5t30.5 -0.5q42 0 73 1.5t55 1.5zM465 57q0 -20 6.5 -23t30.5 -3q43 0 58 -7t15 -26q0 -12 -10.5 -20
t-28.5 -8h-45.5t-31 0.5t-19.5 1t-12 0.5q-21 2 -28.5 17t-8.5 40l-2 54q-23 -45 -69 -68.5t-100 -23.5q-52 0 -88.5 22t-59 55.5t-32.5 73.5t-10 76q0 18 3 44.5t11.5 55.5t23.5 57.5t38.5 51t57.5 36.5t80 14q30 0 53.5 -5.5t42 -14.5t31.5 -20t21 -21v310
q0 19 -11.5 23.5t-28.5 4.5q-25 0 -47 -1t-60 -1q-10 0 -20 3.5t-10 10.5q0 26 42 34.5t131 8.5q38 0 57.5 -5t19.5 -33v-55.5t-0.5 -84l-1 -96.5t-1 -93t-0.5 -75v-42q0 -16 0.5 -86.5t2.5 -181.5zM250 51q39 0 66.5 22t45 52.5t25.5 64.5t8 58q0 20 -2 40.5t-9 45.5
q-6 14 -15 29t-23.5 27t-36 20t-51.5 8q-37 0 -66 -16.5t-48.5 -43.5t-30 -62.5t-10.5 -73.5q0 -44 12.5 -76.5t33.5 -53.5t47.5 -31t53.5 -10z" />
    <glyph glyph-name="degree" unicode="&#xb0;" horiz-adv-x="246" 
d="M215 754q0 -22 -8.5 -38t-22 -26.5t-30.5 -15.5t-35 -5q-36 0 -61 20.5t-25 62.5q0 36 23 60.5t70 24.5q48 0 68.5 -25t20.5 -58zM125 794q-17 0 -26 -12t-9 -30t8.5 -30t25.5 -12q18 0 26 11.5t8 31.5q0 16 -8 28.5t-25 12.5z" />
    <glyph glyph-name="dieresis" unicode="&#xa8;" horiz-adv-x="342" 
d="M15 575q0 7 3 16.5t10 18.5t17.5 15t25.5 6q20 0 34.5 -14.5t14.5 -37.5q0 -36 -18.5 -48.5t-37.5 -12.5q-20 0 -34.5 16t-14.5 41zM222 552q0 7 3 16.5t10 18.5t17.5 15t25.5 6q20 0 34.5 -14.5t14.5 -37.5q0 -36 -18.5 -48.5t-37.5 -12.5q-20 0 -34.5 16t-14.5 41z" />
    <glyph glyph-name="divide" unicode="&#xf7;" horiz-adv-x="385" 
d="M34 188zM135 241q0 9 3 18.5t10 17.5t18.5 13.5t27.5 5.5q30 0 44 -17t14 -36q0 -21 -15.5 -38t-44.5 -17q-31 0 -44 17.5t-13 35.5zM135 573q0 9 3 18.5t10 17.5t18.5 13.5t27.5 5.5q30 0 44 -17t14 -36q0 -21 -15.5 -38t-44.5 -17q-31 0 -44 17.5t-13 35.5zM333 445
q4 0 12.5 -6t8.5 -24q0 -16 -9 -25t-20 -9q-22 0 -59.5 -0.5t-77.5 -1.5t-75 -2t-53 -1q-7 0 -16.5 7.5t-9.5 24.5t9 24.5t17 7.5h141q42 0 75 2t57 3z" />
    <glyph glyph-name="dollar" unicode="$" horiz-adv-x="619" 
d="M342 786q60 -8 103.5 -47.5t70.5 -116.5l-6 93.5t-2 31.5q0 12 6.5 23.5t27.5 11.5q12 0 19 -4t10.5 -9t4.5 -11t1 -9q0 -35 -2 -72.5t-2 -73.5q0 -32 1 -60t1 -60q0 -14 -9 -24t-27 -10q-20 0 -27 18.5t-7 40.5q-3 43 -18.5 80.5t-38 66t-50.5 47t-56 24.5
q-1 -95 -1.5 -194.5t-0.5 -189.5q36 -15 74.5 -34.5t69.5 -44t51 -54.5t20 -67q0 -40 -20 -69t-51 -48t-69 -29t-74 -13q0 -8 0.5 -16t0.5 -16q0 -16 -9 -21.5t-26 -5.5q-14 0 -24.5 6.5t-10.5 17.5v35q-49 5 -94.5 27.5t-68.5 71.5q0 -21 1 -38l2 -38q0 -12 -8 -23.5
t-26 -11.5q-17 0 -26 13t-9 20q0 6 0.5 18t1.5 27t1.5 30t0.5 26q0 16 -0.5 27t-0.5 21.5t-0.5 21.5t-0.5 27q0 14 6 29t28 15q13 0 20 -6.5t11 -17t5 -22.5t1 -23q0 -23 10 -45.5t30 -41t49 -31.5t67 -17q0 64 0.5 126t0.5 128l-31 15q-32 15 -65.5 33.5t-61 47t-45 71.5
t-17.5 108q0 50 18.5 88t49.5 64.5t70.5 42t80.5 20.5v33q0 10 4 16t10 9.5t12 5t10 1.5q19 0 26.5 -16.5t7.5 -31.5v-17zM124 562q0 -45 11 -75.5t29.5 -51t42 -33.5t47.5 -24q4 -2 9 -4l10 -4v174.5t-1 179.5q-64 -11 -106 -52t-42 -110zM484 142q0 21 -12 38.5t-32 33
t-46 29t-54 25.5v-225q30 3 56 12t45.5 21.5t31 29t11.5 36.5z" />
    <glyph glyph-name="dotaccent" unicode="&#x2d9;" horiz-adv-x="135" 
d="M15 580q0 8 3 18t10 18.5t17.5 14t25.5 5.5q20 0 34.5 -14.5t14.5 -37.5q0 -36 -18.5 -48.5t-37.5 -12.5q-20 0 -34.5 15t-14.5 42z" />
    <glyph glyph-name="dotlessi" unicode="&#x131;" horiz-adv-x="290" 
d="M196 48h47q58 0 58 -25q0 -15 -14.5 -19t-25.5 -4h-159q-12 0 -26 0.5t-25.5 2.5t-19.5 6.5t-8 12.5q0 10 20.5 14.5t53.5 9.5q14 2 19 6t6 15q3 34 3.5 74t0.5 72q0 41 -1 78.5t-3 77.5q-1 6 -4 11.5t-11 5.5q-4 0 -14 -1t-20.5 -1.5t-20 -1.5t-13.5 -1t-10.5 0.5
t-12.5 2t-10.5 5.5t-4.5 10q0 19 19 24t54 8q13 1 28 2t29.5 1.5t26.5 1t20 0.5q12 0 15 -9.5t3 -25.5v-353z" />
    <glyph glyph-name="dotlessj" unicode="&#x237;" horiz-adv-x="263" 
d="M4 -79q0 -20 -10 -31.5t-30 -13.5q-16 -2 -16 -19q0 -7 13 -17.5t52 -10.5q51 0 79 33.5t36 97.5q3 26 4.5 71t2.5 93t1 90.5v63.5v90q0 16 -6 18.5t-19 2.5h-90q-38 0 -38 20q0 10 10 16t33.5 9.5t61 4.5t92.5 1q16 0 19.5 -9.5t3.5 -28.5v-33.5t-0.5 -62t-1 -75.5
t-1 -75.5t-0.5 -61.5v-33q0 -10 -0.5 -24t-1.5 -29t-2 -28.5t-2 -23.5q-7 -54 -25 -90.5t-43 -58t-54.5 -31t-60.5 -9.5q-33 0 -56.5 10.5t-38.5 26.5t-22 36t-7 40q0 41 20.5 61.5t45.5 20.5q19 0 35 -10t16 -31z" />
    <glyph glyph-name="e" unicode="e" horiz-adv-x="491" 
d="M364 303q17 0 17 8q0 15 -8 33.5t-23.5 34t-39.5 26t-56 10.5q-31 0 -56 -10.5t-43 -27t-29 -37t-15 -41.5zM107 239q-1 -5 -1.5 -10.5t-0.5 -10.5q0 -30 10 -60t29.5 -54t48 -38.5t65.5 -14.5q39 0 66 12t43.5 30.5t24 40t7.5 39.5q0 8 6.5 20t27.5 12q12 0 21 -8.5
t9 -23.5q0 -35 -10.5 -68.5t-35.5 -59.5t-68 -42t-107 -16q-52 0 -91.5 17.5t-66.5 49.5t-40.5 75.5t-13.5 96.5q0 58 16 105t46 79t72 49.5t93 17.5q55 0 93 -19.5t61 -47t33 -57t10 -49.5q0 -23 -11 -43t-31 -20q-31 0 -73.5 -0.5t-90.5 -0.5h-29t-40 -0.5t-40.5 -0.5
h-31.5z" />
    <glyph glyph-name="eacute" unicode="&#xe9;" horiz-adv-x="491" 
d="M345 633q0 -11 -17 -32.5t-39.5 -42.5t-45 -37t-33.5 -16q-8 0 -16.5 4t-8.5 14q0 2 5.5 14t14.5 28.5t21 35t24.5 34t24 26t21.5 10.5q23 0 36 -10.5t13 -27.5zM364 303q17 0 17 8q0 15 -8 33.5t-23.5 34t-39.5 26t-56 10.5q-31 0 -56 -10.5t-43 -27t-29 -37t-15 -41.5z
M107 239q-1 -5 -1.5 -10.5t-0.5 -10.5q0 -30 10 -60t29.5 -54t48 -38.5t65.5 -14.5q39 0 66 12t43.5 30.5t24 40t7.5 39.5q0 8 6.5 20t27.5 12q12 0 21 -8.5t9 -23.5q0 -35 -10.5 -68.5t-35.5 -59.5t-68 -42t-107 -16q-52 0 -91.5 17.5t-66.5 49.5t-40.5 75.5t-13.5 96.5
q0 58 16 105t46 79t72 49.5t93 17.5q55 0 93 -19.5t61 -47t33 -57t10 -49.5q0 -23 -11 -43t-31 -20q-31 0 -73.5 -0.5t-90.5 -0.5h-29t-40 -0.5t-40.5 -0.5h-31.5z" />
    <glyph glyph-name="ebreve" unicode="&#x115;" horiz-adv-x="491" 
d="M30 0zM364 303q17 0 17 8q0 15 -8 33.5t-23.5 34t-39.5 26t-56 10.5q-31 0 -56 -10.5t-43 -27t-29 -37t-15 -41.5zM107 239q-1 -5 -1.5 -10.5t-0.5 -10.5q0 -30 10 -60t29.5 -54t48 -38.5t65.5 -14.5q39 0 66 12t43.5 30.5t24 40t7.5 39.5q0 8 6.5 20t27.5 12
q12 0 21 -8.5t9 -23.5q0 -35 -10.5 -68.5t-35.5 -59.5t-68 -42t-107 -16q-52 0 -91.5 17.5t-66.5 49.5t-40.5 75.5t-13.5 96.5q0 58 16 105t46 79t72 49.5t93 17.5q55 0 93 -19.5t61 -47t33 -57t10 -49.5q0 -23 -11 -43t-31 -20q-31 0 -73.5 -0.5t-90.5 -0.5h-29t-40 -0.5
t-40.5 -0.5h-31.5zM374 589q0 -19 -11 -34t-28 -25t-38 -15t-40 -5q-57 0 -89.5 24t-32.5 55q0 28 26 28q14 0 21 -6t7 -21q0 -10 6 -16.5t15.5 -10.5t21 -6t22.5 -2q29 0 46.5 11t17.5 24q0 11 7.5 19t18.5 8q10 0 20 -4t10 -24z" />
    <glyph glyph-name="ecaron" unicode="&#x11b;" horiz-adv-x="491" 
d="M30 0zM364 303q17 0 17 8q0 15 -8 33.5t-23.5 34t-39.5 26t-56 10.5q-31 0 -56 -10.5t-43 -27t-29 -37t-15 -41.5zM107 239q-1 -5 -1.5 -10.5t-0.5 -10.5q0 -30 10 -60t29.5 -54t48 -38.5t65.5 -14.5q39 0 66 12t43.5 30.5t24 40t7.5 39.5q0 8 6.5 20t27.5 12
q12 0 21 -8.5t9 -23.5q0 -35 -10.5 -68.5t-35.5 -59.5t-68 -42t-107 -16q-52 0 -91.5 17.5t-66.5 49.5t-40.5 75.5t-13.5 96.5q0 58 16 105t46 79t72 49.5t93 17.5q55 0 93 -19.5t61 -47t33 -57t10 -49.5q0 -23 -11 -43t-31 -20q-31 0 -73.5 -0.5t-90.5 -0.5h-29t-40 -0.5
t-40.5 -0.5h-31.5zM370 640.031q-5 0 -18 -7.5l-30 -17.998l-36 -22.999t-36 -22.499q-17 10 -36 22.499l-35.5 22.999q-16.5 10.499 -29.5 17.998q-13 7.5 -18 7.5q-11 0 -11 -12.999q0 -15.999 17.5 -38.498t40 -43.4971q22.5 -20.999 43.5 -35.498t29 -14.499
q9 0 30.5 14.999t44 35.498q22.5 20.498 39.5 42.4971t17 34.998q0 6.99902 -2.5 11.999t-8.5 5z" />
    <glyph glyph-name="ecircumflex" unicode="&#xea;" horiz-adv-x="491" 
d="M30 0zM364 303q17 0 17 8q0 15 -8 33.5t-23.5 34t-39.5 26t-56 10.5q-31 0 -56 -10.5t-43 -27t-29 -37t-15 -41.5zM107 239q-1 -5 -1.5 -10.5t-0.5 -10.5q0 -30 10 -60t29.5 -54t48 -38.5t65.5 -14.5q39 0 66 12t43.5 30.5t24 40t7.5 39.5q0 8 6.5 20t27.5 12
q12 0 21 -8.5t9 -23.5q0 -35 -10.5 -68.5t-35.5 -59.5t-68 -42t-107 -16q-52 0 -91.5 17.5t-66.5 49.5t-40.5 75.5t-13.5 96.5q0 58 16 105t46 79t72 49.5t93 17.5q55 0 93 -19.5t61 -47t33 -57t10 -49.5q0 -23 -11 -43t-31 -20q-31 0 -73.5 -0.5t-90.5 -0.5h-29t-40 -0.5
t-40.5 -0.5h-31.5zM369 510q-5 0 -18 7.5l-30 18l-36 23t-36 22.5q-17 -10 -36 -22.5l-35.5 -23t-29.5 -18t-18 -7.5q-11 0 -11 13q0 16 17.5 38.5t40 43.5t43.5 35.5t29 14.5q9 0 30.5 -15t44 -35.5t39.5 -42.5t17 -35q0 -7 -2.5 -12t-8.5 -5z" />
    <glyph glyph-name="edieresis" unicode="&#xeb;" horiz-adv-x="491" 
d="M30 0zM364 303q17 0 17 8q0 15 -8 33.5t-23.5 34t-39.5 26t-56 10.5q-31 0 -56 -10.5t-43 -27t-29 -37t-15 -41.5zM107 239q-1 -5 -1.5 -10.5t-0.5 -10.5q0 -30 10 -60t29.5 -54t48 -38.5t65.5 -14.5q39 0 66 12t43.5 30.5t24 40t7.5 39.5q0 8 6.5 20t27.5 12
q12 0 21 -8.5t9 -23.5q0 -35 -10.5 -68.5t-35.5 -59.5t-68 -42t-107 -16q-52 0 -91.5 17.5t-66.5 49.5t-40.5 75.5t-13.5 96.5q0 58 16 105t46 79t72 49.5t93 17.5q55 0 93 -19.5t61 -47t33 -57t10 -49.5q0 -23 -11 -43t-31 -20q-31 0 -73.5 -0.5t-90.5 -0.5h-29t-40 -0.5
t-40.5 -0.5h-31.5zM96 584q0 7 3 16.5t10 18.5t17.5 15t25.5 6q20 0 34.5 -14.5t14.5 -37.5q0 -36 -18.5 -48.5t-37.5 -12.5q-20 0 -34.5 16t-14.5 41zM303 561q0 7 3 16.5t10 18.5t17.5 15t25.5 6q20 0 34.5 -14.5t14.5 -37.5q0 -36 -18.5 -48.5t-37.5 -12.5
q-20 0 -34.5 16t-14.5 41z" />
    <glyph glyph-name="edotaccent" unicode="&#x117;" horiz-adv-x="491" 
d="M30 0zM364 303q17 0 17 8q0 15 -8 33.5t-23.5 34t-39.5 26t-56 10.5q-31 0 -56 -10.5t-43 -27t-29 -37t-15 -41.5zM107 239q-1 -5 -1.5 -10.5t-0.5 -10.5q0 -30 10 -60t29.5 -54t48 -38.5t65.5 -14.5q39 0 66 12t43.5 30.5t24 40t7.5 39.5q0 8 6.5 20t27.5 12
q12 0 21 -8.5t9 -23.5q0 -35 -10.5 -68.5t-35.5 -59.5t-68 -42t-107 -16q-52 0 -91.5 17.5t-66.5 49.5t-40.5 75.5t-13.5 96.5q0 58 16 105t46 79t72 49.5t93 17.5q55 0 93 -19.5t61 -47t33 -57t10 -49.5q0 -23 -11 -43t-31 -20q-31 0 -73.5 -0.5t-90.5 -0.5h-29t-40 -0.5
t-40.5 -0.5h-31.5zM202 584q0 8 3 18t10 18.5t17.5 14t25.5 5.5q20 0 34.5 -14.5t14.5 -37.5q0 -36 -18.5 -48.5t-37.5 -12.5q-20 0 -34.5 15t-14.5 42z" />
    <glyph glyph-name="egrave" unicode="&#xe8;" horiz-adv-x="491" 
d="M181 632q0 17 13 27.5t36 10.5q9 0 21 -10.5t24.5 -26t24 -34l21 -35t15 -28.5t5.5 -14q0 -10 -8.5 -14t-16.5 -4q-11 0 -33.5 16t-45 37t-39.5 42.5t-17 32.5zM364 303q17 0 17 8q0 15 -8 33.5t-23.5 34t-39.5 26t-56 10.5q-31 0 -56 -10.5t-43 -27t-29 -37t-15 -41.5z
M107 239q-1 -5 -1.5 -10.5t-0.5 -10.5q0 -30 10 -60t29.5 -54t48 -38.5t65.5 -14.5q39 0 66 12t43.5 30.5t24 40t7.5 39.5q0 8 6.5 20t27.5 12q12 0 21 -8.5t9 -23.5q0 -35 -10.5 -68.5t-35.5 -59.5t-68 -42t-107 -16q-52 0 -91.5 17.5t-66.5 49.5t-40.5 75.5t-13.5 96.5
q0 58 16 105t46 79t72 49.5t93 17.5q55 0 93 -19.5t61 -47t33 -57t10 -49.5q0 -23 -11 -43t-31 -20q-31 0 -73.5 -0.5t-90.5 -0.5h-29t-40 -0.5t-40.5 -0.5h-31.5z" />
    <glyph glyph-name="eight" unicode="8" horiz-adv-x="561" 
d="M37 191q0 50 16 88.5t39.5 66t50.5 45t48 25.5q-23 10 -46.5 28t-42.5 43t-31 57.5t-12 70.5q0 42 15.5 81.5t44.5 69.5t71.5 48t95.5 18q55 0 97 -19t70 -49t42 -67.5t14 -74.5q0 -42 -16 -77t-39.5 -62t-50 -44t-47.5 -23q28 -6 57.5 -24t53.5 -45.5t39.5 -64
t15.5 -78.5q0 -45 -18 -85.5t-51 -71.5t-80 -49t-104 -18q-47 0 -89 13t-74 39t-50.5 66t-18.5 93zM112 203q0 -33 10.5 -62t31 -51.5t50 -35.5t68.5 -13q34 0 65.5 11t55.5 32.5t38 52t14 69.5q0 41 -15 73t-39 53.5t-53.5 33t-58.5 11.5q-30 0 -60 -12t-54 -34.5
t-38.5 -55t-14.5 -72.5zM134 610q0 -39 14 -68.5t35.5 -49t48 -29t51.5 -9.5q29 0 56.5 12.5t48.5 35t33.5 53t12.5 66.5q0 28 -8.5 55t-26.5 48t-46 34t-67 13q-42 0 -71 -15t-47 -38.5t-26 -52t-8 -55.5z" />
    <glyph glyph-name="eightinferior" unicode="&#x2088;" horiz-adv-x="274" 
d="M27 0zM27 72q0 19 6.5 34.5t16.5 27t22 18.5t23 10q-11 2 -21 9.5t-18.5 18t-13.5 24t-5 28.5q0 34 25.5 60t75.5 26q25 0 44 -7.5t32 -19.5t20 -26.5t7 -28.5q0 -18 -7 -32.5t-17.5 -25.5t-22 -18t-20.5 -8q32 -6 52 -30t20 -56q0 -34 -28 -60.5t-79 -26.5
q-46 0 -79 20.5t-33 62.5zM84 79q0 -23 15.5 -35t37.5 -12q24 0 38 14t14 33q0 22 -13.5 37.5t-38.5 15.5q-17 0 -35 -12.5t-18 -40.5zM93 236q0 -13 5 -21.5t12 -13t15 -6.5t13 -2q22 0 34 14t12 29q0 26 -14 36t-30 10q-19 0 -33 -11.5t-14 -34.5z" />
    <glyph glyph-name="eightsuperior" unicode="&#x2078;" horiz-adv-x="274" 
d="M27 579q0 19 6.5 34.5t16.5 27t22 18.5t23 10q-11 2 -21 9.5t-18.5 18t-13.5 24t-5 28.5q0 34 25.5 60t75.5 26q25 0 44 -7.5t32 -19.5t20 -26.5t7 -28.5q0 -18 -7 -32.5t-17.5 -25.5t-22 -18t-20.5 -8q32 -6 52 -30t20 -56q0 -34 -28 -60.5t-79 -26.5q-46 0 -79 20.5
t-33 62.5zM84 586q0 -23 15.5 -35t37.5 -12q24 0 38 14t14 33q0 22 -13.5 37.5t-38.5 15.5q-17 0 -35 -12.5t-18 -40.5zM93 743q0 -13 5 -21.5t12 -13t15 -6.5t13 -2q22 0 34 14t12 29q0 26 -14 36t-30 10q-19 0 -33 -11.5t-14 -34.5z" />
    <glyph glyph-name="ellipsis" unicode="&#x2026;" horiz-adv-x="557" 
d="M46 0zM46 34q0 9 3 18.5t10 17.5t18.5 13.5t27.5 5.5q30 0 44 -17t14 -36q0 -21 -15.5 -38t-44.5 -17q-31 0 -44 17.5t-13 35.5zM222 34q0 9 3 18.5t10 17.5t18.5 13.5t27.5 5.5q30 0 44 -17t14 -36q0 -21 -15.5 -38t-44.5 -17q-31 0 -44 17.5t-13 35.5zM394 34
q0 9 3 18.5t10 17.5t18.5 13.5t27.5 5.5q30 0 44 -17t14 -36q0 -21 -15.5 -38t-44.5 -17q-31 0 -44 17.5t-13 35.5z" />
    <glyph glyph-name="emacron" unicode="&#x113;" horiz-adv-x="491" 
d="M30 0zM364 303q17 0 17 8q0 15 -8 33.5t-23.5 34t-39.5 26t-56 10.5q-31 0 -56 -10.5t-43 -27t-29 -37t-15 -41.5zM107 239q-1 -5 -1.5 -10.5t-0.5 -10.5q0 -30 10 -60t29.5 -54t48 -38.5t65.5 -14.5q39 0 66 12t43.5 30.5t24 40t7.5 39.5q0 8 6.5 20t27.5 12
q12 0 21 -8.5t9 -23.5q0 -35 -10.5 -68.5t-35.5 -59.5t-68 -42t-107 -16q-52 0 -91.5 17.5t-66.5 49.5t-40.5 75.5t-13.5 96.5q0 58 16 105t46 79t72 49.5t93 17.5q55 0 93 -19.5t61 -47t33 -57t10 -49.5q0 -23 -11 -43t-31 -20q-31 0 -73.5 -0.5t-90.5 -0.5h-29t-40 -0.5
t-40.5 -0.5h-31.5zM391 602q8 0 14.5 -8.5t6.5 -19.5q0 -8 -6 -20.5t-23 -12.5h-53.5t-69.5 -0.5t-68 -0.5h-50q-11 0 -18.5 10t-7.5 21t6 20.5t20 9.5q7 0 22 -0.5t33 -0.5t35.5 -0.5t30.5 -0.5q42 0 73 1.5t55 1.5z" />
    <glyph glyph-name="emdash" unicode="&#x2014;" horiz-adv-x="729" 
d="M649 300q8 0 14.5 -8.5t6.5 -19.5q0 -8 -6 -20.5t-23 -12.5h-56h-101t-123 -0.5t-122 -0.5h-99h-54q-11 0 -18.5 10t-7.5 21t6 20.5t20 9.5h25t48.5 -0.5t61 -0.5t62 -0.5t52 -0.5h31.5q21 0 63 0.5l87 1t83 1t50 0.5z" />
    <glyph glyph-name="endash" unicode="&#x2013;" horiz-adv-x="496" 
d="M413 300q9 0 17 -8.5t8 -19.5q0 -8 -7.5 -20.5t-29.5 -12.5h-70.5t-87.5 -0.5t-86 -0.5h-66q-13 0 -22.5 10t-9.5 21t7.5 20.5t24.5 9.5q10 0 27 -0.5t36.5 -0.5t40 -0.5t38.5 -0.5q58 0 102 1.5t78 1.5z" />
    <glyph glyph-name="eng" unicode="&#x14b;" horiz-adv-x="567" 
d="M511 -1q0 -112 -39 -175t-117 -63q-21 0 -42 6.5t-37.5 19.5t-27 32.5t-10.5 45.5q0 21 6.5 40.5t18.5 34.5t30.5 24t42.5 9q18 0 34 -10t16 -33q0 -22 -12 -32t-28 -10q-13 0 -22 5t-14 11q-8 -5 -10 -17.5t-2 -19.5q0 -20 16 -33.5t38 -13.5q26 0 43.5 10.5t27.5 32.5
t14 56.5t4 81.5v162q0 49 -3.5 91.5t-14.5 73.5t-30.5 49t-51.5 18q-42 0 -74.5 -28.5t-49.5 -66.5q-11 -23 -16.5 -53.5t-5.5 -60.5v-112h67q17 0 28 -6t11 -26q0 -17 -9.5 -22t-29.5 -5h-30.5t-58.5 -0.5t-59.5 -0.5h-32.5q-16 0 -29.5 4t-13.5 23q0 18 12.5 24t24.5 6h20
q9 0 14.5 5.5t8.5 14t4 17.5t1 17q0 17 1 54.5l2 77.5t1.5 72t0.5 38q0 33 -17 33h-52q-10 0 -21.5 0.5t-21 2t-16 5t-6.5 9.5q0 10 7.5 16.5t26.5 10.5t50.5 5.5t79.5 1.5q26 0 32 -6t7 -26l3 -62q22 47 66 72.5t94 25.5q22 0 48.5 -7.5t49.5 -29t38 -59.5t15 -99v-261z
" />
    <glyph glyph-name="eogonek" unicode="&#x119;" horiz-adv-x="491" 
d="M30 0zM364 303q17 0 17 8q0 15 -8 33.5t-23.5 34t-39.5 26t-56 10.5q-31 0 -56 -10.5t-43 -27t-29 -37t-15 -41.5zM107 239q-1 -5 -1.5 -10.5t-0.5 -10.5q0 -30 10 -60t29.5 -54t48 -38.5t65.5 -14.5q39 0 66 12t43.5 30.5t24 40t7.5 39.5q0 8 6.5 20t27.5 12
q12 0 21 -8.5t9 -23.5q0 -35 -10.5 -68.5t-35.5 -59.5t-68 -42t-107 -16q-52 0 -91.5 17.5t-66.5 49.5t-40.5 75.5t-13.5 96.5q0 58 16 105t46 79t72 49.5t93 17.5q55 0 93 -19.5t61 -47t33 -57t10 -49.5q0 -23 -11 -43t-31 -20q-31 0 -73.5 -0.5t-90.5 -0.5h-29t-40 -0.5
t-40.5 -0.5h-31.5zM292 -3q-18 -6 -29.5 -18.5t-18 -25.5t-9 -25.5t-2.5 -18.5q0 -12 9.5 -21.5t21.5 -9.5q25 0 33.5 8.5t16.5 15.5q7 6 13 6q11 0 16 -7t5 -15q0 -4 -5.5 -12.5t-16 -17t-24.5 -15t-32 -6.5q-44 0 -72.5 20.5t-28.5 52.5q0 23 11 39.5t25 27.5q16 13 37 23
z" />
    <glyph glyph-name="equal" unicode="=" horiz-adv-x="385" 
d="M310 316q8 0 14.5 -8.5t6.5 -19.5q0 -8 -6 -20.5t-23 -12.5h-50.5t-62.5 -0.5t-61 -0.5h-47q-11 0 -18.5 10t-7.5 21t6 20.5t20 9.5q7 0 19 -0.5t26 -0.5t28.5 -0.5t27.5 -0.5q42 0 73 1.5t55 1.5zM310 484q8 0 14.5 -8.5t6.5 -19.5q0 -8 -6 -20.5t-23 -12.5h-50.5
t-62.5 -0.5t-61 -0.5h-47q-11 0 -18.5 10t-7.5 21t6 20.5t20 9.5q7 0 19 -0.5t26 -0.5t28.5 -0.5t27.5 -0.5q42 0 73 1.5t55 1.5z" />
    <glyph glyph-name="eth" unicode="&#xf0;" horiz-adv-x="561" 
d="M455 747q12 0 19.5 -7.5t7.5 -18.5q0 -10 -5 -17t-10 -10q-13 -7 -32.5 -18.5l-42.5 -24.5q8 -14 12.5 -20.5t12.5 -21.5q47 -84 78 -183.5t31 -205.5q0 -35 -9 -76.5t-36 -77.5t-76 -60.5t-129 -24.5q-68 0 -115.5 23t-76.5 59t-42 80.5t-13 86.5q0 59 20.5 103.5
t53.5 74t75.5 44.5t86.5 15q23 0 48.5 -4.5t50 -15t47.5 -28t41 -43.5q-4 16 -13.5 43.5t-23 60.5t-32 69.5t-40.5 72.5q-8 -5 -23.5 -13l-31.5 -16l-29 -14t-16 -6q-10 0 -17.5 10t-7.5 19t7 15t14 10l75 40q-29 38 -62 66.5t-66 49.5q-14 8 -14 22q0 11 8.5 19t20.5 8
q11 0 22 -4t18 -9q14 -11 27 -22.5t27.5 -26t30.5 -32.5t35 -43l23 15t28.5 17l26 14t16.5 6zM275 42q53 0 87 16t54 41t28 54.5t8 55.5q0 43 -12.5 79t-35 62t-55 40.5t-71.5 14.5q-42 0 -74.5 -14.5t-54.5 -39t-33.5 -56.5t-11.5 -68q0 -51 15 -86.5t39 -57t54.5 -31.5
t62.5 -10z" />
    <glyph glyph-name="etilde" unicode="&#x1ebd;" horiz-adv-x="491" 
d="M30 0zM364 303q17 0 17 8q0 15 -8 33.5t-23.5 34t-39.5 26t-56 10.5q-31 0 -56 -10.5t-43 -27t-29 -37t-15 -41.5zM107 239q-1 -5 -1.5 -10.5t-0.5 -10.5q0 -30 10 -60t29.5 -54t48 -38.5t65.5 -14.5q39 0 66 12t43.5 30.5t24 40t7.5 39.5q0 8 6.5 20t27.5 12
q12 0 21 -8.5t9 -23.5q0 -35 -10.5 -68.5t-35.5 -59.5t-68 -42t-107 -16q-52 0 -91.5 17.5t-66.5 49.5t-40.5 75.5t-13.5 96.5q0 58 16 105t46 79t72 49.5t93 17.5q55 0 93 -19.5t61 -47t33 -57t10 -49.5q0 -23 -11 -43t-31 -20q-31 0 -73.5 -0.5t-90.5 -0.5h-29t-40 -0.5
t-40.5 -0.5h-31.5zM88 554q2 5 8 12t21 16q31 18 68 18q15 0 32.5 -4.5l35.5 -9.5t36 -9.5t33 -4.5q26 0 60 17q14 8 19.5 10.5t10.5 2.5t11.5 -8t6.5 -20q0 -10 -5 -19q-10 -17 -35 -31t-67 -14q-19 0 -37.5 3.5t-36 8l-33.5 8.5t-30 4q-15 0 -27.5 -4t-23 -8.5t-19 -8.5
t-14.5 -4q-8 0 -12.5 8.5t-4.5 19.5q0 9 3 17z" />
    <glyph glyph-name="exclam" unicode="!" horiz-adv-x="247" 
d="M96 127q-2 7 -4 50t-3 105.5t-1.5 137.5l-1 146.5t-0.5 132.5v96q0 26 10.5 33.5t23.5 7.5q4 0 10 -0.5t12 -4.5t10 -12.5t4 -23.5v-623q0 -35 -5.5 -53t-25.5 -18q-11 0 -18.5 4.5t-10.5 21.5zM69 7q0 9 3 18.5t10 17.5t18.5 13.5t27.5 5.5q30 0 44 -17t14 -36
q0 -21 -15.5 -38t-44.5 -17q-31 0 -44 17.5t-13 35.5z" />
    <glyph glyph-name="exclamdown" unicode="&#xa1;" horiz-adv-x="245" 
d="M95 496q3 17 10.5 21.5t18.5 4.5q20 0 25.5 -18t5.5 -53v-623q0 -15 -4 -23.5t-10 -12.5t-12 -4.5t-10 -0.5q-13 0 -23.5 7.5t-10.5 33.5v96t0.5 132.5l1 146.5t1.5 137.5t2.5 105.5t4.5 50zM68 626q0 18 13 35.5t44 17.5q29 0 44.5 -17t15.5 -38q0 -19 -14 -36t-44 -17
q-16 0 -27.5 5.5t-18.5 13.5t-10 17.5t-3 18.5z" />
    <glyph glyph-name="f" unicode="f" horiz-adv-x="318" 
d="M94 75q6 70 6 142q0 48 -1 96t-1 96q0 3 -2.5 4.5t-10.5 1.5h-37q-17 0 -28 6.5t-11 23.5q0 20 12 24t30 4h34q8 0 10 5.5t2 12.5q1 26 3.5 61t10 72t22 73t39.5 64.5t61.5 46t89.5 17.5q37 0 62 -11.5t39 -28t20 -35t6 -32.5q0 -42 -18 -59t-36 -17q-24 0 -36 14t-12 30
q0 8 3.5 18t11.5 17q6 6 10.5 10t4.5 11q0 6 -15 16.5t-40 10.5q-38 0 -64.5 -14.5t-43.5 -38.5t-26 -54.5t-13.5 -62t-5 -62t-0.5 -53.5q0 -11 8 -11h78q10 0 23.5 -4.5t13.5 -23.5q0 -12 -4 -18.5t-10 -9.5t-12.5 -3.5t-12.5 -0.5q-5 0 -14 0.5t-19 0.5t-19.5 0.5
t-13.5 0.5q-12 0 -15 -3t-3 -8v-344h109q15 0 27 -4.5t12 -25.5q0 -17 -13 -23t-39 -6q-9 0 -23 0.5t-29.5 0.5t-31 0.5t-26.5 0.5q-14 0 -29.5 -0.5l-30.5 -1t-26.5 -1t-17.5 -0.5q-7 0 -14.5 0.5t-14 3t-11 7.5t-4.5 15q0 9 4.5 14t11 8t14 4.5t12.5 1.5q24 2 33.5 6
t10.5 15z" />
    </font>
</defs>
</svg>
