<?xml version="1.0" standalone="no"?>
<!DOCTYPE svg PUBLIC "-//W3C//DTD SVG 1.1//EN" "http://www.w3.org/Graphics/SVG/1.1/DTD/svg11.dtd" >
<svg>
<metadata>
Created by FontForge 20090622 at Fri Oct 19 12:30:08 2018
 By deploy user
Copyright (c) 2012 TypeSETit, LLC (typesetit@att.net),with Reserved Font Name "Lovers Quarrel"
</metadata>
<defs>
<font id="LoversQuarrel-Regular" horiz-adv-x="333" >
  <font-face 
    font-family="Lovers Quarrel"
    font-weight="400"
    font-stretch="normal"
    units-per-em="1000"
    panose-1="2 0 6 4 6 0 0 2 0 2"
    ascent="800"
    descent="-200"
    x-height="216"
    cap-height="596"
    bbox="-269 -400 1157 726"
    underline-thickness="6"
    underline-position="-36"
    unicode-range="U+001E-U+FB02"
  />
<missing-glyph horiz-adv-x="323" 
d="M240 276q-15 0 -42 12q-32 14 -48.5 14t-28.5 -22q-1 -2 -8.5 -2t-7.5 3q28 50 61 50q13 0 42 -11q33 -13 45 -13q23 0 35 24q0 2 2 2q12 0 12 -3q0 -54 -62 -54z" />
    <glyph glyph-name=".notdef" horiz-adv-x="323" 
d="M240 276q-15 0 -42 12q-32 14 -48.5 14t-28.5 -22q-1 -2 -8.5 -2t-7.5 3q28 50 61 50q13 0 42 -11q33 -13 45 -13q23 0 35 24q0 2 2 2q12 0 12 -3q0 -54 -62 -54z" />
    <glyph glyph-name=".null" horiz-adv-x="0" 
 />
    <glyph glyph-name="nonmarkingreturn" 
 />
    <glyph glyph-name="RS" 
 />
    <glyph glyph-name="US" 
 />
    <glyph glyph-name="space" unicode=" " horiz-adv-x="184" 
 />
    <glyph glyph-name="exclam" unicode="!" horiz-adv-x="277" 
d="M160 121q-6 -18 -19.5 -18t-13.5 13q0 18 86 187t130 241q0 2 8.5 2t18.5 -9q20 -16 20 -19.5t-1 -4.5q-197 -306 -229 -392zM116 31q9 -9 9 -21.5t-9 -21t-22.5 -8.5t-22.5 9q-10 7 -10 20t9.5 22t23 9t22.5 -9z" />
    <glyph glyph-name="quotedbl" unicode="&#x22;" horiz-adv-x="212" 
d="M182 467q19 0 19 -21t-62 -169h-10l19 159q1 12 11 22q11 9 23 9zM79 467q18 0 18 -22.5t-61 -167.5h-9l18 158q2 14 12.5 23t21.5 9z" />
    <glyph glyph-name="numbersign" unicode="#" horiz-adv-x="497" 
d="M479 310l-18 -32h-100l-55 -94h107l-19 -31h-107l-93 -153h-35l91 153h-92l-93 -153h-35l92 153h-105l20 31h104l56 94h-114l20 32h113l92 154h37l-94 -154h94l92 154h36l-92 -154h98zM325 278h-92l-57 -94h93z" />
    <glyph glyph-name="dollar" unicode="$" horiz-adv-x="299" 
d="M317 325q0 -18 -10.5 -31t-25.5 -13t-22 9q-9 9 -8 21q1 28 30 28q17 0 20 -11q-5 33 -42 40l-78 -141q45 -60 45 -99q0 -60 -54 -94.5t-117 -34.5l-18 -36l-23 -4l23 41q-63 12 -82 35q1 5 12 16h6q28 -28 72 -37l100 181q-40 50 -40 85q0 50 46 76.5t98 26.5l19 35
l21 4l-22 -41q50 -8 50 -56zM184 116q0 29 -27 65l-94 -169q45 0 83 29.5t38 74.5zM233 371q-30 0 -58 -20q-28 -22 -28 -54q0 -16 8 -28q8 -16 16 -28l72 130h-10z" />
    <glyph glyph-name="percent" unicode="%" horiz-adv-x="414" 
d="M178 488q53 0 53 -49q0 -32 -24 -80.5t-48 -70.5q7 -16 27 -16q32 0 89 45q20 16 68 70q50 54 53 56q4 2 10.5 2t6.5 -4l-410 -497h-24l-1 3q102 107 313 368q-62 -55 -106 -55q-24 0 -39 17q-29 -23 -58 -23q-47 2 -47 59q0 29 17.5 69.5t53 73t66.5 32.5zM325 214
q51 0 51 -52.5t-47.5 -116.5t-92.5 -64q-50 0 -50 58q0 29 17 69.5t53 73t69 32.5zM189 466q-21 0 -45.5 -25t-44.5 -68t-20 -73.5t22 -30.5q18 0 38 17q-10 16 -10 33q0 28 21 28t21 -20q0 -4 -1 -7q12 16 27.5 53t15.5 65t-24 28zM315 47q15 18 29 55.5t14 64t-25 26.5
q-19 0 -45 -26q-25 -27 -45 -70t-20 -72.5t24 -29.5q26 0 68 52z" />
    <glyph glyph-name="ampersand" unicode="&#x26;" horiz-adv-x="476" 
d="M70 -158q12 -51 66 -51q25 0 47.5 18.5t38.5 56.5q25 62 40 128q-38 -6 -40 -6q-31 -131 -67 -171q-5 -5 -7 1l1 4q33 36 62 166q-11 -1 -26 -1t-37 1.5t-46 8t-51 18t-45 33.5q-24 26 -24 55.5t18 64.5t42 60q37 41 92 77q-27 18 -47 46q-40 57 -40 104q0 25 12 48
q25 48 78.5 48t84.5 -53q27 -44 34 -127l56 31q14 80 34 104t36 24q27 0 27 -36q0 -30 -28 -53q-25 -21 -51 -37q-8 -35 -12 -100q40 15 69 43t39 61q1 4 5 3t3 -5q-10 -34 -42 -63.5t-75 -46.5q0 -5 -0.5 -15t-0.5 -15q52 33 104 33q92 0 92 -72q0 -45 -41 -102
q-61 -89 -172 -119q-12 -85 -44 -153q-36 -76 -104 -76q-33 0 -58.5 18.5t-28.5 46.5q-2 4 2 4q4 -2 4 -4zM193.5 95q-4.5 0 -6.5 3q-7 12 -7 25.5t5 28.5q14 36 56 72q1 18 1 55h-13q-42 0 -77 16q-18 -14 -49 -45.5t-52 -69.5t-21 -67q0 -53 48 -78q61 -33 136 -33
q17 76 26 205q-50 -36 -52 -82q0 -14 5 -22t0.5 -8zM486 206q0 64 -90 64q-43 0 -82 -21q-2 -26 -4 -73q-3 -103 -11 -157q100 26 151 99q36 51 36 88zM131 543q-36 0 -57 -34q-15 -24 -15 -55q0 -43 39 -97q22 -29 48 -44l93 50q-4 58 -22 106q-29 74 -86 74zM263 8
q10 52 29 232q-25 -12 -39 -23q-1 -17 -5 -50q-11 -110 -23 -164q12 1 38 5zM257 363q1 -31 1 -47.5v-25.5q13 1 39 7q8 64 13 94zM233 289h9q0 23 -2 65q-31 -15 -77 -50q34 -15 70 -15zM333 415q16 10 39 37t23 40.5t-8 14.5q-7 0 -21 -14q-18 -20 -33 -78zM294 260l2 29
q-18 -6 -38 -9l-3 -46q21 16 39 26z" />
    <glyph glyph-name="quotesingle" unicode="'" horiz-adv-x="145" 
d="M184 346q0 -18 -28 -57t-60 -57q-16 -9 -20.5 -9t-4.5 4.5t20 27.5t42 62q-16 2 -16 27q0 12 10.5 22.5t19.5 10.5h10q27 0 27 -31z" />
    <glyph glyph-name="parenleft" unicode="(" horiz-adv-x="353" 
d="M407 565q-124 -50 -226 -187t-102 -278t20 -167q4 -5 4 -12q0 -10 -9 -10t-21 12t-22.5 72.5t-10.5 99.5q0 164 92 289q67 92 203 176q41 25 56.5 25t15.5 -20z" />
    <glyph glyph-name="parenright" unicode=")" horiz-adv-x="411" 
d="M373 397q0 -167 -92 -290q-67 -93 -202 -176q-40 -25 -56 -25t-16 19q123 52 224.5 188.5t101.5 278t-20 165.5q-5 8 -5 14q0 10 11 10q8 0 20 -13t23 -72t11 -99z" />
    <glyph glyph-name="asterisk" unicode="*" horiz-adv-x="287" 
d="M161 235l36 -74q0 -6 -5 -14q-6 -6 -11 -6q-8 0 -24 37l-20 45l-72 -79q-5 -3 -9 -3q-17 0 -17 13q0 5 6 11l67 68l-88 -4q-6 0 -9.5 5.5t-3.5 12.5q0 12 14 12h96q-40 90 -40 94t9 4t20 -20t35 -70l78 78q4 4 9 4t5 -9t-10 -19l-56 -62h90q10 0 10 -6q0 -14 -22 -15z
" />
    <glyph glyph-name="plus" unicode="+" horiz-adv-x="305" 
d="M307 159q12 0 12 -10q0 -8 -10 -8t-21 -1q-51 -2 -71 -3q-5 -23 -16 -92q0 -4 -8 -7q-7 -4 -14 -4q-12 0 -10 11q1 5 9 35.5l14 54.5q-36 -1 -94 -6q-7 0 -7 16t15 16h39q48 -2 54 -2q4 19 23 97q3 14 14 14q8 0 4 -14.5t-19 -96.5h86z" />
    <glyph glyph-name="comma" unicode="," horiz-adv-x="155" 
d="M128 21q0 -19 -28.5 -57.5t-59.5 -56.5q-16 -10 -20.5 -10t-4.5 2q0 6 13 21q19 19 51 71q-18 3 -18 28q0 12 11 22.5t31 10.5q25 0 25 -31z" />
    <glyph glyph-name="hyphen" unicode="-" horiz-adv-x="253" 
d="M40 112q-19 0 -19 8q0 5 13 15q15 9 29.5 14t46 5t82.5 -6t51 -14t-41 -9t-78.5 -6.5t-58.5 -6t-25 -0.5z" />
    <glyph glyph-name="period" unicode="." horiz-adv-x="160" 
d="M116 31q9 -9 9 -21.5t-9 -21t-22.5 -8.5t-22.5 9q-10 7 -10 20t9.5 22t23 9t22.5 -9z" />
    <glyph glyph-name="slash" unicode="/" horiz-adv-x="365" 
d="M563 517q10 -7 10 -13t-4.5 -6t-12.5 4.5t-17 4.5q-43 0 -142 -110q-59 -65 -179.5 -219.5t-188.5 -199.5q-7 -5 -11.5 -5t-4.5 4.5t6 9.5q96 88 170 198l42 61l39 59q61 89 123 149q78 73 132 73q18 0 38 -10z" />
    <glyph glyph-name="zero" unicode="0" horiz-adv-x="547" 
d="M48 10q-45 39 -45 102q0 23 6 47q23 86 90 141q47 40 131.5 74t148.5 34q15 0 23.5 -0.5t8.5 -7t-12 -8.5q-71 -6 -139 -31q-134 -49 -194 -164q-29 -54 -29 -102t30 -76t93.5 -28t132.5 33t130 88q40 37 65 81t25 83q0 72 -91 72q-121 0 -222 -88q-2 -3 -6 -3
q-12 0 -9 11q5 19 62 49q82 46 157 48h13q62 0 96 -26.5t34 -69.5t-23.5 -87.5t-63.5 -81.5q-62 -57 -143 -93t-152.5 -36t-116.5 39z" />
    <glyph glyph-name="one" unicode="1" horiz-adv-x="244" 
d="M47 -7q-11 0 -11 10q0 2 2 8l86.5 181t54.5 132l-26 -19q-21 -15 -32 -24.5t-14.5 -9.5t-3.5 5.5t11 15t51.5 50l71.5 70.5q3 1 10.5 1t15.5 -7t8 -15v-3q-36 -47 -101 -163q-73 -135 -109 -225q-3 -7 -14 -7z" />
    <glyph glyph-name="two" unicode="2" horiz-adv-x="377" 
d="M285 -33q-1 -1 -5.5 0t-4.5 5t7 8q19 10 19 19q0 14 -36.5 26t-79.5 11.5t-157 -41.5q-14 -6 -25.5 -6t-11.5 12t17 28q18 15 37 15q65 22 162 86.5t144 123.5t47 96q0 40 -49.5 40t-114 -43.5t-79.5 -93.5q-3 -9 -9 -9q-3 0 -3 5q11 68 69 113t131 45q36 0 57 -21
q20 -22 20 -55q0 -49 -36 -88.5t-87 -71.5q-15 -10 -43 -27q-103 -61 -131 -89q186 0 186 -53q0 -27 -24 -35z" />
    <glyph glyph-name="three" unicode="3" horiz-adv-x="377" 
d="M72 292q3 62 70 91.5t116.5 29.5t87.5 -11q75 -21 90 -69q3 -10 3 -19q0 -34 -31 -62.5t-65 -44t-59.5 -21.5t-69.5 -14q70 -3 101.5 -27t31.5 -58t-35 -63q-60 -52 -184 -62q-10 -1 -34 -1t-54 12q-41 17 -41 50q0 17 13.5 33t40.5 20q11 0 11 -4.5t-12 -4.5
q-12 2 -23 -11.5t-11 -22t1 -12.5q12 -39 99 -39q81 0 142 40q42 26 42 63q0 48 -81 68q-39 10 -59 10h-31.5t-11.5 9q0 12 23 11h39t93 15.5t99 49.5q33 34 33 61q0 38 -40.5 60.5t-97 22.5t-118 -28.5t-63.5 -72.5q0 -9 -4.5 -13t-8 0.5t-2.5 13.5z" />
    <glyph glyph-name="four" unicode="4" horiz-adv-x="368" 
d="M297 181q24 -6 24 -15.5t-9 -9.5v2q-1 -2 -3 -2l-22 4q-24 4 -29 4t-9 -1h-12l-60 -122l-25 -53q0 -1 -13 -23q-12 0 -12 16t39 98.5t39 84.5q-1 1 -9 1q-91 0 -172 -26q-15 0 -15 14q0 8 26 26l33 21l48 33l102 72q82 61 133 124q20 0 20 -38v-15q-13 -11 -64 -94
q-54 -84 -54 -93q17 -6 44 -8zM159 195l35 -1l17 -1q5 0 6 -1q14 0 90 160q-58 -48 -122 -95t-82 -62h56z" />
    <glyph glyph-name="five" unicode="5" horiz-adv-x="367" 
d="M401 361q-148 -6 -197 -26h-5l-6 -2q-6 0 -6 -2q-18 -21 -46 -72q51 16 82 16q101 0 101 -84q0 -71 -68 -144.5t-149 -73.5q-41 0 -73.5 26t-32.5 70q0 4 10 32q11 24 16 24q9 0 9 -10q0 -1 -5.5 -16t-5.5 -24q0 -78 77 -78q40 0 79.5 23t71 73t31.5 88.5t-16 53
t-58 14.5t-110 -68q-5 -3 -11 -3q-18 0 -18 15q0 2 2 8q3 3 4 7l32 45q29 44 38 71l-10 5q-5 3 -5 12l20 16q15 12 20 12h15q9 -1 23 -1t64.5 6.5t77 6.5t49.5 -5v-15z" />
    <glyph glyph-name="six" unicode="6" horiz-adv-x="328" 
d="M123 188q-4 2 -4 8q0 15 36.5 35.5t53.5 20.5q42 0 68 -29t26 -70q0 -63 -66 -125q-66 -60 -130 -60q-44 0 -66.5 37t-22.5 84q0 88 94 200.5t179 145.5q4 2 9.5 2t5.5 -2.5t-1 -7t-14 -14.5q-85 -57 -154 -140.5t-84 -171.5q-2 -16 -2 -38.5t15.5 -48t46.5 -25.5
q46 0 86.5 40t59.5 94q7 20 7 44q0 61 -51 61q-30 0 -75 -33q-13 -7 -17 -7z" />
    <glyph glyph-name="seven" unicode="7" horiz-adv-x="331" 
d="M272 408q17 0 38.5 -13t21.5 -31t-59 -80l-59 -60q-93 -95 -119 -133q-42 -64 -42 -108v-6q-2 -4 -4.5 -4t-8.5 5.5t-10 15.5q-7 15 -7 30t6.5 25.5t8 13.5t12.5 17l17.5 22.5t65.5 75.5q156 179 156 199q0 9 -18 8q-71 -5 -131 -29t-80 -45q-6 -7 -11 6q-2 5 -2 14.5
t5.5 17.5t10 10.5t12 4.5t9.5 3q112 41 188 41z" />
    <glyph glyph-name="eight" unicode="8" horiz-adv-x="344" 
d="M345 367q86 46 93.5 46t7.5 -5.5t-7 -10.5q-27 -18 -52.5 -30t-32.5 -16q10 -21 14 -41q1 -19 -8 -19q-6 0 -12 5t-23 38q-13 -4 -80.5 -55.5t-72.5 -59.5q28 -55 28 -86q0 -65 -49 -113.5t-108 -48.5q-34 0 -49.5 19t-15.5 45q0 47 75 117q32 28 77 64q-16 35 -16 68
q0 61 45 91q39 29 100 29t86 -37zM316 349q-17 36 -68 36q-35 0 -68.5 -23t-33.5 -64q0 -24 18 -60q141 104 152 111zM9 23q0 -34 37.5 -34t79 39.5t41.5 90.5q0 6 -11.5 37t-16.5 39q-81 -54 -110 -112q-20 -40 -20 -60z" />
    <glyph glyph-name="nine" unicode="9" horiz-adv-x="340" 
d="M311 329q10 30 10 47q0 37 -48 37q-60 0 -139 -74q-78 -75 -78 -135q0 -35 31 -35q23 0 60.5 18.5t56 32.5t47.5 46t32 35q1 3 7.5 3t15.5 -9.5t9 -14t-54 -88.5q-94 -148 -108 -219l-5 -20t-10.5 -8t-8.5 12q3 78 94 255q-88 -65 -148 -65q-54 0 -54 65q0 75 95 150
q86 70 156.5 70t70.5 -55q0 -18 -8.5 -36t-15.5 -21l-4 3v-2l-2 3q-2 0 -2 5z" />
    <glyph glyph-name="colon" unicode=":" horiz-adv-x="160" 
d="M192 148q0 -13 -9.5 -22t-22 -9t-23.5 9q-9 9 -9 22t9 22q11 9 23.5 9t22 -9t9.5 -22zM76 48q9 9 22.5 9t23 -9t9.5 -21.5t-9.5 -21.5t-23 -9t-22.5 9t-9 21.5t9 21.5z" />
    <glyph glyph-name="semicolon" unicode=";" horiz-adv-x="155" 
d="M216 169q0 -12 -9 -21q-11 -9 -23 -9t-23 9q-9 9 -9 21t9 21q11 9 23 9t23 -9q9 -9 9 -21zM128 21q0 -19 -28.5 -57.5t-59.5 -56.5q-16 -10 -20.5 -10t-4.5 2q0 6 13 21q19 19 51 71q-18 3 -18 28q0 12 11 22.5t31 10.5q25 0 25 -31z" />
    <glyph glyph-name="less" unicode="&#x3c;" horiz-adv-x="219" 
d="M222 198q-8 -12 -51 -45l-57 -40l-1 -90l-3 -7l-5 -2q-1 0 -5 2q-5 13 -14 52t-11 51q136 86 142 86l4 -2z" />
    <glyph glyph-name="equal" unicode="=" horiz-adv-x="305" 
d="M273 215q0 -8 -12 -8q-57 0 -83.5 -3l-35.5 -4t-15 -2q-12 -2 -17 -2h-1q-11 0 -11 16t11 16h98q66 0 66 -13zM273 148q0 -7 -12 -7q-49 0 -79.5 -3.5l-39.5 -4.5t-15 -2q-12 -2 -17 -2h-1q-11 0 -11 16t11 16h98q66 0 66 -13z" />
    <glyph glyph-name="greater" unicode="&#x3e;" horiz-adv-x="219" 
d="M165 100l-136 -85l-5 -1q-3 0 -5 1l-1 3q0 9 53 48l55 39l1 91l3 6l5 3l6 -3q7 -15 14 -51z" />
    <glyph glyph-name="question" unicode="?" horiz-adv-x="400" 
d="M136 135l-3 -14q-1 -12 -13.5 -12t-18 11t-5.5 19q0 39 43 89q24 28 93 91q45 38 92 88q40 40 40 72.5t-32 32.5q-77 0 -163 -55q-65 -41 -89 -76q-5 -6 -13.5 -6t-8.5 8t7 18q25 37 96 82q88 58 164 58q29 0 54.5 -18.5t25.5 -49.5q0 -46 -44 -94q-30 -34 -94 -82
t-96 -77q-43 -37 -43 -75v-1q0 -9 8 -9zM112 31q9 -9 9 -21.5t-9 -21t-22.5 -8.5t-22.5 9q-10 7 -10 20t9.5 22t23 9t22.5 -9z" />
    <glyph glyph-name="at" unicode="@" horiz-adv-x="650" 
d="M192 33h-4q-77 0 -126 43.5t-49 112.5q0 25 6 52q24 94 99 157q51 42 134.5 76.5t171.5 34.5q160 0 192 -70q6 -13 6 -34t-20 -53v-10q0 -37 -24 -85q-27 -48 -67 -86q-66 -60 -151 -99q-92 -39 -168 -39zM439 435q-22 0 -22 7.5t57.5 7.5t88.5 -24.5t37 -59.5
q12 21 12 39q0 40 -58.5 62.5t-128.5 22.5q-76 0 -126 -18q-83 -30 -137 -76q-55 -49 -88.5 -112.5t-33.5 -118.5t35 -87t109 -32t152 38.5t132 87.5q71 64 99 136q-77 -90 -169 -136q-33 -17 -48.5 -17t-22.5 2q-18 6 -27.5 31.5t-10 47.5t0.5 23l-15.5 -23t-15 -22
l-13.5 -18t-15.5 -17.5t-16.5 -14.5q-16 -13 -31 -11q-33 5 -33 44.5t25 87.5t67 87.5t84 39.5q20 0 38 -10t18 -31.5t-19 -24.5q7 12 7 22t-9.5 15t-17.5 5q-21 0 -50.5 -24.5t-58.5 -64.5t-41 -69t-12 -42.5t9 -13.5q11 0 31 18.5t79 101.5q15 21 23.5 21t7.5 -23t-1 -40
q0 -79 32 -79q12 0 30 9q114 62 180 144q4 15 4 33q0 78 -99 78z" />
    <glyph glyph-name="A" unicode="A" horiz-adv-x="769" 
d="M666 566q37 0 37 -47q0 -25 -12.5 -134.5t-15.5 -172.5q50 3 62 11t12.5 2t-17 -16.5t-57.5 -16.5v-62q0 -97 33 -129q12 -12 20.5 -12t20 3.5t29.5 23t31 49.5q4 9 7.5 7.5t3.5 -4.5t-1 -7q-13 -37 -41 -62q-61 -56 -109 -13q-25 22 -31.5 64t-6.5 76.5t1 60.5
q-15 -1 -125 -1q-53 -58 -114 -109q7 -1 15 -1q72 0 128 74q4 5 6 -1v-4q-60 -79 -134 -79q-13 0 -25 2q-156 -125 -266 -125q-59 0 -91 33q-20 22 -20 54q0 47 33.5 80t80 48.5t121.5 27.5q-25 57 -25 113q0 152 86 223q46 37 94 37q17 0 35 -5q63 -16 83 -82q8 -25 8 -54
q0 -96 -80 -215h45q20 20 79 102.5t89 120.5q10 65 10 84q0 35 -18 35q-21 0 -56 -41q-19 -22 -23 -31t-10 -5q-6 8 18 38q50 60 90 60zM470 272q38 78 38 130t-19 86q-32 58 -97.5 58t-113 -66t-47.5 -181q0 -60 24 -111q91 13 174 14q24 35 41 70zM19 42q0 -28 28 -48
q35 -26 93 -26q105 0 221 105l-23 9q-103 -90 -200 -90q-29 0 -57 8q-5 1 -3 5t5 3q117 -31 245 80q-46 27 -75 77q-96 -19 -144 -34q-90 -31 -90 -89zM525 208q14 -1 39.5 -1t69.5 2q3 78 19 183q-25 -44 -47.5 -74.5l-46 -63t-34.5 -46.5zM418 187q-74 -7 -152 -20
q30 -49 71 -71q43 39 81 91zM455 189q-11 0 -23 -1q-39 -57 -85 -98q13 -5 23 -8q21 20 56 56.5t49 49.5q-9 1 -20 1z" />
    <glyph glyph-name="B" unicode="B" horiz-adv-x="592" 
d="M169 283l-46 -4q-70 0 -93 40q-9 15 -9 37.5t29 56.5q65 77 217 99q35 64 66 80q1 1 2.5 1t2.5 -3t-2 -5q-25 -14 -59 -72q28 4 49 5q31 46 56 57q14 7 33.5 7t43.5 -17.5t24 -25.5q0 -5 -4 -5t-5.5 2t-4.5 6.5t-8 8.5q-21 13 -32.5 13t-16.5 -1q-16 -4 -44 -44h7
q102 -1 171.5 -32.5t69.5 -84.5q0 -66 -83.5 -114.5t-149.5 -55.5q62 0 108 -16q88 -31 88 -95q0 -36 -35 -75.5t-101.5 -69t-121.5 -29.5q-22 0 -49 5t-46 37q-11 19 -11 35t5 29q1 3 -17.5 -21t-37.5 -61q-3 -3 -11 -0.5t-15.5 12t-6.5 17.5q7 54 30 132q-13 -1 -39 -5
q-29 -80 -53 -119q-60 -99 -136 -99q-42 0 -62 34q-10 17 -10 39.5t26 53.5t85.5 57t141.5 41q21 54 54 149zM220 144q143 0 155 -94q1 -5 -2.5 -5t-4.5 3q-14 87 -150 87h-12q-26 -89 -35 -134q7 7 23 33q34 57 54 71.5t26 8.5q3 -2 -1 -5q-43 -37 -43 -84q0 -32 28 -47
q13 -8 39.5 -8t72.5 14q68 24 117.5 65.5t49.5 77.5q0 20 -14 38q-43 54 -174 54q-59 0 -122 -14l-19 -61h12zM520 477q-59 31 -147 32h-11q-43 -68 -88 -179q88 28 157 78q12 9 12.5 1t-9.5 -14q-97 -65 -170 -89q-21 -51 -31 -84q68 0 108 10q114 24 174 70q64 49 64 96.5
t-59 78.5zM-123 -28q0 -30 26 -45q15 -9 38 -9t56.5 25.5t58.5 66t55 115.5q-213 -41 -232 -137q-2 -9 -2 -16zM39 342q0 -11 7 -20q15 -21 64 -21q39 0 67 6q42 115 81 188q-119 -27 -185 -94q-34 -34 -34 -59zM268 498q-40 -74 -81 -189q26 4 39 8q46 116 92 189
q-20 -2 -50 -8zM179 285q-45 -131 -52 -149q23 4 38 5q26 87 51 151q-14 -3 -37 -7z" />
    <glyph glyph-name="C" unicode="C" horiz-adv-x="553" 
d="M569 396q21 -5 21 -16q0 -7 -11 -1l-11 5q-7 -59 -61 -118q-92 -99 -202 -99q-63 0 -94 35q-19 21 -19 44q0 53 61 103q39 33 99 49.5t113 16.5q11 0 23 -1q0 50 -54 66q-19 5 -40 5q-53 0 -115 -35q-87 -49 -142 -149q-43 -80 -52 -171q25 -67 81 -103t125 -36
q27 0 70 8q18 33 18 67q0 53 -33 71q-2 1 -2 3q2 6 6 4q41 -22 41 -79q0 -31 -16 -62q102 31 152 111q23 38 30 38q4 0 4 -6q0 -11 -22.5 -44t-71 -70t-108.5 -56q-50 -70 -132 -70q-61 0 -107 50q-34 36 -44 91q-53 65 -53 156.5t59 178t168 127.5q64 24 115 24t94.5 -12
t77 -45t32.5 -80zM295 255q-23 0 -23.5 5t9 4.5t12.5 -0.5q52 0 100 22.5t68 55.5t25 56q-60 0 -122.5 -19.5t-93.5 -46.5q-48 -42 -48 -83q0 -29 32 -53q21 -14 54 -14t73 12q66 23 118.5 81t51.5 115q-28 7 -55 8q-5 -27 -23 -52q-31 -46 -79 -68.5t-99 -22.5zM314 480
q43 15 79 15t65 -15q42 -23 40 -67q27 -1 51 -9q-10 65 -94 96q-32 13 -75.5 13t-93 -13.5t-99 -54.5t-82.5 -105.5t-33 -128.5q0 -25 5 -51q11 80 51 152q70 127 186 168zM341 -29q-40 -9 -80 -9q-102 0 -170 68q16 -62 61 -92q35 -23 74 -23q67 0 115 56z" />
    <glyph glyph-name="D" unicode="D" horiz-adv-x="724" 
d="M455 568q26 0 50 -17.5t24 -24t-4.5 -6.5t-6 2t-4.5 6.5t-8 7.5q-18 14 -30.5 14t-18.5 -2q-17 -3 -37 -31q96 -8 169 -40q138 -60 157 -187q1 -13 1 -26q0 -46 -27 -102.5t-93 -113.5t-169 -76q-27 -53 -66 -88.5t-68.5 -44t-48.5 -8.5q-62 0 -93 45q-34 52 -34 130
q0 102 64 266q-45 -11 -83 -11t-71 19q-39 22 -39 65q0 30 23 66.5t76 62.5q74 37 201 45q17 37 19.5 54.5t4 17.5t3.5 -3t2 -14t-17 -55q13 1 26 1t26 -1q34 49 72 49zM440 377q66 -81 66 -214q0 -64 -20 -123l-11 -31q77 24 133 75t76.5 100.5t20.5 76.5q0 77 -49 139
q-36 43 -99.5 71.5t-143.5 34.5q-21 -31 -40 -73q31 -16 59 -46q44 27 63.5 47.5t19.5 14t-4 -10.5q-29 -30 -71 -61zM457 4q32 70 32 142q0 143 -61 223q-51 -34 -105 -58q-32 -90 -57 -180.5t-29 -129.5q5 5 20 31t19 32.5t16 21t19 19.5q19 15 26 9q3 -2 -1 -5
q-46 -40 -46 -68q0 -15 14 -27q24 -21 72 -21q39 0 81 11zM226 275q-38 -104 -49.5 -166t-11.5 -98q0 -108 47 -143q31 -22 67 -22q43 0 87.5 34t74.5 89q-25 -3 -59 -3t-68 15t-34 47q0 12 4 25q-21 -20 -53 -82q-3 -3 -11 -0.5t-15.5 12t-6.5 17.5q9 105 75 291
q-32 -12 -47 -16zM264 449q-54 0 -88 -35.5t-34 -62.5q0 -7 1.5 -12.5t-2.5 -6.5q-7 -2 -7 24t34.5 63.5t100.5 37.5q17 0 22 -1l23 50q-113 -11 -176 -48t-88 -81q-13 -22 -13 -40.5t12 -32.5q19 -23 68 -23q48 0 105 17q28 71 65 150q-5 1 -23 1zM297 447
q-34 -69 -62 -145q24 6 48 15q23 63 52 120q-16 7 -38 10zM420 379q-25 28 -52 43q-17 -37 -35 -86q49 21 87 43zM325 507q-2 -6 -24 -52q18 -1 38 -8q20 38 36 61q-33 0 -50 -1z" />
    <glyph glyph-name="E" unicode="E" horiz-adv-x="522" 
d="M422 12l1 -18q0 -49 -18 -86q-37 -78 -117 -78q-70 0 -120 64q-28 36 -42 88q-91 47 -91 159q0 54 25 117q-6 -1 -15.5 -3.5t-9.5 4.5q0 15 15 25q3 1 5 2l20 4l6 12q58 110 173 179q89 53 171 53t113 -30q40 49 51 49q5 0 5 -4t-3 -7q-23 -18 -45 -46q16 -21 16 -39
q0 -53 -43 -65q-7 -2 -12 -2q-17 0 -20 18q-4 21 12.5 45.5t26.5 34.5q-21 24 -98 24t-151 -48q-92 -60 -152 -165q16 2 44 4q79 139 234 184q4 1 5.5 -3t-2.5 -5q-134 -36 -216 -175q35 2 254 2q11 0 11.5 -6.5t-17.5 -6.5q-139 0 -262 -15q-48 -96 -48 -194q0 -37 4 -62
q12 -12 43 -27.5t80 -15.5q77 0 150 45q-12 51 -52 98q-61 -36 -105 -89q-7 -8 -7 -3q0 8 4 12q36 40 75 73q21 16 23 17q-58 58 -123 59q-3 0 -4 2t0.5 4t3.5 2q69 -2 132 -61q66 41 118.5 41t52.5 -47q0 -57 -101 -120zM407 4q-84 -46 -173 -46q-59 0 -92 17
q20 -71 63 -104t82 -33q50 0 85.5 44t35.5 112q0 7 -1 10zM418 32q45 32 65.5 63t20.5 45q0 28 -31 28q-38 0 -110 -41q42 -45 55 -95zM113 88q0 96 42 187l-46 -7l-3 -7q-27 -55 -27 -110q0 -66 36 -111q-2 30 -2 48zM535 417q6 14 6 29t-8 32q-27 -40 -27 -68q0 -9 10 -9
t19 16z" />
    <glyph glyph-name="F" unicode="F" horiz-adv-x="534" 
d="M280 336q-111 11 -182 60q-41 -58 -41 -102q0 -20 8 -37q17 -37 60 -37q70 0 133 83q10 13 22 33zM310 562q-36 11 -78.5 11t-91.5 -19q-79 -30 -79 -80q0 -23 20 -45q83 100 229 133zM454 229q66 136 66 215q0 53 -33 83t-92 30q-18 0 -38 -3q92 -50 92 -170
q0 -82 -29 -156q11 1 34 1zM493 228q66 -5 66 -14q0 -2 -4.5 -6.5t-20 0t-50.5 4.5q-68 -125 -165 -229t-177 -129q-2 -1 -4 -1t-4.5 3t-2 7.5t5.5 6.5q74 24 160 121.5t148 219.5q-22 -2 -34 -4q-23 -53 -50.5 -87.5l-41.5 -51.5t-38.5 -41l-36.5 -35q-62 -57 -69.5 -63.5
t-7.5 0.5q0 3 3 6t25.5 23.5t33 31l32.5 33t36.5 40t32.5 41.5q36 48 60 100q-93 -18 -177.5 -58.5t-118.5 -90.5q-3 -5 -6 6.5t-3 20t3 13.5q35 53 123.5 87.5t188.5 43.5q32 78 32 160q0 120 -94 165q-65 -14 -128.5 -52.5t-103.5 -91.5q74 -50 179 -63q31 53 53 124
q2 8 7.5 3.5t2.5 -12.5q-20 -67 -45 -117q36 -2 46 -2t11 -2q3 -6 -4 -6q-37 0 -57 2q-12 -23 -29 -45q-66 -91 -148 -91q-56 0 -83 46q-15 25 -15 61q0 52 48 112q-30 28 -30 54.5t24 51.5q47 47 140 57q18 2 50.5 2t75.5 -16q29 5 62 5q105 0 147 -74q16 -29 16 -67
q0 -75 -64 -202z" />
    <glyph glyph-name="G" unicode="G" horiz-adv-x="572" 
d="M102 86q25 -73 101.5 -73t159.5 63q-27 60 -84 60q-14 0 -26.5 -2.5t-26.5 -17t-14 -23.5t-2 -11q-6 -4 -6 5q0 18 16.5 35t31 20t30.5 3q61 0 92 -61q106 85 177 222q10 15 16 10q9 1 16.5 -2.5t6.5 -9.5q-16 -129 -65 -270q22 2 34.5 2t13.5 -5t-5 -7l-7 -1
q-20 0 -41 -3q-28 -80 -63 -148q-59 -112 -156 -168q-50 -29 -84 -29q-15 0 -27 6q-21 10 -21 37.5t30 77.5q-59 7 -92.5 55.5t-33.5 118.5q0 15 1 31l4 31q-31 39 -31 109t40 139q-61 40 -61 114q0 30 15.5 66t58.5 68.5t95 33.5q12 0 13 -6q2 -6 -7 -7q-45 0 -84 -29
q-71 -53 -71 -122q0 -64 54 -97q48 73 125.5 134t163.5 93q55 21 103 21q92 0 120 -53q6 -11 6 -27t-10 -39q-18 -39 -69.5 -83.5t-132 -75.5t-153.5 -31q-40 0 -80 7q-47 -78 -71 -161zM521 497q-96 0 -182 -62.5t-151 -162.5q25 -4 61 -4q138 0 260 86q51 36 68.5 65.5
t17.5 42.5q0 38 -39 60q-24 12 -61 12q-49 0 -115.5 -26t-138 -88t-111.5 -134q21 -8 46 -12q66 103 155 167t190 64q4 0 4 -4t-4 -4zM367 65q-101 -78 -184 -78q-61 0 -96 35q-4 -31 -4 -57q0 -65 29 -106q35 -51 92 -55q17 27 46 62q59 71 126 114q1 12 1 34.5t-10 50.5z
M227 -204q-30 -54 -30 -82t29.5 -28t77.5 36q72 55 110 132t63 156q-45 -14 -88 -41l-1 -5q-13 -75 -59 -119t-102 -49zM379 74q13 -32 13 -54t-1 -30q45 26 92 37q37 120 62 240q-70 -115 -166 -193zM372 -42q-73 -51 -124 -127l-16 -26q48 8 87 47t53 102v4zM118 263
q-26 -55 -26 -96.5t4 -61.5q24 75 65 145q-18 3 -43 13z" />
    <glyph glyph-name="H" unicode="H" horiz-adv-x="833" 
d="M660 32q-10 22 -10 63.5t6 95.5q-70 -5 -161 -5q-47 -72 -126.5 -131.5t-159.5 -85.5q-42 -14 -66 -14t-35 1q-43 5 -69.5 31t-26.5 64q0 43 28.5 73.5t71.5 45.5q82 27 305 35l21 42q-24 -3 -48 -3q-71 3 -122 46q-77 66 -77 162q0 93 62 134q36 24 64.5 24t59.5 -11
t59 -49l6 -9q15 8 32.5 8t36.5 -14q34 -25 42 -85q3 -21 3 -58t-17 -96q55 39 81 95q2 5 5.5 2t1.5 -6q-30 -64 -91 -103q-11 -34 -31 -77q109 2 154 4q17 94 73 213q27 59 62 96.5t61.5 37.5t26.5 -8q0 -4 -8.5 -3t-10.5 1q-35 0 -73.5 -65.5t-62.5 -142t-32 -127.5
q46 5 58.5 13t11.5 1q-1 -20 -73 -32q-6 -44 -6 -77q0 -79 32 -99q8 -6 22 -6t44.5 16.5t49.5 48.5q13 20 13 8q0 -31 -66 -72q-37 -24 -63 -24q-37 0 -58 42zM441 256q29 71 29 136.5t-30 124.5q-40 -47 -40 -181q0 -7 -4 -7q-6 1 -8 9q-5 34 -5 63q0 92 47 132l-7 9
q-44 58 -103 58q-30 0 -66 -23q-49 -33 -49 -118q0 -96 74 -162q47 -42 112 -45q29 0 50 4zM442 189q-11 0 -24 -1q-55 -88 -138 -139q-67 -41 -136 -41q-34 0 -36 3q-2 7 4 7q16 -2 33 -2q66 0 129 38q79 49 132 134q-75 -3 -162.5 -16t-136.5 -29q-83 -27 -83 -83
q0 -32 30 -52.5t58 -24t43 -3.5q161 0 308 208q-10 1 -21 1zM451 527q34 -58 34 -125.5t-31 -143.5q28 7 42 14q26 80 26 149q0 74 -27 101q-12 12 -23 12t-21 -7zM493 262q-28 -10 -43 -13q-9 -22 -22 -44q15 1 43 1q13 28 22 56z" />
    <glyph glyph-name="I" unicode="I" horiz-adv-x="441" 
d="M265 502q-32 86 -107 86q-51 0 -95 -54t-44 -145q0 -27 4 -58q15 -104 71.5 -148t121.5 -44q9 0 19 1q47 136 47 246q0 47 -10 94q-125 -13 -167 -71q-15 -20 -15 -41t25.5 -46.5t87.5 -36.5q7 -2 2 -6.5t-12 -2.5q-66 20 -101.5 47.5t-35.5 55t22.5 53t72 44.5t114.5 26
zM295 482q11 -39 11 -89q0 -109 -52 -250q20 4 34 10q28 85 46.5 181t19.5 148q-16 1 -31 1t-28 -1zM197 23q10 0 32 -2q30 46 55 119q-13 -4 -35 -8q-19 -53 -52 -109zM183 0h-1q-11 -18 -27 -37q28 0 59 36q-11 1 -31 1zM261 18q68 -8 108.5 -17.5t52 -9.5t11.5 5
q0 8 -29 26q-4 3 -1 4.5t6 0.5q27 -11 34 -30q1 -4 1 -7q0 -14 -27 -14q-13 0 -59 9t-111 13q-42 -53 -77 -53q-12 0 -26 5q-70 -77 -132 -77q-24 0 -40 18q-1 2 -1 4t3 3t4 -1q13 -17 35.5 -17t56.5 18.5t65 55.5q-32 14 -39 31q-2 8 3 8t6.5 -2t4.5 -7q10 -15 33 -20
q16 19 26 36q-141 -3 -141 -47q0 -10 10 -22.5t19 -18t0 -6.5t-15 3q-41 28 -41 51q0 64 172 64q7 0 10 -1q27 46 49 107q-8 -1 -16 -1q-71 0 -133 50q-80 63 -80 208q0 103 58 163q45 46 100 46q89 0 127 -92h38q28 0 40 1l16 15q8 6 13 6q10 0 11 -20q4 0 12 -1
q97 -4 97 -21q0 -6 -11 -4t-20 2l-82 1q-25 -171 -70 -307q51 36 61 90q1 5 4.5 2t2.5 -6q-16 -65 -73 -101q-31 -89 -66 -143z" />
    <glyph glyph-name="J" unicode="J" horiz-adv-x="421" 
d="M461 506q108 -5 108 -22q0 -6 -11 -4t-20 2l-81 1q-18 -145 -79 -315l44 3q21 2 23 -2q4 -8 -17 -9q-27 -2 -54 -6q-110 -305 -244 -388q-92 -58 -167 -58q-60 0 -85 45q-14 23 -14 42t1 27q4 39 32.5 88t79.5 94q120 108 304 148q13 58 13 108q0 94 -46 155
q-15 18 -27 29q-85 -39 -85 -103q0 -16 7 -30q15 -32 50.5 -56t78.5 -27q8 -1 2.5 -7t-13.5 -5q-68 13 -109 42q-50 36 -50 81q0 27 21 59.5t76 60.5q-26 14 -55.5 14t-64.5 -23.5t-49 -71.5q-9 -30 -9 -53q0 -74 45 -123q33 -35 82 -37q15 -1 14 -4t-15 -2q-71 3 -110 61
q-30 44 -30 97q0 93 71 141q38 25 71.5 25t63.5 -17q21 9 57.5 20t130.5 17l20 2q7 6 11 10q12 10 20 10t8 -10v-7q0 -2 1 -2zM-54 -243q-26 0 -27.5 3t0 5t9 1t19.5 -1q61 0 129 48.5t122 135.5t79 186q-194 -50 -298 -164q-45 -48 -69 -93q-26 -47 -26 -78t16 -50
q20 -24 53 -24q74 0 164 62q116 81 214 359q-17 -2 -41 -8q-26 -102 -82 -192t-127.5 -140t-134.5 -50zM308 266q0 -51 -14 -111l42 7q62 189 74 319q-94 -7 -119.5 -13.5t-54.5 -17.5q17 -17 25 -28q47 -62 47 -156z" />
    <glyph glyph-name="K" unicode="K" horiz-adv-x="655" 
d="M287 554q0 3 4 3t4 -11t-3 -41h44l16 15q8 6 13 6q10 0 11 -20q18 -1 17 -11q0 -12 -22 -12q-12 -82 -28 -152q33 -2 54 -7q45 90 90 143t115 70l15 3q9 1 18 1q41 0 76 -30.5t41 -83.5q0 -15 -1 -15q-4 0 -4 12q-6 49 -41.5 70t-73.5 21q-70 0 -122.5 -56t-99.5 -138
q68 -19 100 -61q23 -31 23 -63q0 -13 -4 -26q-16 -52 -76 -81q53 -68 85 -90q37 -24 60 -24q38 0 38 47t-28 88q-2 2 -2 4t2 2t7 -5q33 -38 33 -76.5t-19.5 -60.5t-51.5 -22q-46 0 -97 45q-37 31 -67 79q-15 -3 -29 -3q-39 0 -71 21q-3 2 -1 5.5t6 1.5q31 -20 64 -20
q13 0 26 3q-18 30 -48 88.5l-38 73.5q-67 -247 -156 -295q-14 -7 -33.5 -7t-43.5 17.5t-24 25.5q0 5 4 5t5.5 -2t4.5 -6.5t8 -7.5q18 -13 30.5 -13t18.5 1q51 12 95 117.5t71 240.5q-27 -2 -40 -5q-27 -119 -64.5 -206t-100.5 -105q-50 -14 -79 25q-19 24 -19 55
q0 51 35 102.5t109 92.5q-118 40 -118 102q0 47 73.5 82.5t185.5 38.5q3 30 3 49zM18 98q0 -21 8 -40q18 -38 57 -38q66 0 109 99q37 87 61 197q-42 -8 -84 -30l4 -1q8 -2 1 -6q-6 -5 -19 -1q-70 -39 -103.5 -89t-33.5 -91zM82 418q-22 -23 -22 -44t14 -39q23 -32 81 -46
q50 25 100 36q17 75 26 158q-144 -4 -199 -65zM355 222l92 -124q53 28 67 75q4 12 4 33t-20 50q-29 40 -93 58zM303 331q20 97 20 151q-11 1 -34 1q-9 -80 -25 -156q24 4 39 4zM341 324q-4 -20 -14 -60l23 -36l44 89q-31 6 -53 7z" />
    <glyph glyph-name="L" unicode="L" horiz-adv-x="433" 
d="M1 55q-8 19 -8 39t19.5 42.5t62 22.5t135.5 -46q11 22 23 58h-14q-73 0 -107 38q-20 23 -20 50.5t13 55.5q-36 51 -36 113q0 109 78 148q19 10 43.5 10t52.5 -28q45 -45 45 -155q0 -68 -22 -157q15 0 35 5q31 163 71 234q55 100 107 100q45 0 62 -63q7 -26 7 -54
q0 -54 -27.5 -111t-82.5 -104.5t-129 -69.5q-17 -56 -40 -103q59 -36 139 -69q189 -77 218 2q4 9 8 8q2 -1 2 -3.5t-1 -5.5q-14 -39 -54 -54q-30 -12 -51 -12q-62 0 -129 31.5t-105 57.5l-37 26q-51 -78 -127 -78q-14 0 -30 3q-76 13 -101 69zM272 403q0 130 -58 164
q-17 10 -37.5 10t-45.5 -21q-45 -40 -45 -112q0 -56 28 -113q16 27 43 45q7 5 8.5 2.5t-0.5 -3.5q-32 -26 -43 -60q20 -31 56 -49.5t75 -19.5q19 89 19 157zM495 367q31 68 31 131t-30 63q-54 0 -133 -214q-14 -37 -28 -83q58 30 92 99q2 5 5.5 2t1.5 -5q-38 -77 -102 -107
l-17 -50q123 34 180 164zM109 18h-4q-6 0 -4 5q0 3 2.5 3h4.5q53 0 91 67q-54 24 -72.5 27.5t-31.5 3.5q-36 0 -53.5 -19t-17.5 -35t8 -32q24 -42 91 -42q47 0 75 22q31 24 40 44l5 9l-35 18q-43 -71 -99 -71zM118 286q0 -40 35.5 -68t84.5 -28q5 16 13 48q-82 3 -132 59
q-1 -6 -1 -11zM245 172q-14 -39 -26 -64l34 -18q10 20 32 89q-14 -3 -40 -7zM299 242q-16 -4 -35 -4q-8 -32 -13 -48q18 2 39 6z" />
    <glyph glyph-name="M" unicode="M" horiz-adv-x="833" 
d="M64 440q24 60 82.5 95t113.5 35t95 -24q7 1 21 1q102 0 150 -61q13 9 23 11t11 -2q-2 -7 -10 -9t-18 -9q35 -52 35 -138.5t-43 -213.5q11 -2 31 -8l13 23q96 158 146 225q128 168 221 168q24 0 38.5 -18.5t14.5 -41.5q0 -16 -3.5 -17t-4.5 4l-1 3q0 44 -46 44
q-17 0 -47.5 -13.5t-76 -57t-87.5 -100.5q-70 -94 -109.5 -156.5l-43.5 -68.5q86 -35 86 -99q0 -19 -7 -40q-1 -2 -3.5 -2.5t-4 1.5t2.5 13t4 31t-12 39q-21 33 -70 51q-81 -121 -103 -121q-6 0 -4 6q25 64 42 131q-10 2 -30 4q-24 -84 -73 -140.5t-96.5 -78t-83.5 -21.5
q-72 0 -90 47q-7 -1 -22 -1t-32 2.5t-34 14t-17 28.5t12 20q6 1 6.5 -2t-1.5 -5q-9 -12 3 -24q23 -21 64 -21q9 0 17 1q-1 6 -1 12q0 38 39 83q50 58 159 84q16 30 44 98q50 118 92 185q-27 84 -90 124q-7 1 -21 1q-69 0 -141 -54q-97 -72 -121 -180q30 -59 89 -59h3
q40 0 76 25t40 59q0 2 2 3t4 -0.5t2 -3.5q-4 -37 -43 -64t-81 -27h-3q-56 0 -91 46q-1 -9 -1 -18q0 -41 21 -73t71.5 -32t85 24.5t45.5 40t12 11t-2 -10.5q-11 -27 -58 -57.5t-90.5 -30.5t-70.5 17q-47 32 -47 105q0 35 11 70q-7 24 -7 52.5t13 64.5zM143 -66q16 -42 75 -42
q32 0 70 17q63 29 106 86.5t63 129.5q-12 1 -34.5 1t-57.5 -6q-88 -167 -222 -186zM879 434q5 0 5 -6t-6 -6h-2q-29 0 -56 -50q-44 -82 -68 -250q-7 -52 -7 -68q0 -88 45 -88q13 0 33 13t42 48q5 8 9 5.5t0 -10.5q-23 -45 -64 -64q-19 -10 -37.5 -10t-36.5 12q-33 21 -34 83
q0 88 42 228q20 69 55 116t75 47h5zM339 545q-41 17 -87 17t-96.5 -30.5t-69.5 -75t-19 -84.5q0 -11 1 -22l9 18q40 69 112 118t150 59zM460 134q15 60 15 124t-10 112q-15 -34 -42 -107.5t-39 -100.5l-13 -30q24 3 47 3t42 -1zM138 -44q0 -5 1 -9q97 19 174 163
q-94 -23 -134.5 -70.5t-40.5 -83.5zM477 395q15 -51 15 -115t-20 -147l30 -3q24 100 24 178t-25 132q-12 -20 -24 -45zM467 424q7 11 25 33q-35 59 -107 72q56 -38 82 -105zM551 110l-29 8q-22 -66 -50 -121q21 10 79 113z" />
    <glyph glyph-name="N" unicode="N" horiz-adv-x="686" 
d="M283 39q-45 24 -45 67.5t38 83.5q59 58 140 75q27 68 33 130q-38 118 -130 135q-19 -25 -19 -67.5t27 -79.5q1 -2 0 -4t-3 -2t-4 2q-28 38 -28 82t18 70q-8 1 -17 1q-53 0 -110 -42t-87 -118q-19 -48 -19 -96q0 -76 56 -76q32 0 61 29.5t41 50.5q5 7 7 3v-8
q-10 -24 -48 -59q-39 -36 -76 -36t-53 31t-16 67q0 57 26 108q38 74 107 118.5t136 44.5h6q22 25 60 25q50 0 83 -44q39 -53 55 -111q24 -86 37 -166q20 -8 44 -25q36 167 61 219q37 73 77 94q25 13 59 13t57 -26t29 -53q1 -3 1 -6t-5 -3q-2 0 -5.5 11t-23 28t-47 17
t-51 -12t-41.5 -36.5t-32.5 -50.5t-27.5 -65q-18 -58 -38 -140q20 -16 38 -40q33 -45 33 -92t-26 -59q-6 -3 -11 -3q-36 0 -64 75q-8 -27 -16 -43q33 -66 72 -66q28 0 60 30q10 10 11.5 10t1.5 -2l2 -5q-44 -46 -87.5 -46t-79.5 49q-6 -5 -19.5 -5t-13.5 9q0 2 10 4.5
t14 4.5q-41 86 -62 221h-11l-31 -3q-46 -122 -133 -218q12 -4 24 -4q33 0 66 30q5 5 6 0.5t-1 -6.5q-34 -31 -72 -31q-14 0 -29 4q-115 -127 -236 -127q-29 0 -47 17t-18 48.5t25 63.5q0 3 4 3q2 0 2 -3l-8 -20q-8 -20 -8 -40t15 -38.5t39 -18.5q110 0 217 122zM288 45
q75 88 123 207q-67 -18 -123 -71q-36 -39 -36 -77t36 -59zM334 548q112 -12 147 -141q16 -57 31 -141q19 -3 37 -9q-21 105 -59 198q-23 55 -52.5 82.5t-55.5 27.5t-48 -17zM614.5 59.5q13.5 -19.5 21.5 -23t13 -3.5t9 2q21 10 21 50.5t-31 87.5q-17 22 -34 36
q-15 -65 -24 -97q11 -33 24.5 -52.5zM551 247q-16 7 -37 10q27 -136 49 -186q8 17 16 48q-12 35 -23 100zM560 243l4 -23q10 -56 19 -86q7 29 18 86q-21 14 -41 23zM441 269q12 1 37 1q-6 30 -13 84q-10 -44 -24 -85z" />
    <glyph glyph-name="O" unicode="O" horiz-adv-x="534" 
d="M39 268q-1 79 86 152v10q0 95 74 130q26 12 52 12q80 0 152 -85q67 -14 111 -62.5t44 -126.5t-51 -156q-14 -90 -68 -146t-121 -56t-121 28q-99 1 -135 59q-21 35 -21 73t9 72q-11 41 -11 95v1zM355 319q-14 -36 -37 -49t-37 -13t-32 3t-45 19.5t-46 40.5
q-63 -70 -87 -144q18 -110 93 -173q8 -2 16.5 -2t16.5 1q82 4 169 59.5t130 138.5q-8 164 -103 276q-17 4 -40 4q-132 0 -215 -82q7 -34 16 -50q90 86 181 86q12 0 12 -6.5t-13 -6.5q-78 0 -169 -93q23 -33 52 -47.5t52 -14.5l25 4q36 10 53 52q1 4 5 2.5t3 -5.5zM380 491
q-66 72 -132 72q-23 0 -45 -10q-67 -33 -67 -116v-10q91 66 217 66q9 0 27 -2zM217 -31q45 -21 102 -21t105 46t64 122q-50 -64 -122.5 -103.5t-148.5 -43.5zM509 231q15 41 15 92t-29 90.5t-77 55.5q72 -97 91 -238zM129 389q-55 -61 -63 -131v-36q25 62 79 118l-5 10
q-7 22 -11 39zM60 115q0 -36 19.5 -66.5t63.5 -42.5q-55 52 -82 126q-1 -9 -1 -17z" />
    <glyph glyph-name="P" unicode="P" horiz-adv-x="606" 
d="M147 313q-12 15 -12 34t9.5 37.5t28 38t49 37t68.5 30.5q79 29 198 29q26 27 55 33h1q6 0 6 -4q-2 -7 -13.5 -10t-27.5 -20q96 -4 158.5 -35t62.5 -83q0 -48 -52.5 -91t-133.5 -69q-9 -79 -83 -112q-5 -2 -6 2t2 5q33 15 53.5 42.5t25.5 59.5q-61 -18 -136 -24l-9 -27
q-90 -246 -278 -246q-51 0 -79 25.5t-28 62t26 82.5q0 15 3 30q16 97 112 173zM330 292q-52 -12 -99 -12t-75 24q-92 -72 -107 -166l-1 -5q73 82 206 96q6 1 6 -5q-1 -6 -7 -8q-72 -11 -125.5 -46t-81.5 -80q3 -40 22 -62q22 -26 58 -26t69.5 25.5t59.5 74.5q43 82 68 168z
M639 474.5q-54 30.5 -137 33.5q-24 -34 -52 -130q18 -8 25 -12q36 17 70 42q12 9 12 1q0 -12 -68 -51q53 -37 55 -100q71 27 108 64q41 40 41 81t-54 71.5zM196 409.5q-31 -25.5 -36 -42t-5 -26.5t4 -19q91 66 209 68q36 79 60 97q5 3 6 -1t-1 -6q-24 -18 -54 -90
q6 0 14.5 -0.5t20.5 -3.5q36 88 65 123q-59 -1 -116 -15.5t-96.5 -36.5t-70.5 -47.5zM67.5 15q-23.5 21 -31.5 54q-12 -24 -12 -44t10 -36q20 -35 72.5 -35t91.5 22.5t68 62.5q47 67 81 160l39 110l-40 -13l-8 -28q-18 -66 -46 -120.5t-51.5 -85.5t-54 -49.5t-63 -18.5
t-56 21zM537 255q-2 63 -56 98q-30 -16 -45 -23q-26 -90 -31 -104q10 2 27 4q46 3 105 25zM168 314q18 -14 45 -14t53 3t72 13q9 27 26 66q-108 -3 -196 -68zM376 382q-16 -42 -22 -62l40 12q5 15 17 47q-14 2 -20.5 2.5t-14.5 0.5zM467 362l-19 8l-6 -20z" />
    <glyph glyph-name="Q" unicode="Q" horiz-adv-x="535" 
d="M486 93q0 -41 -22 -82.5t-75 -59.5q-23 -8 -46 -8l-90 30q-28 -5 -52 -5q-73 0 -115 33q-44 36 -44 99q0 45 15 97q-18 31 -18 71q0 66 54 122q19 22 48 41q22 48 58.5 82.5t75.5 48.5t76.5 14t66.5 -18q46 -30 46 -93q94 -53 94 -158t-73 -194q1 -10 1 -20zM524 319
q0 84 -63 128q-8 -34 -33.5 -58t-58.5 -25q-4 0 -4 4t4 4q31 1 55 24t30 56q-45 28 -101 28q-127 0 -209 -76q-13 -40 -17 -84q44 50 99 82t109 32q15 0 13 -9q-1 -4 -14 -4q-49 0 -106.5 -40t-102.5 -101l2 -35q12 -148 106 -239q64 12 127 51t105 95q-15 39 -47.5 64
t-67.5 25q-47 0 -72 -47q-1 -2 -3 -2t-3.5 2t-0.5 4q29 53 80 53q39 0 83 -39q25 -22 38 -50q52 73 52 157zM634 -261q-17 -24 -44.5 -36t-40.5 -12q-38 0 -67 6q-43 12 -91 44.5t-84 67.5q-143 139 -207 139q-26 0 -44 -21t-18 -40t5 -33q13 -39 59 -51q11 -3 11.5 -7
t-4.5 -5t-13 2q-78 26 -78 88q0 36 29.5 56.5t56.5 20.5t61 -11.5t81.5 -46.5t83.5 -68.5t89.5 -67.5t108.5 -48q11 -5 24 -5q53 0 74 30q11 16 11 5q0 -3 -3 -7zM347 570q-41 0 -87 -24q-62 -32 -99 -102q86 49 192 49q57 0 103 -24q0 19 -6 35q-18 50 -72 62q-16 4 -31 4z
M111 259q-51 -77 -51 -143q0 -39 20 -68q32 -46 105 -46q11 0 19 0.5t11 0.5q-90 90 -103 244q0 2 -0.5 6t-0.5 6zM272 -24q39 -24 68 -24q80 0 115 62q20 36 20 79v8q-85 -97 -203 -125zM65 236q0 -9 1 -14q15 38 45 78q1 44 12 82q-58 -66 -58 -146z" />
    <glyph glyph-name="R" unicode="R" horiz-adv-x="688" 
d="M327 291q-60 -11 -96 -11t-66.5 17.5t-28.5 53.5q-29 11 -50 32.5t-25 42t-4 41.5t15 52t48 49q37 21 76.5 21t74 -23.5t55.5 -64.5q75 18 162 18q26 27 55 33q7 1 7 -4q-2 -7 -13.5 -10t-27.5 -20q96 -4 158.5 -35t62.5 -83q0 -65 -91 -118.5t-219 -66.5l43.5 -65
l51 -75.5t46.5 -56.5q68 -76 117 -76q38 0 38 48t-29 87q-4 6 0 6t8 -5q32 -37 32 -76t-19.5 -60.5t-51.5 -21.5q-47 0 -97 44q-47 41 -87 116q-15 26 -37 70t-33 63h-2l-9 -27q-90 -246 -278 -246q-79 0 -101 57q-7 18 -7 37q0 40 32 84q61 85 190 107l27 4q6 1 6 -5
q-1 -6 -7 -8q-119 -19 -187 -99q-41 -49 -41 -91q0 -11 2 -21q13 -51 85 -51q93 0 154 85q47 67 81 160l39 109l-42 -13q-22 -122 -95 -230q-30 -44 -71.5 -68t-86.5 -24q-3 0 -8 0.5t-3.5 4.5t5 3.5t6.5 -0.5q43 0 81.5 23t65.5 66q63 95 89 221zM639 474.5
q-54 30.5 -137 33.5q-26 -37 -60 -158q58 26 103 58q12 9 12 1t-10 -14q-61 -42 -111 -65l-29 -97l4 -6q43 5 44 5q113 24 173 70q65 49 65 95.5t-54 77zM194 580q-78 0 -111 -70q-11 -24 -11 -43t3 -33q9 -49 62 -73q7 40 53.5 78t126.5 60q-19 38 -52 59.5t-71 21.5z
M332 315q6 39 6 82.5t-14 84.5q-67 -23 -113 -59.5t-55 -68.5q15 -4 29 -4q41 0 71 30q5 5 6 -2l-1 -4q-32 -32 -75 -32q-15 0 -32 4q-3 -25 24 -37q17 -8 40 -8q58 0 114 14zM333 485q19 -45 19 -89.5t-5 -77.5q20 5 47 14q45 127 85 177q-77 -1 -146 -24z" />
    <glyph glyph-name="S" unicode="S" horiz-adv-x="520" 
d="M471 227q32 -48 32 -91.5t-39 -87.5q-66 -73 -195 -98q-50 -11 -78.5 -11t-39.5 1q7 -57 36.5 -81.5t58.5 -24.5q39 0 73.5 26t38.5 57q0 2 2 3q6 2 6 -4q-4 -28 -28 -52q-41 -41 -105 -41l-17 1q-33 3 -57 33.5t-27 84.5q-51 8 -80 34.5t-29 62.5q0 60 41 98
q-61 57 -61 136.5t61 153.5q42 46 94.5 66.5t100.5 20.5q8 0 17 -1q61 47 141.5 47t115.5 -49q44 46 57 46q5 0 5 -4t-15.5 -15t-39.5 -36q11 -18 11 -35.5t-9 -34.5q-17 -34 -54 -34q-18 0 -19 19q-2 32 49 78q-14 36 -64 47q-17 3 -43 3q-47 0 -102 -37q80 -18 107 -81
q1 -2 -0.5 -4t-3.5 -2t-3 2q-28 63 -106 79q-31 -26 -31 -58q0 -45 49 -87l25 -20q44 26 80 26q38 0 55 -36q7 -15 7 -40.5t-17 -59.5zM270 342q-44 45 -44 86.5t42 77.5h-7q-105 0 -180 -83q-62 -68 -62 -152q0 -75 52 -128q54 47 146 66q37 55 72 85l20 17q-36 28 -39 31z
M207 85q-24 0 -39 2q-11 -31 -15 -65.5t-4 -60.5q20 -4 49.5 -4t69.5 11q98 24 148 82q34 40 34 84q0 28 -10 49q-10 -12 -29 -28q-82 -70 -204 -70zM203 92q112 0 196 70q20 17 35 35q-26 46 -118 110q-21 -18 -22 -19q-34 -30 -66 -76q30 4 47 4t27 -1.5t9 -10.5
q-1 -5 -12 -3t-32 2t-48 -5q-31 -51 -49 -104l18 -2h15zM78 124q-25 -31 -25 -70q0 -18 8 -34q18 -39 70 -55q0 54 24 124q-43 9 -77 35zM461 239q15 33 15 58t-15 41.5t-40.5 16.5t-67.5 -23q80 -59 108 -93zM158 96q20 52 50 100q-84 -17 -124 -65q30 -26 74 -35zM524 484
q-36 -46 -36 -68q0 -8 7 -8q13 0 23.5 16t10.5 31.5t-5 28.5z" />
    <glyph glyph-name="T" unicode="T" horiz-adv-x="464" 
d="M26 2q0 -66 82 -66q24 0 50 7q111 94 168 262q32 91 32 160.5t-23 122.5q-100 23 -125.5 25.5t-51.5 2.5t-54 -12q-10 -29 -10 -52q0 -73 28 -117q6 -1 17 -1q67 0 117 30t62 61q3 10 7.5 5.5t1.5 -11.5q-14 -38 -63.5 -70t-120.5 -32h-4h-4q29 -32 71 -35q4 0 3.5 -3
t-4.5 -3q-49 3 -82 42q-53 5 -87 36q-38 36 -38 73t27 69t85 42q31 49 84 60q8 1 23.5 1t47 -11.5t59.5 -49.5l19 -31q136 -35 155 -39q43 59 86 66q6 1 6 -3q-1 -8 -10 -10q-29 -5 -58 -57q45 -8 84 -8q100 0 157 50q7 5 7 -3t-7 -13q-52 -46 -158 -46q-41 0 -90 7
q-18 -37 -54 -136.5t-57 -146.5q-96 -218 -255 -242q-72 -54 -140 -54q-28 0 -28 5t8.5 4t20.5 -1q61 0 123 44q-8 -1 -25 -1q-78 0 -96 56q-5 15 -5 30q0 42 37 90q75 97 226 113q6 1 6 -5q-1 -6 -7 -8q-123 -19 -197 -102q-46 -51 -46 -95zM353 484q18 -50 18 -117
t-31 -157q-54 -161 -160 -259q98 43 181 230l39 91q57 134 89 183q-71 12 -136 29zM311 530q-27 36 -56 48t-42 12q-60 0 -92 -50q17 2 37 2q56 0 165 -29zM109 337q-27 44 -27 101q0 31 10 61q-55 -26 -55 -79q0 -21 13 -42q19 -31 59 -41z" />
    <glyph glyph-name="U" unicode="U" horiz-adv-x="707" 
d="M-27 398q-19 27 -19 57t22.5 62.5t67.5 48.5q22 8 43 8t42 -8q5 -2 3 -6q-2 -1 -5 -1q-21 8 -41 8q-38 0 -81 -32.5t-43 -79.5q0 -11 4 -24.5t11 -25.5q24 43 73 77q92 64 192 64q67 0 104 -32q40 9 65 9t52.5 -13t34.5 -39q2 -4 2 -8q0 -24 -32.5 -52t-91.5 -49
q-11 -43 -46 -110.5t-55.5 -119.5t-20.5 -91q0 -10 1 -20q67 13 111 57q38 36 48 86q3 10 3 19q0 28 -16 38q-6 4 -2.5 5.5t5.5 0.5q23 -14 23 -54q0 -48 -39 -95q-47 -57 -130 -71q9 -37 48 -37q77 0 173 161q32 53 79 165t87 233q2 11 17 14t28.5 -4t11.5 -20
q-111 -262 -111 -431q0 -99 39 -98q17 1 38 22t35 58q1 2 4 2q6 2 6 -4q0 -29 -42 -73q-26 -29 -53 -29q-13 0 -26 7q-41 21 -43 95v43t13 130q-47 -85 -65 -114q-109 -177 -194 -177q-60 0 -79 54h-5q-42 0 -80 17q-76 34 -99 123q-5 20 -5 43q0 74 48 147q-55 12 -88 41
q-14 -27 -14 -45.5t2 -31.5t15.5 -29t37.5 -25q5 -2 1.5 -6t-9.5 -1q-60 31 -68 74q-2 12 -2 33t15 54zM221 16q-4 16 -4 43.5t15 73.5t51.5 114t48.5 102q-93 -25 -165 -25q-28 0 -42 2.5t-20 2.5q-55 -85 -55 -156t48 -114t114 -43h9zM251 530q-98 0 -189 -74
q-43 -35 -64 -74q34 -28 90 -41q20 27 26 34q80 92 204 131q-25 24 -67 24zM110 337q21 -5 55 -5q79 0 170 27q12 35 12 58t-3 42t-18 39q-115 -39 -196 -136zM354 506q30 -36 30 -87q0 -22 -6 -47q57 22 81 43q31 29 31 52q0 12 -9 22q-23 26 -67 26q-5 0 -23.5 -2
t-36.5 -7z" />
    <glyph glyph-name="V" unicode="V" horiz-adv-x="543" 
d="M247 545q-42 42 -85 42q-23 0 -42 -15q-32 -24 -32 -68q0 -14 4 -31q73 65 155 72zM238 532q-74 0 -142 -75q21 -68 90 -99q53 -24 113 -24q19 0 39 2q-18 125 -78 195q-7 1 -22 1zM274 528q60 -72 78 -190q24 4 34 8q-14 156 -112 182zM1 290q0 93 78 171q-5 18 -5 40
t13 46q24 46 72 46q30 0 57 -16t42 -32h5h3q74 0 111.5 -51t43.5 -136q81 35 110 102q7 15 7 30t-6 20.5t-2 7t10 -3.5q8 -7 8 -25.5t-6 -31.5q-31 -74 -120 -109q1 -13 1 -26q0 -75 -21.5 -167.5t-54.5 -157.5q18 10 40.5 47.5l37.5 64l18.5 32.5l27.5 46.5l40 67l46 73
t53.5 78.5t56 70.5t59.5 62t57 39.5t55 16t39.5 -19t14.5 -39t-5 -19.5t-5 7.5q0 43 -46 43q-80 0 -200 -165q-106 -146 -198 -300q-2 -2 -9 -12.5l-13.5 -20l-15.5 -22.5t-17.5 -23l-16.5 -20q-19 -20 -29 -20q-8 0 -4 6q26 62 41 148.5t15 131.5t-2 67q-9 -2 -34 -7
q5 -41 5 -98.5t-16 -131.5q-27 -117 -84 -185q-2 -2 -4 -2t-3 2.5t1 4.5q52 63 76 179q16 74 16 131t-5 98q-19 -2 -37 -2q-63 0 -120 24q-73 31 -97 94q-58 -71 -58 -152q0 -33 18.5 -61t57 -28t66.5 21.5t37 35.5t9 6q-1 -23 -43.5 -53.5t-85 -30.5t-64 34t-21.5 74z" />
    <glyph glyph-name="W" unicode="W" horiz-adv-x="816" 
d="M591 439q0 23 -12 22q-18 -2 -27 -34t-9 -57t2 -65q46 92 46 134zM77 15q-39 -56 -39 -99q0 -13 9 -24q13 -15 33.5 -15t47 16t50.5 50q60 85 95 233q-125 -62 -196 -161zM505 230q-50 -2 -78 -5.5t-58 -12.5q-33 -122 -102 -261q11 3 18 10q60 59 124 135.5t96 132.5v1z
M552 229q8 -68 11.5 -93.5t3.5 -64t-12 -71.5q16 23 70.5 84.5t83.5 99.5q-60 38 -157 45zM883 468q0 -100 -153 -284q50 -40 50 -87q0 -54 -54 -73q-15 -5 -27 -5q-26 0 -43 23q-1 2 0 4t3 2t4 -2q13 -20 30 -20t29 5q40 14 48 50q1 7 1 13q0 42 -49 81l-68 -77
q-90 -98 -104 -122q-7 -12 -10 9q-2 10 -2 33.5t-14.5 98.5t-16.5 94q-36 -56 -103.5 -140t-118.5 -127q-21 -17 -28 -17q-15 0 -7 18q59 143 82 256q-23 -8 -42 -17q-35 -147 -106 -246q-51 -73 -113 -73q-36 0 -46 32q-3 10 -3 21q0 38 38 92q75 105 215 175
q16 75 16 116.5t-3.5 73.5t-19.5 58.5t-35.5 33t-29.5 6.5q-29 0 -50 -10q-5 -3 -5.5 1.5t2.5 5.5q22 11 44 11t44.5 -7t41.5 -36q25 -39 25 -109t-13 -135v-1q21 11 42 18q11 60 11 112.5t-14 93.5q-30 84 -110.5 84t-142.5 -65.5t-62 -143.5q0 -38 18 -61.5t54 -23.5
t71.5 24t57.5 56l4 4q2 0 2 -2.5t-2 -6.5q-21 -34 -65 -63.5t-83 -29.5t-59.5 27t-20.5 72t20 87q28 61 91.5 101.5t127.5 40.5q123 0 148 -91q10 -36 10 -60t-1.5 -53t-16.5 -89q60 19 132 19v44t13.5 96.5t45.5 81.5q8 5 16 5q27 0 27 -35q0 -48 -59 -149q0 -3 4 -43
q102 -5 166 -49q119 158 119 287q0 42 -18.5 66.5t-60.5 37.5q-9 3 -9 9q-1 5 4.5 5t13.5 -3q61 -20 89 -54.5t28 -73.5z" />
    <glyph glyph-name="X" unicode="X" horiz-adv-x="577" 
d="M-22 274q0 92 92 181q-7 26 -7 44q0 51 31 77q16 12 30 12q62 0 102 -53q16 2 34.5 2t42 -8.5t36.5 -36t17.5 -54t5.5 -68.5q41 26 57 57.5t16 44t-2.5 17.5t1.5 7t8 -5.5t4 -24.5t-12 -41q-21 -41 -71 -67q0 -18 2 -54l169 135q78 61 115.5 103.5t58.5 44.5q6 0 6 -8
q0 -23 -147 -136q-155 -117 -201 -155v-78q0 -97 7.5 -128.5t14.5 -51.5q16 -40 44.5 -38t51.5 16.5t36.5 27.5t42.5 50q6 7 10.5 3t-2.5 -13q-39 -46 -85 -85q-50 -42 -84 -42q-37 0 -54 46q-17 48 -20 93q-4 76 -4 102l2 46q0 10 -1 17l-37 -31l2 -61q0 -115 16 -164.5
t35 -61.5t38 -12q36 0 62 25q3 3 6 0t0 -6q-34 -29 -62.5 -29t-46 9t-28 27.5t-17 37t-9.5 46t-4.5 46t-1.5 45.5t-1 40t-1 47q-209 -181 -296 -340q-22 -40 -41 -40q-6 0 -6 11.5t10 25.5q108 173 333 362q0 84 -1 102q-11 -1 -21 -1q-138 0 -179 107q-69 -75 -69 -159
q0 -33 19.5 -60t60.5 -27t70.5 21t38.5 33.5t10 7.5q-6 -26 -48.5 -54t-88 -28t-68 32.5t-22.5 69.5zM122 382q29 -27 67.5 -35t57 -8t28.5 1q-5 119 -46 178q-77 0 -148 -73q12 -36 41 -63zM217 533q-37 43 -74 43q-20 0 -39 -14q-31 -26 -31 -69q0 -15 4 -32q64 57 134 71
q1 0 3 0.5t3 0.5zM238 518q37 -61 46 -177q20 3 39 9q-3 117 -43 150q-17 15 -42 18zM323 342q-19 -6 -38 -9q3 -42 3 -93l36 30q-1 20 -1 72z" />
    <glyph glyph-name="Y" unicode="Y" horiz-adv-x="707" 
d="M283 528q75 -84 86 -189l26 5q-17 156 -112 184zM247 545q-44 37 -88 37q-36 0 -63 -32q-15 -17 -15 -43.5t15 -55.5q61 82 151 94zM322 336q18 0 36 2q-11 83 -66 159q-17 22 -31 36q-7 1 -14 1l-72 -22q-43 -25 -71 -73q26 -39 82.5 -71t135.5 -32zM44 -244
q39 65 180 128q-12 22 -36 40q-26 20 -58 20q-60 0 -94 -54q-15 -24 -15 -60t23 -74zM58 -264q48 -56 127 -56q60 0 127.5 43.5t113.5 116.5q30 45 54 125q-140 -55 -234 -101q3 -14 3 -38.5t-19 -58.5q-1 -2 -4 -2q-5 0 -3 6q15 26 15 48.5t-4 38.5q-69 -32 -118 -65
q-41 -30 -58 -57zM186 -328q-84 0 -133 55q-6 -12 -6 -23.5t7 -22.5q22 -38 105 -38q45 0 81 12q107 28 190 118t108 216l-42 -17q-23 -86 -55 -136q-50 -75 -121.5 -119.5t-133.5 -44.5zM39 -254q-26 41 -26 81q0 71 62 113q26 18 58 18q38 0 65.5 -21t39.5 -47
q62 27 140.5 55t106.5 39q10 36 23 94q42 191 56 178q2 -4 0 -10q-20 -43 -37.5 -133t-25.5 -122q32 12 40 16q0 6 8 61t17.5 101.5t21.5 90.5q27 107 72 189q-69 -82 -156 -233l-49 -82q-79 -119 -101 -119q-3 0 -4.5 2.5t0.5 4.5q24 59 36 132.5t12 114.5t-2 67
q-9 -2 -23 -4h-4q2 -20 2 -48q0 -128 -44 -263q-1 -5 -4.5 -3t-2.5 5q29 89 37 194q4 39 4 66.5t-2 47.5q-20 -2 -39 -2q-79 0 -137.5 33t-82.5 69q-4 -6 -15.5 -34t-11.5 -56t14.5 -50.5t53 -22.5t74.5 49q4 6 4 1q-7 -22 -36.5 -44t-63 -22t-50 26.5t-16.5 56.5
q0 60 38 109q-16 28 -16 54t9.5 44t27.5 31q24 17 53 17q49 0 99 -43h7q47 0 86 -28q65 -46 73 -166q44 15 71 39.5t29 56.5q0 2 2 3q6 3 6 -4q-6 -70 -107 -103q1 -13 1 -27q0 -67 -18.5 -147.5t-49.5 -141.5q18 8 51 65l27 46.5l21 36.5t38 67.5l57 100.5t66 97.5t81 89.5
q9 8 15.5 5.5t6.5 -7.5t-5 -13q-47 -69 -77.5 -158t-40 -153.5t-14.5 -120t-6 -58.5q28 12 63 32t34 15q-2 -7 -39 -31.5t-63 -36.5q-23 -92 -77 -178t-137 -143q-63 -43 -130 -61q-35 -10 -63 -10q-98 0 -130 55q-11 18 -11 37.5t8 39.5z" />
    <glyph glyph-name="Z" unicode="Z" horiz-adv-x="546" 
d="M536 458q-255 17 -295 17t-78 -16t-41 -50q-2 -13 3.5 -24.5t5.5 -12.5q0 -6 -5 -6l-2 1q-12 20 -12 32q0 46 29.5 72.5t54 31.5t57.5 5t87.5 -6.5t119.5 -16.5t96 -14q38 21 65 21t27 -11q0 -23 -97 -23q-60 -45 -140 -134q93 -50 119 -155q8 -31 8 -60q0 -69 -44 -126
q47 7 76 47q18 24 18 45.5t-6 32.5t-1 14q4 0 5 -1q11 -23 11 -51t-27 -60q-46 -51 -111 -62q-56 -44 -139 -57q-19 -3 -35 -3q-48 0 -71.5 25.5t-23.5 57.5q0 15 5 32l-44 15q-52 -43 -96 -43q-13 0 -25 3q-32 10 -32 34t37 36q20 6 49.5 6t57.5 -6q1 1 54.5 70t79.5 100
q-11 0 -32 -3q-36 -45 -80 -87t-80 -42q-15 0 -28 8q-26 17 -26 57q0 88 85 148q73 52 185 52q21 0 46 -5q79 81 107 94q10 5 10 1.5t-13.5 -10.5t-94.5 -86l29 -9q81 78 152 122zM208 31q44 69 133 69q49 0 58 -22q2 -5 -3 -5q-3 0 -4 2q-11 17 -48 17q-87 0 -129 -63
q144 -48 188 -48l49 -3q13 0 22 3q49 59 49 133q0 24 -5 50q-22 106 -112 153q-32 -34 -72 -81q63 -2 105 -12q5 0 5 -3q-1 -2 -5 -2h-3q-18 3 -57 3t-59 -1q-27 -29 -79.5 -96l-66.5 -84q26 -7 34 -10zM152 174q-2 -3 3 -12l-1 -1q-3 0 -14 11q-5 9 -4 19q4 44 112 46
q68 79 91 103q-19 3 -39 3q-141 0 -218 -92q-44 -53 -44 -104.5t38 -51.5q33 0 82 46q23 22 67 70q-72 -13 -73 -37zM197 -28q0 -29 23 -52.5t67 -23.5q15 0 32 3q72 12 118 47h-25t-62 9t-65 16.5l-83 29.5q-5 -15 -5 -29zM124 25q-41 11 -80 11t-39 -19q0 -15 24 -23
q13 -5 26 -5q36 0 69 36zM263 238l29 -1q49 56 86 93q-16 6 -29 8q-24 -25 -86 -100z" />
    <glyph glyph-name="bracketleft" unicode="[" horiz-adv-x="585" 
d="M164 4l75 5q29 0 29 -12q0 -14 -110 -14t-110 36q0 76 61 222t146 279.5t147 178.5q25 19 70 19q101 0 101 -21q0 -9 -1 -13q-4 -1 -14 -1l-72 4q-43 0 -55 -7q-26 -16 -61 -60q-80 -94 -181.5 -282t-101.5 -278q0 -56 77 -56z" />
    <glyph glyph-name="backslash" unicode="\" horiz-adv-x="551" 
d="M523 -84q0 -32 -26 -32v20q0 85 -51 200.5t-131 229.5q-155 221 -305 375q1 6 20.5 6t44 -20.5t82.5 -94.5t113 -153t115.5 -177.5t99 -194t38.5 -159.5z" />
    <glyph glyph-name="bracketright" unicode="]" horiz-adv-x="556" 
d="M465 716l27 1q26 0 32 -6q14 -12 14 -32q0 -145 -83.5 -344t-186.5 -308q-42 -44 -175 -44q-48 0 -61 2q20 18 31 20.5t14.5 3t17.5 0t41.5 -0.5t61.5 11.5t61 43.5q79 94 159.5 281.5t80.5 298.5q0 13 -4 37q-13 9 -35 9t-104 -5q32 32 109 32z" />
    <glyph glyph-name="asciicircum" unicode="^" horiz-adv-x="323" 
d="M91 245q-8 -2 -8 0.5t0.5 2.5t0.5 1l122 86q15 2 22.5 2t8.5 -2l30 -86q0 -4 -2 -5q-13 0 -15 5l-37 58l-108 -58q-4 -4 -14 -4z" />
    <glyph glyph-name="underscore" unicode="_" horiz-adv-x="760" 
d="M40 -61q-19 0 -19 8q0 5 13 15q15 9 26.5 13t304.5 4t336 -5t43 -12.5t-30 -9.5q-200 -6 -212.5 -7.5t-117.5 -2.5q-313 -3 -326.5 -3h-17.5z" />
    <glyph glyph-name="grave" unicode="`" horiz-adv-x="245" 
d="M79 415q-6 6 -6 18t9 12q5 0 13 -6.5t24 -18.5q26 -18 62 -47q4 -3 4 -7q0 -7 -8 -7q-12 0 -98 56z" />
    <glyph glyph-name="a" unicode="a" horiz-adv-x="269" 
d="M108 142q-29 -39 -41 -68t-12 -43t9 -14q27 0 109 120q32 41 32 -1q-2 -26 -2 -44q0 -76 32 -76q34 0 83 55q3 3 7 -4q-3 -7 -20.5 -24.5t-43.5 -31.5t-39.5 -14t-21.5 3q-37 13 -37 102q-40 -63 -58 -80q-28 -26 -46 -26h-3q-33 5 -33 44.5t25.5 88t67.5 87.5t84 39
q20 0 39 -10q17 -10 17 -31.5t-19 -24.5q7 12 7 22.5t-10 15.5t-18 5q-43 0 -108 -90z" />
    <glyph glyph-name="b" unicode="b" horiz-adv-x="259" 
d="M222 253q31 0 31 -36q0 -21 -9 -62t-36 -83.5t-78 -65.5q-31 -13 -52 -13q-61 0 -61 43q0 19 15 33q7 -65 49 -65h6q25 4 53.5 31.5t49.5 72t21 84.5q0 34 -12 28q-46 -23 -79 -74.5t-34 -102.5q0 -6 -6 -6t-16 10.5t-12 11.5q0 47 24 147.5t66.5 182t95.5 114.5
q5 3 24 8t24 5t6 -1q28 -7 42 -29q5 -7 5 -10t-4 -3t-7 3q-22 18 -52 18h-3q-47 -1 -111.5 -153t-69.5 -217q14 24 53 67t50.5 52.5t26.5 9.5z" />
    <glyph glyph-name="c" unicode="c" horiz-adv-x="199" 
d="M61 -18q-48 0 -48 68q0 21 6 46q20 76 73 133q25 26 46.5 26t39.5 -16q5 -4 9.5 -15.5t1.5 -18.5t-9 6q-6 11 -22 11q-28 0 -57 -46q-53 -85 -53 -135q0 -16 7.5 -28t17.5 -12q61 0 128 77q7 7 7 1t-11.5 -20t-42.5 -37q-51 -40 -93 -40z" />
    <glyph glyph-name="d" unicode="d" horiz-adv-x="306" 
d="M248 202q-20 -55 -20 -110.5t14 -66.5q5 -2 14.5 -2t31.5 12t41.5 28t20.5 14.5t1 -3.5q0 -10 -23 -31t-52.5 -34.5t-43 -13.5t-19.5 2.5t-10 8.5t-5.5 14.5t-2.5 19t0 21.5l2 21.5t2.5 20.5l2.5 17t3 16l-12 -14q-100 -126 -135 -126h-3q-32 5 -32 44q0 13 3 30
q16 70 70.5 127.5t101.5 57.5q19 0 40 -10q14 31 40.5 109t55.5 93q4 2 7 2q11 0 8 -25q0 -3 -15 -32q-49 -97 -62.5 -131.5t-15.5 -38.5q11 -24 -2 -22zM64 70q-10 -25 -10 -39t9 -14q25 0 93 92q34 46 54.5 79.5t20.5 39.5t-21 6t-71.5 -52t-74.5 -112z" />
    <glyph glyph-name="e" unicode="e" horiz-adv-x="225" 
d="M190 235q19 -15 19 -38t-22 -53h20q15 0 -1 -5.5t-30 -8.5q-10 -12 -23 -21.5t-12 -1.5l5 9l10 11q-81 -6 -86 -7q-11 -27 -11 -58t15 -43.5t26 -12.5q69 0 140 75q9 9 9 -1q0 -3 -6 -10q-20 -24 -56 -46q-58 -37 -93.5 -37t-56.5 19.5t-21 59.5q0 14 4.5 37t23 59.5
t45 62t52 25.5t49.5 -15zM166 143q17 35 17 56t-18 21t-44 -25t-41 -54q74 2 86 2z" />
    <glyph glyph-name="f" unicode="f" horiz-adv-x="151" 
d="M205 234q8 0 9 -3.5t-17 -7.5q-59 -12 -87 -12q-27 -66 -40.5 -165.5t-13.5 -146.5q0 -70 22 -92q5 -5 13.5 -9.5t4.5 -6.5q-5 -2 -16 -2t-34 15t-27 50q-2 15 -2 52t20.5 136.5t42.5 164.5q-5 -1 -10 -1q-19 0 -23.5 11t1 12t20 2t18.5 2q50 129 82 181q58 97 118 97
q11 0 22 -3q23 -8 23 -29t-13 -27q5 17 -2 26.5t-22 9.5q-32 -1 -72 -54q-68 -91 -105 -200h88z" />
    <glyph glyph-name="g" unicode="g" horiz-adv-x="258" 
d="M98.5 142.5q-28.5 -39.5 -40.5 -69t-12 -43t9 -13.5q27 0 109 120q32 41 32 -1q-1 -7 -1 -18q0 -38 2 -68q27 18 51.5 40t24.5 15t-13 -21q-43 -43 -62 -55q4 -31 4 -77.5t-15 -105.5q-22 -90 -82 -155q-46 -49 -105 -73q-39 -18 -84 -18q-76 0 -120 44q-30 33 -30 70
q0 77 136 166q60 38 145 84t124 70q-13 64 -17 68q-40 -63 -58 -80q-30 -28 -49 -26q-33 5 -33 44.5t25.5 88t67.5 87.5t84 39q20 0 39 -10q17 -10 17 -31.5t-19 -24.5q7 12 7 22.5t-9.5 15.5t-18.5 5q-21 0 -50.5 -25t-58 -64.5zM-176 -226q-40 -42 -40 -70t20 -48
q28 -28 90 -28q47 0 100 22q65 25 113 76q74 81 74 206q0 40 -7 84q-284 -171 -350 -242z" />
    <glyph glyph-name="h" unicode="h" horiz-adv-x="242" 
d="M164 88q0 -63 22 -63q30 0 82 65q10 12 11.5 13.5t3.5 -4.5l1 -2q-8 -20 -48.5 -60t-68.5 -40q-10 0 -19 5q-25 12 -25 88q0 12 2 33.5t4 23.5q0 1 -2.5 -1.5t-8 -9l-11.5 -13.5t-14 -18t-15 -19q-18 -20 -28 -36q-3 -36 -26 -50q-5 -3 -7.5 -3t-2.5 18.5t13 95.5t24 106
q-31 -8 -33 -25q-2 -12 -6.5 -11.5t-4.5 8.5q0 31 51 46q26 85 76 168t111 129q61 48 124 48q27 0 53 -11q39 -17 55 -57q7 -18 7 -37q0 -58 -57 -101q-40 -31 -107 -61.5t-109.5 -45l-124.5 -40.5q-16 -43 -34 -160q14 21 44 59.5l39 50.5q5 22 23.5 35.5t18.5 -5.5
q0 -5 -6.5 -46t-6.5 -73zM468 501q-19 50 -95 50q-71 0 -139 -49q-30 -21 -67 -76q-21 -32 -35.5 -69.5l-26 -70t-15.5 -42.5q67 19 173.5 68.5t157.5 89t51 77.5q0 11 -4 22z" />
    <glyph glyph-name="i" unicode="i" horiz-adv-x="142" 
d="M138 307q7 0 7 -4.5t-12 -18.5q-26 -32 -51 -12q-4 3 -1 6q35 29 57 29zM61 53q0 -30 18 -30q10 0 49.5 32.5t42.5 35.5t5 1.5t2 -3t-1 -3.5q-15 -25 -63 -60q-32 -26 -54 -26q-34 0 -34 58q0 11 2 31.5t32 126.5q2 8 22.5 8t20.5 -11.5t-7.5 -30t-17.5 -20.5
q-5 -1 -11 -50t-6 -59z" />
    <glyph glyph-name="j" unicode="j" horiz-adv-x="138" 
d="M157 307q7 0 7 -4.5t-12 -18.5q-26 -30 -51 -12q-5 3 -2 6q36 29 58 29zM43 -61.5q-13 -38.5 -31 -68t-48 -45.5t-50.5 -16t-35.5 5t-15 23q0 21 6 22q4 1 3.5 -9t9 -20.5t26.5 -9.5q28 1 50 27t39.5 63.5t29.5 76.5t23 82.5t16.5 75t9.5 57.5l5 25q1 5 8.5 5t19 -4.5
t11.5 -7.5l-2 -10q-7 -54 -26 -56l-13.5 -68l-16 -78.5t-19.5 -69z" />
    <glyph glyph-name="k" unicode="k" horiz-adv-x="207" 
d="M82 163q74 124 163 124q26 0 34 -17q3 -5 -1.5 -6.5t-8.5 4t-20 2.5q-37 -7 -82.5 -51.5t-72.5 -79.5q23 -42 69 -84t81 -50q6 -1 -3 -4q-17 -5 -30.5 -5t-19.5 2.5t-12 4.5t-8.5 3t-7.5 4t-9 6q-5 5 -19 21q-31 40 -53 85q-36 -54 -45 -111v-5q0 -8 -5 -8t-16 11.5
t-13 12.5q0 32 17.5 123t42.5 172q44 144 126 186q25 13 50.5 13t45.5 -30q5 -7 5 -11q0 -6 -11 1q-20 18 -52 18h-3q-44 0 -85 -77q-73 -137 -98 -346q13 42 31 73q-4 8 -4 12q-5 22 0.5 24t8.5 -4t5 -12v-1z" />
    <glyph glyph-name="l" unicode="l" horiz-adv-x="166" 
d="M83 181q-23 -82 -23 -118t9.5 -43t23.5 -7t47 15t51 38t17 11q-1 -10 -6 -18q-18 -23 -59 -43.5t-65 -20.5q-6 0 -11 1q-39 9 -39 71q0 29 9 71q-10 -2 -10 5q0 9 18 28q60 250 158 332q22 18 40 18q39 0 39 -36q-2 -80 -74 -169q-37 -45 -59.5 -69t-65.5 -66zM267 481
q0 25 -13 25q-41 0 -110 -152q-40 -91 -58 -151q55 52 118 138t63 140z" />
    <glyph glyph-name="m" unicode="m" horiz-adv-x="402" 
d="M339 -4q-57 0 -57 85q0 18 10 76q-60 -64 -88 -102q-1 -34 -38 -55q-17 -10 -17 -4q9 27 19 94.5t10 96.5q-2 -2 -38 -49q-78 -100 -86 -123.5t-30 -29.5q-4 -1 -6 -1q-6 0 -6 6q0 2 5.5 25.5l9.5 40.5q14 59 15 81.5t1 33.5t-1.5 30t25.5 31q11 5 18 5q14 0 7.5 -17
t-17.5 -90t-13 -76q39 35 98 134q21 34 36 34q14 0 17 -46q0 -55 -8 -103q8 10 28 33q33 37 66 82q7 24 26 38t18 -9q0 -4 -8 -51t-10.5 -65.5t-2.5 -26.5q0 -33 18 -44q7 -6 21 -6t32 12t31.5 23.5t22 21l16 18.5t8.5 10q5 2 7 -6q-12 -24 -59.5 -65.5t-79.5 -41.5z" />
    <glyph glyph-name="n" unicode="n" horiz-adv-x="253" 
d="M272 21q0 -23 -39 -41q-14 -6 -28 -6q-32 3 -41.5 22.5t-9.5 33.5t2 32.5t7.5 45t14 53t8.5 27.5q-9 -12 -40 -48q-80 -89 -87.5 -110t-29.5 -28q-12 -4 -12 5q0 2 7 29q22 84 22 134l-1 27q0 17 23 28q10 5 18 5q14 0 11 -13.5t-10 -50.5q-16 -87 -20 -95q59 54 127 160
q4 7 12 7q29 0 32 -10q2 -7 -10.5 -44.5t-18.5 -61.5q-15 -61 -15 -87.5t4 -37.5t14 -10q29 4 56 37q4 4 4 -3z" />
    <glyph glyph-name="o" unicode="o" horiz-adv-x="235" 
d="M246 180l47 5q3 0 3 -2t-3 -5l-8 -7q-24 -11 -49 -11t-33 4v-11t-9.5 -39t-28.5 -63t-41 -48t-32.5 -15t-22 3t-25.5 21q-16 18 -16 50.5t10 66.5q37 112 91 117q7 8 17.5 8t27.5 -10q30 -19 33 -47q14 -17 39 -17zM103 173q-20 -35 -29.5 -70t-9.5 -59.5t18 -33.5
q5 -2 11 -2q24 0 54 47q17 27 27 60t10 42t-1 12q-19 3 -30 14t-12 20l-1 9q-17 -4 -37 -39z" />
    <glyph glyph-name="p" unicode="p" horiz-adv-x="226" 
d="M102 -4q-23 0 -23 26q0 34 43 68l28 22l12 11q0 21 -18 59t-32 38q-1 0 -27 -73q-78 -221 -86 -296q0 -3 -1.5 -12l-2.5 -15.5t-1.5 -15.5t0.5 -16t4 -14q4 -14 17.5 -16t13.5 -6q1 -3 -5 -3q-39 0 -54 39q-9 20 -9 37.5t6.5 47.5t35.5 122t53 161l25 68q-1 0 -4 1.5
l-5 2.5q-5 1 -3 7.5t8 12.5q15 13 15 9q3 6 4.5 12t3.5 13q8 21 8 32.5t-2 15t-3 4.5t-3.5 3t-3.5 3q-7 3 -2 4.5t7.5 1.5t13.5 -2.5t21 -13.5t8 -19l-19 -64q61 -39 71 -110q0 -3 18 8q37 22 37 15q-1 -7 -12 -15q-42 -25 -42 -26q-2 -54 -24 -85t-56 -40q-9 -2 -15 -2z
M162 109q-62 -53 -62 -80q0 -12 14 -12q20 0 35 27q14 28 14 57q0 5 -1 8z" />
    <glyph glyph-name="q" unicode="q" horiz-adv-x="232" 
d="M96 142q-29 -39 -41 -68t-12 -43t9 -14q27 0 109 120q20 26 31 17q5 -4 4 -20q-65 -174 -65 -261q0 -60 29 -77q16 -7 28.5 -2.5t18 13.5t8.5 6.5t-1 -11.5q-10 -25 -27 -25h-2q-43 6 -63.5 39t-20.5 70v7q1 83 50 209q-40 -63 -58 -80q-30 -28 -49 -26q-33 5 -33 44.5
t25.5 88t67.5 87.5t84 39q20 0 39 -10q17 -10 17 -31.5t-19 -24.5q7 12 7 22.5t-10 15.5t-18 5q-43 0 -108 -90z" />
    <glyph glyph-name="r" unicode="r" horiz-adv-x="177" 
d="M207 192q-13 17 -27 17q-40 0 -97 -88q-29 -44 -50 -115q-1 -8 -9 -8q-9 0 -9 8l15 106q10 80 11 100.5t27 28.5q8 2 16.5 2t9.5 -9q0 -3 -1 -6.5l-14.5 -53t-17.5 -58.5q24 42 61 81.5t57 39.5h1q27 0 35 -33q2 -8 2 -13.5t-3 -5.5q-3 -1 -7 7z" />
    <glyph glyph-name="s" unicode="s" horiz-adv-x="198" 
d="M14 -28q-36 0 -36 18q0 6 8.5 12.5t24.5 7.5q97 8 104 10q7 11 7 25.5t-27 37.5t-39 48t-12 40t8 28q35 58 82 58q40 0 52 -27q3 -8 0.5 -14t-5.5 -5t-4 6q-2 18 -17 18q-8 0 -19 -5q-41 -16 -57 -56q-4 -10 -4 -21t7 -27t23 -30q28 -24 28 -50q0 -10 -5 -20q51 24 79 44
l2 -1q-1 -13 -50 -39l-28 -16l-11 -7q-10 -19 -65 -29q-28 -6 -46 -6z" />
    <glyph glyph-name="t" unicode="t" horiz-adv-x="167" 
d="M145 242q73 0 73 -9q0 -2 -24 -5q-77 -8 -84 -10q-49 -120 -49 -171q0 -16 6.5 -23.5t15 -6.5t14 2t17 6.5t18.5 8.5q17 8 65 45q17 12 18 5q0 -13 -53.5 -51t-87.5 -38h-2q-31 2 -40 17q-4 8 -4 24t3.5 38.5t15.5 57.5t21.5 60t8.5 25q-11 0 -74 -9q-5 -1 -5 10.5
t10.5 15.5t75.5 7q31 106 46 137q3 7 9 7t17 -14t11 -21t-2 -11l-49 -98q14 1 29 1z" />
    <glyph glyph-name="u" unicode="u" horiz-adv-x="281" 
d="M256 17q30 0 78 54l6 -4q-2 -6 -20 -24.5t-43.5 -32t-39 -13.5t-21.5 3q-18 6 -28.5 35t-12.5 54.5t-1 26.5q-8 -12 -14.5 -23.5t-15.5 -24.5t-20 -26q-35 -46 -60 -46h-3q-38 6 -38 54q0 73 73 182q6 9 18 9t23 -2q15 -6 14 -11q-24 -24 -51 -72q-46 -84 -46 -119
q0 -19 12.5 -19t29 14.5t27.5 29.5l20 27.5t22 33t20 30.5t14.5 15.5t12 1t4 -17t-0.5 -21.5q0 -114 41 -114z" />
    <glyph glyph-name="v" unicode="v" horiz-adv-x="237" 
d="M257.5 188q10.5 0 22.5 9q6 -1 6 -5q0 -10 -10.5 -14t-22 -4t-25.5 8q0 -15 -18.5 -50t-44.5 -63q-64 -71 -111 -71q-8 0 -15 2q-19 4 -19 30.5t9 52.5q24 72 24 92.5t-14 25.5q-9 4 12 33q5 7 27.5 4t22.5 -10q0 -23 -17 -84q-21 -81 -21 -102t11 -21q27 0 80 61
q56 69 61 109q-14 16 -19 34.5t-1.5 30.5t8.5 13t8 1q13 0 18 -14.5t5 -24v-15.5l-3 -20q16 -8 26.5 -8z" />
    <glyph glyph-name="w" unicode="w" horiz-adv-x="407" 
d="M226 64q0 -62 32 -62q22 0 44 27q36 48 36 105q0 13 -2 25l-12 17q-11 16 -10.5 24t4.5 16t21.5 8t23.5 -13q9 -21 68 -21l28 2q6 1 6 -1q0 -7 -40 -16l-16 -3h-10t-36 4q3 -17 3 -43.5t-12.5 -61t-37.5 -57.5q-60 -54 -100 -10q-22 24 -26 76q-3 47 -1 51
q-21 -47 -58 -99q-36 -48 -75 -48q-38 0 -38 41q0 48 40 133q15 30 27 48t36 18q26 0 13 -15q-34 -38 -54.5 -101t-20.5 -83t12 -20q17 0 49 38t63 107q4 9 1 29q2 17 28 20q23 1 23 -13q0 -2 -3 -30q-6 -57 -6 -92z" />
    <glyph glyph-name="x" unicode="x" horiz-adv-x="212" 
d="M-2 -6q0 43 108 115q-12 92 -26 98q-8 1 -18 -9t-13 -2q0 6 12 17t30 18.5t26 -1.5q8 -18 17 -75l3 -19q12 7 51.5 42t55.5 59.5t17 25t2.5 0.5t3 -5t-5.5 -19.5t-26 -33.5l-95 -83q0 -9 3.5 -24t6 -27.5t5.5 -20l7.5 -18t10 -15t11.5 -8.5q13 -8 36 5.5t47 45.5
q3 3 7 -4q-2 -6 -17.5 -24.5t-39.5 -32t-42 -13.5q-61 0 -66 110q-77 -65 -91 -88q-9 -17 -8 -21q3 -6 -2 -8q-10 0 -10 15z" />
    <glyph glyph-name="y" unicode="y" horiz-adv-x="242" 
d="M225 208q0 -28 -18 -107t-31 -108q31 7 34 24q1 6 4.5 9t6 0.5t1.5 -10.5q-4 -29 -54 -41q-30 -83 -84 -163q-98 -144 -214 -163q-12 -2 -33.5 -2t-48.5 13q-38 19 -52 61q-5 17 -5 35.5t9 39.5q15 36 52 61q90 61 349 128q17 40 40 181q-41 -74 -87 -128
q-6 -21 -25 -34.5t-18 6.5q0 5 8 41.5t8 76t-21 39.5q-10 0 -21 -7t-12.5 -1.5t16.5 19t32 13.5t25 -6.5t13.5 -29.5t2.5 -37t-2.5 -32.5t-4.5 -20.5q0 -7 89 118q5 33 28 33q13 0 13 -8zM-41 -91.5q-109 -44.5 -149 -71.5t-54 -48.5t-14 -34.5q0 -52 54 -69q28 -8 48 -8
t41 2.5t47.5 13.5t46 23.5t39 35t31.5 38.5t27 45.5l22 44t20 47t18 42.5q-68 -16 -177 -60.5z" />
    <glyph glyph-name="z" unicode="z" horiz-adv-x="216" 
d="M147 240l92 -2q6 0 11 -3t5 -7q0 -12 -17.5 -28.5t-31.5 -18.5q-133 -113 -157 -160q106 13 135.5 13t39.5 -7.5t7 -17.5t-10 -20.5t-15.5 -18t-12.5 -7.5t-4 3.5t10 13t9 15.5q-2 11 -49 11t-91.5 -4t-45.5 -4h-7q-8 5 -8 12t3 11q7 16 45.5 55.5l84.5 85t58 58.5
q-17 3 -34 3q-63 0 -90 -27q-17 -18 -23 -18q-3 0 -3 5q15 36 34 51q25 6 65 6z" />
    <glyph glyph-name="braceleft" unicode="{" horiz-adv-x="369" 
d="M69 305h-3q43 -5 73 -33.5t30 -71t-19 -122.5t-19 -119t16.5 -58.5t36 -22t38.5 -4t22 -5.5q-2 -3 -22 -3t-41 3t-41 13q-42 19 -42 79q0 42 20 122.5t20 121.5q0 94 -117 96l5 8q85 9 112.5 33t41 57t18.5 67.5l10 72t16 70.5t32 59q44 58 161 58q4 0 6 -2l-8 -3
q-83 0 -120 -43q-31 -35 -43 -104q-15 -90 -29 -137t-57 -89.5t-97 -42.5z" />
    <glyph glyph-name="bar" unicode="|" horiz-adv-x="250" 
d="M181 617l-1 -31q0 -90 -34 -368.5t-59 -314.5q-14 -20 -28 -20q-1 0 -1 4t2 13t4 20q34 140 34 148q37 212 37 435q0 90 -3.5 116.5t-9.5 49.5t-6 34.5t19 11.5q46 0 46 -98z" />
    <glyph glyph-name="braceright" unicode="}" horiz-adv-x="485" 
d="M31 -131q-5 0 -6 2q4 3 49.5 7t71.5 23t45 63.5t29.5 90t31 95t48 76t66.5 45.5t75 23q-46 3 -78.5 25.5t-32.5 66.5t29 130.5t29 119.5t-5.5 45.5t-17 18.5t-21.5 8t-28.5 4t-29.5 4l-2 2l7 4q97 0 121 -32q12 -16 12 -53t-31.5 -125.5t-31.5 -133t30 -61t80 -21.5
l-7 -9q-62 -1 -101.5 -24.5t-57.5 -60.5t-29.5 -81.5t-24.5 -88.5t-35 -80.5t-68 -59.5t-117 -23z" />
    <glyph glyph-name="asciitilde" unicode="~" horiz-adv-x="220" 
d="M205.5 144.5q-12.5 -22.5 -25.5 -57.5t-13 -67.5t17 -30.5q26 2 49 32q4 4 4 -3q0 -9 -9 -18q-23 -23 -49 -23q-16 0 -24 4q-18 9 -18 39q0 37 39 118q11 26 11 28t-1 2q-6 0 -31 -26l-29 -30t-25 -22q-48 -39 -52 -56.5t-20 -22.5t-16 4q0 4 23.5 59.5t23.5 76.5
q0 11 22 23q18 7 17 -5q-4 -20 -20.5 -57.5t-23.5 -49.5q63 56 79.5 75t37 37t27.5 28q5 7 19 5t15 -8t-7 -19t-20.5 -35.5zM242 252q-14 -11 -25 -13.5t-22.5 -2.5t-36 17.5t-38.5 17.5t-26 -10.5t-16 -11.5q-10 0 -10 5t21 20t31.5 18.5t14.5 3.5q18 0 41 -18.5t38 -18.5
h4h1q4 0 22 12.5t18 1.5q-3 -10 -17 -21z" />
    <glyph glyph-name="nbspace" unicode="&#xa0;" horiz-adv-x="184" 
 />
    <glyph glyph-name="exclamdown" unicode="&#xa1;" horiz-adv-x="277" 
d="M237 176q0 -13 -9 -22t-22.5 -9t-23 9t-9.5 22t9.5 22t23 9t22.5 -9t9 -22zM-44 -357q-1 -4 -7.5 -4t-17 7t-17 14.5t-6.5 9.5t34.5 50t98 146t98.5 198q6 17 18.5 17t12.5 -12q0 -17 -84 -182t-130 -244z" />
    <glyph glyph-name="cent" unicode="&#xa2;" horiz-adv-x="211" 
d="M99 365q-38 -52 -38 -102.5t36 -50.5q51 0 110 117q5 8 8 8t3 -4.5t-1 -7.5q-26 -60 -48 -86q-33 -37 -75 -38l-30 -70q-25 -63 -25 -88.5t13 -29.5q7 -1 7 -6t-3.5 -5t-6.5 1q-24 7 -24 40t24 88l30 70q-56 5 -56 62.5t40.5 116t93.5 58.5h4l24 61q29 70 39 70
q2 0 2 -6.5t-3 -11.5t-18 -44l-27 -72q35 -12 35 -50q-2 -19 -11.5 -30.5t-24 -11.5t-23.5 9.5t-9 22.5q2 30 29 30h3q17 0 22 -12q2 11 -3 19q-6 10 -19.5 10t-32.5 -13q-25 -16 -45 -44z" />
    <glyph glyph-name="sterling" unicode="&#xa3;" horiz-adv-x="382" 
d="M216 229q-34 0 -51 -13q-3 0 -5 8.5t0 10.5q16 13 41 13t43 -3q69 292 167 292q19 0 37 -13q24 -18 24 -52.5t-14.5 -73.5t-39.5 -69q-5 -5 -8 -5q-8 0 -1 11q53 76 53 129t-32.5 53t-59.5 -35q-44 -59 -60 -164l-13 -82q19 -3 31 -3t21 3l12 5q3 0 5 -9t0 -11
q-14 -7 -33 -7t-40 4q-28 -144 -100 -210q23 -19 70.5 -44t72 -32.5t50 -7.5t43.5 17q19 14 19 41q0 9 -1 16.5t1 7.5q6 0 6 -23q0 -67 -79 -67q-33 0 -65.5 10.5t-81 31.5t-69.5 34q-25 -18 -52 -18t-55 15q-33 19 -39 51q-2 7 -2 18.5t11.5 23.5t35.5 12t58 -22
q32 -24 58 -47q22 34 40 95q0 1 26 107q-18 2 -24 2zM148 0q-91 72 -111.5 72t-20.5 -17q0 -28 25 -49q30 -24 58.5 -24t48.5 18z" />
    <glyph glyph-name="currency" unicode="&#xa4;" horiz-adv-x="585" 
d="M180 267q0 48 33 82l-76 121l113 -93q30 18 65.5 18t59.5 -18l158 96l-133 -126q9 -17 9 -36q0 -45 -33 -79l78 -121l-113 94q-33 -18 -67 -18t-59 17l-157 -97l131 126q-9 15 -9 34zM297 367q-29 0 -52 -22.5t-23 -55.5t20.5 -54t49.5 -21t53 22t24 55t-21.5 54.5
t-50.5 21.5z" />
    <glyph glyph-name="yen" unicode="&#xa5;" horiz-adv-x="481" 
d="M476 361q0 1 0.5 9.5t-10 19.5t-25.5 11q-49 0 -152 -182h70q1 0 1 -3t-4 -7t-8 -4h-67q-4 -10 -35 -63h67q2 0 2 -2.5t-4.5 -7.5t-7.5 -5h-66q-42 -63 -80 -101q-55 -55 -111 -55q-13 0 -13 4t10 4q39 0 92 57q30 35 68 91h-152q-2 0 -2 2.5t5 7.5t7 5h152l3 5
q0 26 -5 58h-94q-2 0 -2 2t4.5 7t7.5 5h82q-7 49 -29 91q-30 57 -68 57q-24 0 -40 -24.5t-16 -45t9 -38.5l8 -17q0 -5 -3 -5t-5 2q-17 25 -17 55t17 54q18 28 52.5 28t64.5 -36q51 -60 58 -155l13 20q0 1 1 2.5t2.5 4t4.5 7t12.5 20.5t14.5 23q94 148 153 148q19 0 31.5 -13
t12.5 -28.5t-5 -15.5t-5 4z" />
    <glyph glyph-name="brokenbar" unicode="&#xa6;" horiz-adv-x="323" 
d="M285 499l-62 -284l-32 3l60 281h34zM207 144l-60 -298h-35l64 301z" />
    <glyph glyph-name="section" unicode="&#xa7;" horiz-adv-x="440" 
d="M177 -71l15 4q4 0 4 -4q0 -8 -15 -8q-49 16 -62 42q-57 9 -88 40q-35 32 -35 87t31.5 101.5t72.5 63t84.5 16.5t74.5 -27q38 41 58 74v9q0 48 12 74q-6 24 -6 38q0 32 24 32q22 0 22 -26.5t-20 -74.5q6 -11 40.5 -62.5t41 -78.5t6.5 -53q0 -64 -35 -115.5t-96 -51.5
q-12 0 -25 3q-65 -51 -137 -51q-5 0 -17 2q16 -24 42 -32q4 -2 8 -2zM173 261q-63 0 -113.5 -54t-50.5 -120q0 -43 30 -78q31 -33 75 -36q-5 13 -5 42t19 76q-16 15 -16 37q0 7 5 20q4 13 10 13q3 0 -3.5 -11.5t-6.5 -25.5t14 -28q31 69 116 138q-30 27 -74 27zM321 201
q0 65 -4 105q-18 -28 -54 -66q22 -22 22 -56.5t-18 -61.5t-48 -39q6 -34 40 -53q62 65 62 171zM213 80q-18 -6 -40 -6t-38 11q-20 -43 -20 -68t7 -44q77 0 133 53q-35 21 -42 54zM217 92q23 14 38.5 37.5t15.5 50.5t-19 49q-84 -72 -115 -138q15 -12 36 -12t38 10
q-1 3 -1 19t15 32q1 1 2.5 1t1.5 -3l-6 -11q-6 -9 -6 -26v-9zM393 157q1 7 1 39t-14 76q-1 5 -36 85q-2 -5 -11 -26l19 -81.5t11 -84.5q0 -83 -74 -146q40 0 71.5 48.5t32.5 89.5zM346 376q16 39 16 62.5t-13 23.5q-20 0 -20 -24.5t17 -61.5zM332 390q-4 -8 -4 -20.5
t3 -27.5l10 22q-6 13 -9 26z" />
    <glyph glyph-name="dieresis" unicode="&#xa8;" horiz-adv-x="185" 
d="M155 309q0 -22 -21 -22q-23 0 -23 22t22 22t22 -22zM69 309q0 -22 -21 -22q-23 0 -23 22t22 22t22 -22z" />
    <glyph glyph-name="copyright" unicode="&#xa9;" horiz-adv-x="369" 
d="M326 323q49 -49 49 -126.5t-63 -140.5t-141.5 -63t-127.5 48.5t-49 126.5t63 140.5t141 62.5t128 -48zM304 63q59 59 59 133t-45.5 119.5t-120 45.5t-132.5 -59q-60 -58 -60 -132t46 -120t119 -46t134 59zM315 260q0 -22 -38 -36q-29 -9 -70.5 -9t-78.5 22
q-45 -49 -45 -108q0 -32 15 -53q16 -25 47 -25q59 0 96 56q12 18 12 33t-9 24t-23 9q-29 0 -41 -28q-1 -4 -3 -4t-2 2l1 3q7 31 47 31q17 0 28 -11t11 -27q0 -37 -38.5 -64.5t-79 -27.5t-63 23t-22.5 63q0 65 53 115q-21 18 -21 38q0 37 44 37q30 0 44 -14v-4q-22 12 -38 12
q-42 0 -42 -34q0 -16 16 -32q53 48 128 48q25 0 46 -8q26 -9 26 -31zM307 263q0 31 -61.5 31t-114.5 -54q35 -20 73.5 -20t62.5 8q40 12 40 35z" />
    <glyph glyph-name="ordfeminine" unicode="&#xaa;" horiz-adv-x="249" 
d="M113 282q-27 0 -30 39q-14 -20 -26.5 -30t-21.5 -10q-12 0 -12 15.5t9 28.5q21 33 49 46q13 5 26.5 5t13.5 -11q0 -2 -4 -3.5t-4 -2.5q-13 -22 -13 -45t20.5 -23t50.5 33q7 5 7 0q0 -2 -2 -4q-36 -38 -63 -38zM45 325q-6 -14 -6 -21t6 -7t19.5 11t19.5 27q3 17 9 29
q-27 0 -48 -39z" />
    <glyph glyph-name="guillemotleft" unicode="&#xab;" horiz-adv-x="301" 
d="M318 198q-8 -14 -51 -45l-56 -40l-1 -90l-3 -7l-5 -2l-5 2q-7 12 -14 50l-12 53q138 86 142 86l4 -2zM222 198q-8 -12 -51 -45l-57 -40l-1 -90l-3 -7l-5 -2q-1 0 -5 2q-5 13 -14 52t-11 51q136 86 142 86l4 -2z" />
    <glyph glyph-name="logicalnot" unicode="&#xac;" horiz-adv-x="539" 
d="M394 9q-6 0 -9.5 4.5t-3.5 10.5l28 129h-348q-14 0 -14 8q0 5 7.5 14.5t12.5 9.5h379l-34 -161q-3 -15 -18 -15z" />
    <glyph glyph-name="registered" unicode="&#xae;" horiz-adv-x="369" 
d="M326 323q49 -49 49 -126.5t-63 -140.5t-141.5 -63t-127.5 48.5t-49 126.5t63 140.5t141 62.5t128 -48zM304 63q59 59 59 133t-45.5 119.5t-120 45.5t-132.5 -59q-60 -58 -60 -132t46 -120t119 -46t134 59zM109 218l2 2q2 0 2 -2.5t-5 -2.5q-13 0 -13 13t10.5 21.5
t25.5 8.5t25.5 -10.5t10.5 -32.5t-19 -38t-44 -16t-42 14q-16 15 -16 35q0 60 71 88q34 14 76.5 14t69.5 -9q25 16 48 16l3 -1l-1 -1q-28 -3 -45 -16q42 -15 42 -45t-26.5 -46.5t-58.5 -19.5q4 -10 6.5 -35.5t5.5 -47t12.5 -24t11.5 -2.5q16 0 34.5 21t23.5 41h3l1 -1
q-10 -26 -29.5 -47.5t-39.5 -21.5q-8 0 -16 6q-18 12 -21 51q-3 58 -3 59h-8q-7 0 -10 1q-22 -53 -41 -75q-38 -48 -94 -48q-28 0 -28 18.5t18 18.5q5 0 5 -2.5t-1 -2.5h-3q-1 1 -3 1q-10 0 -10 -13q0 -16 24 -16q42 0 76 48q14 22 43 84q33 66 75 96q-26 8 -60 8
q-93 0 -127 -58q-11 -19 -11 -38t12 -32.5t33.5 -13.5t37.5 16q17 14 17 38q0 35 -32 35q-10 0 -19.5 -8t-9.5 -19q0 -9 11 -9zM223 195q28 5 49 20t21 41t-31 41q-28 -25 -57 -86q12 -5 18 -16zM213 194q-4 9 -10 13l-5 -13h15z" />
    <glyph glyph-name="macron" unicode="&#xaf;" horiz-adv-x="323" 
d="M288 301l-14 -32h-155l14 32h155z" />
    <glyph glyph-name="degree" unicode="&#xb0;" 
 />
    <glyph glyph-name="plusminus" unicode="&#xb1;" horiz-adv-x="305" 
d="M149 193l54 -1q4 19 23 97q3 14 14 14q6 0 5 -12q-8 -35 -20 -99q48 0 86 -1q12 0 12 -9t-21 -9t-81 -4q-6 -27 -16 -91q0 -3 -7.5 -7t-14.5 -4q-13 0 -10 11l24 90q-37 -1 -95 -6q-7 0 -7 16t16.5 16t37.5 -1zM99 47l68 -2l106 -4q14 0 14 -10q0 -8 -12 -8
q-108 0 -142.5 -4t-36.5 -4t-4 6q-4 5 -4 13q0 13 11 13z" />
    <glyph glyph-name="twosuperior" unicode="&#xb2;" horiz-adv-x="238" 
d="M158 189q-2 -1 -3.5 -1t-1.5 3.5t7 6.5t7 10t-18.5 13t-34.5 6h-7q-30 0 -93 -23q-8 -3 -14.5 -3t-6.5 7t9.5 15.5t21.5 8.5q36 13 91 49t80.5 69.5t25.5 52.5q0 23 -26 23q-15 0 -37 -9q-59 -25 -73 -68q-2 -5 -5 -5q-1 0 -1 6q6 31 42.5 58.5t62.5 27.5t37.5 -12
t11.5 -35t-21 -48q-21 -22 -53 -42q-65 -39 -92 -61q107 0 104 -31q0 -13 -13 -18z" />
    <glyph glyph-name="threesuperior" unicode="&#xb3;" horiz-adv-x="238" 
d="M31 218q0 -25 44 -25t84 32q22 18 22 35t-26 26t-47 8.5t-21 5t39 9.5t45 6q68 17 68 58q0 18 -19 34q-20 14 -50 14t-61 -14q-36 -18 -39 -44q0 -6 -4.5 -6t-4.5 7q1 30 40 46.5t75 16.5t58.5 -15t22.5 -36q0 -44 -78 -68l-41 -8q30 0 45.5 -11.5t15.5 -33t-36 -47.5
t-88.5 -26t-52.5 37q0 23 27 28q5 0 5 -2.5t-5.5 -2.5t-11.5 -7t-6 -17z" />
    <glyph glyph-name="acute" unicode="&#xb4;" horiz-adv-x="178" 
d="M82.5 317l41 30.5t27 7.5t16.5 -13q0 -3 -3.5 -9t-59 -32t-61.5 -26t-6 3.5t1 5.5z" />
    <glyph glyph-name="mu" unicode="&#xb5;" horiz-adv-x="216" 
d="M179 -5q-35 0 -35 38q0 18 7 36q-46 -73 -85 -73q-22 0 -31 19l-86 -188q-1 -2 -13 -2q-22 0 -22 7l129 253l32 66q20 39 37 64h1q4 -4 14 -4t29 14l1 -1q-10 -12 -25 -38q-28 -50 -38 -66q-39 -66 -39 -99q0 -18 16 -18q38 0 104 117q18 33 51 99h1q10 -5 21 -5t17 13h2
l-52 -101q-46 -86 -46 -105.5t11 -19.5q23 0 49 36.5t41 71.5h4l1 -2q-51 -112 -96 -112z" />
    <glyph glyph-name="paragraph" unicode="&#xb6;" horiz-adv-x="269" 
d="M123 298q0 15 8 39q24 64 89 90q24 9 68 9h115l-12 -33h-14l-147 -403h-45l148 403h-33l-147 -403h-45l89 242q-74 0 -74 56z" />
    <glyph glyph-name="periodcentered" unicode="&#xb7;" horiz-adv-x="549" 
 />
    <glyph glyph-name="cedilla" unicode="&#xb8;" horiz-adv-x="253" 
d="M189 -37q28 -15 28 -41.5t-34 -48.5q-17 -12 -43 -12t-59 8t-33 23q0 5 3 5t11 -8q16 -16 61 -16t60 24q10 13 10 28.5t-15.5 26t-31.5 10.5t-34 -8l-17 -8q-13 0 -13 10q0 3 3 6l26 21q24 18 26.5 18t3.5 -6q-29 -21 -29 -23q18 2 35.5 2t41.5 -11z" />
    <glyph glyph-name="onesuperior" unicode="&#xb9;" horiz-adv-x="244" 
d="M69 221q-1 -4 -7.5 -4t-6.5 6q0 3 1 4l43 90q23 51 38 91q-17 -8 -28 -19.5t-13.5 -11.5t-2.5 2q0 7 78 80h4q7 0 11 -4.5t4 -7.5l-58 -96q-40 -74 -63 -130z" />
    <glyph glyph-name="ordmasculine" unicode="&#xba;" horiz-adv-x="182" 
d="M47 303q0 -19 12 -19q16 0 28 17q-24 3 -38 20q-2 -14 -2 -18zM91 308q12 22 12 46.5t-22 26.5q-15 -17 -26 -41q6 -28 36 -32zM89 390q0 -2 -4 -4q28 -9 28 -37.5t-12 -40.5q31 0 51 20q2 2 3.5 2t1.5 -2.5t-3 -5.5q-25 -22 -57 -22q-21 -25 -45 -25q-22 0 -22 23t10 47
l-1 12q0 27 27 30q8 9 15.5 9t7.5 -6z" />
    <glyph glyph-name="guillemotright" unicode="&#xbb;" horiz-adv-x="301" 
d="M165 100l-136 -85l-5 -1q-3 0 -5 1l-1 3q0 9 53 48l55 39l1 91l3 6l5 3l6 -3q7 -15 14 -51zM115 21q14 20 108 84v30q-1 13 -1 23t0.5 25t3.5 19l5 3l6 -3q2 -2 25 -102l-137 -85l-5 -1l-5 1v6z" />
    <glyph glyph-name="onequarter" unicode="&#xbc;" horiz-adv-x="415" 
d="M338 113q37 -5 37 -11.5t-6 -6.5v1q0 -1 -2 -1h-3l-11 2q-10 2 -18 2h-12q-7 -11 -36 -74l-16 -32q-3 -9 -8 -14q-7 0 -7 9t21 53l27 58q-2 2 -6 2q-54 0 -105 -17q-8 0 -8 9q0 5 15 16l20 12l95 67t77 73q13 0 13 -24v-8q-8 -6 -39 -58q-33 -51 -33 -56q2 -1 5 -2z
M415 444l-390 -507h-21l389 507h22zM106 221q-1 -4 -7.5 -4t-6.5 6q0 3 4 10t11 22l15 33.5t23 50t29 69.5q-15 -7 -27 -19t-15 -12q-1 0 -1 2q0 7 77 80h4q7 0 12.5 -5.5t2.5 -8.5q-23 -32 -58.5 -94.5t-62.5 -129.5zM275 118q35 0 36 -1q9 0 54 97q-26 -23 -68 -53.5
t-56 -42.5h34z" />
    <glyph glyph-name="onehalf" unicode="&#xbd;" horiz-adv-x="415" 
d="M415 444l-390 -507h-21l389 507h22zM370 -17q-2 -1 -4 -1t-2 3.5t7.5 7t7.5 9.5t-21 13t-47.5 6t-60.5 -13.5t-37 -12.5q-8 0 -8 6q0 9 9.5 17t20.5 8q37 12 91 48.5t80.5 69t26.5 54.5t-26 22q-16 0 -38 -9q-58 -25 -72 -68q-1 -4 -5 -4q-2 0 -1 5q6 30 42 59
q36 27 63 27q49 0 49 -43q0 -46 -68 -90q-59 -33 -98 -65q106 0 104 -31q-2 -14 -13 -18zM106 221q-1 -4 -7.5 -4t-6.5 6q0 3 4 10t11 22l15 33.5t23 50t29 69.5q-15 -7 -27 -19t-15 -12q-1 0 -1 2q0 7 77 80h4q7 0 11.5 -4.5t4.5 -6.5t-12 -18.5t-47.5 -79t-62.5 -129.5z
" />
    <glyph glyph-name="threequarters" unicode="&#xbe;" horiz-adv-x="415" 
d="M338 113q37 -5 37 -11.5t-6 -6.5v1q0 -1 -2 -1h-3l-11 2q-10 2 -18 2h-12q-7 -11 -36 -74l-16 -32q-3 -9 -8 -14q-7 0 -7 9t21 53l27 58q-2 2 -6 2q-54 0 -105 -17q-8 0 -8 9q0 5 15 16l20 12l95 67t77 73q13 0 13 -24v-8q-8 -6 -39 -58q-33 -51 -33 -56q2 -1 5 -2z
M415 444l-390 -507h-21l389 507h22zM31 218q0 -25 44 -25t84 32q22 18 22 35t-26 26t-47 8.5t-21 5t39 9.5t45 6q68 17 68 58q0 18 -19 34q-20 14 -50 14t-61 -14q-36 -18 -39 -44q0 -6 -4.5 -6t-4.5 7q1 30 40 46.5t75 16.5t58.5 -15t22.5 -36q0 -44 -78 -68l-41 -8
q30 0 45.5 -11.5t15.5 -33t-36 -47.5t-88.5 -26t-52.5 37q0 23 27 28q5 0 5 -2.5t-5.5 -2.5t-11.5 -7t-6 -17zM275 118q35 0 36 -1q9 0 54 97q-26 -23 -68 -53.5t-56 -42.5h34z" />
    <glyph glyph-name="questiondown" unicode="&#xbf;" horiz-adv-x="400" 
d="M340 176q0 -13 -9 -22q-11 -9 -23 -9t-23 9q-9 9 -9 22t9 22q11 9 23 9t23 -9q9 -9 9 -22zM72 -356q-26 0 -53.5 19t-27.5 50q0 47 44 94q27 32 96 82q79 61 96 76q41 38 41 75v3q0 8 -8 8q3 8 4.5 17t13.5 9t17.5 -10t5.5 -20q0 -39 -36 -81t-97.5 -97.5t-98.5 -94.5
t-37 -70t32 -31q76 0 152 48.5t100 82.5q5 7 14 7t9 -10q0 -7 -7 -17q-27 -38 -107.5 -89t-152.5 -51z" />
    <glyph glyph-name="Agrave" unicode="&#xc0;" horiz-adv-x="769" 
d="M666 566q37 0 37 -47q0 -25 -12.5 -134.5t-15.5 -172.5q50 3 62 11t12.5 2t-17 -16.5t-57.5 -16.5v-62q0 -97 33 -129q12 -12 20.5 -12t20 3.5t29.5 23t31 49.5q4 9 7.5 7.5t3.5 -4.5t-1 -7q-13 -37 -41 -62q-61 -56 -109 -13q-25 22 -31.5 64t-6.5 76.5t1 60.5
q-15 -1 -125 -1q-53 -58 -114 -109q7 -1 15 -1q72 0 128 74q4 5 6 -1v-4q-60 -79 -134 -79q-13 0 -25 2q-156 -125 -266 -125q-59 0 -91 33q-20 22 -20 54q0 47 33.5 80t80 48.5t121.5 27.5q-25 57 -25 113q0 152 86 223q46 37 94 37q17 0 35 -5q63 -16 83 -82q8 -25 8 -54
q0 -96 -80 -215h45q20 20 79 102.5t89 120.5q10 65 10 84q0 35 -18 35q-21 0 -56 -41q-19 -22 -23 -31t-10 -5q-6 8 18 38q50 60 90 60zM470 272q38 78 38 130t-19 86q-32 58 -97.5 58t-113 -66t-47.5 -181q0 -60 24 -111q91 13 174 14q24 35 41 70zM19 42q0 -28 28 -48
q35 -26 93 -26q105 0 221 105l-23 9q-103 -90 -200 -90q-29 0 -57 8q-5 1 -3 5t5 3q117 -31 245 80q-46 27 -75 77q-96 -19 -144 -34q-90 -31 -90 -89zM525 208q14 -1 39.5 -1t69.5 2q3 78 19 183q-25 -44 -47.5 -74.5l-46 -63t-34.5 -46.5zM418 187q-74 -7 -152 -20
q30 -49 71 -71q43 39 81 91zM455 189q-11 0 -23 -1q-39 -57 -85 -98q13 -5 23 -8q21 20 56 56.5t49 49.5q-9 1 -20 1zM599 648q-6 6 -6 18t9 12q5 0 15 -8l84 -64q4 -3 4 -7q0 -7 -8 -7q-12 0 -98 56z" />
    <glyph glyph-name="Aacute" unicode="&#xc1;" horiz-adv-x="769" 
d="M666 566q37 0 37 -47q0 -25 -12.5 -134.5t-15.5 -172.5q50 3 62 11t12.5 2t-17 -16.5t-57.5 -16.5v-62q0 -97 33 -129q12 -12 20.5 -12t20 3.5t29.5 23t31 49.5q4 9 7.5 7.5t3.5 -4.5t-1 -7q-13 -37 -41 -62q-61 -56 -109 -13q-25 22 -31.5 64t-6.5 76.5t1 60.5
q-15 -1 -125 -1q-53 -58 -114 -109q7 -1 15 -1q72 0 128 74q4 5 6 -1v-4q-60 -79 -134 -79q-13 0 -25 2q-156 -125 -266 -125q-59 0 -91 33q-20 22 -20 54q0 47 33.5 80t80 48.5t121.5 27.5q-25 57 -25 113q0 152 86 223q46 37 94 37q17 0 35 -5q63 -16 83 -82q8 -25 8 -54
q0 -96 -80 -215h45q20 20 79 102.5t89 120.5q10 65 10 84q0 35 -18 35q-21 0 -56 -41q-19 -22 -23 -31t-10 -5q-6 8 18 38q50 60 90 60zM470 272q38 78 38 130t-19 86q-32 58 -97.5 58t-113 -66t-47.5 -181q0 -60 24 -111q91 13 174 14q24 35 41 70zM19 42q0 -28 28 -48
q35 -26 93 -26q105 0 221 105l-23 9q-103 -90 -200 -90q-29 0 -57 8q-5 1 -3 5t5 3q117 -31 245 80q-46 27 -75 77q-96 -19 -144 -34q-90 -31 -90 -89zM525 208q14 -1 39.5 -1t69.5 2q3 78 19 183q-25 -44 -47.5 -74.5l-46 -63t-34.5 -46.5zM418 187q-74 -7 -152 -20
q30 -49 71 -71q43 39 81 91zM455 189q-11 0 -23 -1q-39 -57 -85 -98q13 -5 23 -8q21 20 56 56.5t49 49.5q-9 1 -20 1zM674.5 640l41 30.5t27 7.5t16.5 -13q0 -3 -3.5 -9t-59 -32t-61.5 -26t-6 3.5t1 5.5z" />
    <glyph glyph-name="Acircumflex" unicode="&#xc2;" horiz-adv-x="769" 
d="M666 566q37 0 37 -47q0 -25 -12.5 -134.5t-15.5 -172.5q50 3 62 11t12.5 2t-17 -16.5t-57.5 -16.5v-62q0 -97 33 -129q12 -12 20.5 -12t20 3.5t29.5 23t31 49.5q4 9 7.5 7.5t3.5 -4.5t-1 -7q-13 -37 -41 -62q-61 -56 -109 -13q-25 22 -31.5 64t-6.5 76.5t1 60.5
q-15 -1 -125 -1q-53 -58 -114 -109q7 -1 15 -1q72 0 128 74q4 5 6 -1v-4q-60 -79 -134 -79q-13 0 -25 2q-156 -125 -266 -125q-59 0 -91 33q-20 22 -20 54q0 47 33.5 80t80 48.5t121.5 27.5q-25 57 -25 113q0 152 86 223q46 37 94 37q17 0 35 -5q63 -16 83 -82q8 -25 8 -54
q0 -96 -80 -215h45q20 20 79 102.5t89 120.5q10 65 10 84q0 35 -18 35q-21 0 -56 -41q-19 -22 -23 -31t-10 -5q-6 8 18 38q50 60 90 60zM470 272q38 78 38 130t-19 86q-32 58 -97.5 58t-113 -66t-47.5 -181q0 -60 24 -111q91 13 174 14q24 35 41 70zM19 42q0 -28 28 -48
q35 -26 93 -26q105 0 221 105l-23 9q-103 -90 -200 -90q-29 0 -57 8q-5 1 -3 5t5 3q117 -31 245 80q-46 27 -75 77q-96 -19 -144 -34q-90 -31 -90 -89zM525 208q14 -1 39.5 -1t69.5 2q3 78 19 183q-25 -44 -47.5 -74.5l-46 -63t-34.5 -46.5zM418 187q-74 -7 -152 -20
q30 -49 71 -71q43 39 81 91zM708.5 690q7.5 0 8.5 -2l30 -86q0 -4 -2 -5q-13 0 -15 5l-37 58l-108 -58q-4 -4 -14 -4q-8 -2 -8 2l1 2l122 86q15 2 22.5 2zM455 189q-11 0 -23 -1q-39 -57 -85 -98q13 -5 23 -8q21 20 56 56.5t49 49.5q-9 1 -20 1z" />
    <glyph glyph-name="Atilde" unicode="&#xc3;" horiz-adv-x="769" 
d="M666 566q37 0 37 -47q0 -25 -12.5 -134.5t-15.5 -172.5q50 3 62 11t12.5 2t-17 -16.5t-57.5 -16.5v-62q0 -97 33 -129q12 -12 20.5 -12t20 3.5t29.5 23t31 49.5q4 9 7.5 7.5t3.5 -4.5t-1 -7q-13 -37 -41 -62q-61 -56 -109 -13q-25 22 -31.5 64t-6.5 76.5t1 60.5
q-15 -1 -125 -1q-53 -58 -114 -109q7 -1 15 -1q72 0 128 74q4 5 6 -1v-4q-60 -79 -134 -79q-13 0 -25 2q-156 -125 -266 -125q-59 0 -91 33q-20 22 -20 54q0 47 33.5 80t80 48.5t121.5 27.5q-25 57 -25 113q0 152 86 223q46 37 94 37q17 0 35 -5q63 -16 83 -82q8 -25 8 -54
q0 -96 -80 -215h45q20 20 79 102.5t89 120.5q10 65 10 84q0 35 -18 35q-21 0 -56 -41q-19 -22 -23 -31t-10 -5q-6 8 18 38q50 60 90 60zM470 272q38 78 38 130t-19 86q-32 58 -97.5 58t-113 -66t-47.5 -181q0 -60 24 -111q91 13 174 14q24 35 41 70zM19 42q0 -28 28 -48
q35 -26 93 -26q105 0 221 105l-23 9q-103 -90 -200 -90q-29 0 -57 8q-5 1 -3 5t5 3q117 -31 245 80q-46 27 -75 77q-96 -19 -144 -34q-90 -31 -90 -89zM525 208q14 -1 39.5 -1t69.5 2q3 78 19 183q-25 -44 -47.5 -74.5l-46 -63t-34.5 -46.5zM418 187q-74 -7 -152 -20
q30 -49 71 -71q43 39 81 91zM715 604q-14 0 -38 11t-39 11t-24 -19q-2 -2 -7.5 -1t-5.5 2q23 43 51 43q15 0 39 -11q27 -10 41.5 -10t22.5 20q1 2 6.5 1.5t5.5 -1.5q0 -46 -52 -46zM455 189q-11 0 -23 -1q-39 -57 -85 -98q13 -5 23 -8q21 20 56 56.5t49 49.5q-9 1 -20 1z
" />
    <glyph glyph-name="Adieresis" unicode="&#xc4;" horiz-adv-x="769" 
d="M666 566q37 0 37 -47q0 -25 -12.5 -134.5t-15.5 -172.5q50 3 62 11t12.5 2t-17 -16.5t-57.5 -16.5v-62q0 -97 33 -129q12 -12 20.5 -12t20 3.5t29.5 23t31 49.5q4 9 7.5 7.5t3.5 -4.5t-1 -7q-13 -37 -41 -62q-61 -56 -109 -13q-25 22 -31.5 64t-6.5 76.5t1 60.5
q-15 -1 -125 -1q-53 -58 -114 -109q7 -1 15 -1q72 0 128 74q4 5 6 -1v-4q-60 -79 -134 -79q-13 0 -25 2q-156 -125 -266 -125q-59 0 -91 33q-20 22 -20 54q0 47 33.5 80t80 48.5t121.5 27.5q-25 57 -25 113q0 152 86 223q46 37 94 37q17 0 35 -5q63 -16 83 -82q8 -25 8 -54
q0 -96 -80 -215h45q20 20 79 102.5t89 120.5q10 65 10 84q0 35 -18 35q-21 0 -56 -41q-19 -22 -23 -31t-10 -5q-6 8 18 38q50 60 90 60zM470 272q38 78 38 130t-19 86q-32 58 -97.5 58t-113 -66t-47.5 -181q0 -60 24 -111q91 13 174 14q24 35 41 70zM19 42q0 -28 28 -48
q35 -26 93 -26q105 0 221 105l-23 9q-103 -90 -200 -90q-29 0 -57 8q-5 1 -3 5t5 3q117 -31 245 80q-46 27 -75 77q-96 -19 -144 -34q-90 -31 -90 -89zM525 208q14 -1 39.5 -1t69.5 2q3 78 19 183q-25 -44 -47.5 -74.5l-46 -63t-34.5 -46.5zM418 187q-74 -7 -152 -20
q30 -49 71 -71q43 39 81 91zM455 189q-11 0 -23 -1q-39 -57 -85 -98q13 -5 23 -8q21 20 56 56.5t49 49.5q-9 1 -20 1zM651 619q0 -22 -21 -22q-23 0 -23 22t22 22t22 -22zM737 619q0 -22 -21 -22q-23 0 -23 22t22 22t22 -22z" />
    <glyph glyph-name="Aring" unicode="&#xc5;" horiz-adv-x="769" 
d="M522 418q0 -96 -80 -215h45q20 20 79 102.5t89 120.5q10 65 10 84q0 35 -18 35q-21 0 -56 -41q-19 -22 -23 -31t-10 -5q-6 8 18 38q43 52 81 59q-2 1 -10.5 9.5t-8.5 26.5t13.5 30.5t29.5 12.5t29 -12.5t13 -30.5t-11 -28.5t-24 -13.5q15 -13 15 -39t-12.5 -135.5
t-15.5 -172.5q50 3 62 11t12.5 2t-17 -16.5t-57.5 -16.5v-62q0 -97 33 -129q12 -12 20.5 -12t20 3.5t29.5 23t31 49.5q4 9 7.5 7.5t3.5 -4.5t-1 -7q-13 -37 -41 -62q-61 -56 -109 -13q-25 22 -31.5 64t-6.5 76.5t1 60.5q-15 -1 -125 -1q-53 -58 -114 -109q7 -1 15 -1
q72 0 128 74q4 5 6 -1v-4q-60 -79 -134 -79q-13 0 -25 2q-156 -125 -266 -125q-59 0 -91 33q-20 22 -20 54q0 47 33.5 80t80 48.5t121.5 27.5q-25 57 -25 113q0 152 86 223q46 37 94 37q17 0 35 -5q63 -16 83 -82q8 -25 8 -54zM470 272q38 78 38 130t-19 86q-32 58 -97.5 58
t-113 -66t-47.5 -181q0 -60 24 -111q91 13 174 14q24 35 41 70zM19 42q0 -28 28 -48q35 -26 93 -26q105 0 221 105l-23 9q-103 -90 -200 -90q-29 0 -57 8q-5 1 -3 5t5 3q117 -31 245 80q-46 27 -75 77q-96 -19 -144 -34q-90 -31 -90 -89zM525 208q14 -1 39.5 -1t69.5 2
q3 78 19 183q-25 -44 -47.5 -74.5l-46 -63t-34.5 -46.5zM418 187q-74 -7 -152 -20q30 -49 71 -71q43 39 81 91zM455 189q-11 0 -23 -1q-39 -57 -85 -98q13 -5 23 -8q21 20 56 56.5t49 49.5q-9 1 -20 1zM711 601q0 13 -9 22t-22 9t-22 -9t-9 -22t9 -22t22 -9t22 9t9 22z" />
    <glyph glyph-name="AE" unicode="&#xc6;" horiz-adv-x="969" 
d="M842 266h-24q-75 0 -158 -22t-127 -64t-44 -88.5t45 -79.5t125 -33q28 0 53 4q92 12 164 56t76 97q2 9 5 9t3 -10q-3 -64 -80 -111q-103 -64 -239 -64q-76 0 -128 28q-67 36 -67 99q0 49 45 95v4q-75 -2 -166 -7l-90 -85q39 -32 92 -32t74 21q2 3 5 0t0 -6
q-25 -23 -69 -23q-66 0 -109 34l-36 -33q-78 -72 -132 -104q31 -16 57 -18t26 -5q0 -6 -12 -4q-46 4 -82 21q-102 -60 -165 -60h-6q-28 0 -28 18q0 7 6 18q3 10 11 13q-6 -14 -6 -23q0 -15 22 -15h4q61 0 150 55q-53 24 -53 69q0 29 26 63q49 60 139 85l23 6
q-13 39 -13 98.5t21 116.5q36 96 91 144q47 44 99 44q36 0 59.5 -23.5t23.5 -64.5t-21 -86q-30 -65 -153 -204l-9 -10q12 1 43 5q72 70 153 171q112 140 112 190q0 24 -26 26q-6 0 -6 3q0 6 11 6q50 -2 50 -42q0 -25 -22 -69q4 -6 1 -14q-22 -88 -56 -251q46 31 115 54
l95 20q-51 0 -90 24q-38 26 -35 60q6 46 57.5 82.5t113.5 53.5t111 17t79 -20t30 -44.5t-17 -42t-46 -21.5q-12 0 -12 4q0 7 12 5.5t22 12.5t10 34.5t-19.5 38t-63 17.5t-100 -17.5t-94.5 -51.5t-41 -72q-5 -38 60 -60q47 -16 104 -16h19q22 1 22 -12.5t-20 -13.5zM196 387
q-22 -59 -22 -115.5t11 -95.5q36 7 73 11q108 108 160 219q22 45 22 83t-19 59.5t-50 21.5q-46 0 -90 -43q-51 -47 -85 -140zM16 10q0 -29 32 -53q48 31 123 100l45 42q-8 8 -14 17q-71 -70 -104 -70q-3 0 -3 3q-1 3 1 4q54 38 98 75q-7 10 -11 20q-30 -10 -56 -23
q-111 -55 -111 -115zM566 445q-45 -71 -88.5 -117.5t-132.5 -130.5q21 2 73.5 3t76.5 3q13 56 36 126zM294 175l-44 -9l-41 -43h1q8 -12 13 -17zM194 151l8 -16l30 27q-35 -10 -38 -11z" />
    <glyph glyph-name="Ccedilla" unicode="&#xc7;" horiz-adv-x="586" 
d="M557 152q4 0 4 -6q0 -11 -22.5 -44t-71 -70t-108.5 -56q-34 -45 -81 -61q33 -23 33 -61.5t-46 -73.5q-23 -18 -57.5 -18t-77.5 12t-43 35q0 7 5 7t14 -11q21 -25 80 -25t80 36q12 22 12 46t-22 40l-7 5q-10 -1 -26 -1t-35 6l-39 -20q-17 0 -17 15q0 8 17 23
q-58 38 -73 117q-53 65 -53 156.5t59 178t168 127.5q64 24 115 24t94.5 -12t77 -45t32.5 -80q21 -5 21 -16q0 -7 -11 -1l-11 5q-7 -59 -61 -118q-92 -99 -202 -99q-63 0 -94 35q-19 21 -19 44q0 53 61 103q39 33 99 49.5t113 16.5q11 0 23 -1q0 50 -54 66q-19 5 -40 5
q-53 0 -115 -35q-87 -49 -142 -149q-43 -80 -52 -171q25 -67 81 -103t125 -36q27 0 70 8q18 33 18 67q0 53 -33 71q-2 1 -2 3q2 6 6 4q41 -22 41 -79q0 -31 -16 -62q102 31 152 111q23 38 30 38zM295 255q-23 0 -23.5 5t9 4.5t12.5 -0.5q52 0 100 22.5t68 55.5t25 56
q-60 0 -122.5 -19.5t-93.5 -46.5q-48 -42 -48 -83q0 -29 32 -53q21 -14 54 -14t73 12q66 23 118.5 81t51.5 115q-28 7 -55 8q-5 -27 -23 -52q-31 -46 -79 -68.5t-99 -22.5zM314 480q43 15 79 15t65 -15q42 -23 40 -67q27 -1 51 -9q-10 65 -94 96q-32 13 -75.5 13t-93 -13.5
t-99 -54.5t-82.5 -105.5t-33 -128.5q0 -25 5 -51q11 80 51 152q70 127 186 168zM341 -29q-39 -9 -72.5 -9t-58.5 5q-38 -32 -38 -35q18 3 43 3t51 -13q43 13 75 49zM91 30q16 -63 65 -94l39 35q-64 17 -104 59z" />
    <glyph glyph-name="Egrave" unicode="&#xc8;" horiz-adv-x="568" 
d="M422 12l1 -18q0 -49 -18 -86q-37 -78 -117 -78q-70 0 -120 64q-28 36 -42 88q-91 47 -91 159q0 54 25 117q-6 -1 -15.5 -3.5t-9.5 4.5q0 15 15 25q3 1 5 2l20 4l6 12q58 110 173 179q89 53 171 53t113 -30q48 58 56 46v-3t-3 -5q-23 -18 -45 -46q16 -21 16 -39
q0 -53 -43 -65q-7 -2 -12 -2q-17 0 -20 18q-4 21 12.5 45.5t26.5 34.5q-21 24 -98 24t-151 -48q-92 -60 -152 -165q16 2 44 4q79 139 234 184q4 1 5.5 -3t-2.5 -5q-134 -36 -216 -175q35 2 254 2q11 0 11.5 -6.5t-17.5 -6.5q-139 0 -262 -15q-48 -96 -48 -194q0 -37 4 -62
q12 -12 43 -27.5t80 -15.5q77 0 150 45q-12 51 -52 98q-61 -36 -105 -89q-7 -8 -7 -3q0 8 4 12q36 40 75 73q21 16 23 17q-58 58 -123 59q-3 0 -4 2t0.5 4t3.5 2q69 -2 132 -61q66 41 118.5 41t52.5 -47q0 -57 -101 -120zM407 4q-84 -46 -173 -46q-59 0 -92 17
q20 -71 63 -104t82 -33q50 0 85.5 44t35.5 112q0 7 -1 10zM418 32q45 32 65.5 63t20.5 45q0 28 -31 28q-38 0 -110 -41q42 -45 55 -95zM113 88q0 96 42 187l-46 -7l-3 -7q-27 -55 -27 -110q0 -66 36 -111q-2 30 -2 48zM401 623q-6 6 -6 18t9 12q5 0 13 -6.5t24 -18.5
q26 -18 62 -47q4 -3 4 -7q0 -7 -8 -7q-12 0 -98 56zM535 417q6 14 6 29t-8 32q-27 -40 -27 -68q0 -9 10 -9t19 16z" />
    <glyph glyph-name="Eacute" unicode="&#xc9;" horiz-adv-x="568" 
d="M422 12l1 -18q0 -49 -18 -86q-37 -78 -117 -78q-70 0 -120 64q-28 36 -42 88q-91 47 -91 159q0 54 25 117q-6 -1 -15.5 -3.5t-9.5 4.5q0 15 15 25q3 1 5 2l20 4l6 12q58 110 173 179q89 53 171 53t113 -30q48 58 56 46v-3t-3 -5q-23 -18 -45 -46q16 -21 16 -39
q0 -53 -43 -65q-7 -2 -12 -2q-17 0 -20 18q-4 21 12.5 45.5t26.5 34.5q-21 24 -98 24t-151 -48q-92 -60 -152 -165q16 2 44 4q79 139 234 184q4 1 5.5 -3t-2.5 -5q-134 -36 -216 -175q35 2 254 2q11 0 11.5 -6.5t-17.5 -6.5q-139 0 -262 -15q-48 -96 -48 -194q0 -37 4 -62
q12 -12 43 -27.5t80 -15.5q77 0 150 45q-12 51 -52 98q-61 -36 -105 -89q-7 -8 -7 -3q0 8 4 12q36 40 75 73q21 16 23 17q-58 58 -123 59q-3 0 -4 2t0.5 4t3.5 2q69 -2 132 -61q66 41 118.5 41t52.5 -47q0 -57 -101 -120zM407 4q-84 -46 -173 -46q-59 0 -92 17
q20 -71 63 -104t82 -33q50 0 85.5 44t35.5 112q0 7 -1 10zM418 32q45 32 65.5 63t20.5 45q0 28 -31 28q-38 0 -110 -41q42 -45 55 -95zM113 88q0 96 42 187l-46 -7l-3 -7q-27 -55 -27 -110q0 -66 36 -111q-2 30 -2 48zM456.5 606l41 30.5t27 7.5t16.5 -13q0 -3 -3.5 -9
t-59 -32t-61.5 -26t-6 3.5t1 5.5zM535 417q6 14 6 29t-8 32q-27 -40 -27 -68q0 -9 10 -9t19 16z" />
    <glyph glyph-name="Ecircumflex" unicode="&#xca;" horiz-adv-x="568" 
d="M422 12l1 -18q0 -49 -18 -86q-37 -78 -117 -78q-70 0 -120 64q-28 36 -42 88q-91 47 -91 159q0 54 25 117q-6 -1 -15.5 -3.5t-9.5 4.5q0 15 15 25q3 1 5 2l20 4l6 12q58 110 173 179q89 53 171 53t113 -30q48 58 56 46v-3t-3 -5q-23 -18 -45 -46q16 -21 16 -39
q0 -53 -43 -65q-7 -2 -12 -2q-17 0 -20 18q-4 21 12.5 45.5t26.5 34.5q-21 24 -98 24t-151 -48q-92 -60 -152 -165q16 2 44 4q79 139 234 184q4 1 5.5 -3t-2.5 -5q-134 -36 -216 -175q35 2 254 2q11 0 11.5 -6.5t-17.5 -6.5q-139 0 -262 -15q-48 -96 -48 -194q0 -37 4 -62
q12 -12 43 -27.5t80 -15.5q77 0 150 45q-12 51 -52 98q-61 -36 -105 -89q-7 -8 -7 -3q0 8 4 12q36 40 75 73q21 16 23 17q-58 58 -123 59q-3 0 -4 2t0.5 4t3.5 2q69 -2 132 -61q66 41 118.5 41t52.5 -47q0 -57 -101 -120zM407 4q-84 -46 -173 -46q-59 0 -92 17
q20 -71 63 -104t82 -33q50 0 85.5 44t35.5 112q0 7 -1 10zM418 32q45 32 65.5 63t20.5 45q0 28 -31 28q-38 0 -110 -41q42 -45 55 -95zM113 88q0 96 42 187l-46 -7l-3 -7q-27 -55 -27 -110q0 -66 36 -111q-2 30 -2 48zM496 674q8 0 8 -2l30 -86q0 -4 -2 -5q-12 0 -15 5
l-37 58l-108 -58q-4 -4 -14 -4q-8 -2 -8 2l1 2l122 86q15 2 23 2zM535 417q6 14 6 29t-8 32q-27 -40 -27 -68q0 -9 10 -9t19 16z" />
    <glyph glyph-name="Edieresis" unicode="&#xcb;" horiz-adv-x="568" 
d="M422 12l1 -18q0 -49 -18 -86q-37 -78 -117 -78q-70 0 -120 64q-28 36 -42 88q-91 47 -91 159q0 54 25 117q-6 -1 -15.5 -3.5t-9.5 4.5q0 15 15 25q3 1 5 2l20 4l6 12q58 110 173 179q89 53 171 53t113 -30q48 58 56 46v-3t-3 -5q-23 -18 -45 -46q16 -21 16 -39
q0 -53 -43 -65q-7 -2 -12 -2q-17 0 -20 18q-4 21 12.5 45.5t26.5 34.5q-21 24 -98 24t-151 -48q-92 -60 -152 -165q16 2 44 4q79 139 234 184q4 1 5.5 -3t-2.5 -5q-134 -36 -216 -175q35 2 254 2q11 0 11.5 -6.5t-17.5 -6.5q-139 0 -262 -15q-48 -96 -48 -194q0 -37 4 -62
q12 -12 43 -27.5t80 -15.5q77 0 150 45q-12 51 -52 98q-61 -36 -105 -89q-7 -8 -7 -3q0 8 4 12q36 40 75 73q21 16 23 17q-58 58 -123 59q-3 0 -4 2t0.5 4t3.5 2q69 -2 132 -61q66 41 118.5 41t52.5 -47q0 -57 -101 -120zM407 4q-84 -46 -173 -46q-59 0 -92 17
q20 -71 63 -104t82 -33q50 0 85.5 44t35.5 112q0 7 -1 10zM418 32q45 32 65.5 63t20.5 45q0 28 -31 28q-38 0 -110 -41q42 -45 55 -95zM113 88q0 96 42 187l-46 -7l-3 -7q-27 -55 -27 -110q0 -66 36 -111q-2 30 -2 48zM535 417q6 14 6 29t-8 32q-25 -37 -27 -64
q-2 -13 7 -13q13 0 22 16zM529 599q0 -22 -21 -22q-23 0 -23 22t22 22t22 -22zM443 599q0 -22 -21 -22q-23 0 -23 22t22 22t22 -22z" />
    <glyph glyph-name="Igrave" unicode="&#xcc;" horiz-adv-x="504" 
d="M265 502q-32 86 -107 86q-51 0 -95 -54t-44 -145q0 -27 4 -58q15 -104 71.5 -148t121.5 -44q9 0 19 1q47 136 47 246q0 47 -10 94q-125 -13 -167 -71q-15 -20 -15 -41t25.5 -46.5t87.5 -36.5q7 -2 2 -6.5t-12 -2.5q-66 20 -101.5 47.5t-35.5 55t22.5 53t72 44.5t114.5 26
zM295 482q11 -39 11 -89q0 -109 -52 -250q20 4 34 10q28 85 46.5 181t19.5 148q-16 1 -31 1t-28 -1zM197 23q10 0 32 -2q30 46 55 119q-13 -4 -35 -8q-19 -53 -52 -109zM183 0h-1q-11 -18 -27 -37q28 0 59 36q-11 1 -31 1zM261 18q68 -8 108.5 -17.5t52 -9.5t11.5 5
q0 8 -29 26q-4 3 -1 4.5t6 0.5q27 -11 34 -30q1 -4 1 -7q0 -14 -27 -14q-13 0 -59 9t-111 13q-42 -53 -77 -53q-12 0 -26 5q-70 -77 -132 -77q-24 0 -40 18q-1 2 -1 4t3 3t4 -1q13 -17 35.5 -17t56.5 18.5t65 55.5q-32 14 -39 31q-2 8 3 8t6.5 -2t4.5 -7q10 -15 33 -20
q16 19 26 36q-141 -3 -141 -47q0 -10 10 -22.5t19 -18t0 -6.5t-15 3q-41 28 -41 51q0 64 172 64q7 0 10 -1q27 46 49 107q-8 -1 -16 -1q-71 0 -133 50q-80 63 -80 208q0 103 58 163q45 46 100 46q89 0 127 -92h38q28 0 40 1l16 15q8 6 13 6q10 0 11 -20q4 0 12 -1
q97 -4 97 -21q0 -6 -11 -4t-20 2l-82 1q-25 -171 -70 -307q51 36 61 90q1 5 4.5 2t2.5 -6q-16 -65 -73 -101q-31 -89 -66 -143zM336 616q-6 6 -6 18t9 12q5 0 15 -8l84 -64q4 -3 4 -7q0 -7 -8 -7q-12 0 -98 56z" />
    <glyph glyph-name="Iacute" unicode="&#xcd;" horiz-adv-x="504" 
d="M265 502q-32 86 -107 86q-51 0 -95 -54t-44 -145q0 -27 4 -58q15 -104 71.5 -148t121.5 -44q9 0 19 1q47 136 47 246q0 47 -10 94q-125 -13 -167 -71q-15 -20 -15 -41t25.5 -46.5t87.5 -36.5q7 -2 2 -6.5t-12 -2.5q-66 20 -101.5 47.5t-35.5 55t22.5 53t72 44.5t114.5 26
zM295 482q11 -39 11 -89q0 -109 -52 -250q20 4 34 10q28 85 46.5 181t19.5 148q-16 1 -31 1t-28 -1zM197 23q10 0 32 -2q30 46 55 119q-13 -4 -35 -8q-19 -53 -52 -109zM183 0h-1q-11 -18 -27 -37q28 0 59 36q-11 1 -31 1zM261 18q68 -8 108.5 -17.5t52 -9.5t11.5 5
q0 8 -29 26q-4 3 -1 4.5t6 0.5q27 -11 34 -30q1 -4 1 -7q0 -14 -27 -14q-13 0 -59 9t-111 13q-42 -53 -77 -53q-12 0 -26 5q-70 -77 -132 -77q-24 0 -40 18q-1 2 -1 4t3 3t4 -1q13 -17 35.5 -17t56.5 18.5t65 55.5q-32 14 -39 31q-2 8 3 8t6.5 -2t4.5 -7q10 -15 33 -20
q16 19 26 36q-141 -3 -141 -47q0 -10 10 -22.5t19 -18t0 -6.5t-15 3q-41 28 -41 51q0 64 172 64q7 0 10 -1q27 46 49 107q-8 -1 -16 -1q-71 0 -133 50q-80 63 -80 208q0 103 58 163q45 46 100 46q89 0 127 -92h38q28 0 40 1l16 15q8 6 13 6q10 0 11 -20q4 0 12 -1
q97 -4 97 -21q0 -6 -11 -4t-20 2l-82 1q-25 -171 -70 -307q51 36 61 90q1 5 4.5 2t2.5 -6q-16 -65 -73 -101q-31 -89 -66 -143zM429.5 608l41 30.5t27 7.5t16.5 -13q0 -3 -3.5 -9t-59 -32t-61.5 -26t-6 3.5t1 5.5z" />
    <glyph glyph-name="Icircumflex" unicode="&#xce;" horiz-adv-x="504" 
d="M265 502q-32 86 -107 86q-51 0 -95 -54t-44 -145q0 -27 4 -58q15 -104 71.5 -148t121.5 -44q9 0 19 1q47 136 47 246q0 47 -10 94q-125 -13 -167 -71q-15 -20 -15 -41t25.5 -46.5t87.5 -36.5q7 -2 2 -6.5t-12 -2.5q-66 20 -101.5 47.5t-35.5 55t22.5 53t72 44.5t114.5 26
zM295 482q11 -39 11 -89q0 -109 -52 -250q20 4 34 10q28 85 46.5 181t19.5 148q-16 1 -31 1t-28 -1zM197 23q10 0 32 -2q30 46 55 119q-13 -4 -35 -8q-19 -53 -52 -109zM183 0h-1q-11 -18 -27 -37q28 0 59 36q-11 1 -31 1zM261 18q68 -8 108.5 -17.5t52 -9.5t11.5 5
q0 8 -29 26q-4 3 -1 4.5t6 0.5q27 -11 34 -30q1 -4 1 -7q0 -14 -27 -14q-13 0 -59 9t-111 13q-42 -53 -77 -53q-12 0 -26 5q-70 -77 -132 -77q-24 0 -40 18q-1 2 -1 4t3 3t4 -1q13 -17 35.5 -17t56.5 18.5t65 55.5q-32 14 -39 31q-2 8 3 8t6.5 -2t4.5 -7q10 -15 33 -20
q16 19 26 36q-141 -3 -141 -47q0 -10 10 -22.5t19 -18t0 -6.5t-15 3q-41 28 -41 51q0 64 172 64q7 0 10 -1q27 46 49 107q-8 -1 -16 -1q-71 0 -133 50q-80 63 -80 208q0 103 58 163q45 46 100 46q89 0 127 -92h38q28 0 40 1l16 15q8 6 13 6q10 0 11 -20q4 0 12 -1
q97 -4 97 -21q0 -6 -11 -4t-20 2l-82 1q-25 -171 -70 -307q51 36 61 90q1 5 4.5 2t2.5 -6q-16 -65 -73 -101q-31 -89 -66 -143zM304 549q-8 -2 -8 0.5t0.5 2.5t0.5 1l122 86q15 2 23 2t8 -2l30 -86q0 -4 -2 -5q-12 0 -15 5l-37 58l-108 -58q-4 -4 -14 -4z" />
    <glyph glyph-name="Idieresis" unicode="&#xcf;" horiz-adv-x="504" 
d="M265 502q-32 86 -107 86q-51 0 -95 -54t-44 -145q0 -27 4 -58q15 -104 71.5 -148t121.5 -44q9 0 19 1q47 136 47 246q0 47 -10 94q-125 -13 -167 -71q-15 -20 -15 -41t25.5 -46.5t87.5 -36.5q7 -2 2 -6.5t-12 -2.5q-66 20 -101.5 47.5t-35.5 55t22.5 53t72 44.5t114.5 26
zM295 482q11 -39 11 -89q0 -109 -52 -250q20 4 34 10q28 85 46.5 181t19.5 148q-16 1 -31 1t-28 -1zM197 23q10 0 32 -2q30 46 55 119q-13 -4 -35 -8q-19 -53 -52 -109zM183 0h-1q-11 -18 -27 -37q28 0 59 36q-11 1 -31 1zM261 18q68 -8 108.5 -17.5t52 -9.5t11.5 5
q0 8 -29 26q-4 3 -1 4.5t6 0.5q27 -11 34 -30q1 -4 1 -7q0 -14 -27 -14q-13 0 -59 9t-111 13q-42 -53 -77 -53q-12 0 -26 5q-70 -77 -132 -77q-24 0 -40 18q-1 2 -1 4t3 3t4 -1q13 -17 35.5 -17t56.5 18.5t65 55.5q-32 14 -39 31q-2 8 3 8t6.5 -2t4.5 -7q10 -15 33 -20
q16 19 26 36q-141 -3 -141 -47q0 -10 10 -22.5t19 -18t0 -6.5t-15 3q-41 28 -41 51q0 64 172 64q7 0 10 -1q27 46 49 107q-8 -1 -16 -1q-71 0 -133 50q-80 63 -80 208q0 103 58 163q45 46 100 46q89 0 127 -92h38q28 0 40 1l16 15q8 6 13 6q10 0 11 -20q4 0 12 -1
q97 -4 97 -21q0 -6 -11 -4t-20 2l-82 1q-25 -171 -70 -307q51 36 61 90q1 5 4.5 2t2.5 -6q-16 -65 -73 -101q-31 -89 -66 -143zM465 583q0 -22 -21 -22q-23 0 -23 22t22 22t22 -22zM379 583q0 -22 -21 -22q-23 0 -23 22t22 22t22 -22z" />
    <glyph glyph-name="Eth" unicode="&#xd0;" horiz-adv-x="724" 
d="M455 568q26 0 50 -17.5t24 -24t-4.5 -6.5t-6 2t-4.5 6.5t-8 7.5q-18 14 -30.5 14t-18.5 -2q-17 -3 -37 -31q96 -8 169 -40q138 -60 157 -187q1 -13 1 -26q0 -46 -27 -102.5t-93 -113.5t-169 -76q-27 -53 -66 -88.5t-68.5 -44t-48.5 -8.5q-62 0 -93 45q-34 52 -34 130
q0 102 64 266q-45 -11 -83 -11t-71 19q-39 22 -39 65q0 30 23 66.5t76 62.5q74 37 201 45q17 37 19.5 54.5t4 17.5t3.5 -3t2 -14t-17 -55q13 1 26 1t26 -1q34 49 72 49zM440 377q66 -81 66 -214q0 -64 -20 -123l-11 -31q77 24 133 75t76.5 100.5t20.5 76.5q0 77 -49 139
q-36 43 -99.5 71.5t-143.5 34.5q-21 -31 -40 -73q31 -16 59 -46q44 27 63.5 47.5t19.5 14t-4 -10.5q-29 -30 -71 -61zM267 137q29 17 66.5 17t88.5 -6t51 -14t-41 -9t-78.5 -6.5t-62 -7t-30.5 0.5q-21 -80 -24 -111q5 5 20 31t19 32.5t16 21t19 19.5q19 15 26 9q3 -2 -1 -5
q-46 -40 -46 -68q0 -15 14 -27q24 -21 72 -21q39 0 81 11q32 70 32 158q0 127 -61 207q-51 -34 -105 -58q-35 -98 -56 -174zM226 275q-38 -104 -49.5 -166t-11.5 -98q0 -108 47 -143q31 -22 67 -22q43 0 87.5 34t74.5 89q-25 -3 -59 -3t-68 15t-34 47q0 12 4 25
q-21 -20 -53 -82q-3 -3 -11 -0.5t-15.5 12t-6.5 17.5q9 105 75 291q-32 -12 -47 -16zM264 449q-54 0 -88 -35.5t-34 -62.5q0 -7 1.5 -12.5t-2.5 -6.5q-7 -2 -7 24t34.5 63.5t100.5 37.5q17 0 22 -1l23 50q-113 -11 -176 -48t-88 -81q-13 -22 -13 -40.5t12 -32.5
q19 -23 68 -23q48 0 105 17q28 71 65 150q-5 1 -23 1zM297 447q-34 -69 -62 -145q24 6 48 15q23 63 52 120q-16 7 -38 10zM420 379q-25 28 -52 43q-17 -37 -35 -86q49 21 87 43zM325 507q-2 -6 -24 -52q18 -1 38 -8q20 38 36 61q-33 0 -50 -1z" />
    <glyph glyph-name="Ntilde" unicode="&#xd1;" horiz-adv-x="686" 
d="M283 39q-45 24 -45 67.5t38 83.5q59 58 140 75q27 68 33 130q-38 118 -130 135q-19 -25 -19 -67.5t27 -79.5q1 -2 0 -4t-3 -2t-4 2q-28 38 -28 82t18 70q-8 1 -17 1q-53 0 -110 -42t-87 -118q-19 -48 -19 -96q0 -76 56 -76q32 0 61 29.5t41 50.5q5 7 7 3v-8
q-10 -24 -48 -59q-39 -36 -76 -36t-53 31t-16 67q0 57 26 108q38 74 107 118.5t136 44.5h6q22 25 60 25q50 0 83 -44q39 -53 55 -111q24 -86 37 -166q20 -8 44 -25q36 167 61 219q37 73 77 94q25 13 59 13t57 -26t29 -53q1 -3 1 -6t-5 -3q-2 0 -5.5 11t-23 28t-47 17
t-51 -12t-41.5 -36.5t-32.5 -50.5t-27.5 -65q-18 -58 -38 -140q20 -16 38 -40q33 -45 33 -92t-26 -59q-6 -3 -11 -3q-36 0 -64 75q-8 -27 -16 -43q33 -66 72 -66q28 0 60 30q10 10 11.5 10t1.5 -2l2 -5q-44 -46 -87.5 -46t-79.5 49q-6 -5 -19.5 -5t-13.5 9q0 2 10 4.5
t14 4.5q-41 86 -62 221h-11l-31 -3q-46 -122 -133 -218q12 -4 24 -4q33 0 66 30q5 5 6 0.5t-1 -6.5q-34 -31 -72 -31q-14 0 -29 4q-115 -127 -236 -127q-29 0 -47 17t-18 48.5t25 63.5q0 3 4 3q2 0 2 -3l-8 -20q-8 -20 -8 -40t15 -38.5t39 -18.5q110 0 217 122zM288 45
q75 88 123 207q-67 -18 -123 -71q-36 -39 -36 -77t36 -59zM334 548q112 -12 147 -141q16 -57 31 -141q19 -3 37 -9q-21 105 -59 198q-23 55 -52.5 82.5t-55.5 27.5t-48 -17zM614.5 59.5q13.5 -19.5 21.5 -23t13 -3.5t9 2q21 10 21 50.5t-31 87.5q-17 22 -34 36
q-15 -65 -24 -97q11 -33 24.5 -52.5zM551 247q-16 7 -37 10q27 -136 49 -186q8 17 16 48q-12 35 -23 100zM640 549q-14 0 -38 11t-39 11t-24 -19q-2 -2 -7.5 -1t-5.5 2q23 43 51 43q15 0 39 -11q27 -10 41.5 -10t22.5 20q1 2 6.5 1.5t5.5 -1.5q0 -46 -52 -46zM560 243l4 -23
q10 -56 19 -86q7 29 18 86q-21 14 -41 23zM441 269q12 1 37 1q-6 30 -13 84q-10 -44 -24 -85z" />
    <glyph glyph-name="Ograve" unicode="&#xd2;" horiz-adv-x="577" 
d="M39 268q-1 79 86 152v10q0 95 74 130q26 12 52 12q80 0 152 -85q67 -14 111 -62.5t44 -126.5t-51 -156q-14 -90 -68 -146t-121 -56t-121 28q-99 1 -135 59q-21 35 -21 73t9 72q-11 41 -11 95v1zM355 319q-14 -36 -37 -49t-37 -13t-32 3t-45 19.5t-46 40.5
q-63 -70 -87 -144q18 -110 93 -173q8 -2 16.5 -2t16.5 1q82 4 169 59.5t130 138.5q-8 164 -103 276q-17 4 -40 4q-132 0 -215 -82q7 -34 16 -50q90 86 181 86q12 0 12 -6.5t-13 -6.5q-78 0 -169 -93q23 -33 52 -47.5t52 -14.5l25 4q36 10 53 52q1 4 5 2.5t3 -5.5zM380 491
q-66 72 -132 72q-23 0 -45 -10q-67 -33 -67 -116v-10q91 66 217 66q9 0 27 -2zM217 -31q45 -21 102 -21t105 46t64 122q-50 -64 -122.5 -103.5t-148.5 -43.5zM509 231q15 41 15 92t-29 90.5t-77 55.5q72 -97 91 -238zM129 389q-55 -61 -63 -131v-36q25 62 79 118l-5 10
q-7 22 -11 39zM341 606q-6 6 -6 18t9 12q5 0 15 -8l84 -64q4 -3 4 -7q0 -7 -8 -7q-12 0 -98 56zM60 115q0 -36 19.5 -66.5t63.5 -42.5q-55 52 -82 126q-1 -9 -1 -17z" />
    <glyph glyph-name="Oacute" unicode="&#xd3;" horiz-adv-x="577" 
d="M39 268q-1 79 86 152v10q0 95 74 130q26 12 52 12q80 0 152 -85q67 -14 111 -62.5t44 -126.5t-51 -156q-14 -90 -68 -146t-121 -56t-121 28q-99 1 -135 59q-21 35 -21 73t9 72q-11 41 -11 95v1zM355 319q-14 -36 -37 -49t-37 -13t-32 3t-45 19.5t-46 40.5
q-63 -70 -87 -144q18 -110 93 -173q8 -2 16.5 -2t16.5 1q82 4 169 59.5t130 138.5q-8 164 -103 276q-17 4 -40 4q-132 0 -215 -82q7 -34 16 -50q90 86 181 86q12 0 12 -6.5t-13 -6.5q-78 0 -169 -93q23 -33 52 -47.5t52 -14.5l25 4q36 10 53 52q1 4 5 2.5t3 -5.5zM380 491
q-66 72 -132 72q-23 0 -45 -10q-67 -33 -67 -116v-10q91 66 217 66q9 0 27 -2zM217 -31q45 -21 102 -21t105 46t64 122q-50 -64 -122.5 -103.5t-148.5 -43.5zM509 231q15 41 15 92t-29 90.5t-77 55.5q72 -97 91 -238zM129 389q-55 -61 -63 -131v-36q25 62 79 118l-5 10
q-7 22 -11 39zM434.5 585l41 30.5t27 7.5t16.5 -13q0 -3 -3.5 -9t-59 -32t-59.5 -26q-12 0 -7 9zM60 115q0 -36 19.5 -66.5t63.5 -42.5q-55 52 -82 126q-1 -9 -1 -17z" />
    <glyph glyph-name="Ocircumflex" unicode="&#xd4;" horiz-adv-x="577" 
d="M39 268q-1 79 86 152v10q0 95 74 130q25 13 52.5 13t58.5 -14l88 62q15 2 22.5 2t8.5 -2l30 -86q0 -4 -2 -5q-13 0 -15 5l-37 58l-78 -42q42 -24 76 -64q67 -14 111 -62.5t44 -126.5t-51 -156q-14 -90 -68 -146t-121 -56t-121 28q-99 1 -135 59q-21 35 -21 73t9 72
q-11 41 -11 95v1zM355 319q-14 -36 -37 -49t-37 -13t-32 3t-45 19.5t-46 40.5q-63 -70 -87 -144q18 -110 93 -173q8 -2 16.5 -2t16.5 1q82 4 169 59.5t130 138.5q-8 164 -103 276q-17 4 -40 4q-132 0 -215 -82q7 -34 16 -50q90 86 181 86q12 0 12 -6.5t-13 -6.5
q-78 0 -169 -93q23 -33 52 -47.5t52 -14.5l25 4q36 10 53 52q1 4 5 2.5t3 -5.5zM283 531q-8 -2 -8 0.5t0.5 2.5t0.5 1l23 16q-28 13 -51.5 13t-44.5 -11q-67 -33 -67 -116v-10q91 66 217 66q9 0 27 -2q-31 32 -66 53l-17 -9q-4 -4 -14 -4zM217 -31q45 -21 102 -21t105 46
t64 122q-50 -64 -122.5 -103.5t-148.5 -43.5zM509 231q15 41 15 92t-29 90.5t-77 55.5q72 -97 91 -238zM129 389q-55 -61 -63 -131v-36q25 62 79 118l-5 10q-7 22 -11 39zM60 115q0 -36 19.5 -66.5t63.5 -42.5q-55 52 -82 126q-1 -9 -1 -17z" />
    <glyph glyph-name="Otilde" unicode="&#xd5;" horiz-adv-x="577" 
d="M39 268q-1 79 86 152v10q0 95 74 130q26 12 52 12q80 0 152 -85q67 -14 111 -62.5t44 -126.5t-51 -156q-14 -90 -68 -146t-121 -56t-121 28q-99 1 -135 59q-21 35 -21 73t9 72q-11 41 -11 95v1zM355 319q-14 -36 -37 -49t-37 -13t-32 3t-45 19.5t-46 40.5
q-63 -70 -87 -144q18 -110 93 -173q8 -2 16.5 -2t16.5 1q82 4 169 59.5t130 138.5q-8 164 -103 276q-17 4 -40 4q-132 0 -215 -82q7 -34 16 -50q90 86 181 86q12 0 12 -6.5t-13 -6.5q-78 0 -169 -93q23 -33 52 -47.5t52 -14.5l25 4q36 10 53 52q1 4 5 2.5t3 -5.5zM380 491
q-66 72 -132 72q-23 0 -45 -10q-67 -33 -67 -116v-10q91 66 217 66q9 0 27 -2zM217 -31q45 -21 102 -21t105 46t64 122q-50 -64 -122.5 -103.5t-148.5 -43.5zM509 231q15 41 15 92t-29 90.5t-77 55.5q72 -97 91 -238zM129 389q-55 -61 -63 -131v-36q25 62 79 118l-5 10
q-7 22 -11 39zM387 592q-14 0 -38 11t-39 11t-24 -19q-2 -2 -7.5 -1t-5.5 2q23 43 51 43q15 0 39 -11q27 -10 41.5 -10t22.5 20q1 2 6.5 1.5t5.5 -1.5q0 -46 -52 -46zM60 115q0 -36 19.5 -66.5t63.5 -42.5q-55 52 -82 126q-1 -9 -1 -17z" />
    <glyph glyph-name="Odieresis" unicode="&#xd6;" horiz-adv-x="577" 
d="M39 268q-1 79 86 152v10q0 95 74 130q26 12 52 12q80 0 152 -85q67 -14 111 -62.5t44 -126.5t-51 -156q-14 -90 -68 -146t-121 -56t-121 28q-99 1 -135 59q-21 35 -21 73t9 72q-11 41 -11 95v1zM355 319q-14 -36 -37 -49t-37 -13t-32 3t-45 19.5t-46 40.5
q-63 -70 -87 -144q18 -110 93 -173q8 -2 16.5 -2t16.5 1q82 4 169 59.5t130 138.5q-8 164 -103 276q-17 4 -40 4q-132 0 -215 -82q7 -34 16 -50q90 86 181 86q12 0 12 -6.5t-13 -6.5q-78 0 -169 -93q23 -33 52 -47.5t52 -14.5l25 4q36 10 53 52q1 4 5 2.5t3 -5.5zM380 491
q-66 72 -132 72q-23 0 -45 -10q-67 -33 -67 -116v-10q91 66 217 66q9 0 27 -2zM217 -31q45 -21 102 -21t105 46t64 122q-50 -64 -122.5 -103.5t-148.5 -43.5zM509 231q15 41 15 92t-29 90.5t-77 55.5q72 -97 91 -238zM129 389q-55 -61 -63 -131v-36q25 62 79 118l-5 10
q-7 22 -11 39zM60 115q0 -36 19.5 -66.5t63.5 -42.5q-55 52 -82 126q-1 -9 -1 -17zM491 601q0 -22 -21 -22q-23 0 -23 22t22 22t22 -22zM405 601q0 -22 -21 -22q-23 0 -23 22t22 22t22 -22z" />
    <glyph glyph-name="multiply" unicode="&#xd7;" horiz-adv-x="159" 
d="M143 131l-50 -53l29 -56q0 -2 -6 -7q-4 -6 -7 -6l-28 56l-49 -53q-1 0 -5 6l-2 8l49 53l-29 56l6 8l7 6l28 -57l49 53q2 0 5 -6t3 -8z" />
    <glyph glyph-name="Oslash" unicode="&#xd8;" horiz-adv-x="813" 
d="M736 512q74 -54 74 -138.5t-70 -173.5q-80 -104 -226 -168q-94 -42 -190 -54l-66 -86h-28l63 83q-27 -3 -53 -3q-84 0 -123.5 33t-39.5 86q0 37 20 85q-31 14 -50 42t-19 62q0 95 89 167q56 47 142 79q20 27 26 34q87 101 202 101q53 0 81.5 -27t34.5 -69q66 -12 113 -40
l25 32h29zM587 539v6q-40 4 -63 4q-80 0 -161.5 -24.5t-112.5 -38.5q-33 -64 -33 -143v-16q23 20 52 40q98 68 180 82q10 1 10 -4t-8 -7q-78 -15 -164 -84q-41 -34 -65 -62q12 -66 60 -111l8 -8q62 10 123 53q78 54 126 140t48 173zM577 154l3 1q2 0 4 -3q0 -3 -1 -5
q-59 -42 -136 -42q-16 0 -24 1l-81 -105q217 36 366 230q65 83 65 151t-52 111l-292 -379q12 -1 24 -1q69 0 124 41zM239 -7q25 0 71 4l87 112q-55 10 -102 46q-30 -5 -66.5 -5t-87.5 14q-14 -39 -14 -69q0 -48 29.5 -75t82.5 -27zM203 343q0 71 29 135q-42 -19 -88 -51
q-92 -66 -92 -144q0 -29 16 -51q15 -24 40 -35q36 65 96 118q-1 9 -1 28zM605 539q0 -19 -5 -47q-27 -137 -120 -235q-76 -79 -171 -100q42 -31 94 -40l299 389q-42 26 -97 36v-3zM585 568q-16 86 -97 86q-29 0 -65 -12q-80 -26 -140 -103l-5 -6l33 10q103 30 195 30
q37 0 79 -5zM151 183q48 -14 81 -14t43 2q-48 44 -65 108q-39 -48 -59 -96z" />
    <glyph glyph-name="Ugrave" unicode="&#xd9;" horiz-adv-x="707" 
d="M-27 398q-19 27 -19 57t22.5 62.5t67.5 48.5q22 8 43 8t42 -8q5 -2 3 -6q-2 -1 -5 -1q-21 8 -41 8q-38 0 -81 -32.5t-43 -79.5q0 -11 4 -24.5t11 -25.5q24 43 73 77q92 64 192 64q67 0 104 -32q40 9 65 9t52.5 -13t34.5 -39q2 -4 2 -8q0 -24 -32.5 -52t-91.5 -49
q-11 -43 -46 -110.5t-55.5 -119.5t-20.5 -91q0 -10 1 -20q67 13 111 57q38 36 48 86q3 10 3 19q0 28 -16 38q-6 4 -2.5 5.5t5.5 0.5q23 -14 23 -54q0 -48 -39 -95q-47 -57 -130 -71q9 -37 48 -37q77 0 173 161q32 53 79 165t87 233q2 11 17 14t28.5 -4t11.5 -20
q-111 -262 -111 -431q0 -99 39 -98q17 1 38 22t35 58q1 2 4 2q6 2 6 -4q0 -29 -42 -73q-26 -29 -53 -29q-13 0 -26 7q-41 21 -43 95v43t13 130q-47 -85 -65 -114q-109 -177 -194 -177q-60 0 -79 54h-5q-42 0 -80 17q-76 34 -99 123q-5 20 -5 43q0 74 48 147q-55 12 -88 41
q-14 -27 -14 -45.5t2 -31.5t15.5 -29t37.5 -25q5 -2 1.5 -6t-9.5 -1q-60 31 -68 74q-2 12 -2 33t15 54zM221 16q-4 16 -4 43.5t15 73.5t51.5 114t48.5 102q-93 -25 -165 -25q-28 0 -42 2.5t-20 2.5q-55 -85 -55 -156t48 -114t114 -43h9zM251 530q-98 0 -189 -74
q-43 -35 -64 -74q34 -28 90 -41q20 27 26 34q80 92 204 131q-25 24 -67 24zM110 337q21 -5 55 -5q79 0 170 27q12 35 12 58t-3 42t-18 39q-115 -39 -196 -136zM354 506q30 -36 30 -87q0 -22 -6 -47q57 22 81 43q31 29 31 52q0 12 -9 22q-23 26 -67 26q-5 0 -23.5 -2
t-36.5 -7zM455 600q-6 6 -6 18t9 12q5 0 13 -6.5t24 -17.5q26 -19 62 -48q4 -3 4 -7q0 -7 -8 -7q-12 0 -98 56z" />
    <glyph glyph-name="Uacute" unicode="&#xda;" horiz-adv-x="707" 
d="M-27 398q-19 27 -19 57t22.5 62.5t67.5 48.5q22 8 43 8t42 -8q5 -2 3 -6q-2 -1 -5 -1q-21 8 -41 8q-38 0 -81 -32.5t-43 -79.5q0 -11 4 -24.5t11 -25.5q24 43 73 77q92 64 192 64q67 0 104 -32q40 9 65 9t52.5 -13t34.5 -39q2 -4 2 -8q0 -24 -32.5 -52t-91.5 -49
q-11 -43 -46 -110.5t-55.5 -119.5t-20.5 -91q0 -10 1 -20q67 13 111 57q38 36 48 86q3 10 3 19q0 28 -16 38q-6 4 -2.5 5.5t5.5 0.5q23 -14 23 -54q0 -48 -39 -95q-47 -57 -130 -71q9 -37 48 -37q77 0 173 161q32 53 79 165t87 233q2 11 17 14t28.5 -4t11.5 -20
q-111 -262 -111 -431q0 -99 39 -98q17 1 38 22t35 58q1 2 4 2q6 2 6 -4q0 -29 -42 -73q-26 -29 -53 -29q-13 0 -26 7q-41 21 -43 95v43t13 130q-47 -85 -65 -114q-109 -177 -194 -177q-60 0 -79 54h-5q-42 0 -80 17q-76 34 -99 123q-5 20 -5 43q0 74 48 147q-55 12 -88 41
q-14 -27 -14 -45.5t2 -31.5t15.5 -29t37.5 -25q5 -2 1.5 -6t-9.5 -1q-60 31 -68 74q-2 12 -2 33t15 54zM221 16q-4 16 -4 43.5t15 73.5t51.5 114t48.5 102q-93 -25 -165 -25q-28 0 -42 2.5t-20 2.5q-55 -85 -55 -156t48 -114t114 -43h9zM251 530q-98 0 -189 -74
q-43 -35 -64 -74q34 -28 90 -41q20 27 26 34q80 92 204 131q-25 24 -67 24zM110 337q21 -5 55 -5q79 0 170 27q12 35 12 58t-3 42t-18 39q-115 -39 -196 -136zM354 506q30 -36 30 -87q0 -22 -6 -47q57 22 81 43q31 29 31 52q0 12 -9 22q-23 26 -67 26q-5 0 -23.5 -2
t-36.5 -7zM550.5 588l41 30.5t27 7.5t16.5 -13q0 -3 -3.5 -9t-59 -32t-61.5 -26t-6 3.5t1 5.5z" />
    <glyph glyph-name="Ucircumflex" unicode="&#xdb;" horiz-adv-x="707" 
d="M-27 398q-19 27 -19 57t22.5 62.5t67.5 48.5q22 8 43 8t42 -8q5 -2 3 -6q-2 -1 -5 -1q-21 8 -41 8q-38 0 -81 -32.5t-43 -79.5q0 -11 4 -24.5t11 -25.5q24 43 73 77q92 64 192 64q67 0 104 -32q40 9 65 9t52.5 -13t34.5 -39q2 -4 2 -8q0 -24 -32.5 -52t-91.5 -49
q-11 -43 -46 -110.5t-55.5 -119.5t-20.5 -91q0 -10 1 -20q67 13 111 57q38 36 48 86q3 10 3 19q0 28 -16 38q-6 4 -2.5 5.5t5.5 0.5q23 -14 23 -54q0 -48 -39 -95q-47 -57 -130 -71q9 -37 48 -37q77 0 173 161q32 53 79 165t87 233q2 11 17 14t28.5 -4t11.5 -20
q-111 -262 -111 -431q0 -99 39 -98q17 1 38 22t35 58q1 2 4 2q6 2 6 -4q0 -29 -42 -73q-26 -29 -53 -29q-13 0 -26 7q-41 21 -43 95v43t13 130q-47 -85 -65 -114q-109 -177 -194 -177q-60 0 -79 54h-5q-42 0 -80 17q-76 34 -99 123q-5 20 -5 43q0 74 48 147q-55 12 -88 41
q-14 -27 -14 -45.5t2 -31.5t15.5 -29t37.5 -25q5 -2 1.5 -6t-9.5 -1q-60 31 -68 74q-2 12 -2 33t15 54zM221 16q-4 16 -4 43.5t15 73.5t51.5 114t48.5 102q-93 -25 -165 -25q-28 0 -42 2.5t-20 2.5q-55 -85 -55 -156t48 -114t114 -43h9zM251 530q-98 0 -189 -74
q-43 -35 -64 -74q34 -28 90 -41q20 27 26 34q80 92 204 131q-25 24 -67 24zM110 337q21 -5 55 -5q79 0 170 27q12 35 12 58t-3 42t-18 39q-115 -39 -196 -136zM354 506q30 -36 30 -87q0 -22 -6 -47q57 22 81 43q31 29 31 52q0 12 -9 22q-23 26 -67 26q-5 0 -23.5 -2
t-36.5 -7zM582 652q8 0 8 -2l30 -86q0 -4 -2 -5q-12 0 -15 5l-37 58l-108 -58q-4 -4 -14 -4q-8 -2 -8 2l1 2l122 86q15 2 23 2z" />
    <glyph glyph-name="Udieresis" unicode="&#xdc;" horiz-adv-x="707" 
d="M-27 398q-19 27 -19 57t22.5 62.5t67.5 48.5q22 8 43 8t42 -8q5 -2 3 -6q-2 -1 -5 -1q-21 8 -41 8q-38 0 -81 -32.5t-43 -79.5q0 -11 4 -24.5t11 -25.5q24 43 73 77q92 64 192 64q67 0 104 -32q40 9 65 9t52.5 -13t34.5 -39q2 -4 2 -8q0 -24 -32.5 -52t-91.5 -49
q-11 -43 -46 -110.5t-55.5 -119.5t-20.5 -91q0 -10 1 -20q67 13 111 57q38 36 48 86q3 10 3 19q0 28 -16 38q-6 4 -2.5 5.5t5.5 0.5q23 -14 23 -54q0 -48 -39 -95q-47 -57 -130 -71q9 -37 48 -37q77 0 173 161q32 53 79 165t87 233q2 11 17 14t28.5 -4t11.5 -20
q-111 -262 -111 -431q0 -99 39 -98q17 1 38 22t35 58q1 2 4 2q6 2 6 -4q0 -29 -42 -73q-26 -29 -53 -29q-13 0 -26 7q-41 21 -43 95v43t13 130q-47 -85 -65 -114q-109 -177 -194 -177q-60 0 -79 54h-5q-42 0 -80 17q-76 34 -99 123q-5 20 -5 43q0 74 48 147q-55 12 -88 41
q-14 -27 -14 -45.5t2 -31.5t15.5 -29t37.5 -25q5 -2 1.5 -6t-9.5 -1q-60 31 -68 74q-2 12 -2 33t15 54zM221 16q-4 16 -4 43.5t15 73.5t51.5 114t48.5 102q-93 -25 -165 -25q-28 0 -42 2.5t-20 2.5q-55 -85 -55 -156t48 -114t114 -43h9zM251 530q-98 0 -189 -74
q-43 -35 -64 -74q34 -28 90 -41q20 27 26 34q80 92 204 131q-25 24 -67 24zM110 337q21 -5 55 -5q79 0 170 27q12 35 12 58t-3 42t-18 39q-115 -39 -196 -136zM354 506q30 -36 30 -87q0 -22 -6 -47q57 22 81 43q31 29 31 52q0 12 -9 22q-23 26 -67 26q-5 0 -23.5 -2
t-36.5 -7zM532 566q0 -22 -21 -22q-23 0 -23 22t22 22t22 -22zM618 566q0 -22 -21 -22q-23 0 -23 22t22 22t22 -22z" />
    <glyph glyph-name="Yacute" unicode="&#xdd;" horiz-adv-x="707" 
d="M39 -254q-26 41 -26 81q0 71 62 113q26 18 58 18q38 0 65.5 -21t39.5 -47q62 27 140.5 55t106.5 39q10 36 23 94q42 191 56 178q2 -4 0 -10q-20 -43 -37.5 -133t-25.5 -122q32 12 40 16q0 6 8 61t17.5 101.5t21.5 90.5q27 107 72 189q-69 -82 -156 -233l-49 -82
q-79 -119 -101 -119q-3 0 -4.5 2.5t0.5 4.5q23 55 35.5 129t12.5 113.5t-1 56.5q-6 -4 -27 -13v-31q0 -122 -43 -256q-1 -5 -4.5 -3t-2.5 5q40 123 40 264v16l-7 -3q-53 -25 -57 -25q-12 0 -7 9l61 46q-16 -1 -31 -1q-79 0 -137 33t-82 69q-4 -6 -15.5 -34t-11.5 -56
t14.5 -50.5t53 -22.5t74.5 49q4 6 4 1q-7 -22 -36.5 -44t-63 -22t-50 26.5t-16.5 56.5q0 60 38 109q-16 28 -16 54t9.5 44t27.5 31q24 17 53 17q49 0 99 -43h7q47 0 86 -28q65 -46 73 -166q44 15 71 39.5t29 56.5q0 2 2 3q6 3 6 -4q-6 -70 -107 -103q1 -13 1 -27
q0 -67 -18.5 -147.5t-49.5 -141.5q18 8 51 65l27 46.5l21 36.5t38 67.5l57 100.5t66 97.5t81 89.5q9 8 15.5 5.5t6.5 -7.5t-5 -13q-47 -69 -77.5 -158t-40 -153.5t-14.5 -120t-6 -58.5q28 12 63 32t34 15q-2 -7 -39 -31.5t-63 -36.5q-23 -92 -77 -178t-137 -143
q-63 -43 -130 -61q-35 -10 -63 -10q-98 0 -130 55q-11 18 -11 37.5t8 39.5zM58 -264q48 -56 127 -56q60 0 127.5 43.5t113.5 116.5q30 45 54 125q-140 -55 -234 -101q3 -14 3 -38.5t-19 -58.5q-1 -2 -4 -2q-5 0 -3 6q15 26 15 48.5t-4 38.5q-69 -32 -118 -65
q-41 -30 -58 -57zM322 336q18 0 36 2q-11 83 -66 159q-17 22 -31 36q-7 1 -14 1l-72 -22q-43 -25 -71 -73q26 -39 82.5 -71t135.5 -32zM186 -328q-84 0 -133 55q-6 -12 -6 -23.5t7 -22.5q22 -38 105 -38q45 0 81 12q107 28 190 118t108 216l-42 -17q-23 -86 -55 -136
q-50 -75 -121.5 -119.5t-133.5 -44.5zM44 -244q39 65 180 128q-12 22 -36 40q-26 20 -58 20q-60 0 -94 -54q-15 -24 -15 -60t23 -74zM247 545q-44 37 -88 37q-36 0 -63 -32q-15 -17 -15 -43.5t15 -55.5q61 82 151 94zM283 528q73 -83 85 -185q15 10 26 12q-19 146 -111 173z
" />
    <glyph glyph-name="Thorn" unicode="&#xde;" horiz-adv-x="358" 
d="M20 -111q-12 27 -12 64.5t74 267.5q-12 13 -12 31q0 24 19 42q2 -18 7 -33l27 81q18 65 55 151.5t60.5 123.5t44.5 46q4 1 33.5 1t35.5 -1q26 -3 42 -19q4 -5 4 -7t-3.5 -2.5t-16.5 7t-27.5 7.5h-16.5q-72 -1 -162 -282q18 30 62 80t56.5 61t23 11h14.5q31 -3 31 -46
q0 -25 -11 -74.5t-43.5 -99.5t-81 -74t-84.5 -24q-11 0 -22 2l-13 -44q-40 -137 -46 -191q0 -3 -2 -15.5t-3 -20t-2 -20.5t1 -21.5t5 -18.5q5 -16 23.5 -20t18 -8t-8 -4t-20.5 2q-33 4 -50 47zM151 213q27 0 64.5 35t65 90.5t27.5 98t-11 42.5q-2 0 -4 -1q-35 -18 -77 -74
t-74 -121q-5 -14 -19 -61q14 -9 28 -9z" />
    <glyph glyph-name="germandbls" unicode="&#xdf;" horiz-adv-x="508" 
d="M399 466q56 -5 83.5 -29t27.5 -58.5t-33 -68.5q-28 -33 -74 -57q-14 -6 -14 -14.5t6 -10.5q74 -27 74 -97q0 -58 -55 -109q-63 -58 -161 -58q-28 0 -28 7t23 8q79 3 130.5 51t51.5 98t-41 74q-25 15 -25 31.5t31 37.5q71 48 71 104.5t-53 73.5q-6 2 -8 2q-15 0 -30 -18
t-24 -42q-142 -417 -218 -505q-87 -103 -168 -103q-61 0 -61 49q0 17 13 31t29 14t25 -9q8 -10 6.5 -23.5t-11.5 -23t-23 -9.5t-21 8q7 -19 39 -19q6 0 14 2q58 15 95 61.5t89 165.5l161 374q25 62 72 62h7z" />
    <glyph glyph-name="agrave" unicode="&#xe0;" horiz-adv-x="269" 
d="M107 142q-29 -39 -41 -68t-12 -43t9 -14q27 0 109 120q32 41 32 -1q-2 -26 -2 -44q0 -76 32 -76q34 0 83 55q3 3 7 -4q-3 -7 -20.5 -24.5t-43.5 -31.5t-39.5 -14t-21.5 3q-37 13 -37 102q-40 -63 -58 -80q-28 -26 -46 -26h-3q-33 5 -33 44.5t25.5 88t67.5 87.5t84 39
q20 0 39 -10q17 -10 17 -31.5t-19 -24.5q7 12 7 22.5t-10 15.5t-18 5q-43 0 -108 -90zM131 351q-6 6 -6 18t9 12q5 0 13 -6.5t24 -18.5q26 -18 62 -47q4 -3 4 -7q0 -7 -8 -7q-12 0 -98 56z" />
    <glyph glyph-name="aacute" unicode="&#xe1;" horiz-adv-x="269" 
d="M107 142q-29 -39 -41 -68t-12 -43t9 -14q27 0 109 120q32 41 32 -1q-2 -26 -2 -44q0 -76 32 -76q34 0 83 55q3 3 7 -4q-3 -7 -20.5 -24.5t-43.5 -31.5t-39.5 -14t-21.5 3q-37 13 -37 102q-40 -63 -58 -80q-28 -26 -46 -26h-3q-33 5 -33 44.5t25.5 88t67.5 87.5t84 39
q20 0 39 -10q17 -10 17 -31.5t-19 -24.5q7 12 7 22.5t-10 15.5t-18 5q-43 0 -108 -90zM208.5 343l41 30.5t27 7.5t16.5 -13q0 -3 -3.5 -9t-59 -32t-61.5 -26t-6 3.5t1 5.5z" />
    <glyph glyph-name="acircumflex" unicode="&#xe2;" horiz-adv-x="269" 
d="M107 142q-29 -39 -41 -68t-12 -43t9 -14q27 0 109 120q32 41 32 -1q-2 -26 -2 -44q0 -76 32 -76q34 0 83 55q3 3 7 -4q-3 -7 -20.5 -24.5t-43.5 -31.5t-39.5 -14t-21.5 3q-37 13 -37 102q-40 -63 -58 -80q-28 -26 -46 -26h-3q-33 5 -33 44.5t25.5 88t67.5 87.5t84 39
q20 0 39 -10q17 -10 17 -31.5t-19 -24.5q7 12 7 22.5t-10 15.5t-18 5q-43 0 -108 -90zM246 366q8 0 8 -2l30 -86q0 -4 -2 -5q-12 0 -15 5l-37 58l-108 -58q-4 -4 -14 -4q-8 -2 -8 2l1 2l122 86q15 2 23 2z" />
    <glyph glyph-name="atilde" unicode="&#xe3;" horiz-adv-x="269" 
d="M107 142q-29 -39 -41 -68t-12 -43t9 -14q27 0 109 120q32 41 32 -1q-2 -26 -2 -44q0 -76 32 -76q34 0 83 55q3 3 7 -4q-3 -7 -20.5 -24.5t-43.5 -31.5t-39.5 -14t-21.5 3q-37 13 -37 102q-40 -63 -58 -80q-28 -26 -46 -26h-3q-33 5 -33 44.5t25.5 88t67.5 87.5t84 39
q20 0 39 -10q17 -10 17 -31.5t-19 -24.5q7 12 7 22.5t-10 15.5t-18 5q-43 0 -108 -90zM237 285q-14 0 -38 11t-39 11t-24 -19q-2 -2 -7.5 -1t-5.5 2q23 43 51 43q15 0 39 -11q27 -10 41.5 -10t22.5 20q1 2 6.5 1.5t5.5 -1.5q0 -46 -52 -46z" />
    <glyph glyph-name="adieresis" unicode="&#xe4;" horiz-adv-x="269" 
d="M107 142q-29 -39 -41 -68t-12 -43t9 -14q27 0 109 120q32 41 32 -1q-2 -26 -2 -44q0 -76 32 -76q34 0 83 55q3 3 7 -4q-3 -7 -20.5 -24.5t-43.5 -31.5t-39.5 -14t-21.5 3q-37 13 -37 102q-40 -63 -58 -80q-28 -26 -46 -26h-3q-33 5 -33 44.5t25.5 88t67.5 87.5t84 39
q20 0 39 -10q17 -10 17 -31.5t-19 -24.5q7 12 7 22.5t-10 15.5t-18 5q-43 0 -108 -90zM271 318q0 -22 -21 -22q-23 0 -23 22t22 22t22 -22zM185 318q0 -22 -21 -22q-23 0 -23 22t22 22t22 -22z" />
    <glyph glyph-name="aring" unicode="&#xe5;" horiz-adv-x="269" 
d="M107 142q-29 -39 -41 -68t-12 -43t9 -14q27 0 109 120q32 41 32 -1q-2 -26 -2 -44q0 -76 32 -76q34 0 83 55q3 3 7 -4q-3 -7 -20.5 -24.5t-43.5 -31.5t-39.5 -14t-21.5 3q-37 13 -37 102q-40 -63 -58 -80q-28 -26 -46 -26h-3q-33 5 -33 44.5t25.5 88t67.5 87.5t84 39
q20 0 39 -10q17 -10 17 -31.5t-19 -24.5q7 12 7 22.5t-10 15.5t-18 5q-43 0 -108 -90zM273 315q0 -18 -13 -30.5t-29 -12.5t-29.5 12.5t-13.5 30.5t13.5 30.5t29.5 12.5t29 -12.5t13 -30.5zM261 315q0 13 -9 22t-22 9t-22 -9t-9 -22t9 -22t22 -9t22 9t9 22z" />
    <glyph glyph-name="ae" unicode="&#xe6;" horiz-adv-x="327" 
d="M169 -9q-62 0 -62 68v10q-21 -28 -46 -48q-25 -22 -44 -22q-24 0 -24 29t18 58q44 67 98 91q22 11 38.5 11t24.5 -4q24 21 47 21q33 0 33 -33q0 -20 -17 -43q-30 -37 -89 -52q-3 -13 -3 -24q0 -46 42 -46q34 0 80 25.5t70 52.5q13 15 13 1q0 -5 -4 -9q-25 -30 -79 -58
t-96 -28zM38 87q-11 -22 -11 -39t11.5 -17t32.5 16q33 28 45 59q7 38 17 59q-55 0 -95 -78zM221 139q13 22 13 35.5t-8 13.5q-12 0 -37 -32t-39 -67q51 16 71 50z" />
    <glyph glyph-name="ccedilla" unicode="&#xe7;" horiz-adv-x="199" 
d="M43 -14q-31 13 -31 66q0 23 7 44q20 76 73 133q25 26 46.5 26t39.5 -16q5 -4 9.5 -15.5t1.5 -18.5t-9 6q-6 11 -22 11q-28 0 -57 -46q-53 -85 -53 -135q0 -16 7.5 -28t17.5 -12q61 0 128 77q7 7 7 1t-11.5 -20t-42.5 -37q-51 -40 -92 -40q-5 0 -9 1q-16 -12 -16 -14
q18 2 35.5 2t41.5 -11q28 -15 28 -41.5t-34 -48.5q-16 -12 -42.5 -12t-59.5 8t-33 23q0 5 3 5t11 -8q16 -16 61 -16t60 24q10 13 10 28.5t-15 26t-31.5 10.5t-34.5 -8l-17 -8q-13 0 -13 10q0 3 3 6l26 21q6 6 7 6z" />
    <glyph glyph-name="egrave" unicode="&#xe8;" horiz-adv-x="225" 
d="M190 235q19 -15 19 -38t-22 -53h20q15 0 -1 -5.5t-30 -8.5q-10 -12 -23 -21.5t-12 -1.5l5 9l10 11q-81 -6 -86 -7q-11 -27 -11 -58t15 -43.5t26 -12.5q69 0 140 75q9 9 9 -1q0 -3 -6 -10q-20 -24 -56 -46q-58 -37 -93.5 -37t-56.5 19.5t-21 59.5q0 14 4.5 37t23 59.5
t45 62t52 25.5t49.5 -15zM166 143q17 35 17 51t-7.5 23t-23 0t-36.5 -27t-36 -49q74 2 86 2zM87 335q-6 6 -6 18t9 12q5 0 13 -6.5t24 -18.5q26 -18 62 -47q4 -3 4 -7q0 -7 -8 -7q-12 0 -98 56z" />
    <glyph glyph-name="eacute" unicode="&#xe9;" horiz-adv-x="225" 
d="M190 235q19 -15 19 -38t-22 -53h20q15 0 -1 -5.5t-30 -8.5q-10 -12 -23 -21.5t-12 -1.5l5 9l10 11q-81 -6 -86 -7q-11 -27 -11 -58t15 -43.5t26 -12.5q69 0 140 75q6 6 8 1.5t-11.5 -20.5t-49.5 -38q-58 -37 -93.5 -37t-56.5 19.5t-21 59.5q0 14 4.5 37t23 59.5t45 62
t52 25.5t49.5 -15zM166 143q17 35 17 51t-7.5 23t-23 0t-36.5 -27t-36 -49q74 2 86 2zM182.5 322l41 30.5t27 7.5t16.5 -13q0 -3 -3.5 -9t-59 -32t-61.5 -26t-6 3.5t1 5.5z" />
    <glyph glyph-name="ecircumflex" unicode="&#xea;" horiz-adv-x="225" 
d="M190 235q19 -15 19 -38t-22 -53h20q15 0 -1 -5.5t-30 -8.5q-10 -12 -23 -21.5t-12 -1.5l5 9l10 11q-81 -6 -86 -7q-11 -27 -11 -58t15 -43.5t26 -12.5q69 0 140 75q9 9 9 -1q0 -3 -6 -10q-20 -24 -56 -46q-58 -37 -93.5 -37t-56.5 19.5t-21 59.5q0 14 4.5 37t23 59.5
t45 62t52 25.5t49.5 -15zM63 269q-8 -2 -8 0.5t0.5 2.5t0.5 1l122 86q15 2 22.5 2t8.5 -2l30 -86q0 -4 -2 -5q-13 0 -15 5l-37 58l-108 -58q-4 -4 -14 -4zM166 143q17 35 17 56t-18 21t-44 -25t-41 -54q74 2 86 2z" />
    <glyph glyph-name="edieresis" unicode="&#xeb;" horiz-adv-x="225" 
d="M190 235q19 -15 19 -38t-22 -53h20q15 0 -1 -5.5t-30 -8.5q-10 -12 -23 -21.5t-12 -1.5l5 9l10 11q-81 -6 -86 -7q-11 -27 -11 -58t15 -43.5t26 -12.5q69 0 140 75q9 9 9 -1q0 -3 -6 -10q-20 -24 -56 -46q-58 -37 -93.5 -37t-56.5 19.5t-21 59.5q0 14 4.5 37t23 59.5
t45 62t52 25.5t49.5 -15zM166 143q17 35 17 51t-7.5 23t-23 0t-36.5 -27t-36 -49q74 2 86 2zM242 314q0 -22 -21 -22q-23 0 -23 22t22 22t22 -22zM156 314q0 -22 -21 -22q-23 0 -23 22t22 22t22 -22z" />
    <glyph glyph-name="igrave" unicode="&#xec;" horiz-adv-x="136" 
d="M63 0q-34 0 -34 58q0 37 16.5 95.5t18 64.5t22.5 5.5t20 -11.5q0 -11 -7.5 -29.5t-17.5 -20.5q-2 0 -9.5 -49t-7.5 -57.5t2 -18.5q3 -14 15 -14t51 32.5t42 35.5t5 1.5t2 -3t-1 -3.5q-15 -25 -55 -55.5t-62 -30.5zM43 329q-6 6 -6 18t9 12q5 0 13 -6.5t24 -18.5
q26 -18 62 -47q4 -3 4 -7q0 -7 -8 -7q-12 0 -98 56z" />
    <glyph glyph-name="iacute" unicode="&#xed;" horiz-adv-x="136" 
d="M63 0q-34 0 -34 58q0 37 16.5 95.5t18 64.5t22.5 5.5t20 -11.5q0 -11 -7.5 -29.5t-17.5 -20.5q-2 0 -9.5 -49t-7.5 -57.5t2 -18.5q3 -14 15 -14t51 32.5t42 35.5t5.5 1t0.5 -6q-15 -25 -55 -55.5t-62 -30.5zM127.5 310l41 30.5t27 7.5t16.5 -13q0 -3 -3.5 -9t-59 -32
t-61.5 -26t-6 3.5t1 5.5z" />
    <glyph glyph-name="icircumflex" unicode="&#xee;" horiz-adv-x="136" 
d="M63 0q-34 0 -34 58q0 37 16.5 95.5t18 64.5t22.5 5.5t20 -11.5q0 -11 -7.5 -29.5t-17.5 -20.5q-2 0 -9.5 -49t-7.5 -57.5t2 -18.5q3 -14 15 -14t51 32.5t42 35.5t5 1.5t2 -3t-1 -3.5q-15 -25 -55 -55.5t-62 -30.5zM-4 239q-8 -2 -8 0.5t0.5 2.5t0.5 1l122 86q15 2 23 2
t8 -2l30 -86q0 -4 -2 -5q-12 0 -15 5l-37 58l-108 -58q-4 -4 -14 -4z" />
    <glyph glyph-name="idieresis" unicode="&#xef;" horiz-adv-x="136" 
d="M63 0q-34 0 -34 58q0 37 16.5 95.5t18 64.5t22.5 5.5t20 -11.5q0 -11 -7.5 -29.5t-17.5 -20.5q-2 0 -9.5 -49t-7.5 -57.5t2 -18.5q3 -14 15 -14t51 32.5t42 35.5t5 1.5t2 -3t-1 -3.5q-15 -25 -55 -55.5t-62 -30.5zM173 299q0 -22 -21 -22q-23 0 -23 22t22 22t22 -22z
M87 299q0 -22 -21 -22q-23 0 -23 22t22 22t22 -22z" />
    <glyph glyph-name="eth" unicode="&#xf0;" horiz-adv-x="340" 
d="M311 329q10 30 10 47q0 37 -48 37q-60 0 -139 -74q-78 -75 -78 -135q0 -35 31 -35q23 0 60.5 18.5t56 32.5t47.5 46t32 35q1 3 7.5 3t15.5 -9.5t9 -14t-54 -88.5q-94 -148 -108 -219l-5 -20t-10.5 -8t-8.5 12q3 78 94 255q-88 -65 -148 -65q-54 0 -54 65q0 75 95 150
q86 70 156.5 70t70.5 -55q0 -18 -8.5 -36t-15.5 -21l-4 3v-2l-2 3q-2 0 -2 5z" />
    <glyph glyph-name="ntilde" unicode="&#xf1;" horiz-adv-x="253" 
d="M272 21q0 -23 -39 -41q-14 -6 -28 -6q-32 3 -41.5 22.5t-9.5 33.5t2 32.5t7.5 45t14 53t8.5 27.5q-9 -12 -40 -48q-80 -89 -87.5 -110t-29.5 -28q-12 -4 -12 5q0 2 7 29q22 84 22 134l-1 27q0 17 23 28q10 5 18 5q14 0 11 -13.5t-10 -50.5q-16 -87 -20 -95q59 54 127 160
q5 9 23.5 7t20.5 -9t-2 -20t-12.5 -38t-14.5 -49q-15 -61 -15 -87.5t4 -37.5t14 -10q29 4 56 37q4 4 4 -3zM198 280q-14 0 -38 11t-39 11t-24 -19q-2 -2 -7.5 -1t-5.5 2q23 43 51 43q15 0 39 -11q27 -10 41.5 -10t22.5 20q1 2 6.5 1.5t5.5 -1.5q0 -46 -52 -46z" />
    <glyph glyph-name="ograve" unicode="&#xf2;" horiz-adv-x="235" 
d="M246 180l47 5q3 0 3 -2t-3 -5l-8 -7q-24 -11 -49 -11t-33 4v-11t-9.5 -39t-28.5 -63t-41 -48t-32.5 -15t-22 3t-25.5 21q-16 18 -16 50.5t10 66.5q37 112 91 117q7 8 17.5 8t27.5 -10q30 -19 33 -47q14 -17 39 -17zM103 173q-20 -35 -29.5 -70t-9.5 -59.5t18 -33.5
q5 -2 11 -2q24 0 54 47q17 27 27 60t10 42t-1 12q-19 3 -30 14t-12 20l-1 9q-17 -4 -37 -39zM95 350q-6 6 -6 18t9 12q5 0 13 -6.5t24 -17.5q26 -19 62 -48q4 -3 4 -7q0 -7 -8 -7q-12 0 -98 56z" />
    <glyph glyph-name="oacute" unicode="&#xf3;" horiz-adv-x="235" 
d="M246 180l47 5q3 0 3 -2t-3 -5l-8 -7q-24 -11 -49 -11t-33 4v-11t-9.5 -39t-28.5 -63t-41 -48t-32.5 -15t-22 3t-25.5 21q-16 18 -16 50.5t10 66.5q37 112 91 117q7 8 17.5 8t27.5 -10q30 -19 33 -47q14 -17 39 -17zM103 173q-20 -35 -29.5 -70t-9.5 -59.5t18 -33.5
q5 -2 11 -2q24 0 54 47q17 27 27 60t10 42t-1 12q-19 3 -30 14t-12 20l-1 9q-17 -4 -37 -39zM173.5 342l41 30.5t27 7.5t16.5 -13q0 -3 -3.5 -9t-59 -32t-61.5 -26t-6 3.5t1 5.5z" />
    <glyph glyph-name="ocircumflex" unicode="&#xf4;" horiz-adv-x="235" 
d="M246 180l47 5q3 0 3 -2t-3 -5l-8 -7q-24 -11 -49 -11t-33 4v-11t-9.5 -39t-28.5 -63t-41 -48t-32.5 -15t-22 3t-25.5 21q-16 18 -16 50.5t10 66.5q37 112 91 117q7 8 17.5 8t27.5 -10q30 -19 33 -47q14 -17 39 -17zM103 173q-20 -35 -29.5 -70t-9.5 -59.5t18 -33.5
q5 -2 11 -2q24 0 54 47q17 27 27 60t10 42t-1 12q-19 3 -30 14t-12 20l-1 9q-17 -4 -37 -39zM202.5 354q7.5 0 8.5 -2l30 -86q0 -4 -2 -5q-13 0 -15 5l-37 58l-108 -58q-4 -4 -14 -4q-8 -2 -8 2l1 2l122 86q15 2 22.5 2z" />
    <glyph glyph-name="otilde" unicode="&#xf5;" horiz-adv-x="235" 
d="M246 180l47 5q3 0 3 -2t-3 -5l-8 -7q-24 -11 -49 -11t-33 4v-11t-9.5 -39t-28.5 -63t-41 -48t-32.5 -15t-22 3t-25.5 21q-16 18 -16 50.5t10 66.5q37 112 91 117q7 8 17.5 8t27.5 -10q30 -19 33 -47q14 -17 39 -17zM103 173q-20 -35 -29.5 -70t-9.5 -59.5t18 -33.5
q5 -2 11 -2q24 0 54 47q17 27 27 60t10 42t-1 12q-19 3 -30 14t-12 20l-1 9q-17 -4 -37 -39zM200 290q-14 0 -38 11t-39 11t-24 -19q-2 -2 -7.5 -1t-5.5 2q23 43 51 43q15 0 39 -11q27 -10 41.5 -10t22.5 20q1 2 6.5 1.5t5.5 -1.5q0 -46 -52 -46z" />
    <glyph glyph-name="odieresis" unicode="&#xf6;" horiz-adv-x="235" 
d="M246 180l47 5q3 0 3 -2t-3 -5l-8 -7q-24 -11 -49 -11t-33 4v-11t-9.5 -39t-28.5 -63t-41 -48t-32.5 -15t-22 3t-25.5 21q-16 18 -16 50.5t10 66.5q37 112 91 117q7 8 17.5 8t27.5 -10q30 -19 33 -47q14 -17 39 -17zM103 173q-20 -35 -29.5 -70t-9.5 -59.5t18 -33.5
q5 -2 11 -2q24 0 54 47q17 27 27 60t10 42t-1 12q-19 3 -30 14t-12 20l-1 9q-17 -4 -37 -39zM233 316q0 -22 -21 -22q-23 0 -23 22t22 22t22 -22zM147 316q0 -22 -21 -22q-23 0 -23 22t22 22t22 -22z" />
    <glyph glyph-name="divide" unicode="&#xf7;" horiz-adv-x="160" 
d="M-5 153h229v-15l-229 1v14zM187 242q0 -13 -9.5 -22t-22.5 -9t-23 9q-9 9 -9 22t9 22q10 9 23 9t22.5 -9t9.5 -22zM76 48q9 9 22.5 9t23 -9t9.5 -21.5t-9.5 -21.5t-23 -9t-22.5 9t-9 21.5t9 21.5z" />
    <glyph glyph-name="oslash" unicode="&#xf8;" 
 />
    <glyph glyph-name="ugrave" unicode="&#xf9;" horiz-adv-x="281" 
d="M256 17q30 0 78 54l6 -4q-2 -6 -20 -24.5t-43.5 -32t-39 -13.5t-21.5 3q-18 6 -28.5 35t-12.5 54.5t-1 26.5q-8 -12 -14.5 -23.5t-15.5 -24.5t-20 -26q-35 -46 -60 -46h-3q-38 6 -38 54q0 73 73 182q6 9 18 9t23 -2q15 -6 14 -11q-24 -24 -51 -72q-46 -84 -46 -119
q0 -19 12.5 -19t29 14.5t27.5 29.5l20 27.5t22 33t20 30.5t14.5 15.5t12 1t4 -17t-0.5 -21.5q0 -114 41 -114zM119 313q-6 6 -6 18t9 12q5 0 13 -6.5t24 -18.5q26 -18 62 -47q4 -3 4 -7q0 -7 -8 -7q-12 0 -98 56z" />
    <glyph glyph-name="uacute" unicode="&#xfa;" horiz-adv-x="281" 
d="M256 17q30 0 78 54l6 -4q-2 -6 -20 -24.5t-43.5 -32t-39 -13.5t-21.5 3q-18 6 -28.5 35t-12.5 54.5t-1 26.5q-8 -12 -14.5 -23.5t-15.5 -24.5t-20 -26q-35 -46 -60 -46h-3q-38 6 -38 54q0 73 73 182q6 9 18 9t23 -2q15 -6 14 -11q-24 -24 -51 -72q-46 -84 -46 -119
q0 -19 12.5 -19t29 14.5t27.5 29.5l20 27.5t22 33t20 30.5t14.5 15.5t12 1t4 -17t-0.5 -21.5q0 -114 41 -114zM208.5 300l41 30.5t27 7.5t16.5 -13q0 -3 -3.5 -9t-59 -32t-61.5 -26t-6 3.5t1 5.5z" />
    <glyph glyph-name="ucircumflex" unicode="&#xfb;" horiz-adv-x="281" 
d="M256 17q30 0 78 54l6 -4q-2 -6 -20 -24.5t-43.5 -32t-39 -13.5t-21.5 3q-18 6 -28.5 35t-12.5 54.5t-1 26.5q-8 -12 -14.5 -23.5t-15.5 -24.5t-20 -26q-35 -46 -60 -46h-3q-38 6 -38 54q0 73 73 182q6 9 18 9t23 -2q15 -6 14 -11q-24 -24 -51 -72q-46 -84 -46 -119
q0 -19 12.5 -19t29 14.5t27.5 29.5l20 27.5t22 33t20 30.5t14.5 15.5t12 1t4 -17t-0.5 -21.5q0 -114 41 -114zM232.5 346q7.5 0 8.5 -2l30 -86q0 -4 -2 -5q-13 0 -15 5l-37 58l-108 -58q-4 -4 -14 -4q-8 -2 -8 2l1 2l122 86q15 2 22.5 2z" />
    <glyph glyph-name="udieresis" unicode="&#xfc;" horiz-adv-x="281" 
d="M256 17q30 0 78 54l6 -4q-2 -6 -20 -24.5t-43.5 -32t-39 -13.5t-21.5 3q-18 6 -28.5 35t-12.5 54.5t-1 26.5q-8 -12 -14.5 -23.5t-15.5 -24.5t-20 -26q-35 -46 -60 -46h-3q-38 6 -38 54q0 73 73 182q6 9 18 9t23 -2q15 -6 14 -11q-24 -24 -51 -72q-46 -84 -46 -119
q0 -19 12.5 -19t29 14.5t27.5 29.5l20 27.5t22 33t20 30.5t14.5 15.5t12 1t4 -17t-0.5 -21.5q0 -114 41 -114zM269 277q0 -22 -21 -22q-23 0 -23 22t22 22t22 -22zM183 277q0 -22 -21 -22q-23 0 -23 22t22 22t22 -22z" />
    <glyph glyph-name="yacute" unicode="&#xfd;" horiz-adv-x="242" 
d="M225 208q0 -28 -18 -107t-31 -108q31 7 34 24q1 6 4.5 9t6 0.5t1.5 -10.5q-4 -29 -54 -41q-30 -83 -84 -163q-98 -144 -214 -163q-12 -2 -33.5 -2t-48.5 13q-38 19 -52 61q-5 17 -5 35.5t9 39.5q15 36 52 61q90 61 349 128q17 40 40 181q-41 -74 -87 -128
q-6 -21 -25 -34.5t-18 6.5q0 5 8 41.5t8 76t-21 39.5q-10 0 -21 -7t-12.5 -1.5t16.5 19t32 13.5t25 -6.5t13.5 -29.5t2.5 -37t-2.5 -32.5t-4.5 -20.5q0 -7 89 118q5 33 28 33q13 0 13 -8zM-41 -91.5q-109 -44.5 -149 -71.5t-54 -48.5t-14 -34.5q0 -52 54 -69q28 -8 48 -8
t41 2.5t47.5 13.5t46 23.5t39 35t31.5 38.5t27 45.5l22 44t20 47t18 42.5q-68 -16 -177 -60.5zM100.5 317l41 30.5t27 7.5t16.5 -13q0 -3 -3.5 -9t-59 -32t-61.5 -26t-6 3.5t1 5.5z" />
    <glyph glyph-name="thorn" unicode="&#xfe;" horiz-adv-x="250" 
d="M102 -4q-23 0 -23 26q0 34 43 68l28 22l12 11q0 21 -18 59t-32 38q-1 0 -27 -73q-78 -221 -86 -296q0 -3 -1.5 -12l-2.5 -15.5t-1.5 -15.5t0.5 -16t4 -14q4 -14 17.5 -16t13.5 -6q1 -3 -5 -3q-39 0 -54 39q-9 20 -9 37.5t6.5 47.5t35.5 122t53 161l25 68q-1 0 -4 1.5
l-5 2.5q-5 1 -3 7.5t8 12.5q15 13 15 9l24 67q70 207 72 221t2 17.5t-2 7t-3 4.5t-3.5 3t-3.5 3q-7 3 1 6h9q20 -5 30 -16t7.5 -20t-51.5 -156l-49 -147q61 -39 71 -110q0 -3 18 8q37 22 37 15q-1 -7 -12 -15q-42 -25 -42 -26q-2 -54 -24 -85t-56 -40q-9 -2 -15 -2zM162 109
q-62 -53 -62 -80q0 -12 14 -12q20 0 35 27q14 28 14 57q0 5 -1 8z" />
    <glyph glyph-name="ydieresis" unicode="&#xff;" horiz-adv-x="242" 
d="M225 208q0 -28 -18 -107t-31 -108q31 7 34 24q1 6 4.5 9t6 0.5t1.5 -10.5q-4 -29 -54 -41q-30 -83 -84 -163q-98 -144 -214 -163q-12 -2 -33.5 -2t-48.5 13q-38 19 -52 61q-5 17 -5 35.5t9 39.5q15 36 52 61q90 61 349 128q17 40 40 181q-41 -74 -87 -128
q-6 -21 -25 -34.5t-18 6.5q0 5 8 41.5t8 76t-21 39.5q-10 0 -21 -7t-12.5 -1.5t16.5 19t32 13.5t25 -6.5t13.5 -29.5t2.5 -37t-2.5 -32.5t-4.5 -20.5q0 -7 89 118q5 33 28 33q13 0 13 -8zM-41 -91.5q-109 -44.5 -149 -71.5t-54 -48.5t-14 -34.5q0 -52 54 -69q28 -8 48 -8
t41 2.5t47.5 13.5t46 23.5t39 35t31.5 38.5t27 45.5l22 44t20 47t18 42.5q-68 -16 -177 -60.5zM186 309q0 -22 -21 -22q-23 0 -23 22t22 22t22 -22zM100 309q0 -22 -21 -22q-23 0 -23 22t22 22t22 -22z" />
    <glyph glyph-name="hbar" unicode="&#x127;" horiz-adv-x="242" 
d="M164 88q0 -63 22 -63q30 0 82 65q10 12 11.5 13.5t3.5 -4.5l1 -2q-8 -20 -48.5 -60t-68.5 -40q-10 0 -19 5q-25 12 -25 88q0 12 2 33.5t4 23.5q0 1 -2.5 -1.5t-8 -9l-11.5 -13.5t-14 -18t-15 -19q-18 -20 -28 -36q-3 -36 -26 -50q-5 -3 -7.5 -3t-2.5 18.5t13 95.5t24 106
q-31 -8 -33 -25q-2 -12 -6.5 -11.5t-4.5 8.5q0 31 51 46q12 42 34 89h-56l14 32h57q62 120 138 176q61 48 124 48q27 0 53 -11q39 -17 55 -57q7 -18 7 -37q0 -58 -57 -101q-40 -31 -107 -61.5t-109.5 -45l-124.5 -40.5q-16 -43 -34 -160q14 21 44 59.5l39 50.5
q5 22 23.5 35.5t18.5 -5.5q0 -5 -6.5 -46t-6.5 -73zM472 479q0 11 -4 22q-19 50 -97 50q-18 0 -36 -4q-77 -15 -124 -65t-79 -126h73l-14 -32h-72l-29 -80q67 19 173.5 68.5t157.5 89t51 77.5z" />
    <glyph glyph-name="Itilde" unicode="&#x128;" horiz-adv-x="441" 
d="M265 502q-32 86 -107 86q-51 0 -95 -54t-44 -145q0 -27 4 -58q15 -104 71.5 -148t121.5 -44q9 0 19 1q47 136 47 246q0 47 -10 94q-125 -13 -167 -71q-15 -20 -15 -41t25.5 -46.5t87.5 -36.5q7 -2 2 -6.5t-12 -2.5q-66 20 -101.5 47.5t-35.5 55t22.5 53t72 44.5t114.5 26
zM295 482q11 -39 11 -89q0 -109 -52 -250q20 4 34 10q28 85 46.5 181t19.5 148q-16 1 -31 1t-28 -1zM197 23q10 0 32 -2q30 46 55 119q-13 -4 -35 -8q-19 -53 -52 -109zM183 0h-1q-11 -18 -27 -37q28 0 59 36q-11 1 -31 1zM261 18q68 -8 108.5 -17.5t52 -9.5t11.5 5
q0 8 -29 26q-4 3 -1 4.5t6 0.5q27 -11 34 -30q1 -4 1 -7q0 -14 -27 -14q-13 0 -59 9t-111 13q-42 -53 -77 -53q-12 0 -26 5q-70 -77 -132 -77q-24 0 -40 18q-1 2 -1 4t3 3t4 -1q13 -17 35.5 -17t56.5 18.5t65 55.5q-32 14 -39 31q-2 8 3 8t6.5 -2t4.5 -7q10 -15 33 -20
q16 19 26 36q-141 -3 -141 -47q0 -10 10 -22.5t19 -18t0 -6.5t-15 3q-41 28 -41 51q0 64 172 64q7 0 10 -1q27 46 49 107q-8 -1 -16 -1q-71 0 -133 50q-80 63 -80 208q0 103 58 163q45 46 100 46q89 0 127 -92h38q28 0 40 1l16 15q8 6 13 6q10 0 11 -20q4 0 12 -1
q97 -4 97 -21q0 -6 -11 -4t-20 2l-82 1q-25 -171 -70 -307q51 36 61 90q1 5 4.5 2t2.5 -6q-16 -65 -73 -101q-31 -89 -66 -143zM426 583q-14 0 -38 11t-39 11t-24 -19q-2 -2 -7.5 -1t-5.5 2q23 43 51 43q15 0 39 -11q27 -10 41.5 -10t22.5 20q1 2 6.5 1.5t5.5 -1.5
q0 -46 -52 -46z" />
    <glyph glyph-name="itilde" unicode="&#x129;" horiz-adv-x="136" 
d="M63 0q-34 0 -34 58q0 37 16.5 95.5t18 64.5t22.5 5.5t20 -11.5q0 -11 -7.5 -29.5t-17.5 -20.5q-2 0 -9.5 -49t-7.5 -57.5t2 -18.5q3 -14 15 -14t51 32.5t42 35.5t5.5 1t0.5 -6q-15 -25 -55 -55.5t-62 -30.5zM137 288q-14 0 -38 11t-39 11t-24 -19q-2 -2 -7.5 -1t-5.5 2
q23 43 51 43q15 0 39 -11q27 -10 41.5 -10t22.5 20q1 2 6.5 1.5t5.5 -1.5q0 -46 -52 -46z" />
    <glyph glyph-name="dotlessi" unicode="&#x131;" horiz-adv-x="136" 
d="M63.5 218q1.5 6 22.5 6t20 -12q0 -11 -7.5 -29.5t-17.5 -20.5q-2 0 -9.5 -49t-7.5 -57.5t2 -18.5q3 -14 15 -14t51 32.5t42 35.5t5 1.5t2 -3t-1 -3.5q-15 -25 -55 -55.5t-62 -30.5q-34 0 -34 58q0 37 16.5 95.5t18 64.5z" />
    <glyph glyph-name="IJ" unicode="&#x132;" horiz-adv-x="862" 
d="M484 482l-82 1q-25 -171 -70 -307q51 36 61 90q1 5 4.5 2t2.5 -6q-16 -65 -73 -101q-31 -89 -66 -143q68 -8 130 -23l14 -3l13 12l5 4q-12 10 -17.5 13.5t-2.5 5.5q6 3 26 -13q117 99 293 138q13 58 13 108q0 94 -46 155q-15 18 -27 29q-85 -39 -85 -103q0 -16 7 -30
q15 -32 50.5 -56t78.5 -27q8 -1 2.5 -7t-13.5 -5q-68 13 -109 42q-50 36 -50 81q0 27 21 59.5t76 60.5q-26 14 -55.5 14t-64.5 -23.5t-50 -71.5q-8 -30 -8 -53q0 -74 45 -123q33 -35 82 -37q15 -1 14 -4t-15 -2q-71 3 -110 61q-30 44 -30 97q0 93 71 141q38 25 71.5 25
t63.5 -17q21 9 57.5 20t130.5 17l20 2l12 10q11 10 19 10t8 -10v-7q0 -2 1 -2q108 -5 108 -22q0 -6 -11 -4t-20 2l-81 1q-18 -145 -79 -315l44 3q21 2 23 -2q4 -8 -17 -9q-27 -2 -54 -6q-110 -305 -244 -388q-95 -59 -167 -59q-54 0 -82 39q-18 25 -18 61t22.5 82t65.5 90
q-3 1 -41.5 8t-103.5 11q-42 -53 -77 -53q-12 0 -26 5q-70 -77 -132 -77q-24 0 -40 18q-1 2 -1 4t3 3t4 -1q13 -17 35.5 -17t56.5 18.5t65 55.5q-32 14 -39 31q-2 8 3 8t6.5 -2t4.5 -7q10 -15 33 -20q16 19 26 36q-141 -3 -141 -47q0 -10 10 -22.5t19 -18t0 -6.5t-15 3
q-41 28 -41 51q0 64 172 64q7 0 10 -1q27 46 49 107q-8 -1 -16 -1q-71 0 -133 50q-80 63 -80 208q0 103 58 163q45 46 100 46q89 0 127 -92h38q28 0 40 1l16 15q8 6 13 6q10 0 11 -20q4 0 12 -1q93 -3 97 -17q1 -7 -1 -8t-11.5 0.5t-18.5 1.5zM387 -243q-26 0 -27.5 3t0 5
t9 1t19.5 -1q61 0 129 48.5t122 135.5t79 186q-171 -45 -275 -140q3 -15 -18 -18q-4 -4 -5 -6q-45 -48 -69 -93q-26 -47 -26 -78t16 -50q20 -24 53 -24q74 0 164 62q116 81 214 359q-17 -2 -41 -8q-26 -102 -82 -192t-127.5 -140t-134.5 -50zM265 502q-32 86 -107 86
q-51 0 -95 -54t-44 -145q0 -27 4 -58q15 -104 71.5 -148t121.5 -44q9 0 19 1q47 136 47 246q0 47 -10 94q-125 -13 -167 -71q-15 -20 -15 -41t25.5 -46.5t87.5 -36.5q7 -2 2 -6.5t-12 -2.5q-66 20 -101.5 47.5t-35.5 55t22.5 53t72 44.5t114.5 26zM749 266q0 -51 -14 -111
l42 7q62 189 74 319q-94 -7 -119.5 -13.5t-54.5 -17.5q17 -17 25 -28q47 -62 47 -156zM295 482q11 -39 11 -89q0 -109 -52 -250q20 4 34 10q28 85 46.5 181t19.5 148q-16 1 -31 1t-28 -1zM197 23q10 0 32 -2q30 46 55 119q-13 -4 -35 -8q-19 -53 -52 -109zM183 0h-1
q-11 -18 -27 -37q28 0 59 36q-11 1 -31 1z" />
    <glyph glyph-name="ij" unicode="&#x133;" horiz-adv-x="272" 
d="M61 53q0 -30 18 -30q10 0 47.5 31t41.5 35q15 67 20.5 101.5t6.5 38t8.5 3.5t19 -4.5t11.5 -7.5l-2 -10q-7 -54 -26 -56l-13.5 -68t-16.5 -78q-17 -83 -47 -133q-21 -34 -51 -50t-50.5 -16t-35.5 5t-15 23q0 21 6 22q4 1 3.5 -9t9 -20.5t26.5 -9.5q28 1 53 31
q51 60 89 219q-21 -22 -51.5 -46t-52.5 -24q-34 0 -34 58q0 11 2 31.5t32 126.5q2 8 22.5 7.5t20.5 -11.5t-7.5 -29.5t-17.5 -20.5q-5 -1 -11 -50t-6 -59zM271 307q7 0 7 -4.5t-12 -18.5q-16 -19 -28.5 -19t-20 5t-4.5 8q36 29 58 29zM138 307q7 0 7 -4.5t-12 -18.5
q-15 -19 -28.5 -19t-19 4.5t-5.5 6t1 2.5q35 29 57 29z" />
    <glyph glyph-name="Jcircumflex" unicode="&#x134;" horiz-adv-x="421" 
d="M461 506q108 -5 108 -22q0 -6 -11 -4t-20 2l-81 1q-18 -145 -79 -315l44 3q21 2 23 -2q4 -8 -17 -9q-27 -2 -54 -6q-110 -305 -244 -388q-92 -58 -167 -58q-60 0 -85 45q-14 23 -14 42t1 27q4 39 32.5 88t79.5 94q120 108 304 148q13 58 13 108q0 94 -46 155
q-15 18 -27 29q-85 -39 -85 -103q0 -16 7 -30q15 -32 50.5 -56t78.5 -27q8 -1 2.5 -7t-13.5 -5q-68 13 -109 42q-50 36 -50 81q0 27 21 59.5t76 60.5q-26 14 -55.5 14t-64.5 -23.5t-49 -71.5q-9 -30 -9 -53q0 -74 45 -123q33 -35 82 -37q15 -1 14 -4t-15 -2q-71 3 -110 61
q-30 44 -30 97q0 93 71 141q38 25 71.5 25t63.5 -17q21 9 57.5 20t130.5 17l20 2q7 6 11 10q12 10 20 10t8 -10v-7q0 -2 1 -2zM-54 -243q-26 0 -27.5 3t0 5t9 1t19.5 -1q61 0 129 48.5t122 135.5t79 186q-194 -50 -298 -164q-45 -48 -69 -93q-26 -47 -26 -78t16 -50
q20 -24 53 -24q74 0 164 62q116 81 214 359q-17 -2 -41 -8q-26 -102 -82 -192t-127.5 -140t-134.5 -50zM308 266q0 -51 -14 -111l42 7q62 189 74 319q-94 -7 -119.5 -13.5t-54.5 -17.5q17 -17 25 -28q47 -62 47 -156zM498 634q8 0 8 -2l30 -86q0 -4 -2 -5q-12 0 -15 5
l-37 58l-108 -58q-4 -4 -14 -4q-8 -2 -8 2l1 2l122 86q15 2 23 2z" />
    <glyph glyph-name="jcircumflex" unicode="&#x135;" horiz-adv-x="138" 
d="M43 -61.5q-13 -38.5 -31 -68t-48 -45.5t-50.5 -16t-35.5 5t-15 23q0 21 6 22q4 1 3.5 -9t9 -20.5t26.5 -9.5q28 1 50 27t39.5 63.5t29.5 76.5t23 82.5t16.5 75t9.5 57.5l5 25q1 5 8.5 5t19 -4.5t11.5 -7.5l-2 -10q-7 -54 -26 -56l-13.5 -68l-16 -78.5t-19.5 -69z
M152.5 360q7.5 0 8.5 -2l30 -86q0 -4 -2 -5q-13 0 -15 5l-37 58l-108 -58q-4 -4 -14 -4q-8 -2 -8 2l1 2l122 86q15 2 22.5 2z" />
    <glyph glyph-name="kcommaaccent" unicode="&#x137;" horiz-adv-x="207" 
d="M82 163q74 124 163 124q26 0 34 -17q3 -5 -1.5 -6.5t-8.5 4t-20 2.5q-37 -7 -82.5 -51.5t-72.5 -79.5q23 -42 69 -84t81 -50q6 -1 -3 -4q-17 -5 -30.5 -5t-19.5 2.5t-12 4.5t-8.5 3t-7.5 4t-9 6q-5 5 -19 21q-31 40 -53 85q-36 -54 -45 -111v-5q0 -8 -5 -8t-16 11.5
t-13 12.5q0 32 17.5 123t42.5 172q44 144 126 186q25 13 50.5 13t45.5 -30q5 -7 5 -11q0 -6 -11 1q-20 18 -52 18h-3q-44 0 -85 -77q-73 -137 -98 -346q13 42 31 73q-4 8 -4 12q-5 22 0.5 24t8.5 -4t5 -12v-1zM74 -49q25 0 25 -27t-40.5 -73.5t-69.5 -54.5q-1 -1 -2 -1
t-1 4.5t13 19.5q19 19 51 71q-18 3 -18 28q0 12 11 22.5t31 10.5z" />
    <glyph glyph-name="kgreenlandic" unicode="&#x138;" horiz-adv-x="207" 
d="M82 163q74 124 163 124q26 0 34 -17q1 -2 1 -4t-3.5 -3t-7.5 4.5t-20 2.5q-37 -7 -82.5 -51.5t-72.5 -79.5q23 -42 69 -84t81 -50q6 -1 -3 -4q-17 -5 -30.5 -5t-19.5 2.5t-12 4.5t-8.5 3t-7.5 4t-9 6q-5 5 -19 21q-31 40 -53 85q-36 -54 -45 -111v-5q0 -8 -5 -8t-16 11.5
t-13 12.5q0 50 25 186q11 62 45.5 112t80.5 74q25 13 50.5 13t45.5 -30q6 -9 4 -11q-2 -4 -10 1q-20 18 -52 18h-3q-112 -1 -148 -314q13 42 31 73q-4 8 -4 12q-5 22 0.5 24t8.5 -4t5 -12v-1z" />
    <glyph glyph-name="Ldotaccent" unicode="&#x13f;" horiz-adv-x="433" 
d="M1 55q-8 19 -8 39t19.5 42.5t62 22.5t135.5 -46q11 22 23 58h-14q-73 0 -107 38q-20 23 -20 50.5t13 55.5q-36 51 -36 113q0 109 78 148q19 10 43.5 10t52.5 -28q45 -45 45 -155q0 -68 -22 -157q15 0 35 5q31 163 71 234q55 100 107 100q45 0 62 -63q7 -26 7 -54
q0 -54 -27.5 -111t-82.5 -104.5t-129 -69.5q-17 -56 -40 -103q59 -36 139 -69q189 -77 218 2q4 9 8 8q2 -1 2 -3.5t-1 -5.5q-14 -39 -54 -54q-30 -12 -51 -12q-62 0 -129 31.5t-105 57.5l-37 26q-51 -78 -127 -78q-14 0 -30 3q-76 13 -101 69zM272 403q0 130 -58 164
q-17 10 -37.5 10t-45.5 -21q-45 -40 -45 -112q0 -56 28 -113q16 27 43 45q7 5 8.5 2.5t-0.5 -3.5q-32 -26 -43 -60q20 -31 56 -49.5t75 -19.5q19 89 19 157zM495 367q31 68 31 131t-30 63q-54 0 -133 -214q-14 -37 -28 -83q58 30 92 99q2 5 5.5 2t1.5 -5q-38 -77 -102 -107
l-17 -50q123 34 180 164zM109 18h-4q-6 0 -4 5q0 3 2.5 3h4.5q53 0 91 67q-54 24 -72.5 27.5t-31.5 3.5q-36 0 -53.5 -19t-17.5 -35t8 -32q24 -42 91 -42q47 0 75 22q31 24 40 44l5 9l-35 18q-43 -71 -99 -71zM118 286q0 -40 35.5 -68t84.5 -28q5 16 13 48q-82 3 -132 59
q-1 -6 -1 -11zM245 172q-14 -39 -26 -64l34 -18q10 20 32 89q-14 -3 -40 -7zM437 135q0 -13 -9 -20q-9 -9 -22.5 -9t-22.5 9q-10 7 -10 20t9.5 22t23 9t22.5 -9t9 -22zM299 242q-16 -4 -35 -4q-8 -32 -13 -48q18 2 39 6z" />
    <glyph glyph-name="ldot" unicode="&#x140;" horiz-adv-x="300" 
d="M83 181q-23 -82 -23 -118t9.5 -43t23.5 -7t47 15t51 38t17 11q-1 -10 -6 -18q-18 -23 -59 -43.5t-65 -20.5q-6 0 -11 1q-39 9 -39 71q0 29 9 71q-10 -2 -10 5q0 9 18 28q60 250 158 332q22 18 40 18q39 0 39 -36q-2 -80 -74 -169q-37 -45 -59.5 -69t-65.5 -66zM267 481
q0 25 -13 25q-41 0 -110 -152q-40 -91 -58 -151q55 52 118 138t63 140zM246 226q9 -9 9 -21.5t-9 -21t-22.5 -8.5t-22.5 9q-10 7 -10 20t9.5 22t23 9t22.5 -9z" />
    <glyph glyph-name="Lslash" unicode="&#x141;" horiz-adv-x="433" 
d="M1 55q-8 19 -8 39t19.5 42.5t55.5 22.5t53 -9q17 4 54 4t52 -1l6 18h-14q-73 0 -107 38q-20 23 -20 50.5t13 55.5q-36 51 -36 113q0 109 78 148q19 10 43.5 10t52.5 -28q45 -45 45 -155q0 -68 -22 -157q15 0 35 5q31 163 71 234q55 100 107 100q45 0 62 -63q7 -26 7 -54
q0 -54 -27.5 -111t-82.5 -104.5t-129 -69.5l-11 -34l33 -4q29 -3 29 -11t-29 -9l-43 -2l-19 -43q59 -36 139 -69q189 -77 218 2q4 9 8 8q2 -1 2 -3.5t-1 -5.5q-14 -39 -54 -54q-30 -12 -51 -12q-62 0 -129 31.5t-105 57.5l-37 26q-51 -78 -127 -78q-14 0 -30 3
q-76 13 -101 69zM272 403q0 130 -58 164q-17 10 -37.5 10t-45.5 -21q-45 -40 -45 -112q0 -56 28 -113q16 27 43 45q7 5 8.5 2.5t-0.5 -3.5q-32 -26 -43 -60q20 -31 56 -49.5t75 -19.5q19 89 19 157zM495 367q31 68 31 131t-30 63q-54 0 -133 -214q-14 -37 -28 -83
q58 30 92 99q2 5 5.5 2t1.5 -5q-38 -77 -102 -107l-17 -50q123 34 180 164zM109 18h-4q-6 0 -4 5q0 3 2.5 3h4.5q53 0 91 67q-45 19 -52 21q-42 -2 -58.5 -2t-16.5 8q-20 -5 -33 -19t-13 -30t7 -31.5t26 -27.5q41 -26 99 -12q25 6 40 18q31 24 40 44l5 9l-35 18
q-43 -71 -99 -71zM118 286q0 -40 35.5 -68t84.5 -28q5 16 13 48q-82 3 -132 59q-1 -6 -1 -11zM299 242q-16 -4 -35 -4q-8 -32 -13 -48q18 2 39 6zM253 90q9 17 14 32l-43 -2l-5 -12zM245 172l-7 -19l38 -3l9 29q-14 -3 -40 -7zM210 113l3 6q-5 -1 -13 -1z" />
    <glyph glyph-name="lslash" unicode="&#x142;" horiz-adv-x="166" 
d="M32 115l-65 -3h-9q-19 0 -19 8q0 5 13 15q15 9 28 13.5t51 5.5q9 12 14 17q60 250 158 332q22 18 40 18q39 0 39 -36q-2 -80 -74 -169q-37 -45 -59.5 -69t-65.5 -66q-3 -5 -8 -27q63 -1 107.5 -6.5t44.5 -13.5t-42.5 -9.5t-73.5 -4t-36 -2.5h-7q-8 -38 -8 -65t9.5 -33.5
t23.5 -6.5t47 15t51 38t17 11q-1 -10 -6 -18q-18 -23 -59 -43.5t-65 -20.5q-6 0 -11 1q-40 9 -40 71q0 21 5 48zM267 481q0 25 -13 25q-41 0 -110 -152q-40 -91 -58 -151q55 52 118 138t63 140z" />
    <glyph glyph-name="Nacute" unicode="&#x143;" horiz-adv-x="686" 
d="M283 39q-45 24 -45 67.5t38 83.5q59 58 140 75q27 68 33 130q-38 118 -130 135q-19 -25 -19 -67.5t27 -79.5q1 -2 0 -4t-3 -2t-4 2q-28 38 -28 82t18 70q-8 1 -17 1q-53 0 -110 -42t-87 -118q-19 -48 -19 -96q0 -76 56 -76q32 0 61 29.5t41 50.5q5 7 7 3v-8
q-10 -24 -48 -59q-39 -36 -76 -36t-53 31t-16 67q0 57 26 108q38 74 107 118.5t136 44.5h6q22 25 60 25q50 0 83 -44q39 -53 55 -111q24 -86 37 -166q20 -8 44 -25q36 167 61 219q37 73 77 94q25 13 59 13t57 -26t29 -53q1 -3 1 -6t-5 -3q-2 0 -5.5 11t-23 28t-47 17
t-51 -12t-41.5 -36.5t-32.5 -50.5t-27.5 -65q-18 -58 -38 -140q20 -16 38 -40q33 -45 33 -92t-26 -59q-6 -3 -11 -3q-36 0 -64 75q-8 -27 -16 -43q33 -66 72 -66q28 0 60 30q10 10 11.5 10t1.5 -2l2 -5q-44 -46 -87.5 -46t-79.5 49q-6 -5 -19.5 -5t-13.5 9q0 2 10 4.5
t14 4.5q-41 86 -62 221h-11l-31 -3q-46 -122 -133 -218q12 -4 24 -4q33 0 66 30q5 5 6 0.5t-1 -6.5q-34 -31 -72 -31q-14 0 -29 4q-115 -127 -236 -127q-29 0 -47 17t-18 48.5t25 63.5q0 3 4 3q2 0 2 -3l-8 -20q-8 -20 -8 -40t15 -38.5t39 -18.5q110 0 217 122zM288 45
q75 88 123 207q-67 -18 -123 -71q-36 -39 -36 -77t36 -59zM334 548q112 -12 147 -141q16 -57 31 -141q19 -3 37 -9q-21 105 -59 198q-23 55 -52.5 82.5t-55.5 27.5t-48 -17zM614.5 59.5q13.5 -19.5 21.5 -23t13 -3.5t9 2q21 10 21 50.5t-31 87.5q-17 22 -34 36
q-15 -65 -24 -97q11 -33 24.5 -52.5zM551 247q-16 7 -37 10q27 -136 49 -186q8 17 16 48q-12 35 -23 100zM595.5 583l41 30.5t27 7.5t16.5 -13q0 -3 -3.5 -9t-59 -32t-59.5 -26q-12 0 -7 9zM560 243l4 -23q10 -56 19 -86q7 29 18 86q-21 14 -41 23zM441 269q12 1 37 1
q-6 30 -13 84q-10 -44 -24 -85z" />
    <glyph glyph-name="nacute" unicode="&#x144;" horiz-adv-x="253" 
d="M272 21q0 -23 -39 -41q-14 -6 -28 -6q-32 3 -41.5 22.5t-9.5 33.5t2 32.5t7.5 45t14 53t8.5 27.5q-9 -12 -40 -48q-80 -89 -87.5 -110t-29.5 -28q-12 -4 -12 5q0 2 7 29q22 84 22 134l-1 27q0 17 23 28q10 5 18 5q14 0 11 -13.5t-10 -50.5q-16 -87 -20 -95q59 54 127 160
q5 9 23.5 7t20.5 -9t-2 -20t-12.5 -38t-14.5 -49q-15 -61 -15 -87.5t4 -37.5t14 -10q29 4 56 37q4 4 4 -3zM182.5 347l41 30.5t27 7.5t16.5 -13q0 -3 -3.5 -9t-59 -32t-61.5 -26t-6 3.5t1 5.5z" />
    <glyph glyph-name="OE" unicode="&#x152;" horiz-adv-x="1131" 
d="M279 535q115 38 226 38l80 -6q-13 87 -97 87q-29 0 -65 -12q-85 -28 -144 -107zM151 183q48 -14 76 -14t48 2q-48 45 -64 108q-39 -47 -60 -96zM52 283q0 -29 16 -51q15 -24 40 -35q36 64 96 118q-1 9 -1 28q0 73 28 136q-83 -42 -131 -92.5t-48 -103.5zM587 545
q-29 4 -58 4q-143 0 -278 -62q-34 -65 -34 -144q0 -2 0.5 -7.5t0.5 -8.5q123 102 231 122q10 1 10 -4t-8 -7q-55 -11 -117 -50t-111 -96q13 -71 67 -119q116 18 200 122q72 88 93 196q4 27 4 39v15zM781 263q25 8 111 25q-54 0 -91 25q-6 -20 -20 -50zM769 350q-5 22 4 45
q-3 58 -49 96t-119 51q0 -20 -5 -50q-22 -116 -100.5 -212t-190.5 -122q62 -45 137.5 -45t130.5 41l3 1q2 0 4 -3q0 -3 -1 -5q-59 -42 -140 -42t-148 50q-32 -5 -67.5 -5t-86.5 14q-14 -39 -14 -69q0 -48 29.5 -75t82.5 -27q210 0 364 127q19 61 104 110l1 1q49 65 61 119z
M991 266h-21q-74 0 -157 -21q-34 -11 -54 -19q-44 -66 -117 -121q-1 -4 -1 -12q0 -49 44 -80q46 -34 125 -34q29 0 53 4q91 12 163 55.5t77 97.5q1 9 5 9t3 -10q-3 -66 -79 -112.5t-177 -58.5q-42 -4 -59 -4q-89 0 -140.5 32.5t-57.5 82.5q-80 -49 -175 -76t-181 -27
t-125.5 33t-39.5 86q0 37 20 85q-31 14 -50 42t-19 62q0 80 67 147q64 62 164 100q38 56 101.5 95t118.5 39t85 -24q33 -24 39 -72q155 -28 196 -132q49 51 144 76q55 16 104.5 16t79.5 -20t30 -45t-16.5 -42t-45.5 -21q-13 0 -13 4q0 7 12 6t23 13q10 15 10 34.5t-18 36.5
q-23 18 -65 18t-97.5 -16.5t-91.5 -47.5t-45 -66q0 -17 -1 -25q9 -33 70 -49q46 -13 74.5 -13h37.5q22 1 22 -12.5t-22 -13.5z" />
    <glyph glyph-name="oe" unicode="&#x153;" horiz-adv-x="348" 
d="M119 212q0 -5 -6 -9q40 -13 52 -51q7 10 29.5 31.5t46.5 21.5q34 0 34 -33q0 -20 -18 -43q-30 -37 -89 -52q-3 -13 -3 -24q0 -46 42 -46q34 0 80 25.5t70 52.5q13 13 13 1q0 -4 -3 -9q-22 -27 -78.5 -56.5t-100.5 -29.5t-55 39q-40 -49 -86 -49q-44 0 -44 54q0 38 19 86
q-1 8 -1 24q0 55 54 61q14 17 29 17t15 -11zM129 59q0 26 17 60q1 5 1 20.5t-11 34.5q-12 17 -33 19q-32 -35 -50 -82q12 -55 71 -63l5 10v1zM172 89q52 16 68.5 45t16.5 41.5t-8 12.5q-14 0 -38.5 -32t-38.5 -67zM35 36q0 -36 26 -36q31 0 54 33q-48 6 -74 41v-1
q-6 -21 -6 -37z" />
    <glyph glyph-name="Racute" unicode="&#x154;" horiz-adv-x="688" 
d="M327 291q-60 -11 -96 -11t-66.5 17.5t-28.5 53.5q-29 11 -50 32.5t-25 42t-4 41.5t15 52t48 49q37 21 76.5 21t74 -23.5t55.5 -64.5q75 18 162 18q26 27 55 33q7 1 7 -4q-2 -7 -13.5 -10t-27.5 -20q96 -4 158.5 -35t62.5 -83q0 -65 -91 -118.5t-219 -66.5l43.5 -65
l51 -75.5t46.5 -56.5q68 -76 117 -76q38 0 38 48t-29 87q-4 6 0 6t8 -5q32 -37 32 -76t-19.5 -60.5t-51.5 -21.5q-47 0 -97 44q-47 41 -87 116q-15 26 -37 70t-33 63h-2l-9 -27q-90 -246 -278 -246q-79 0 -101 57q-7 18 -7 37q0 40 32 84q61 85 190 107l27 4q6 1 6 -5
q-1 -6 -7 -8q-119 -19 -187 -99q-41 -49 -41 -91q0 -11 2 -21q13 -51 85 -51q93 0 154 85q47 67 81 160l39 109l-42 -13q-22 -122 -95 -230q-30 -44 -71.5 -68t-86.5 -24q-3 0 -8 0.5t-3.5 4.5t5 3.5t6.5 -0.5q43 0 81.5 23t65.5 66q63 95 89 221zM639 474.5
q-54 30.5 -137 33.5q-26 -37 -60 -158q58 26 103 58q12 9 12 1t-10 -14q-61 -42 -111 -65l-29 -97l4 -6q43 5 44 5q113 24 173 70q65 49 65 95.5t-54 77zM194 580q-78 0 -111 -70q-11 -24 -11 -43t3 -33q9 -49 62 -73q7 40 53.5 78t126.5 60q-19 38 -52 59.5t-71 21.5z
M332 315q6 39 6 82.5t-14 84.5q-67 -23 -113 -59.5t-55 -68.5q15 -4 29 -4q41 0 71 30q5 5 6 -2l-1 -4q-32 -32 -75 -32q-15 0 -32 4q-3 -25 24 -37q17 -8 40 -8q58 0 114 14zM333 485q19 -45 19 -89.5t-5 -77.5q20 5 47 14q45 127 85 177q-77 -1 -146 -24zM630.5 589
l41 30.5t27 7.5t16.5 -13q0 -3 -3.5 -9t-59 -32t-61.5 -26t-6 3.5t1 5.5z" />
    <glyph glyph-name="Rcommaaccent" unicode="&#x156;" horiz-adv-x="688" 
d="M327 291q-60 -11 -96 -11t-66.5 17.5t-28.5 53.5q-29 11 -50 32.5t-25 42t-4 41.5t15 52t48 49q37 21 76.5 21t74 -23.5t55.5 -64.5q75 18 162 18q26 27 55 33q7 1 7 -4q-2 -7 -13.5 -10t-27.5 -20q96 -4 158.5 -35t62.5 -83q0 -65 -91 -118.5t-219 -66.5l43.5 -65
l51 -75.5t46.5 -56.5q68 -76 117 -76q38 0 38 48t-29 87q-4 6 0 6t8 -5q32 -37 32 -76t-19.5 -60.5t-51.5 -21.5q-47 0 -97 44q-47 41 -87 116q-15 26 -37 70t-33 63h-2l-9 -27q-90 -246 -278 -246q-79 0 -101 57q-7 18 -7 37q0 40 32 84q61 85 190 107l27 4q6 1 6 -5
q-1 -6 -7 -8q-119 -19 -187 -99q-41 -49 -41 -91q0 -11 2 -21q13 -51 85 -51q93 0 154 85q47 67 81 160l39 109l-42 -13q-22 -122 -95 -230q-30 -44 -71.5 -68t-86.5 -24q-3 0 -8 0.5t-3.5 4.5t5 3.5t6.5 -0.5q43 0 81.5 23t65.5 66q63 95 89 221zM639 474.5
q-54 30.5 -137 33.5q-26 -37 -60 -158q58 26 103 58q12 9 12 1t-10 -14q-61 -42 -111 -65l-29 -97l4 -6q43 5 44 5q113 24 173 70q65 49 65 95.5t-54 77zM194 580q-78 0 -111 -70q-11 -24 -11 -43t3 -33q9 -49 62 -73q7 40 53.5 78t126.5 60q-19 38 -52 59.5t-71 21.5z
M332 315q6 39 6 82.5t-14 84.5q-67 -23 -113 -59.5t-55 -68.5q15 -4 29 -4q41 0 71 30q5 5 6 -2l-1 -4q-32 -32 -75 -32q-15 0 -32 4q-3 -25 24 -37q17 -8 40 -8q58 0 114 14zM333 485q19 -45 19 -89.5t-5 -77.5q20 5 47 14q45 127 85 177q-77 -1 -146 -24zM330 -61
q25 0 25 -27t-40.5 -73.5t-69.5 -54.5q-1 -1 -2 -1t-1 4.5t13 19.5q19 19 51 71q-18 3 -18 28q0 12 11 22.5t31 10.5z" />
    <glyph glyph-name="rcommaaccent" unicode="&#x157;" horiz-adv-x="177" 
d="M74 -49q25 0 25 -27t-40.5 -73.5t-69.5 -54.5q-1 -1 -2 -1t-1 4.5t13 19.5q19 19 51 71q-18 3 -18 28q0 12 11 22.5t31 10.5zM207 192q-13 17 -27 17q-40 0 -97 -88q-29 -44 -50 -115q-1 -8 -9 -8q-9 0 -9 8l15 106q10 80 11 100.5t27 28.5q8 2 16.5 2t9.5 -9
q0 -3 -1 -6.5l-14.5 -53t-17.5 -58.5q24 42 61 81.5t57 39.5h1q27 0 35 -33q2 -8 2 -13.5t-3 -5.5q-3 -1 -7 7z" />
    <glyph glyph-name="Rcaron" unicode="&#x158;" horiz-adv-x="688" 
d="M327 291q-60 -11 -96 -11t-66.5 17.5t-28.5 53.5q-29 11 -50 32.5t-25 42t-4 41.5t15 52t48 49q37 21 76.5 21t74 -23.5t55.5 -64.5q75 18 162 18q26 27 55 33q7 1 7 -4q-2 -7 -13.5 -10t-27.5 -20q96 -4 158.5 -35t62.5 -83q0 -65 -91 -118.5t-219 -66.5l43.5 -65
l51 -75.5t46.5 -56.5q68 -76 117 -76q38 0 38 48t-29 87q-4 6 0 6t8 -5q32 -37 32 -76t-19.5 -60.5t-51.5 -21.5q-47 0 -97 44q-47 41 -87 116q-15 26 -37 70t-33 63h-2l-9 -27q-90 -246 -278 -246q-79 0 -101 57q-7 18 -7 37q0 40 32 84q61 85 190 107l27 4q6 1 6 -5
q-1 -6 -7 -8q-119 -19 -187 -99q-41 -49 -41 -91q0 -11 2 -21q13 -51 85 -51q93 0 154 85q47 67 81 160l39 109l-42 -13q-22 -122 -95 -230q-30 -44 -71.5 -68t-86.5 -24q-3 0 -8 0.5t-3.5 4.5t5 3.5t6.5 -0.5q43 0 81.5 23t65.5 66q63 95 89 221zM639 474.5
q-54 30.5 -137 33.5q-26 -37 -60 -158q58 26 103 58q12 9 12 1t-10 -14q-61 -42 -111 -65l-29 -97l4 -6q43 5 44 5q113 24 173 70q65 49 65 95.5t-54 77zM194 580q-78 0 -111 -70q-11 -24 -11 -43t3 -33q9 -49 62 -73q7 40 53.5 78t126.5 60q-19 38 -52 59.5t-71 21.5z
M332 315q6 39 6 82.5t-14 84.5q-67 -23 -113 -59.5t-55 -68.5q15 -4 29 -4q41 0 71 30q5 5 6 -2l-1 -4q-32 -32 -75 -32q-15 0 -32 4q-3 -25 24 -37q17 -8 40 -8q58 0 114 14zM333 485q19 -45 19 -89.5t-5 -77.5q20 5 47 14q45 127 85 177q-77 -1 -146 -24zM618.5 652
q7.5 0 8.5 -2l30 -86q0 -4 -2 -5q-13 0 -15 5l-37 58l-108 -58q-4 -4 -14 -4q-8 -2 -8 2l1 2l122 86q15 2 22.5 2z" />
    <glyph glyph-name="rcaron" unicode="&#x159;" horiz-adv-x="177" 
d="M207 192q-13 17 -27 17q-40 0 -97 -88q-29 -44 -50 -115q-1 -8 -9 -8q-9 0 -9 8l15 106q10 80 11 100.5t27 28.5q8 2 16.5 2t9.5 -9q0 -3 -1 -6.5l-14.5 -53t-17.5 -58.5q24 42 61 81.5t57 39.5h1q27 0 35 -33q5 -19 -1 -19q-3 -1 -7 7zM55 283q-8 -2 -8 0.5t0.5 2.5
t0.5 1l122 86q15 2 22.5 2t8.5 -2l30 -86q0 -4 -2 -5q-13 0 -15 5l-37 58l-108 -58q-4 -4 -14 -4z" />
    <glyph glyph-name="Ydieresis" unicode="&#x178;" horiz-adv-x="707" 
d="M283 528q75 -84 86 -189l26 5q-17 156 -112 184zM247 545q-44 37 -88 37q-36 0 -63 -32q-15 -17 -15 -43.5t15 -55.5q61 82 151 94zM322 336q18 0 36 2q-11 83 -66 159q-17 22 -31 36q-7 1 -14 1l-72 -22q-43 -25 -71 -73q26 -39 82.5 -71t135.5 -32zM44 -244
q39 65 180 128q-12 22 -36 40q-26 20 -58 20q-60 0 -94 -54q-15 -24 -15 -60t23 -74zM58 -264q48 -56 127 -56q60 0 127.5 43.5t113.5 116.5q30 45 54 125q-140 -55 -234 -101q3 -14 3 -38.5t-19 -58.5q-1 -2 -4 -2q-5 0 -3 6q15 26 15 48.5t-4 38.5q-69 -32 -118 -65
q-41 -30 -58 -57zM186 -328q-84 0 -133 55q-6 -12 -6 -23.5t7 -22.5q22 -38 105 -38q45 0 81 12q107 28 190 118t108 216l-42 -17q-23 -86 -55 -136q-50 -75 -121.5 -119.5t-133.5 -44.5zM39 -254q-26 41 -26 81q0 71 62 113q26 18 58 18q38 0 65.5 -21t39.5 -47
q62 27 140.5 55t106.5 39q10 36 23 94q42 191 56 178q2 -4 0 -10q-20 -43 -37.5 -133t-25.5 -122q32 12 40 16q0 6 8 61t17.5 101.5t21.5 90.5q27 107 72 189q-69 -82 -156 -233l-49 -82q-79 -119 -101 -119q-3 0 -4.5 2.5t0.5 4.5q24 59 36 132.5t12 114.5t-2 67
q-9 -2 -23 -4h-4q2 -20 2 -48q0 -128 -44 -263q-1 -5 -4.5 -3t-2.5 5q29 89 37 194q4 39 4 66.5t-2 47.5q-20 -2 -39 -2q-79 0 -137.5 33t-82.5 69q-4 -6 -15.5 -34t-11.5 -56t14.5 -50.5t53 -22.5t74.5 49q4 6 4 1q-7 -22 -36.5 -44t-63 -22t-50 26.5t-16.5 56.5
q0 60 38 109q-16 28 -16 54t9.5 44t27.5 31q24 17 53 17q49 0 99 -43h7q47 0 86 -28q65 -46 73 -166q44 15 71 39.5t29 56.5q0 2 2 3q6 3 6 -4q-6 -70 -107 -103q1 -13 1 -27q0 -67 -18.5 -147.5t-49.5 -141.5q18 8 51 65l27 46.5l21 36.5t38 67.5l57 100.5t66 97.5t81 89.5
q9 8 15.5 5.5t6.5 -7.5t-5 -13q-47 -69 -77.5 -158t-40 -153.5t-14.5 -120t-6 -58.5q28 12 63 32t34 15q-2 -7 -39 -31.5t-63 -36.5q-23 -92 -77 -178t-137 -143q-63 -43 -130 -61q-35 -10 -63 -10q-98 0 -130 55q-11 18 -11 37.5t8 39.5zM596 548q0 -22 -21 -22
q-23 0 -23 22t22 22t22 -22zM510 548q0 -22 -21 -22q-23 0 -23 22t22 22t22 -22z" />
    <glyph glyph-name="florin" unicode="&#x192;" 
 />
    <glyph glyph-name="circumflex" unicode="&#x2c6;" horiz-adv-x="323" 
d="M91 245q-8 -2 -8 0.5t0.5 2.5t0.5 1l122 86q15 2 22.5 2t8.5 -2l30 -86q0 -4 -2 -5q-13 0 -15 5l-37 58l-108 -58q-4 -4 -14 -4z" />
    <glyph glyph-name="caron" unicode="&#x2c7;" horiz-adv-x="323" 
d="M91 245q-8 -2 -8 0.5t0.5 2.5t0.5 1l122 86q15 2 22.5 2t8.5 -2l30 -86q0 -4 -2 -5q-13 0 -15 5l-37 58l-108 -58q-4 -4 -14 -4z" />
    <glyph glyph-name="breve" unicode="&#x2d8;" horiz-adv-x="222" 
d="M219 343q0 -14 -50.5 -33.5t-71 -19.5t-39.5 10t-19 29q0 8 4 19q5 11 12 11q5 0 9 -16q7 -24 47 -24q20 0 54 14t50 14z" />
    <glyph glyph-name="dotaccent" unicode="&#x2d9;" horiz-adv-x="181" 
d="M72 381q19 25 36.5 25t25 -9.5t7.5 -29.5t-18.5 -39t-42.5 -19q-27 0 -27 26q0 21 19 46z" />
    <glyph glyph-name="ring" unicode="&#x2da;" horiz-adv-x="208" 
d="M155 288q0 -18 -13 -30.5t-29 -12.5t-29.5 12.5t-13.5 30.5t13.5 30.5t29.5 12.5t29 -12.5t13 -30.5zM143 288q0 13 -9 22t-22 9t-22 -9t-9 -22t9 -22t22 -9t22 9t9 22z" />
    <glyph glyph-name="ogonek" unicode="&#x2db;" horiz-adv-x="222" 
d="M149 -83q8 0 50 16q7 0 7 -6q0 -9 -28 -18.5t-44 -9.5q-37 0 -37 28q0 19 14 48.5t28 29.5l2 -2q-22 -31 -22 -58.5t30 -27.5z" />
    <glyph glyph-name="tilde" unicode="&#x2dc;" horiz-adv-x="323" 
d="M207 261q-14 0 -38 11t-39 11t-24 -19q-2 -2 -7.5 -1t-5.5 2q23 43 51 43q15 0 39 -11q27 -10 41.5 -10t22.5 20q1 2 6.5 1.5t5.5 -1.5q0 -46 -52 -46z" />
    <glyph glyph-name="hungarumlaut" unicode="&#x2dd;" horiz-adv-x="131" 
 />
    <glyph glyph-name="pi" unicode="&#x3c0;" horiz-adv-x="281" 
d="M85 215q-25 -3 -31 -18q-8 -14 -10.5 -14t-2.5 8t14 27q21 27 41.5 27t61.5 -18t63.5 -18t34.5 17l13 17l2 -2v-1q0 -15 -18 -33q-14 -17 -24.5 -22t-23.5 -5l-39 -182h-12l39 183q-12 4 -83 30l-45 -215h-12l46 217q-10 2 -14 2z" />
    <glyph glyph-name="endash" unicode="&#x2013;" horiz-adv-x="400" 
d="M21 120q0 5 13 15q15 9 29.5 14t79.5 5t115.5 -6t50.5 -14t-42.5 -9.5t-128.5 -6.5q-92 -6 -104.5 -6t-12.5 8z" />
    <glyph glyph-name="emdash" unicode="&#x2014;" horiz-adv-x="492" 
d="M178 154q295 0 295 -20q0 -8 -29 -9q-177 -3 -288.5 -8t-115.5 -5q-19 0 -19 8q0 5 13 15q15 9 29.5 14t114.5 5z" />
    <glyph glyph-name="quoteleft" unicode="&#x2018;" horiz-adv-x="187" 
d="M55 331q29 38 36.5 45t12.5 7t5 -7t-18 -27t-22 -42q16 -1 16 -22.5t-10.5 -30.5t-17.5 -9q-28 0 -28 31q0 18 26 55z" />
    <glyph glyph-name="quoteright" unicode="&#x2019;" horiz-adv-x="173" 
d="M161 293q-35 -52 -49 -52q-5 0 -5 7t10 17.5t19.5 26.5t10.5 25q-16 2 -16 28t25 33q5 1 8 1q23 0 23 -32q0 -19 -26 -54z" />
    <glyph glyph-name="quotesinglbase" unicode="&#x201a;" horiz-adv-x="103" 
d="M184 88q0 -18 -28 -56.5t-52 -53t-28.5 -14.5t-4.5 4.5t20 27t42 63.5q-16 2 -16 20.5t10.5 29t29.5 10.5q27 -2 27 -31z" />
    <glyph glyph-name="quotedblleft" unicode="&#x201c;" horiz-adv-x="288" 
d="M69 462q0 21 26 58q29 38 37 45t12 7t6.5 -5.5t-14.5 -22.5q-23 -26 -27 -48q16 -1 16 -22.5t-10.5 -30.5t-17.5 -9q-28 0 -28 28zM181 520q29 38 36.5 45t12.5 7t5 -7t-18 -27t-22 -42q16 -1 16 -22.5t-10.5 -30.5t-17.5 -9q-28 0 -28 31q0 18 26 55z" />
    <glyph glyph-name="quotedblright" unicode="&#x201d;" horiz-adv-x="288" 
d="M259 553q0 -21 -27.5 -58t-35 -44.5t-11.5 -7.5t-6.5 6t17 27.5t23.5 43.5q-16 1 -16 22.5t10.5 30.5t17.5 9q28 0 28 -29zM173 553q0 -21 -27.5 -58t-35 -44.5t-12.5 -7.5t-5 7.5t10 18t19.5 26.5t10.5 25q-16 2 -16 23t10.5 30t17.5 9q28 0 28 -29z" />
    <glyph glyph-name="quotedblbase" unicode="&#x201e;" horiz-adv-x="163" 
d="M182 208q19 0 19 -18t-20.5 -70.5t-41.5 -100.5h-10l19 158q2 14 12 22.5t22 8.5zM97 189q0 -31 -61 -170h-9l18 158q2 13 11.5 22t22.5 9q18 0 18 -19z" />
    <glyph glyph-name="dagger" unicode="&#x2020;" horiz-adv-x="331" 
d="M320 293q0 -9 -17 -19h-110l-162 -337h-22l163 337h-99q-1 10 17 19h91l73 151h21l-72 -151h117z" />
    <glyph glyph-name="daggerdbl" unicode="&#x2021;" horiz-adv-x="331" 
d="M320 293q0 -9 -17 -19h-110l-58 -120h124q1 -10 -17 -19h-116l-95 -198h-22l96 198h-93q0 11 17 19h85l58 120h-99q-1 10 17 19h91l73 151h21l-72 -151h117z" />
    <glyph glyph-name="bullet" unicode="&#x2022;" horiz-adv-x="451" 
d="M321 157q-40 -40 -96.5 -40t-96.5 40q-40 42 -40 96.5t40 96.5q42 40 96.5 40t96.5 -40q40 -40 40 -96.5t-40 -96.5z" />
    <glyph glyph-name="ellipsis" unicode="&#x2026;" horiz-adv-x="358" 
d="M331 37q5 -5 5 -17t-10 -20.5t-22.5 -8.5t-18 8t-4.5 19t10.5 19t22 8t17.5 -8zM187 -1q-8 -8 -20.5 -8t-17.5 8q-7 7 -5.5 18.5t10.5 19.5t22 8q25 0 23 -27q-3 -13 -12 -19zM38 -9q-12 0 -18 6.5t-6 18.5t10 20.5t22 8.5t18 -7t6 -12t-1 -12t-10 -15t-21 -8z" />
    <glyph glyph-name="perthousand" unicode="&#x2030;" horiz-adv-x="459" 
d="M391 168q23 0 35.5 -13.5t12.5 -45.5t-27 -74q-30 -49 -68 -49q-24 0 -37.5 19t-13.5 53t28.5 72t69.5 38zM191 309q3 -5 12 -5t19.5 5t14.5 13l67 112h21l-282 -444h-22l208 317q-11 -8 -22 -8t-18 4q-28 -48 -64 -48q-24 0 -36 21q-12 18 -12 51t28 70q28 40 70 40
q22 0 33 -14.5t11 -35.5q0 -47 -28 -78zM230 168q23 0 35.5 -13.5t12.5 -45.5t-29 -77.5t-66 -45.5q-24 0 -37 19t-13 53.5t28 72t69 37.5zM183 428q-26 0 -47 -28q-33 -46 -33 -92.5t26 -46.5q33 0 54 44l2 2q-10 14 -10 29t7 31q8 15 23 15q3 0 8 -1q0 47 -30 47zM404 43
q25 47 25 81.5t-30 34.5q-26 0 -48 -31q-32 -39 -32 -87t24 -48q32 0 61 50zM243 43q24 45 24 80.5t-29 35.5q-25 0 -45 -26.5t-27.5 -52.5t-7.5 -41q0 -46 25 -46q31 0 60 50z" />
    <glyph glyph-name="guilsinglleft" unicode="&#x2039;" horiz-adv-x="295" 
d="M191.5 304l35.5 31.5t19 13.5t3 -7.5t-13 -22.5q-43 -52 -102 -107q52 -104 58.5 -120t-3.5 -21q-1 -1 -3 -1q-5 0 -12 12q-30 47 -79 96q-11 11 -11 17.5t1.5 8t18 16.5l42.5 40.5z" />
    <glyph glyph-name="guilsinglright" unicode="&#x203a;" horiz-adv-x="285" 
d="M142.5 124q-20.5 -19 -36 -32t-18.5 -13t-3 7t8.5 17l19 22.5l17.5 20.5q22 25 70 71q-49 92 -57 113.5t1 25.5q2 1 3 1q6 0 13 -12q27 -44 79 -96q11 -15 11 -18.5t-16 -20.5l-46.5 -43.5z" />
    <glyph glyph-name="fraction" unicode="&#x2044;" horiz-adv-x="365" 
d="M563 517q10 -7 10 -13t-4.5 -6t-12.5 4.5t-17 4.5q-43 0 -142 -110q-59 -65 -179.5 -219.5t-188.5 -199.5q-7 -5 -11.5 -5t-4.5 4.5t6 9.5q96 88 170 198l42 61l39 59q61 89 123 149q78 73 132 73q18 0 38 -10z" />
    <glyph glyph-name="Euro" unicode="&#x20ac;" horiz-adv-x="907" 
d="M99 236q-28 0 -28 10q0 4 8.5 10.5t24.5 11.5t74 7q22 45 46 76l-52 -2h-16.5t-18 5.5t5 13.5t29.5 13.5t84 7.5q88 90 220 146t272 56q133 0 154 -82q4 -14 4 -25q0 -30 -13.5 -55.5t-28.5 -30.5q-12 -4 -1 21q12 27 12 49q0 46 -53 69q-42 19 -99 19
q-93 0 -209.5 -42.5t-206.5 -124.5h77t92.5 -4.5t45.5 -10t-2 -9.5t-55 -5t-195 -7q-35 -40 -56 -77h97t103 -4.5t43 -10t-2 -9.5t-55.5 -5t-203.5 -7q-19 -45 -19 -87t26 -78q36 -48 114 -69q53 -15 101.5 -15t82.5 3q214 18 306 102q12 12 12 0q-1 -7 -6 -12
q-98 -93 -310 -118q-39 -5 -89 -5t-104 16q-85 25 -127 78q-32 42 -32 101q0 37 13 82l-57 -2h-8z" />
    <glyph glyph-name="trademark" unicode="&#x2122;" horiz-adv-x="636" 
d="M333 374q0 -12 -17 -12t-35 6q-20 -22 -41.5 -73t-60.5 -84q-45 -36 -98 -36q-26 0 -47.5 16.5t-21.5 43.5t19 47q17 20 44 25q-1 5 -1 15q0 39 26.5 59.5t61.5 20.5t117 -29q19 13 36.5 13t17.5 -12zM136 277l1 -10q0 -19 -16 -35q-17 -14 -38 -14q-2 0 -2 2t4 2
q48 6 48 47q0 2 -1 6q-10 -2 -15 -2q-31 0 -40 30q-23 -8 -37.5 -28.5t-14.5 -44.5q0 -50 58.5 -50t105.5 74l46 72t40 44q-66 22 -100.5 22t-61.5 -19q-28 -22 -28 -56l1 -8h5h4q32 0 40 -29q14 6 27 19q13 16 13 23t1.5 7t1.5 -1q0 -13 -13.5 -29.5t-28.5 -21.5zM619 371
q8 8 8 16q0 12 -18 12t-42 -12q-54 -25 -126 -105q-36 -41 -50 -53q-37 -32 -64 -32q-9 0 -9 2l21 11q9 7 19 29q14 31 19 39l21 42q13 24 26 39l-9 4q-37 -21 -79 -79q-74 -103 -147 -103q-8 0 -10 2q2 2 10 2q40 0 82 36q16 13 65.5 71t74.5 73q-68 31 -109 31
q-21 0 -27 -13q-2 -2 -4 -2t-2 7t11 10.5t21 3.5q30 0 112 -35q17 10 39 10t22 -18q0 -12 -13 -12q-6 0 -33 10q-14 -18 -35 -78q-16 -52 -40 -71q36 20 88 83q99 117 160 117q32 0 32 -18q0 -3 -4 -13q-4 -7 -9 -7q-1 0 -1 1zM548 365q-38 -42 -61 -93.5t-23 -67t5 -15.5
t12 6l12 8l2 2l1 -1q0 -4 -14 -12t-19 -8q-15 0 -15 28q0 39 34 86q11 14 39.5 44.5t33.5 31.5zM93 306q-4 0 -6 -1q6 -29 31 -29q7 0 13 3q-6 27 -38 27zM466 360q0 14 -16 14t-32 -9l8 -4q7 8 12 8l-8 -9q24 -8 28 -8q8 0 8 8zM330 374q0 11 -14.5 11t-30.5 -14
q16 -6 30.5 -6t14.5 9z" />
    <glyph glyph-name="Omega" unicode="&#x2126;" horiz-adv-x="169" 
 />
    <glyph glyph-name="partialdiff" unicode="&#x2202;" horiz-adv-x="245" 
d="M113 399l-24 -3q-8 0 -8 5q0 14 39 14q62 0 91.5 -49t29.5 -104q0 -125 -61 -209q-42 -56 -95 -56q-22 0 -32.5 19t-10.5 42q0 69 54 119q41 38 78 38q33 0 33 -39q0 -18 -8 -40q18 42 18 98t-23 103q-30 62 -81 62zM203 175q0 35 -24 35q-27 0 -55 -38q-53 -72 -53 -141
q0 -30 17 -30q37 0 95 106q20 33 20 68z" />
    <glyph glyph-name="Delta" unicode="&#x2206;" 
 />
    <glyph glyph-name="product" unicode="&#x220f;" 
 />
    <glyph glyph-name="summation" unicode="&#x2211;" 
 />
    <glyph glyph-name="minus" unicode="&#x2212;" horiz-adv-x="249" 
d="M71 153h170v-15l-170 1v14z" />
    <glyph glyph-name="radical" unicode="&#x221a;" 
 />
    <glyph glyph-name="infinity" unicode="&#x221e;" horiz-adv-x="337" 
d="M180 264q20 25 35.5 39.5t40 14.5t43 -18.5t18.5 -47t-18.5 -52t-44 -23.5t-51 18.5t-39.5 40.5q-21 -26 -37.5 -40t-40.5 -14t-40 19t-16 47t18 48t48 20q54 0 84 -52zM201 229q24 -30 52 -30t42.5 14.5t14.5 36.5t-20 36.5t-47.5 14.5t-53.5 -31q-1 -2 -6 -11
q18 -29 18 -30zM85 295q-21 0 -33.5 -15t-12.5 -35.5t14.5 -31t35.5 -10.5q34 0 72 38q-31 54 -76 54z" />
    <glyph glyph-name="integral" unicode="&#x222b;" 
 />
    <glyph glyph-name="approxequal" unicode="&#x2248;" horiz-adv-x="249" 
d="M211 201q0 -9 -18 -23q-19 -17 -35.5 -17t-46.5 12t-47.5 12t-26.5 -10.5t-10.5 -10.5t-1.5 3q0 11 17.5 24.5t32.5 13.5t46 -12t48.5 -12t27.5 11l12 11q1 -1 2 -1v-1zM211 137q0 -9 -18 -23q-19 -17 -35.5 -17t-46.5 12t-47.5 12t-26.5 -10.5t-10.5 -10.5t-1.5 3
q0 11 17.5 24.5t32.5 13.5t46 -12t48.5 -12t27.5 11l12 11q1 -1 2 -1v-1z" />
    <glyph glyph-name="notequal" unicode="&#x2260;" horiz-adv-x="305" 
d="M261 141q-49 0 -104 -6l-28 -36q-5 -8 -12.5 -8t-7.5 2t2 6q18 23 26 34l-28 -4q-4 0 -7.5 5.5t-3.5 14.5q0 12 11 12h51l36 44q-26 -1 -87 -9q-4 0 -7.5 5.5t-3.5 13.5q0 13 11 13q53 0 104 -1l20 26q6 10 12.5 10t6.5 -2t-2 -6l-21 -29l30 -1q14 0 14 -10q0 -8 -12 -8
q-32 0 -48 -1l-36 -45l82 -2q14 -2 14 -11q0 -7 -12 -7z" />
    <glyph glyph-name="lessequal" unicode="&#x2264;" horiz-adv-x="167" 
d="M141 61q0 -5 -4 -5q-6 0 -51 28.5t-50 32.5t-5 16.5t4 15.5l52 50l47 42q2 0 2 -9t-11 -23l-62 -68l70 -67q8 -8 8 -13zM139 14l-1 -1l-128 1v14l1 1h127l1 -1v-14z" />
    <glyph glyph-name="greaterequal" unicode="&#x2265;" horiz-adv-x="167" 
d="M141 149q5 -3 5 -14.5t-4 -15.5t-53 -36q-45 -27 -49.5 -27t-4.5 4.5t9 13.5l69 67l-43 48q-19 21 -29 35q-1 3 -1 9.5t3 7.5l65 -60zM139 14l-1 -1l-128 1v14l1 1h127l1 -1v-14z" />
    <glyph glyph-name="lozenge" unicode="&#x25ca;" horiz-adv-x="586" 
d="M498 369l1 -16q-1 -25 -73 -147t-125 -202q-8 -18 -23.5 -18t-24.5 18q-12 24 -17 44q-26 64 -70 144t-52.5 97t-8.5 28q1 31 103 200t122 169q11 0 24 -21l58 -141l47.5 -86zM292 48l164 282q-17 43 -72.5 138t-71.5 147q-118 -202 -159 -278q16 -43 69.5 -141
t69.5 -148z" />
    <glyph glyph-name="apple" unicode="&#xf8ff;" horiz-adv-x="581" 
d="M299.5 -8q-31.5 0 -54 -14.5t-50 -14.5t-46.5 15.5t-47 48.5q-55 66 -72 165q-5 31 -5 59q0 65 27 121q18 32 43 53t45 27q54 14 65 5q67 -26 86 -26q47 0 104 26q10 4 26.5 4t42.5 -7q47 -12 77 -61q-71 -42 -71 -127q0 -48 25 -83t63 -50q-22 -66 -62.5 -118t-87.5 -52
q-27 0 -52 14.5t-56.5 14.5zM330 554q18 27 45.5 41.5t35.5 14.5t11 -1q11 -13 11 -26t-3 -30t-17.5 -43t-43 -43t-59.5 -17h-7q-2 6 -2 16.5t5.5 35.5t23.5 52zM299 314v-2q3 0 3 1t1 1l1 2v7h-5v-5h3q0 -4 -3 -4z" />
    <glyph glyph-name="fi" unicode="&#xfb01;" horiz-adv-x="293" 
d="M205 234q8 0 9 -3.5t-17 -7.5q-59 -12 -87 -12q-27 -66 -40.5 -165.5t-13.5 -146.5q0 -70 22 -92q5 -5 13.5 -9.5t4.5 -6.5q-5 -2 -16 -2t-34 15t-27 50q-2 15 -2 52t20.5 136.5t42.5 164.5q-5 -1 -10 -1q-19 0 -23.5 11t1 12t20 2t18.5 2q50 129 82 181q58 97 118 97
q11 0 22 -3q23 -8 23 -29t-13 -27q5 17 -2 26.5t-22 9.5q-32 -1 -72 -54q-68 -91 -105 -200h88zM212 53q0 -30 18 -30q10 0 49.5 32.5t42.5 35.5t5 1.5t2 -3t-1 -3.5q-15 -25 -63 -60q-32 -26 -54 -26q-34 0 -34 58q0 11 2 31.5t32 126.5q1 8 22 7.5t21 -11.5t-7.5 -29.5
t-17.5 -20.5q-5 -1 -11 -50t-6 -59zM289 307q7 0 7 -4.5t-12 -18.5q-15 -19 -28.5 -19t-19 4.5t-5.5 6t1 2.5q35 29 57 29z" />
    <glyph glyph-name="fl" unicode="&#xfb02;" horiz-adv-x="780" 
 />
  </font>
</defs>
</svg>
