<?xml version="1.0" standalone="no"?>
<!DOCTYPE svg PUBLIC "-//W3C//DTD SVG 1.1//EN" "http://www.w3.org/Graphics/SVG/1.1/DTD/svg11.dtd" >
<svg>
<metadata>
Created by FontForge 20090622 at Fri Oct 19 12:36:08 2018
 By deploy user
Copyright (c) 2015, Cadson Demak (info@cadsondemak.com), Copyright (c) 2010, Pablo Impallari (www.impallari.com|impallari@gmail.com), Copyright (c) 2010, 2011, Alexei Vanyashin (www.cyreal.org|a@cyreal.org), with Reserved Font Name Lobster.
</metadata>
<defs>
<font id="Pattaya-Regular" horiz-adv-x="0" >
  <font-face 
    font-family="Pattaya"
    font-weight="400"
    font-stretch="normal"
    units-per-em="2048"
    panose-1="0 0 5 0 0 0 0 0 0 0"
    ascent="1638"
    descent="-410"
    x-height="1024"
    cap-height="1534"
    bbox="-1002 -777 3117 2065"
    underline-thickness="102"
    underline-position="-103"
    unicode-range="U+000D-U+FB02"
  />
<missing-glyph horiz-adv-x="1659" 
d="M547 2048h1112l-549 -2560h-1110zM1044 -430l517 2396h-949l-516 -2396h948zM778 786q24 35 59 73q75 79 106 144q18 41 18 91q0 57 -23.5 87.5t-65.5 30.5q-43 0 -71.5 -30t-28.5 -78q0 -32 17 -60.5t45 -42.5v-8q-41 -41 -99 -41q-43 0 -68.5 30.5t-25.5 80.5
q0 45 20.5 85.5t57.5 70.5t86.5 46.5t105.5 16.5q108 0 168 -48.5t60 -133.5q0 -53 -23 -96.5t-65 -83.5q-29 -29 -82 -71q-103 -79 -145 -156q-25 -46 -25 -107h-86q0 109 65 200zM667 329q-22 22 -22 60q0 37 22 59.5t60 22.5q37 0 59.5 -22.5t22.5 -59.5q0 -38 -22.5 -60
t-59.5 -22q-38 0 -60 22z" />
    <glyph glyph-name="f_f" unicode="ff" horiz-adv-x="1040" 
d="M-275.5 -496q-43.5 16 -77.5 45q-35 31 -55 71.5t-20 88.5q0 69 26.5 118t76.5 85q44 31 103.5 54.5t147.5 49.5l246 1170q38 195 159 284q87 64 214 64q34 0 68 -9t62 -25q58 -34 89 -95q55 70 137 104q63 25 143 25q46 0 89.5 -16t77.5 -45q35 -31 55 -71.5t20 -88.5
t-6 -84h-96q4 31 4 55q0 34 -22.5 52t-55.5 18q-42 0 -74 -29q-44 -42 -65 -133l-37 -168h205l-19 -82h-202l-232 -1106q-38 -195 -159 -284q-87 -64 -214 -64q-85 0 -140 33.5t-81 95.5q-55 -71 -135 -103q-62 -26 -143 -26q-46 0 -89.5 16zM637 1024l35 162l12 53
q4 21 4 45q0 34 -22.5 52t-55.5 18q-42 0 -74 -29q-44 -42 -65 -133l-37 -168h203zM446 113l175 829h-203l-182 -866zM333 -296q35 39 54 126l49 233l-211 -38l-39 -189q-18 -75 -39 -125q13 -23 43 -32t76 -9q37 0 67 34zM-154 -296q35 39 54 126l24 119q-109 -36 -161 -80
q-66 -55 -66 -131q0 -27 23 -45q27 -23 59 -23q37 0 67 34z" />
    <glyph glyph-name="f_f_i" unicode="ffi" horiz-adv-x="1565" 
d="M-275.5 -496q-43.5 16 -77.5 45q-35 31 -55 71.5t-20 88.5q0 69 26.5 118t76.5 85q44 31 103.5 54.5t147.5 49.5l246 1170q38 195 159 284q87 64 214 64q169 0 252 -107q66 61 153 87q66 20 156 20q156 0 245 -44q122 -60 122 -192q0 -86 -49 -128q-22 -19 -51.5 -28
t-61.5 -9q-52 0 -84 22q-39 27 -39 88q0 38 18 68q20 32 51 32h10q5 0 7 -2q-2 41 -31.5 61.5t-81.5 20.5q-91 0 -149 -71q-48 -60 -68 -160l-35 -168h543l-147 -696q-9 -30 -9 -66q0 -42 20 -59t64 -17q30 0 58.5 13.5t52.5 37.5q49 49 74 130h86q-55 -155 -138 -247
q-70 -75 -158 -108q-64 -24 -134 -24q-98 0 -156 58q-64 64 -64 187q0 54 17 134l121 575h-246l-234 -1106q-39 -192 -154 -280q-88 -68 -206 -68q-75 0 -133.5 29t-89.5 80q-56 -61 -129 -88q-59 -21 -133 -21q-46 0 -89.5 16zM612 1024l15 70q30 149 102 256
q-15 18 -34 26t-48 8q-77 0 -125 -62q-36 -48 -51 -130l-33 -168h174zM418 104l176 838h-172l-184 -868zM300 -316q38 46 60 146l48 223l-183 -37l-39 -180q-10 -43 -19 -72.5t-22 -56.5q5 -36 33 -53q20 -12 43 -12q44 0 79 42zM-154 -296q37 41 54 126l24 119
q-109 -36 -161 -80q-66 -55 -66 -131q0 -27 23 -45q27 -23 59 -23q37 0 67 34z" />
    <glyph glyph-name="f_f_l" unicode="ffl" horiz-adv-x="1597" 
d="M-275.5 -496q-43.5 16 -77.5 45q-35 31 -55 71.5t-20 88.5q0 69 26.5 118t76.5 85q44 31 103.5 54.5t147.5 49.5l246 1170q38 195 159 284q87 64 214 64q152 0 235 -86q54 49 119 69q58 17 121 17q124 0 271 -43q85 -25 242 -86l30 -12l-226 -1065q-8 -26 -8 -66
q0 -42 20 -59t64 -17q30 0 58.5 13.5t52.5 37.5q50 50 73 130h86q-76 -221 -217 -315q-97 -64 -213 -64q-98 0 -155 58q-64 64 -64 187q0 52 17 134l213 1005q-37 16 -95 25q-51 8 -73 8q-43 0 -76 -29q-47 -43 -64 -133l-45 -219h191l-17 -82h-190l-236 -1106
q-39 -192 -154 -280q-88 -68 -206 -68q-78 0 -135 28.5t-88 82.5q-56 -61 -129 -88q-61 -23 -133 -23q-46 0 -89.5 16zM612 1024l35 162q19 97 66 178q-28 20 -66 20q-77 0 -125 -62q-36 -48 -51 -130l-33 -168h174zM418 104l178 838h-174l-184 -868zM300 -316q38 46 60 146
l48 223l-183 -37l-39 -180q-10 -43 -19 -72t-22 -55q6 -39 34 -55q21 -12 42 -12q44 0 79 42zM-154 -296q37 41 54 126l24 119q-109 -36 -161 -80q-66 -55 -66 -131q0 -27 23 -45q27 -23 59 -23q37 0 67 34z" />
    <glyph glyph-name="fi" unicode="fi" horiz-adv-x="1094" 
d="M-353 -450q-34 30 -52.5 72.5t-18.5 94.5q0 66 29 114t83 84q45 29 101 51.5t141 49.5l228 1078q55 254 205 361q109 79 274 79q156 0 245 -44q122 -60 122 -192q0 -86 -49 -128q-22 -19 -51.5 -28t-61.5 -9q-52 0 -84 22q-39 27 -39 88q0 38 18 68q20 32 51 32h10
q5 0 7 -2q-2 41 -31.5 61.5t-81.5 20.5q-91 0 -149 -71q-48 -60 -68 -160l-35 -168h164l-16 -82h-164l-234 -1106q-39 -192 -154 -280q-88 -68 -206 -68q-113 0 -183 62zM594 46q-64 64 -64 187q0 54 17 134l139 657h295l-147 -696q-9 -30 -9 -66q0 -42 20 -59t64 -17
q30 0 58.5 13.5t52.5 37.5q49 49 74 130h86q-55 -155 -138 -247q-70 -75 -158 -108q-64 -24 -134 -24q-98 0 -156 58zM-194 -321q17 9 32 27q37 44 53 124l25 119q-102 -31 -162 -81q-65 -52 -65 -116q0 -44 34 -67q23 -15 50 -15q16 0 33 9z" />
    <glyph glyph-name="fl" unicode="fl" horiz-adv-x="1122" 
d="M-275.5 -496q-43.5 16 -77.5 45q-35 31 -55 71.5t-20 88.5q0 69 26.5 118t76.5 85q44 31 103.5 54.5t147.5 49.5l246 1170q39 196 160 284q88 64 213 64q124 0 271 -43q51 -15 102 -33.5l132 -49.5l37 -15l-225 -1065q-8 -26 -8 -66q0 -42 20 -59t64 -17q30 0 58.5 13.5
t52.5 37.5q50 50 73 130h86q-76 -221 -217 -315q-97 -64 -213 -64q-98 0 -155 58q-64 64 -64 187q0 58 16 134l213 1005q-37 16 -94 25q-51 8 -73 8q-44 0 -77 -29q-46 -42 -63 -133l-45 -219h191l-17 -82h-190l-234 -1106q-38 -194 -158 -284q-87 -64 -214 -64
q-46 0 -89.5 16zM-167 -296q37 41 54 126l25 119q-109 -36 -161 -80q-66 -55 -66 -131q0 -27 23 -45q27 -23 59 -23q36 0 66 34z" />
    <glyph glyph-name="uni04300445.liga" unicode="&#x430;&#x445;" horiz-adv-x="1810" 
d="M57 61q-84 86 -84 256q0 72 14.5 152t42.5 158q64 176 175 284q128 123 295 123q83 0 124.5 -28.5t41.5 -75.5v-15l22 109h295l-147 -696q-7 -25 -7 -52q0 -90 89 -90q39 0 84 15.5t88 42.5q88 54 155 135l-119 645h289l80 -442q96 102 144 184q51 87 51 141v14
q0 5 -2 11q-20 -4 -35 -4q-51 0 -75 34q-22 28 -22 80q0 45 34 73q32 24 81 24q33 0 59.5 -14t44.5 -39q35 -50 35 -130q0 -99 -70 -213q-69 -112 -222 -274l20 -104q20 -102 43 -140q13 -21 31 -30t45 -9t42 3t34 10q-7 -102 -83 -161q-33 -25 -74 -37.5t-85 -12.5
q-82 0 -136 65.5t-89 210.5q-114 -143 -233 -209.5t-247 -66.5q-89 0 -151 50q-31 24 -52.5 60.5t-29.5 81.5q-57 -85 -122 -132q-83 -60 -185 -60q-117 0 -189 73zM427.5 198q25.5 12 49.5 34q54 52 72 135l98 462q0 10 -4.5 23.5t-12.5 25.5q-24 29 -67 29
q-41 0 -79.5 -27t-72.5 -75q-60 -87 -99 -227q-18 -62 -27 -122.5t-9 -109.5q0 -102 38 -138q13 -14 29 -18t36 -4q23 0 48.5 12z" />
    <glyph glyph-name="uni04300447.liga" unicode="&#x430;&#x447;" horiz-adv-x="1939" 
d="M57 61q-84 86 -84 256q0 72 14.5 152t42.5 158q64 176 175 284q128 123 295 123q83 0 124.5 -28.5t41.5 -75.5v-15l22 109h295l-147 -696q-9 -30 -9 -66q0 -42 20 -59t64 -17q30 0 45 9q-24 -60 -42 -96t-40 -60q-24 -26 -53.5 -38.5t-68.5 -12.5q-85 0 -137 49.5
t-64 140.5q-54 -82 -121 -130q-83 -60 -184 -60q-117 0 -189 73zM1553 46q-64 64 -64 187q0 58 16 134l11 51q-60 -66 -130 -93q-53 -22 -116 -22q-98 0 -155 58q-64 64 -64 188q0 59 16 133l72 342h295l-80 -381q-6 -30 -6 -57q0 -84 61 -84q59 0 103 50q43 49 61 130
l72 342h294l-147 -696q-8 -26 -8 -66q0 -42 19.5 -59t64.5 -17q26 0 38 3t27 10q-7 -102 -75 -160q-30 -26 -68.5 -38.5t-81.5 -12.5q-98 0 -155 58zM427.5 198q25.5 12 49.5 34q54 52 72 135l98 462q0 10 -4.5 23.5t-12.5 25.5q-24 29 -67 29q-41 0 -79.5 -27t-72.5 -75
q-60 -87 -99 -227q-18 -62 -27 -122.5t-9 -109.5q0 -102 38 -138q13 -14 29 -18t36 -4q23 0 48.5 12z" />
    <glyph glyph-name="uni04310451.liga" unicode="&#x431;&#x451;" horiz-adv-x="1528" 
d="M60 75q-87 87 -87 263q0 118 37 230.5t108 201.5q75 93 179.5 146t234.5 53q14 0 19 -1t16 -1q-35 43 -85 91q-50 47 -84.5 86.5t-56.5 78.5q-24 42 -24 92q0 78 53 114.5t169 36.5h249h92q37 0 58.5 8.5t34.5 29.5q11 17 22 61h90q-24 -120 -51.5 -192t-65.5 -112
q-37 -39 -91 -54t-138 -15h-135q-13 0 -19.5 -4.5t-6.5 -20.5q0 -9 16 -28l14 -17l33 -43.5t46 -63.5q63 -92 92 -211q16 -63 16 -138t-15 -154t-43 -154q-29 -76 -72 -142t-97 -116q-118 -108 -267 -108q-158 0 -241 83zM1160 1210q-36 34 -36 88q0 25 9.5 48t26.5 40
q37 37 89 37q25 0 48 -10t40 -27t27 -40t10 -48q0 -53 -37 -88q-18 -17 -41 -26.5t-47 -9.5q-51 0 -89 36zM1529 1210q-36 36 -36 88q0 24 9.5 47t26.5 41q35 37 89 37q25 0 48 -10t40 -27t27 -40t10 -48q0 -53 -37 -88q-18 -17 -41 -26.5t-47 -9.5q-53 0 -89 36zM944 64
q-88 82 -88 249q0 63 12.5 140t37.5 154q28 86 71.5 163t101.5 136q134 136 330 136q126 0 181 -60q44 -48 44 -136q0 -87 -38 -163.5t-105 -135.5q-67 -58 -152 -92.5t-176 -40.5q-4 -31 -4 -62q0 -94 37 -134q32 -36 90 -36t127 33q62 30 115 76q-29 -164 -131 -240
q-84 -63 -223 -63q-150 0 -230 76zM1289 543q54 29 98 77q42 47 66 107t24 123q0 41 -12 62.5t-40 21.5q-37 0 -74 -37t-71 -101q-32 -60 -59 -135t-43 -149q57 2 111 31zM526 292q48 91 77 234q11 56 16.5 106t5.5 77q0 77 -20 108q-18 27 -58 27q-46 0 -86 -29.5
t-72 -80.5q-54 -86 -89 -225q-14 -53 -21 -102t-7 -79q0 -87 25 -121q12 -17 31.5 -24t50.5 -7q84 0 147 116z" />
    <glyph glyph-name="uni04310436.liga" unicode="&#x431;&#x436;" horiz-adv-x="2576" 
d="M846 48q-43 47 -43 128q0 72 29.5 111t74.5 39q37 0 72 -25q-21 -70 -21 -121q0 -39 12.5 -61.5t35.5 -22.5q26 0 53.5 25.5t52.5 71.5q49 90 82 226q33 142 33 257q0 105 -41 164q-18 26 -43 38.5t-53 12.5q-80 0 -155 -100q-58 -77 -116 -215q-19 -46 -43 -111l-35 -92
q-73 -180 -170 -273q-114 -108 -270 -108q-158 0 -241 83q-87 87 -87 263q0 118 37 230.5t108 201.5q75 93 179.5 146t234.5 53q14 0 19 -1t16 -1q-35 43 -85 91q-50 47 -84.5 86.5t-56.5 78.5q-24 42 -24 92q0 78 53 114.5t169 36.5h364q45 0 68 2.5t40 11.5t27.5 28.5
t18.5 56.5h90q-25 -121 -52.5 -193t-65.5 -111t-91 -54t-137 -15h-197q-13 0 -19.5 -4.5t-6.5 -20.5q0 -6 14 -25q53 -67 83 -112q57 -85 91 -184q17 -52 25 -115q77 146 157 219q104 92 230 92q69 0 125 -23t95 -65q39 -43 59 -103t20 -134q0 -51 -7 -103h123l86 410h275
l-84 -410h115q54 183 151 295q113 133 268 133q114 0 168 -59q43 -48 43 -129q0 -72 -29.5 -110.5t-74.5 -38.5q-37 0 -72 24q21 66 21 121q0 39 -12 61.5t-35 22.5q-26 0 -53 -25t-53 -71q-51 -93 -82 -226q-34 -139 -34 -258q0 -108 40.5 -161.5t111.5 -53.5
q117 0 235 111q-22 -113 -88 -179q-51 -50 -131 -70q-49 -13 -118 -13t-124.5 23t-94.5 66q-39 42 -59.5 102t-20.5 134q0 53 3 94.5t13 84.5h-117l-104 -492h-275l105 492h-117q-19 -95 -55 -184t-87 -158q-57 -76 -130.5 -119t-163.5 -43q-115 0 -168 60zM526 292
q48 91 77 234q11 56 16.5 106t5.5 77q0 77 -20 108q-18 27 -58 27q-46 0 -86 -29.5t-72 -80.5q-54 -86 -89 -225q-14 -53 -21 -102t-7 -79q0 -87 25 -121q12 -17 31.5 -24t50.5 -7q84 0 147 116z" />
    <glyph glyph-name="uni04310439.liga" unicode="&#x431;&#x439;" horiz-adv-x="1845" 
d="M60 75q-87 87 -87 263q0 118 37 230.5t108 201.5q75 93 179.5 146t234.5 53q14 0 19 -1t16 -1q-35 43 -85 91q-50 47 -84.5 86.5t-56.5 78.5q-24 42 -24 92q0 78 53 114.5t169 36.5h270h92q36 0 58.5 8.5t34.5 29.5q11 17 22 61h90q-25 -121 -52.5 -193t-65.5 -111
t-91 -54t-137 -15h-156q-13 0 -19.5 -4.5t-6.5 -20.5q0 -9 16 -28l14 -17l33 -43.5t46 -63.5q63 -92 92 -211q16 -63 16 -138t-15 -154t-43 -154q-29 -76 -72 -142t-97 -116q-118 -108 -267 -108q-158 0 -241 83zM1216.5 1171q-69.5 47 -69.5 129q0 67 37 108.5t100 41.5
q60 0 93.5 -28.5t33.5 -82.5q0 -24 -7 -43q-13 -36 -42 -55q23 -8 82 -8q98 0 174 50q90 58 141 190h86q-67 -194 -178 -276q-99 -73 -254 -73q-127 0 -196.5 47zM928 46q-64 64 -64 187q0 52 17 134l139 657h295l-148 -696q-6 -25 -6 -52q0 -40 14 -62q16 -28 48 -28
q57 0 100 51q39 46 63 130l140 657h295l-148 -696q-8 -26 -8 -66q0 -42 20 -59t64 -17q23 0 35 2.5t21 6t12 4.5q-7 -102 -76 -161q-59 -50 -152 -50q-86 0 -137.5 50.5t-62.5 143.5q-69 -112 -159 -160q-64 -34 -147 -34q-98 0 -155 58zM526 292q48 91 77 234
q11 56 16.5 106t5.5 77q0 77 -20 108q-18 27 -58 27q-46 0 -86 -29.5t-72 -80.5q-54 -86 -89 -225q-14 -53 -21 -102t-7 -79q0 -87 25 -121q12 -17 31.5 -24t50.5 -7q84 0 147 116z" />
    <glyph glyph-name="uni0431045E.liga" unicode="&#x431;&#x45e;" horiz-adv-x="1823" 
d="M60 75q-87 87 -87 263q0 118 37 230.5t108 201.5q75 93 179.5 146t234.5 53q14 0 19 -1t16 -1q-35 43 -85 91q-50 47 -84.5 86.5t-56.5 78.5q-24 42 -24 92q0 78 53 114.5t169 36.5h270h92q36 0 58.5 8.5t34.5 29.5q11 17 22 61h90q-25 -121 -52.5 -193t-65.5 -111
t-91 -54t-137 -15h-156q-13 0 -19.5 -4.5t-6.5 -20.5q0 -9 16 -28l14 -17l33 -43.5t46 -63.5q63 -92 92 -211q16 -63 16 -138t-15 -154t-43 -154q-29 -76 -72 -142t-97 -116q-118 -108 -267 -108q-158 0 -241 83zM1216.5 1171q-69.5 47 -69.5 129q0 67 37 108.5t100 41.5
q60 0 93.5 -28.5t33.5 -82.5q0 -24 -7 -43q-13 -36 -42 -55q23 -8 82 -8q98 0 174 50q90 58 141 190h86q-67 -194 -178 -276q-99 -73 -254 -73q-127 0 -196.5 47zM1110.5 -496q-43.5 16 -77.5 45q-35 31 -55 71.5t-20 88.5q0 69 27 119t77 85q44 31 103.5 54t147.5 49l20 90
q-60 -70 -131 -96q-56 -22 -119 -22q-98 0 -155 58q-64 64 -64 187q0 52 17 134l139 657h295l-148 -696q-6 -25 -6 -52q0 -40 14 -62q16 -28 48 -28q57 0 100 51q39 46 63 130l140 657h297l-250 -1188q-42 -197 -159 -284q-87 -64 -214 -64q-46 0 -89.5 16zM526 292
q48 91 77 234q11 56 16.5 106t5.5 77q0 77 -20 108q-18 27 -58 27q-46 0 -86 -29.5t-72 -80.5q-54 -86 -89 -225q-14 -53 -21 -102t-7 -79q0 -87 25 -121q12 -17 31.5 -24t50.5 -7q84 0 147 116zM1219 -296q37 40 55 126l24 121q-107 -35 -161 -81q-66 -55 -66 -132
q0 -27 23 -45q27 -23 59 -23q36 0 66 34z" />
    <glyph glyph-name="uni04310456.liga" unicode="&#x431;&#x456;" horiz-adv-x="1309" 
d="M60 75q-87 87 -87 263q0 118 37 230.5t108 201.5q75 93 179.5 146t234.5 53q14 0 19 -1t16 -1q-35 43 -85 91q-50 47 -84.5 86.5t-56.5 78.5q-24 42 -24 92q0 78 53 114.5t169 36.5h209h92q36 0 57.5 8.5t34.5 29.5q11 17 22 61h90q-24 -120 -51.5 -192t-65.5 -112
q-37 -39 -91 -54t-138 -15h-94q-13 0 -19.5 -4.5t-6.5 -20.5q0 -9 16 -28l14 -17l33 -43.5t46 -63.5q63 -92 92 -211q16 -63 16 -138t-15 -154t-43 -154q-29 -76 -72 -142t-97 -116q-118 -108 -267 -108q-158 0 -241 83zM1160 1147.5q-30 12.5 -52 34.5q-22 21 -34.5 51
t-12.5 63t12.5 63t34.5 53t52 35.5t63 12.5t63 -12.5t52 -35.5t35 -53t13 -63t-13 -62.5t-35 -51.5t-52 -34.5t-63 -12.5t-63 12.5zM928 46q-64 64 -64 187q0 52 17 134l139 657h295l-148 -696q-8 -26 -8 -66q0 -42 20 -59t64 -17q26 0 38.5 3t27.5 10q-7 -101 -76 -160
q-30 -26 -68.5 -38.5t-81.5 -12.5q-98 0 -155 58zM526 292q48 91 77 234q11 56 16.5 106t5.5 77q0 77 -20 108q-18 27 -58 27q-46 0 -86 -29.5t-72 -80.5q-54 -86 -89 -225q-14 -53 -21 -102t-7 -79q0 -87 25 -121q12 -17 31.5 -24t50.5 -7q84 0 147 116z" />
    <glyph glyph-name="uni04310457.liga" unicode="&#x431;&#x457;" horiz-adv-x="1307" 
d="M60 75q-87 87 -87 263q0 118 37 230.5t108 201.5q75 93 179.5 146t234.5 53q14 0 19 -1t16 -1q-35 43 -85 91q-50 47 -84.5 86.5t-56.5 78.5q-24 42 -24 92q0 78 53 114.5t169 36.5h172h92q36 0 58.5 8.5t34.5 29.5q11 17 22 61h90q-25 -121 -52.5 -193t-65.5 -111
q-37 -39 -91 -54t-137 -15h-58q-13 0 -19.5 -4.5t-6.5 -20.5q0 -9 16 -28l14 -17l33 -43.5t46 -63.5q63 -92 92 -211q16 -63 16 -138t-15 -154t-43 -154q-29 -76 -72 -142t-97 -116q-118 -108 -267 -108q-158 0 -241 83zM1031 1210q-36 34 -36 88q0 25 9.5 48t26.5 40
q37 37 89 37q25 0 48 -10t40 -27t27 -40t10 -48q0 -53 -37 -88q-18 -17 -41 -26.5t-47 -9.5q-51 0 -89 36zM1338 1209q-35 35 -35 89q0 24 9.5 47t26.5 41q35 37 88 37q25 0 48 -10t40 -27t27 -40t10 -48q0 -53 -37 -88q-18 -17 -41 -26.5t-47 -9.5q-54 0 -89 35zM926 46
q-64 64 -64 187q0 52 17 134l139 657h295l-148 -696q-8 -26 -8 -66q0 -42 20 -59t64 -17q26 0 38.5 3t27.5 10q-7 -101 -76 -160q-30 -26 -68.5 -38.5t-81.5 -12.5q-98 0 -155 58zM526 292q48 91 77 234q11 56 16.5 106t5.5 77q0 77 -20 108q-18 27 -58 27q-46 0 -86 -29.5
t-72 -80.5q-54 -86 -89 -225q-14 -53 -21 -102t-7 -79q0 -87 25 -121q12 -17 31.5 -24t50.5 -7q84 0 147 116z" />
    <glyph glyph-name="uni04310458.liga" unicode="&#x431;&#x458;" horiz-adv-x="1307" 
d="M60 75q-87 87 -87 263q0 118 37 230.5t108 201.5q75 93 179.5 146t234.5 53q14 0 19 -1t16 -1q-35 43 -85 91q-50 47 -84.5 86.5t-56.5 78.5q-24 42 -24 92q0 78 53 114.5t169 36.5h209h92q36 0 57.5 8.5t34.5 29.5q11 17 22 61h90q-24 -120 -51.5 -192t-65.5 -112
q-37 -39 -91 -54t-138 -15h-94q-13 0 -19.5 -4.5t-6.5 -20.5q0 -9 16 -28l14 -17l33 -43.5t46 -63.5q63 -92 92 -211q16 -63 16 -138t-15 -154t-43 -154q-29 -76 -72 -142t-97 -116q-118 -108 -267 -108q-158 0 -241 83zM1141 1149.5q-30 12.5 -52 34.5q-22 21 -34.5 51
t-12.5 63t12.5 63.5t34.5 52.5t52 35t63 13t63 -13t53 -35t35.5 -52.5t12.5 -63.5t-12.5 -63t-35.5 -51q-23 -22 -53 -34.5t-63 -12.5t-63 12.5zM604.5 -496q-43.5 16 -76.5 45q-35 31 -55 71.5t-20 88.5q0 69 27 119t77 85q44 31 103.5 54t148.5 49l211 1008h297
l-250 -1188q-38 -195 -159 -284q-87 -64 -214 -64q-46 0 -89.5 16zM526 292q48 91 77 234q11 56 16.5 106t5.5 77q0 77 -20 108q-18 27 -58 27q-46 0 -86 -29.5t-72 -80.5q-54 -86 -89 -225q-14 -53 -21 -102t-7 -79q0 -87 25 -121q12 -17 31.5 -24t50.5 -7q84 0 147 116z
M714 -296q35 39 54 126l27 121q-111 -36 -164 -80q-66 -55 -66 -133q0 -27 23 -45q27 -23 59 -23q37 0 67 34z" />
    <glyph glyph-name="uni04320436.liga" unicode="&#x432;&#x436;" horiz-adv-x="2611" 
d="M883 48q-43 47 -43 128q0 72 29.5 111t74.5 39q37 0 72 -25q-21 -66 -21 -121q0 -39 12 -61.5t35 -22.5q26 0 53.5 25.5t52.5 71.5q49 88 83 226q33 142 33 257q0 117 -28 167q-28 48 -83 48q-70 0 -161 -54q-103 -60 -218 -190q25 -65 25 -137q0 -102 -33 -195t-96 -165
q-65 -75 -156.5 -116.5t-202.5 -41.5q-168 0 -258 104q-82 95 -82 264q0 55 12.5 135.5t35.5 173.5q50 200 133 391q92 210 202 336q124 142 252 142q107 0 164 -64q61 -70 61 -217q0 -116 -57 -263q-43 -111 -110 -228q33 -15 61 -43q152 181 287 257q111 62 223 62
q59 0 110 -23t89 -65q38 -43 58.5 -103.5t20.5 -133.5q0 -47 -6 -103h123l86 410h275l-86 -410h114q57 186 151 295q115 133 269 133q114 0 168 -59q43 -48 43 -129q0 -72 -29.5 -110.5t-74.5 -38.5q-37 0 -72 24q20 63 20 121q0 39 -12 61.5t-35 22.5q-26 0 -53 -25.5
t-52 -70.5q-51 -93 -82 -226q-34 -139 -34 -258q0 -108 40.5 -161.5t111.5 -53.5q115 0 235 111q-22 -114 -89 -179q-51 -50 -131 -70q-49 -13 -118 -13t-124.5 23t-94.5 66q-39 42 -59.5 102t-20.5 134q0 50 3.5 92.5t13.5 86.5h-117l-102 -492h-275l105 492h-117
q-19 -95 -55 -184t-88 -158q-57 -76 -130.5 -119t-162.5 -43q-115 0 -168 60zM489 201q40 25 68 69q27 41 41 91.5t14 101.5q0 76 -18 112q-20 -7 -33.5 -9.5t-40.5 -2.5q-49 0 -77.5 27t-28.5 74q0 61 41 92q33 25 102 30q55 99 99 233q44 137 44 247q0 62 -15.5 87
t-51.5 25q-32 0 -65 -34t-65 -95q-58 -113 -114 -301q-48 -159 -82 -342q-31 -164 -31 -252q0 -83 29 -128q31 -50 96 -50q48 0 88 25z" />
    <glyph glyph-name="uni04320437.liga" unicode="&#x432;&#x437;" horiz-adv-x="1540" 
d="M921.5 -497q-45.5 15 -79.5 44q-35 29 -53.5 71t-18.5 95q0 115 95 192q82 66 235 105q0 70 -24 119q-37 76 -120 76h-63l27 123h59q54 0 101 28t81 78t52 118t18 148q0 70 -21 108q-26 48 -84 48q-35 0 -74 -15.5t-87 -44.5q-60 -38 -172 -124q-4 -3 -10 -8t-15 -11
q31 -70 31 -143q0 -102 -33 -195t-96 -165q-65 -75 -156.5 -116.5t-202.5 -41.5q-168 0 -258 104q-82 95 -82 264q0 55 12.5 135.5t35.5 173.5q50 200 133 391q92 210 202 336q124 142 252 142q107 0 164 -64q61 -70 61 -217q0 -116 -57 -263q-43 -111 -110 -228
q21 -9 51 -37q32 28 59 54q90 88 153 137q91 71 197 105q56 17 113 17q151 0 230 -92q73 -85 73 -233q0 -121 -64 -233q-51 -90 -134 -155q-35 -27 -66.5 -44t-52.5 -21q94 -42 137 -116q39 -68 39 -185q0 -104 -28 -192t-79 -151q-51 -64 -121 -98t-151 -34q-53 0 -98.5 15
zM489 201q40 25 68 69q27 41 41 91.5t14 101.5q0 76 -18 112q-20 -7 -33.5 -9.5t-40.5 -2.5q-49 0 -77.5 27t-28.5 74q0 61 41 92q33 25 102 30q55 99 99 233q44 137 44 247q0 62 -15.5 87t-51.5 25q-32 0 -65 -34t-65 -95q-58 -113 -114 -301q-48 -159 -82 -342
q-31 -164 -31 -252q0 -83 29 -128q31 -50 96 -50q48 0 88 25zM1062 -246q31 72 36 195q-112 -40 -166 -94q-49 -49 -49 -103q0 -37 23.5 -59.5t56.5 -22.5q63 0 99 84z" />
    <glyph glyph-name="uni04320445.liga" unicode="&#x432;&#x445;" horiz-adv-x="1724" 
d="M1251 72q-61 89 -90 272l-282 -344h-148l414 467l-33 229q-16 99 -34 137q-9 18 -18.5 25.5t-21.5 7.5q-22 0 -42.5 -8.5t-48.5 -31.5q-50 -40 -181 -171q33 -71 33 -145q0 -102 -33 -195t-96 -165q-65 -75 -156.5 -116.5t-202.5 -41.5q-168 0 -258 104q-82 95 -82 264
q0 55 12.5 135.5t35.5 173.5q50 200 133 391q92 210 202 336q124 142 252 142q107 0 164 -64q61 -70 61 -217q0 -116 -57 -263q-43 -111 -110 -228q21 -9 51 -37q63 57 110 106q58 59 111.5 101.5t108.5 69.5q57 28 126 28q109 0 161 -82q36 -58 46 -161l23 -183
q100 111 148 186.5t53 135.5q-20 -4 -35 -4q-51 0 -75 34q-22 28 -22 80q0 50 43 78q37 23 97 23q52 0 86 -59q28 -53 28 -128q0 -49 -17 -95t-54 -100q-33 -48 -83.5 -106l-142.5 -157l23 -131q9 -53 19 -86.5t23 -53.5q13 -21 31.5 -30t45.5 -9t42 3t34 10
q-7 -102 -83 -161q-33 -25 -74 -37.5t-85 -12.5q-94 0 -152 84zM489 201q40 25 68 69q27 41 41 91.5t14 101.5q0 76 -18 112q-20 -7 -33.5 -9.5t-40.5 -2.5q-49 0 -77.5 27t-28.5 74q0 61 41 92q33 25 102 30q55 99 99 233q44 137 44 247q0 62 -15.5 87t-51.5 25
q-32 0 -65 -34t-65 -95q-58 -113 -114 -301q-48 -159 -82 -342q-31 -164 -31 -252q0 -83 29 -128q31 -50 96 -50q48 0 88 25z" />
    <glyph glyph-name="uni04330437.liga" unicode="&#x433;&#x437;" horiz-adv-x="1573" 
d="M954 -497q-46 15 -79 44q-35 29 -53.5 71t-18.5 95q0 115 95 192q82 66 235 105q0 70 -24 119q-37 76 -120 76h-63l26 123h60q54 0 101 27t81 76q33 49 51.5 113t18.5 136t-23 118q-13 27 -36.5 42.5t-55.5 15.5q-47 0 -87.5 -25.5t-81.5 -78.5q-37 -48 -77 -119.5
t-98 -186.5q-58 -114 -106.5 -190.5t-105.5 -133.5q-66 -66 -148 -100t-191 -34q-134 0 -213 55q-84 59 -84 176q0 103 68 181q27 32 63.5 60t85.5 58q62 38 92.5 58.5t57.5 45.5q32 31 49.5 64t17.5 74q0 46 -23.5 71t-70.5 25q-67 0 -120.5 -51t-100.5 -162h-99
q67 191 164 287q112 112 283 112q56 0 105.5 -13.5t87.5 -40.5q40 -29 61.5 -73.5t21.5 -103.5q0 -79 -29.5 -138.5t-82.5 -108.5q-47 -43 -104 -78q-69 -42 -112 -71.5t-72 -62.5q-32 -37 -32 -84q0 -56 38 -84q32 -24 87 -24q107 0 192 95q37 41 70.5 96.5t71.5 129.5
q25 47 71 141q71 149 145 246q84 111 201 152q60 22 140 22q65 0 118.5 -21.5t91.5 -62.5q79 -87 79 -241q0 -124 -64 -233q-53 -90 -135 -155q-34 -27 -66 -44t-53 -21q96 -43 136.5 -114.5t40.5 -186.5q0 -104 -28 -192t-79 -151q-51 -64 -121 -98t-151 -34q-53 0 -99 15z
M1094 -246q31 72 36 195q-112 -40 -166 -94q-49 -49 -49 -103q0 -37 23.5 -59.5t56.5 -22.5q63 0 99 84z" />
    <glyph glyph-name="uni04330445.liga" unicode="&#x433;&#x445;" horiz-adv-x="1485" 
d="M41 43q-84 59 -84 178q0 102 68 180q27 32 63 59t86 58q62 38 92.5 58.5t57.5 45.5q32 31 49.5 64t17.5 74q0 46 -24 71t-72 25q-66 0 -119 -51t-100 -162h-99q66 189 164 287q112 112 281 112q123 0 194 -53q84 -63 84 -186q0 -75 -29.5 -132.5t-82.5 -105.5
q-47 -43 -104 -78q-66 -39 -110 -71t-74 -66q-32 -38 -32 -86q0 -52 39 -78t105 -26q63 0 125.5 22.5t127.5 64.5q49 31 97.5 70l120.5 101l22 18l-131 588h289l92 -414q104 96 156.5 167.5t52.5 129.5v14q0 5 -2 11q-20 -4 -37 -4q-48 0 -74 34q-20 27 -20 72q0 52 34 80
q29 25 78 25q68 0 108 -53q34 -49 34 -128q0 -53 -17.5 -104.5t-54.5 -106.5q-70 -104 -233 -249l22 -133q10 -54 19 -87t22 -53q13 -21 33.5 -30t52.5 -9q35 0 68 13q-7 -100 -81 -160q-32 -25 -71.5 -38t-79.5 -13q-93 0 -146 78q-53 77 -89 262q-85 -79 -159 -137.5
t-150 -101.5q-179 -101 -361 -101q-140 0 -219 55z" />
    <glyph glyph-name="uni04330447.liga" unicode="&#x433;&#x447;" horiz-adv-x="1708" 
d="M40 43q-83 57 -83 176q0 103 68 181q27 32 63.5 60t85.5 58q62 38 92.5 58.5t57.5 45.5q32 31 49.5 64t17.5 74q0 46 -23.5 71t-70.5 25q-67 0 -120.5 -51t-100.5 -162h-99q67 191 164 287q112 112 283 112q56 0 105.5 -13.5t87.5 -40.5q40 -29 61.5 -73.5t21.5 -103.5
q0 -79 -29.5 -138.5t-82.5 -108.5q-47 -43 -104 -78q-69 -42 -112 -71.5t-72 -62.5q-32 -37 -32 -84q0 -58 37 -83t109 -25q51 0 113 37.5t120 104.5q61 69 108.5 160t73.5 195l7 25l71 342h295l-80 -381q-6 -30 -6 -57q0 -84 62 -84q59 0 103 50q43 49 60 130l72 342h293
l-147 -696q-9 -30 -9 -66q0 -42 20 -59t64 -17q26 0 38.5 3t27.5 10q-7 -101 -76 -160q-30 -25 -69 -38t-80 -13q-98 0 -156 58q-64 64 -64 187q0 54 17 134l12 51q-61 -66 -129 -93q-53 -22 -117 -22q-71 0 -122 30.5t-76 94.5q-46 -89 -108 -168t-133 -138
q-76 -63 -158.5 -98.5t-166.5 -35.5q-154 0 -234 55z" />
    <glyph glyph-name="uni04530437.liga" unicode="&#x453;&#x437;" horiz-adv-x="1573" 
d="M606 1536h215l-248 -387h-153zM954 -497q-46 15 -79 44q-35 29 -53.5 71t-18.5 95q0 115 95 192q82 66 235 105q0 70 -24 119q-37 76 -120 76h-63l26 123h60q54 0 101 27t81 76q33 49 51.5 113t18.5 136t-23 118q-13 27 -36.5 42.5t-55.5 15.5q-47 0 -87.5 -25.5
t-81.5 -78.5q-37 -48 -77 -119.5t-98 -186.5q-58 -114 -106.5 -190.5t-105.5 -133.5q-66 -66 -148 -100t-191 -34q-134 0 -213 55q-84 59 -84 176q0 103 68 181q27 32 63.5 60t85.5 58q62 38 92.5 58.5t57.5 45.5q32 31 49.5 64t17.5 74q0 46 -23.5 71t-70.5 25
q-67 0 -120.5 -51t-100.5 -162h-99q67 191 164 287q112 112 283 112q56 0 105.5 -13.5t87.5 -40.5q40 -29 61.5 -73.5t21.5 -103.5q0 -79 -29.5 -138.5t-82.5 -108.5q-47 -43 -104 -78q-69 -42 -112 -71.5t-72 -62.5q-32 -37 -32 -84q0 -56 38 -84q32 -24 87 -24
q107 0 192 95q37 41 70.5 96.5t71.5 129.5q25 47 71 141q71 149 145 246q84 111 201 152q60 22 140 22q65 0 118.5 -21.5t91.5 -62.5q79 -87 79 -241q0 -124 -64 -233q-53 -90 -135 -155q-34 -27 -66 -44t-53 -21q96 -43 136.5 -114.5t40.5 -186.5q0 -104 -28 -192t-79 -151
q-51 -64 -121 -98t-151 -34q-53 0 -99 15zM1094 -246q31 72 36 195q-112 -40 -166 -94q-49 -49 -49 -103q0 -37 23.5 -59.5t56.5 -22.5q63 0 99 84z" />
    <glyph glyph-name="uni04530445.liga" unicode="&#x453;&#x445;" horiz-adv-x="1485" 
d="M606 1536h215l-248 -387h-153zM41 43q-84 59 -84 178q0 102 68 180q27 32 63 59t86 58q62 38 92.5 58.5t57.5 45.5q32 31 49.5 64t17.5 74q0 46 -24 71t-72 25q-66 0 -119 -51t-100 -162h-99q66 189 164 287q112 112 281 112q123 0 194 -53q84 -63 84 -186
q0 -75 -29.5 -132.5t-82.5 -105.5q-47 -43 -104 -78q-66 -39 -110 -71t-74 -66q-32 -38 -32 -86q0 -52 39 -78t105 -26q63 0 125.5 22.5t127.5 64.5q49 31 97.5 70l120.5 101l22 18l-131 588h289l92 -414q104 96 156.5 167.5t52.5 129.5v14q0 5 -2 11q-20 -4 -37 -4
q-48 0 -74 34q-20 27 -20 72q0 52 34 80q29 25 78 25q68 0 108 -53q34 -49 34 -128q0 -53 -17.5 -104.5t-54.5 -106.5q-70 -104 -233 -249l22 -133q10 -54 19 -87t22 -53q13 -21 33.5 -30t52.5 -9q35 0 68 13q-7 -100 -81 -160q-32 -25 -71.5 -38t-79.5 -13q-93 0 -146 78
q-53 77 -89 262q-85 -79 -159 -137.5t-150 -101.5q-179 -101 -361 -101q-140 0 -219 55z" />
    <glyph glyph-name="uni04530447.liga" unicode="&#x453;&#x447;" horiz-adv-x="1708" 
d="M606 1536h215l-248 -387h-153zM40 43q-83 57 -83 176q0 103 68 181q27 32 63.5 60t85.5 58q62 38 92.5 58.5t57.5 45.5q32 31 49.5 64t17.5 74q0 46 -23.5 71t-70.5 25q-67 0 -120.5 -51t-100.5 -162h-99q67 191 164 287q112 112 283 112q56 0 105.5 -13.5t87.5 -40.5
q40 -29 61.5 -73.5t21.5 -103.5q0 -79 -29.5 -138.5t-82.5 -108.5q-47 -43 -104 -78q-69 -42 -112 -71.5t-72 -62.5q-32 -37 -32 -84q0 -58 37 -83t109 -25q51 0 113 37.5t120 104.5q61 69 108.5 160t73.5 195l78 367h295l-80 -381q-6 -30 -6 -57q0 -84 62 -84q58 0 103 51
q43 49 60 129l72 342h293l-147 -696q-9 -30 -9 -66q0 -42 20 -59t64 -17q26 0 38.5 3t27.5 10q-7 -101 -76 -160q-30 -25 -69 -38t-80 -13q-98 0 -156 58q-64 64 -64 187q0 54 17 134l12 51q-61 -66 -129 -93q-53 -22 -117 -22q-71 0 -122 30.5t-76 94.5q-46 -89 -108 -168
t-133 -138q-76 -63 -158.5 -98.5t-166.5 -35.5q-154 0 -234 55z" />
    <glyph glyph-name="uni04340447.liga" unicode="&#x434;&#x447;" horiz-adv-x="1976" 
d="M272.5 -499.5q-41.5 12.5 -71.5 37.5q-32 25 -50 62.5t-18 86.5q0 116 109 199q82 61 225 106l25 108q-105 -112 -246 -112q-117 0 -189 73q-84 86 -84 256q0 72 14.5 152t42.5 158q64 176 175 284q128 123 295 123q83 0 124.5 -28.5t41.5 -75.5v-12l22 106h295
l-203 -950q108 38 170 115q72 88 101 237l123 598h294l-79 -381q-7 -27 -7 -57q0 -84 62 -84q58 0 103 51q42 48 61 129l71 342h297l-147 -696q-8 -26 -8 -66q0 -42 19.5 -59t64.5 -17q26 0 38 3t27 10q-7 -101 -76 -160q-30 -25 -69 -38t-80 -13q-98 0 -155 58
q-64 64 -64 187q0 58 16 134l8 51q-61 -66 -129 -93q-53 -22 -116 -22q-57 0 -103 21t-76 63q-43 -187 -158 -292q-87 -79 -206 -111l-31 -148q-39 -196 -156 -284q-85 -64 -213 -64q-48 0 -89.5 12.5zM472 227q53 46 71 119l104 485q0 10 -4.5 23t-12.5 24q-24 29 -67 29
q-41 0 -79.5 -27t-72.5 -75q-60 -87 -99 -227q-18 -62 -27 -122.5t-9 -109.5q0 -102 38 -138q13 -14 29 -18t36 -4q44 0 93 41zM381 -307q34 44 53 137l12 59q-93 -35 -139 -71q-61 -46 -61 -103q0 -27 17 -45q19 -22 52 -22q32 0 66 45z" />
    <glyph glyph-name="uni04340458.liga" unicode="&#x434;&#x458;" horiz-adv-x="1464" 
d="M1299 1149.5q-30 12.5 -52 34.5q-22 21 -34.5 51t-12.5 63t12.5 63.5t34.5 52.5t52 35t63 13t63 -13t53 -35t35.5 -52.5t12.5 -63.5t-12.5 -63t-35.5 -51q-23 -22 -53 -34.5t-63 -12.5t-63 12.5zM272.5 -499.5q-41.5 12.5 -71.5 37.5q-32 25 -50 62.5t-18 86.5
q0 113 97 186q79 58 233 92l29 137q-52 -53 -105 -80q-66 -34 -141 -34q-117 0 -189 73q-84 86 -84 256q0 72 14.5 152t42.5 158q64 176 175 284q128 123 295 123q83 0 124.5 -28.5t41.5 -75.5v-15l22 109h295l-217 -1016l48 4q24 2 46 6l105 11l213 995h295l-252 -1188
q-42 -197 -157 -284q-87 -64 -214 -64q-83 0 -137 32t-80 89q-56 -67 -132 -96q-65 -25 -139 -25q-48 0 -89.5 12.5zM426 196.5q25 10.5 47 30.5q54 49 72 125l4 15l98 462q0 10 -4.5 23.5t-12.5 25.5q-24 29 -67 29q-41 0 -79.5 -27t-72.5 -75q-60 -87 -99 -227
q-18 -62 -27 -122.5t-9 -109.5q0 -102 38 -138q13 -14 29 -18t36 -4q22 0 47 10.5zM868 -296q37 37 56 126l24 117l-46 -3q-16 -1 -46 -7l-106 -11l-19 -90q-14 -64 -43 -131q35 -35 90 -35q57 0 90 34zM381 -307q34 44 53 137l10 47q-94 -26 -142 -61q-56 -40 -56 -101
q0 -27 18 -47t51 -20q32 0 66 45z" />
    <glyph glyph-name="uni04350437.liga" unicode="&#x435;&#x437;" horiz-adv-x="1647" 
d="M1027.5 -497q-45.5 15 -78.5 44q-35 29 -53.5 71t-18.5 95q0 116 95 192q83 66 234 105q0 70 -24 119q-37 76 -119 76h-64l27 123h59q54 0 101 27t81 76q33 49 51.5 113t18.5 136q0 75 -23 118q-31 58 -102 58q-47 0 -86.5 -17t-74.5 -55q-71 -74 -144 -252
q-69 -164 -130 -258q-86 -134 -193 -203q-126 -83 -291 -83q-151 0 -233 76q-87 81 -87 249q0 63 12.5 140t37.5 154q28 86 71.5 163t101.5 136q134 136 330 136q125 0 182 -60q44 -47 44 -136q0 -87 -38 -163.5t-105 -135.5q-67 -58 -152 -92.5t-176 -40.5q-5 -52 -5 -82
q0 -100 38 -138q33 -34 110 -34q83 0 145 30.5t110 87.5q42 48 75.5 113t72.5 158l20 45q58 135 95 200q66 121 147 179q94 69 234 69q74 0 134 -21.5t102 -62.5q88 -88 88 -241q0 -124 -64 -233q-53 -90 -135 -155q-34 -27 -66 -44t-53 -21q94 -42 137 -116q39 -68 39 -185
q0 -104 -28 -192t-79 -151t-121 -97.5t-151 -34.5q-53 0 -98.5 15zM408 545q54 29 96 76q42 48 66 107.5t24 121.5q0 41 -11.5 62.5t-39.5 21.5q-37 0 -74.5 -36t-72.5 -99q-32 -59 -58 -134t-41 -153q57 4 111 33zM1168 -246q31 72 36 195q-112 -40 -166 -94
q-49 -49 -49 -103q0 -37 23.5 -59.5t56.5 -22.5q63 0 99 84z" />
    <glyph glyph-name="uni04350445.liga" unicode="&#x435;&#x445;" horiz-adv-x="1530" 
d="M81 62q-108 84 -108 260q0 60 12.5 134.5t37.5 151.5q28 85 71.5 161.5t101.5 135.5q135 137 330 137q125 0 182 -60q44 -47 44 -136q0 -87 -38 -163.5t-105 -135.5q-67 -58 -152.5 -92.5t-177.5 -40.5q-3 -19 -3 -56q0 -108 60 -158q50 -44 145 -44q55 0 118.5 15
t126.5 44q137 63 237 174l-117 635h289l79 -442q96 102 144 184q51 87 51 141v14q0 5 -2 11q-20 -4 -37 -4q-48 0 -74 34q-20 27 -20 72q0 52 30 78.5t80 26.5q69 0 108 -52q36 -48 36 -126q0 -50 -16.5 -102t-51.5 -111q-66 -109 -225 -281l18 -100q11 -53 19.5 -84
t20.5 -52q14 -23 35 -34t54 -11q26 0 38.5 3t27.5 10q-7 -101 -76 -160q-30 -25 -69 -38t-80 -13q-49 0 -86 16t-65 50t-49.5 86.5t-39.5 131.5q-124 -127 -299 -205q-179 -79 -348 -79q-162 0 -257 74zM406 543q54 29 98 77q42 47 66 107t24 123q0 41 -11.5 62.5
t-39.5 21.5q-37 0 -75 -37t-73 -102q-32 -60 -58.5 -135t-41.5 -148q57 2 111 31z" />
    <glyph glyph-name="uni04350447.liga" unicode="&#x435;&#x447;" horiz-adv-x="1729" 
d="M60 64q-87 81 -87 249q0 63 12.5 140t37.5 154q28 86 71.5 163t101.5 136q134 136 330 136q125 0 182 -60q44 -47 44 -136q0 -87 -38 -163.5t-105 -135.5q-67 -58 -152 -92.5t-176 -40.5q-5 -52 -5 -82q0 -99 37 -138q33 -34 103 -34q59 0 126 40.5t130 112.5
q65 74 113 169.5t69 199.5l72 342h295l-80 -381q-6 -30 -6 -57q0 -84 61 -84q58 0 103 51q42 48 61 129l72 342h297l-148 -696q-8 -26 -8 -66q0 -42 19.5 -59t64.5 -17q26 0 38 3t27 10q-7 -102 -75 -160q-30 -26 -68.5 -38.5t-81.5 -12.5q-98 0 -155 58q-64 64 -64 187
q0 34 5 70l12 71q3 13 4.5 24t3.5 20q-60 -66 -130 -93q-53 -22 -116 -22q-71 0 -122.5 30.5t-76.5 94.5q-45 -84 -104.5 -162.5t-129.5 -138.5q-76 -66 -159.5 -102.5t-171.5 -36.5q-151 0 -233 76zM408 545q54 29 96 76q42 48 66 107.5t24 121.5q0 41 -11.5 62.5
t-39.5 21.5q-37 0 -74.5 -36t-72.5 -99q-32 -59 -58 -134t-41 -153q57 4 111 33z" />
    <glyph glyph-name="uni04510437.liga" unicode="&#x451;&#x437;" horiz-adv-x="1647" 
d="M280 1210q-36 36 -36 88q0 24 9.5 47t26.5 41q35 37 89 37q49 0 88 -37q17 -17 27 -40t10 -48q0 -53 -37 -88q-39 -36 -88 -36q-53 0 -89 36zM648 1210q-36 34 -36 88q0 25 9.5 48t26.5 40q37 37 89 37q25 0 48 -10t40 -27t27 -40t10 -48q0 -53 -37 -88
q-18 -17 -41 -26.5t-47 -9.5q-51 0 -89 36zM1027.5 -497q-45.5 15 -78.5 44q-35 29 -53.5 71t-18.5 95q0 116 95 192q83 66 234 105q0 70 -24 119q-37 76 -119 76h-64l27 123h59q54 0 101 27t81 76q33 49 51.5 113t18.5 136q0 75 -23 118q-31 58 -102 58q-47 0 -86.5 -17
t-74.5 -55q-71 -74 -144 -252q-69 -164 -130 -258q-86 -134 -193 -203q-126 -83 -291 -83q-151 0 -233 76q-87 81 -87 249q0 63 12.5 140t37.5 154q28 86 71.5 163t101.5 136q134 136 330 136q125 0 182 -60q44 -47 44 -136q0 -87 -38 -163.5t-105 -135.5
q-67 -58 -152 -92.5t-176 -40.5q-5 -52 -5 -82q0 -100 38 -138q33 -34 110 -34q83 0 145 30.5t110 87.5q42 48 75.5 113t72.5 158l20 45q58 135 95 200q66 121 147 179q94 69 234 69q74 0 134 -21.5t102 -62.5q88 -88 88 -241q0 -124 -64 -233q-53 -90 -135 -155
q-34 -27 -66 -44t-53 -21q94 -42 137 -116q39 -68 39 -185q0 -104 -28 -192t-79 -151t-121 -97.5t-151 -34.5q-53 0 -98.5 15zM408 545q54 29 96 76q42 48 66 107.5t24 121.5q0 41 -11.5 62.5t-39.5 21.5q-37 0 -74.5 -36t-72.5 -99q-32 -59 -58 -134t-41 -153q57 4 111 33z
M1168 -246q31 72 36 195q-112 -40 -166 -94q-49 -49 -49 -103q0 -37 23.5 -59.5t56.5 -22.5q63 0 99 84z" />
    <glyph glyph-name="uni04510445.liga" unicode="&#x451;&#x445;" horiz-adv-x="1530" 
d="M280 1210q-36 36 -36 88q0 24 9.5 47t26.5 41q35 37 89 37q49 0 88 -37q17 -17 27 -40t10 -48q0 -53 -37 -88q-39 -36 -88 -36q-53 0 -89 36zM648 1210q-36 34 -36 88q0 25 9.5 48t26.5 40q37 37 89 37q25 0 48 -10t40 -27t27 -40t10 -48q0 -53 -37 -88
q-18 -17 -41 -26.5t-47 -9.5q-51 0 -89 36zM81 62q-108 84 -108 260q0 60 12.5 134.5t37.5 151.5q28 85 71.5 161.5t101.5 135.5q135 137 330 137q125 0 182 -60q44 -47 44 -136q0 -87 -38 -163.5t-105 -135.5q-67 -58 -152.5 -92.5t-177.5 -40.5q-3 -19 -3 -56
q0 -108 60 -158q50 -44 145 -44q55 0 118.5 15t126.5 44q137 63 237 174l-117 635h289l79 -442q96 102 144 184q51 87 51 141v14q0 5 -2 11q-20 -4 -37 -4q-48 0 -74 34q-20 27 -20 72q0 52 30 78.5t80 26.5q69 0 108 -52q36 -48 36 -126q0 -50 -16.5 -102t-51.5 -111
q-66 -109 -225 -281l18 -100q11 -53 19.5 -84t20.5 -52q14 -23 35 -34t54 -11q26 0 38.5 3t27.5 10q-7 -101 -76 -160q-30 -25 -69 -38t-80 -13q-49 0 -86 16t-65 50t-49.5 86.5t-39.5 131.5q-124 -127 -299 -205q-179 -79 -348 -79q-162 0 -257 74zM406 543q54 29 98 77
q42 47 66 107t24 123q0 41 -11.5 62.5t-39.5 21.5q-37 0 -75 -37t-73 -102q-32 -60 -58.5 -135t-41.5 -148q57 2 111 31z" />
    <glyph glyph-name="uni04510447.liga" unicode="&#x451;&#x447;" horiz-adv-x="1729" 
d="M280 1210q-36 36 -36 88q0 24 9.5 47t26.5 41q35 37 89 37q49 0 88 -37q17 -17 27 -40t10 -48q0 -53 -37 -88q-39 -36 -88 -36q-53 0 -89 36zM648 1210q-36 34 -36 88q0 25 9.5 48t26.5 40q37 37 89 37q25 0 48 -10t40 -27t27 -40t10 -48q0 -53 -37 -88
q-18 -17 -41 -26.5t-47 -9.5q-51 0 -89 36zM60 64q-87 81 -87 249q0 63 12.5 140t37.5 154q28 86 71.5 163t101.5 136q134 136 330 136q125 0 182 -60q44 -47 44 -136q0 -87 -38 -163.5t-105 -135.5q-67 -58 -152 -92.5t-176 -40.5q-5 -52 -5 -82q0 -99 37 -138
q33 -34 103 -34q59 0 126 40.5t130 112.5q65 74 113 169.5t69 199.5l72 342h295l-80 -381q-6 -30 -6 -57q0 -84 61 -84q58 0 103 51q42 48 61 129l72 342h297l-148 -696q-8 -26 -8 -66q0 -42 19.5 -59t64.5 -17q26 0 38 3t27 10q-7 -102 -75 -160q-30 -26 -68.5 -38.5
t-81.5 -12.5q-98 0 -155 58q-64 64 -64 187q0 34 5 70l12 71q3 13 4.5 24t3.5 20q-60 -66 -130 -93q-53 -22 -116 -22q-71 0 -122.5 30.5t-76.5 94.5q-45 -84 -104.5 -162.5t-129.5 -138.5q-76 -66 -159.5 -102.5t-171.5 -36.5q-151 0 -233 76zM408 545q54 29 96 76
q42 48 66 107.5t24 121.5q0 41 -11.5 62.5t-39.5 21.5q-37 0 -74.5 -36t-72.5 -99q-32 -59 -58 -134t-41 -153q57 4 111 33z" />
    <glyph glyph-name="uni04360447.liga" unicode="&#x436;&#x447;" horiz-adv-x="2746" 
d="M-23 56q-53 56 -53 149q0 80 37 129q16 21 38 32t46 11q45 0 74 -29q-27 -70 -27 -135q0 -59 25 -91q10 -13 23 -19.5t26 -6.5q56 0 109 97q50 90 82 226q32 138 32 257q0 111 -31 163t-94 52q-57 0 -91.5 -37t-66.5 -117h-106q45 151 119 223q85 82 221 82q69 0 125 -23
t95 -65q39 -43 59 -103t20 -134q0 -50 -6 -103h123l86 410h274l-86 -410h115q54 183 151 295q113 133 269 133q114 0 168 -59q43 -48 43 -129q0 -72 -29.5 -110.5t-75.5 -38.5q-37 0 -72 24q21 66 21 121q0 39 -12 61.5t-35 22.5q-26 0 -53 -25.5t-52 -70.5
q-51 -93 -82 -226q-34 -139 -34 -258q0 -108 40 -161.5t111 -53.5q33 0 70 20.5t73 59.5q76 81 136 202q61 123 92 265l72 338h295l-80 -381q-7 -35 -7 -57q0 -84 62 -84q59 0 101.5 48t60.5 128l73 346h295l-147 -696q-8 -26 -8 -66q0 -42 19.5 -59t64.5 -17q26 0 38 3
t27 10q-7 -101 -76 -160q-30 -25 -69 -38t-80 -13q-98 0 -155 58q-64 64 -64 187q0 58 16 134l10 51q-61 -66 -129 -93q-53 -22 -116 -22q-68 0 -119 28.5t-76 86.5q-44 -107 -107 -198q-72 -105 -159 -163q-103 -69 -215 -69q-69 0 -124.5 23t-94.5 66q-39 42 -59.5 102
t-20.5 134q0 53 3 94.5t13 84.5h-117l-102 -492h-274l104 492h-115q-19 -95 -55.5 -184t-88.5 -158q-58 -76 -133.5 -119t-168.5 -43q-128 0 -191 68z" />
    <glyph glyph-name="uni04370437.liga" unicode="&#x437;&#x437;" horiz-adv-x="1573" 
d="M956 -497q-46 15 -79 44q-35 29 -53.5 71t-18.5 95q0 115 95 192q82 66 235 105q0 70 -24 119q-37 76 -120 76h-65l26 123h60q54 0 101 27t81 76q33 49 51.5 113t18.5 136q0 75 -23 118q-31 58 -102 58q-49 0 -90.5 -26t-79.5 -78q-67 -91 -146 -293
q-47 -119 -100.5 -205.5t-120.5 -144.5q-71 -61 -161 -91t-208 -30q-74 0 -131 22.5t-96 62.5q-36 37 -54 82.5t-18 94.5q0 67 34 121q30 48 75 69q80 142 139 288t113 319l303 40q12 -260 22 -399q10 -143 17 -210q6 -78 6 -136q0 -49 -8 -80q12 13 47 78q23 46 59 131
q6 13 12 28.5t14 33.5q56 138 92.5 216t79.5 137q57 78 130.5 117t179.5 39q74 0 134 -21.5t102 -62.5q88 -88 88 -241q0 -124 -64 -233q-53 -90 -135 -155q-34 -27 -66 -44t-53 -21q96 -43 137.5 -115t41.5 -186q0 -104 -28 -192t-79 -151q-51 -64 -121 -98t-151 -34
q-53 0 -99 15zM291 192q55 50 55 148q0 41 -5 103l-5 61q-9 79 -18 183l-11 138q-29 -93 -69 -184.5t-97 -202.5q47 -26 47 -71q0 -40 -24 -69q-26 -32 -66 -32q-20 0 -33.5 5.5t-21.5 21.5q0 -74 29 -108.5t96 -34.5q77 0 123 42zM1096 -246q30 70 37 195
q-112 -40 -166 -94q-49 -49 -49 -103q0 -37 23 -59.5t56 -22.5q63 0 99 84z" />
    <glyph glyph-name="uni04370445.liga" unicode="&#x437;&#x445;" horiz-adv-x="1458" 
d="M102 10.5q-57 22.5 -96 62.5q-36 37 -54 82.5t-18 94.5q0 67 34 121q30 48 75 69q80 142 139 288t113 319l303 40q12 -260 22 -399q10 -143 17 -210q6 -78 6 -136q0 -48 -10 -92q164 68 256 149l-115 625h289l80 -442q93 99 143 184q51 87 51 141v14q0 5 -2 11
q-20 -4 -35 -4q-50 0 -74 34q-22 28 -22 80q0 46 32.5 71.5t82.5 25.5q33 0 59.5 -14t44.5 -39q35 -50 35 -130q0 -99 -70 -213q-67 -108 -223 -274l19 -102q10 -54 18 -84.5t21 -51.5q15 -23 36 -34t54 -11q26 0 38 3t27 10q-7 -102 -75 -160q-30 -26 -68.5 -38.5
t-81.5 -12.5q-53 0 -91 17.5t-65 54.5q-27 35 -48 91.5t-40 139.5q-68 -49 -188 -103l-66 -30l-25 -11q-43 -19 -75 -36q-61 -64 -153 -95q-80 -28 -169 -28q-74 0 -131 22.5zM291 192q55 50 55 148q0 41 -5 103l-5 61q-9 79 -18 183l-11 138q-29 -93 -69 -184.5t-97 -202.5
q47 -26 47 -71q0 -40 -24 -69q-26 -32 -66 -32q-20 0 -33.5 5.5t-21.5 21.5q0 -74 29 -108.5t96 -34.5q77 0 123 42z" />
    <glyph glyph-name="uni04370447.liga" unicode="&#x437;&#x447;" horiz-adv-x="1769" 
d="M102 10.5q-57 22.5 -96 62.5q-36 37 -54 82.5t-18 94.5q0 67 34 121q30 48 75 69q80 142 139 288t113 319l303 40q12 -260 22 -399q10 -143 17 -210q6 -78 6 -136q0 -48 -10 -92q85 61 169 206q35 62 60 124.5t35 111.5l70 332h295l-80 -381q-6 -30 -6 -57q0 -84 61 -84
q58 0 103 51q42 48 61 129l72 342h296l-147 -696q-8 -26 -8 -66q0 -42 19.5 -59t64.5 -17q26 0 38 3t27 10q-7 -102 -75 -160q-30 -26 -68.5 -38.5t-81.5 -12.5q-98 0 -155 58q-64 64 -64 187q0 34 5 70q5 39 19 115q-61 -66 -129 -93q-53 -22 -116 -22q-75 0 -128 34.5
t-77 106.5q-57 -134 -167 -232q-88 -80 -202 -130q-58 -47 -142 -72q-70 -22 -149 -22q-74 0 -131 22.5zM291 192q55 50 55 148q0 41 -5 103l-5 61q-9 79 -18 183l-11 138q-29 -93 -69 -184.5t-97 -202.5q47 -26 47 -71q0 -40 -24 -69q-26 -32 -66 -32q-20 0 -33.5 5.5
t-21.5 21.5q0 -74 29 -108.5t96 -34.5q77 0 123 42z" />
    <glyph glyph-name="uni04380447.liga" unicode="&#x438;&#x447;" horiz-adv-x="1974" 
d="M48 46q-64 64 -64 187q0 58 16 134l139 657h295l-147 -696q-6 -31 -6 -58q0 -84 61 -84q56 0 101 51q36 43 63 130l139 657h295l-147 -696q-9 -30 -9 -66q0 -42 20 -59t64 -17q74 0 130 108q39 76 71 219l21 104q7 43 14 73l70 334h294l-79 -381q-7 -27 -7 -57
q0 -84 62 -84q59 0 103 50q43 49 61 130l71 342h295l-147 -696q-8 -26 -8 -66q0 -42 19.5 -59t64.5 -17q26 0 38 3t27 10q-7 -101 -76 -160q-30 -25 -69 -38t-80 -13q-98 0 -155 58q-64 64 -64 187q0 58 16 134l10 51q-61 -66 -129 -93q-53 -22 -116 -22q-58 0 -104.5 21
t-74.5 65q-57 -182 -153 -283q-110 -118 -264 -118q-88 0 -140 49t-63 145q-70 -112 -158 -160q-63 -34 -145 -34q-98 0 -155 58z" />
    <glyph glyph-name="uni04390447.liga" unicode="&#x439;&#x447;" horiz-adv-x="1974" 
d="M335.5 1171q-69.5 47 -69.5 129q0 67 37 108.5t100 41.5q60 0 93.5 -28.5t33.5 -82.5q0 -24 -7 -43q-13 -36 -42 -55q24 -8 82 -8q98 0 174 50q91 59 142 190h86q-67 -193 -179 -276q-99 -73 -254 -73q-127 0 -196.5 47zM48 46q-64 64 -64 187q0 58 16 134l139 657h295
l-147 -696q-6 -31 -6 -58q0 -84 61 -84q56 0 101 51q36 43 63 130l139 657h295l-147 -696q-9 -30 -9 -66q0 -42 20 -59t64 -17q71 0 128 105q41 77 72 216q14 63 20 104q6 36 14 75l72 338h294l-79 -381q-7 -27 -7 -57q0 -84 62 -84q59 0 101.5 48t60.5 128l73 346h295
l-147 -696q-8 -26 -8 -66q0 -42 19.5 -59t64.5 -17q26 0 38 3t27 10q-7 -101 -76 -160q-30 -25 -69 -38t-80 -13q-98 0 -155 58q-64 64 -64 187q0 58 16 134l10 51q-61 -66 -129 -93q-53 -22 -116 -22q-58 0 -104.5 21t-74.5 65q-57 -182 -153 -283q-110 -118 -264 -118
q-88 0 -140 49t-63 145q-70 -112 -158 -160q-63 -34 -145 -34q-98 0 -155 58z" />
    <glyph glyph-name="uni043A0447.liga" unicode="&#x43a;&#x447;" horiz-adv-x="2003" 
d="M554.5 48q-62.5 60 -62.5 167q0 35 12 105q2 16 4 22q2 20 4 27q4 20 4 41q0 98 -78 98q-26 0 -56 -18l-33 -24l-42 -34l-90 -432h-295l219 1024h295l-88 -406l128 133l15 17q119 128 162 171q71 71 134 92q35 11 73 11q69 0 105 -37.5t36 -97.5q0 -63 -33.5 -98
t-95.5 -35q-57 0 -87 35q-27 30 -25 70q-32 -19 -60.5 -44.5t-62.5 -60.5l-20 -22q-14 -14 -38 -42q-25 -29 -61 -65q35 8 86 8q106 0 153 -49q42 -43 42 -141q0 -33 -12 -97q-5 -25 -9 -52.5t-4 -51.5q0 -76 88 -76q34 0 65 14.5t61 55.5q75 101 130 369l82 399h295
l-80 -381q-6 -30 -6 -57q0 -84 61 -84q60 0 104 50q43 49 60 130l72 342h297l-148 -696q-8 -26 -8 -66q0 -42 20 -59t64 -17q26 0 38.5 3t27.5 10q-7 -101 -76 -160q-30 -25 -69 -38t-80 -13q-98 0 -156 58q-64 64 -64 187q0 54 17 134l8 51q-61 -66 -129 -93
q-53 -22 -117 -22q-61 0 -109 24t-77 72q-68 -233 -184 -331q-93 -80 -222 -80q-122 0 -184.5 60z" />
    <glyph glyph-name="uni045C0447.liga" unicode="&#x45c;&#x447;" horiz-adv-x="2003" 
d="M662 1536h215l-248 -387h-154zM554.5 48q-62.5 60 -62.5 167q0 35 12 105q2 16 4 22q2 20 4 27q4 20 4 41q0 98 -78 98q-26 0 -56 -18l-33 -24l-42 -34l-90 -432h-295l219 1024h295l-88 -406l128 133l15 17q119 128 162 171q71 71 134 92q35 11 73 11q69 0 105 -37.5
t36 -97.5q0 -63 -33.5 -98t-95.5 -35q-57 0 -87 35q-27 30 -25 70q-32 -19 -60.5 -44.5t-62.5 -60.5l-20 -22q-14 -14 -38 -42q-25 -29 -61 -65q35 8 86 8q106 0 153 -49q42 -43 42 -141q0 -33 -12 -97q-5 -25 -9 -52.5t-4 -51.5q0 -76 88 -76q34 0 65 14.5t61 55.5
q75 101 130 369l82 399h295l-80 -381q-6 -30 -6 -57q0 -84 61 -84q59 0 104 51q43 49 60 129l72 342h297l-148 -696q-8 -26 -8 -66q0 -42 20 -59t64 -17q26 0 38.5 3t27.5 10q-7 -101 -76 -160q-30 -25 -69 -38t-80 -13q-98 0 -156 58q-64 64 -64 187q0 54 17 134l8 51
q-61 -66 -129 -93q-53 -22 -117 -22q-61 0 -109 24t-77 72q-67 -235 -186 -334q-92 -77 -222 -77q-120 0 -182.5 60z" />
    <glyph glyph-name="uni043B0447.liga" unicode="&#x43b;&#x447;" horiz-adv-x="2079" 
d="M48 6.5q-43 18.5 -71 52.5q-27 32 -41 74t-14 90q0 73 34 116.5t93 43.5q48 0 77.5 -29.5t29.5 -77.5q0 -44 -20.5 -69.5t-50.5 -25.5q-7 0 -11 1q6 -30 19 -43q19 -22 61 -22q48 0 79 31t53 90q22 63 34 128q11 60 32 150q37 159 76.5 258.5t87.5 155.5
q45 53 102.5 73.5t139.5 20.5h289l-109 -508l-36 -158q-13 -58 -13 -86q0 -86 82 -86q87 0 144 145q23 59 42 133.5t41 182.5l80 377h295l-80 -381q-6 -30 -6 -57q0 -84 61 -84q59 0 104 51q43 49 60 129l72 342h293l-148 -696q-8 -26 -8 -66q0 -42 20 -59t64 -17
q26 0 38.5 3t27.5 10q-7 -101 -76 -160q-30 -26 -68.5 -38.5t-81.5 -12.5q-98 0 -155 58q-64 64 -64 187q0 58 16 134l13 51q-61 -66 -129 -93q-53 -22 -117 -22q-118 0 -178 84q-32 -100 -77 -176.5t-99 -127.5q-50 -47 -103.5 -71t-103.5 -24q-117 0 -183 66
q-29 29 -44 68.5t-15 82.5q0 86 45 278l90 406q-53 0 -91.5 -21.5t-67.5 -68.5q-29 -46 -52.5 -119.5t-46.5 -183.5q-33 -153 -56 -236t-55 -141q-37 -66 -90.5 -98.5t-134.5 -32.5q-56 0 -99 18.5z" />
    <glyph glyph-name="uni043C0447.liga" unicode="&#x43c;&#x447;" horiz-adv-x="2521" 
d="M49 8.5q-43 20.5 -72 56.5q-27 33 -41 74.5t-14 83.5q0 72 33.5 113t93.5 41q48 0 77.5 -29.5t29.5 -77.5q0 -44 -20.5 -69.5t-50.5 -25.5q-7 0 -11 1q-2 -30 14 -50q21 -28 66 -28q51 0 85.5 33.5t57.5 96.5q22 57 37 134l31 154l108 508h287l43 -786l381 786h303
l-109 -508l-36 -158q-13 -58 -13 -86q0 -86 82 -86q87 0 144 145q23 59 42 133.5t41 182.5l80 377h295l-80 -381q-6 -30 -6 -57q0 -84 62 -84q59 0 103 50q43 49 60 130l72 342h297l-147 -696q-9 -30 -9 -66q0 -42 20 -59t64 -17q26 0 38.5 3t27.5 10q-7 -101 -76 -160
q-30 -25 -69 -38t-80 -13q-98 0 -155 58q-64 64 -64 187q0 58 16 134l8 51q-61 -66 -129 -93q-53 -22 -117 -22q-56 0 -102 21t-76 63q-32 -100 -77 -176.5t-99 -127.5q-50 -47 -103.5 -71t-103.5 -24q-118 0 -182 66q-29 29 -44 68.5t-15 82.5q0 86 45 278l30 138
l-303 -621h-287l-36 625l-27 -129q-29 -145 -52 -231t-54 -145q-35 -66 -86.5 -99t-129.5 -33q-55 0 -98 20.5z" />
    <glyph glyph-name="uni043D0447.liga" unicode="&#x43d;&#x447;" horiz-adv-x="1976" 
d="M561 54q-29 29 -44 68.5t-15 82.5q0 38 11.5 103t35.5 184h-227l-105 -492h-295l217 1024h295l-88 -410h229l93 410h274l-108 -508l-36 -158q-14 -62 -14 -86q0 -86 82 -86q46 0 79.5 32t60.5 95q21 50 38.5 117t46.5 192q1 7 5 23l80 379h294l-79 -381q-7 -27 -7 -57
q0 -84 62 -84q58 0 103 51q42 48 61 129l71 342h295l-147 -696q-8 -26 -8 -66q0 -42 19.5 -59t64.5 -17q26 0 38 3t27 10q-7 -101 -76 -160q-30 -25 -69 -38t-80 -13q-98 0 -155 58q-64 64 -64 187q0 58 16 134l10 51q-61 -66 -129 -93q-53 -22 -116 -22q-58 0 -104.5 21
t-74.5 65q-60 -193 -160 -296q-49 -52 -106.5 -78.5t-118.5 -26.5q-118 0 -182 66z" />
    <glyph glyph-name="uni043E0436.liga" unicode="&#x43e;&#x436;" horiz-adv-x="2597" 
d="M834 56q-52 55 -52 149q0 83 34.5 127.5t90.5 44.5q20 0 36 -6.5t34 -22.5q-27 -70 -27 -139q0 -54 21.5 -83.5t52.5 -29.5q57 0 110 97q49 87 81 226q32 138 32 257q0 117 -28 167q-27 48 -82 48q-32 0 -66.5 -17.5t-76.5 -53.5q-72 -62 -203 -212h-3
q-12 -139 -54 -253.5t-108 -196.5q-65 -80 -149 -123t-178 -43q-152 0 -235 74q-93 82 -93 249q0 63 13 139.5t40 154.5q62 186 177 297q139 136 331 136q253 0 263 -309q70 100 126.5 162t108.5 96q47 30 91.5 40.5t99.5 10.5q57 0 108 -22t88 -63q38 -43 59 -103.5
t21 -136.5q0 -47 -6 -103h123l86 410h274l-86 -410h117q57 186 151 295q115 133 269 133q114 0 168 -59q43 -48 43 -129q0 -72 -29.5 -110.5t-75.5 -38.5q-36 0 -71 24q20 63 20 121q0 39 -12 61.5t-35 22.5q-26 0 -53 -25.5t-52 -70.5q-51 -93 -82 -226q-34 -139 -34 -258
q0 -108 40 -161.5t111 -53.5q116 0 236 111q-22 -114 -89 -179q-51 -50 -131 -70q-49 -13 -118 -13t-124.5 23t-94.5 66q-39 42 -59.5 102t-20.5 134q0 53 3 94.5t13 84.5h-118l-103 -492h-274l104 492h-117q-19 -95 -55 -184t-87 -158q-57 -76 -130.5 -119t-163.5 -43
q-137 0 -200 68zM454.5 208.5q37.5 32.5 70.5 90.5t57 136t36 167q-30 8 -42.5 30t-12.5 56q0 42 17 70t47 41q-4 65 -21 93q-9 14 -22.5 20t-34.5 6q-69 0 -135 -104q-61 -94 -100 -232q-38 -135 -38 -240q0 -51 5.5 -83t18.5 -50q12 -18 31 -25.5t50 -7.5q36 0 73.5 32.5z
" />
    <glyph glyph-name="uni043E0437.liga" unicode="&#x43e;&#x437;" horiz-adv-x="1567" 
d="M948 -497q-46 15 -79 44q-35 29 -53.5 71t-18.5 95q0 116 95 192q83 66 234 105q0 70 -24 119q-37 76 -119 76h-63l26 123h60q54 0 100.5 27t80.5 76q33 49 51.5 113t18.5 136q0 75 -23 118q-31 58 -93 58q-40 0 -81 -21t-88 -60q-41 -34 -87 -80l-94 -87h-3
q-12 -139 -54 -253.5t-108 -196.5q-65 -80 -149 -123t-178 -43q-152 0 -235 74q-93 82 -93 249q0 63 13 139.5t40 154.5q62 186 177 297q139 136 331 136q257 0 263 -317l104 117q110 125 222 173q63 27 143 27q65 0 121 -21.5t96 -62.5q41 -43 63.5 -104t22.5 -137
q0 -124 -64 -233q-53 -90 -135 -155q-34 -27 -66 -44t-53 -21q94 -42 137 -116q39 -68 39 -185q0 -104 -28 -192t-79 -151q-51 -64 -120.5 -98t-150.5 -34q-53 0 -99 15zM454.5 208.5q37.5 32.5 70.5 90.5t57 136t36 167q-30 8 -42.5 30t-12.5 56q0 42 17 70t47 41
q-4 65 -21 93q-9 14 -22.5 20t-34.5 6q-69 0 -135 -104q-61 -94 -100 -232q-38 -135 -38 -240q0 -51 5.5 -83t18.5 -50q12 -18 31 -25.5t50 -7.5q36 0 73.5 32.5zM1088 -246q31 72 36 195q-112 -40 -166 -94q-49 -49 -49 -103q0 -37 23.5 -59.5t56.5 -22.5q63 0 99 84z" />
    <glyph glyph-name="uni043E043B.liga" unicode="&#x43e;&#x43b;" horiz-adv-x="1935" 
d="M889 35q-48 38 -68 112q-105 -66 -251 -110q-149 -45 -271 -45q-152 0 -235 74q-93 82 -93 249q0 63 13 139.5t40 154.5q62 186 177 297q139 136 331 136q263 0 263 -327q0 -181 -46.5 -324.5t-130.5 -243.5q121 41 193 86q5 70 38 110t89 40q48 0 77 -29.5t29 -77.5
q0 -44 -20 -69.5t-50 -25.5q-7 0 -11 1q2 -28 17 -43q19 -22 62 -22q48 0 79 31t54 90q21 60 35 128q11 57 24 117l7 33q32 157 71.5 257t89.5 157q45 53 101.5 73.5t130.5 20.5h301l-145 -696q-8 -26 -8 -66q0 -42 19.5 -59t64.5 -17q26 0 38 3t27 10q-7 -102 -75 -160
q-30 -26 -68.5 -38.5t-81.5 -12.5q-94 0 -146 58q-59 64 -59 187q0 52 17 134l112 522q-54 0 -92 -22t-67 -69q-28 -45 -51 -117t-48 -185l-4 -20q-31 -145 -52.5 -223t-51.5 -133q-37 -67 -91.5 -99.5t-136.5 -32.5q-90 0 -147 47zM469.5 221.5q44.5 45.5 81.5 125.5
q36 81 57 186t21 219q0 88 -17 127t-63 39q-69 0 -135 -104q-61 -94 -100 -232q-38 -135 -38 -240q0 -51 5.5 -83t18.5 -50q12 -18 31 -25.5t50 -7.5q44 0 88.5 45.5z" />
    <glyph glyph-name="uni043E043C.liga" unicode="&#x43e;&#x43c;" horiz-adv-x="2378" 
d="M894 35q-52 40 -73 112q-105 -66 -251 -110q-149 -45 -271 -45q-152 0 -235 74q-93 82 -93 249q0 63 13 139.5t40 154.5q62 186 177 297q139 136 331 136q263 0 263 -327q0 -181 -46.5 -324.5t-130.5 -243.5q121 41 193 86q2 69 34.5 106.5t92.5 37.5q48 0 77 -29.5
t29 -77.5q0 -44 -20 -69.5t-50 -25.5q-7 0 -11 1q-2 -30 14 -50q21 -28 65 -28q51 0 85.5 33.5t57.5 96.5q22 57 37 134l31 154l109 508h287l43 -786l381 786h305l-150 -696q-8 -26 -8 -66q0 -42 20 -59t64 -17q26 0 38.5 3t27.5 10q-7 -101 -76 -160q-30 -26 -68.5 -38.5
t-81.5 -12.5q-92 0 -146 58q-59 64 -59 187q0 8 2 34q1 10 10 60q13 70 60 296l-303 -623h-287l-37 625l-26 -129q-29 -145 -52 -231t-54 -145q-35 -66 -86.5 -99t-129.5 -33q-85 0 -142 47zM469.5 221.5q44.5 45.5 81.5 125.5q36 81 57 186t21 219q0 88 -17 127t-63 39
q-69 0 -135 -104q-61 -94 -100 -232q-38 -135 -38 -240q0 -51 5.5 -83t18.5 -50q12 -18 31 -25.5t50 -7.5q44 0 88.5 45.5z" />
    <glyph glyph-name="uni043E0445.liga" unicode="&#x43e;&#x445;" horiz-adv-x="1710" 
d="M853 -20.5q-34 38.5 -34 106.5q0 49 25.5 105.5t70.5 113.5q42 53 96.5 103t110.5 88l-57 317q-127 -150 -277 -197q-12 -141 -54 -257t-109 -199q-65 -81 -149.5 -124.5t-178.5 -43.5q-152 0 -235 74q-93 82 -93 249q0 63 13 139.5t40 154.5q62 186 177 297
q139 136 331 136q260 0 263 -321q114 11 251 205l-18 98h289l74 -406q100 90 150 160.5t50 128.5v14q0 5 -2 11q-20 -4 -35 -4q-50 0 -74 34q-22 28 -22 80q0 46 32.5 71.5t82.5 25.5q33 0 59.5 -14t44.5 -39q35 -50 35 -130q0 -51 -16.5 -101t-51.5 -104
q-66 -100 -225 -243l25 -143q17 -102 41 -140q13 -21 32 -30t46 -9t41.5 3t33.5 10q-7 -101 -82 -161q-33 -25 -74 -37.5t-85 -12.5q-184 0 -252 393q-84 -59 -128 -108q-57 -64 -57 -121q6 2 12 2h15q49 0 69 -32q15 -25 15 -69q0 -58 -30.5 -85t-84.5 -27q-67 0 -101 38.5
zM452.5 208q37.5 32 70.5 90t57 135.5t36 166.5q-55 15 -55 92q0 43 17 70t47 39q-5 66 -22.5 91.5t-55.5 25.5q-69 0 -135 -104q-61 -94 -100 -232q-38 -135 -38 -240q0 -51 5.5 -83t18.5 -50q12 -18 31 -25.5t50 -7.5q36 0 73.5 32z" />
    <glyph glyph-name="uni043F0447.liga" unicode="&#x43f;&#x447;" horiz-adv-x="1976" 
d="M551 60q-53 62 -53 159q0 46 11.5 107t34.5 157q23 98 34.5 156.5t11.5 101.5q0 105 -74 105q-52 0 -96 -55q-37 -47 -64 -134l-139 -657h-295l217 1024h295l-22 -106q60 67 129 94q51 20 110 20q104 0 164 -54q64 -59 64 -177q0 -71 -26 -185q-7 -33 -23 -99
q-29 -111 -42 -177q-8 -42 -8 -68q0 -41 18.5 -63.5t63.5 -22.5q49 0 84 33t61 97q19 46 33 100.5t40 169.5l14 63l80 375h294l-79 -381q-7 -27 -7 -57q0 -84 62 -84q58 0 103 51q42 48 61 129l71 342h297l-147 -696q-8 -26 -8 -66q0 -42 19.5 -59t64.5 -17q26 0 38 3t27 10
q-7 -101 -76 -160q-30 -25 -69 -38t-80 -13q-98 0 -155 58q-64 64 -64 187q0 58 16 134l8 51q-61 -66 -129 -93q-53 -22 -116 -22q-120 0 -179 86q-61 -201 -156 -301t-231 -100q-127 0 -188 72z" />
    <glyph glyph-name="uni04400437.liga" unicode="&#x440;&#x437;" horiz-adv-x="1675" 
d="M156 1100h295l-33 -154q104 88 239 88q111 0 174 -66q72 -78 76 -239q27 30 28 31l96 106.5t82 76.5q58 47 121.5 73t137.5 26q65 0 121 -21.5t96 -62.5q41 -43 63.5 -104t22.5 -137q0 -121 -64 -233q-51 -90 -134 -155q-35 -27 -66.5 -44t-52.5 -21q94 -42 137 -116
q39 -68 39 -185q0 -104 -28 -192t-79 -151q-51 -64 -121 -98t-151 -34q-53 0 -98.5 15t-79.5 44q-35 29 -53.5 71t-18.5 95q0 115 96 192q83 66 234 105q0 70 -24 119q-37 76 -119 76h-64l27 123h59q54 0 101 27t81 76q33 49 51.5 113t18.5 136q0 70 -24 118
q-13 27 -37 42.5t-56 15.5q-72 0 -167 -80q-43 -34 -87 -78q-40 -39 -92 -84q-14 -160 -61 -283q-57 -153 -157 -241q-117 -102 -282 -102q-71 0 -117 22q-35 16 -57 51l-106 -499l-309 -74zM510 267q56 79 90 222q27 115 27 228q0 101 -37 144q-24 26 -66 26q-37 0 -75 -26
t-66 -75l-121 -573q7 -20 26.5 -33.5t51.5 -13.5q99 0 170 101zM1197 -246q31 72 36 195q-112 -40 -166 -94q-49 -49 -49 -103q0 -37 23.5 -59.5t56.5 -22.5q63 0 99 84z" />
    <glyph glyph-name="uni04410437.liga" unicode="&#x441;&#x437;" horiz-adv-x="1647" 
d="M1027.5 -497q-45.5 15 -78.5 44q-35 29 -53.5 71t-18.5 95q0 116 95 192q83 66 234 105q0 70 -24 119q-37 76 -119 76h-64l27 123h59q54 0 101 27t81 76q33 49 51.5 113t18.5 136q0 75 -23 118q-31 58 -102 58q-47 0 -86.5 -17t-74.5 -55q-71 -74 -144 -252
q-69 -164 -130 -258q-86 -134 -193 -203q-126 -83 -291 -83q-151 0 -233 76q-87 81 -87 249q0 63 12.5 140.5t38.5 154.5q61 187 173 298q138 136 327 136q123 0 182 -59q46 -47 46 -129q0 -72 -32 -112q-30 -37 -77 -37q-34 0 -72 24q25 65 25 121q0 39 -14.5 61.5
t-42.5 22.5q-60 0 -125 -106q-59 -94 -98 -239q-40 -142 -40 -257q0 -100 38 -138q33 -34 110 -34q83 0 145 30.5t110 87.5q42 48 75.5 113t72.5 158l20 45q58 135 95 200q66 121 147 179q94 69 234 69q74 0 134 -21.5t102 -62.5q88 -88 88 -241q0 -124 -64 -233
q-53 -90 -135 -155q-34 -27 -66 -44t-53 -21q94 -42 137 -116q39 -68 39 -185q0 -104 -28 -192t-79 -151t-121 -97.5t-151 -34.5q-53 0 -98.5 15zM1168 -246q31 72 36 195q-112 -40 -166 -94q-49 -49 -49 -103q0 -37 23.5 -59.5t56.5 -22.5q63 0 99 84z" />
    <glyph glyph-name="uni04410445.liga" unicode="&#x441;&#x445;" horiz-adv-x="1516" 
d="M67 63q-108 85 -108 261q0 59 12.5 134t37.5 151q61 186 173 296q139 137 328 137q124 0 181 -59q46 -47 46 -131q0 -74 -33 -112q-29 -35 -75 -35q-37 0 -72 24q25 67 25 121q0 39 -14 61.5t-42 22.5q-61 0 -126 -107q-57 -93 -98 -237q-40 -136 -40 -232
q0 -108 60 -158q51 -44 147 -44q55 0 118 15t125 44q137 64 236 174l-117 635h289l80 -442q96 102 144 184q51 87 51 141v14q0 5 -2 11q-20 -4 -37 -4q-49 0 -74 34q-20 27 -20 72q0 52 30 78.5t80 26.5q69 0 108 -52q36 -48 36 -126q0 -50 -16.5 -102t-51.5 -111
q-66 -109 -225 -281l18 -100q11 -56 19 -86.5t21 -50.5q14 -23 36 -33.5t55 -10.5q26 0 37.5 3t26.5 10q-7 -102 -74 -161q-57 -50 -145 -50q-53 0 -91.5 16t-67.5 51q-55 65 -87 215q-65 -65 -143 -117.5t-163 -88.5q-85 -37 -172.5 -56.5t-168.5 -19.5q-162 0 -257 75z
" />
    <glyph glyph-name="uni04410447.liga" unicode="&#x441;&#x447;" horiz-adv-x="1726" 
d="M60 64q-87 81 -87 249q0 63 12.5 140.5t38.5 154.5q61 187 173 298q138 136 327 136q123 0 182 -59q46 -47 46 -129q0 -72 -32 -112q-30 -37 -77 -37q-34 0 -72 24q25 65 25 121q0 39 -14.5 61.5t-42.5 22.5q-60 0 -125 -106q-59 -94 -98 -239q-40 -142 -40 -257
q0 -99 37 -138q33 -34 103 -34q77 0 169 71q90 69 163 185q75 121 104 262l74 346h295l-80 -381q-6 -30 -6 -57q0 -84 61 -84q59 0 103 50q43 49 61 130l72 342h294l-147 -696q-8 -26 -8 -66q0 -42 19.5 -59t64.5 -17q26 0 38 3t27 10q-7 -102 -75 -160q-30 -26 -68.5 -38.5
t-81.5 -12.5q-98 0 -155 58q-64 64 -64 187q0 58 16 134l11 51q-60 -66 -130 -93q-53 -22 -116 -22q-71 0 -122.5 30.5t-76.5 94.5q-45 -84 -104.5 -162.5t-129.5 -138.5q-76 -66 -159.5 -102.5t-171.5 -36.5q-151 0 -233 76z" />
    <glyph glyph-name="uni04420447.liga" unicode="&#x442;&#x447;" horiz-adv-x="2480" 
d="M1057 60q-53 62 -53 159q0 46 11.5 107t34.5 157q23 98 34.5 156.5t11.5 101.5q0 105 -74 105q-52 0 -96 -55q-37 -47 -64 -134l-139 -657h-295l150 707q6 24 6 51q0 41 -13 63q-17 27 -49 27q-58 0 -101 -56q-38 -48 -65 -135l-139 -657h-295l217 1024h295l-22 -106
q60 67 131 95q56 21 119 21q86 0 137 -40q57 -45 73 -136q66 102 152 144q61 30 133 30q103 0 163 -54q64 -59 64 -177q0 -67 -25 -185q-10 -49 -24 -99q-25 -96 -41 -177q-8 -42 -8 -68q0 -41 18.5 -63.5t63.5 -22.5q50 0 85.5 34.5t63.5 103.5q21 52 38 120.5t44 193.5
q2 12 11 52l69 334h295l-80 -381q-6 -30 -6 -57q0 -84 62 -84q58 0 103 51q42 48 61 129l71 342h293l-147 -696q-9 -30 -9 -66q0 -42 20 -59t64 -17q26 0 38.5 3t27.5 10q-7 -101 -76 -160q-30 -25 -69 -38t-80 -13q-98 0 -155 58q-64 64 -64 187q0 27 6 70q5 38 22 115
q-61 -66 -129 -93q-53 -22 -117 -22q-57 0 -102.5 21t-75.5 65q-61 -200 -156 -300.5t-231 -100.5q-127 0 -188 72z" />
    <glyph glyph-name="uni04430447.liga" unicode="&#x443;&#x447;" horiz-adv-x="1931" 
d="M229.5 -499.5q-41.5 12.5 -71.5 37.5q-32 25 -50 62.5t-18 86.5q0 116 109 199q82 61 225 106l25 110q-60 -66 -130 -93q-54 -21 -116 -21q-98 0 -155 58q-64 64 -64 187q0 58 16 134l139 657h295l-147 -696q-6 -25 -6 -52q0 -39 13 -62q15 -28 48 -28q54 0 97 48
q37 41 63 120l143 670h295l-203 -950q108 38 170 115q72 88 101 237l122 598h295l-79 -381q-7 -27 -7 -57q0 -84 62 -84q59 0 101.5 48t60.5 128l73 346h295l-147 -696q-8 -26 -8 -66q0 -42 19.5 -59t64.5 -17q26 0 38 3t27 10q-7 -101 -76 -160q-30 -25 -69 -38t-80 -13
q-98 0 -155 58q-64 64 -64 187q0 58 16 134l10 51q-61 -66 -129 -93q-53 -22 -116 -22q-57 0 -103 21t-76 63q-43 -187 -158 -292q-87 -79 -206 -111l-31 -148q-39 -196 -156 -284q-85 -64 -213 -64q-48 0 -89.5 12.5zM338 -307q34 44 53 137l12 59q-93 -35 -139 -71
q-61 -46 -61 -103q0 -27 17 -45q19 -22 52 -22q31 0 66 45z" />
    <glyph glyph-name="uni04430458.liga" unicode="&#x443;&#x458;" horiz-adv-x="1421" 
d="M1256 1149.5q-30 12.5 -52 34.5q-22 21 -34.5 51t-12.5 63t12.5 63.5t34.5 52.5t52 35t63 13t63 -13t53 -35t35.5 -52.5t12.5 -63.5t-12.5 -63t-35.5 -51q-23 -22 -53 -34.5t-63 -12.5t-63 12.5zM229.5 -499.5q-41.5 12.5 -71.5 37.5q-32 25 -50 62.5t-18 86.5
q0 113 97 186q79 58 233 92l31 139q-61 -68 -130 -94q-54 -22 -118 -22q-98 0 -155 58q-64 64 -64 187q0 58 16 134l139 657h295l-147 -696q-6 -25 -6 -52q0 -39 13 -62q15 -28 48 -28q56 0 101 51q36 43 63 130l139 657h295l-217 -1016l199 21l213 995h295l-252 -1188
q-42 -197 -157 -284q-87 -64 -214 -64q-83 0 -137 32t-80 89q-56 -67 -132 -96q-65 -25 -139 -25q-48 0 -89.5 12.5zM825 -296q37 37 56 126l24 117l-198 -21l-19 -90q-14 -64 -43 -131q35 -35 90 -35q57 0 90 34zM338 -307q34 44 53 137l10 47q-94 -26 -142 -61
q-56 -40 -56 -101q0 -27 18 -47t51 -20q31 0 66 45z" />
    <glyph glyph-name="uni045E0447.liga" unicode="&#x45e;&#x447;" horiz-adv-x="1931" 
d="M335.5 1171q-69.5 47 -69.5 129q0 67 37 108.5t100 41.5q60 0 93.5 -28.5t33.5 -82.5q0 -24 -7 -43q-13 -36 -42 -55q24 -8 82 -8q98 0 174 50q91 59 142 190h86q-67 -193 -179 -276q-99 -73 -254 -73q-127 0 -196.5 47zM229.5 -499.5q-41.5 12.5 -71.5 37.5
q-32 25 -50 62.5t-18 86.5q0 116 109 199q82 61 225 106l25 110q-60 -66 -130 -93q-54 -21 -116 -21q-98 0 -155 58q-64 64 -64 187q0 58 16 134l139 657h295l-147 -696q-6 -25 -6 -52q0 -39 13 -62q15 -28 48 -28q54 0 97 48q37 41 63 120l143 670h295l-203 -950
q108 38 170 115q72 88 101 237l122 598h295l-79 -381q-7 -27 -7 -57q0 -84 62 -84q59 0 103 50q43 49 61 130l71 342h295l-147 -696q-8 -26 -8 -66q0 -42 19.5 -59t64.5 -17q26 0 38 3t27 10q-7 -101 -76 -160q-30 -25 -69 -38t-80 -13q-98 0 -155 58q-64 64 -64 187
q0 58 16 134l10 51q-61 -66 -129 -93q-53 -22 -116 -22q-57 0 -103 21t-76 63q-43 -187 -158 -292q-87 -79 -206 -111l-31 -148q-39 -196 -156 -284q-85 -64 -213 -64q-48 0 -89.5 12.5zM338 -307q34 44 53 137l12 59q-93 -35 -139 -71q-61 -46 -61 -103q0 -27 17 -45
q19 -22 52 -22q31 0 66 45z" />
    <glyph glyph-name="uni045E0458.liga" unicode="&#x45e;&#x458;" horiz-adv-x="1421" 
d="M335.5 1171q-69.5 47 -69.5 129q0 67 37 108.5t100 41.5q60 0 93.5 -28.5t33.5 -82.5q0 -24 -7 -43q-13 -36 -42 -55q24 -8 82 -8q98 0 174 50q91 59 142 190h86q-67 -193 -179 -276q-99 -73 -254 -73q-127 0 -196.5 47zM1256 1149.5q-30 12.5 -52 34.5q-22 21 -34.5 51
t-12.5 63t12.5 63.5t34.5 52.5t52 35t63 13t63 -13t53 -35t35.5 -52.5t12.5 -63.5t-12.5 -63t-35.5 -51q-23 -22 -53 -34.5t-63 -12.5t-63 12.5zM229.5 -499.5q-41.5 12.5 -71.5 37.5q-32 25 -50 62.5t-18 86.5q0 113 97 186q79 58 233 92l31 139q-61 -68 -130 -94
q-54 -22 -118 -22q-98 0 -155 58q-64 64 -64 187q0 58 16 134l139 657h295l-147 -696q-6 -25 -6 -52q0 -39 13 -62q15 -28 48 -28q56 0 101 51q36 43 63 130l139 657h295l-217 -1016l48 4q24 2 46 6l105 11l213 995h295l-252 -1188q-42 -197 -157 -284q-87 -64 -214 -64
q-83 0 -137 32t-80 89q-56 -67 -132 -96q-65 -25 -139 -25q-48 0 -89.5 12.5zM825 -296q37 37 56 126l24 117l-46 -3q-16 -1 -46 -7l-106 -11l-19 -90q-14 -64 -43 -131q35 -35 90 -35q57 0 90 34zM338 -307q34 44 53 137l10 47q-94 -26 -142 -61q-56 -40 -56 -101
q0 -27 18 -47t51 -20q31 0 66 45z" />
    <glyph glyph-name="uni04440437.liga" unicode="&#x444;&#x437;" horiz-adv-x="2204" 
d="M492 100q-105 -112 -238 -112q-134 0 -206 79q-77 85 -77 250q0 232 129 461q66 117 165 184q106 72 233 72q168 0 168 -112l102 471l283 41l-111 -488q100 88 240 88q243 0 250 -309h2l104 117q110 125 222 173q63 27 143 27q65 0 121 -21.5t96 -62.5q41 -43 63.5 -104
t22.5 -137q0 -124 -64 -233q-53 -90 -135 -155q-34 -27 -66 -44t-53 -21q95 -41 139 -116q39 -68 39 -185q0 -104 -28 -192t-79 -151q-51 -64 -120.5 -98t-150.5 -34q-53 0 -99 15t-79 44q-35 29 -53.5 71t-18.5 95q0 116 95 192q83 66 234 105q0 70 -24 119q-37 76 -119 76
h-66l27 123h59q54 0 101 27t81 76q33 49 51.5 113t18.5 136q0 75 -23 118q-31 58 -93 58q-40 0 -81 -21t-88 -60q-36 -30 -88 -80l-94 -87h-2q-10 -130 -44 -241.5t-93 -193.5q-63 -88 -155.5 -136.5t-214.5 -48.5q-124 0 -166 73l-107 -499l-289 -74zM428 202q31 15 59 45
q29 29 50 85l108 506q-12 69 -90 69q-64 0 -117.5 -66t-88.5 -146q-25 -58 -45.5 -137.5t-26.5 -144.5q-3 -37 -3 -68q0 -74 17 -108q13 -27 28.5 -38.5t47.5 -11.5q30 0 61 15zM1002 211.5q54 45.5 92 126.5q36 77 55.5 175.5t19.5 203.5q0 84 -30.5 127t-83.5 43
q-43 0 -82 -25.5t-68 -75.5l-121 -573q7 -21 38 -35q27 -12 59 -12q67 0 121 45.5zM1727 -246q31 72 36 195q-112 -40 -166 -94q-49 -49 -49 -103q0 -37 23.5 -59.5t56.5 -22.5q63 0 99 84z" />
    <glyph glyph-name="uni04450447.liga" unicode="&#x445;&#x447;" horiz-adv-x="2009" 
d="M585 72q-69 89 -98 272l-282 -344h-148l414 467l-33 229q-16 99 -34 137q-16 33 -44 33q-31 0 -66.5 -31t-72.5 -92q-85 -141 -135 -376h-86q40 177 94 308q65 162 156 254q105 105 233 105q110 0 169 -82q43 -61 53 -161l18 -156q87 97 130 167.5t48 127.5
q-20 -4 -35 -4q-50 0 -74 34q-22 28 -22 80q0 49 42 78q36 23 97 23q27 0 49 -16t37 -43q14 -27 21.5 -60.5t7.5 -67.5q0 -47 -17 -94.5t-53 -99.5q-33 -48 -82.5 -105l-132.5 -147l19 -143q12 -98 43 -140q28 -39 84 -39q52 0 89 32.5t65 95.5q24 54 43.5 128.5t45.5 196.5
l80 385h295l-80 -381q-6 -30 -6 -57q0 -84 62 -84q58 0 103 51q43 49 60 129l72 342h295l-147 -696q-9 -30 -9 -66q0 -42 20 -59t64 -17q26 0 38.5 3t27.5 10q-7 -101 -76 -160q-30 -25 -69 -38t-80 -13q-98 0 -155 58q-64 64 -64 187q0 58 16 134l10 51q-61 -66 -129 -93
q-53 -22 -117 -22q-57 0 -103.5 21.5t-74.5 64.5q-62 -197 -155 -292q-106 -109 -248 -109q-109 0 -173 84z" />
    <glyph glyph-name="uni04470447.liga" unicode="&#x447;&#x447;" horiz-adv-x="1974" 
d="M553 49q-64 64 -64 178q0 77 17 140l10 51q-61 -66 -129 -93q-53 -22 -117 -22q-98 0 -155 58q-64 64 -64 188q0 51 17 133l71 342h295l-80 -381q-6 -30 -6 -57q0 -84 62 -84q57 0 100 51q39 46 63 129l72 342h295l-147 -696q-9 -30 -9 -66q0 -42 20 -59t64 -17
q74 0 130 108q39 76 71 219l21 104q7 43 14 73l70 334h294l-79 -381q-7 -27 -7 -57q0 -84 62 -84q59 0 103 50q43 49 61 130l71 342h295l-147 -696q-8 -26 -8 -66q0 -42 19.5 -59t64.5 -17q26 0 38 3t27 10q-7 -101 -76 -160q-30 -25 -69 -38t-80 -13q-98 0 -155 58
q-64 64 -64 187q0 34 5 70q7 52 21 115q-61 -66 -129 -93q-53 -22 -116 -22q-58 0 -104.5 21t-74.5 65q-57 -182 -153 -283q-110 -118 -264 -118q-97 0 -156 61z" />
    <glyph glyph-name="uni04480447.liga" unicode="&#x448;&#x447;" horiz-adv-x="2480" 
d="M48 46q-64 64 -64 187q0 58 16 134l139 657h295l-147 -696q-6 -31 -6 -58q0 -84 61 -84q56 0 101 51q36 43 63 130l139 657h295l-147 -696q-7 -27 -7 -58q0 -84 62 -84q56 0 101 51q36 43 63 130l139 657h295l-148 -696q-8 -26 -8 -66q0 -42 20 -59t64 -17q74 0 130 108
q39 76 71 219l21 104q7 43 14 73l69 334h295l-80 -381q-6 -30 -6 -57q0 -84 62 -84q58 0 103 51q42 48 61 129l71 342h295l-149 -696q-9 -30 -9 -66q0 -42 20 -59t64 -17q26 0 38.5 3t27.5 10q-7 -101 -76 -160q-30 -25 -69 -38t-80 -13q-98 0 -155 58q-64 64 -64 187
q0 58 16 134l12 51q-61 -66 -129 -93q-53 -22 -117 -22q-57 0 -103.5 21.5t-74.5 64.5q-57 -182 -153 -283q-112 -118 -265 -118q-88 0 -139.5 49t-62.5 145q-70 -112 -158 -160q-63 -34 -145 -34q-88 0 -140 49t-63 145q-70 -112 -158 -160q-63 -34 -145 -34q-98 0 -155 58
z" />
    <glyph glyph-name="uni045F0447.liga" unicode="&#x45f;&#x447;" horiz-adv-x="1974" 
d="M48 46q-64 64 -64 187q0 58 16 134l139 657h295l-147 -696q-6 -31 -6 -58q0 -84 61 -84q56 0 101 51q36 43 63 130l139 657h295l-147 -696q-9 -30 -9 -66q0 -42 20 -59t64 -17q74 0 130 108q39 76 71 219l21 104q7 43 14 73l70 334h294l-79 -381q-7 -27 -7 -57
q0 -84 62 -84q58 0 103 51q42 48 61 129l71 342h295l-147 -696q-8 -26 -8 -66q0 -42 19.5 -59t64.5 -17q26 0 38 3t27 10q-7 -101 -76 -160q-30 -25 -69 -38t-80 -13q-98 0 -155 58q-64 64 -64 187q0 34 5 70q7 52 21 115q-61 -66 -129 -93q-53 -22 -116 -22
q-58 0 -104.5 21t-74.5 65q-57 -182 -153 -283q-110 -118 -264 -118q-88 0 -140 49t-63 145q-70 -112 -158 -160q-63 -34 -145 -34q-98 0 -155 58zM400.5 -482q7.5 18 7.5 33q0 24 -10 41.5t-22.5 33l-16.5 20.5q-24 28 -37 56.5t-13 68.5q0 120 109 229h104
q-12 -12 -19 -29t-7 -32q0 -20 9 -36.5t22 -33.5l19 -25q23 -32 36.5 -63t13.5 -72q0 -54 -30 -110.5t-81 -110.5h-104q12 12 19.5 30z" />
    <glyph glyph-name="uni044B0447.liga" unicode="&#x44b;&#x447;" horiz-adv-x="2277" 
d="M64.5 57q-76.5 69 -76.5 193q0 42 14 117l135 657h283l-152 -721q-6 -14 -6 -34.5v-22.5q0 -84 92 -84q41 0 81 26.5t71 72.5q31 47 49 109.5t18 131.5q0 49 -30 78q-26 -19 -60 -19q-16 0 -32 5.5t-28 15.5q-30 25 -30 67q0 44 37 71q32 23 78 23q47 0 84 -12
q69 31 130 64t136 78l23.5 14l29.5 18q114 70 207 119h127l-108 -508l-36 -158q-14 -62 -14 -86q0 -86 82 -86q74 0 130 108q39 76 71 219l21 104q7 43 14 73l70 334h294l-79 -381q-7 -35 -7 -57q0 -84 62 -84q58 0 103 51q42 48 61 129l71 342h297l-147 -696q-8 -26 -8 -66
q0 -42 19.5 -59t64.5 -17q26 0 38 3t27 10q-7 -101 -76 -160q-30 -25 -69 -38t-80 -13q-98 0 -155 58q-64 64 -64 187q0 34 5 70q6 39 19 115q-61 -66 -129 -93q-53 -22 -116 -22q-118 0 -176 82q-51 -175 -139 -276q-104 -117 -247 -121q-120 7 -182 74q-55 58 -55 149
q0 28 6 66q8 53 31 160l32 146l44 205q-105 -66 -230 -133q49 -76 49 -204q0 -44 -12 -95.5t-35 -100.5q-56 -117 -149 -185q-114 -82 -262 -82q-140 0 -216.5 69z" />
    <glyph glyph-name="uni04540437.liga" unicode="&#x454;&#x437;" horiz-adv-x="1647" 
d="M1027.5 -497q-45.5 15 -78.5 44q-35 29 -53.5 71t-18.5 95q0 116 95 192q83 66 234 105q0 70 -24 119q-37 76 -119 76h-64l27 123h59q54 0 101 27t81 76q33 49 51.5 113t18.5 136q0 75 -23 118q-31 58 -102 58q-47 0 -86.5 -17t-74.5 -55q-71 -74 -144 -252
q-69 -164 -130 -258q-86 -134 -193 -203q-126 -83 -291 -83q-151 0 -233 76q-87 81 -87 249q0 63 12.5 140.5t38.5 154.5q61 187 173 298q138 136 327 136q123 0 182 -59q46 -47 46 -129q0 -72 -32 -112q-30 -37 -77 -37q-34 0 -72 24q25 65 25 121q0 39 -14.5 61.5
t-42.5 22.5q-30 0 -60.5 -25.5t-59.5 -71.5q-57 -92 -95 -223h243l-26 -122h-248q-17 -91 -17 -160q0 -100 38 -138q33 -34 110 -34q83 0 145 30.5t110 87.5q42 48 75.5 113t72.5 158l20 45q58 135 95 200q66 121 147 179q94 69 234 69q74 0 134 -21.5t102 -62.5
q88 -88 88 -241q0 -124 -64 -233q-53 -90 -135 -155q-34 -27 -66 -44t-53 -21q94 -42 137 -116q39 -68 39 -185q0 -104 -28 -192t-79 -151t-121 -97.5t-151 -34.5q-53 0 -98.5 15zM1168 -246q31 72 36 195q-112 -40 -166 -94q-49 -49 -49 -103q0 -37 23.5 -59.5t56.5 -22.5
q63 0 99 84z" />
    <glyph glyph-name="uni04540445.liga" unicode="&#x454;&#x445;" horiz-adv-x="1516" 
d="M67 63q-108 85 -108 261q0 59 12.5 134t37.5 151q61 186 173 296q139 137 328 137q124 0 181 -59q46 -47 46 -131q0 -74 -33 -112q-29 -35 -75 -35q-37 0 -72 24q25 67 25 121q0 39 -14 61.5t-42 22.5q-58 0 -122 -99q-58 -89 -97 -221h260l-26 -122h-265
q-14 -65 -14 -134q0 -108 60 -158q51 -44 147 -44q55 0 118 15t125 44q137 64 236 174l-117 635h289l80 -442q96 102 144 184q51 87 51 141v14q0 5 -2 11q-20 -4 -37 -4q-49 0 -74 34q-20 27 -20 72q0 52 30 78.5t80 26.5q69 0 108 -52q36 -48 36 -126q0 -50 -16.5 -102
t-51.5 -111q-66 -109 -225 -281l18 -100q11 -53 19.5 -84t20.5 -52q14 -23 35 -34t54 -11q26 0 38.5 3t27.5 10q-7 -101 -76 -160q-30 -26 -68.5 -38.5t-81.5 -12.5q-49 0 -86.5 16t-64.5 50t-48.5 87t-39.5 131q-131 -131 -307 -208q-174 -76 -340 -76q-162 0 -257 75z" />
    <glyph glyph-name="uni04540447.liga" unicode="&#x454;&#x447;" horiz-adv-x="1729" 
d="M60 64q-87 81 -87 249q0 63 12.5 140.5t38.5 154.5q61 187 173 298q138 136 327 136q123 0 182 -59q46 -47 46 -129q0 -72 -32 -112q-30 -37 -77 -37q-34 0 -72 24q25 65 25 121q0 39 -14.5 61.5t-42.5 22.5q-30 0 -60.5 -25.5t-59.5 -71.5q-57 -92 -95 -223h243
l-26 -122h-248q-17 -91 -17 -160q0 -99 37 -138q33 -34 103 -34q60 0 128 41.5t130 114.5q63 74 111 171t71 203l70 334h295l-80 -381q-6 -30 -6 -57q0 -84 61 -84q59 0 103 50q43 49 61 130l72 342h297l-148 -696q-8 -26 -8 -66q0 -42 19.5 -59t64.5 -17q26 0 38 3t27 10
q-7 -102 -75 -160q-30 -26 -68.5 -38.5t-81.5 -12.5q-98 0 -155 58q-64 64 -64 187q0 73 14 134l11 51q-60 -66 -130 -93q-53 -22 -116 -22q-71 0 -122.5 30.5t-76.5 94.5q-45 -84 -104.5 -162.5t-129.5 -138.5q-76 -66 -159.5 -102.5t-171.5 -36.5q-151 0 -233 76z" />
    <glyph glyph-name="uni044D0437.liga" unicode="&#x44d;&#x437;" horiz-adv-x="1567" 
d="M950 -497q-46 15 -79 44q-35 29 -53.5 71t-18.5 95q0 116 95 192q83 66 234 105q0 70 -24 119q-37 76 -119 76h-65l26 123h60q54 0 100.5 27t80.5 76q33 49 51.5 113t18.5 136q0 75 -23 118q-31 58 -93 58q-42 0 -83 -21t-87 -60q-36 -30 -88 -80l-97 -87
q-22 -140 -84 -270q-77 -157 -188 -244q-136 -106 -311 -106q-139 0 -209 57.5t-70 159.5q0 82 36 129q34 43 83 43q21 0 39.5 -6t36.5 -23q-27 -70 -27 -139q0 -113 113 -113q46 0 90 32t82 89q37 55 66 126t46 149h-274l27 122h266q4 36 4 78q0 93 -42.5 135.5
t-135.5 42.5q-64 0 -111 -32.5t-86 -100.5h-104q59 146 151 221q103 84 273 84q153 0 241 -76q91 -80 97 -241l104 117q110 125 222 173q63 27 143 27q65 0 121 -21.5t96 -62.5q41 -43 63.5 -104t22.5 -137q0 -124 -64 -233q-53 -90 -135 -155q-34 -27 -66 -44t-53 -21
q96 -43 137 -115t41 -186q0 -104 -28 -192t-79 -151q-51 -64 -120.5 -98t-150.5 -34q-53 0 -99 15zM1090 -246q31 72 36 195q-112 -40 -166 -94q-49 -49 -49 -103q0 -37 23.5 -59.5t56.5 -22.5q63 0 99 84z" />
    <glyph glyph-name="uni04560447.liga" unicode="&#x456;&#x447;" horiz-adv-x="1468" 
d="M279 1147.5q-30 12.5 -52 34.5q-22 21 -34.5 51t-12.5 63t12.5 63t34.5 53t52 35.5t63 12.5t63 -12.5t53 -35.5t35.5 -53t12.5 -63t-12.5 -63t-35.5 -51q-23 -22 -53 -34.5t-63 -12.5t-63 12.5zM41 54q-57 65 -57 175q0 24 5 66t11 72l139 657h295l-147 -696
q-8 -26 -8 -66q0 -42 19.5 -59t63.5 -17q74 0 130 108q39 76 71 219l21 104q7 43 14 73l70 334h295l-80 -381q-6 -30 -6 -57q0 -84 61 -84q58 0 103 51q42 48 61 129l72 342h294l-147 -696q-8 -26 -8 -66q0 -42 19.5 -59t64.5 -17q26 0 38 3t27 10q-7 -102 -75 -160
q-30 -26 -68.5 -38.5t-81.5 -12.5q-98 0 -155 58q-64 64 -64 187q0 34 5 70q7 52 21 115q-61 -66 -129 -93q-53 -22 -116 -22q-58 0 -104 21t-74 65q-57 -182 -153 -283q-112 -118 -265 -118q-104 0 -162 66z" />
    <glyph glyph-name="uni04570447.liga" unicode="&#x457;&#x447;" horiz-adv-x="1470" 
d="M69 1210q-36 36 -36 88q0 24 9.5 47t26.5 41q35 37 89 37q49 0 88 -37q17 -17 27 -40t10 -48q0 -53 -37 -88q-39 -36 -88 -36q-53 0 -89 36zM437 1210q-36 34 -36 88q0 25 9.5 48t26.5 40q37 37 89 37q25 0 48 -10t40 -27t27 -40t10 -48q0 -53 -37 -88q-18 -17 -41 -26.5
t-47 -9.5q-51 0 -89 36zM41 54q-57 65 -57 175q0 24 5 66t11 72l139 657h295l-147 -696q-8 -26 -8 -66q0 -42 19.5 -59t63.5 -17q74 0 130 108q39 76 71 219l21 104q7 43 14 73l70 334h295l-80 -381q-6 -30 -6 -57q0 -84 61 -84q59 0 103 50q43 49 61 130l72 342h294
l-145 -696q-8 -26 -8 -66q0 -42 19.5 -59t64.5 -17q26 0 38 3t27 10q-7 -102 -75 -160q-30 -26 -68.5 -38.5t-81.5 -12.5q-98 0 -155 58q-64 64 -64 187q0 73 14 134l10 51q-61 -66 -129 -93q-53 -22 -116 -22q-58 0 -104 21t-74 65q-57 -182 -153 -283q-112 -118 -265 -118
q-104 0 -162 66z" />
    <glyph glyph-name="uni04570457.liga" unicode="&#x457;&#x457;" horiz-adv-x="975" 
d="M69 1210q-36 36 -36 88q0 24 9.5 47t26.5 41q35 37 89 37q49 0 88 -37q17 -17 27 -40t10 -48q0 -53 -37 -88q-39 -36 -88 -36q-53 0 -89 36zM374 1210q-36 36 -36 88q0 24 9.5 47t26.5 41q35 37 89 37q49 0 88 -37q17 -17 27 -40t10 -48q0 -53 -37 -88q-39 -36 -88 -36
q-53 0 -89 36zM679 1210q-36 36 -36 88q0 24 9.5 47t26.5 41q35 37 89 37q25 0 48 -10t40 -27t27 -40t10 -48q0 -53 -37 -88q-18 -17 -41 -26.5t-47 -9.5q-53 0 -89 36zM984 1210q-36 36 -36 88q0 24 9.5 47t26.5 41q35 37 89 37q25 0 48 -10t40 -27t27 -40t10 -48
q0 -53 -37 -88q-18 -17 -41 -26.5t-47 -9.5q-53 0 -89 36zM48 46q-64 64 -64 187q0 58 16 134l139 657h295l-147 -696q-8 -26 -8 -66q0 -42 19.5 -59t63.5 -17q30 0 58.5 13.5t52.5 37.5q49 49 74 130l139 657h295l-147 -696q-9 -30 -9 -66q0 -42 20 -59t64 -17q26 0 38.5 3
t27.5 10q-7 -101 -76 -160q-30 -25 -69 -38t-80 -13q-86 0 -140 42q-59 46 -75 140q-73 -103 -178 -149q-75 -33 -154 -33q-98 0 -155 58z" />
    <glyph glyph-name="uni04580447.liga" unicode="&#x458;&#x447;" horiz-adv-x="1427" 
d="M263 1149.5q-30 12.5 -52 34.5q-22 21 -34.5 51t-12.5 63t12.5 63.5t34.5 52.5t52 35t63 13t63 -13t52 -35t35 -52.5t13 -63.5t-13 -62.5t-35 -51.5t-52 -34.5t-63 -12.5t-63 12.5zM-345 -462q-33 25 -51 62.5t-18 86.5q0 115 110 198q81 62 226 107l219 1032h295
l-203 -950q108 38 170 115q72 88 101 237l123 598h295l-80 -381q-6 -30 -6 -57q0 -84 61 -84q59 0 103 50q43 49 61 130l72 342h294l-145 -696q-8 -26 -8 -66q0 -42 19.5 -59t64.5 -17q26 0 38 3t27 10q-7 -102 -75 -160q-30 -26 -68.5 -38.5t-81.5 -12.5q-98 0 -155 58
q-64 64 -64 187q0 34 5 70l12 71q3 13 4.5 24t3.5 20q-60 -66 -130 -93q-53 -22 -116 -22q-118 0 -178 84q-45 -188 -159 -292q-87 -79 -206 -111l-31 -148q-39 -195 -155 -284q-85 -64 -213 -64q-97 0 -161 50zM-166 -307q34 44 53 137l13 59q-95 -36 -140 -71
q-61 -46 -61 -103q0 -27 17 -45q20 -22 53 -22q32 0 65 45z" />
    <glyph glyph-name="uni04580458.liga" unicode="&#x458;&#x458;" horiz-adv-x="920" 
d="M263 1149.5q-30 12.5 -52 34.5q-22 21 -34.5 51t-12.5 63t12.5 63.5t34.5 52.5t52 35t63 13t63 -13t52 -35t35 -52.5t13 -63.5t-13 -62.5t-35 -51.5t-52 -34.5t-63 -12.5t-63 12.5zM754 1149.5q-30 12.5 -52 34.5q-22 21 -34.5 51t-12.5 63t12.5 63.5t34.5 52.5t52 35
t63 13t63 -13t53 -35t35.5 -52.5t12.5 -63.5t-12.5 -63t-35.5 -51q-23 -22 -53 -34.5t-63 -12.5t-63 12.5zM-343 -462q-33 25 -51 62.5t-18 86.5q0 113 99 186q79 58 233 92l223 1059h295l-217 -1016l48 4q24 2 46 6l105 11l213 995h295l-252 -1188q-42 -197 -157 -284
q-87 -64 -214 -64q-83 0 -137 32t-80 89q-56 -67 -132 -96q-65 -25 -138 -25q-97 0 -161 50zM323 -296q37 37 56 126l24 117l-46 -3q-16 -1 -46 -7l-106 -11l-19 -90q-14 -64 -43 -131q35 -35 90 -35q57 0 90 34zM-164 -307q34 44 53 137l11 47q-96 -27 -142 -61
q-57 -41 -57 -101q0 -26 18.5 -46.5t51.5 -20.5q32 0 65 45z" />
    <glyph glyph-name="uni045B0447.liga" unicode="&#x45b;&#x447;" horiz-adv-x="1919" 
d="M234 -499q-40 13 -69 37q-31 25 -48 62.5t-17 86.5q0 121 113 207q86 65 227 104l38 173q13 56 48 221q2 9 14 72l6 31l11 59l4 30v16q0 105 -74 105q-52 0 -96 -55q-39 -49 -65 -134l-109 -516h-295l217 1024h-110l22 111h113l55 258l303 41l-63 -299h256l-25 -111h-256
l-53 -248q59 65 130 95q51 20 112 20q105 0 163 -54q64 -61 64 -178q0 -30 -6 -62q-16 -86 -33 -162l-80 -357q105 39 165 114q69 87 99 234l123 598h295l-80 -381q-6 -30 -6 -57q0 -84 62 -84q58 0 103 51q43 49 60 129l72 342h295l-147 -696q-9 -30 -9 -66q0 -42 20 -59
t64 -17q26 0 38.5 3t27.5 10q-7 -101 -76 -160q-30 -25 -69 -38t-80 -13q-98 0 -156 58q-64 64 -64 187q0 54 17 134l10 51q-61 -66 -129 -93q-53 -22 -117 -22q-56 0 -102 21t-76 63q-43 -189 -157 -292q-88 -80 -205 -111l-33 -148q-45 -199 -150 -284q-44 -36 -95.5 -50
t-111.5 -14q-45 0 -85 13zM350 -307q34 44 53 137q1 6 7 37q3 15 8 31q-97 -37 -141 -73q-62 -50 -62 -110q0 -26 18 -45q19 -22 52 -22q32 0 65 45z" />
    <glyph glyph-name="uni045B0458.liga" unicode="&#x45b;&#x458;" horiz-adv-x="1415" 
d="M1250 1149.5q-30 12.5 -52 34.5q-22 21 -34.5 51t-12.5 63t12.5 63.5t34.5 52.5t52 35t63 13t63 -13t53 -35t35.5 -52.5t12.5 -63.5t-12.5 -63t-35.5 -51q-23 -22 -53 -34.5t-63 -12.5t-63 12.5zM237 -499q-41 13 -71 37q-66 52 -66 149q0 117 97 188q79 58 233 92
q37 176 52 241l59 277l13 64l6 34q1 7 1 17q0 105 -74 105q-52 0 -96 -55q-39 -49 -65 -134l-109 -516h-295l217 1024h-110l22 111h113l55 258l303 41l-63 -299h256l-25 -111h-256l-53 -248q59 65 130 95q51 20 112 20q105 0 163 -54q64 -61 64 -178q0 -24 -4 -52l-12 -59
l-59 -280l-56 -260l47 4q23 2 45 6l104 11l213 995h295l-252 -1188q-39 -196 -156 -284q-87 -64 -214 -64q-82 0 -136 31.5t-81 87.5q-53 -66 -125 -95q-60 -24 -135 -24q-46 0 -87 13zM819 -296q36 36 55 126l25 117q-21 0 -60 -4q-22 -1 -55 -6l-84 -11l-18 -90l-20 -71
q-9 -34 -21 -62q14 -17 37 -25t51 -8q57 0 90 34zM348 -307q34 44 53 137l11 49q-98 -27 -143 -60q-56 -40 -56 -104q0 -26 18.5 -46.5t51.5 -20.5q32 0 65 45z" />
    <glyph glyph-name="uni044E0436.liga" unicode="&#x44e;&#x436;" horiz-adv-x="3078" 
d="M1318 56q-52 55 -52 149q0 83 34.5 127.5t90.5 44.5q19 0 35.5 -6.5t33.5 -22.5q-26 -67 -26 -139q0 -54 21 -83.5t52 -29.5q57 0 110 97q50 90 82 226q32 138 32 257q0 117 -28 167q-28 48 -83 48q-31 0 -65.5 -17.5t-77.5 -53.5q-72 -62 -203 -212h-2
q-12 -139 -54 -253.5t-109 -196.5q-65 -80 -149 -123t-178 -43q-151 0 -234 74q-93 82 -93 249q0 78 18 177h-154l-102 -492h-295l217 1024h295l-86 -410h160q29 85 73.5 161t104.5 133q139 134 330 134q253 0 262 -309q70 100 126.5 162t108.5 96q47 30 91.5 40.5
t99.5 10.5q58 0 108 -22t88 -63q38 -43 59 -103.5t21 -136.5q0 -47 -6 -103h123l86 410h275l-86 -410h114q57 186 151 295q115 133 269 133q114 0 168 -59q43 -48 43 -129q0 -72 -29.5 -110.5t-74.5 -38.5q-37 0 -72 24q20 63 20 121q0 39 -12 61.5t-35 22.5
q-26 0 -53 -25.5t-52 -70.5q-51 -93 -82 -226q-34 -139 -34 -258q0 -108 40.5 -161.5t111.5 -53.5q115 0 235 111q-22 -114 -89 -179q-51 -50 -131 -70q-49 -13 -118 -13t-124.5 23t-94.5 66q-39 42 -59.5 102t-20.5 134q0 50 3.5 92.5t13.5 86.5h-117l-102 -492h-275
l105 492h-117q-19 -95 -55 -184t-88 -158q-57 -76 -130.5 -119t-162.5 -43q-137 0 -200 68zM938 208q37 32 71 91q33 58 57 136t36 167q-30 8 -42.5 30t-12.5 56q0 42 16.5 70t46.5 41q-4 65 -21 93q-9 14 -22.5 20t-34.5 6q-35 0 -69.5 -27.5t-65.5 -76.5q-60 -95 -99 -232
q-38 -135 -38 -240q0 -98 23 -133q12 -18 31 -25.5t50 -7.5q37 0 74 32z" />
    <glyph glyph-name="uni044E0437.liga" unicode="&#x44e;&#x437;" horiz-adv-x="2050" 
d="M1431.5 -497q-45.5 15 -79.5 44q-35 29 -53.5 71t-18.5 95q0 115 95 192q82 66 235 105q0 70 -24 119q-37 76 -120 76h-63l27 123h59q54 0 101 27t81 76q33 49 51.5 113t18.5 136q0 70 -24 118q-13 27 -37 42.5t-56 15.5q-40 0 -81 -21t-88 -60q-41 -34 -87 -80l-94 -87
h-2q-12 -139 -54 -253.5t-109 -196.5q-65 -80 -149 -123t-178 -43q-151 0 -234 74q-93 82 -93 249q0 78 18 177h-154l-102 -492h-295l217 1024h295l-86 -410h160q29 85 73.5 161t104.5 133q139 134 330 134q256 0 262 -317l104 117q110 125 222 173q63 27 143 27
q65 0 121 -21.5t96 -62.5q41 -43 63.5 -104t22.5 -137q0 -121 -64 -233q-51 -90 -134 -155q-35 -27 -66.5 -44t-52.5 -21q94 -42 137 -116q39 -68 39 -185q0 -104 -28 -192t-79 -151q-51 -64 -121 -98t-151 -34q-53 0 -98.5 15zM938 208q37 32 71 91q33 58 57 136t36 167
q-30 8 -42.5 30t-12.5 56q0 42 16.5 70t46.5 41q-4 65 -21 93q-9 14 -22.5 20t-34.5 6q-35 0 -69.5 -27.5t-65.5 -76.5q-60 -95 -99 -232q-38 -135 -38 -240q0 -98 23 -133q12 -18 31 -25.5t50 -7.5q37 0 74 32zM1572 -246q31 72 36 195q-112 -40 -166 -94q-49 -49 -49 -103
q0 -37 23.5 -59.5t56.5 -22.5q63 0 99 84z" />
    <glyph glyph-name="uni044E043B.liga" unicode="&#x44e;&#x43b;" horiz-adv-x="2419" 
d="M1373 35q-50 39 -68 112q-111 -67 -252 -110q-149 -45 -271 -45q-151 0 -234 74q-93 82 -93 249q0 78 18 177h-154l-102 -492h-295l217 1024h295l-86 -410h160q29 85 73.5 161t104.5 133q139 134 330 134q262 0 262 -327q0 -181 -46.5 -324.5t-129.5 -243.5
q119 40 192 86q5 70 38 110t89 40q48 0 77.5 -29.5t29.5 -77.5q0 -44 -20.5 -69.5t-50.5 -25.5q-7 0 -11 1q2 -28 17 -43q20 -22 63 -22q48 0 79 31t53 90q21 60 35 128q11 57 24 117l7 33q32 157 71.5 257t89.5 157q45 52 101.5 73t131.5 21h301l-146 -696q-8 -26 -8 -66
q0 -42 20 -59t64 -17q26 0 38.5 3t27.5 10q-7 -101 -76 -160q-30 -26 -68.5 -38.5t-81.5 -12.5q-93 0 -145 58q-59 64 -59 187q0 58 16 134l113 522q-54 0 -92.5 -22t-67.5 -69q-28 -45 -51 -117t-48 -185l-4 -20q-31 -145 -52.5 -223t-51.5 -133q-36 -67 -90 -99.5
t-137 -32.5q-90 0 -147 47zM952.5 221.5q44.5 45.5 81.5 125.5q36 81 57 186t21 219q0 90 -17 128t-63 38q-35 0 -69.5 -27.5t-65.5 -76.5q-60 -95 -99 -232q-38 -135 -38 -240q0 -98 23 -133q12 -18 31 -25.5t50 -7.5q44 0 88.5 45.5z" />
    <glyph glyph-name="uni044E043C.liga" unicode="&#x44e;&#x43c;" horiz-adv-x="2859" 
d="M1377 35q-51 39 -72 112q-111 -67 -252 -110q-149 -45 -271 -45q-151 0 -234 74q-93 82 -93 249q0 78 18 177h-154l-102 -492h-295l217 1024h295l-86 -410h160q29 85 73.5 161t104.5 133q139 134 330 134q262 0 262 -327q0 -181 -46.5 -324.5t-129.5 -243.5
q119 40 192 86q2 69 34.5 106.5t92.5 37.5q48 0 77.5 -29.5t29.5 -77.5q0 -44 -20.5 -69.5t-50.5 -25.5q-7 0 -11 1q-2 -30 14 -50q21 -28 66 -28q51 0 85.5 33.5t57.5 96.5q22 57 37 134l31 154l108 508h287l43 -786l381 786h303l-149 -696q-9 -30 -9 -66q0 -42 20 -59
t64 -17q26 0 38.5 3t27.5 10q-7 -101 -76 -160q-30 -25 -69 -38t-80 -13q-94 0 -146 58q-59 64 -59 187q0 20 5 50q5 37 20 111l20 96l28 133l-303 -623h-286l-37 625l-27 -129q-28 -143 -51 -230t-54 -146q-35 -66 -86.5 -99t-129.5 -33q-86 0 -143 47zM952.5 221.5
q44.5 45.5 81.5 125.5q36 81 57 186t21 219q0 90 -17 128t-63 38q-35 0 -69.5 -27.5t-65.5 -76.5q-60 -95 -99 -232q-38 -135 -38 -240q0 -98 23 -133q12 -18 31 -25.5t50 -7.5q44 0 88.5 45.5z" />
    <glyph glyph-name="uni044E0445.liga" unicode="&#x44e;&#x445;" horiz-adv-x="2195" 
d="M1339 -20.5q-34 38.5 -34 106.5q0 49 25.5 105.5t70.5 113.5q43 55 97 104.5t110 86.5l-58 317q-126 -150 -276 -197q-12 -141 -54 -257t-109 -199q-66 -81 -151 -124.5t-178 -43.5q-151 0 -234 74q-93 82 -93 249q0 78 18 177h-154l-102 -492h-295l217 1024h295
l-86 -410h160q29 85 73.5 161t104.5 133q139 134 330 134q259 0 262 -321q115 11 252 205l-19 98h289l74 -406q101 90 151 160.5t50 128.5v14q0 5 -2 11q-20 -4 -35 -4q-51 0 -75 34q-21 28 -21 80q0 46 32 71.5t82 25.5q33 0 59.5 -14t44.5 -39q35 -50 35 -130
q0 -102 -70 -208q-71 -106 -229 -246q16 -100 30 -159t31 -93q17 -35 40 -49.5t57 -14.5q26 0 38.5 3t27.5 10q-7 -102 -76 -161q-30 -25 -69.5 -37.5t-84.5 -12.5q-56 0 -96 21.5t-70 68.5q-29 46 -51.5 118.5t-44.5 184.5q-85 -59 -127 -108q-57 -65 -57 -121q6 2 12 2h14
q49 0 69 -32q15 -25 15 -69q0 -58 -30 -85t-84 -27q-67 0 -101 38.5zM938 208q37 32 71 90q33 58 57 135.5t36 166.5q-55 15 -55 92q0 85 63 109q-5 66 -22.5 91.5t-55.5 25.5q-35 0 -69.5 -27.5t-65.5 -76.5q-60 -95 -99 -232q-38 -135 -38 -240q0 -98 23 -133
q12 -18 31 -25.5t50 -7.5q37 0 74 32z" />
    <glyph glyph-name="uni044F0447.liga" unicode="&#x44f;&#x447;" horiz-adv-x="2015" 
d="M-20 58q-28 31 -43 73t-15 88q0 73 34 118.5t93 45.5q48 0 77.5 -29.5t29.5 -77.5q0 -44 -20.5 -69.5t-50.5 -25.5q-7 0 -11 1q2 -27 18 -43q20 -22 62 -22q35 0 61 21.5t46 63.5q18 39 34 94.5t33 135.5q-90 19 -140 76q-55 63 -55 162q0 158 117 249q136 105 422 105
h311l-149 -696q-9 -30 -9 -66q0 -42 20 -59t64 -17q74 0 129 106q39 76 71 216q12 56 21 105q8 49 15 77l69 334h295l-79 -381q-7 -27 -7 -57q0 -84 62 -84q58 0 103 51q42 48 61 129l71 342h295l-147 -696q-8 -26 -8 -66q0 -42 19.5 -59t64.5 -17q26 0 38 3t27 10
q-7 -101 -76 -160q-30 -25 -69 -38t-80 -13q-98 0 -155 58q-64 64 -64 187q0 58 16 134l10 51q-61 -66 -129 -93q-53 -22 -116 -22q-118 0 -177 82q-53 -180 -141 -281q-103 -116 -248 -116q-116 0 -175.5 57.5t-59.5 169.5q0 50 12 104l25 115q-56 -12 -117 -12
q-28 -118 -52.5 -194t-56.5 -127q-35 -57 -84.5 -85t-119.5 -28q-109 0 -172 70zM573 518h5q8 0 22 4l84 391h-49q-119 0 -182 -66q-31 -31 -46.5 -75t-15.5 -96q0 -86 43 -124q37 -34 105 -34h34z" />
    <glyph glyph-name="ru_lakkhangyaothai" unicode="&#xe24;&#xe45;" horiz-adv-x="1597" 
d="M1458.5 1118.5q96.5 -69.5 96.5 -217.5q0 -63 -16 -139l-236 -1110l-309 -66l264 1243q17 83 17 134q0 129 -117 129q-39 0 -73 -14t-56 -39q18 -43 18 -105q0 -51 -17 -131l-241 -1143l-309 -74l272 1295q10 50 10 80q0 131 -133 131q-58 0 -112 -9t-95 -24l-4 -19
q47 -73 47 -157q0 -32 -8 -72l-124 -586q-8 -37 -8 -60q0 -34 16 -50.5t51 -16.5q29 0 56.5 6t46.5 14l-24 -114q-83 -31 -203 -31q-109 0 -168.5 56t-59.5 161q0 51 10 95l118 559q6 26 6 65q0 63 -22 115l4 18q117 69 247.5 107.5t266.5 38.5q179 0 272 -52
q52 25 116.5 38.5t133.5 13.5q170 0 266.5 -69.5z" />
    <glyph glyph-name="lu_lakkhangyaothai" unicode="&#xe26;&#xe45;" horiz-adv-x="1618" 
d="M1479.5 1118.5q96.5 -69.5 96.5 -217.5q0 -63 -16 -139l-236 -1110l-309 -66l264 1243q17 83 17 134q0 129 -117 129q-40 0 -75 -14.5t-56 -40.5q17 -44 17 -103q0 -56 -16 -131l-244 -1144l-312 -73l277 1295q10 50 10 81q0 66 -34 98t-103 32q-108 0 -203 -33l-4 -19
q39 -38 59 -91.5t20 -111.5q0 -28 -7 -65l-105 -489q-23 -108 -56 -174.5t-89.5 -101t-148.5 -34.5q-129 0 -199 39l23 106q11 -9 33 -14.5t38 -5.5q30 0 46.5 12.5t26.5 38t20 76.5l122 580q7 32 7 65q0 46 -14.5 85.5t-41.5 68.5l4 18q118 69 248 107.5t266 38.5
q181 0 273 -53q52 26 117 39.5t135 13.5q170 0 266.5 -69.5z" />
    <glyph glyph-name=".notdef" horiz-adv-x="1659" 
d="M547 2048h1112l-549 -2560h-1110zM1044 -430l517 2396h-949l-516 -2396h948zM778 786q24 35 59 73q75 79 106 144q18 41 18 91q0 57 -23.5 87.5t-65.5 30.5q-43 0 -71.5 -30t-28.5 -78q0 -32 17 -60.5t45 -42.5v-8q-41 -41 -99 -41q-43 0 -68.5 30.5t-25.5 80.5
q0 45 20.5 85.5t57.5 70.5t86.5 46.5t105.5 16.5q108 0 168 -48.5t60 -133.5q0 -53 -23 -96.5t-65 -83.5q-29 -29 -82 -71q-103 -79 -145 -156q-25 -46 -25 -107h-86q0 109 65 200zM667 329q-22 22 -22 60q0 37 22 59.5t60 22.5q37 0 59.5 -22.5t22.5 -59.5q0 -38 -22.5 -60
t-59.5 -22q-38 0 -60 22z" />
    <glyph glyph-name="NULL" 
 />
    <glyph glyph-name="NULL" 
 />
    <glyph glyph-name="nonmarkingreturn" unicode="&#xd;" horiz-adv-x="444" 
 />
    <glyph glyph-name="space" unicode=" " horiz-adv-x="444" 
 />
    <glyph glyph-name="A" unicode="A" horiz-adv-x="1368" 
d="M348 -228q-42 5 -79 24q-97 47 -97 188q0 68 21.5 163t61.5 205q88 242 218 465q-102 -6 -161.5 -30.5t-78.5 -75.5q9 0 18 -21t9 -43q0 -36 -33 -58t-82 -22q-55 0 -90 30q-37 31 -37 89q0 51 31 97.5t88 80.5q58 35 134.5 54.5t164.5 19.5q43 0 107 -6q172 271 344 425
q200 179 368 179q100 0 162 -29l-321 -1507h-295l157 743q-74 34 -138.5 51t-135.5 23q-116 -251 -190 -513q-76 -263 -76 -423q0 -79 28 -114q-56 0 -98 5zM1096 1391q-89 -48 -187 -181q-96 -132 -182 -305q140 -27 250 -71z" />
    <glyph glyph-name="Aacute" unicode="&#xc1;" horiz-adv-x="1368" 
d="M1362 2048h215l-248 -387h-154zM348 -228q-42 5 -79 24q-97 47 -97 188q0 68 21.5 163t61.5 205q88 242 218 465q-102 -6 -161.5 -30.5t-78.5 -75.5q9 0 18 -21t9 -43q0 -36 -33 -58t-82 -22q-55 0 -90 30q-37 31 -37 89q0 51 31 97.5t88 80.5q58 35 134.5 54.5
t164.5 19.5q43 0 107 -6q172 271 344 425q200 179 368 179q100 0 162 -29l-321 -1507h-295l157 743q-74 34 -138.5 51t-135.5 23q-116 -251 -190 -513q-76 -263 -76 -423q0 -79 28 -114q-56 0 -98 5zM1096 1391q-89 -48 -187 -181q-96 -132 -182 -305q140 -27 250 -71z" />
    <glyph glyph-name="Abreve" unicode="&#x102;" horiz-adv-x="1368" 
d="M1024.5 1741.5q-79.5 71.5 -79.5 211.5h183q0 -82 42 -126t119 -44q41 0 80 13t70 37q30 24 49.5 54.5t24.5 65.5h176q-9 -59 -46 -110.5t-96 -90.5q-58 -39 -132.5 -60.5t-157.5 -21.5q-153 0 -232.5 71.5zM348 -228q-42 5 -79 24q-97 47 -97 188q0 68 21.5 163
t61.5 205q88 242 218 465q-102 -6 -161.5 -30.5t-78.5 -75.5q9 0 18 -21t9 -43q0 -36 -33 -58t-82 -22q-55 0 -90 30q-37 31 -37 89q0 51 31 97.5t88 80.5q58 35 134.5 54.5t164.5 19.5q43 0 107 -6q172 271 344 425q200 179 368 179q100 0 162 -29l-321 -1507h-295l157 743
q-74 34 -138.5 51t-135.5 23q-116 -251 -190 -513q-76 -263 -76 -423q0 -79 28 -114q-56 0 -98 5zM1096 1391q-89 -48 -187 -181q-96 -132 -182 -305q140 -27 250 -71z" />
    <glyph glyph-name="uni1EAE" unicode="&#x1eae;" horiz-adv-x="1368" 
d="M1380 2048h161l-178 -274h-110zM1079.5 1663q-66.5 60 -66.5 177h153q0 -69 35.5 -105.5t99.5 -36.5q71 0 126 42q56 43 63 100h147q-7 -49 -38 -92.5t-81 -76.5q-49 -33 -112 -50.5t-131 -17.5q-129 0 -195.5 60zM348 -228q-42 5 -79 24q-97 47 -97 188q0 68 21.5 163
t61.5 205q88 242 218 465q-102 -6 -161.5 -30.5t-78.5 -75.5q9 0 18 -21t9 -43q0 -36 -33 -58t-82 -22q-55 0 -90 30q-37 31 -37 89q0 51 31 97.5t88 80.5q58 35 134.5 54.5t164.5 19.5q43 0 107 -6q172 271 344 425q200 179 368 179q100 0 162 -29l-321 -1507h-295l157 743
q-74 34 -138.5 51t-135.5 23q-116 -251 -190 -513q-76 -263 -76 -423q0 -79 28 -114q-56 0 -98 5zM1096 1391q-89 -48 -187 -181q-96 -132 -182 -305q140 -27 250 -71z" />
    <glyph glyph-name="uni1EB6" unicode="&#x1eb6;" horiz-adv-x="1368" 
d="M1024.5 1741.5q-79.5 71.5 -79.5 211.5h183q0 -82 42 -126t119 -44q41 0 80 13t70 37q30 24 49.5 54.5t24.5 65.5h176q-9 -59 -46 -110.5t-96 -90.5q-58 -39 -132.5 -60.5t-157.5 -21.5q-153 0 -232.5 71.5zM348 -228q-42 5 -79 24q-97 47 -97 188q0 68 21.5 163
t61.5 205q88 242 218 465q-102 -6 -161.5 -30.5t-78.5 -75.5q9 0 18 -21t9 -43q0 -36 -33 -58t-82 -22q-55 0 -90 30q-37 31 -37 89q0 51 31 97.5t88 80.5q58 35 134.5 54.5t164.5 19.5q43 0 107 -6q172 271 344 425q200 179 368 179q100 0 162 -29l-321 -1507h-295l157 743
q-74 34 -138.5 51t-135.5 23q-116 -251 -190 -513q-76 -263 -76 -423q0 -79 28 -114q-56 0 -98 5zM1096 1391q-89 -48 -187 -181q-96 -132 -182 -305q140 -27 250 -71zM700 -460.5q-30 12.5 -52 34.5t-34.5 52t-12.5 63t12.5 63t34.5 53t52 35.5t63 12.5t63 -12.5t53 -35.5
t35.5 -53t12.5 -63t-12.5 -63t-35.5 -52t-53 -34.5t-63 -12.5t-63 12.5z" />
    <glyph glyph-name="uni1EB0" unicode="&#x1eb0;" horiz-adv-x="1368" 
d="M1182 2047h165l39 -275h-112zM1079.5 1663q-66.5 60 -66.5 177h153q0 -69 35.5 -105.5t99.5 -36.5q71 0 126 42q56 43 63 100h147q-7 -49 -38 -92.5t-81 -76.5q-49 -33 -112 -50.5t-131 -17.5q-129 0 -195.5 60zM348 -228q-42 5 -79 24q-97 47 -97 188q0 68 21.5 163
t61.5 205q88 242 218 465q-102 -6 -161.5 -30.5t-78.5 -75.5q9 0 18 -21t9 -43q0 -36 -33 -58t-82 -22q-55 0 -90 30q-37 31 -37 89q0 51 31 97.5t88 80.5q58 35 134.5 54.5t164.5 19.5q43 0 107 -6q172 271 344 425q200 179 368 179q100 0 162 -29l-321 -1507h-295l157 743
q-74 34 -138.5 51t-135.5 23q-116 -251 -190 -513q-76 -263 -76 -423q0 -79 28 -114q-56 0 -98 5zM1096 1391q-89 -48 -187 -181q-96 -132 -182 -305q140 -27 250 -71z" />
    <glyph glyph-name="uni1EB2" unicode="&#x1eb2;" horiz-adv-x="1368" 
d="M1249 1753v126q30 -9 64 -9q68 0 68 55q0 51 -68 51q-48 0 -86 -23l-37 59q24 16 62 26t76 10q67 0 109 -32t42 -83t-42.5 -85.5t-112.5 -39.5l-6 -59zM1079.5 1663q-66.5 60 -66.5 177h123q0 -33 13.5 -59.5t37.5 -45.5q48 -37 114 -37q36 0 73 11t68 31q71 45 78 100
h117q-7 -49 -38 -92.5t-81 -76.5q-49 -33 -112 -50.5t-131 -17.5q-129 0 -195.5 60zM348 -228q-42 5 -79 24q-97 47 -97 188q0 68 21.5 163t61.5 205q88 242 218 465q-102 -6 -161.5 -30.5t-78.5 -75.5q9 0 18 -21t9 -43q0 -36 -33 -58t-82 -22q-55 0 -90 30q-37 31 -37 89
q0 51 31 97.5t88 80.5q58 35 134.5 54.5t164.5 19.5q43 0 107 -6q172 271 344 425q200 179 368 179q100 0 162 -29l-321 -1507h-295l157 743q-74 34 -138.5 51t-135.5 23q-116 -251 -190 -513q-76 -263 -76 -423q0 -79 28 -114q-56 0 -98 5zM1096 1391q-89 -48 -187 -181
q-96 -132 -182 -305q140 -27 250 -71z" />
    <glyph glyph-name="uni1EB4" unicode="&#x1eb4;" horiz-adv-x="1368" 
d="M1343 1891.5q-27 6.5 -68 20.5q-7 2 -31 10.5t-45 12.5t-40 4q-54 0 -94 -37l-9 3q34 69 96 105.5t145 36.5q35 0 63.5 -6t63.5 -18q38 -13 61 -18.5t51 -5.5q60 0 90 33l9 -2q-5 -25 -26.5 -51t-53.5 -47q-74 -47 -153 -47q-32 0 -59 6.5zM1079.5 1663
q-66.5 60 -66.5 177h153q0 -69 35.5 -105.5t99.5 -36.5q71 0 126 42q56 43 63 100h147q-7 -49 -38 -92.5t-81 -76.5q-49 -33 -112 -50.5t-131 -17.5q-129 0 -195.5 60zM348 -228q-42 5 -79 24q-97 47 -97 188q0 68 21.5 163t61.5 205q88 242 218 465q-102 -6 -161.5 -30.5
t-78.5 -75.5q9 0 18 -21t9 -43q0 -36 -33 -58t-82 -22q-55 0 -90 30q-37 31 -37 89q0 51 31 97.5t88 80.5q58 35 134.5 54.5t164.5 19.5q43 0 107 -6q172 271 344 425q200 179 368 179q100 0 162 -29l-321 -1507h-295l157 743q-74 34 -138.5 51t-135.5 23
q-116 -251 -190 -513q-76 -263 -76 -423q0 -79 28 -114q-56 0 -98 5zM1096 1391q-89 -48 -187 -181q-96 -132 -182 -305q140 -27 250 -71z" />
    <glyph glyph-name="uni01CD" unicode="&#x1cd;" horiz-adv-x="1368" 
d="M1153 2048h65l123 -164l322 164h90l-434 -387h-43zM348 -228q-42 5 -79 24q-97 47 -97 188q0 68 21.5 163t61.5 205q88 242 218 465q-102 -6 -161.5 -30.5t-78.5 -75.5q9 0 18 -21t9 -43q0 -36 -33 -58t-82 -22q-55 0 -90 30q-37 31 -37 89q0 51 31 97.5t88 80.5
q58 35 134.5 54.5t164.5 19.5q43 0 107 -6q172 271 344 425q200 179 368 179q100 0 162 -29l-321 -1507h-295l157 743q-74 34 -138.5 51t-135.5 23q-116 -251 -190 -513q-76 -263 -76 -423q0 -79 28 -114q-56 0 -98 5zM1096 1391q-89 -48 -187 -181q-96 -132 -182 -305
q140 -27 250 -71z" />
    <glyph glyph-name="Acircumflex" unicode="&#xc2;" horiz-adv-x="1368" 
d="M1398 2048h43l123 -387h-66l-123 164l-321 -164h-90zM348 -228q-42 5 -79 24q-97 47 -97 188q0 68 21.5 163t61.5 205q88 242 218 465q-102 -6 -161.5 -30.5t-78.5 -75.5q9 0 18 -21t9 -43q0 -36 -33 -58t-82 -22q-55 0 -90 30q-37 31 -37 89q0 51 31 97.5t88 80.5
q58 35 134.5 54.5t164.5 19.5q43 0 107 -6q172 271 344 425q200 179 368 179q100 0 162 -29l-321 -1507h-295l157 743q-74 34 -138.5 51t-135.5 23q-116 -251 -190 -513q-76 -263 -76 -423q0 -79 28 -114q-56 0 -98 5zM1096 1391q-89 -48 -187 -181q-96 -132 -182 -305
q140 -27 250 -71z" />
    <glyph glyph-name="uni1EA4" unicode="&#x1ea4;" horiz-adv-x="1368" 
d="M1620 2048h141l-178 -274h-90zM1367 1946h36l103 -285h-92l-66 147l-226 -147h-120zM348 -228q-42 5 -79 24q-97 47 -97 188q0 68 21.5 163t61.5 205q88 242 218 465q-102 -6 -161.5 -30.5t-78.5 -75.5q9 0 18 -21t9 -43q0 -36 -33 -58t-82 -22q-55 0 -90 30
q-37 31 -37 89q0 51 31 97.5t88 80.5q58 35 134.5 54.5t164.5 19.5q43 0 107 -6q172 271 344 425q200 179 368 179q100 0 162 -29l-321 -1507h-295l157 743q-74 34 -138.5 51t-135.5 23q-116 -251 -190 -513q-76 -263 -76 -423q0 -79 28 -114q-56 0 -98 5zM1096 1391
q-89 -48 -187 -181q-96 -132 -182 -305q140 -27 250 -71z" />
    <glyph glyph-name="uni1EAC" unicode="&#x1eac;" horiz-adv-x="1368" 
d="M1398 2048h43l123 -387h-66l-123 164l-321 -164h-90zM348 -228q-42 5 -79 24q-97 47 -97 188q0 68 21.5 163t61.5 205q88 242 218 465q-102 -6 -161.5 -30.5t-78.5 -75.5q9 0 18 -21t9 -43q0 -36 -33 -58t-82 -22q-55 0 -90 30q-37 31 -37 89q0 51 31 97.5t88 80.5
q58 35 134.5 54.5t164.5 19.5q43 0 107 -6q172 271 344 425q200 179 368 179q100 0 162 -29l-321 -1507h-295l157 743q-74 34 -138.5 51t-135.5 23q-116 -251 -190 -513q-76 -263 -76 -423q0 -79 28 -114q-56 0 -98 5zM1096 1391q-89 -48 -187 -181q-96 -132 -182 -305
q140 -27 250 -71zM700 -460.5q-30 12.5 -52 34.5t-34.5 52t-12.5 63t12.5 63t34.5 53t52 35.5t63 12.5t63 -12.5t53 -35.5t35.5 -53t12.5 -63t-12.5 -63t-35.5 -52t-53 -34.5t-63 -12.5t-63 12.5z" />
    <glyph glyph-name="uni1EA6" unicode="&#x1ea6;" horiz-adv-x="1368" 
d="M1491 2047h136l39 -275h-83zM1367 1946h36l103 -285h-92l-66 147l-226 -147h-120zM348 -228q-42 5 -79 24q-97 47 -97 188q0 68 21.5 163t61.5 205q88 242 218 465q-102 -6 -161.5 -30.5t-78.5 -75.5q9 0 18 -21t9 -43q0 -36 -33 -58t-82 -22q-55 0 -90 30q-37 31 -37 89
q0 51 31 97.5t88 80.5q58 35 134.5 54.5t164.5 19.5q43 0 107 -6q172 271 344 425q200 179 368 179q100 0 162 -29l-321 -1507h-295l157 743q-74 34 -138.5 51t-135.5 23q-116 -251 -190 -513q-76 -263 -76 -423q0 -79 28 -114q-56 0 -98 5zM1096 1391q-89 -48 -187 -181
q-96 -132 -182 -305q140 -27 250 -71z" />
    <glyph glyph-name="uni1EA8" unicode="&#x1ea8;" horiz-adv-x="1368" 
d="M1529 1753v126q30 -9 64 -9q68 0 68 55q0 51 -68 51q-48 0 -86 -23l-37 59q24 16 62 26t76 10q67 0 109 -32t42 -83t-42.5 -85.5t-112.5 -39.5l-6 -59zM1367 1946h36l103 -285h-92l-66 147l-226 -147h-120zM348 -228q-42 5 -79 24q-97 47 -97 188q0 68 21.5 163t61.5 205
q88 242 218 465q-102 -6 -161.5 -30.5t-78.5 -75.5q9 0 18 -21t9 -43q0 -36 -33 -58t-82 -22q-55 0 -90 30q-37 31 -37 89q0 51 31 97.5t88 80.5q58 35 134.5 54.5t164.5 19.5q43 0 107 -6q172 271 344 425q200 179 368 179q100 0 162 -29l-321 -1507h-295l157 743
q-74 34 -138.5 51t-135.5 23q-116 -251 -190 -513q-76 -263 -76 -423q0 -79 28 -114q-56 0 -98 5zM1096 1391q-89 -48 -187 -181q-96 -132 -182 -305q140 -27 250 -71z" />
    <glyph glyph-name="uni1EAA" unicode="&#x1eaa;" horiz-adv-x="1368" 
d="M1321 1910q-41 15 -67 22t-55 7q-54 0 -94 -37l-9 3q34 69 96 105.5t145 36.5q35 0 63.5 -6t63.5 -18q38 -13 61 -18.5t51 -5.5q60 0 90 33l9 -2q-5 -25 -27 -51t-55 -47q-35 -22 -78.5 -34.5t-89.5 -12.5l81 -224h-92l-66 147l-226 -147h-120zM348 -228q-42 5 -79 24
q-97 47 -97 188q0 68 21.5 163t61.5 205q88 242 218 465q-102 -6 -161.5 -30.5t-78.5 -75.5q9 0 18 -21t9 -43q0 -36 -33 -58t-82 -22q-55 0 -90 30q-37 31 -37 89q0 51 31 97.5t88 80.5q58 35 134.5 54.5t164.5 19.5q43 0 107 -6q172 271 344 425q200 179 368 179
q100 0 162 -29l-321 -1507h-295l157 743q-74 34 -138.5 51t-135.5 23q-116 -251 -190 -513q-76 -263 -76 -423q0 -79 28 -114q-56 0 -98 5zM1096 1391q-89 -48 -187 -181q-96 -132 -182 -305q140 -27 250 -71z" />
    <glyph glyph-name="uni0200" unicode="&#x200;" horiz-adv-x="1368" 
d="M718 2048h215l187 -387h-113zM1050 2048h215l186 -387h-112zM348 -228q-42 5 -79 24q-97 47 -97 188q0 68 21.5 163t61.5 205q88 242 218 465q-102 -6 -161.5 -30.5t-78.5 -75.5q9 0 18 -21t9 -43q0 -36 -33 -58t-82 -22q-55 0 -90 30q-37 31 -37 89q0 51 31 97.5
t88 80.5q58 35 134.5 54.5t164.5 19.5q43 0 107 -6q172 271 344 425q200 179 368 179q100 0 162 -29l-321 -1507h-295l157 743q-74 34 -138.5 51t-135.5 23q-116 -251 -190 -513q-76 -263 -76 -423q0 -79 28 -114q-56 0 -98 5zM1096 1391q-89 -48 -187 -181
q-96 -132 -182 -305q140 -27 250 -71z" />
    <glyph glyph-name="Adieresis" unicode="&#xc4;" horiz-adv-x="1368" 
d="M967 1722q-36 36 -36 88q0 24 9.5 47t26.5 41q35 37 89 37q24 0 46.5 -9.5t40.5 -27.5q17 -17 27 -40t10 -48q0 -53 -37 -88q-18 -17 -40.5 -26.5t-46.5 -9.5q-53 0 -89 36zM1335 1722q-36 34 -36 88q0 25 9.5 48t26.5 40q37 37 89 37q25 0 48 -10t40 -27t27 -40t10 -48
q0 -53 -37 -88q-18 -17 -41 -26.5t-47 -9.5q-51 0 -89 36zM348 -228q-42 5 -79 24q-97 47 -97 188q0 68 21.5 163t61.5 205q88 242 218 465q-102 -6 -161.5 -30.5t-78.5 -75.5q9 0 18 -21t9 -43q0 -36 -33 -58t-82 -22q-55 0 -90 30q-37 31 -37 89q0 51 31 97.5t88 80.5
q58 35 134.5 54.5t164.5 19.5q43 0 107 -6q172 271 344 425q200 179 368 179q100 0 162 -29l-321 -1507h-295l157 743q-74 34 -138.5 51t-135.5 23q-116 -251 -190 -513q-76 -263 -76 -423q0 -79 28 -114q-56 0 -98 5zM1096 1391q-89 -48 -187 -181q-96 -132 -182 -305
q140 -27 250 -71z" />
    <glyph glyph-name="uni1EA0" unicode="&#x1ea0;" horiz-adv-x="1368" 
d="M348 -228q-42 5 -79 24q-97 47 -97 188q0 68 21.5 163t61.5 205q88 242 218 465q-102 -6 -161.5 -30.5t-78.5 -75.5q9 0 18 -21t9 -43q0 -36 -33 -58t-82 -22q-55 0 -90 30q-37 31 -37 89q0 51 31 97.5t88 80.5q58 35 134.5 54.5t164.5 19.5q43 0 107 -6q172 271 344 425
q200 179 368 179q100 0 162 -29l-321 -1507h-295l157 743q-74 34 -138.5 51t-135.5 23q-116 -251 -190 -513q-76 -263 -76 -423q0 -79 28 -114q-56 0 -98 5zM1096 1391q-89 -48 -187 -181q-96 -132 -182 -305q140 -27 250 -71zM700 -460.5q-30 12.5 -52 34.5t-34.5 52
t-12.5 63t12.5 63t34.5 53t52 35.5t63 12.5t63 -12.5t53 -35.5t35.5 -53t12.5 -63t-12.5 -63t-35.5 -52t-53 -34.5t-63 -12.5t-63 12.5z" />
    <glyph glyph-name="Agrave" unicode="&#xc0;" horiz-adv-x="1368" 
d="M995 2048h215l59 -387h-153zM348 -228q-42 5 -79 24q-97 47 -97 188q0 68 21.5 163t61.5 205q88 242 218 465q-102 -6 -161.5 -30.5t-78.5 -75.5q9 0 18 -21t9 -43q0 -36 -33 -58t-82 -22q-55 0 -90 30q-37 31 -37 89q0 51 31 97.5t88 80.5q58 35 134.5 54.5t164.5 19.5
q43 0 107 -6q172 271 344 425q200 179 368 179q100 0 162 -29l-321 -1507h-295l157 743q-74 34 -138.5 51t-135.5 23q-116 -251 -190 -513q-76 -263 -76 -423q0 -79 28 -114q-56 0 -98 5zM1096 1391q-89 -48 -187 -181q-96 -132 -182 -305q140 -27 250 -71z" />
    <glyph glyph-name="uni1EA2" unicode="&#x1ea2;" horiz-adv-x="1368" 
d="M1193 1627v179q40 -9 91 -9q47 0 71.5 19.5t24.5 53.5q0 74 -96 74q-72 0 -122 -33l-54 86q36 22 90.5 36t109.5 14q45 0 84.5 -12t68.5 -33q29 -22 44 -52.5t15 -66.5t-15.5 -66.5t-44.5 -54.5q-61 -50 -156 -57l-15 -83zM348 -228q-42 5 -79 24q-97 47 -97 188
q0 68 21.5 163t61.5 205q88 242 218 465q-102 -6 -161.5 -30.5t-78.5 -75.5q9 0 18 -21t9 -43q0 -36 -33 -58t-82 -22q-55 0 -90 30q-37 31 -37 89q0 51 31 97.5t88 80.5q58 35 134.5 54.5t164.5 19.5q43 0 107 -6q172 271 344 425q200 179 368 179q100 0 162 -29
l-321 -1507h-295l157 743q-74 34 -138.5 51t-135.5 23q-116 -251 -190 -513q-76 -263 -76 -423q0 -79 28 -114q-56 0 -98 5zM1096 1391q-89 -48 -187 -181q-96 -132 -182 -305q140 -27 250 -71z" />
    <glyph glyph-name="uni0202" unicode="&#x202;" horiz-adv-x="1368" 
d="M959 1793.5q37 51.5 96 91.5q58 39 133 60t157 21q153 0 232.5 -72t79.5 -211h-183q0 82 -42 126t-119 44q-41 0 -79.5 -13t-69.5 -37q-31 -23 -50.5 -54t-24.5 -66h-176q9 59 46 110.5zM348 -228q-42 5 -79 24q-97 47 -97 188q0 68 21.5 163t61.5 205q88 242 218 465
q-102 -6 -161.5 -30.5t-78.5 -75.5q9 0 18 -21t9 -43q0 -36 -33 -58t-82 -22q-55 0 -90 30q-37 31 -37 89q0 51 31 97.5t88 80.5q58 35 134.5 54.5t164.5 19.5q43 0 107 -6q172 271 344 425q200 179 368 179q100 0 162 -29l-321 -1507h-295l157 743q-74 34 -138.5 51
t-135.5 23q-116 -251 -190 -513q-76 -263 -76 -423q0 -79 28 -114q-56 0 -98 5zM1096 1391q-89 -48 -187 -181q-96 -132 -182 -305q140 -27 250 -71z" />
    <glyph glyph-name="Amacron" unicode="&#x100;" horiz-adv-x="1368" 
d="M946 1890h655l-30 -152h-658zM348 -228q-42 5 -79 24q-97 47 -97 188q0 68 21.5 163t61.5 205q88 242 218 465q-102 -6 -161.5 -30.5t-78.5 -75.5q9 0 18 -21t9 -43q0 -36 -33 -58t-82 -22q-55 0 -90 30q-37 31 -37 89q0 51 31 97.5t88 80.5q58 35 134.5 54.5t164.5 19.5
q43 0 107 -6q172 271 344 425q200 179 368 179q100 0 162 -29l-321 -1507h-295l157 743q-74 34 -138.5 51t-135.5 23q-116 -251 -190 -513q-76 -263 -76 -423q0 -79 28 -114q-56 0 -98 5zM1096 1391q-89 -48 -187 -181q-96 -132 -182 -305q140 -27 250 -71z" />
    <glyph glyph-name="Aogonek" unicode="&#x104;" horiz-adv-x="1368" 
d="M830 -381q-31 14 -52 39q-19 23 -29 50.5t-10 55.5q0 55 37.5 116.5t108.5 119.5h-84l157 743q-74 34 -138.5 51t-135.5 23q-116 -251 -190 -513q-76 -263 -76 -423q0 -79 28 -114q-56 0 -98 5t-79 24q-97 47 -97 188q0 68 21.5 163t61.5 205q88 242 218 465
q-102 -6 -161.5 -30.5t-78.5 -75.5q9 0 18 -21t9 -43q0 -36 -33 -58t-82 -22q-55 0 -90 30q-37 31 -37 89q0 51 31 97.5t88 80.5q58 35 134.5 54.5t164.5 19.5q43 0 107 -6q172 271 344 425q200 179 368 179q100 0 162 -29l-321 -1507h-76q-45 -26 -76 -70q-35 -50 -35 -102
q0 -40 19 -68q9 -16 25 -25t36 -9q30 0 73 25q30 19 34 22l32 22q-4 -32 -4 -63l-43 -41.5t-47 -39.5q-65 -46 -133 -46q-40 0 -71 14zM1096 1391q-89 -48 -187 -181q-96 -132 -182 -305q140 -27 250 -71z" />
    <glyph glyph-name="Aring" unicode="&#xc5;" horiz-adv-x="1368" 
d="M1122 1684q-39 41 -39 102q0 29 10.5 61.5t30.5 59.5q23 30 56.5 47.5t76.5 17.5q73 0 112 -45q36 -44 36 -112q0 -75 -40 -121q-47 -52 -138 -52q-65 0 -105 42zM1305.5 1739q23.5 25 23.5 69q0 43 -9 64q-16 33 -59 33q-48 0 -74 -38q-22 -30 -22 -77q0 -76 70 -76
q47 0 70.5 25zM348 -228q-42 5 -79 24q-97 47 -97 188q0 68 21.5 163t61.5 205q88 242 218 465q-102 -6 -161.5 -30.5t-78.5 -75.5q9 0 18 -21t9 -43q0 -36 -33 -58t-82 -22q-55 0 -90 30q-37 31 -37 89q0 51 31 97.5t88 80.5q58 35 134.5 54.5t164.5 19.5q43 0 107 -6
q172 271 344 425q200 179 368 179q100 0 162 -29l-321 -1507h-295l157 743q-74 34 -138.5 51t-135.5 23q-116 -251 -190 -513q-76 -263 -76 -423q0 -79 28 -114q-56 0 -98 5zM1096 1391q-89 -48 -187 -181q-96 -132 -182 -305q140 -27 250 -71z" />
    <glyph glyph-name="Aringacute" unicode="&#x1fa;" horiz-adv-x="1368" 
d="M348 -228q-42 5 -79 24q-97 47 -97 188q0 68 21.5 163t61.5 205q88 242 218 465q-102 -6 -161.5 -30.5t-78.5 -75.5q9 0 18 -21t9 -43q0 -36 -33 -58t-82 -22q-55 0 -90 30q-37 31 -37 89q0 51 31 97.5t88 80.5q58 35 134.5 54.5t164.5 19.5q43 0 107 -6q148 237 311 394
q180 173 336 203q-60 38 -60 120q0 39 13.5 73t37.5 59q25 25 56.5 39.5t66.5 14.5l100 213h215l-210 -254q42 -42 42 -117q0 -53 -22.5 -92.5t-62.5 -60.5q24 -4 51 -17l-321 -1507h-295l157 743q-74 34 -138.5 51t-135.5 23q-116 -251 -190 -513q-76 -263 -76 -423
q0 -79 28 -114q-56 0 -98 5zM1351 1679q0 58 -49 58q-28 0 -47 -22t-19 -58q0 -23 14 -37t38 -14q63 0 63 73zM1096 1391q-89 -48 -187 -181q-96 -132 -182 -305q140 -27 250 -71z" />
    <glyph glyph-name="Atilde" unicode="&#xc3;" horiz-adv-x="1368" 
d="M1243.5 1686.5q-40.5 9.5 -94.5 28.5q-57 20 -91.5 29t-72.5 9q-76 0 -135 -53l-12 4q49 99 136.5 150t205.5 51q49 0 89 -8.5t91 -25.5q54 -18 86 -26t72 -8q39 0 72.5 12t56.5 35l12 -2q-8 -36 -38.5 -72.5t-75.5 -65.5q-47 -31 -103.5 -49t-112.5 -18q-45 0 -85.5 9.5
zM348 -228q-42 5 -79 24q-97 47 -97 188q0 68 21.5 163t61.5 205q88 242 218 465q-102 -6 -161.5 -30.5t-78.5 -75.5q9 0 18 -21t9 -43q0 -36 -33 -58t-82 -22q-55 0 -90 30q-37 31 -37 89q0 51 31 97.5t88 80.5q58 35 134.5 54.5t164.5 19.5q43 0 107 -6q172 271 344 425
q200 179 368 179q100 0 162 -29l-321 -1507h-295l157 743q-74 34 -138.5 51t-135.5 23q-116 -251 -190 -513q-76 -263 -76 -423q0 -79 28 -114q-56 0 -98 5zM1096 1391q-89 -48 -187 -181q-96 -132 -182 -305q140 -27 250 -71z" />
    <glyph glyph-name="AE" unicode="&#xc6;" horiz-adv-x="1565" 
d="M333 -221.5q-43 6.5 -77 25.5q-84 48 -84 194q0 65 21.5 157t61.5 201q87 237 218 461q-99 -6 -158.5 -30t-81.5 -76q9 0 18 -21t9 -43q0 -35 -31.5 -57.5t-93.5 -22.5q-49 0 -80 30q-37 35 -37 99q0 46 32 88.5t89 76.5q56 33 129 52t150 19q54 0 121 -6
q169 271 344 430q200 182 370 182q37 0 73.5 -5t99.5 -15t105.5 -15.5t90.5 -5.5q126 0 240 39l-23 -73q-27 -88 -96 -129q-38 -23 -101 -23q-68 0 -136 22q-28 8 -58 21l-59 22l-111 -518h317l-41 -151h-309l-104 -490h458l-43 -217h-755l157 743q-75 34 -140.5 51
t-135.5 23q-116 -255 -189 -511q-75 -263 -75 -423q0 -37 5 -59q4 -20 9 -31q3 -7 10 -14q4 -4 4 -10q-70 3 -113 9.5zM1096 1391q-92 -51 -190 -182q-94 -125 -183 -306q143 -26 254 -69z" />
    <glyph glyph-name="AEacute" unicode="&#x1fc;" horiz-adv-x="1565" 
d="M1486 2048h215l-289 -387h-112zM333 -221.5q-43 6.5 -77 25.5q-84 48 -84 194q0 65 21.5 157t61.5 201q87 237 218 461q-99 -6 -158.5 -30t-81.5 -76q9 0 18 -21t9 -43q0 -35 -31.5 -57.5t-93.5 -22.5q-49 0 -80 30q-37 35 -37 99q0 46 32 88.5t89 76.5q56 33 129 52
t150 19q54 0 121 -6q169 271 344 430q200 182 370 182q37 0 73.5 -5t99.5 -15t105.5 -15.5t90.5 -5.5q126 0 240 39l-23 -73q-27 -88 -96 -129q-38 -23 -101 -23q-68 0 -136 22q-28 8 -58 21l-59 22l-111 -518h317l-41 -151h-309l-104 -490h458l-43 -217h-755l157 743
q-75 34 -140.5 51t-135.5 23q-116 -255 -189 -511q-75 -263 -75 -423q0 -37 5 -59q4 -20 9 -31q3 -7 10 -14q4 -4 4 -10q-70 3 -113 9.5zM1096 1391q-92 -51 -190 -182q-94 -125 -183 -306q143 -26 254 -69z" />
    <glyph glyph-name="B" unicode="B" horiz-adv-x="1313" 
d="M659 -6q-69 40 -69 123q0 55 26 119q38 -41 70 -57.5t68 -16.5q102 0 157 126q23 51 34 115.5t11 126.5q0 118 -41 184q-49 77 -153 77q-55 0 -94 -7l-168 -784h-295l278 1303l303 40l-96 -454h12q59 0 113 29t95 79q40 49 63.5 108t23.5 116q0 44 -15.5 83.5t-46.5 69.5
q-71 68 -208 68q-126 0 -239 -54q-126 -61 -193 -165q-80 -121 -80 -279q0 -66 15 -102q4 -13 10 -23q4 -7 4 -14q-109 0 -164 43.5t-55 144.5q0 140 107 267q50 60 119.5 110.5t152.5 87.5q175 78 364 78q211 0 331 -100q52 -44 78.5 -102.5t26.5 -123.5q0 -97 -52 -180
q-58 -92 -153 -145q123 -22 187 -119q55 -85 55 -211q0 -52 -10 -115t-30 -125q-49 -154 -139 -241q-112 -109 -269 -109q-85 0 -134 29z" />
    <glyph glyph-name="C" unicode="C" horiz-adv-x="1018" 
d="M288 -5.5q-83 27.5 -138 86.5q-56 60 -83.5 156.5t-27.5 233.5q0 155 36 323q42 195 120 349q91 179 221 279q148 114 338 114q153 0 243 -64q99 -70 99 -210q0 -88 -32 -135q-38 -54 -112 -54q-31 0 -60.5 11t-55.5 42q18 9 35 28.5t30 45.5q29 58 29 115q0 55 -28 87
q-33 38 -97 38q-55 0 -108.5 -40.5t-102.5 -114.5q-47 -71 -87 -166t-68 -202q-28 -108 -44 -220t-16 -214q0 -76 11.5 -133t37.5 -97q57 -89 197 -89q120 0 223 53.5t176 151.5l47 -21q-39 -98 -107.5 -171.5t-154.5 -121.5q-79 -44 -163 -66t-159 -22q-116 0 -199 27.5z
" />
    <glyph glyph-name="Cacute" unicode="&#x106;" horiz-adv-x="1018" 
d="M877 2048h215l-248 -387h-154zM288 -5.5q-83 27.5 -138 86.5q-56 60 -83.5 156.5t-27.5 233.5q0 155 36 323q42 195 120 349q91 179 221 279q148 114 338 114q153 0 243 -64q99 -70 99 -210q0 -88 -32 -135q-38 -54 -112 -54q-31 0 -60.5 11t-55.5 42q18 9 35 28.5
t30 45.5q29 58 29 115q0 55 -28 87q-33 38 -97 38q-55 0 -108.5 -40.5t-102.5 -114.5q-47 -71 -87 -166t-68 -202q-28 -108 -44 -220t-16 -214q0 -76 11.5 -133t37.5 -97q57 -89 197 -89q120 0 223 53.5t176 151.5l47 -21q-39 -98 -107.5 -171.5t-154.5 -121.5
q-79 -44 -163 -66t-159 -22q-116 0 -199 27.5z" />
    <glyph glyph-name="Ccaron" unicode="&#x10c;" horiz-adv-x="1018" 
d="M598 2048h66l122 -164l322 164h90l-434 -387h-43zM288 -5.5q-83 27.5 -138 86.5q-56 60 -83.5 156.5t-27.5 233.5q0 155 36 323q42 195 120 349q91 179 221 279q148 114 338 114q153 0 243 -64q99 -70 99 -210q0 -88 -32 -135q-38 -54 -112 -54q-31 0 -60.5 11t-55.5 42
q18 9 35 28.5t30 45.5q29 58 29 115q0 55 -28 87q-33 38 -97 38q-55 0 -108.5 -40.5t-102.5 -114.5q-47 -71 -87 -166t-68 -202q-28 -108 -44 -220t-16 -214q0 -76 11.5 -133t37.5 -97q57 -89 197 -89q120 0 223 53.5t176 151.5l47 -21q-39 -98 -107.5 -171.5t-154.5 -121.5
q-79 -44 -163 -66t-159 -22q-116 0 -199 27.5z" />
    <glyph glyph-name="Ccedilla" unicode="&#xc7;" horiz-adv-x="1018" 
d="M369 -429q-48 15 -93 40q17 30 36 47.5t46 17.5q28 0 46.5 -7t38.5 -20q21 -15 34.5 -21.5t32.5 -6.5q24 0 44 27q17 25 17 59q0 32 -19.5 53t-59.5 21q-37 0 -59.5 -6.5t-47.5 -18.5l76 211q-109 3 -187.5 32.5t-130.5 88.5q-53 60 -78.5 154.5t-25.5 228.5
q0 155 36 323q42 195 120 349q91 179 221 279q148 114 338 114q153 0 243 -64q99 -70 99 -210q0 -88 -32 -135q-38 -54 -112 -54q-31 0 -60.5 11t-55.5 42q18 9 35 28.5t30 45.5q29 58 29 115q0 55 -28 87q-33 38 -97 38q-55 0 -108.5 -40.5t-102.5 -114.5q-47 -71 -87 -166
t-68 -202q-28 -108 -44 -220t-16 -214q0 -76 11.5 -133t37.5 -97q57 -89 197 -89q120 0 223 53.5t176 151.5l47 -21q-68 -170 -228 -273q-69 -44 -144.5 -69.5t-149.5 -34.5l-43 -106q63 16 108 16q127 0 127 -102q0 -54 -20.5 -96.5t-56.5 -71.5q-34 -27 -78 -42t-90 -15
q-73 0 -127 17z" />
    <glyph glyph-name="Ccircumflex" unicode="&#x108;" horiz-adv-x="1018" 
d="M848 2048h43l123 -387h-66l-123 164l-321 -164h-90zM288 -5.5q-83 27.5 -138 86.5q-56 60 -83.5 156.5t-27.5 233.5q0 155 36 323q42 195 120 349q91 179 221 279q148 114 338 114q153 0 243 -64q99 -70 99 -210q0 -88 -32 -135q-38 -54 -112 -54q-31 0 -60.5 11
t-55.5 42q18 9 35 28.5t30 45.5q29 58 29 115q0 55 -28 87q-33 38 -97 38q-55 0 -108.5 -40.5t-102.5 -114.5q-47 -71 -87 -166t-68 -202q-28 -108 -44 -220t-16 -214q0 -76 11.5 -133t37.5 -97q57 -89 197 -89q120 0 223 53.5t176 151.5l47 -21q-39 -98 -107.5 -171.5
t-154.5 -121.5q-79 -44 -163 -66t-159 -22q-116 0 -199 27.5z" />
    <glyph glyph-name="Cdotaccent" unicode="&#x10a;" horiz-adv-x="1018" 
d="M849 1695.5q-30 12.5 -52 34.5q-22 21 -34.5 51t-12.5 63t12.5 63.5t34.5 52.5t52 35t63 13t63 -13t53 -35t35.5 -52.5t12.5 -63.5t-12.5 -63t-35.5 -51q-23 -22 -53 -34.5t-63 -12.5t-63 12.5zM288 -5.5q-83 27.5 -138 86.5q-56 60 -83.5 156.5t-27.5 233.5
q0 155 36 323q42 195 120 349q91 179 221 279q148 114 338 114q153 0 243 -64q99 -70 99 -210q0 -88 -32 -135q-38 -54 -112 -54q-31 0 -60.5 11t-55.5 42q18 9 35 28.5t30 45.5q29 58 29 115q0 55 -28 87q-33 38 -97 38q-55 0 -108.5 -40.5t-102.5 -114.5q-47 -71 -87 -166
t-68 -202q-28 -108 -44 -220t-16 -214q0 -76 11.5 -133t37.5 -97q57 -89 197 -89q120 0 223 53.5t176 151.5l47 -21q-39 -98 -107.5 -171.5t-154.5 -121.5q-79 -44 -163 -66t-159 -22q-116 0 -199 27.5z" />
    <glyph glyph-name="D" unicode="D" horiz-adv-x="1358" 
d="M504 82l-17 -82h-294l278 1303l303 40l-246 -1148q56 -41 117 -41q59 0 112.5 37t98.5 105q83 125 135 342q47 203 47 417q0 200 -82 298q-76 89 -217 89q-114 0 -212 -34t-170 -98q-74 -66 -114 -159t-40 -207q0 -64 14 -102q4 -13 10 -23q4 -7 4 -14q-107 0 -163 44.5
t-56 145.5q0 69 27 136.5t78 128.5q50 60 120.5 110.5t154.5 87.5q178 78 382 78q189 0 318 -83q118 -77 176 -214q53 -130 53 -293q0 -115 -20.5 -233t-58.5 -228q-38 -108 -90.5 -201.5t-115.5 -162.5q-65 -71 -136.5 -109.5t-145.5 -38.5q-124 0 -250 109z" />
    <glyph glyph-name="Eth" unicode="&#xd0;" horiz-adv-x="1358" 
d="M504 82l-17 -82h-294l151 707h-80l41 151h72l94 445l303 40l-104 -485h161l-40 -151h-154l-109 -512q56 -41 117 -41q59 0 112.5 37.5t98.5 105.5q83 125 135 339q47 199 47 404q0 103 -12 176t-41 121q-31 52 -87 78.5t-142 26.5q-125 0 -226.5 -33.5t-174.5 -98.5
q-74 -65 -113 -158t-39 -208q0 -64 14 -102q4 -13 10 -23q4 -7 4 -14q-111 0 -162 44q-57 48 -57 155q0 67 29 132.5t82 126.5q50 58 119.5 108.5t150.5 87.5q170 77 338 77q225 0 364 -79q121 -70 178 -203q48 -112 48 -271q0 -260 -79 -497q-37 -112 -90 -206t-116 -163
q-64 -69 -135.5 -106.5t-146.5 -37.5q-124 0 -250 109z" />
    <glyph glyph-name="Dcaron" unicode="&#x10e;" horiz-adv-x="1358" 
d="M613 2048h65l123 -164l322 164h90l-434 -387h-43zM504 82l-17 -82h-294l278 1303l303 40l-246 -1148q56 -41 117 -41q59 0 112.5 37t98.5 105q83 125 135 342q47 203 47 417q0 200 -82 298q-76 89 -217 89q-114 0 -212 -34t-170 -98q-74 -66 -114 -159t-40 -207
q0 -64 14 -102q4 -13 10 -23q4 -7 4 -14q-107 0 -163 44.5t-56 145.5q0 69 27 136.5t78 128.5q50 60 120.5 110.5t154.5 87.5q178 78 382 78q189 0 318 -83q118 -77 176 -214q53 -130 53 -293q0 -115 -20.5 -233t-58.5 -228q-38 -108 -90.5 -201.5t-115.5 -162.5
q-65 -71 -136.5 -109.5t-145.5 -38.5q-124 0 -250 109z" />
    <glyph glyph-name="Dcroat" unicode="&#x110;" horiz-adv-x="1358" 
d="M504 82l-17 -82h-294l151 707h-80l41 151h72l94 445l303 40l-104 -485h161l-40 -151h-154l-109 -512q56 -41 117 -41q59 0 112.5 37.5t98.5 105.5q83 125 135 339q47 199 47 404q0 103 -12 176t-41 121q-31 52 -87 78.5t-142 26.5q-125 0 -226.5 -33.5t-174.5 -98.5
q-74 -65 -113 -158t-39 -208q0 -64 14 -102q4 -13 10 -23q4 -7 4 -14q-111 0 -162 44q-57 48 -57 155q0 67 29 132.5t82 126.5q50 58 119.5 108.5t150.5 87.5q170 77 338 77q225 0 364 -79q121 -70 178 -203q48 -112 48 -271q0 -260 -79 -497q-37 -112 -90 -206t-116 -163
q-64 -69 -135.5 -106.5t-146.5 -37.5q-124 0 -250 109z" />
    <glyph glyph-name="uni1E0C" unicode="&#x1e0c;" horiz-adv-x="1358" 
d="M504 82l-17 -82h-294l278 1303l303 40l-246 -1148q56 -41 117 -41q59 0 112.5 37t98.5 105q83 125 135 342q47 203 47 417q0 200 -82 298q-76 89 -217 89q-114 0 -212 -34t-170 -98q-74 -66 -114 -159t-40 -207q0 -64 14 -102q4 -13 10 -23q4 -7 4 -14q-107 0 -163 44.5
t-56 145.5q0 69 27 136.5t78 128.5q50 60 120.5 110.5t154.5 87.5q178 78 382 78q189 0 318 -83q118 -77 176 -214q53 -130 53 -293q0 -115 -20.5 -233t-58.5 -228q-38 -108 -90.5 -201.5t-115.5 -162.5q-65 -71 -136.5 -109.5t-145.5 -38.5q-124 0 -250 109zM480 -460.5
q-30 12.5 -52 34.5t-34.5 52t-12.5 63t12.5 63t34.5 53t52 35.5t63 12.5t63 -12.5t53 -35.5t35.5 -53t12.5 -63t-12.5 -63t-35.5 -52t-53 -34.5t-63 -12.5t-63 12.5z" />
    <glyph glyph-name="E" unicode="E" horiz-adv-x="940" 
d="M223 -8.5q-72 28.5 -119 80.5q-45 49 -67.5 114t-22.5 138q0 81 26 165.5t75 157.5q50 76 120.5 130t157.5 77q-64 46 -94.5 110t-30.5 136q0 79 33.5 157.5t93.5 141.5q62 66 144.5 103.5t177.5 37.5q61 0 115 -16.5t93 -48.5q41 -33 63 -81t22 -110q0 -45 -12 -84
t-33 -68t-49 -45t-58 -16q-56 0 -96 55q17 6 34 24.5t30 44.5q12 25 19 54t7 56q0 58 -35 89q-29 25 -78 25q-44 0 -83 -24t-67 -66q-28 -41 -43.5 -93t-15.5 -106q0 -97 48 -167q52 -78 159 -107q-104 -23 -192 -106q-79 -76 -127 -183q-47 -107 -47 -200t45 -147
q50 -60 149 -60q49 0 103.5 13.5t104.5 39.5q116 59 171 156l47 -21q-81 -177 -247 -282q-80 -50 -170 -76.5t-183 -26.5q-96 0 -168 28.5z" />
    <glyph glyph-name="Eacute" unicode="&#xc9;" horiz-adv-x="940" 
d="M862 2048h215l-248 -387h-153zM223 -8.5q-72 28.5 -119 80.5q-45 49 -67.5 114t-22.5 138q0 81 26 165.5t75 157.5q50 76 120.5 130t157.5 77q-64 46 -94.5 110t-30.5 136q0 79 33.5 157.5t93.5 141.5q62 66 144.5 103.5t177.5 37.5q61 0 115 -16.5t93 -48.5
q41 -33 63 -81t22 -110q0 -45 -12 -84t-33 -68t-49 -45t-58 -16q-56 0 -96 55q17 6 34 24.5t30 44.5q12 25 19 54t7 56q0 58 -35 89q-29 25 -78 25q-44 0 -83 -24t-67 -66q-28 -41 -43.5 -93t-15.5 -106q0 -97 48 -167q52 -78 159 -107q-104 -23 -192 -106
q-79 -76 -127 -183q-47 -107 -47 -200t45 -147q50 -60 149 -60q49 0 103.5 13.5t104.5 39.5q116 59 171 156l47 -21q-81 -177 -247 -282q-80 -50 -170 -76.5t-183 -26.5q-96 0 -168 28.5z" />
    <glyph glyph-name="Ebreve" unicode="&#x114;" horiz-adv-x="940" 
d="M534.5 1741.5q-79.5 71.5 -79.5 211.5h183q0 -82 42 -126t119 -44q41 0 80 13t70 37q30 24 49.5 54.5t24.5 65.5h176q-9 -59 -46 -110.5t-96 -90.5q-58 -39 -132.5 -60.5t-157.5 -21.5q-153 0 -232.5 71.5zM223 -8.5q-72 28.5 -119 80.5q-45 49 -67.5 114t-22.5 138
q0 81 26 165.5t75 157.5q50 76 120.5 130t157.5 77q-64 46 -94.5 110t-30.5 136q0 79 33.5 157.5t93.5 141.5q62 66 144.5 103.5t177.5 37.5q61 0 115 -16.5t93 -48.5q41 -33 63 -81t22 -110q0 -45 -12 -84t-33 -68t-49 -45t-58 -16q-56 0 -96 55q17 6 34 24.5t30 44.5
q12 25 19 54t7 56q0 58 -35 89q-29 25 -78 25q-44 0 -83 -24t-67 -66q-28 -41 -43.5 -93t-15.5 -106q0 -97 48 -167q52 -78 159 -107q-104 -23 -192 -106q-79 -76 -127 -183q-47 -107 -47 -200t45 -147q50 -60 149 -60q49 0 103.5 13.5t104.5 39.5q116 59 171 156l47 -21
q-81 -177 -247 -282q-80 -50 -170 -76.5t-183 -26.5q-96 0 -168 28.5z" />
    <glyph glyph-name="Ecaron" unicode="&#x11a;" horiz-adv-x="940" 
d="M613 2048h65l123 -164l322 164h90l-434 -387h-43zM223 -8.5q-72 28.5 -119 80.5q-45 49 -67.5 114t-22.5 138q0 81 26 165.5t75 157.5q50 76 120.5 130t157.5 77q-64 46 -94.5 110t-30.5 136q0 79 33.5 157.5t93.5 141.5q62 66 144.5 103.5t177.5 37.5q61 0 115 -16.5
t93 -48.5q41 -33 63 -81t22 -110q0 -45 -12 -84t-33 -68t-49 -45t-58 -16q-56 0 -96 55q17 6 34 24.5t30 44.5q12 25 19 54t7 56q0 58 -35 89q-29 25 -78 25q-44 0 -83 -24t-67 -66q-28 -41 -43.5 -93t-15.5 -106q0 -97 48 -167q52 -78 159 -107q-104 -23 -192 -106
q-79 -76 -127 -183q-47 -107 -47 -200t45 -147q50 -60 149 -60q49 0 103.5 13.5t104.5 39.5q116 59 171 156l47 -21q-81 -177 -247 -282q-80 -50 -170 -76.5t-183 -26.5q-96 0 -168 28.5z" />
    <glyph glyph-name="Ecircumflex" unicode="&#xca;" horiz-adv-x="940" 
d="M848 2048h43l123 -387h-66l-123 164l-321 -164h-90zM223 -8.5q-72 28.5 -119 80.5q-45 49 -67.5 114t-22.5 138q0 81 26 165.5t75 157.5q50 76 120.5 130t157.5 77q-64 46 -94.5 110t-30.5 136q0 79 33.5 157.5t93.5 141.5q62 66 144.5 103.5t177.5 37.5q61 0 115 -16.5
t93 -48.5q41 -33 63 -81t22 -110q0 -45 -12 -84t-33 -68t-49 -45t-58 -16q-56 0 -96 55q17 6 34 24.5t30 44.5q12 25 19 54t7 56q0 58 -35 89q-29 25 -78 25q-44 0 -83 -24t-67 -66q-28 -41 -43.5 -93t-15.5 -106q0 -97 48 -167q52 -78 159 -107q-104 -23 -192 -106
q-79 -76 -127 -183q-47 -107 -47 -200t45 -147q50 -60 149 -60q49 0 103.5 13.5t104.5 39.5q116 59 171 156l47 -21q-81 -177 -247 -282q-80 -50 -170 -76.5t-183 -26.5q-96 0 -168 28.5z" />
    <glyph glyph-name="uni1EBE" unicode="&#x1ebe;" horiz-adv-x="940" 
d="M1110 2048h141l-178 -274h-90zM857 1946h36l103 -285h-92l-66 147l-226 -147h-120zM223 -8.5q-72 28.5 -119 80.5q-45 49 -67.5 114t-22.5 138q0 81 26 165.5t75 157.5q50 76 120.5 130t157.5 77q-64 46 -94.5 110t-30.5 136q0 79 33.5 157.5t93.5 141.5
q62 66 144.5 103.5t177.5 37.5q61 0 115 -16.5t93 -48.5q41 -33 63 -81t22 -110q0 -45 -12 -84t-33 -68t-49 -45t-58 -16q-56 0 -96 55q17 6 34 24.5t30 44.5q12 25 19 54t7 56q0 58 -35 89q-29 25 -78 25q-44 0 -83 -24t-67 -66q-28 -41 -43.5 -93t-15.5 -106
q0 -97 48 -167q52 -78 159 -107q-104 -23 -192 -106q-79 -76 -127 -183q-47 -107 -47 -200t45 -147q50 -60 149 -60q49 0 103.5 13.5t104.5 39.5q116 59 171 156l47 -21q-81 -177 -247 -282q-80 -50 -170 -76.5t-183 -26.5q-96 0 -168 28.5z" />
    <glyph glyph-name="uni1EC6" unicode="&#x1ec6;" horiz-adv-x="940" 
d="M848 2048h43l123 -387h-66l-123 164l-321 -164h-90zM223 -8.5q-72 28.5 -119 80.5q-45 49 -67.5 114t-22.5 138q0 81 26 165.5t75 157.5q50 76 120.5 130t157.5 77q-64 46 -94.5 110t-30.5 136q0 79 33.5 157.5t93.5 141.5q62 66 144.5 103.5t177.5 37.5q61 0 115 -16.5
t93 -48.5q41 -33 63 -81t22 -110q0 -45 -12 -84t-33 -68t-49 -45t-58 -16q-56 0 -96 55q17 6 34 24.5t30 44.5q12 25 19 54t7 56q0 58 -35 89q-29 25 -78 25q-44 0 -83 -24t-67 -66q-28 -41 -43.5 -93t-15.5 -106q0 -97 48 -167q52 -78 159 -107q-104 -23 -192 -106
q-79 -76 -127 -183q-47 -107 -47 -200t45 -147q50 -60 149 -60q49 0 103.5 13.5t104.5 39.5q116 59 171 156l47 -21q-81 -177 -247 -282q-80 -50 -170 -76.5t-183 -26.5q-96 0 -168 28.5zM250 -460.5q-30 12.5 -52 34.5t-34.5 52t-12.5 63t12.5 63t34.5 53t52 35.5t63 12.5
t63 -12.5t53 -35.5t35.5 -53t12.5 -63t-12.5 -63t-35.5 -52t-53 -34.5t-63 -12.5t-63 12.5z" />
    <glyph glyph-name="uni1EC0" unicode="&#x1ec0;" horiz-adv-x="940" 
d="M981 2047h136l39 -275h-83zM857 1946h36l103 -285h-92l-66 147l-226 -147h-120zM223 -8.5q-72 28.5 -119 80.5q-45 49 -67.5 114t-22.5 138q0 81 26 165.5t75 157.5q50 76 120.5 130t157.5 77q-64 46 -94.5 110t-30.5 136q0 79 33.5 157.5t93.5 141.5q62 66 144.5 103.5
t177.5 37.5q61 0 115 -16.5t93 -48.5q41 -33 63 -81t22 -110q0 -45 -12 -84t-33 -68t-49 -45t-58 -16q-56 0 -96 55q17 6 34 24.5t30 44.5q12 25 19 54t7 56q0 58 -35 89q-29 25 -78 25q-44 0 -83 -24t-67 -66q-28 -41 -43.5 -93t-15.5 -106q0 -97 48 -167q52 -78 159 -107
q-104 -23 -192 -106q-79 -76 -127 -183q-47 -107 -47 -200t45 -147q50 -60 149 -60q49 0 103.5 13.5t104.5 39.5q116 59 171 156l47 -21q-81 -177 -247 -282q-80 -50 -170 -76.5t-183 -26.5q-96 0 -168 28.5z" />
    <glyph glyph-name="uni1EC2" unicode="&#x1ec2;" horiz-adv-x="940" 
d="M1049 1753v126q30 -9 64 -9q68 0 68 55q0 51 -68 51q-48 0 -86 -23l-37 59q24 16 62 26t76 10q67 0 109 -32t42 -83t-42.5 -85.5t-112.5 -39.5l-6 -59zM857 1946h36l103 -285h-92l-66 147l-226 -147h-120zM223 -8.5q-72 28.5 -119 80.5q-45 49 -67.5 114t-22.5 138
q0 81 26 165.5t75 157.5q50 76 120.5 130t157.5 77q-64 46 -94.5 110t-30.5 136q0 79 33.5 157.5t93.5 141.5q62 66 144.5 103.5t177.5 37.5q61 0 115 -16.5t93 -48.5q41 -33 63 -81t22 -110q0 -45 -12 -84t-33 -68t-49 -45t-58 -16q-56 0 -96 55q17 6 34 24.5t30 44.5
q12 25 19 54t7 56q0 58 -35 89q-29 25 -78 25q-44 0 -83 -24t-67 -66q-28 -41 -43.5 -93t-15.5 -106q0 -97 48 -167q52 -78 159 -107q-104 -23 -192 -106q-79 -76 -127 -183q-47 -107 -47 -200t45 -147q50 -60 149 -60q49 0 103.5 13.5t104.5 39.5q116 59 171 156l47 -21
q-81 -177 -247 -282q-80 -50 -170 -76.5t-183 -26.5q-96 0 -168 28.5z" />
    <glyph glyph-name="uni1EC4" unicode="&#x1ec4;" horiz-adv-x="940" 
d="M811 1910q-41 15 -67 22t-55 7q-54 0 -94 -37l-9 3q34 69 96 105.5t145 36.5q35 0 63.5 -6t63.5 -18q38 -13 61 -18.5t51 -5.5q60 0 90 33l9 -2q-5 -25 -26.5 -51t-53.5 -47q-74 -47 -153 -47h-17l81 -224h-92l-66 147l-226 -147h-120zM223 -8.5q-72 28.5 -119 80.5
q-45 49 -67.5 114t-22.5 138q0 81 26 165.5t75 157.5q50 76 120.5 130t157.5 77q-64 46 -94.5 110t-30.5 136q0 79 33.5 157.5t93.5 141.5q62 66 144.5 103.5t177.5 37.5q61 0 115 -16.5t93 -48.5q41 -33 63 -81t22 -110q0 -45 -12 -84t-33 -68t-49 -45t-58 -16
q-56 0 -96 55q17 6 34 24.5t30 44.5q12 25 19 54t7 56q0 58 -35 89q-29 25 -78 25q-44 0 -83 -24t-67 -66q-28 -41 -43.5 -93t-15.5 -106q0 -97 48 -167q52 -78 159 -107q-104 -23 -192 -106q-79 -76 -127 -183q-47 -107 -47 -200t45 -147q50 -60 149 -60q49 0 103.5 13.5
t104.5 39.5q116 59 171 156l47 -21q-81 -177 -247 -282q-80 -50 -170 -76.5t-183 -26.5q-96 0 -168 28.5z" />
    <glyph glyph-name="uni0204" unicode="&#x204;" horiz-adv-x="940" 
d="M218 2048h215l187 -387h-113zM550 2048h215l186 -387h-112zM223 -8.5q-72 28.5 -119 80.5q-45 49 -67.5 114t-22.5 138q0 81 26 165.5t75 157.5q50 76 120.5 130t157.5 77q-64 46 -94.5 110t-30.5 136q0 79 33.5 157.5t93.5 141.5q62 66 144.5 103.5t177.5 37.5
q61 0 115 -16.5t93 -48.5q41 -33 63 -81t22 -110q0 -45 -12 -84t-33 -68t-49 -45t-58 -16q-56 0 -96 55q17 6 34 24.5t30 44.5q12 25 19 54t7 56q0 58 -35 89q-29 25 -78 25q-44 0 -83 -24t-67 -66q-28 -41 -43.5 -93t-15.5 -106q0 -97 48 -167q52 -78 159 -107
q-104 -23 -192 -106q-79 -76 -127 -183q-47 -107 -47 -200t45 -147q50 -60 149 -60q49 0 103.5 13.5t104.5 39.5q116 59 171 156l47 -21q-81 -177 -247 -282q-80 -50 -170 -76.5t-183 -26.5q-96 0 -168 28.5z" />
    <glyph glyph-name="Edieresis" unicode="&#xcb;" horiz-adv-x="940" 
d="M523 1722q-36 34 -36 88q0 25 9.5 48t26.5 40q37 37 89 37q25 0 48 -10t40 -27t27 -40t10 -48q0 -53 -37 -88q-18 -17 -41 -26.5t-47 -9.5q-51 0 -89 36zM892 1722q-36 36 -36 88q0 24 9.5 47t26.5 41q35 37 89 37q25 0 48 -10t40 -27t27 -40t10 -48q0 -53 -37 -88
q-18 -17 -41 -26.5t-47 -9.5q-53 0 -89 36zM223 -8.5q-72 28.5 -119 80.5q-45 49 -67.5 114t-22.5 138q0 81 26 165.5t75 157.5q50 76 120.5 130t157.5 77q-64 46 -94.5 110t-30.5 136q0 79 33.5 157.5t93.5 141.5q62 66 144.5 103.5t177.5 37.5q61 0 115 -16.5t93 -48.5
q41 -33 63 -81t22 -110q0 -45 -12 -84t-33 -68t-49 -45t-58 -16q-56 0 -96 55q17 6 34 24.5t30 44.5q12 25 19 54t7 56q0 58 -35 89q-29 25 -78 25q-44 0 -83 -24t-67 -66q-28 -41 -43.5 -93t-15.5 -106q0 -97 48 -167q52 -78 159 -107q-104 -23 -192 -106
q-79 -76 -127 -183q-47 -107 -47 -200t45 -147q50 -60 149 -60q49 0 103.5 13.5t104.5 39.5q116 59 171 156l47 -21q-81 -177 -247 -282q-80 -50 -170 -76.5t-183 -26.5q-96 0 -168 28.5z" />
    <glyph glyph-name="Edotaccent" unicode="&#x116;" horiz-adv-x="940" 
d="M759 1695.5q-30 12.5 -52 34.5q-22 21 -34.5 51t-12.5 63t12.5 63.5t34.5 52.5t52 35t63 13t63 -13t53 -35t35.5 -52.5t12.5 -63.5t-12.5 -63t-35.5 -51q-23 -22 -53 -34.5t-63 -12.5t-63 12.5zM223 -8.5q-72 28.5 -119 80.5q-45 49 -67.5 114t-22.5 138q0 81 26 165.5
t75 157.5q50 76 120.5 130t157.5 77q-64 46 -94.5 110t-30.5 136q0 79 33.5 157.5t93.5 141.5q62 66 144.5 103.5t177.5 37.5q61 0 115 -16.5t93 -48.5q41 -33 63 -81t22 -110q0 -45 -12 -84t-33 -68t-49 -45t-58 -16q-56 0 -96 55q17 6 34 24.5t30 44.5q12 25 19 54t7 56
q0 58 -35 89q-29 25 -78 25q-44 0 -83 -24t-67 -66q-28 -41 -43.5 -93t-15.5 -106q0 -97 48 -167q52 -78 159 -107q-104 -23 -192 -106q-79 -76 -127 -183q-47 -107 -47 -200t45 -147q50 -60 149 -60q49 0 103.5 13.5t104.5 39.5q116 59 171 156l47 -21q-81 -177 -247 -282
q-80 -50 -170 -76.5t-183 -26.5q-96 0 -168 28.5z" />
    <glyph glyph-name="uni1EB8" unicode="&#x1eb8;" horiz-adv-x="940" 
d="M223 -8.5q-72 28.5 -119 80.5q-45 49 -67.5 114t-22.5 138q0 81 26 165.5t75 157.5q50 76 120.5 130t157.5 77q-64 46 -94.5 110t-30.5 136q0 79 33.5 157.5t93.5 141.5q62 66 144.5 103.5t177.5 37.5q61 0 115 -16.5t93 -48.5q41 -33 63 -81t22 -110q0 -45 -12 -84
t-33 -68t-49 -45t-58 -16q-56 0 -96 55q17 6 34 24.5t30 44.5q12 25 19 54t7 56q0 58 -35 89q-29 25 -78 25q-44 0 -83 -24t-67 -66q-28 -41 -43.5 -93t-15.5 -106q0 -97 48 -167q52 -78 159 -107q-104 -23 -192 -106q-79 -76 -127 -183q-47 -107 -47 -200t45 -147
q50 -60 149 -60q49 0 103.5 13.5t104.5 39.5q116 59 171 156l47 -21q-81 -177 -247 -282q-80 -50 -170 -76.5t-183 -26.5q-96 0 -168 28.5zM250 -460.5q-30 12.5 -52 34.5t-34.5 52t-12.5 63t12.5 63t34.5 53t52 35.5t63 12.5t63 -12.5t53 -35.5t35.5 -53t12.5 -63
t-12.5 -63t-35.5 -52t-53 -34.5t-63 -12.5t-63 12.5z" />
    <glyph glyph-name="Egrave" unicode="&#xc8;" horiz-adv-x="940" 
d="M516 2048h215l60 -387h-154zM223 -8.5q-72 28.5 -119 80.5q-45 49 -67.5 114t-22.5 138q0 81 26 165.5t75 157.5q50 76 120.5 130t157.5 77q-64 46 -94.5 110t-30.5 136q0 79 33.5 157.5t93.5 141.5q62 66 144.5 103.5t177.5 37.5q61 0 115 -16.5t93 -48.5q41 -33 63 -81
t22 -110q0 -45 -12 -84t-33 -68t-49 -45t-58 -16q-56 0 -96 55q17 6 34 24.5t30 44.5q12 25 19 54t7 56q0 58 -35 89q-29 25 -78 25q-44 0 -83 -24t-67 -66q-28 -41 -43.5 -93t-15.5 -106q0 -97 48 -167q52 -78 159 -107q-104 -23 -192 -106q-79 -76 -127 -183
q-47 -107 -47 -200t45 -147q50 -60 149 -60q49 0 103.5 13.5t104.5 39.5q116 59 171 156l47 -21q-81 -177 -247 -282q-80 -50 -170 -76.5t-183 -26.5q-96 0 -168 28.5z" />
    <glyph glyph-name="uni1EBA" unicode="&#x1eba;" horiz-adv-x="940" 
d="M693 1627v179q40 -9 91 -9q47 0 71.5 19.5t24.5 53.5q0 74 -96 74q-72 0 -122 -33l-54 86q36 22 90.5 36t109.5 14q45 0 84.5 -12t68.5 -33q29 -22 44 -52.5t15 -66.5t-15.5 -66.5t-44.5 -54.5q-61 -50 -156 -57l-15 -83zM223 -8.5q-72 28.5 -119 80.5q-45 49 -67.5 114
t-22.5 138q0 81 26 165.5t75 157.5q50 76 120.5 130t157.5 77q-64 46 -94.5 110t-30.5 136q0 79 33.5 157.5t93.5 141.5q62 66 144.5 103.5t177.5 37.5q61 0 115 -16.5t93 -48.5q41 -33 63 -81t22 -110q0 -45 -12 -84t-33 -68t-49 -45t-58 -16q-56 0 -96 55q17 6 34 24.5
t30 44.5q12 25 19 54t7 56q0 58 -35 89q-29 25 -78 25q-44 0 -83 -24t-67 -66q-28 -41 -43.5 -93t-15.5 -106q0 -97 48 -167q52 -78 159 -107q-104 -23 -192 -106q-79 -76 -127 -183q-47 -107 -47 -200t45 -147q50 -60 149 -60q49 0 103.5 13.5t104.5 39.5q116 59 171 156
l47 -21q-81 -177 -247 -282q-80 -50 -170 -76.5t-183 -26.5q-96 0 -168 28.5z" />
    <glyph glyph-name="uni0206" unicode="&#x206;" horiz-adv-x="940" 
d="M458 1793.5q37 51.5 96 91.5q58 39 133 60t157 21q153 0 232.5 -72t79.5 -211h-183q0 82 -42 126t-119 44q-41 0 -79.5 -13t-69.5 -37q-31 -23 -50.5 -54t-24.5 -66h-176q9 59 46 110.5zM223 -8.5q-72 28.5 -119 80.5q-45 49 -67.5 114t-22.5 138q0 81 26 165.5t75 157.5
q50 76 120.5 130t157.5 77q-64 46 -94.5 110t-30.5 136q0 79 33.5 157.5t93.5 141.5q62 66 144.5 103.5t177.5 37.5q61 0 115 -16.5t93 -48.5q41 -33 63 -81t22 -110q0 -45 -12 -84t-33 -68t-49 -45t-58 -16q-56 0 -96 55q17 6 34 24.5t30 44.5q12 25 19 54t7 56
q0 58 -35 89q-29 25 -78 25q-44 0 -83 -24t-67 -66q-28 -41 -43.5 -93t-15.5 -106q0 -97 48 -167q52 -78 159 -107q-104 -23 -192 -106q-79 -76 -127 -183q-47 -107 -47 -200t45 -147q50 -60 149 -60q49 0 103.5 13.5t104.5 39.5q116 59 171 156l47 -21q-81 -177 -247 -282
q-80 -50 -170 -76.5t-183 -26.5q-96 0 -168 28.5z" />
    <glyph glyph-name="Emacron" unicode="&#x112;" horiz-adv-x="940" 
d="M491 1890h655l-30 -152h-658zM223 -8.5q-72 28.5 -119 80.5q-45 49 -67.5 114t-22.5 138q0 81 26 165.5t75 157.5q50 76 120.5 130t157.5 77q-64 46 -94.5 110t-30.5 136q0 79 33.5 157.5t93.5 141.5q62 66 144.5 103.5t177.5 37.5q61 0 115 -16.5t93 -48.5
q41 -33 63 -81t22 -110q0 -45 -12 -84t-33 -68t-49 -45t-58 -16q-56 0 -96 55q17 6 34 24.5t30 44.5q12 25 19 54t7 56q0 58 -35 89q-29 25 -78 25q-44 0 -83 -24t-67 -66q-28 -41 -43.5 -93t-15.5 -106q0 -97 48 -167q52 -78 159 -107q-104 -23 -192 -106
q-79 -76 -127 -183q-47 -107 -47 -200t45 -147q50 -60 149 -60q49 0 103.5 13.5t104.5 39.5q116 59 171 156l47 -21q-81 -177 -247 -282q-80 -50 -170 -76.5t-183 -26.5q-96 0 -168 28.5z" />
    <glyph glyph-name="Eogonek" unicode="&#x118;" horiz-adv-x="940" 
d="M492 -342q-19 23 -29 50.5t-10 55.5q0 57 38 119.5t109 118.5q-65 -14 -154 -14q-102 0 -181.5 34t-135.5 94q-52 56 -79 130t-27 155q0 74 23.5 147t69.5 134q49 65 118.5 110t158.5 62q-101 54 -154 141q-49 80 -49 170q0 71 30.5 138t87.5 118q60 54 146 84.5
t191 30.5q74 0 141 -16t119 -48q55 -34 86 -87t31 -123q0 -88 -32 -135q-38 -54 -111 -54q-32 0 -61.5 10.5t-55.5 42.5q33 11 64 71q12 24 19 51t7 46q0 53 -18 89q-14 28 -42.5 45.5t-74.5 17.5q-55 0 -101 -19.5t-80 -54.5q-33 -35 -51 -81t-18 -97q0 -98 63 -181
q70 -95 207 -157q-185 -78 -275 -192q-81 -102 -81 -220q0 -55 18.5 -105t52.5 -87q33 -38 76.5 -59t92.5 -21q113 0 192 50q37 23 68.5 59t62.5 88l47 -21q-22 -68 -57 -117.5t-81 -89.5q-37 -35 -82 -66q-45 -33 -76.5 -66t-50.5 -74q-21 -44 -21 -107q0 -40 19 -68
q20 -34 60 -34q31 0 74 25q30 19 34 22l32 22q-4 -32 -4 -63l-43 -41.5t-48 -39.5q-65 -46 -133 -46q-78 0 -122 53z" />
    <glyph glyph-name="uni1EBC" unicode="&#x1ebc;" horiz-adv-x="940" 
d="M826 1686.5q-40 9.5 -94 28.5q-57 20 -91.5 29t-72.5 9q-76 0 -135 -53l-12 4q49 99 136.5 150t205.5 51q49 0 89 -8.5t91 -25.5q54 -18 86 -26t72 -8q39 0 72.5 12t56.5 35l12 -2q-8 -36 -38.5 -72.5t-75.5 -65.5q-46 -31 -103 -49t-113 -18q-46 0 -86 9.5zM223 -8.5
q-72 28.5 -119 80.5q-45 49 -67.5 114t-22.5 138q0 81 26 165.5t75 157.5q50 76 120.5 130t157.5 77q-64 46 -94.5 110t-30.5 136q0 79 33.5 157.5t93.5 141.5q62 66 144.5 103.5t177.5 37.5q61 0 115 -16.5t93 -48.5q41 -33 63 -81t22 -110q0 -45 -12 -84t-33 -68t-49 -45
t-58 -16q-56 0 -96 55q17 6 34 24.5t30 44.5q12 25 19 54t7 56q0 58 -35 89q-29 25 -78 25q-44 0 -83 -24t-67 -66q-28 -41 -43.5 -93t-15.5 -106q0 -97 48 -167q52 -78 159 -107q-104 -23 -192 -106q-79 -76 -127 -183q-47 -107 -47 -200t45 -147q50 -60 149 -60
q49 0 103.5 13.5t104.5 39.5q116 59 171 156l47 -21q-81 -177 -247 -282q-80 -50 -170 -76.5t-183 -26.5q-96 0 -168 28.5z" />
    <glyph glyph-name="F" unicode="F" horiz-adv-x="940" 
d="M475 1368q-63 -2 -110.5 -23.5t-81.5 -67.5q-74 -101 -74 -333q0 -66 15 -102q4 -13 10 -23q4 -7 4 -14q-110 0 -163 44q-57 48 -57 155q0 106 39.5 201t120.5 167q87 78 221.5 121t317.5 43q35 0 70 -4l52 -5q93 -10 121 -12q43 -4 97 -4q109 0 184 25q-9 -26 -19 -69
q-22 -86 -82 -136q-35 -29 -93 -41q-124 0 -287 39l-86 -407h299l-33 -152h-299l-166 -770h-295z" />
    <glyph glyph-name="G" unicode="G" horiz-adv-x="1184" 
d="M338 -404q-61 20 -105 57t-68 89t-24 113q0 59 21 110.5t59 91.5q37 39 88 60.5t108 21.5q79 0 126.5 -38t47.5 -103q0 -49 -22 -78q-19 25 -50.5 39t-66.5 14q-63 0 -100 -40q-39 -41 -39 -107q0 -65 38 -106q37 -42 95 -42q71 0 122 63.5t79 188.5l102 453h-8
q-57 -78 -135.5 -119t-171.5 -41q-90 0 -163 36.5t-125 104.5t-80 164t-28 213q0 113 25.5 217.5t74.5 195.5q98 184 267 288q174 108 381 108q86 0 156.5 -19.5t119.5 -55.5q49 -37 75 -89.5t26 -117.5q0 -87 -43 -141q-21 -26 -50.5 -40t-62.5 -14q-38 0 -72 16.5
t-57 47.5q36 24 62 79t26 109q0 62 -35.5 95.5t-101.5 33.5q-60 0 -118.5 -28t-112.5 -79q-53 -50 -98 -119.5t-77 -150.5q-69 -171 -69 -360q0 -155 48.5 -235.5t141.5 -80.5q112 0 195.5 115.5t136.5 341.5l242 -2l-150 -688q-66 -304 -185 -449q-119 -143 -310 -143
q-74 0 -135 20z" />
    <glyph glyph-name="uni01F4" unicode="&#x1f4;" horiz-adv-x="1184" 
d="M952 2048h215l-248 -387h-154zM338 -404q-61 20 -105 57t-68 89t-24 113q0 59 21 110.5t59 91.5q37 39 88 60.5t108 21.5q79 0 126.5 -38t47.5 -103q0 -49 -22 -78q-19 25 -50.5 39t-66.5 14q-63 0 -100 -40q-39 -41 -39 -107q0 -65 38 -106q37 -42 95 -42q71 0 122 63.5
t79 188.5l102 453h-8q-57 -78 -135.5 -119t-171.5 -41q-90 0 -163 36.5t-125 104.5t-80 164t-28 213q0 113 25.5 217.5t74.5 195.5q98 184 267 288q174 108 381 108q86 0 156.5 -19.5t119.5 -55.5q49 -37 75 -89.5t26 -117.5q0 -87 -43 -141q-21 -26 -50.5 -40t-62.5 -14
q-38 0 -72 16.5t-57 47.5q36 24 62 79t26 109q0 62 -35.5 95.5t-101.5 33.5q-60 0 -118.5 -28t-112.5 -79q-53 -50 -98 -119.5t-77 -150.5q-69 -171 -69 -360q0 -155 48.5 -235.5t141.5 -80.5q112 0 195.5 115.5t136.5 341.5l242 -2l-150 -688q-66 -304 -185 -449
q-119 -143 -310 -143q-74 0 -135 20z" />
    <glyph glyph-name="Gbreve" unicode="&#x11e;" horiz-adv-x="1184" 
d="M653.5 1741.5q-79.5 71.5 -79.5 211.5h183q0 -82 42 -126t119 -44q41 0 80 13t70 37q30 24 49.5 54.5t24.5 65.5h176q-9 -59 -46 -110.5t-96 -90.5q-58 -39 -132.5 -60.5t-157.5 -21.5q-153 0 -232.5 71.5zM338 -404q-61 20 -105 57t-68 89t-24 113q0 59 21 110.5
t59 91.5q37 39 88 60.5t108 21.5q79 0 126.5 -38t47.5 -103q0 -49 -22 -78q-19 25 -50.5 39t-66.5 14q-63 0 -100 -40q-39 -41 -39 -107q0 -65 38 -106q37 -42 95 -42q71 0 122 63.5t79 188.5l102 453h-8q-57 -78 -135.5 -119t-171.5 -41q-90 0 -163 36.5t-125 104.5
t-80 164t-28 213q0 113 25.5 217.5t74.5 195.5q98 184 267 288q174 108 381 108q86 0 156.5 -19.5t119.5 -55.5q49 -37 75 -89.5t26 -117.5q0 -87 -43 -141q-21 -26 -50.5 -40t-62.5 -14q-38 0 -72 16.5t-57 47.5q36 24 62 79t26 109q0 62 -35.5 95.5t-101.5 33.5
q-60 0 -118.5 -28t-112.5 -79q-53 -50 -98 -119.5t-77 -150.5q-69 -171 -69 -360q0 -155 48.5 -235.5t141.5 -80.5q112 0 195.5 115.5t136.5 341.5l242 -2l-150 -688q-66 -304 -185 -449q-119 -143 -310 -143q-74 0 -135 20z" />
    <glyph glyph-name="Gcaron" unicode="&#x1e6;" horiz-adv-x="1184" 
d="M723 2048h65l123 -164l322 164h90l-434 -387h-43zM338 -404q-61 20 -105 57t-68 89t-24 113q0 59 21 110.5t59 91.5q37 39 88 60.5t108 21.5q79 0 126.5 -38t47.5 -103q0 -49 -22 -78q-19 25 -50.5 39t-66.5 14q-63 0 -100 -40q-39 -41 -39 -107q0 -65 38 -106
q37 -42 95 -42q71 0 122 63.5t79 188.5l102 453h-8q-57 -78 -135.5 -119t-171.5 -41q-90 0 -163 36.5t-125 104.5t-80 164t-28 213q0 113 25.5 217.5t74.5 195.5q98 184 267 288q174 108 381 108q86 0 156.5 -19.5t119.5 -55.5q49 -37 75 -89.5t26 -117.5q0 -87 -43 -141
q-21 -26 -50.5 -40t-62.5 -14q-38 0 -72 16.5t-57 47.5q36 24 62 79t26 109q0 62 -35.5 95.5t-101.5 33.5q-60 0 -118.5 -28t-112.5 -79q-53 -50 -98 -119.5t-77 -150.5q-69 -171 -69 -360q0 -155 48.5 -235.5t141.5 -80.5q112 0 195.5 115.5t136.5 341.5l242 -2l-150 -688
q-66 -304 -185 -449q-119 -143 -310 -143q-74 0 -135 20z" />
    <glyph glyph-name="Gcircumflex" unicode="&#x11c;" horiz-adv-x="1184" 
d="M945 2048h43l123 -387h-65l-123 164l-322 -164h-90zM338 -404q-61 20 -105 57t-68 89t-24 113q0 59 21 110.5t59 91.5q37 39 88 60.5t108 21.5q79 0 126.5 -38t47.5 -103q0 -49 -22 -78q-19 25 -50.5 39t-66.5 14q-63 0 -100 -40q-39 -41 -39 -107q0 -65 38 -106
q37 -42 95 -42q71 0 122 63.5t79 188.5l102 453h-8q-57 -78 -135.5 -119t-171.5 -41q-90 0 -163 36.5t-125 104.5t-80 164t-28 213q0 113 25.5 217.5t74.5 195.5q98 184 267 288q174 108 381 108q86 0 156.5 -19.5t119.5 -55.5q49 -37 75 -89.5t26 -117.5q0 -87 -43 -141
q-21 -26 -50.5 -40t-62.5 -14q-38 0 -72 16.5t-57 47.5q36 24 62 79t26 109q0 62 -35.5 95.5t-101.5 33.5q-60 0 -118.5 -28t-112.5 -79q-53 -50 -98 -119.5t-77 -150.5q-69 -171 -69 -360q0 -155 48.5 -235.5t141.5 -80.5q112 0 195.5 115.5t136.5 341.5l242 -2l-150 -688
q-66 -304 -185 -449q-119 -143 -310 -143q-74 0 -135 20z" />
    <glyph glyph-name="Gcommaaccent" unicode="&#x122;" horiz-adv-x="1184" 
d="M238.5 25q-72.5 37 -123.5 107q-50 70 -76.5 172.5t-26.5 230.5q0 132 27 259.5t78 243.5q49 113 117.5 206.5t150.5 162.5q83 69 176 106t190 37q71 0 132 -20.5t105 -57.5t67.5 -88.5t23.5 -113.5q0 -85 -43 -139q-20 -26 -49.5 -40t-62.5 -14q-77 0 -125 64
q35 24 61 79q23 49 23 107q0 59 -27 93t-74 34q-49 0 -100.5 -37t-99.5 -105q-48 -66 -90 -155.5t-73 -190.5q-67 -222 -67 -429q0 -174 43 -272q43 -99 119 -99q50 0 102.5 45.5t98.5 126.5q47 82 83.5 190.5t57.5 229.5h242l-168 -758h-265l29 139h-8
q-63 -80 -129.5 -115.5t-153.5 -35.5q-92 0 -164.5 37zM415 -469q35 40 54 65q16 22 16 42q0 16 -9 29t-28 33q-18 18 -27.5 34.5t-9.5 38.5q0 42 32 69t83 27q49 0 78.5 -30t29.5 -83q0 -68 -49 -142q-51 -74 -129 -124z" />
    <glyph glyph-name="Gdotaccent" unicode="&#x120;" horiz-adv-x="1184" 
d="M789 1695.5q-30 12.5 -52 34.5q-22 21 -34.5 51t-12.5 63t12.5 63.5t34.5 52.5t52 35t63 13t63 -13t53 -35t35.5 -52.5t12.5 -63.5t-12.5 -63t-35.5 -51q-23 -22 -53 -34.5t-63 -12.5t-63 12.5zM338 -404q-61 20 -105 57t-68 89t-24 113q0 59 21 110.5t59 91.5
q37 39 88 60.5t108 21.5q79 0 126.5 -38t47.5 -103q0 -49 -22 -78q-19 25 -50.5 39t-66.5 14q-63 0 -100 -40q-39 -41 -39 -107q0 -65 38 -106q37 -42 95 -42q71 0 122 63.5t79 188.5l102 453h-8q-57 -78 -135.5 -119t-171.5 -41q-90 0 -163 36.5t-125 104.5t-80 164
t-28 213q0 113 25.5 217.5t74.5 195.5q98 184 267 288q174 108 381 108q86 0 156.5 -19.5t119.5 -55.5q49 -37 75 -89.5t26 -117.5q0 -87 -43 -141q-21 -26 -50.5 -40t-62.5 -14q-38 0 -72 16.5t-57 47.5q36 24 62 79t26 109q0 62 -35.5 95.5t-101.5 33.5q-60 0 -118.5 -28
t-112.5 -79q-53 -50 -98 -119.5t-77 -150.5q-69 -171 -69 -360q0 -155 48.5 -235.5t141.5 -80.5q112 0 195.5 115.5t136.5 341.5l242 -2l-150 -688q-66 -304 -185 -449q-119 -143 -310 -143q-74 0 -135 20z" />
    <glyph glyph-name="uni1E20" unicode="&#x1e20;" horiz-adv-x="1184" 
d="M511 1890h655l-30 -152h-658zM338 -404q-61 20 -105 57t-68 89t-24 113q0 59 21 110.5t59 91.5q37 39 88 60.5t108 21.5q79 0 126.5 -38t47.5 -103q0 -49 -22 -78q-19 25 -50.5 39t-66.5 14q-63 0 -100 -40q-39 -41 -39 -107q0 -65 38 -106q37 -42 95 -42q71 0 122 63.5
t79 188.5l102 453h-8q-57 -78 -135.5 -119t-171.5 -41q-90 0 -163 36.5t-125 104.5t-80 164t-28 213q0 113 25.5 217.5t74.5 195.5q98 184 267 288q174 108 381 108q86 0 156.5 -19.5t119.5 -55.5q49 -37 75 -89.5t26 -117.5q0 -87 -43 -141q-21 -26 -50.5 -40t-62.5 -14
q-38 0 -72 16.5t-57 47.5q36 24 62 79t26 109q0 62 -35.5 95.5t-101.5 33.5q-60 0 -118.5 -28t-112.5 -79q-53 -50 -98 -119.5t-77 -150.5q-69 -171 -69 -360q0 -155 48.5 -235.5t141.5 -80.5q112 0 195.5 115.5t136.5 341.5l242 -2l-150 -688q-66 -304 -185 -449
q-119 -143 -310 -143q-74 0 -135 20z" />
    <glyph glyph-name="H" unicode="H" horiz-adv-x="1362" 
d="M502 1393q-138 -58 -212.5 -172t-74.5 -277q0 -66 15 -102q4 -13 10 -23q4 -7 4 -14q-110 0 -163 44q-56 47 -56 155q0 66 28.5 132t81.5 127q51 59 120 109t150 87q172 77 338 77q46 0 82 -4l-131 -610h301l131 610h295l-325 -1532h-295l164 770h-301l-164 -770h-295z
" />
    <glyph glyph-name="Hbar" unicode="&#x126;" horiz-adv-x="1362" 
d="M430 1057h-96l29 103h89l50 233q-138 -58 -212.5 -172t-74.5 -277q0 -66 15 -102q4 -13 10 -23q4 -7 4 -14q-110 0 -163 44q-56 47 -56 155q0 66 28.5 132t81.5 127q51 59 120 109t150 87q172 77 338 77q46 0 82 -4l-80 -372h301l80 372h295l-79 -372h177l-29 -103h-170
l-224 -1057h-295l164 770h-301l-164 -770h-295zM995 922l29 135h-301l-29 -135h301z" />
    <glyph glyph-name="uni1E2A" unicode="&#x1e2a;" horiz-adv-x="1362" 
d="M502 1393q-138 -58 -212.5 -172t-74.5 -277q0 -66 15 -102q4 -13 10 -23q4 -7 4 -14q-110 0 -163 44q-56 47 -56 155q0 66 28.5 132t81.5 127q51 59 120 109t150 87q172 77 338 77q46 0 82 -4l-131 -610h301l131 610h295l-325 -1532h-295l164 770h-301l-164 -770h-295z
M344 -347q-75 68 -75 199h172q0 -77 39.5 -118.5t112.5 -41.5q39 0 75.5 12.5t65.5 34.5q28 21 46 50.5t23 62.5h166q-8 -56 -43 -104.5t-90 -85.5q-56 -37 -126 -57t-147 -20q-144 0 -219 68z" />
    <glyph glyph-name="Hcircumflex" unicode="&#x124;" horiz-adv-x="1362" 
d="M1125 2048h43l123 -387h-65l-123 164l-322 -164h-90zM502 1393q-138 -58 -212.5 -172t-74.5 -277q0 -66 15 -102q4 -13 10 -23q4 -7 4 -14q-110 0 -163 44q-56 47 -56 155q0 66 28.5 132t81.5 127q51 59 120 109t150 87q172 77 338 77q46 0 82 -4l-131 -610h301l131 610
h295l-325 -1532h-295l164 770h-301l-164 -770h-295z" />
    <glyph glyph-name="uni1E24" unicode="&#x1e24;" horiz-adv-x="1362" 
d="M502 1393q-138 -58 -212.5 -172t-74.5 -277q0 -66 15 -102q4 -13 10 -23q4 -7 4 -14q-110 0 -163 44q-56 47 -56 155q0 66 28.5 132t81.5 127q51 59 120 109t150 87q172 77 338 77q46 0 82 -4l-131 -610h301l131 610h295l-325 -1532h-295l164 770h-301l-164 -770h-295z
M530 -460.5q-30 12.5 -52 34.5t-34.5 52t-12.5 63t12.5 63t34.5 53t52 35.5t63 12.5t63 -12.5t53 -35.5t35.5 -53t12.5 -63t-12.5 -63t-35.5 -52t-53 -34.5t-63 -12.5t-63 12.5z" />
    <glyph glyph-name="I" unicode="I" horiz-adv-x="768" 
d="M489 1391q-138 -57 -212 -170t-74 -277q0 -64 14 -102q4 -13 10 -23q4 -7 4 -14q-111 0 -162 44q-57 48 -57 155q0 67 29 132.5t82 126.5q50 58 119.5 108.5t150.5 87.5q170 77 338 77q46 0 82 -4l-326 -1532h-294z" />
    <glyph glyph-name="IJ" unicode="&#x132;" horiz-adv-x="1358" 
d="M309 -344q-80 74 -80 201q0 79 31 143h-67l296 1391q-138 -57 -212 -170t-74 -277q0 -64 14 -102q4 -13 10 -23q4 -7 4 -14q-111 0 -162 44q-57 48 -57 155q0 67 29 132.5t82 126.5q50 58 119.5 108.5t150.5 87.5q170 77 338 77q46 0 82 -4l-301 -1413q63 -10 100 -45
t37 -86q0 -29 -14 -68q-47 47 -100 47q-27 0 -52 -11.5t-43 -32.5t-28.5 -48t-10.5 -57q0 -61 39 -100q40 -40 107 -40q32 0 58.5 11.5t49.5 38.5q51 61 80 202l336 1538l307 68l-307 -1454q-48 -234 -158 -360q-130 -146 -354 -146q-164 0 -250 80z" />
    <glyph glyph-name="Iacute" unicode="&#xcd;" horiz-adv-x="768" 
d="M787 2048h215l-247 -387h-154zM489 1391q-138 -57 -212 -170t-74 -277q0 -64 14 -102q4 -13 10 -23q4 -7 4 -14q-111 0 -162 44q-57 48 -57 155q0 67 29 132.5t82 126.5q50 58 119.5 108.5t150.5 87.5q170 77 338 77q46 0 82 -4l-326 -1532h-294z" />
    <glyph glyph-name="Ibreve" unicode="&#x12c;" horiz-adv-x="768" 
d="M434.5 1741.5q-79.5 71.5 -79.5 211.5h183q0 -82 42 -126t119 -44q41 0 80 13t70 37q30 24 49.5 54.5t24.5 65.5h176q-9 -59 -46 -110.5t-96 -90.5q-58 -39 -133 -60.5t-157 -21.5q-153 0 -232.5 71.5zM489 1391q-138 -57 -212 -170t-74 -277q0 -64 14 -102q4 -13 10 -23
q4 -7 4 -14q-111 0 -162 44q-57 48 -57 155q0 67 29 132.5t82 126.5q50 58 119.5 108.5t150.5 87.5q170 77 338 77q46 0 82 -4l-326 -1532h-294z" />
    <glyph glyph-name="uni01CF" unicode="&#x1cf;" horiz-adv-x="768" 
d="M543 2048h65l123 -164l322 164h90l-434 -387h-43zM489 1391q-138 -57 -212 -170t-74 -277q0 -64 14 -102q4 -13 10 -23q4 -7 4 -14q-111 0 -162 44q-57 48 -57 155q0 67 29 132.5t82 126.5q50 58 119.5 108.5t150.5 87.5q170 77 338 77q46 0 82 -4l-326 -1532h-294z" />
    <glyph glyph-name="Icircumflex" unicode="&#xce;" horiz-adv-x="768" 
d="M783 2048h43l123 -387h-65l-123 164l-322 -164h-90zM489 1391q-138 -57 -212 -170t-74 -277q0 -64 14 -102q4 -13 10 -23q4 -7 4 -14q-111 0 -162 44q-57 48 -57 155q0 67 29 132.5t82 126.5q50 58 119.5 108.5t150.5 87.5q170 77 338 77q46 0 82 -4l-326 -1532h-294z
" />
    <glyph glyph-name="uni0208" unicode="&#x208;" horiz-adv-x="768" 
d="M128 2048h215l187 -387h-113zM460 2048h215l186 -387h-112zM489 1391q-138 -57 -212 -170t-74 -277q0 -64 14 -102q4 -13 10 -23q4 -7 4 -14q-111 0 -162 44q-57 48 -57 155q0 67 29 132.5t82 126.5q50 58 119.5 108.5t150.5 87.5q170 77 338 77q46 0 82 -4l-326 -1532
h-294z" />
    <glyph glyph-name="Idieresis" unicode="&#xcf;" horiz-adv-x="768" 
d="M418 1722q-36 36 -36 88q0 24 9.5 47t26.5 41q35 37 89 37q25 0 48 -10t40 -27t27 -40t10 -48q0 -53 -37 -88q-18 -17 -41 -26.5t-47 -9.5q-53 0 -89 36zM787 1722q-36 36 -36 88q0 24 9.5 47t26.5 41q35 37 89 37q49 0 88 -37q17 -17 27 -40t10 -48q0 -53 -37 -88
q-39 -36 -88 -36q-53 0 -89 36zM489 1391q-138 -57 -212 -170t-74 -277q0 -64 14 -102q4 -13 10 -23q4 -7 4 -14q-111 0 -162 44q-57 48 -57 155q0 67 29 132.5t82 126.5q50 58 119.5 108.5t150.5 87.5q170 77 338 77q46 0 82 -4l-326 -1532h-294z" />
    <glyph glyph-name="Idotaccent" unicode="&#x130;" horiz-adv-x="768" 
d="M668 1695.5q-30 12.5 -52 34.5q-22 21 -34.5 51t-12.5 63t12.5 63.5t34.5 52.5t52 35t63 13t63 -13t53 -35t35.5 -52.5t12.5 -63.5t-12.5 -63t-35.5 -51q-23 -22 -53 -34.5t-63 -12.5t-63 12.5zM489 1391q-138 -57 -212 -170t-74 -277q0 -64 14 -102q4 -13 10 -23
q4 -7 4 -14q-111 0 -162 44q-57 48 -57 155q0 67 29 132.5t82 126.5q50 58 119.5 108.5t150.5 87.5q170 77 338 77q46 0 82 -4l-326 -1532h-294z" />
    <glyph glyph-name="uni1ECA" unicode="&#x1eca;" horiz-adv-x="768" 
d="M489 1391q-138 -57 -212 -170t-74 -277q0 -64 14 -102q4 -13 10 -23q4 -7 4 -14q-111 0 -162 44q-57 48 -57 155q0 67 29 132.5t82 126.5q50 58 119.5 108.5t150.5 87.5q170 77 338 77q46 0 82 -4l-326 -1532h-294zM219 -460.5q-30 12.5 -52 34.5t-34.5 52t-12.5 63
t12.5 63t34.5 53t52 35.5t63 12.5t63 -12.5t53 -35.5t35.5 -53t12.5 -63t-12.5 -63t-35.5 -52t-53 -34.5t-63 -12.5t-63 12.5z" />
    <glyph glyph-name="Igrave" unicode="&#xcc;" horiz-adv-x="768" 
d="M440 2048h215l60 -387h-154zM489 1391q-138 -57 -212 -170t-74 -277q0 -64 14 -102q4 -13 10 -23q4 -7 4 -14q-111 0 -162 44q-57 48 -57 155q0 67 29 132.5t82 126.5q50 58 119.5 108.5t150.5 87.5q170 77 338 77q46 0 82 -4l-326 -1532h-294z" />
    <glyph glyph-name="uni1EC8" unicode="&#x1ec8;" horiz-adv-x="768" 
d="M613 1627v179q40 -9 91 -9q47 0 71.5 19.5t24.5 53.5q0 74 -96 74q-72 0 -122 -33l-54 86q36 22 90.5 36t109.5 14q45 0 84.5 -12t68.5 -33q29 -22 44 -52.5t15 -66.5t-15.5 -66.5t-44.5 -54.5q-61 -50 -156 -57l-15 -83zM489 1391q-138 -57 -212 -170t-74 -277
q0 -64 14 -102q4 -13 10 -23q4 -7 4 -14q-111 0 -162 44q-57 48 -57 155q0 67 29 132.5t82 126.5q50 58 119.5 108.5t150.5 87.5q170 77 338 77q46 0 82 -4l-326 -1532h-294z" />
    <glyph glyph-name="uni020A" unicode="&#x20a;" horiz-adv-x="768" 
d="M319 1793.5q37 51.5 96 91.5q58 39 133 60t157 21q153 0 232.5 -72t79.5 -211h-183q0 82 -42 126t-119 44q-41 0 -79.5 -13t-69.5 -37q-31 -23 -50.5 -54t-24.5 -66h-176q9 59 46 110.5zM489 1391q-138 -57 -212 -170t-74 -277q0 -64 14 -102q4 -13 10 -23q4 -7 4 -14
q-111 0 -162 44q-57 48 -57 155q0 67 29 132.5t82 126.5q50 58 119.5 108.5t150.5 87.5q170 77 338 77q46 0 82 -4l-326 -1532h-294z" />
    <glyph glyph-name="Imacron" unicode="&#x12a;" horiz-adv-x="768" 
d="M346 1890h655l-30 -152h-658zM489 1391q-138 -57 -212 -170t-74 -277q0 -64 14 -102q4 -13 10 -23q4 -7 4 -14q-111 0 -162 44q-57 48 -57 155q0 67 29 132.5t82 126.5q50 58 119.5 108.5t150.5 87.5q170 77 338 77q46 0 82 -4l-326 -1532h-294z" />
    <glyph glyph-name="Iogonek" unicode="&#x12e;" horiz-adv-x="768" 
d="M350 2048h215l60 -387h-154zM179 -384q-28 26 -43 61t-15 75q0 142 151 248h-79l296 1391q-138 -57 -212 -170t-74 -277q0 -64 14 -102q4 -13 10 -23q4 -7 4 -14q-111 0 -162 44q-57 48 -57 155q0 67 29 132.5t82 126.5q50 58 119.5 108.5t150.5 87.5q170 77 338 77
q46 0 82 -4l-326 -1532h-110q-40 -30 -63 -78t-23 -102q0 -57 31 -91t82 -34q38 0 75.5 20.5t71.5 59.5l35 -47q-30 -68 -108 -118q-36 -23 -75.5 -35.5t-78.5 -12.5q-88 0 -145 54z" />
    <glyph glyph-name="Itilde" unicode="&#x128;" horiz-adv-x="768" 
d="M676.5 1686.5q-40.5 9.5 -94.5 28.5q-57 20 -91.5 29t-72.5 9q-76 0 -135 -53l-12 4q49 99 136.5 150t205.5 51q49 0 89 -8.5t91 -25.5q54 -18 86 -26t72 -8q39 0 72.5 12t56.5 35l12 -2q-8 -36 -38.5 -72.5t-75.5 -65.5q-46 -31 -103 -49t-113 -18q-45 0 -85.5 9.5z
M489 1391q-138 -57 -212 -170t-74 -277q0 -64 14 -102q4 -13 10 -23q4 -7 4 -14q-111 0 -162 44q-57 48 -57 155q0 67 29 132.5t82 126.5q50 58 119.5 108.5t150.5 87.5q170 77 338 77q46 0 82 -4l-326 -1532h-294z" />
    <glyph glyph-name="J" unicode="J" horiz-adv-x="1098" 
d="M113 -344q-78 76 -78 209q0 52 17 101.5t48 87.5q33 40 79.5 62.5t105.5 22.5q41 0 72.5 -3.5t58.5 -15.5q69 -31 69 -118q0 -36 -12 -82q-37 31 -65 43q-25 10 -58 10q-68 0 -107 -47q-18 -20 -27 -47.5t-9 -56.5q0 -73 48 -112q19 -16 43 -24t48 -8q36 0 63.5 10
t50.5 36q47 55 81 206l321 1463q-138 -57 -213.5 -171.5t-75.5 -277.5q0 -66 15 -102q4 -13 10 -23q4 -7 4 -14q-111 0 -162 44q-57 48 -57 155q0 67 29 132.5t82 126.5q50 58 119.5 108.5t150.5 87.5q170 77 338 77h82l-307 -1454q-26 -122 -66.5 -214.5t-101.5 -155.5
q-65 -67 -156 -101.5t-215 -34.5q-145 0 -225 80z" />
    <glyph glyph-name="Jcircumflex" unicode="&#x134;" horiz-adv-x="1098" 
d="M1145 2048h43l123 -387h-65l-123 164l-322 -164h-90zM113 -344q-78 76 -78 209q0 52 17 101.5t48 87.5q33 40 79.5 62.5t105.5 22.5q41 0 72.5 -3.5t58.5 -15.5q69 -31 69 -118q0 -36 -12 -82q-37 31 -65 43q-25 10 -58 10q-68 0 -107 -47q-18 -20 -27 -47.5t-9 -56.5
q0 -73 48 -112q19 -16 43 -24t48 -8q36 0 63.5 10t50.5 36q47 55 81 206l321 1463q-138 -57 -213.5 -171.5t-75.5 -277.5q0 -66 15 -102q4 -13 10 -23q4 -7 4 -14q-111 0 -162 44q-57 48 -57 155q0 67 29 132.5t82 126.5q50 58 119.5 108.5t150.5 87.5q170 77 338 77h82
l-307 -1454q-26 -122 -66.5 -214.5t-101.5 -155.5q-65 -67 -156 -101.5t-215 -34.5q-145 0 -225 80z" />
    <glyph glyph-name="K" unicode="K" horiz-adv-x="1231" 
d="M764 10q-31 34 -31 92q0 46 14 106.5t41 156.5q27 97 40.5 160t13.5 116q0 65 -27 101q-30 38 -96 38q-39 0 -68 -8l-164 -772h-294l296 1393q-138 -58 -212 -172t-74 -277q0 -64 14 -102q4 -13 10 -23q4 -7 4 -14q-111 0 -162 44q-57 48 -57 155q0 67 29 132.5t82 126.5
q50 58 119.5 108.5t150.5 87.5q170 77 338 77q46 0 82 -4l-133 -627l58 77l147 197l76 103l71 95l58 78l40 52l15 19h215l-569 -656q26 0 37 1t34 1q140 0 202 -62q52 -53 52 -157q0 -57 -13 -121.5t-37 -152.5q-27 -98 -38.5 -149.5t-11.5 -94.5q0 -48 21.5 -84.5
t58.5 -50.5q-123 -35 -203 -35q-89 0 -129 45z" />
    <glyph glyph-name="Kcommaaccent" unicode="&#x136;" horiz-adv-x="1231" 
d="M764 10q-31 34 -31 92q0 46 14 106.5t41 156.5q27 97 40.5 160t13.5 116q0 65 -27 101q-30 38 -96 38q-39 0 -68 -8l-164 -772h-294l296 1393q-138 -58 -212 -172t-74 -277q0 -64 14 -102q4 -13 10 -23q4 -7 4 -14q-111 0 -162 44q-57 48 -57 155q0 67 29 132.5t82 126.5
q50 58 119.5 108.5t150.5 87.5q170 77 338 77q46 0 82 -4l-133 -627l58 77l147 197l76 103l71 95l58 78l40 52l15 19h215l-569 -656q26 0 37 1t34 1q140 0 202 -62q52 -53 52 -157q0 -57 -13 -121.5t-37 -152.5q-27 -98 -38.5 -149.5t-11.5 -94.5q0 -48 21.5 -84.5
t58.5 -50.5q-123 -35 -203 -35q-89 0 -129 45zM515 -469q35 40 54 65q16 22 16 42q0 16 -9 29t-28 33q-18 18 -27.5 34.5t-9.5 38.5q0 42 32 69t83 27q49 0 78.5 -30t29.5 -83q0 -68 -49 -142q-51 -74 -129 -124z" />
    <glyph glyph-name="L" unicode="L" horiz-adv-x="776" 
d="M1008 -480.5q-69 31.5 -149 89.5q-73 51 -145 112q-169 140 -309 198q-81 34 -174 34h-23q-6 0 -24 -2l305 1419q-138 -57 -212 -169.5t-74 -276.5q0 -63 14 -103q4 -13 10 -23q4 -7 4 -14q-111 0 -162 45q-57 48 -57 154q0 67 29 132.5t82 126.5q51 59 120.5 109.5
t149.5 87.5q170 77 338 77q37 0 82 -5l-315 -1470q49 -11 99.5 -33t115.5 -57l112 -60q130 -71 235 -98q60 -16 126 -16q93 0 172 33q-18 -150 -73 -235q-27 -42 -62.5 -64.5t-77.5 -22.5q-68 0 -137 31.5z" />
    <glyph glyph-name="Lacute" unicode="&#x139;" horiz-adv-x="776" 
d="M812 2048h215l-248 -387h-154zM1008 -480.5q-69 31.5 -149 89.5q-73 51 -145 112q-169 140 -309 198q-81 34 -174 34h-23q-6 0 -24 -2l305 1419q-138 -57 -212 -169.5t-74 -276.5q0 -63 14 -103q4 -13 10 -23q4 -7 4 -14q-111 0 -162 45q-57 48 -57 154q0 67 29 132.5
t82 126.5q51 59 120.5 109.5t149.5 87.5q170 77 338 77q37 0 82 -5l-315 -1470q49 -11 99.5 -33t115.5 -57l112 -60q130 -71 235 -98q60 -16 126 -16q93 0 172 33q-18 -150 -73 -235q-27 -42 -62.5 -64.5t-77.5 -22.5q-68 0 -137 31.5z" />
    <glyph glyph-name="Lcaron" unicode="&#x13d;" horiz-adv-x="776" 
d="M583 2048h65l123 -164l322 164h90l-434 -387h-43zM1008 -480.5q-69 31.5 -149 89.5q-73 51 -145 112q-169 140 -309 198q-81 34 -174 34h-23q-6 0 -24 -2l305 1419q-138 -57 -212 -169.5t-74 -276.5q0 -63 14 -103q4 -13 10 -23q4 -7 4 -14q-111 0 -162 45
q-57 48 -57 154q0 67 29 132.5t82 126.5q51 59 120.5 109.5t149.5 87.5q170 77 338 77q37 0 82 -5l-315 -1470q49 -11 99.5 -33t115.5 -57l112 -60q130 -71 235 -98q60 -16 126 -16q93 0 172 33q-18 -150 -73 -235q-27 -42 -62.5 -64.5t-77.5 -22.5q-68 0 -137 31.5z" />
    <glyph glyph-name="Lcommaaccent" unicode="&#x13b;" horiz-adv-x="776" 
d="M1008 -480.5q-69 31.5 -149 89.5q-73 51 -145 112q-169 140 -309 198q-81 34 -174 34h-23q-6 0 -24 -2l305 1419q-138 -57 -212 -169.5t-74 -276.5q0 -63 14 -103q4 -13 10 -23q4 -7 4 -14q-111 0 -162 45q-57 48 -57 154q0 67 29 132.5t82 126.5q51 59 120.5 109.5
t149.5 87.5q170 77 338 77q37 0 82 -5l-315 -1470q49 -11 99.5 -33t115.5 -57l112 -60q130 -71 235 -98q60 -16 126 -16q93 0 172 33q-18 -150 -73 -235q-27 -42 -62.5 -64.5t-77.5 -22.5q-68 0 -137 31.5zM165 -469q35 40 54 65q16 22 16 42q0 16 -9 29t-28 33
q-18 18 -27.5 34.5t-9.5 38.5q0 42 32 69t83 27q49 0 78.5 -30t29.5 -83q0 -68 -49 -142q-51 -74 -129 -124z" />
    <glyph glyph-name="Ldot" unicode="&#x13f;" horiz-adv-x="1240" 
d="M1008 -480.5q-69 31.5 -149 89.5q-73 51 -145 112q-169 140 -309 198q-81 34 -174 34h-23q-6 0 -24 -2l305 1419q-138 -57 -212 -169.5t-74 -276.5q0 -63 14 -103q4 -13 10 -23q4 -7 4 -14q-111 0 -162 45q-57 48 -57 154q0 67 29 132.5t82 126.5q51 59 120.5 109.5
t149.5 87.5q170 77 338 77q37 0 82 -5l-315 -1470q49 -11 99.5 -33t115.5 -57l112 -60q130 -71 235 -98q60 -16 126 -16q93 0 172 33q-18 -150 -73 -235q-27 -42 -62.5 -64.5t-77.5 -22.5q-68 0 -137 31.5zM921 364.5q-30 12.5 -52 34.5q-22 21 -34.5 51t-12.5 63t12.5 63.5
t34.5 52.5t52 35t63 13t63 -13t53 -35t35.5 -52.5t12.5 -63.5t-12.5 -63t-35.5 -51q-23 -22 -53 -34.5t-63 -12.5t-63 12.5z" />
    <glyph glyph-name="uni1E36" unicode="&#x1e36;" horiz-adv-x="776" 
d="M1008 -480.5q-69 31.5 -149 89.5q-73 51 -145 112q-169 140 -309 198q-81 34 -174 34h-23q-6 0 -24 -2l305 1419q-138 -57 -212 -169.5t-74 -276.5q0 -63 14 -103q4 -13 10 -23q4 -7 4 -14q-111 0 -162 45q-57 48 -57 154q0 67 29 132.5t82 126.5q51 59 120.5 109.5
t149.5 87.5q170 77 338 77q37 0 82 -5l-315 -1470q49 -11 99.5 -33t115.5 -57l112 -60q130 -71 235 -98q60 -16 126 -16q93 0 172 33q-18 -150 -73 -235q-27 -42 -62.5 -64.5t-77.5 -22.5q-68 0 -137 31.5zM240 -460.5q-30 12.5 -52 34.5t-34.5 52t-12.5 63t12.5 63t34.5 53
t52 35.5t63 12.5t63 -12.5t53 -35.5t35.5 -53t12.5 -63t-12.5 -63t-35.5 -52t-53 -34.5t-63 -12.5t-63 12.5z" />
    <glyph glyph-name="Lslash" unicode="&#x141;" horiz-adv-x="803" 
d="M1008 -480.5q-69 31.5 -149 89.5q-73 51 -145 112q-169 140 -309 198q-81 34 -174 34h-23q-6 0 -24 -2l144 653l-133 -80l4 109l155 100l135 637q-138 -57 -212 -169.5t-74 -276.5q0 -63 14 -103q4 -13 10 -23q4 -7 4 -14q-111 0 -162 45q-57 48 -57 154q0 67 29 132.5
t82 126.5q51 59 120.5 109.5t149.5 87.5q170 77 338 77q37 0 82 -5l-113 -538l238 141l-8 -125l-260 -160l-172 -788q49 -11 99.5 -33t115.5 -57q146 -81 226 -116q133 -58 247 -58q93 0 172 33q-18 -150 -73 -235q-27 -42 -62.5 -64.5t-77.5 -22.5q-68 0 -137 31.5z" />
    <glyph glyph-name="M" unicode="M" horiz-adv-x="1612" 
d="M657 1407q-156 -52 -240.5 -169.5t-84.5 -291.5q0 -66 14 -104q3 -11 10 -22q4 -7 4 -15q-104 0 -159 42q-60 46 -60 144q0 64 26 130t74 128q47 60 109.5 112.5t135.5 91.5q73 40 151.5 61.5t155.5 21.5q76 0 155 -29l-47 -1079l451 1079h295l-215 -1507h-295l131 920
l-385 -920h-281l41 924l-342 -924h-164z" />
    <glyph glyph-name="uni1E42" unicode="&#x1e42;" horiz-adv-x="1612" 
d="M657 1407q-156 -52 -240.5 -169.5t-84.5 -291.5q0 -66 14 -104q3 -11 10 -22q4 -7 4 -15q-104 0 -159 42q-60 46 -60 144q0 64 26 130t74 128q47 60 109.5 112.5t135.5 91.5q73 40 151.5 61.5t155.5 21.5q76 0 155 -29l-47 -1079l451 1079h295l-215 -1507h-295l131 920
l-385 -920h-281l41 924l-342 -924h-164zM620 -460.5q-30 12.5 -52 34.5t-34.5 52t-12.5 63t12.5 63t34.5 53t52 35.5t63 12.5t63 -12.5t53 -35.5t35.5 -53t12.5 -63t-12.5 -63t-35.5 -52t-53 -34.5t-63 -12.5t-63 12.5z" />
    <glyph glyph-name="N" unicode="N" horiz-adv-x="1368" 
d="M497 1403q-141 -50 -212.5 -154.5t-71.5 -255.5q0 -66 14.5 -120.5t40.5 -88.5q-132 0 -194 53.5t-62 168.5q0 142 86 269q82 121 223 195q145 74 313 74q47 0 82.5 -6.5t79.5 -21.5l247 -1096l229 1112h199l-334 -1532h-283l-237 1016l-234 -1016h-194z" />
    <glyph glyph-name="Nacute" unicode="&#x143;" horiz-adv-x="1438" 
d="M1202 2048h215l-248 -387h-153zM497 1403q-141 -50 -212.5 -154.5t-71.5 -255.5q0 -66 14.5 -120.5t40.5 -88.5q-132 0 -194 53.5t-62 168.5q0 142 86 269q82 121 223 195q145 74 313 74q47 0 82.5 -6.5t79.5 -21.5l247 -1096l229 1112h199l-334 -1532h-283l-237 1016
l-234 -1016h-194z" />
    <glyph glyph-name="Ncaron" unicode="&#x147;" horiz-adv-x="1368" 
d="M903 2048h65l123 -164l322 164h90l-434 -387h-43zM497 1403q-141 -50 -212.5 -154.5t-71.5 -255.5q0 -66 14.5 -120.5t40.5 -88.5q-132 0 -194 53.5t-62 168.5q0 142 86 269q82 121 223 195q145 74 313 74q47 0 82.5 -6.5t79.5 -21.5l247 -1096l229 1112h199l-334 -1532
h-283l-237 1016l-234 -1016h-194z" />
    <glyph glyph-name="Ncommaaccent" unicode="&#x145;" horiz-adv-x="1368" 
d="M497 1403q-141 -50 -212.5 -154.5t-71.5 -255.5q0 -66 14.5 -120.5t40.5 -88.5q-132 0 -194 53.5t-62 168.5q0 142 86 269q82 121 223 195q145 74 313 74q47 0 82.5 -6.5t79.5 -21.5l247 -1096l229 1112h199l-334 -1532h-283l-237 1016l-234 -1016h-194zM505 -469
q35 40 54 65q16 22 16 42q0 16 -9 29t-28 33q-18 18 -27.5 34.5t-9.5 38.5q0 42 32 69t83 27q49 0 78.5 -30t29.5 -83q0 -68 -49 -142q-51 -74 -129 -124z" />
    <glyph glyph-name="uni1E44" unicode="&#x1e44;" horiz-adv-x="1368" 
d="M1029 1695.5q-30 12.5 -52 34.5q-22 21 -34.5 51t-12.5 63t12.5 63.5t34.5 52.5t52 35t63 13t63 -13t53 -35t35.5 -52.5t12.5 -63.5t-12.5 -63t-35.5 -51q-23 -22 -53 -34.5t-63 -12.5t-63 12.5zM497 1403q-141 -50 -212.5 -154.5t-71.5 -255.5q0 -66 14.5 -120.5
t40.5 -88.5q-132 0 -194 53.5t-62 168.5q0 142 86 269q82 121 223 195q145 74 313 74q47 0 82.5 -6.5t79.5 -21.5l247 -1096l229 1112h199l-334 -1532h-283l-237 1016l-234 -1016h-194z" />
    <glyph glyph-name="uni1E46" unicode="&#x1e46;" horiz-adv-x="1368" 
d="M497 1403q-141 -50 -212.5 -154.5t-71.5 -255.5q0 -66 14.5 -120.5t40.5 -88.5q-132 0 -194 53.5t-62 168.5q0 142 86 269q82 121 223 195q145 74 313 74q47 0 82.5 -6.5t79.5 -21.5l247 -1096l229 1112h199l-334 -1532h-283l-237 1016l-234 -1016h-194zM550 -460.5
q-30 12.5 -52 34.5t-34.5 52t-12.5 63t12.5 63t34.5 53t52 35.5t63 12.5t63 -12.5t53 -35.5t35.5 -53t12.5 -63t-12.5 -63t-35.5 -52t-53 -34.5t-63 -12.5t-63 12.5z" />
    <glyph glyph-name="Eng" unicode="&#x14a;" horiz-adv-x="1481" 
d="M655.5 -405q-53.5 17 -91.5 49t-58.5 76t-20.5 98q0 74 36 116.5t97 42.5q45 0 76 -22t39 -59q-16 0 -30 -8.5t-24 -22.5q-22 -32 -22 -74q0 -49 30.5 -79.5t78.5 -30.5q33 0 63.5 17.5t56.5 50.5q54 68 79 183l16 68l-272 1016l-234 -1016h-194l317 1403
q-142 -50 -217.5 -155t-75.5 -255q0 -66 14.5 -120.5t40.5 -88.5q-133 0 -194.5 54t-61.5 170q0 142 88 268q84 120 228 194q148 74 315 74q42 0 78 -6.5t84 -21.5l238 -1096l245 1120h199l-307 -1370q-133 -592 -498 -592q-65 0 -118.5 17z" />
    <glyph glyph-name="Ntilde" unicode="&#xd1;" horiz-adv-x="1405" 
d="M1036 1686.5q-40 9.5 -94 28.5q-57 20 -91.5 29t-72.5 9q-76 0 -135 -53l-12 4q49 99 136.5 150t205.5 51q49 0 89 -8.5t91 -25.5q54 -18 86 -26t72 -8q39 0 72.5 12t56.5 35l12 -2q-8 -36 -38.5 -72.5t-75.5 -65.5q-46 -31 -103 -49t-113 -18q-46 0 -86 9.5zM497 1403
q-141 -50 -212.5 -154.5t-71.5 -255.5q0 -66 14.5 -120.5t40.5 -88.5q-132 0 -194 53.5t-62 168.5q0 142 86 269q82 121 223 195q145 74 313 74q47 0 82.5 -6.5t79.5 -21.5l247 -1096l229 1112h199l-334 -1532h-283l-237 1016l-234 -1016h-194z" />
    <glyph glyph-name="O" unicode="O" horiz-adv-x="1362" 
d="M324 81q-103 103 -103 318q0 85 16 189t46 208q32 111 79.5 212t106.5 177q137 175 307 175q31 0 55.5 -3.5t51.5 -13.5q-89 -52 -176 -226q-80 -161 -131 -363q-52 -203 -52 -363q0 -108 28 -170q30 -67 91 -67q50 0 101.5 39t101.5 110q48 69 89 160.5t71 195.5
q65 224 65 424q0 96 -11 161t-39 108q-30 46 -81 68t-131 22q-117 0 -224 -36.5t-188 -104.5q-84 -71 -131 -169t-47 -217q0 -45 11 -78q3 -13 7 -19q3 -7 3 -13q-102 0 -154.5 40.5t-52.5 131.5q0 141 118 273q116 128 301 205q195 81 406 81q256 0 377 -147
q108 -132 108 -377q0 -103 -19 -217t-57 -224q-42 -120 -103.5 -224t-141.5 -181q-185 -178 -434 -178q-171 0 -264 93z" />
    <glyph glyph-name="Oacute" unicode="&#xd3;" horiz-adv-x="1362" 
d="M999 2048h215l-247 -387h-154zM324 81q-103 103 -103 318q0 85 16 189t46 208q32 111 79.5 212t106.5 177q137 175 307 175q31 0 55.5 -3.5t51.5 -13.5q-89 -52 -176 -226q-80 -161 -131 -363q-52 -203 -52 -363q0 -108 28 -170q30 -67 91 -67q50 0 101.5 39t101.5 110
q48 69 89 160.5t71 195.5q65 224 65 424q0 96 -11 161t-39 108q-30 46 -81 68t-131 22q-117 0 -224 -36.5t-188 -104.5q-84 -71 -131 -169t-47 -217q0 -45 11 -78q3 -13 7 -19q3 -7 3 -13q-102 0 -154.5 40.5t-52.5 131.5q0 141 118 273q116 128 301 205q195 81 406 81
q256 0 377 -147q108 -132 108 -377q0 -103 -19 -217t-57 -224q-42 -120 -103.5 -224t-141.5 -181q-185 -178 -434 -178q-171 0 -264 93z" />
    <glyph glyph-name="Obreve" unicode="&#x14e;" horiz-adv-x="1362" 
d="M704.5 1741.5q-79.5 71.5 -79.5 211.5h183q0 -82 42 -126t119 -44q41 0 80 13t70 37q30 24 49.5 54.5t24.5 65.5h176q-9 -59 -46 -110.5t-96 -90.5q-58 -39 -133 -60.5t-157 -21.5q-153 0 -232.5 71.5zM324 81q-103 103 -103 318q0 85 16 189t46 208q32 111 79.5 212
t106.5 177q137 175 307 175q31 0 55.5 -3.5t51.5 -13.5q-89 -52 -176 -226q-80 -161 -131 -363q-52 -203 -52 -363q0 -108 28 -170q30 -67 91 -67q50 0 101.5 39t101.5 110q48 69 89 160.5t71 195.5q65 224 65 424q0 96 -11 161t-39 108q-30 46 -81 68t-131 22
q-117 0 -224 -36.5t-188 -104.5q-84 -71 -131 -169t-47 -217q0 -45 11 -78q3 -13 7 -19q3 -7 3 -13q-102 0 -154.5 40.5t-52.5 131.5q0 141 118 273q116 128 301 205q195 81 406 81q256 0 377 -147q108 -132 108 -377q0 -103 -19 -217t-57 -224q-42 -120 -103.5 -224
t-141.5 -181q-185 -178 -434 -178q-171 0 -264 93z" />
    <glyph glyph-name="uni01D1" unicode="&#x1d1;" horiz-adv-x="1362" 
d="M833 2048h65l123 -164l322 164h90l-434 -387h-43zM324 81q-103 103 -103 318q0 85 16 189t46 208q32 111 79.5 212t106.5 177q137 175 307 175q31 0 55.5 -3.5t51.5 -13.5q-89 -52 -176 -226q-80 -161 -131 -363q-52 -203 -52 -363q0 -108 28 -170q30 -67 91 -67
q50 0 101.5 39t101.5 110q48 69 89 160.5t71 195.5q65 224 65 424q0 96 -11 161t-39 108q-30 46 -81 68t-131 22q-117 0 -224 -36.5t-188 -104.5q-84 -71 -131 -169t-47 -217q0 -45 11 -78q3 -13 7 -19q3 -7 3 -13q-102 0 -154.5 40.5t-52.5 131.5q0 141 118 273
q116 128 301 205q195 81 406 81q256 0 377 -147q108 -132 108 -377q0 -103 -19 -217t-57 -224q-42 -120 -103.5 -224t-141.5 -181q-185 -178 -434 -178q-171 0 -264 93z" />
    <glyph glyph-name="Ocircumflex" unicode="&#xd4;" horiz-adv-x="1362" 
d="M991 2048h43l123 -387h-65l-123 164l-322 -164h-90zM324 81q-103 103 -103 318q0 85 16 189t46 208q32 111 79.5 212t106.5 177q137 175 307 175q31 0 55.5 -3.5t51.5 -13.5q-89 -52 -176 -226q-80 -161 -131 -363q-52 -203 -52 -363q0 -108 28 -170q30 -67 91 -67
q50 0 101.5 39t101.5 110q48 69 89 160.5t71 195.5q65 224 65 424q0 96 -11 161t-39 108q-30 46 -81 68t-131 22q-117 0 -224 -36.5t-188 -104.5q-84 -71 -131 -169t-47 -217q0 -45 11 -78q3 -13 7 -19q3 -7 3 -13q-102 0 -154.5 40.5t-52.5 131.5q0 141 118 273
q116 128 301 205q195 81 406 81q256 0 377 -147q108 -132 108 -377q0 -103 -19 -217t-57 -224q-42 -120 -103.5 -224t-141.5 -181q-185 -178 -434 -178q-171 0 -264 93z" />
    <glyph glyph-name="uni1ED0" unicode="&#x1ed0;" horiz-adv-x="1362" 
d="M1280 2048h141l-178 -274h-90zM1027 1946h36l103 -285h-92l-66 147l-226 -147h-120zM324 81q-103 103 -103 318q0 85 16 189t46 208q32 111 79.5 212t106.5 177q137 175 307 175q31 0 55.5 -3.5t51.5 -13.5q-89 -52 -176 -226q-80 -161 -131 -363q-52 -203 -52 -363
q0 -108 28 -170q30 -67 91 -67q50 0 101.5 39t101.5 110q48 69 89 160.5t71 195.5q65 224 65 424q0 96 -11 161t-39 108q-30 46 -81 68t-131 22q-117 0 -224 -36.5t-188 -104.5q-84 -71 -131 -169t-47 -217q0 -45 11 -78q3 -13 7 -19q3 -7 3 -13q-102 0 -154.5 40.5
t-52.5 131.5q0 141 118 273q116 128 301 205q195 81 406 81q256 0 377 -147q108 -132 108 -377q0 -103 -19 -217t-57 -224q-42 -120 -103.5 -224t-141.5 -181q-185 -178 -434 -178q-171 0 -264 93z" />
    <glyph glyph-name="uni1ED8" unicode="&#x1ed8;" horiz-adv-x="1362" 
d="M991 2048h43l123 -387h-65l-123 164l-322 -164h-90zM324 81q-103 103 -103 318q0 85 16 189t46 208q32 111 79.5 212t106.5 177q137 175 307 175q31 0 55.5 -3.5t51.5 -13.5q-89 -52 -176 -226q-80 -161 -131 -363q-52 -203 -52 -363q0 -108 28 -170q30 -67 91 -67
q50 0 101.5 39t101.5 110q48 69 89 160.5t71 195.5q65 224 65 424q0 96 -11 161t-39 108q-30 46 -81 68t-131 22q-117 0 -224 -36.5t-188 -104.5q-84 -71 -131 -169t-47 -217q0 -45 11 -78q3 -13 7 -19q3 -7 3 -13q-102 0 -154.5 40.5t-52.5 131.5q0 141 118 273
q116 128 301 205q195 81 406 81q256 0 377 -147q108 -132 108 -377q0 -103 -19 -217t-57 -224q-42 -120 -103.5 -224t-141.5 -181q-185 -178 -434 -178q-171 0 -264 93zM470 -460.5q-30 12.5 -52 34.5t-34.5 52t-12.5 63t12.5 63t34.5 53t52 35.5t63 12.5t63 -12.5t53 -35.5
t35.5 -53t12.5 -63t-12.5 -63t-35.5 -52t-53 -34.5t-63 -12.5t-63 12.5z" />
    <glyph glyph-name="uni1ED2" unicode="&#x1ed2;" horiz-adv-x="1362" 
d="M1150 2047h136l39 -275h-83zM1026 1946h36l103 -285h-92l-66 147l-226 -147h-120zM324 81q-103 103 -103 318q0 85 16 189t46 208q32 111 79.5 212t106.5 177q137 175 307 175q31 0 55.5 -3.5t51.5 -13.5q-89 -52 -176 -226q-80 -161 -131 -363q-52 -203 -52 -363
q0 -108 28 -170q30 -67 91 -67q50 0 101.5 39t101.5 110q48 69 89 160.5t71 195.5q65 224 65 424q0 96 -11 161t-39 108q-30 46 -81 68t-131 22q-117 0 -224 -36.5t-188 -104.5q-84 -71 -131 -169t-47 -217q0 -45 11 -78q3 -13 7 -19q3 -7 3 -13q-102 0 -154.5 40.5
t-52.5 131.5q0 141 118 273q116 128 301 205q195 81 406 81q256 0 377 -147q108 -132 108 -377q0 -103 -19 -217t-57 -224q-42 -120 -103.5 -224t-141.5 -181q-185 -178 -434 -178q-171 0 -264 93z" />
    <glyph glyph-name="uni1ED4" unicode="&#x1ed4;" horiz-adv-x="1362" 
d="M1219 1753v126q30 -9 64 -9q68 0 68 55q0 51 -68 51q-48 0 -86 -23l-37 59q24 16 62 26t76 10q67 0 109 -32t42 -83t-42.5 -85.5t-112.5 -39.5l-6 -59zM1026 1946h36l103 -285h-92l-66 147l-226 -147h-120zM324 81q-103 103 -103 318q0 85 16 189t46 208q32 111 79.5 212
t106.5 177q137 175 307 175q31 0 55.5 -3.5t51.5 -13.5q-89 -52 -176 -226q-80 -161 -131 -363q-52 -203 -52 -363q0 -108 28 -170q30 -67 91 -67q50 0 101.5 39t101.5 110q48 69 89 160.5t71 195.5q65 224 65 424q0 96 -11 161t-39 108q-30 46 -81 68t-131 22
q-117 0 -224 -36.5t-188 -104.5q-84 -71 -131 -169t-47 -217q0 -45 11 -78q3 -13 7 -19q3 -7 3 -13q-102 0 -154.5 40.5t-52.5 131.5q0 141 118 273q116 128 301 205q195 81 406 81q256 0 377 -147q108 -132 108 -377q0 -103 -19 -217t-57 -224q-42 -120 -103.5 -224
t-141.5 -181q-185 -178 -434 -178q-171 0 -264 93z" />
    <glyph glyph-name="uni1ED6" unicode="&#x1ed6;" horiz-adv-x="1362" 
d="M981 1910q-41 15 -67 22t-55 7q-54 0 -94 -37l-9 3q34 69 96 105.5t145 36.5q35 0 63.5 -6t63.5 -18q38 -13 61 -18.5t51 -5.5q60 0 90 33l9 -2q-5 -25 -27 -51t-55 -47q-35 -22 -78.5 -34.5t-89.5 -12.5l81 -224h-92l-66 147l-226 -147h-120zM324 81q-103 103 -103 318
q0 85 16 189t46 208q32 111 79.5 212t106.5 177q137 175 307 175q31 0 55.5 -3.5t51.5 -13.5q-89 -52 -176 -226q-80 -161 -131 -363q-52 -203 -52 -363q0 -108 28 -170q30 -67 91 -67q50 0 101.5 39t101.5 110q48 69 89 160.5t71 195.5q65 224 65 424q0 96 -11 161t-39 108
q-30 46 -81 68t-131 22q-117 0 -224 -36.5t-188 -104.5q-84 -71 -131 -169t-47 -217q0 -45 11 -78q3 -13 7 -19q3 -7 3 -13q-102 0 -154.5 40.5t-52.5 131.5q0 141 118 273q116 128 301 205q195 81 406 81q256 0 377 -147q108 -132 108 -377q0 -103 -19 -217t-57 -224
q-42 -120 -103.5 -224t-141.5 -181q-185 -178 -434 -178q-171 0 -264 93z" />
    <glyph glyph-name="uni020C" unicode="&#x20c;" horiz-adv-x="1362" 
d="M387 2048h215l187 -387h-113zM719 2048h215l186 -387h-112zM324 81q-103 103 -103 318q0 85 16 189t46 208q32 111 79.5 212t106.5 177q137 175 307 175q31 0 55.5 -3.5t51.5 -13.5q-89 -52 -176 -226q-80 -161 -131 -363q-52 -203 -52 -363q0 -108 28 -170
q30 -67 91 -67q50 0 101.5 39t101.5 110q48 69 89 160.5t71 195.5q65 224 65 424q0 96 -11 161t-39 108q-30 46 -81 68t-131 22q-117 0 -224 -36.5t-188 -104.5q-84 -71 -131 -169t-47 -217q0 -45 11 -78q3 -13 7 -19q3 -7 3 -13q-102 0 -154.5 40.5t-52.5 131.5
q0 141 118 273q116 128 301 205q195 81 406 81q256 0 377 -147q108 -132 108 -377q0 -103 -19 -217t-57 -224q-42 -120 -103.5 -224t-141.5 -181q-185 -178 -434 -178q-171 0 -264 93z" />
    <glyph glyph-name="Odieresis" unicode="&#xd6;" horiz-adv-x="1362" 
d="M626 1722q-36 36 -36 88q0 24 9.5 47t26.5 41q35 37 89 37q49 0 88 -37q17 -17 27 -40t10 -48q0 -53 -37 -88q-39 -36 -88 -36q-53 0 -89 36zM994 1722q-36 34 -36 88q0 25 9.5 48t26.5 40q37 37 89 37q25 0 48 -10t40 -27t27 -40t10 -48q0 -53 -37 -88
q-18 -17 -41 -26.5t-47 -9.5q-51 0 -89 36zM324 81q-103 103 -103 318q0 85 16 189t46 208q32 111 79.5 212t106.5 177q137 175 307 175q31 0 55.5 -3.5t51.5 -13.5q-89 -52 -176 -226q-80 -161 -131 -363q-52 -203 -52 -363q0 -108 28 -170q30 -67 91 -67q50 0 101.5 39
t101.5 110q48 69 89 160.5t71 195.5q65 224 65 424q0 96 -11 161t-39 108q-30 46 -81 68t-131 22q-117 0 -224 -36.5t-188 -104.5q-84 -71 -131 -169t-47 -217q0 -45 11 -78q3 -13 7 -19q3 -7 3 -13q-102 0 -154.5 40.5t-52.5 131.5q0 141 118 273q116 128 301 205
q195 81 406 81q256 0 377 -147q108 -132 108 -377q0 -103 -19 -217t-57 -224q-42 -120 -103.5 -224t-141.5 -181q-185 -178 -434 -178q-171 0 -264 93z" />
    <glyph glyph-name="uni1ECC" unicode="&#x1ecc;" horiz-adv-x="1362" 
d="M324 81q-103 103 -103 318q0 85 16 189t46 208q32 111 79.5 212t106.5 177q137 175 307 175q31 0 55.5 -3.5t51.5 -13.5q-89 -52 -176 -226q-80 -161 -131 -363q-52 -203 -52 -363q0 -108 28 -170q30 -67 91 -67q50 0 101.5 39t101.5 110q48 69 89 160.5t71 195.5
q65 224 65 424q0 96 -11 161t-39 108q-30 46 -81 68t-131 22q-117 0 -224 -36.5t-188 -104.5q-84 -71 -131 -169t-47 -217q0 -45 11 -78q3 -13 7 -19q3 -7 3 -13q-102 0 -154.5 40.5t-52.5 131.5q0 141 118 273q116 128 301 205q195 81 406 81q256 0 377 -147
q108 -132 108 -377q0 -103 -19 -217t-57 -224q-42 -120 -103.5 -224t-141.5 -181q-185 -178 -434 -178q-171 0 -264 93zM470 -460.5q-30 12.5 -52 34.5t-34.5 52t-12.5 63t12.5 63t34.5 53t52 35.5t63 12.5t63 -12.5t53 -35.5t35.5 -53t12.5 -63t-12.5 -63t-35.5 -52
t-53 -34.5t-63 -12.5t-63 12.5z" />
    <glyph glyph-name="Ograve" unicode="&#xd2;" horiz-adv-x="1362" 
d="M618 2048h215l59 -387h-153zM324 81q-103 103 -103 318q0 85 16 189t46 208q32 111 79.5 212t106.5 177q137 175 307 175q31 0 55.5 -3.5t51.5 -13.5q-89 -52 -176 -226q-80 -161 -131 -363q-52 -203 -52 -363q0 -108 28 -170q30 -67 91 -67q50 0 101.5 39t101.5 110
q48 69 89 160.5t71 195.5q65 224 65 424q0 96 -11 161t-39 108q-30 46 -81 68t-131 22q-117 0 -224 -36.5t-188 -104.5q-84 -71 -131 -169t-47 -217q0 -45 11 -78q3 -13 7 -19q3 -7 3 -13q-102 0 -154.5 40.5t-52.5 131.5q0 141 118 273q116 128 301 205q195 81 406 81
q256 0 377 -147q108 -132 108 -377q0 -103 -19 -217t-57 -224q-42 -120 -103.5 -224t-141.5 -181q-185 -178 -434 -178q-171 0 -264 93z" />
    <glyph glyph-name="uni1ECE" unicode="&#x1ece;" horiz-adv-x="1362" 
d="M873 1627v179q40 -9 91 -9q47 0 71.5 19.5t24.5 53.5q0 74 -96 74q-72 0 -122 -33l-54 86q36 22 90.5 36t109.5 14q45 0 84.5 -12t68.5 -33q29 -22 44 -52.5t15 -66.5t-15.5 -66.5t-44.5 -54.5q-61 -50 -156 -57l-15 -83zM324 81q-103 103 -103 318q0 85 16 189t46 208
q32 111 79.5 212t106.5 177q137 175 307 175q31 0 55.5 -3.5t51.5 -13.5q-89 -52 -176 -226q-80 -161 -131 -363q-52 -203 -52 -363q0 -108 28 -170q30 -67 91 -67q50 0 101.5 39t101.5 110q48 69 89 160.5t71 195.5q65 224 65 424q0 96 -11 161t-39 108q-30 46 -81 68
t-131 22q-117 0 -224 -36.5t-188 -104.5q-84 -71 -131 -169t-47 -217q0 -45 11 -78q3 -13 7 -19q3 -7 3 -13q-102 0 -154.5 40.5t-52.5 131.5q0 141 118 273q116 128 301 205q195 81 406 81q256 0 377 -147q108 -132 108 -377q0 -103 -19 -217t-57 -224
q-42 -120 -103.5 -224t-141.5 -181q-185 -178 -434 -178q-171 0 -264 93z" />
    <glyph glyph-name="Ohorn" unicode="&#x1a0;" horiz-adv-x="1362" 
d="M324 81q-103 103 -103 318q0 85 16 189t46 208q32 111 79.5 212t106.5 177q137 175 307 175q31 0 55.5 -3.5t51.5 -13.5q-89 -52 -176 -226q-80 -161 -131 -363q-52 -203 -52 -363q0 -108 28 -170q30 -67 91 -67q50 0 101.5 39t101.5 110q48 69 89 160.5t71 195.5
q65 224 65 424q0 96 -11 161t-39 108q-30 46 -81 68t-131 22q-117 0 -224 -36.5t-188 -104.5q-84 -71 -131 -169t-47 -217q0 -45 11 -78q3 -13 7 -19q3 -7 3 -13q-102 0 -154.5 40.5t-52.5 131.5q0 141 118 273q116 128 301 205q195 81 406 81q210 0 330 -101q59 36 84 97
q21 51 21 127q0 57 -12 109q28 19 59.5 31t60.5 12q82 0 82 -97q0 -99 -62 -206q-30 -51 -69.5 -93.5t-84.5 -72.5q76 -126 76 -330q0 -103 -19 -217t-57 -224q-42 -120 -103.5 -224t-141.5 -181q-185 -178 -434 -178q-171 0 -264 93z" />
    <glyph glyph-name="uni1EDA" unicode="&#x1eda;" horiz-adv-x="1362" 
d="M999 2048h215l-247 -387h-154zM324 81q-103 103 -103 318q0 85 16 189t46 208q32 111 79.5 212t106.5 177q137 175 307 175q31 0 55.5 -3.5t51.5 -13.5q-89 -52 -176 -226q-80 -161 -131 -363q-52 -203 -52 -363q0 -108 28 -170q30 -67 91 -67q50 0 101.5 39t101.5 110
q48 69 89 160.5t71 195.5q65 224 65 424q0 96 -11 161t-39 108q-30 46 -81 68t-131 22q-117 0 -224 -36.5t-188 -104.5q-84 -71 -131 -169t-47 -217q0 -45 11 -78q3 -13 7 -19q3 -7 3 -13q-102 0 -154.5 40.5t-52.5 131.5q0 141 118 273q116 128 301 205q195 81 406 81
q210 0 330 -101q59 36 84 97q21 51 21 127q0 57 -12 109q28 19 59.5 31t60.5 12q82 0 82 -97q0 -99 -62 -206q-30 -51 -69.5 -93.5t-84.5 -72.5q76 -126 76 -330q0 -103 -19 -217t-57 -224q-42 -120 -103.5 -224t-141.5 -181q-185 -178 -434 -178q-171 0 -264 93z" />
    <glyph glyph-name="uni1EE2" unicode="&#x1ee2;" horiz-adv-x="1362" 
d="M324 81q-103 103 -103 318q0 85 16 189t46 208q32 111 79.5 212t106.5 177q137 175 307 175q31 0 55.5 -3.5t51.5 -13.5q-89 -52 -176 -226q-80 -161 -131 -363q-52 -203 -52 -363q0 -108 28 -170q30 -67 91 -67q50 0 101.5 39t101.5 110q48 69 89 160.5t71 195.5
q65 224 65 424q0 96 -11 161t-39 108q-30 46 -81 68t-131 22q-117 0 -224 -36.5t-188 -104.5q-84 -71 -131 -169t-47 -217q0 -45 11 -78q3 -13 7 -19q3 -7 3 -13q-102 0 -154.5 40.5t-52.5 131.5q0 141 118 273q116 128 301 205q195 81 406 81q210 0 330 -101q59 36 84 97
q21 51 21 127q0 57 -12 109q28 19 59.5 31t60.5 12q82 0 82 -97q0 -99 -62 -206q-30 -51 -69.5 -93.5t-84.5 -72.5q76 -126 76 -330q0 -103 -19 -217t-57 -224q-42 -120 -103.5 -224t-141.5 -181q-185 -178 -434 -178q-171 0 -264 93zM470 -460.5q-30 12.5 -52 34.5
t-34.5 52t-12.5 63t12.5 63t34.5 53t52 35.5t63 12.5t63 -12.5t53 -35.5t35.5 -53t12.5 -63t-12.5 -63t-35.5 -52t-53 -34.5t-63 -12.5t-63 12.5z" />
    <glyph glyph-name="uni1EDC" unicode="&#x1edc;" horiz-adv-x="1362" 
d="M618 2048h215l59 -387h-153zM324 81q-103 103 -103 318q0 85 16 189t46 208q32 111 79.5 212t106.5 177q137 175 307 175q31 0 55.5 -3.5t51.5 -13.5q-89 -52 -176 -226q-80 -161 -131 -363q-52 -203 -52 -363q0 -108 28 -170q30 -67 91 -67q50 0 101.5 39t101.5 110
q48 69 89 160.5t71 195.5q65 224 65 424q0 96 -11 161t-39 108q-30 46 -81 68t-131 22q-117 0 -224 -36.5t-188 -104.5q-84 -71 -131 -169t-47 -217q0 -45 11 -78q3 -13 7 -19q3 -7 3 -13q-102 0 -154.5 40.5t-52.5 131.5q0 141 118 273q116 128 301 205q195 81 406 81
q210 0 330 -101q59 36 84 97q21 51 21 127q0 57 -12 109q28 19 59.5 31t60.5 12q82 0 82 -97q0 -99 -62 -206q-30 -51 -69.5 -93.5t-84.5 -72.5q76 -126 76 -330q0 -103 -19 -217t-57 -224q-42 -120 -103.5 -224t-141.5 -181q-185 -178 -434 -178q-171 0 -264 93z" />
    <glyph glyph-name="uni1EDE" unicode="&#x1ede;" horiz-adv-x="1362" 
d="M873 1627v179q40 -9 91 -9q47 0 71.5 19.5t24.5 53.5q0 74 -96 74q-72 0 -122 -33l-54 86q36 22 90.5 36t109.5 14q45 0 84.5 -12t68.5 -33q29 -22 44 -52.5t15 -66.5t-15.5 -66.5t-44.5 -54.5q-61 -50 -156 -57l-15 -83zM324 81q-103 103 -103 318q0 85 16 189t46 208
q32 111 79.5 212t106.5 177q137 175 307 175q31 0 55.5 -3.5t51.5 -13.5q-89 -52 -176 -226q-80 -161 -131 -363q-52 -203 -52 -363q0 -108 28 -170q30 -67 91 -67q50 0 101.5 39t101.5 110q48 69 89 160.5t71 195.5q65 224 65 424q0 96 -11 161t-39 108q-30 46 -81 68
t-131 22q-117 0 -224 -36.5t-188 -104.5q-84 -71 -131 -169t-47 -217q0 -45 11 -78q3 -13 7 -19q3 -7 3 -13q-102 0 -154.5 40.5t-52.5 131.5q0 141 118 273q116 128 301 205q195 81 406 81q210 0 330 -101q59 36 84 97q21 51 21 127q0 57 -12 109q28 19 59.5 31t60.5 12
q82 0 82 -97q0 -99 -62 -206q-30 -51 -69.5 -93.5t-84.5 -72.5q76 -126 76 -330q0 -103 -19 -217t-57 -224q-42 -120 -103.5 -224t-141.5 -181q-185 -178 -434 -178q-171 0 -264 93z" />
    <glyph glyph-name="uni1EE0" unicode="&#x1ee0;" horiz-adv-x="1362" 
d="M845.5 1687q-36.5 10 -82.5 28q-50 20 -80.5 29t-62.5 9q-68 0 -121 -53l-10 4q44 99 121.5 150t180.5 51q44 0 80 -9t79 -25q46 -18 76 -26t64 -8t63.5 12t50.5 35l10 -2q-6 -35 -32.5 -71.5t-67.5 -66.5q-41 -31 -91 -49t-100 -18q-41 0 -77.5 10zM324 81
q-103 103 -103 318q0 85 16 189t46 208q32 111 79.5 212t106.5 177q137 175 307 175q31 0 55.5 -3.5t51.5 -13.5q-89 -52 -176 -226q-80 -161 -131 -363q-52 -203 -52 -363q0 -108 28 -170q30 -67 91 -67q50 0 101.5 39t101.5 110q48 69 89 160.5t71 195.5q65 224 65 424
q0 96 -11 161t-39 108q-30 46 -81 68t-131 22q-117 0 -224 -36.5t-188 -104.5q-84 -71 -131 -169t-47 -217q0 -45 11 -78q3 -13 7 -19q3 -7 3 -13q-102 0 -154.5 40.5t-52.5 131.5q0 141 118 273q116 128 301 205q195 81 406 81q210 0 330 -101q59 36 84 97q21 51 21 127
q0 57 -12 109q28 19 59.5 31t60.5 12q82 0 82 -97q0 -99 -62 -206q-30 -51 -69.5 -93.5t-84.5 -72.5q76 -126 76 -330q0 -103 -19 -217t-57 -224q-42 -120 -103.5 -224t-141.5 -181q-185 -178 -434 -178q-171 0 -264 93z" />
    <glyph glyph-name="Ohungarumlaut" unicode="&#x150;" horiz-adv-x="1362" 
d="M947 2046h215l-289 -387h-113zM1278 2046h215l-288 -387h-113zM324 81q-103 103 -103 318q0 85 16 189t46 208q32 111 79.5 212t106.5 177q137 175 307 175q31 0 55.5 -3.5t51.5 -13.5q-89 -52 -176 -226q-80 -161 -131 -363q-52 -203 -52 -363q0 -108 28 -170
q30 -67 91 -67q50 0 101.5 39t101.5 110q48 69 89 160.5t71 195.5q65 224 65 424q0 96 -11 161t-39 108q-30 46 -81 68t-131 22q-117 0 -224 -36.5t-188 -104.5q-84 -71 -131 -169t-47 -217q0 -45 11 -78q3 -13 7 -19q3 -7 3 -13q-102 0 -154.5 40.5t-52.5 131.5
q0 141 118 273q116 128 301 205q195 81 406 81q256 0 377 -147q108 -132 108 -377q0 -103 -19 -217t-57 -224q-42 -120 -103.5 -224t-141.5 -181q-185 -178 -434 -178q-171 0 -264 93z" />
    <glyph glyph-name="uni020E" unicode="&#x20e;" horiz-adv-x="1362" 
d="M639 1793.5q37 51.5 96 91.5q58 39 133 60t157 21q153 0 232.5 -72t79.5 -211h-183q0 82 -42 126t-119 44q-41 0 -79.5 -13t-69.5 -37q-31 -23 -50.5 -54t-24.5 -66h-176q9 59 46 110.5zM324 81q-103 103 -103 318q0 85 16 189t46 208q32 111 79.5 212t106.5 177
q137 175 307 175q31 0 55.5 -3.5t51.5 -13.5q-89 -52 -176 -226q-80 -161 -131 -363q-52 -203 -52 -363q0 -108 28 -170q30 -67 91 -67q50 0 101.5 39t101.5 110q48 69 89 160.5t71 195.5q65 224 65 424q0 96 -11 161t-39 108q-30 46 -81 68t-131 22q-117 0 -224 -36.5
t-188 -104.5q-84 -71 -131 -169t-47 -217q0 -45 11 -78q3 -13 7 -19q3 -7 3 -13q-102 0 -154.5 40.5t-52.5 131.5q0 141 118 273q116 128 301 205q195 81 406 81q256 0 377 -147q108 -132 108 -377q0 -103 -19 -217t-57 -224q-42 -120 -103.5 -224t-141.5 -181
q-185 -178 -434 -178q-171 0 -264 93z" />
    <glyph glyph-name="Omacron" unicode="&#x14c;" horiz-adv-x="1362" 
d="M585 1890h655l-30 -152h-658zM324 81q-103 103 -103 318q0 85 16 189t46 208q32 111 79.5 212t106.5 177q137 175 307 175q31 0 55.5 -3.5t51.5 -13.5q-89 -52 -176 -226q-80 -161 -131 -363q-52 -203 -52 -363q0 -108 28 -170q30 -67 91 -67q50 0 101.5 39t101.5 110
q48 69 89 160.5t71 195.5q65 224 65 424q0 96 -11 161t-39 108q-30 46 -81 68t-131 22q-117 0 -224 -36.5t-188 -104.5q-84 -71 -131 -169t-47 -217q0 -45 11 -78q3 -13 7 -19q3 -7 3 -13q-102 0 -154.5 40.5t-52.5 131.5q0 141 118 273q116 128 301 205q195 81 406 81
q256 0 377 -147q108 -132 108 -377q0 -103 -19 -217t-57 -224q-42 -120 -103.5 -224t-141.5 -181q-185 -178 -434 -178q-171 0 -264 93z" />
    <glyph glyph-name="uni01EA" unicode="&#x1ea;" horiz-adv-x="1362" 
d="M598 2048h215l59 -387h-153zM409 -384q-28 26 -43 61t-15 75q0 138 145 244q-130 23 -199 117q-76 103 -76 286q0 85 16 189t46 208q32 111 79.5 212t106.5 177q137 175 307 175q31 0 55.5 -3.5t51.5 -13.5q-89 -52 -176 -226q-80 -161 -131 -363q-52 -203 -52 -363
q0 -108 28 -170q30 -67 91 -67q50 0 101.5 39t101.5 110q48 69 89 160.5t71 195.5q65 224 65 424q0 96 -11 161t-39 108q-30 46 -81 68t-131 22q-117 0 -224 -36.5t-188 -104.5q-84 -71 -131 -169t-47 -217q0 -45 11 -78q3 -13 7 -19q3 -7 3 -13q-102 0 -154.5 40.5
t-52.5 131.5q0 141 118 273q116 128 301 205q195 81 406 81q256 0 377 -147q108 -132 108 -377q0 -102 -19 -216t-57 -224q-41 -119 -102 -223t-141 -181q-87 -85 -195 -132t-236 -48q-34 -31 -53 -74.5t-19 -93.5q0 -57 31 -91t82 -34q38 0 75.5 20.5t71.5 59.5l35 -47
q-30 -68 -108 -118q-36 -23 -75.5 -35.5t-78.5 -12.5q-88 0 -145 54z" />
    <glyph glyph-name="Oslash" unicode="&#xd8;" horiz-adv-x="1348" 
d="M571 -12h-4q-166 0 -255 89q-99 99 -99 298q0 79 15.5 176.5t44.5 194.5q68 226 179 364q131 164 296 164q55 0 92 -14l18 83q-32 7 -78 7q-114 0 -217 -34.5t-181 -98.5q-81 -66 -126 -158t-45 -203q0 -45 10 -73l7 -17q3 -7 3 -12q-98 0 -149 37.5t-51 121.5
q0 67 29.5 132t84.5 125q53 58 127.5 107t163.5 85q187 76 391 76h25q7 0 25 -2l22 100h107l-25 -115q165 -40 243 -168q70 -115 70 -307q0 -88 -16 -185.5t-47 -193.5q-72 -220 -199 -364q-150 -170 -352 -205l-31 -143h-106zM873 378q70 132 114 303q45 177 45 333
q0 111 -16.5 177.5t-61.5 106.5l-235 -1118q79 57 154 198zM838 1249q-86 -57 -163 -216q-74 -149 -121 -335q-48 -189 -48 -331q0 -204 98 -224z" />
    <glyph glyph-name="Oslashacute" unicode="&#x1fe;" horiz-adv-x="1348" 
d="M1082 2048h215l-248 -387h-154zM571 -12h-4q-166 0 -255 89q-99 99 -99 298q0 79 15.5 176.5t44.5 194.5q68 226 179 364q131 164 296 164q55 0 92 -14l18 83q-32 7 -78 7q-114 0 -217 -34.5t-181 -98.5q-81 -66 -126 -158t-45 -203q0 -45 10 -73l7 -17q3 -7 3 -12
q-98 0 -149 37.5t-51 121.5q0 67 29.5 132t84.5 125q53 58 127.5 107t163.5 85q187 76 391 76h25q7 0 25 -2l22 100h107l-25 -115q165 -40 243 -168q70 -115 70 -307q0 -88 -16 -185.5t-47 -193.5q-72 -220 -199 -364q-150 -170 -352 -205l-31 -143h-106zM873 378
q70 132 114 303q45 177 45 333q0 111 -16.5 177.5t-61.5 106.5l-235 -1118q79 57 154 198zM838 1249q-86 -57 -163 -216q-74 -149 -121 -335q-48 -189 -48 -331q0 -204 98 -224z" />
    <glyph glyph-name="Otilde" unicode="&#xd5;" horiz-adv-x="1362" 
d="M966.5 1686.5q-40.5 9.5 -94.5 28.5q-58 20 -91.5 29t-71.5 9q-77 0 -136 -53l-12 4q50 99 137.5 150t204.5 51q49 0 90 -9t90 -25q54 -18 86 -26t72 -8q39 0 72.5 12t56.5 35l12 -2q-8 -36 -38.5 -72.5t-75.5 -65.5q-46 -31 -102.5 -49t-112.5 -18q-46 0 -86.5 9.5z
M324 81q-103 103 -103 318q0 85 16 189t46 208q32 111 79.5 212t106.5 177q137 175 307 175q31 0 55.5 -3.5t51.5 -13.5q-89 -52 -176 -226q-80 -161 -131 -363q-52 -203 -52 -363q0 -108 28 -170q30 -67 91 -67q50 0 101.5 39t101.5 110q48 69 89 160.5t71 195.5
q65 224 65 424q0 96 -11 161t-39 108q-30 46 -81 68t-131 22q-117 0 -224 -36.5t-188 -104.5q-84 -71 -131 -169t-47 -217q0 -45 11 -78q3 -13 7 -19q3 -7 3 -13q-102 0 -154.5 40.5t-52.5 131.5q0 141 118 273q116 128 301 205q195 81 406 81q256 0 377 -147
q108 -132 108 -377q0 -103 -19 -217t-57 -224q-42 -120 -103.5 -224t-141.5 -181q-185 -178 -434 -178q-171 0 -264 93z" />
    <glyph glyph-name="OE" unicode="&#x152;" horiz-adv-x="1733" 
d="M324 81q-103 103 -103 318q0 85 16 189t46 208q32 111 79.5 212t106.5 177q137 175 307 175q31 0 55.5 -3.5t51.5 -13.5q-89 -52 -176 -226q-80 -161 -131 -363q-52 -203 -52 -363q0 -108 28 -170q30 -67 91 -67q50 0 101.5 39t101.5 110q48 69 89 160.5t71 195.5
q65 224 65 424q0 96 -11 161t-39 108q-30 46 -81 68t-131 22q-117 0 -224 -36.5t-188 -104.5q-84 -71 -131 -169t-47 -217q0 -45 11 -78q3 -13 7 -19q3 -7 3 -13q-102 0 -154.5 40.5t-52.5 131.5q0 141 118 273q116 128 301 205q195 81 406 81q130 0 225 -39
q54 20 116.5 29.5t148.5 9.5q35 0 70 -4l52 -5q93 -10 121 -12q41 -4 97 -4q109 0 184 25q-9 -26 -19 -69q-22 -84 -83 -136q-35 -29 -93 -41q-55 0 -108 8.5t-113 23.5q-64 15 -102 25q-52 13 -101 17q90 -128 90 -352q0 -78 -10 -154h273l-41 -151h-260
q-33 -140 -91.5 -266.5t-144.5 -223.5h500l-43 -217h-793l2 4q-68 -16 -147 -16q-171 0 -264 93z" />
    <glyph glyph-name="P" unicode="P" horiz-adv-x="1174" 
d="M471 1303l303 40l-145 -684q97 7 185 90q80 75 127 190q46 110 46 224q0 120 -59 197q-32 39 -81 60.5t-114 21.5q-124 0 -222.5 -34t-167.5 -98t-104.5 -157t-35.5 -209q0 -64 14 -102q4 -13 10 -23q4 -7 4 -14q-111 0 -162 44q-57 48 -57 155q0 67 29 132.5t82 126.5
q50 58 119.5 108.5t150.5 87.5q170 77 338 77q237 0 368 -123q58 -55 86.5 -127t28.5 -153q0 -99 -40.5 -197t-116.5 -175q-80 -82 -190.5 -129.5t-243.5 -47.5h-11l-125 -584h-294z" />
    <glyph glyph-name="Thorn" unicode="&#xde;" horiz-adv-x="1194" 
d="M438 1151q-116 -60 -175.5 -169t-59.5 -263q0 -63 14 -103q3 -11 10 -22q4 -7 4 -14q-111 0 -162 44q-57 48 -57 154q0 73 35 146t98 139q61 64 142.5 115.5t173.5 83.5l51 233l303 41l-49 -225q113 -6 198.5 -40t142.5 -91q53 -54 80 -124t27 -149q0 -99 -40.5 -196.5
t-116.5 -175.5q-80 -82 -190.5 -129.5t-243.5 -47.5h-60l-76 -358h-294zM608 434q103 0 195 82q84 75 134 192t50 230q0 118 -56 191q-63 82 -183 88l-168 -783h28z" />
    <glyph glyph-name="Q" unicode="Q" horiz-adv-x="1362" 
d="M932 -210.5q-45 20.5 -75 58.5q-25 31 -42 70t-37 98q-88 -28 -190 -28q-171 0 -264 93q-103 103 -103 318q0 85 16 189t46 208q32 111 79.5 212t106.5 177q137 175 307 175q31 0 55.5 -3.5t51.5 -13.5q-89 -52 -176 -226q-80 -161 -131 -363q-52 -203 -52 -363v-46
q-1 -19 4 -42q81 19 127 19q51 0 90 -14.5t74 -41.5q51 66 97 160.5t81 203.5q35 111 54.5 227.5t19.5 225.5q0 96 -11 161t-39 108q-30 46 -81 68t-131 22q-117 0 -224 -36.5t-188 -104.5q-84 -71 -131 -169t-47 -217q0 -45 11 -78q3 -13 7 -19q3 -7 3 -13
q-102 0 -154.5 40.5t-52.5 131.5q0 141 118 273q116 128 301 205q195 81 406 81q256 0 377 -147q108 -132 108 -377q0 -153 -40 -317q-45 -182 -128 -327q-94 -166 -223 -262q50 -76 102 -115q67 -50 154 -50q24 0 45 4q-40 -102 -93 -141q-47 -35 -118 -35q-65 0 -110 20.5
zM721 176q-21 34 -48 52t-69 18q-36 0 -59 -8q27 -84 98 -84q44 0 78 22z" />
    <glyph glyph-name="R" unicode="R" horiz-adv-x="1231" 
d="M764 10q-31 34 -31 92q0 46 14 106.5t41 156.5q27 97 40.5 160t13.5 116q0 65 -27 101q-30 38 -96 38q-37 0 -68 -8l-164 -772h-294l278 1303l303 40l-100 -473h16q61 0 115 32.5t95 87.5q38 52 59.5 115t21.5 122q0 44 -13.5 83t-39.5 68q-59 64 -172 64
q-125 0 -226.5 -33.5t-174.5 -98.5q-74 -65 -113 -158t-39 -208q0 -64 14 -102q4 -13 10 -23q4 -7 4 -14q-111 0 -162 44q-57 48 -57 155q0 67 29 132.5t82 126.5q50 58 119.5 108.5t150.5 87.5q170 77 338 77q116 0 204.5 -26.5t148.5 -74.5q56 -45 84 -103.5t28 -123.5
q0 -98 -57 -190q-64 -102 -164 -160q79 -24 111 -77q30 -51 30 -128q0 -57 -13 -121.5t-37 -152.5q-27 -98 -38.5 -149.5t-11.5 -94.5q0 -48 21.5 -84.5t58.5 -50.5q-123 -35 -203 -35q-89 0 -129 45z" />
    <glyph glyph-name="Racute" unicode="&#x154;" horiz-adv-x="1231" 
d="M942 2048h215l-248 -387h-154zM764 10q-31 34 -31 92q0 46 14 106.5t41 156.5q27 97 40.5 160t13.5 116q0 65 -27 101q-30 38 -96 38q-37 0 -68 -8l-164 -772h-294l278 1303l303 40l-100 -473h16q61 0 115 32.5t95 87.5q38 52 59.5 115t21.5 122q0 44 -13.5 83t-39.5 68
q-59 64 -172 64q-125 0 -226.5 -33.5t-174.5 -98.5q-74 -65 -113 -158t-39 -208q0 -64 14 -102q4 -13 10 -23q4 -7 4 -14q-111 0 -162 44q-57 48 -57 155q0 67 29 132.5t82 126.5q50 58 119.5 108.5t150.5 87.5q170 77 338 77q116 0 204.5 -26.5t148.5 -74.5
q56 -45 84 -103.5t28 -123.5q0 -98 -57 -190q-64 -102 -164 -160q79 -24 111 -77q30 -51 30 -128q0 -57 -13 -121.5t-37 -152.5q-27 -98 -38.5 -149.5t-11.5 -94.5q0 -48 21.5 -84.5t58.5 -50.5q-123 -35 -203 -35q-89 0 -129 45z" />
    <glyph glyph-name="Rcaron" unicode="&#x158;" horiz-adv-x="1231" 
d="M703 2048h65l123 -164l322 164h90l-434 -387h-43zM764 10q-31 34 -31 92q0 46 14 106.5t41 156.5q27 97 40.5 160t13.5 116q0 65 -27 101q-30 38 -96 38q-37 0 -68 -8l-164 -772h-294l278 1303l303 40l-100 -473h16q61 0 115 32.5t95 87.5q38 52 59.5 115t21.5 122
q0 44 -13.5 83t-39.5 68q-59 64 -172 64q-125 0 -226.5 -33.5t-174.5 -98.5q-74 -65 -113 -158t-39 -208q0 -64 14 -102q4 -13 10 -23q4 -7 4 -14q-111 0 -162 44q-57 48 -57 155q0 67 29 132.5t82 126.5q50 58 119.5 108.5t150.5 87.5q170 77 338 77q116 0 204.5 -26.5
t148.5 -74.5q56 -45 84 -103.5t28 -123.5q0 -98 -57 -190q-64 -102 -164 -160q79 -24 111 -77q30 -51 30 -128q0 -57 -13 -121.5t-37 -152.5q-27 -98 -38.5 -149.5t-11.5 -94.5q0 -48 21.5 -84.5t58.5 -50.5q-123 -35 -203 -35q-89 0 -129 45z" />
    <glyph glyph-name="Rcommaaccent" unicode="&#x156;" horiz-adv-x="1231" 
d="M764 10q-31 34 -31 92q0 46 14 106.5t41 156.5q27 97 40.5 160t13.5 116q0 65 -27 101q-30 38 -96 38q-37 0 -68 -8l-164 -772h-294l278 1303l303 40l-100 -473h16q61 0 115 32.5t95 87.5q38 52 59.5 115t21.5 122q0 44 -13.5 83t-39.5 68q-59 64 -172 64
q-125 0 -226.5 -33.5t-174.5 -98.5q-74 -65 -113 -158t-39 -208q0 -64 14 -102q4 -13 10 -23q4 -7 4 -14q-111 0 -162 44q-57 48 -57 155q0 67 29 132.5t82 126.5q50 58 119.5 108.5t150.5 87.5q170 77 338 77q116 0 204.5 -26.5t148.5 -74.5q56 -45 84 -103.5t28 -123.5
q0 -98 -57 -190q-64 -102 -164 -160q79 -24 111 -77q30 -51 30 -128q0 -57 -13 -121.5t-37 -152.5q-27 -98 -38.5 -149.5t-11.5 -94.5q0 -48 21.5 -84.5t58.5 -50.5q-123 -35 -203 -35q-89 0 -129 45zM475 -469q35 40 54 65q16 22 16 42q0 16 -9 29t-28 33
q-18 18 -27.5 34.5t-9.5 38.5q0 42 32 69t83 27q49 0 78.5 -30t29.5 -83q0 -68 -49 -142q-51 -74 -129 -124z" />
    <glyph glyph-name="uni0210" unicode="&#x210;" horiz-adv-x="1231" 
d="M238 2048h215l187 -387h-113zM570 2048h215l186 -387h-112zM764 10q-31 34 -31 92q0 46 14 106.5t41 156.5q27 97 40.5 160t13.5 116q0 65 -27 101q-30 38 -96 38q-37 0 -68 -8l-164 -772h-294l278 1303l303 40l-100 -473h16q61 0 115 32.5t95 87.5q38 52 59.5 115
t21.5 122q0 44 -13.5 83t-39.5 68q-59 64 -172 64q-125 0 -226.5 -33.5t-174.5 -98.5q-74 -65 -113 -158t-39 -208q0 -64 14 -102q4 -13 10 -23q4 -7 4 -14q-111 0 -162 44q-57 48 -57 155q0 67 29 132.5t82 126.5q50 58 119.5 108.5t150.5 87.5q170 77 338 77
q116 0 204.5 -26.5t148.5 -74.5q56 -45 84 -103.5t28 -123.5q0 -98 -57 -190q-64 -102 -164 -160q79 -24 111 -77q30 -51 30 -128q0 -57 -13 -121.5t-37 -152.5q-27 -98 -38.5 -149.5t-11.5 -94.5q0 -48 21.5 -84.5t58.5 -50.5q-123 -35 -203 -35q-89 0 -129 45z" />
    <glyph glyph-name="uni1E5A" unicode="&#x1e5a;" horiz-adv-x="1231" 
d="M764 10q-31 34 -31 92q0 46 14 106.5t41 156.5q27 97 40.5 160t13.5 116q0 65 -27 101q-30 38 -96 38q-37 0 -68 -8l-164 -772h-294l278 1303l303 40l-100 -473h16q61 0 115 32.5t95 87.5q38 52 59.5 115t21.5 122q0 44 -13.5 83t-39.5 68q-59 64 -172 64
q-125 0 -226.5 -33.5t-174.5 -98.5q-74 -65 -113 -158t-39 -208q0 -64 14 -102q4 -13 10 -23q4 -7 4 -14q-111 0 -162 44q-57 48 -57 155q0 67 29 132.5t82 126.5q50 58 119.5 108.5t150.5 87.5q170 77 338 77q116 0 204.5 -26.5t148.5 -74.5q56 -45 84 -103.5t28 -123.5
q0 -98 -57 -190q-64 -102 -164 -160q79 -24 111 -77q30 -51 30 -128q0 -57 -13 -121.5t-37 -152.5q-27 -98 -38.5 -149.5t-11.5 -94.5q0 -48 21.5 -84.5t58.5 -50.5q-123 -35 -203 -35q-89 0 -129 45zM520 -460.5q-30 12.5 -52 34.5t-34.5 52t-12.5 63t12.5 63t34.5 53
t52 35.5t63 12.5t63 -12.5t53 -35.5t35.5 -53t12.5 -63t-12.5 -63t-35.5 -52t-53 -34.5t-63 -12.5t-63 12.5z" />
    <glyph glyph-name="uni0212" unicode="&#x212;" horiz-adv-x="1231" 
d="M459 1793.5q37 51.5 96 91.5q58 39 133 60t157 21q153 0 232.5 -72t79.5 -211h-183q0 82 -42 126t-119 44q-41 0 -79.5 -13t-69.5 -37q-31 -23 -50.5 -54t-24.5 -66h-176q9 59 46 110.5zM764 10q-31 34 -31 92q0 46 14 106.5t41 156.5q27 97 40.5 160t13.5 116
q0 65 -27 101q-30 38 -96 38q-37 0 -68 -8l-164 -772h-294l278 1303l303 40l-100 -473h16q61 0 115 32.5t95 87.5q38 52 59.5 115t21.5 122q0 44 -13.5 83t-39.5 68q-59 64 -172 64q-125 0 -226.5 -33.5t-174.5 -98.5q-74 -65 -113 -158t-39 -208q0 -64 14 -102
q4 -13 10 -23q4 -7 4 -14q-111 0 -162 44q-57 48 -57 155q0 67 29 132.5t82 126.5q50 58 119.5 108.5t150.5 87.5q170 77 338 77q116 0 204.5 -26.5t148.5 -74.5q56 -45 84 -103.5t28 -123.5q0 -98 -57 -190q-64 -102 -164 -160q79 -24 111 -77q30 -51 30 -128
q0 -57 -13 -121.5t-37 -152.5q-27 -98 -38.5 -149.5t-11.5 -94.5q0 -48 21.5 -84.5t58.5 -50.5q-123 -35 -203 -35q-89 0 -129 45z" />
    <glyph glyph-name="S" unicode="S" horiz-adv-x="1167" 
d="M324 -11.5q-79 25.5 -136 73.5q-58 48 -88.5 114t-30.5 146q0 67 21.5 126.5t60.5 103.5t91 68.5t110 24.5q72 0 121 -36t61 -99q-107 0 -170 -57q-30 -27 -46.5 -66t-16.5 -86q0 -90 52.5 -142.5t141.5 -52.5q53 0 99 19.5t80 53.5t52.5 81.5t18.5 101.5q0 100 -68 208
q-27 42 -59.5 82.5l-90.5 107.5q-52 60 -87 104t-63 90q-68 111 -68 218q0 80 34 148.5t97 119.5t147 79t181 28q165 0 265 -78q48 -38 73.5 -91t25.5 -118q0 -85 -43 -139q-20 -26 -49.5 -40t-62.5 -14q-77 0 -125 64q39 28 61.5 74.5t22.5 99.5q0 66 -39 104.5t-107 38.5
q-41 0 -75.5 -15t-58.5 -43q-25 -28 -38.5 -66t-13.5 -83q0 -64 30 -123t86 -123q50 -59 108 -117q135 -140 191 -273q33 -79 33 -174q0 -100 -41 -185.5t-117 -148.5q-76 -64 -177 -99t-216 -35q-98 0 -177 25.5z" />
    <glyph glyph-name="Sacute" unicode="&#x15a;" horiz-adv-x="1167" 
d="M920 2048h215l-248 -387h-154zM324 -11.5q-79 25.5 -136 73.5q-58 48 -88.5 114t-30.5 146q0 67 21.5 126.5t60.5 103.5t91 68.5t110 24.5q72 0 121 -36t61 -99q-107 0 -170 -57q-30 -27 -46.5 -66t-16.5 -86q0 -90 52.5 -142.5t141.5 -52.5q53 0 99 19.5t80 53.5
t52.5 81.5t18.5 101.5q0 100 -68 208q-27 42 -59.5 82.5l-90.5 107.5q-52 60 -87 104t-63 90q-68 111 -68 218q0 80 34 148.5t97 119.5t147 79t181 28q165 0 265 -78q48 -38 73.5 -91t25.5 -118q0 -85 -43 -139q-20 -26 -49.5 -40t-62.5 -14q-77 0 -125 64q39 28 61.5 74.5
t22.5 99.5q0 66 -39 104.5t-107 38.5q-41 0 -75.5 -15t-58.5 -43q-25 -28 -38.5 -66t-13.5 -83q0 -64 30 -123t86 -123q50 -59 108 -117q135 -140 191 -273q33 -79 33 -174q0 -100 -41 -185.5t-117 -148.5q-76 -64 -177 -99t-216 -35q-98 0 -177 25.5z" />
    <glyph glyph-name="Scaron" unicode="&#x160;" horiz-adv-x="1167" 
d="M710 2048h66l123 -164l321 164h90l-434 -387h-43zM324 -11.5q-79 25.5 -136 73.5q-58 48 -88.5 114t-30.5 146q0 67 21.5 126.5t60.5 103.5t91 68.5t110 24.5q72 0 121 -36t61 -99q-107 0 -170 -57q-30 -27 -46.5 -66t-16.5 -86q0 -90 52.5 -142.5t141.5 -52.5
q53 0 99 19.5t80 53.5t52.5 81.5t18.5 101.5q0 100 -68 208q-27 42 -59.5 82.5l-90.5 107.5q-52 60 -87 104t-63 90q-68 111 -68 218q0 80 34 148.5t97 119.5t147 79t181 28q165 0 265 -78q48 -38 73.5 -91t25.5 -118q0 -85 -43 -139q-20 -26 -49.5 -40t-62.5 -14
q-77 0 -125 64q39 28 61.5 74.5t22.5 99.5q0 66 -39 104.5t-107 38.5q-41 0 -75.5 -15t-58.5 -43q-25 -28 -38.5 -66t-13.5 -83q0 -64 30 -123t86 -123q50 -59 108 -117q135 -140 191 -273q33 -79 33 -174q0 -100 -41 -185.5t-117 -148.5q-76 -64 -177 -99t-216 -35
q-98 0 -177 25.5z" />
    <glyph glyph-name="Scedilla" unicode="&#x15e;" horiz-adv-x="1167" 
d="M379 -438.5q-54 24.5 -89 69.5l35 56q30 -28 69.5 -45t78.5 -17q45 0 73.5 23.5t28.5 60.5q0 32 -23.5 52t-62.5 20q-53 0 -100 -25l-9 8l79 200q-89 6 -161 33.5t-123 74.5q-52 47 -79 110.5t-27 139.5q0 67 21.5 126.5t60.5 103.5t91 68.5t110 24.5q72 0 121 -36
t61 -99q-107 0 -170 -57q-30 -27 -46.5 -66t-16.5 -86q0 -90 52.5 -142.5t141.5 -52.5q53 0 99 19.5t80 53.5t52.5 81.5t18.5 101.5q0 100 -68 208q-27 42 -59.5 82.5l-90.5 107.5q-52 60 -87 104t-63 90q-68 111 -68 218q0 80 34 148.5t97 119.5t147 79t181 28
q165 0 265 -78q48 -38 73.5 -91t25.5 -118q0 -85 -43 -139q-20 -26 -49.5 -40t-62.5 -14q-77 0 -125 64q39 28 61.5 74.5t22.5 99.5q0 66 -39 104.5t-107 38.5q-41 0 -75.5 -15t-58.5 -43q-25 -28 -38.5 -66t-13.5 -83q0 -64 30 -123t86 -123q50 -59 108 -117
q135 -140 191 -273q33 -79 33 -174q0 -94 -37 -176t-106 -145q-68 -63 -160.5 -100.5t-199.5 -44.5l-40 -100q41 12 64.5 16t44.5 4q68 0 107.5 -36.5t39.5 -98.5q0 -43 -21 -81.5t-59 -68.5q-37 -30 -86.5 -46.5t-103.5 -16.5q-62 0 -116 24.5z" />
    <glyph glyph-name="Scircumflex" unicode="&#x15c;" horiz-adv-x="1167" 
d="M945 2048h43l123 -387h-65l-123 164l-322 -164h-90zM324 -11.5q-79 25.5 -136 73.5q-58 48 -88.5 114t-30.5 146q0 67 21.5 126.5t60.5 103.5t91 68.5t110 24.5q72 0 121 -36t61 -99q-107 0 -170 -57q-30 -27 -46.5 -66t-16.5 -86q0 -90 52.5 -142.5t141.5 -52.5
q53 0 99 19.5t80 53.5t52.5 81.5t18.5 101.5q0 100 -68 208q-27 42 -59.5 82.5l-90.5 107.5q-52 60 -87 104t-63 90q-68 111 -68 218q0 80 34 148.5t97 119.5t147 79t181 28q165 0 265 -78q48 -38 73.5 -91t25.5 -118q0 -85 -43 -139q-20 -26 -49.5 -40t-62.5 -14
q-77 0 -125 64q39 28 61.5 74.5t22.5 99.5q0 66 -39 104.5t-107 38.5q-41 0 -75.5 -15t-58.5 -43q-25 -28 -38.5 -66t-13.5 -83q0 -64 30 -123t86 -123q50 -59 108 -117q135 -140 191 -273q33 -79 33 -174q0 -100 -41 -185.5t-117 -148.5q-76 -64 -177 -99t-216 -35
q-98 0 -177 25.5z" />
    <glyph glyph-name="Scommaaccent" unicode="&#x218;" horiz-adv-x="1167" 
d="M324 -11.5q-79 25.5 -136 73.5q-58 48 -88.5 114t-30.5 146q0 67 21.5 126.5t60.5 103.5t91 68.5t110 24.5q72 0 121 -36t61 -99q-107 0 -170 -57q-30 -27 -46.5 -66t-16.5 -86q0 -90 52.5 -142.5t141.5 -52.5q53 0 99 19.5t80 53.5t52.5 81.5t18.5 101.5q0 100 -68 208
q-27 42 -59.5 82.5l-90.5 107.5q-52 60 -87 104t-63 90q-68 111 -68 218q0 80 34 148.5t97 119.5t147 79t181 28q165 0 265 -78q48 -38 73.5 -91t25.5 -118q0 -85 -43 -139q-20 -26 -49.5 -40t-62.5 -14q-77 0 -125 64q39 28 61.5 74.5t22.5 99.5q0 66 -39 104.5t-107 38.5
q-41 0 -75.5 -15t-58.5 -43q-25 -28 -38.5 -66t-13.5 -83q0 -64 30 -123t86 -123q50 -59 108 -117q135 -140 191 -273q33 -79 33 -174q0 -100 -41 -185.5t-117 -148.5q-76 -64 -177 -99t-216 -35q-98 0 -177 25.5zM335 -469q35 40 54 65q16 22 16 42q0 16 -9 29t-28 33
q-18 18 -27.5 34.5t-9.5 38.5q0 42 32 69t83 27q49 0 78.5 -30t29.5 -83q0 -68 -49 -142q-51 -74 -129 -124z" />
    <glyph glyph-name="uni1E60" unicode="&#x1e60;" horiz-adv-x="1167" 
d="M789 1695.5q-30 12.5 -52 34.5q-22 21 -34.5 51t-12.5 63t12.5 63.5t34.5 52.5t52 35t63 13t63 -13t53 -35t35.5 -52.5t12.5 -63.5t-12.5 -63t-35.5 -51q-23 -22 -53 -34.5t-63 -12.5t-63 12.5zM324 -11.5q-79 25.5 -136 73.5q-58 48 -88.5 114t-30.5 146
q0 67 21.5 126.5t60.5 103.5t91 68.5t110 24.5q72 0 121 -36t61 -99q-107 0 -170 -57q-30 -27 -46.5 -66t-16.5 -86q0 -90 52.5 -142.5t141.5 -52.5q53 0 99 19.5t80 53.5t52.5 81.5t18.5 101.5q0 100 -68 208q-27 42 -59.5 82.5l-90.5 107.5q-52 60 -87 104t-63 90
q-68 111 -68 218q0 80 34 148.5t97 119.5t147 79t181 28q165 0 265 -78q48 -38 73.5 -91t25.5 -118q0 -85 -43 -139q-20 -26 -49.5 -40t-62.5 -14q-77 0 -125 64q39 28 61.5 74.5t22.5 99.5q0 66 -39 104.5t-107 38.5q-41 0 -75.5 -15t-58.5 -43q-25 -28 -38.5 -66
t-13.5 -83q0 -64 30 -123t86 -123q50 -59 108 -117q135 -140 191 -273q33 -79 33 -174q0 -100 -41 -185.5t-117 -148.5q-76 -64 -177 -99t-216 -35q-98 0 -177 25.5z" />
    <glyph glyph-name="uni1E62" unicode="&#x1e62;" horiz-adv-x="1167" 
d="M324 -11.5q-79 25.5 -136 73.5q-58 48 -88.5 114t-30.5 146q0 67 21.5 126.5t60.5 103.5t91 68.5t110 24.5q72 0 121 -36t61 -99q-107 0 -170 -57q-30 -27 -46.5 -66t-16.5 -86q0 -90 52.5 -142.5t141.5 -52.5q53 0 99 19.5t80 53.5t52.5 81.5t18.5 101.5q0 100 -68 208
q-27 42 -59.5 82.5l-90.5 107.5q-52 60 -87 104t-63 90q-68 111 -68 218q0 80 34 148.5t97 119.5t147 79t181 28q165 0 265 -78q48 -38 73.5 -91t25.5 -118q0 -85 -43 -139q-20 -26 -49.5 -40t-62.5 -14q-77 0 -125 64q39 28 61.5 74.5t22.5 99.5q0 66 -39 104.5t-107 38.5
q-41 0 -75.5 -15t-58.5 -43q-25 -28 -38.5 -66t-13.5 -83q0 -64 30 -123t86 -123q50 -59 108 -117q135 -140 191 -273q33 -79 33 -174q0 -100 -41 -185.5t-117 -148.5q-76 -64 -177 -99t-216 -35q-98 0 -177 25.5zM350 -460.5q-30 12.5 -52 34.5t-34.5 52t-12.5 63t12.5 63
t34.5 53t52 35.5t63 12.5t63 -12.5t53 -35.5t35.5 -53t12.5 -63t-12.5 -63t-35.5 -52t-53 -34.5t-63 -12.5t-63 12.5z" />
    <glyph glyph-name="uni018F" unicode="&#x18f;" horiz-adv-x="1114" 
d="M231 10q-59 22 -102 62q-42 39 -65 95t-23 122q0 72 27.5 144t78.5 137t118.5 120t147.5 95q81 41 169.5 63t177.5 22q5 27 8 73q2 31 2 93q0 147 -55 216t-172 69q-96 0 -168.5 -44t-114.5 -128q-31 25 -48 61.5t-17 79.5q0 57 32.5 106.5t90.5 87.5q58 37 136 58
t167 21q116 0 206 -36.5t152 -108.5q125 -145 125 -410q0 -127 -28.5 -253.5t-80.5 -242.5q-51 -113 -121 -209t-152 -166q-84 -71 -176.5 -110t-185.5 -39q-70 0 -129 22zM480 185.5q53 46.5 102 131.5q49 86 90 203t67 252q-113 -6 -219 -81q-99 -70 -162 -184
q-63 -115 -63 -239q0 -66 20 -97.5t62 -31.5q50 0 103 46.5z" />
    <glyph glyph-name="T" unicode="T" horiz-adv-x="985" 
d="M612 1356h-24q-182 0 -274 -83q-111 -100 -111 -331q0 -64 14 -102q4 -13 10 -23q4 -7 4 -14q-111 0 -162 44q-57 48 -57 154t39.5 201.5t120.5 167.5q87 78 221.5 121t317.5 43q105 0 201 -12q30 -3 78 -11q80 -15 154 -20q36 -4 91 -4q68 0 130 12t108 31
q-5 -134 -68.5 -197t-187.5 -63q-67 0 -135 11t-183 34l-283 -1315h-294z" />
    <glyph glyph-name="Tbar" unicode="&#x166;" horiz-adv-x="985" 
d="M440 553h-278l29 102h271l150 701h-24q-182 0 -274 -83q-111 -100 -111 -331q0 -64 14 -102q4 -13 10 -23q4 -7 4 -14q-111 0 -162 44q-57 48 -57 154t39.5 201.5t120.5 167.5q87 78 221.5 121t317.5 43q105 0 201 -12q30 -3 78 -11q80 -15 154 -20q36 -4 91 -4
q68 0 130 12t108 31q-5 -134 -68.5 -197t-187.5 -63q-67 0 -135 11t-183 34l-142 -660h335l-28 -102h-329l-119 -553h-294z" />
    <glyph glyph-name="Tcaron" unicode="&#x164;" horiz-adv-x="985" 
d="M653 2048h65l123 -164l322 164h90l-434 -387h-43zM612 1356h-24q-182 0 -274 -83q-111 -100 -111 -331q0 -64 14 -102q4 -13 10 -23q4 -7 4 -14q-111 0 -162 44q-57 48 -57 154t39.5 201.5t120.5 167.5q87 78 221.5 121t317.5 43q105 0 201 -12q30 -3 78 -11
q80 -15 154 -20q36 -4 91 -4q68 0 130 12t108 31q-5 -134 -68.5 -197t-187.5 -63q-67 0 -135 11t-183 34l-283 -1315h-294z" />
    <glyph glyph-name="uni0162" unicode="&#x162;" horiz-adv-x="985" 
d="M349 -438.5q-54 24.5 -89 69.5l35 56q30 -28 69.5 -45t78.5 -17q45 0 73.5 23.5t28.5 60.5q0 32 -23.5 52t-62.5 20q-53 0 -100 -25l-9 8l93 236h-121l290 1356h-24q-182 0 -274 -83q-111 -100 -111 -331q0 -64 14 -102q4 -13 10 -23q4 -7 4 -14q-111 0 -162 44
q-57 48 -57 154t39.5 201.5t120.5 167.5q87 78 221.5 121t317.5 43q105 0 201 -12q30 -3 78 -11q80 -15 154 -20q36 -4 91 -4q68 0 130 12t108 31q-5 -134 -68.5 -197t-187.5 -63q-67 0 -135 11t-183 34l-283 -1315h-83l-54 -135q41 12 64.5 16t44.5 4q68 0 107.5 -36.5
t39.5 -98.5q0 -43 -21 -81.5t-59 -68.5q-37 -30 -86.5 -46.5t-103.5 -16.5q-62 0 -116 24.5z" />
    <glyph glyph-name="uni021A" unicode="&#x21a;" horiz-adv-x="985" 
d="M612 1356h-24q-182 0 -274 -83q-111 -100 -111 -331q0 -64 14 -102q4 -13 10 -23q4 -7 4 -14q-111 0 -162 44q-57 48 -57 154t39.5 201.5t120.5 167.5q87 78 221.5 121t317.5 43q105 0 201 -12q30 -3 78 -11q80 -15 154 -20q36 -4 91 -4q68 0 130 12t108 31
q-5 -134 -68.5 -197t-187.5 -63q-67 0 -135 11t-183 34l-283 -1315h-294zM335 -469q35 40 54 65q16 22 16 42q0 16 -9 29t-28 33q-18 18 -27.5 34.5t-9.5 38.5q0 42 32 69t83 27q49 0 78.5 -30t29.5 -83q0 -68 -49 -142q-51 -74 -129 -124z" />
    <glyph glyph-name="uni1E6C" unicode="&#x1e6c;" horiz-adv-x="985" 
d="M612 1356h-24q-182 0 -274 -83q-111 -100 -111 -331q0 -64 14 -102q4 -13 10 -23q4 -7 4 -14q-111 0 -162 44q-57 48 -57 154t39.5 201.5t120.5 167.5q87 78 221.5 121t317.5 43q105 0 201 -12q30 -3 78 -11q80 -15 154 -20q36 -4 91 -4q68 0 130 12t108 31
q-5 -134 -68.5 -197t-187.5 -63q-67 0 -135 11t-183 34l-283 -1315h-294zM361 -460.5q-30 12.5 -52 34.5t-34.5 52t-12.5 63t12.5 63t34.5 53t52 35.5t63 12.5t63 -12.5t53 -35.5t35.5 -53t12.5 -63t-12.5 -63t-35.5 -52t-53 -34.5t-63 -12.5t-63 12.5z" />
    </font>
</defs>
</svg>
