<?xml version="1.0" standalone="no"?>
<!DOCTYPE svg PUBLIC "-//W3C//DTD SVG 1.1//EN" "http://www.w3.org/Graphics/SVG/1.1/DTD/svg11.dtd" >
<svg>
<metadata>
Created by FontForge 20090622 at Fri Oct 19 13:17:23 2018
 By deploy user
Copyright (c) 2012 by Font Diner, Inc DBA Neapolitan (diner@fontdiner.com) with Reseved Font Name "Seaweed Script"
</metadata>
<defs>
<font id="SeaweedScript-Regular" horiz-adv-x="551" >
  <font-face 
    font-family="Seaweed Script"
    font-weight="400"
    font-stretch="normal"
    units-per-em="1024"
    panose-1="2 0 0 0 0 0 0 0 0 0"
    ascent="819"
    descent="-205"
    x-height="343"
    cap-height="732"
    bbox="-261.333 -417.947 1068.24 968.2"
    underline-thickness="51"
    underline-position="-52"
    unicode-range="U+0020-U+FB02"
  />
<missing-glyph horiz-adv-x="317" 
 />
    <glyph glyph-name=".notdef" horiz-adv-x="317" 
 />
    <glyph glyph-name="Eth" unicode="&#xd0;" horiz-adv-x="564" 
d="M139 323h-9.5t-9.5 -1q-10 -3 -13.5 -2t-6.5 -1q-5 -1 -9.5 -1.5t-8.5 -1.5q-5 -2 -11 -4t-13 -1q-3 0 -6 2l-6 4q-5 3 -9 4.5t-6 5.5q2 6 2.5 15t8.5 19q2 3 5 6l6 6q4 5 5.5 7.5t7.5 6.5q5 2 9 2.5t9 3.5q8 -2 17 -1t13 -2q14 -1 28 -3.5t29 -1.5q8 5 10 9t4 9
q6 8 10.5 19t9.5 21q8 20 16 34q2 4 4 6.5t3 6.5q3 9 7 18t8 17q8 17 15.5 30l16.5 29q-28 -9 -52 -19.5t-46 -24.5q-7 -5 -12 -11.5t-12 -11.5q-20 -15 -42 -15q-9 5 -11 10q8 20 19.5 33.5l23.5 27.5q11 7 20 14t18 15l18 16t19 13l26.5 13.5t24.5 14.5q18 14 40.5 25
l43.5 21q11 5 21.5 9t21.5 7l23 4t23 6q16 2 30.5 7t31.5 5q4 -1 6 -2t6 -2q13 0 18.5 -2l10.5 -4q10 -4 18 -8.5l17 -9.5q5 -3 8 -6t7 -6q8 -5 10.5 -7.5l5.5 -5.5q5 -5 9.5 -7.5t3.5 -9.5l8 -21.5t4 -22.5q0 -5 -1.5 -10t-3.5 -10q-2 -7 -2.5 -13t-3.5 -11
q-2 -14 -4.5 -27.5t-4.5 -28.5q-1 -5 -1 -11t-1 -11q-2 -13 -7 -24.5t-5 -22.5q-6 -20 -13 -33t-15 -26q-10 -14 -17 -31.5t-15 -34.5q-2 -4 -2.5 -7.5t-2.5 -6.5q-9 -11 -10 -15t-3 -9l-6.5 -15.5t-6.5 -16.5q-2 -3 -6 -11q-3 -6 -7.5 -12l-9.5 -13q-16 -25 -33 -47
t-37 -43q-25 -25 -52.5 -46t-54.5 -44l-20 -16.5t-22 -16.5q-5 -4 -10.5 -7t-10.5 -8q-16 -15 -40 -26q-12 -3 -15 -4.5t-5 -1.5q-6 -2 -12 -2t-12 -1q-3 0 -6 -1t-7 -1q-8 1 -16.5 4t-16.5 5q-3 1 -6.5 2t-7.5 2q-7 4 -13 7t-12 7q-15 4 -18 11t-8 13q-6 19 -9.5 34
t-8.5 34l-3.5 12.5t-0.5 12.5q1 5 4 11l6 12q8 14 12.5 28.5t12.5 28.5q2 2 3.5 5t3.5 5q3 6 5.5 12l4.5 11l16.5 33.5t18.5 32.5l12 21zM368 387q-2 -4 -1 -6.5t-1 -6.5q-2 -3 -5.5 -6.5t-6.5 -8.5q-5 -8 -7 -14t-9 -11q-10 -2 -22 -4t-22 -3q-8 0 -21.5 -1t-23.5 1
q-7 1 -11 1q-2 -6 -4 -11q-5 -8 -10.5 -14t-9.5 -13q-4 -11 -7.5 -15.5t-5.5 -9.5q-5 -8 -9 -17t-9 -18q-2 -3 -4.5 -6t-4.5 -7q-3 -6 -5 -12.5t-5 -14.5q-3 -7 -6.5 -13t-5.5 -12q-4 -7 -7 -14t-5 -13q-3 -7 -5 -14t-5 -14q-6 -12 -8 -18.5l-4 -12.5t-4.5 -12.5t-2.5 -12.5
q-4 -3 -5 -7t-1 -8.5v-9t-3 -7.5q16 2 25.5 8t23.5 8q10 5 17.5 12.5t21.5 8.5q16 10 28.5 21.5t31.5 18.5q15 13 31.5 24.5t27.5 28.5q5 2 14 9l11.5 14t10.5 15q10 8 17 18t18 17q4 10 11 16.5t13 14.5q8 10 14.5 21t14.5 20q14 26 29.5 50t27.5 53q18 25 29 56
q7 7 9.5 18.5t12.5 13.5q8 12 8.5 28t2.5 31q1 5 0 9t0 8q0 8 1.5 16t-0.5 15q-5 8 -5 10.5t-1 4.5q-3 4 -3 11q-2 8 -2.5 11.5t-3.5 8.5q-5 7 -7.5 13t-7.5 11q-8 1 -14.5 1h-14.5q-14 -1 -26.5 -5.5l-25.5 -9.5q-9 -3 -17 -7l-16 -8q-9 -5 -16.5 -10t-15.5 -11
q-1 -3 -2.5 -5.5t-2.5 -5.5q-11 -11 -16.5 -24.5t-12.5 -25.5q-8 -13 -14.5 -25.5l-13.5 -25.5q-5 -11 -10.5 -19.5t-9.5 -18.5q-13 -21 -17 -33q-3 -7 -7.5 -13.5t-6.5 -14.5q-2 -4 -3.5 -7.5t-3.5 -7.5q6 1 12 1.5t13 0.5q8 1 16 -0.5t16 -0.5q9 0 19 1.5t19 1.5
q5 -2 9.5 -2.5t6.5 -3.5z" />
    <glyph glyph-name="eth" unicode="&#xf0;" horiz-adv-x="381" 
d="M229 181q2 7 1 15t0 16q-5 11 -8.5 24t-10.5 23q-10 9 -11.5 11.5t-3.5 3.5q-4 4 -10 5t-11 2q-16 3 -26.5 -3.5l-20.5 -12.5q-16 -10 -28 -25l-6.5 -11t-5.5 -12l-7 -15.5t-5 -15.5q-5 -10 -6 -16.5t-2 -11.5q-1 -10 -3.5 -21t-1.5 -18q0 -4 2 -9t4 -7l4.5 -11t4.5 -9
q5 -7 13 -9t18 -5q11 -6 15 -5t6 1q13 2 23 11t20 14q8 12 19.5 24.5t20.5 26.5q2 4 4 9t4 9q2 2 4.5 11t3.5 11zM510 532q-1 -4 0.5 -6t1.5 -6q-1 -3 -2.5 -6.5l-3.5 -8.5q-2 -8 -1.5 -14t-4.5 -12l-18.5 -10t-17.5 -8q-8 -2 -19 -6.5t-21 -7.5q-7 -1 -9.5 -1.5t-5.5 -1.5
t-11 -3q-1 -6 -1.5 -11.5t-1.5 -11.5q-2 -7 -4 -15l-4 -16t-3.5 -15t-3.5 -15q-2 -5 -4 -9t-4 -9q-2 -4 -2 -7t-2 -7q-10 -23 -17 -43q-6 -15 -9.5 -23t-9.5 -23q-4 -11 -11 -24t-12 -21t-8.5 -15t-8.5 -15l-11.5 -16.5t-6.5 -13.5q-7 -8 -11.5 -18.5t-12.5 -17.5
q-3 -10 -9.5 -16.5t-12.5 -13.5l-19.5 -26t-22.5 -19q-5 -8 -12 -11q-6 -6 -8 -10q-9 -5 -20 -12t-23 -10q-17 -4 -33 1t-30 14q-9 -1 -14.5 3.5t-13.5 6.5q-11 10 -24 18t-19 22q-2 11 -4.5 22l-4.5 20t-0.5 19t0.5 20q0 11 -0.5 18.5t4.5 18.5q6 14 8 22t4 14q3 5 6 11
t7 11q6 9 14 18t16 17q6 8 11 13q8 9 17 15.5t18 15.5q4 6 11 9q10 6 18.5 10l19.5 9q8 4 15.5 5.5l17.5 3.5h12t10 2q-3 8 7 11t15 2q10 0 16 -4.5t11 -10.5q11 -8 22 -21q2 -2 5 -3t5 -3q4 -5 5.5 -11t6.5 -11q4 3 5.5 7t3.5 7l25.5 60.5t20.5 57.5q-5 -2 -10 -3.5
l-12 -3.5q-8 -6 -10.5 -6t-5.5 -2q-4 -2 -7.5 -4t-6.5 -4q-4 -2 -9.5 -5.5t-10.5 -4.5q-3 -1 -5.5 0t-5.5 2h-9.5t-6.5 3q-1 6 -3 14.5t3 19.5l2.5 5t3.5 6q2 5 2.5 8.5t4.5 8.5q4 4 7 5t7 5q7 1 14.5 4t11.5 1q13 4 25.5 5t25.5 6q8 8 8 15t1 13q2 15 0 26.5t-1 25.5
q0 4 -2 12q-2 10 1 15t8.5 6t10.5 4q8 0 12.5 -1.5t11.5 -0.5q2 -2 2 -5t1 -6q4 -13 5 -22q0 -6 -0.5 -12.5t0.5 -12.5q3 -17 3 -33q11 3 17.5 6t14.5 6q7 2 14 3.5t15 3.5t15.5 6t16.5 8q4 -2 7.5 -1t6.5 -1z" />
    <glyph glyph-name="Lslash" unicode="&#x141;" horiz-adv-x="397" 
d="M334 473q-2 -4 -0.5 -6.5t1.5 -6.5q-1 -4 -3 -8t-4 -10q-3 -9 -3 -15t-6 -13l-20 -10.5t-20 -8.5l-21.5 -7t-23.5 -6q-7 0 -11 -2q-6 -17 -10.5 -35t-13.5 -33q-9 -29 -22.5 -53t-24.5 -51q-5 -2 -7 -12q-11 -17 -17.5 -38t-16.5 -39q-5 -15 -13 -31t-11 -32
q17 5 32.5 13t34.5 13q25 3 50.5 3t47.5 6q24 4 43.5 6t36.5 -7q2 -8 0 -19.5t-5 -19.5q-3 -9 -5 -14t-7 -13q-5 -4 -10.5 -6t-10.5 -5q-10 2 -18 -2q-4 4 -14 2q-14 1 -25.5 -4t-24.5 -3q-8 -2 -17.5 -2.5t-20.5 -2.5t-20 -7t-20 -3q-11 -5 -23 -9.5t-24 -9.5q-4 -1 -10 -5
q-8 -2 -11 -5q-5 -2 -10 -3t-10 -3q-8 0 -14.5 2.5l-14.5 5.5q-5 3 -7 6.5t-6 9.5q-12 12 -17 25q-3 3 -11 9q-5 16 0.5 28.5t10.5 25.5q6 15 10 31.5t14 27.5q3 9 11 21q6 10 9.5 21t9.5 21q3 5 6.5 9.5t6.5 9.5q1 4 3.5 6t3.5 7q10 9 15.5 22t14.5 23q8 11 13 24t13 24
q3 10 5.5 15l5.5 11q-6 6 -15 2q-10 -5 -13 -5t-7 -2q-9 -4 -15 -8q-5 -2 -11 -6t-12 -5q-3 -1 -6 0l-6 2q-6 2 -10.5 1.5t-7.5 3.5q0 7 -2 16t4 21q1 3 3 6.5t4 7.5q2 5 3 8t6 8q4 4 7 5.5t8 5.5q8 1 16.5 4.5t13.5 1.5q14 4 28 4.5t28 5.5q5 2 9 3t8 3q3 6 5 12.5l4 12.5
q0 4 2.5 7.5t0.5 6.5q5 5 5.5 12t5.5 12q-1 7 5 15q1 5 3.5 8.5t3.5 6.5q9 17 11.5 24.5t5.5 13.5q2 2 4 4.5t4 6.5q2 5 3.5 11t3.5 11t3 9t3 7q7 10 6.5 11t0.5 3q2 5 4 8t4 8l19 44t17 34q0 8 -2 16.5t2 15.5q8 4 15.5 9.5t16.5 7.5q4 1 7.5 -3.5t6.5 -6.5
q9 -8 16.5 -19.5t11.5 -23.5q2 -8 1.5 -18.5t-3.5 -17.5q-3 -11 -8 -17q2 -13 -0.5 -22t-5.5 -17q-10 -10 -16 -24q-6 -7 -10 -15.5t-9 -16.5q-4 -8 -9 -16t-8 -18q-9 -11 -10.5 -16.5t-6.5 -9.5l-19 -44q7 2 13 2.5t14 2.5q8 3 17 7t17 6q5 -1 9.5 0t8.5 -1z" />
    <glyph glyph-name="lslash" unicode="&#x142;" horiz-adv-x="268" 
d="M267 609q-9 -2 -12.5 -9t-6.5 -16q-4 -8 -6.5 -12t-1.5 -11q-31 -52 -56.5 -108l-51.5 -113q20 20 37.5 48t36.5 48q14 34 31 63.5t26 66.5q-4 12 1 21.5t4 21.5h-1zM242 330q-2 -4 -0.5 -6.5t1.5 -7.5q-1 -4 -3 -8t-4 -9q-4 -9 -4 -15t-5 -14l-20 -10t-21 -8
q-8 -3 -20.5 -7t-23.5 -6q-8 -1 -11 -1.5t-6 -1.5q-6 -2 -12.5 -5t-14.5 -6l-8 -39.5t-9 -41.5l-3.5 -14.5t-3.5 -13.5q-2 -8 -1 -17t-3 -17q2 -5 2.5 -11.5t3.5 -11.5q2 -3 5.5 -6t6.5 -3q7 4 8 3.5t3 0.5q5 3 10 8t9 10q5 1 7.5 3.5t5.5 4.5t5.5 3t4.5 3q14 15 27 22.5
t21 18.5l18 11q6 3 10.5 8.5t11.5 8.5q2 3 4 5l5 5l23 16t24 16q2 5 6 8t8 7q3 2 5 5.5t7 4.5q1 5 4.5 7t6.5 7q11 -3 14.5 -7t3.5 -8q-8 -11 -9.5 -14.5t-5.5 -5.5q-14 -20 -30.5 -35.5t-30.5 -34.5q-5 -5 -9 -10t-9 -10q-11 -8 -20 -17.5t-19 -17.5q-5 -5 -9.5 -8t-9.5 -8
t-9 -8l-9 -7l-12 -14t-12 -15q-11 -5 -20 -12t-21 -12q-5 -3 -10 -9.5t-11 -8.5q-8 -3 -17 -1.5t-15 4.5q-5 4 -8 5t-5 1q-9 13 -13 28.5t-9 32.5q-2 5 -3 10.5t-2 12.5q-1 4 -1.5 8t-2.5 9l-4 10.5t-3 11.5q-2 12 -1.5 23.5t2.5 22.5t5 22l6 23q-3 -2 -6 -2t-6 -2
q-4 -2 -8 -4.5t-8 -4.5t-10 -5.5t-12 -4.5q-3 -1 -6 0t-7 2q-5 1 -9.5 1t-8.5 3q0 7 -2 16.5t3 21.5q2 2 4.5 5.5t4.5 7.5l3 9t5 8q5 4 8 5.5t8 5.5q8 1 16.5 4t13.5 1q11 3 23 4t24 4q2 10 5.5 18.5t6.5 18.5q5 7 7 16t5 18q3 8 7.5 17.5t6.5 18.5q3 10 5.5 20t6.5 18
l15 40t15 38l4 12t6 11q2 6 5 10.5t6 9.5q0 5 3.5 7.5t5.5 6.5q5 8 7.5 16t7.5 16l12 15l4 8t6 7q11 18 24 36l27 38q9 14 20.5 26.5l22.5 24.5q4 5 9.5 11t11.5 7q9 1 20 -2q3 -5 5.5 -10.5t4.5 -12.5q2 -31 -2 -60l-8 -57q-2 -5 -1.5 -9.5t-0.5 -9.5l-5 -15.5t-5 -17.5
q0 -14 -6 -25t-8 -22q-3 -2 -3.5 -6.5t-3.5 -6.5q-2 -11 -6.5 -20t-7.5 -18q-15 -21 -30.5 -40.5t-29.5 -40.5q-12 -19 -25.5 -36t-26.5 -36q5 2 11 2.5t12 2.5l18 8t17 6q5 -1 9.5 0t8.5 -1z" />
    <glyph glyph-name="Scaron" unicode="&#x160;" horiz-adv-x="481" 
d="M198 596q5 8 6 14.5t6 14.5q20 11 36 26.5t37 25.5q14 10 22.5 13.5t16.5 9.5l17.5 8t19.5 7q8 2 14 5.5t12 5.5q14 5 28 9l27 8l12 5t13 2q11 -2 13.5 -1t4.5 1q8 1 13.5 -2t12.5 -5q6 -2 11.5 -3t10.5 -3t8.5 -5.5l6.5 -6.5q4 -2 7.5 -5t7.5 -6q8 -17 18 -34t10 -41
q-6 -9 -7 -9t-2 -2q-11 -7 -16 -12.5t-11 -11.5l-14 -14q-3 -2 -7 -3.5t-5 -6.5q-8 -4 -13 -10t-13 -9q-9 -11 -22 -17.5t-24 -14.5q-11 -7 -14.5 -9t-6.5 -5q-11 -5 -19.5 -10t-19.5 -9q-5 -2 -9.5 -5t-11.5 -2q-5 2 -10 4.5t-9 -4.5q-13 -2 -24.5 4.5t-12.5 18.5
q-12 10 -7 27q2 8 7.5 16t9.5 15q5 9 9 17.5t9 16.5q14 15 28.5 28t36.5 18l14 4t13 4q3 -2 6 0t6 0q4 -3 3 -7t-1 -9q-3 -4 -8 -5.5t-9.5 -3t-8.5 -4t-5 -8.5q-28 -24 -50 -60q3 -2 8 -5t10 -4q8 -2 18.5 4t16.5 9q28 13 50 35q6 5 12.5 11t9.5 12q4 5 7 10t8 8
q1 9 -2.5 14.5t-8 11t-9.5 10.5t-7 12q-5 2 -8.5 7t-8.5 7q-2 0 -8.5 1t-7.5 1q-25 -5 -39 -11l-28 -12q-34 -18 -63 -42q-3 -2 -7 -4t-6 -4q-5 -4 -8.5 -10t-8.5 -12q-5 -7 -10.5 -13.5t-7.5 -14.5q-6 -3 -8 -11.5t-7 -13.5q-2 -8 -5 -14.5t-5 -15.5q9 -18 13.5 -28
t9.5 -20q1 -11 6.5 -19.5t10.5 -19.5q14 -23 25.5 -48.5t25.5 -48.5l11.5 -27.5t16.5 -23.5q2 -7 5.5 -13.5t6.5 -13.5q4 -12 11 -26q3 -8 7 -14t6 -12q4 -9 6.5 -22.5t1.5 -22.5q0 -10 -1 -14t-3 -6.5t-4 -5.5t-4 -12q-9 -16 -21 -29t-21 -30q-6 -8 -13 -14l-14 -12
q-7 -5 -14.5 -9t-13.5 -10q-17 -15 -35.5 -21.5t-34.5 -17.5q-6 0 -12 -1.5t-12 -3.5l-10.5 -4l-11.5 -4q-5 -2 -8.5 -4t-8.5 -4q-14 -3 -30 -3.5t-33 3.5q-19 7 -29.5 6t-18.5 8q-5 2 -5.5 5t-4.5 6q-11 9 -14 11t-6 5q-15 12 -24 28l-6 10t-4 9q-2 6 -0.5 12.5t-2.5 12.5
q1 7 0 15t-1 14q0 9 2.5 18t-0.5 14q2 13 6 19.5t10 14.5q17 8 28.5 14.5t23.5 12.5q5 2 8.5 4t7.5 4q9 5 19 8t21 8q9 5 18.5 9t18.5 9q6 0 11.5 3t12.5 3q2 0 5 -0.5t6 -0.5h11t11 -2t9 -6t11 -4q7 -7 11.5 -15.5t7.5 -17.5q2 -5 3.5 -14t1.5 -15q-1 -15 -10.5 -23
t-17.5 -19q-14 -5 -31 -17q-10 1 -18 -3.5t-19 -7.5q-5 -1 -11 0t-11 -1q-5 -1 -10 -4t-10 -1t-7.5 8t-0.5 12q6 10 17.5 12.5t22.5 8.5q10 5 17.5 13l15.5 16q5 6 12 12t3 16q-9 7 -20.5 4t-20.5 -7q-18 -8 -35.5 -17l-34.5 -17q-8 -3 -12 -7q-2 -3 -3 -8t-3 -9
q-7 -15 -4 -30q2 -5 5 -9.5t3 -9.5q4 -4 7 -7.5t6 -7.5q3 -2 5 -2.5l6 -1.5q10 -6 24 -11l18.5 -6t17.5 -4q5 -1 13 2t14 5l47 23l47 23q8 5 15 11.5t12 14.5q9 11 15 27t9 33q1 4 1 7.5v6.5q-6 11 -5.5 13.5t-1.5 4.5q-7 12 -8.5 16.5t-3.5 8.5q-7 11 -17 19t-13 24
q-6 5 -8.5 13t-10.5 10l-3.5 8.5t-3.5 9.5q-6 7 -9 15q-6 5 -10 11l-9 13q-8 8 -11 12q-4 5 -6.5 11t-7.5 11q-3 5 -7.5 9t-6.5 10q-8 9 -13 20.5t-8 25.5q2 12 -4 21t-3 23q5 14 11 28t10 26q5 2 6 7.5t3 10.5zM453 935q14 -5 24.5 -14t27.5 -14q3 -6 8 -10.5t10 -8.5
t10 -8.5t7 -10.5q11 3 20 11.5t22 11.5q23 16 52 28q10 -5 19.5 2t19.5 11q3 6 10 11t14 8q15 1 23 -7t5 -19q-2 -5 -5 -8.5t-1 -7.5q-5 -6 -11.5 -9.5l-14.5 -7.5l-24 -10.5t-25 -11.5q-8 -4 -15 -8.5t-16 -8.5l-17 -8.5t-18 -9.5l-22 -12l-23 -13q-17 0 -29 9.5t-25 15.5
q0 5 -4 5.5t-4 4.5q-12 2 -19 8.5t-18 9.5q-2 5 -5.5 8t-3.5 9q-7 8 -15 14.5t-10 17.5q3 22 19 30q3 8 8.5 12t10.5 3q8 -11 12 -13.5t3 -9.5z" />
    <glyph glyph-name="scaron" unicode="&#x161;" horiz-adv-x="312" 
d="M106 147q2 -4 -1.5 -11t-5.5 -12q1 -4 2 -6.5t-1 -6.5q7 -5 9 -11.5t7 -13.5q5 -6 10.5 -10t10.5 -9q5 3 8 3t8 2q9 12 14 28q1 4 2 9t1 9q-1 14 -8 27t-11 27q-4 8 -2.5 18t-0.5 18q-1 5 -3 8t-4 7q-2 8 -1.5 18t-4.5 17q-4 -4 -13 -15l-19 -24l-18.5 -24t-12.5 -15
q-5 -7 -11 -12.5t-11 -12.5l-13.5 -16.5l-19.5 -24.5l-18.5 -24.5l-11.5 -15.5l-10.5 -15l-19 -26l-19 -26t-10.5 -16q-6 -10 -15.5 -17.5t-22.5 -7.5q-1 1 -2 5.5t-1.5 9.5t-2 9.5t-2.5 6.5q3 6 4.5 12t8.5 11q2 7 12 22.5l22 32.5l22.5 32l14.5 21q4 4 13 15t18 23.5
l17.5 23.5l12.5 16q3 9 13 24.5t22 32l23.5 31.5t17.5 24l8.5 14l7.5 13q2 2 4 4.5t3 4.5q2 8 -2 11.5t-3 10.5q8 16 17.5 21.5t17.5 16.5q5 4 9.5 6t9.5 7q4 4 10 4.5t11.5 -1t10 -4t5.5 -4.5q1 -3 0 -8l-2 -10q-2 -9 -4 -16.5t-4 -16.5q-2 -11 -3.5 -21t6.5 -19
q-1 -5 0.5 -12t3.5 -13q2 -32 11.5 -63.5t20.5 -57.5q0 -5 1.5 -10t3.5 -10q3 -32 -6 -63.5l-17 -61.5q-6 -10 -10 -23q-2 -6 -4 -10t-6 -9q-5 -8 -9 -18t-16 -16q-7 -2 -13.5 0t-12.5 0q-5 -1 -9 -2.5t-8 -1.5q-13 -2 -21.5 2.5t-20.5 6.5q0 3 -3 4.5t-5 3.5q-4 16 -8 23
t-6 15q-3 11 -3 21.5t-5 21.5q-4 8 -3.5 11t0.5 6q0 13 -1.5 28.5t12.5 25.5q5 4 7.5 10.5t8.5 11.5q2 2 6.5 2t6.5 -1zM146 618q14 -5 24.5 -14t27.5 -14q3 -6 8 -10.5t10 -8.5t10 -8.5t7 -10.5q11 3 20 11.5t22 11.5q23 16 52 28q10 -5 19.5 2t19.5 11q3 6 10 11t14 8
q15 1 23 -7t5 -19q-2 -5 -5 -8.5t-1 -7.5q-5 -6 -11.5 -9.5l-14.5 -7.5l-24 -10.5t-25 -11.5q-8 -4 -15 -8.5t-16 -8.5l-17 -8.5t-18 -9.5l-22 -12l-23 -13q-17 0 -29 9.5t-25 15.5q0 5 -4 5.5t-4 4.5q-12 2 -19 8.5t-18 9.5q-2 5 -5.5 8t-3.5 9q-7 8 -15 14.5t-10 17.5
q3 22 19 30q3 8 8.5 12t10.5 3q8 -11 12 -13.5t3 -9.5z" />
    <glyph glyph-name="Yacute" unicode="&#xdd;" horiz-adv-x="601" 
d="M431 712q1 -13 -2 -22t-5 -18q-5 -10 -9 -15t-7 -12q-3 -4 -5 -8t-4 -7q-3 -5 -7 -9t-7 -9l-5.5 -9.5l-5.5 -9.5q-5 -7 -9.5 -14t-8.5 -15q-2 -4 -4.5 -7t-3.5 -8l-11.5 -14t-10.5 -16q-3 -5 -5 -12q-3 -9 -5.5 -12.5l-4.5 -6.5l-12.5 -16.5t-9.5 -19.5q-3 -17 -11 -29
t-15 -26l-12.5 -29t-11.5 -30q-6 -18 -12.5 -35t-8.5 -37q8 -8 18.5 -2.5t15.5 11.5q10 4 16 12q19 8 31 19.5t25 25.5q6 1 9 5t8 6q12 18 27.5 34.5t31.5 30.5q2 5 6 8t8 7q7 7 13 14.5t14 15.5q3 5 8 8t8 5q2 2 4.5 4t5.5 4q10 8 22 16.5t22 16.5l10.5 12.5t12.5 11.5
q5 11 10 20.5t9 20.5q8 10 12 20q16 23 21.5 39.5t11 31t12 28t18.5 27.5q8 7 19 12.5l22 10.5q14 6 30 7t29 3q6 -2 6 -7t-1 -13q0 -7 -3.5 -13t-3.5 -11q-16 -35 -31 -59q-4 -11 -7 -20.5t-8 -20.5q-2 -4 -4.5 -8.5t-4.5 -8.5t-5.5 -6.5t-5.5 -6.5l-3.5 -10.5t-3.5 -9.5
l-4 -8l-4 -8q-7 -11 -9 -17t-4 -11q-5 -8 -8.5 -18.5t-10.5 -18.5q-6 -10 -6 -12t-2 -4q-7 -10 -7 -11.5t-1 -3.5q-10 -17 -14.5 -29t-12.5 -24q-6 -18 -11.5 -37t-12.5 -36q-2 -16 -7 -29t-10 -28q-8 -18 -11 -33q-6 -13 -10.5 -21t-6.5 -18q-10 -8 -14 -18
q-4 -2 -6.5 -6.5l-5.5 -9.5q-2 -2 -4 -3.5t-3 -6.5l-28 -32.5t-24 -31.5q-11 -11 -21.5 -23l-21.5 -24l-21.5 -20t-18.5 -21q-11 -8 -21 -16.5l-19 -16.5l-28.5 -22t-25.5 -19q-15 -10 -29 -17.5t-28 -17.5l-14 -5.5l-9 -3.5q-5 -1 -10.5 -3t-9.5 -2q-5 3 -7 2t-4 0
q-7 3 -9 2.5t-4 -0.5q-5 1 -8.5 3.5t-8.5 4.5t-8.5 2.5t-7.5 3.5q-8 10 -16.5 12.5t-15.5 7.5l-4.5 4.5t-5.5 4.5q-4 3 -6 6.5t-4 8.5t-2 9t-2 9q-7 20 -13 42.5t-6 46.5v19q1 5 2.5 9t1.5 9q0 3 -1.5 5.5t-2.5 5.5q-1 4 -2 10.5t1 10.5q1 2 5.5 7.5t7.5 7.5q12 3 18 8t14 8
q7 -2 11.5 1.5t10.5 4.5q12 2 20 -11.5t3 -28.5l-4 -14.5t-3 -15.5q-2 -14 -1.5 -32.5t2.5 -32.5q2 -10 4 -23t5 -22q10 -17 26 -32q2 1 7 1t8 -1l15 7.5t10 4.5q17 12 36.5 30t36.5 32q16 11 28 26q6 8 13 16t15 16q8 10 16.5 19l16.5 18l16 19.5l16 18.5q8 14 16 23.5
t15 21.5q9 10 16 21.5t15 22.5q10 16 18.5 31.5t15.5 35.5l7.5 20l7.5 19q6 15 13.5 31t12.5 32q-11 -7 -19 -14t-19 -13q-7 -8 -14.5 -14.5t-15.5 -12.5q-12 -16 -27 -28.5t-29 -26.5q-15 -14 -27.5 -29t-27.5 -29q-4 -1 -10 -7q-8 -4 -14.5 -10.5t-16.5 -10.5q-2 -1 -5 -1
t-6 -2q-4 -1 -6.5 -2t-7.5 -2t-10 -3.5t-10 -3.5q-9 -1 -22.5 2t-23.5 6l-9 3.5t-8 4.5q-7 5 -10 13t-8 17q-3 5 -6.5 9.5t-5.5 9.5q1 5 -1 10.5t-1 12.5q0 5 1.5 9l3.5 9q1 5 2 9.5t3 9.5q3 15 7.5 28.5t9.5 26.5l30 63.5t32 50.5l10.5 22t10.5 17l19.5 42t23.5 37
q6 23 16.5 40t20.5 37q-11 -2 -19 -9.5t-18 -12.5q-22 -13 -35 -31.5t-32 -30.5l-16.5 -13.5t-10.5 -9.5q-9 0 -17 -3.5l-15.5 -7t-16.5 -5.5t-20 1q-4 -2 -8.5 -1.5t-9.5 2.5q-4 2 -7 4.5t-8 2.5q-7 4 -9.5 15t1.5 20q11 7 25 12l14.5 7.5l14.5 7.5l11.5 5.5t11.5 7.5
q16 13 35 26q26 25 58.5 45t56.5 48q8 1 13.5 5t12.5 2q23 -8 36 -16q9 1 18 -4t16 -8q6 -2 10.5 -4t10.5 -11zM684 943q4 -10 19 -13q2 -8 5.5 -17.5t-4.5 -15.5q-12 -3 -15 -4.5t-4 -5.5q-7 -1 -10 -8q-26 -17 -48.5 -36.5t-48.5 -34.5q-11 -8 -13.5 -9.5t-7.5 -0.5
q-11 -8 -26 -15q-15 0 -24 12q-2 10 -1.5 18t7.5 13q15 7 27 17l23.5 20.5l23.5 20.5t26 17q13 13 27.5 24t32.5 19q4 0 6.5 -1t4.5 0z" />
    <glyph glyph-name="yacute" unicode="&#xfd;" horiz-adv-x="458" 
d="M74 79q10 -2 18 5t17 12q4 5 9.5 10.5t11.5 9.5q14 18 31 34q8 10 16 19t16 19q5 7 8 13t7 12q5 8 11.5 16t9.5 19q4 6 10.5 10t10.5 10q3 4 5 9t6 8t4.5 5t2.5 4q3 5 7.5 9t8.5 9q11 9 18 15.5t15 11.5q18 6 36.5 4t26.5 -13q1 -13 3.5 -24.5t-3.5 -29.5q-4 -10 -10 -20
t-9 -20l-4 -6t-4 -5q-10 -27 -21 -52.5l-22 -51.5q25 12 38 21t28 17l18 12t19 12q8 10 18 16.5l21 13.5q7 7 14 11.5l15 9.5q5 4 9.5 8t9.5 7q4 4 7.5 8t8.5 7q5 2 9 4t9 5q4 2 7.5 5t8.5 5l7 9.5t11 3.5q2 3 7.5 3t8.5 -2q0 -4 1.5 -6t-0.5 -7l-9 -7.5t-10 -5.5
q-13 -14 -22.5 -20t-15.5 -17l-35 -34l-36 -33q-6 0 -11 -4t-10 -2q-6 2 -10 -8q-13 -14 -27.5 -26t-30.5 -23q-20 -21 -45 -36.5t-45 -35.5q-2 -20 -10.5 -38.5t-13.5 -36.5q-8 -17 -11.5 -30t-10.5 -25q-3 -17 -10 -31.5t-15 -28.5q-2 -11 -10 -21t-13 -22q-2 -5 -5 -9.5
t-5 -9.5q-3 -5 -5 -10t-5 -10q-2 -2 -4 -4.5t-4 -4.5l-12 -21q-8 -17 -20.5 -28.5l-26.5 -25.5q-5 -5 -8.5 -10t-8.5 -10t-10 -9.5t-10 -10.5q-8 -3 -13 -9.5l-10 -13.5q-4 -2 -6.5 -4.5t-6.5 -4.5q-8 -3 -10 -4.5t-4 -2.5q-7 -4 -15 -4.5t-14 -5.5q-10 0 -14.5 4t-8.5 9
q-5 9 -4.5 20t3 23l5 23.5t1.5 22.5q5 16 6 27t4 20q7 11 8 16t6 7q1 6 3 10t3 9q3 2 5 5t6 5q10 20 15.5 34t12.5 28q3 8 5 15t5 13q5 11 13.5 22l16.5 22q7 9 9.5 13l4.5 7q8 6 7.5 7.5t0.5 1.5l12.5 12l13.5 12q6 7 12 13t14 11q6 7 12 13t14 11q16 11 29 24.5t28 24.5
q2 14 7 25t7 24q4 7 7 16t5 17q3 3 4.5 8t3.5 11q5 10 5 17q1 6 1 10.5t2 10.5q1 5 1 14q-7 -6 -12.5 -14l-10.5 -15l-4.5 -4.5t-3.5 -7.5q-5 -6 -7 -7t-2 -3l-45.5 -53.5l-45.5 -53.5q-9 -8 -19 -15.5l-21 -15.5l-19 -14.5t-27 -3.5q-23 -9 -37.5 3.5t-22.5 27.5
q-4 6 -6.5 10.5t-1.5 15.5q2 11 5 22.5t5 25.5q2 11 3.5 22t4.5 23q3 14 8 27t12 22l9.5 28.5l9.5 27.5q5 16 12 31t15 29q5 7 9.5 12.5l9.5 11.5q10 1 16 3.5t12 5.5q7 2 14 3.5t13 3.5q11 5 14 4.5t5 2.5q2 -5 6 -6.5t5 -6.5q0 -7 -5.5 -17t-7.5 -15q-4 -7 -8 -16t-9 -16
q-2 -9 -5.5 -17.5t-6.5 -17.5q-10 -11 -17.5 -25l-15.5 -30q-2 -5 -4.5 -9t-4.5 -9q-2 -9 -3.5 -18t-3.5 -18q-2 -5 -3.5 -10.5t-2.5 -12.5q-2 -14 -3 -28t-1 -29zM216 -7q-20 -13 -35 -28.5l-31 -31.5l-14 -15.5t-13 -16.5l-10.5 -18.5t-13.5 -17.5q-12 -11 -15 -17.5
t-6 -11.5l-7.5 -15.5t-8.5 -14.5q-5 -10 -9 -20t-9 -20q-7 -18 -11 -34.5t-3 -33.5v-7.5t3 -5.5q5 0 15 4l15.5 14t14.5 15l15 16.5l15 15.5q14 16 25 34.5t19 41.5q6 11 10 23.5t10 22.5q11 32 23 61.5t22 59.5h-1zM429 575q4 -10 19 -13q2 -8 5.5 -17.5t-4.5 -15.5
q-12 -3 -15 -4.5t-4 -5.5q-7 -1 -10 -8q-26 -17 -48.5 -36.5t-48.5 -34.5q-11 -8 -13.5 -9.5t-7.5 -0.5q-11 -8 -26 -15q-15 0 -24 12q-2 10 -1.5 18t7.5 13q15 7 27 17l23.5 20.5l23.5 20.5t26 17q13 13 27.5 24t32.5 19q4 0 6.5 -1t4.5 0z" />
    <glyph glyph-name="Thorn" unicode="&#xde;" horiz-adv-x="465" 
d="M300 526q24 10 37 13t27 8q8 0 16.5 2.5t16.5 3.5q5 1 11.5 0.5t11.5 -0.5l25 -4.5t21 -8.5q3 -3 6 -7.5t7 -8.5q7 -8 10.5 -15t8.5 -19l3.5 -9t1.5 -10q1 -6 1.5 -12t1.5 -13q1 -5 0 -10.5t-1 -11.5t0.5 -12t-0.5 -11q-2 -7 -5 -11.5t-4 -12.5l-15.5 -38t-20.5 -33
q-17 -20 -25.5 -33t-21.5 -22q-8 -11 -18.5 -19.5t-18.5 -18.5q-11 -7 -21.5 -15.5t-23.5 -13.5q-2 -1 -4.5 -1.5l-7.5 -1.5q-8 -2 -15 -5t-15 -5q-18 -1 -27 -2t-20 0q-4 0 -8 0.5t-8 -1.5q-19 2 -40.5 2.5t-38.5 8.5q-6 -4 -7 -10q-11 -15 -15.5 -25t-9.5 -20
q-1 -7 -3 -13.5t-3 -13.5q-3 -12 -4.5 -16.5t-2.5 -9.5q-1 -4 -1 -8t-2 -6q-1 -11 -6.5 -20t-8.5 -20q-4 -5 -5 -11.5t-5 -11.5q-8 -2 -11.5 -8.5t-8.5 -11.5q-18 -16 -35 -17q-18 0 -21 3q-5 9 -11.5 19.5l-12.5 20.5q1 5 2 8t2 8q12 25 25.5 48l26.5 47q6 14 10 20.5
t6 12.5q2 5 3 8.5t3 7.5q2 5 4.5 9l5.5 9q6 14 13 27t12 28q2 5 4 8.5t4 7.5t4.5 7t4.5 7q3 6 5.5 12.5t5.5 12.5q2 6 5 12t5 11l11.5 30.5t10.5 29.5q5 9 9 13q3 3 6.5 7.5t5.5 8.5q4 14 7 20.5t4 12.5q1 5 1 8.5t3 8.5q1 5 3 10.5t2 11.5q0 4 -1 7.5t1 7.5v12
q10 12 22.5 19t21.5 19q14 17 21 38.5t18 41.5q2 9 5 12l10 23l10 22q5 12 8.5 23t7.5 22q-6 7 -3 14.5t7 11.5q17 8 37 15t40 8q5 -2 9.5 -5t6.5 -8q1 -13 -3.5 -21t-8.5 -17q-2 -2 -5 -4.5t-5 -5.5q-4 -14 -7 -19.5l-6 -11.5q-2 -3 -3 -5.5t-2 -5.5q-2 -4 -2.5 -7t-2.5 -5
l-8.5 -14l-8.5 -14q-2 -7 -5.5 -12.5t-4.5 -11.5q-3 -4 -5 -8t-5 -9q-8 -14 -9.5 -20t-6.5 -10q-1 -5 -3 -8t-3 -8q-3 -6 -4 -7.5t-1 -4.5zM218 240q7 0 14 -1t13 0t8 0.5t4 -0.5l18 7.5l11 4.5l33.5 15.5t27.5 18.5q9 13 19.5 24.5l21.5 24.5q2 5 4 9.5t2 9.5
q8 16 12.5 33.5t6.5 36.5q1 8 0 16t-3 13q-12 8 -22.5 17.5t-26.5 6.5q-10 -2 -19.5 -3t-17.5 -5q-9 -3 -15.5 -8.5t-13.5 -10.5q-5 0 -8.5 -3t-7.5 -6q-7 -4 -11.5 -7.5t-9.5 -8.5q-2 -2 -5 -4.5t-5 -4.5q-5 -7 -4.5 -14.5t-3.5 -14.5q1 -7 -2 -12t-6 -12q-2 -5 -2.5 -9.5
t-2.5 -9.5l-12 -24q-2 -5 -4.5 -10t-6.5 -9q-5 -14 -12.5 -27.5l-14.5 -25.5q8 -6 19.5 -7t21.5 0z" />
    <glyph glyph-name="thorn" unicode="&#xfe;" horiz-adv-x="356" 
d="M138 285l13 6.5t14 7.5q4 2 7.5 2.5t9.5 2.5q5 2 11 4t11 2q15 -1 20.5 1.5t11.5 4.5q3 0 6 -0.5t7 -0.5q5 0 9.5 1t8.5 1q10 -5 12.5 -4.5t4.5 -0.5q2 -2 4 -4.5t4 -4.5q12 -8 16 -18q7 -16 7 -32q1 -5 0 -10t-2 -11q-1 -5 -1 -11t-1 -11q-2 -16 -7 -29.5t-10 -25.5
q-7 -9 -9.5 -18t-8.5 -17q-10 -13 -12 -18.5t-6 -10.5q-12 -12 -13 -18q-4 -2 -5.5 -5.5t-3.5 -6.5q-11 -13 -24.5 -22.5t-28.5 -18.5q-5 -7 -8.5 -13t-8.5 -13q-11 -8 -21 -17.5t-22 -15.5q-6 2 -12.5 -1.5t-13.5 -4.5q-7 1 -10.5 0.5t-5.5 -0.5q-5 1 -8 3t-7 3q-8 4 -9 7
q-19 7 -27.5 23t-18.5 33q-2 -2 -3.5 -4.5t-3.5 -4.5q-1 -7 -3.5 -12t-5.5 -10l-7 -12.5t-5 -15.5q-2 -5 -4 -9.5t-4 -9.5q-3 -10 -5 -19.5t-6 -19.5q-2 -5 -6 -10t-6 -11q-5 -10 -7 -21.5t-5 -22.5q-6 -22 -11 -43.5t-11 -42.5q-2 -5 -2.5 -9.5t-2.5 -8.5q-3 -4 -8 -8
t-10 -9q-7 -7 -13.5 -11.5t-17.5 -2.5q-12 5 -17 4.5t-9 1.5q-7 3 -10 16q-5 14 1 32q4 12 11 25l3.5 7l3.5 7q2 10 4 11t2 2l3.5 9l3.5 9t3 9t3 9q2 7 6 12.5t6 11.5q6 18 11 26l10 16q3 8 4.5 16t5.5 16q5 11 9 21t9 21q2 8 5.5 16t8.5 17q4 10 7 20.5t10 16.5q6 14 13 28
t14 31q2 5 3 10.5t3 10.5q1 3 2.5 6.5t3.5 7.5q2 6 1.5 13.5t1.5 15.5q2 9 4.5 16t4.5 15l16 16l16 16q8 13 15.5 27.5t16.5 26.5q1 6 3.5 12.5t5.5 11.5q4 13 9 26l10 25q5 10 8.5 19.5l7.5 19.5q5 10 10 18.5t10 18.5q5 9 9 18.5t10 18.5q8 10 17.5 18t21.5 14l8 10t8 12
q7 2 11 7.5t11 6.5q10 1 14 -8t-1 -17l3.5 -8.5t0.5 -9.5t-5 -13t-7 -15q-5 -7 -7.5 -13.5t-6.5 -13.5q-6 -12 -13 -23.5t-13 -24.5l-29 -62.5t-31 -61.5zM190 254q-13 -1 -18 -4.5l-9 -6.5l-28 -19.5t-27 -17.5q-17 -14 -26.5 -35.5t-21.5 -41.5q-3 -8 -5 -11.5t-4 -7.5
q-2 -5 -4 -9.5t-3 -8.5q-1 -7 1.5 -12.5t4.5 -10.5q1 -3 1.5 -7t2.5 -6q5 -10 16.5 -13t21.5 -5q11 3 21 7.5t18 11.5q5 9 11 18t12 17l9 11.5t8 11.5q1 2 1 5.5t2 6.5q2 5 6.5 10.5t6.5 10.5q3 5 5 11t5 12q2 8 7 13.5t8 12.5q3 6 5.5 13t3.5 13q2 11 3 20t-4 14
q-8 3 -15 1t-15 -4z" />
    <glyph glyph-name="Zcaron" unicode="&#x17d;" horiz-adv-x="531" 
d="M624 727q-1 -2 -5 -3t-5 -2q5 -11 2 -26q-2 -15 -11 -26.5t-15 -22.5q-8 -6 -14 -13l-12 -14q-8 -6 -15.5 -14t-16.5 -13q-4 -6 -11 -10q-5 -8 -10.5 -14l-10.5 -12t-11 -12t-13 -11l-29 -34t-27 -29q-5 -10 -13 -17.5t-13 -19.5q-13 -12 -17 -18.5t-9 -12.5
q-2 -4 -6 -6.5t-6 -5.5l-5.5 -7.5l-4.5 -6.5l-22 -25.5l-22 -25.5l-21.5 -25.5l-21.5 -24.5q-14 -20 -29.5 -40l-30.5 -39q-14 -23 -29 -37q-4 -8 -11 -18.5l-14.5 -21.5l-14.5 -21l-12 -17q-3 -1 -5 -3.5t-4 -4.5q40 1 73.5 7t60.5 7q9 1 19.5 2.5t21.5 2.5q5 0 10 -0.5
t10 -0.5h16.5t16.5 1q9 -2 18 -3t18 -3q8 -2 16.5 -3t16.5 -3q3 -2 5 -3t5 -2q2 -1 5.5 -1t6.5 -2q7 -2 15.5 -4t14.5 -7q2 -5 7.5 -8.5t10.5 -8.5t5.5 -10.5t-7.5 -10.5q-8 -3 -16 -7t-19 -3q-10 -8 -20 -7t-24 -1q-7 -6 -18.5 -9t-16.5 8q-11 4 -24 2t-25 0
q-20 4 -31.5 2.5t-22.5 -2.5q-21 -1 -40.5 -3l-39.5 -4q-14 -4 -32 -4.5t-32 -3.5q-14 0 -29 -2l-30 -4q-16 -2 -27 -5.5t-20 -4.5q-10 -1 -17.5 3t-11.5 11q-2 9 -4.5 14t-4.5 11q-3 22 8 38t21 28q3 6 7 11.5t9 9.5l16 23t17 19q10 17 24 27.5t25 25.5q18 19 28 33t22 25
q7 10 13 15q7 11 14 20t15 17q2 4 8 8q17 26 36 48.5t36 46.5q23 20 40 37.5t27 41.5l15 17t16 15q3 2 5.5 4t4.5 4q5 5 8 10t8 11l14.5 16l14.5 16q2 2 4.5 5t5.5 5q2 5 6 8t6 9q12 13 22.5 29t21.5 29q-13 2 -26.5 -1l-27.5 -6q-14 -2 -27 -5l-26 -6l-10.5 -4t-11.5 -3
q-6 0 -11.5 1t-10.5 0h-14.5t-13.5 2q-4 1 -7 1.5t-7 0.5q-8 2 -14 1.5t-11 3.5q-6 5 -12 5.5t-15 0.5q-12 0 -24 0.5t-22 6.5q-12 7 -14.5 9t-4.5 6q-6 10 -4.5 16.5t5.5 8.5q12 0 16.5 2t9.5 4q21 4 34 5.5t25 3.5q26 5 51.5 8.5t50.5 11.5q14 0 29 5h63t61 -2q5 2 12 1
l14 -2q14 -1 33 0t35 -6q11 -7 12 -9zM412 945q14 -5 24.5 -14t27.5 -14q3 -6 8 -10.5t10 -8.5t10 -8.5t7 -10.5q11 3 20 11.5t22 11.5q23 16 52 28q10 -5 19.5 2t19.5 11q3 6 10 11t14 8q15 1 23 -7t5 -19q-2 -5 -5 -8.5t-1 -7.5q-5 -6 -11.5 -9.5l-14.5 -7.5l-24 -10.5
t-25 -11.5q-8 -4 -15 -8.5t-16 -8.5l-17 -8.5t-18 -9.5l-22 -12l-23 -13q-17 0 -29 9.5t-25 15.5q0 5 -4 5.5t-4 4.5q-12 2 -19 8.5t-18 9.5q-2 5 -5.5 8t-3.5 9q-7 8 -15 14.5t-10 17.5q3 22 19 30q3 8 8.5 12t10.5 3q8 -11 12 -13.5t3 -9.5z" />
    <glyph glyph-name="zcaron" unicode="&#x17e;" horiz-adv-x="319" 
d="M140 178q11 2 23.5 4t26.5 1q7 0 13 1.5t14 -0.5q3 -1 6.5 -1t5.5 -1t4 -3t6 -4q14 -13 18.5 -26.5t3.5 -24.5q0 -5 -1.5 -11t-3.5 -12q-1 -6 -2.5 -13.5t-3.5 -14.5q-4 -14 -10.5 -25t-14.5 -22l-9.5 -15.5t-10.5 -12.5q-8 -16 -16.5 -29l-17.5 -26q-10 -11 -16.5 -23
t-16.5 -23q-4 -6 -8 -11t-9 -10t-8.5 -10.5t-8.5 -10.5q-8 -11 -17 -21.5l-18 -20.5q-10 -11 -19 -20t-20 -17q-13 -5 -23 -15.5t-21 -19.5q-14 -11 -25.5 -23.5t-25.5 -23.5q-5 -4 -10 -7.5t-10 -8.5q-17 -12 -27.5 -17.5t-20.5 -11.5q-4 -2 -7 -5.5t-6 -5.5
q-6 -2 -11 -3.5t-10 -3.5q-3 -2 -9.5 -3.5t-13 -2t-12 0t-8.5 3.5q-7 5 -7.5 7t-1.5 4q-4 5 -7 10t-8 10q-2 8 -2 15.5t6 11.5q-2 20 8 36.5t18 31.5l33.5 34l33.5 35q7 12 17.5 21t20.5 20q6 8 13.5 14.5t15.5 14.5l12 10l12 10q5 5 11.5 9t11.5 10q10 12 16.5 17.5
t11.5 11.5q12 11 16 17.5t11 9.5q5 6 9 12.5t10 12.5q3 3 7.5 6.5t7.5 8.5q2 5 2.5 11t2.5 12q6 3 8 0.5t5 -4.5q4 -11 1.5 -22t-10.5 -19l-21 -28.5t-23 -19.5q-4 -5 -7 -11.5t-9 -9.5l-11.5 -18.5t-12.5 -16.5q-3 -5 -7 -8t-6 -10q-5 -10 -14 -15t-13 -16l-34 -33
l-29.5 -28.5t-26.5 -28.5l-21 -25q-8 -11 -10 -17.5t0.5 -9.5t8 -2.5t11.5 3.5q13 6 18.5 10.5t13.5 10.5l27 16t25 19q13 10 23.5 22t22.5 24q14 21 31.5 38.5t35.5 33.5q15 24 29.5 43.5t31.5 36.5q3 3 5 6.5t4 8.5q9 14 19 27t21 29q10 15 15.5 30.5t10.5 35.5q-3 5 -4 8
t-3 6q-6 8 -21 9.5t-25 -1.5q-5 -2 -9.5 -4.5t-9.5 2.5q-14 -3 -27.5 -9.5t-27.5 -12.5q-7 -2 -14 -5.5t-13 1.5q-4 3 -8.5 10t-6.5 12q-2 3 -4 8.5t0 11.5q2 5 8.5 12.5t10.5 10.5t8 4.5l9 3.5q5 3 10 8.5l10 10.5q8 8 17.5 12.5t14.5 12.5l24.5 17t25.5 22q3 3 5.5 6
t5.5 6l18.5 22.5t12.5 29.5q1 5 -6.5 11.5t-11.5 7.5q-5 1 -9 -0.5t-8 -2.5l-14 -4l-14 -4q-3 -1 -5 -3l-4 -4l-15 -5t-8 -2q-4 -4 -5.5 -8.5t-4.5 -8.5q-2 -4 -5.5 -5.5t-5.5 -4.5q-5 -13 -9 -16.5l-9 -7.5q-4 0 -8.5 -3t-8.5 -1q-7 -5 -17.5 -1.5t-13.5 10.5q-2 11 -10 18
t-10 18q-2 8 -1 16.5t3 18.5q4 2 6.5 5.5t5.5 6.5q18 10 37.5 15.5t40.5 10.5q11 2 21 5.5t20 5.5q12 2 23.5 4.5t24.5 4.5q8 -3 17 -0.5t17 -1.5q3 -1 5 -4t5 -5t6.5 -3.5t6.5 -3.5q11 -11 17 -13.5t11 -6.5q1 -6 4 -9.5t5 -8.5q0 -25 -17 -35l-27.5 -36.5t-30.5 -33.5
q-2 -5 -5.5 -8t-5.5 -8q-6 -3 -11 -9.5l-10 -12.5q-4 -5 -8.5 -9t-7.5 -9zM146 587q14 -5 24.5 -14t27.5 -14q3 -6 8 -10.5t10 -8.5t10 -8.5t7 -10.5q11 3 20 11.5t22 11.5q23 16 52 28q10 -5 19.5 2t19.5 11q3 6 10 11t14 8q15 1 23 -7t5 -19q-2 -5 -5 -8.5t-1 -7.5
q-5 -6 -11.5 -9.5l-14.5 -7.5l-24 -10.5t-25 -11.5q-8 -4 -15 -8.5t-16 -8.5l-17 -8.5t-18 -9.5l-22 -12l-23 -13q-17 0 -29 9.5t-25 15.5q0 5 -4 5.5t-4 4.5q-12 2 -19 8.5t-18 9.5q-2 5 -5.5 8t-3.5 9q-7 8 -15 14.5t-10 17.5q3 22 19 30q3 8 8.5 12t10.5 3
q8 -11 12 -13.5t3 -9.5z" />
    <glyph glyph-name="onehalf" unicode="&#xbd;" horiz-adv-x="617" 
d="M545 226q-3 -12 -9.5 -17t-10.5 -13q-3 -1 -6 -3t-4 -7q-14 -8 -25 -17.5t-23 -17.5q-5 -11 -18 -16.5t-21 -13.5q-3 -3 -5 -6l-4 -6q-9 -10 -15 -14.5t-9 -8.5q-8 -11 -14 -23.5l-12 -25.5q1 -5 6.5 -2.5t12.5 2.5q8 3 23.5 4.5t24.5 1.5q5 1 10 1.5t10 1.5q7 1 13 0.5
t11 1.5q10 2 18 0q12 -13 15.5 -20t2.5 -15q-1 -5 -4 -9t-7 -7q-4 1 -7.5 0t-8.5 0q-27 -3 -44 -9t-35 -10q-5 3 -12 3q-15 -2 -20 -4.5t-12 0.5q-31 2 -40 24q-14 6 -15.5 10l-3.5 9q2 5 4 11t6 11q3 11 6.5 21t9.5 17q2 11 9.5 20l15.5 18q11 13 24.5 25.5l25.5 24.5
q14 12 28.5 22t26.5 22q9 5 13 7.5t9 6.5t7.5 9.5t5.5 11.5q2 3 4 5.5t1 4.5q0 3 -4.5 6.5l-8.5 6.5q-5 7 -12 8.5t-11 -0.5q-7 -2 -11 -9t-12 -11q-2 -1 -6 -1t-6 -2q-8 -2 -14 -6.5t-14 -4.5q-9 1 -11 -0.5t-4 -1.5q-6 -1 -9.5 4t-6.5 10q-1 3 -2.5 5.5t-0.5 7.5
q0 11 9 19q2 11 14 15q11 11 26 17.5t26 17.5q9 3 17 7t17 6q4 -3 9.5 -2t10.5 1q8 -1 18 -7t15 -11q14 -13 22.5 -27.5t6.5 -40.5q0 -5 -1 -10t-3 -10q-3 -4 -5 -9.5t-7 -8.5zM222 677q9 8 11 16q36 16 60 31.5t54 27.5q7 -8 14 -13.5t10 -12.5q2 -4 1.5 -7.5t0.5 -6.5
q4 -10 1.5 -12t-4.5 -4l2 -10.5t-1 -11.5t-6.5 -9.5t-8.5 -9.5q-6 -8 -11.5 -18.5l-10.5 -19.5q-11 -11 -15.5 -26t-11.5 -31q-8 -15 -14 -35q-3 -4 -5 -9t-5 -11q-9 -14 -13 -31t-13 -30q3 -8 0 -17.5t-5 -19.5q-9 -16 -17 -15t-11 6q-12 -5 -25 -11t-26 -7q-2 5 -5 9t-5 9
q2 5 3 9t3 10q5 5 9 11.5t9 12.5q8 23 19 40t19 40q2 14 7.5 24.5t10.5 22.5q4 8 8.5 15.5t6.5 14.5q3 7 5 14t7 13q4 7 6.5 15t5.5 16q-10 -2 -18 -8t-18 -3q-5 2 -9.5 6.5t-12.5 4.5q-2 5 -3.5 10.5t0.5 13.5zM726 758q0 -10 1 -15q-6 -18 -19 -31l-25.5 -23t-18.5 -19
q-50 -47 -96 -99l-27.5 -32t-28.5 -31q-11 -14 -23.5 -26t-22.5 -27l-42 -45q-8 -9 -18.5 -17.5t-19.5 -17.5l-12 -14t-13 -13l-12 -13.5l-12 -12.5l-24 -21t-23 -21l-17 -18.5t-18 -17.5q-3 -3 -9 -11q-11 -8 -14 -11.5t-6 -6.5l-18.5 -20t-17.5 -22q-13 -11 -23 -25
t-22 -27q-11 -14 -23 -25.5t-23 -23.5q-5 -4 -8.5 -9t-7.5 -9q-8 -6 -8.5 -8t-2.5 -4q-4 -4 -9 -8t-10 -9q-3 -5 -6 -9t-8 -7l-11 -7q-7 -4 -13.5 -6.5t-12.5 -7.5q-4 -2 -7 -5.5t-7 -6.5q-11 -3 -13 -3.5t-4 -1.5q-4 2 -7 9l-5 12q-1 15 3.5 23t9.5 16q5 3 7.5 6.5t6.5 7.5
q5 7 12.5 12.5t13.5 13.5q14 11 23.5 20l19.5 18q13 12 25 25t26 24q10 10 18.5 20t18.5 20l15 16.5l16 16.5q2 2 4.5 5t3.5 6q8 8 14 10q13 16 27 30l28 29q13 16 24 27l21 22l18 21.5t20 19.5l21.5 20l15.5 15l13.5 16t14.5 15q2 4 5 5.5t5 6.5q36 40 63.5 80.5t59.5 74.5
q4 8 9 13l10 10q18 17 30.5 31t26.5 26q13 9 26.5 17t24.5 19q16 8 33 15t35 9q4 -1 3.5 -6t-4.5 -10z" />
    <glyph glyph-name="onequarter" unicode="&#xbc;" horiz-adv-x="607" 
d="M222 677q9 8 11 16q36 16 60 31.5t54 27.5q7 -8 14 -13.5t10 -12.5q2 -4 1.5 -7.5t0.5 -6.5q4 -10 1.5 -12t-4.5 -4l2 -10.5t-1 -11.5t-6.5 -9.5t-8.5 -9.5q-6 -8 -11.5 -18.5l-10.5 -19.5q-11 -11 -15.5 -26t-11.5 -31q-8 -15 -14 -35q-3 -4 -5 -9t-5 -11
q-9 -14 -13 -31t-13 -30q3 -8 0 -17.5t-5 -19.5q-9 -16 -17 -15t-11 6q-12 -5 -25 -11t-26 -7q-2 5 -5 9t-5 9q2 5 3 9t3 10q5 5 9 11.5t9 12.5q8 23 19 40t19 40q2 14 7.5 24.5t10.5 22.5q4 8 8.5 15.5t6.5 14.5q3 7 5 14t7 13q4 7 6.5 15t5.5 16q-10 -2 -18 -8t-18 -3
q-5 2 -9.5 6.5t-12.5 4.5q-2 5 -3.5 10.5t0.5 13.5zM726 758q0 -10 1 -15q-6 -18 -19 -31l-25.5 -23t-18.5 -19q-50 -47 -96 -99l-27.5 -32t-28.5 -31q-11 -14 -23.5 -26t-22.5 -27l-42 -45q-8 -9 -18.5 -17.5t-19.5 -17.5l-12 -14t-13 -13l-12 -13.5l-12 -12.5l-24 -21
t-23 -21l-17 -18.5t-18 -17.5q-3 -3 -9 -11q-11 -8 -14 -11.5t-6 -6.5l-18.5 -20t-17.5 -22q-13 -11 -23 -25t-22 -27q-11 -14 -23 -25.5t-23 -23.5q-5 -4 -8.5 -9t-7.5 -9q-8 -6 -8.5 -8t-2.5 -4q-4 -4 -9 -8t-10 -9q-3 -5 -6 -9t-8 -7l-11 -7q-7 -4 -13.5 -6.5t-12.5 -7.5
q-4 -2 -7 -5.5t-7 -6.5q-11 -3 -13 -3.5t-4 -1.5q-4 2 -7 9l-5 12q-1 15 3.5 23t9.5 16q5 3 7.5 6.5t6.5 7.5q5 7 12.5 12.5t13.5 13.5q14 11 23.5 20l19.5 18q13 12 25 25t26 24q10 10 18.5 20t18.5 20l15 16.5l16 16.5q2 2 4.5 5t3.5 6q8 8 14 10q13 16 27 30l28 29
q13 16 24 27l21 22l18 21.5t20 19.5l21.5 20l15.5 15l13.5 16t14.5 15q2 4 5 5.5t5 6.5q36 40 63.5 80.5t59.5 74.5q4 8 9 13l10 10q18 17 30.5 31t26.5 26q13 9 26.5 17t24.5 19q16 8 33 15t35 9q4 -1 3.5 -6t-4.5 -10zM557 310q-10 -4 -16 -19q-3 -13 -8.5 -24t-13.5 -20
q-20 -51 -42 -99l13 -4.5t13 -3.5q4 -5 12.5 -11.5t6.5 -14.5q-1 -5 -4 -6t-4 -7q-3 -1 -5.5 -3t-5.5 -1q-12 3 -14 4t-4 3q-14 3 -28 0q-4 -8 -9 -17t-8 -19q-2 -10 -3 -18.5t-6 -16.5q-5 -11 -10.5 -21.5t-13.5 -19.5q-8 2 -14.5 -3t-14.5 -1q-4 -2 -6.5 -2t-5.5 1
q-3 -2 -5 -3.5t-6 -0.5q-2 1 -5.5 6t-4.5 7q9 25 17.5 45.5t17.5 32.5q2 6 5 10.5t5 9.5q-7 0 -13.5 -0.5t-11.5 -2.5q-17 4 -26 4t-17 2q-16 2 -22 12q-9 17 -9 31q7 8 7 15q14 3 20 11.5t14 15.5q6 16 19 25.5t24 20.5q11 14 25.5 25.5l28.5 22.5q5 8 11 16t13 14
q6 7 14 15.5t17 12.5q4 2 9 2.5t9 -1.5q7 2 17.5 4t15.5 -3q12 0 17 -5q2 -5 3.5 -10t1.5 -11zM475 274q-5 -5 -9 -10t-10 -9q-4 -7 -9.5 -11t-9.5 -12l-12.5 -13l-10.5 -11t-9 -10t-8 -11q-11 -6 -18.5 -16t-16.5 -18q11 -11 25 -9.5t29 3.5q8 16 14 33.5t15 31.5
q4 11 9 19.5t11 16.5q5 7 7.5 12t4.5 13z" />
    <glyph glyph-name="onesuperior" unicode="&#xb9;" horiz-adv-x="229" 
d="M187 677q10 8 12 16q35 16 59 31.5t54 27.5q8 -8 14.5 -13.5t9.5 -12.5q2 -4 1.5 -7.5t0.5 -6.5q3 -12 -3 -16l2 -10.5t-1 -11.5t-6 -9.5t-8 -9.5q-8 -8 -13 -18.5t-10 -19.5q-11 -11 -15 -26t-12 -31q-8 -15 -14 -35q-3 -4 -5 -9t-5 -11q-8 -14 -12.5 -31t-13.5 -30
q3 -8 0 -17.5t-5 -19.5q-9 -16 -16.5 -15t-11.5 6q-12 -5 -24.5 -11t-26.5 -7q-2 5 -5 9t-5 9q2 5 3 9t3 10q5 5 9.5 11.5t9.5 12.5q7 23 18 40t19 40q2 14 7.5 24.5t10.5 22.5q4 8 8.5 15.5t6.5 14.5q3 7 5 14t8 13q4 7 6 15t5 16q-10 -2 -18 -8t-18 -3q-6 2 -10 6.5
t-12 4.5q-2 5 -3.5 10.5t0.5 13.5z" />
    <glyph glyph-name="threequarters" unicode="&#xbe;" horiz-adv-x="638" 
d="M250 727q5 -1 9 1.5t8 3.5q12 6 15 6t5 1q8 3 15.5 7t15.5 7q14 0 26.5 1t23.5 -6q15 -15 24 -27q6 -8 11 -17t7 -17q-5 -5 -6.5 -11.5t-5.5 -11.5q-2 -3 -4.5 -5.5l-5.5 -5.5l-9 -9q-8 -9 -17 -17t-21 -13q-13 -6 -22 -12.5l-18 -12.5q-7 -1 -11.5 -4.5t-9.5 -6.5
q5 -1 12 0t13 2q7 -3 14 -2l21 -13.5t16 -16.5q2 -8 -0.5 -17.5t-5.5 -17.5q-2 -5 -2.5 -9.5t-4.5 -6.5q-6 -36 -30 -51q-7 -9 -15.5 -16t-18.5 -12q-7 -7 -14 -10t-16 -6q-4 -3 -9.5 -4.5l-12.5 -3.5l-8 -2t-9 -2q-17 -2 -21 -3t-10 1q-3 1 -6 2.5t-6 3.5q-8 2 -16 2.5
t-13 3.5q-5 6 -6 14.5t1 17.5t6.5 17t12.5 13q9 -10 22 -9.5t24 0.5q14 0 27.5 3t24.5 8q6 0 9 1.5t9 2.5q11 8 21 26t12 35q0 6 -2 10.5t-2 9.5q-30 0 -52 -9q-15 -5 -28 -3.5t-18 8.5q-2 11 -3.5 13.5t-1.5 4.5q1 9 6 15t10 11q9 3 17.5 7t16.5 9q14 5 27 13.5t26 14.5
q5 5 12.5 8.5t14.5 8.5q9 12 15 16.5t3 10.5q-2 4 -6 6t-6 5t-3.5 7.5t-4.5 5.5q-4 1 -9.5 -3t-9.5 -6q-11 -5 -21.5 -9t-19.5 -9q-17 -14 -26.5 -18.5t-20.5 -4.5q-8 4 -12 10.5t-9 12.5q0 12 3 13.5t2 4.5q7 4 9.5 8t6.5 8l20.5 10t14.5 9zM757 758q0 -10 1 -15
q-6 -17 -20 -31t-25 -23t-19 -19l-48 -48l-47 -51l-27.5 -32t-28.5 -31q-12 -14 -24 -26t-22 -27q-11 -11 -21 -22.5t-21 -22.5q-9 -9 -19 -17.5t-19 -17.5l-12.5 -14l-12.5 -13l-12 -13.5l-12 -12.5l-24.5 -21t-22.5 -21q-9 -9 -17.5 -18.5t-17.5 -17.5q-2 -2 -4.5 -5
t-5.5 -6q-10 -8 -13 -11.5t-6 -6.5q-9 -10 -19 -20t-17 -22q-13 -11 -23.5 -25t-21.5 -27q-11 -14 -23 -25.5t-23 -23.5q-5 -4 -8.5 -9t-7.5 -9q-8 -6 -9 -8t-3 -4q-4 -4 -8.5 -8t-9.5 -9q-3 -5 -6 -9t-8 -7q-8 -3 -12 -7q-6 -4 -12.5 -6.5t-12.5 -7.5q-4 -2 -7 -5.5
t-8 -6.5q-11 -3 -16 -5q-4 2 -7 9l-5 12q-1 15 3.5 23t9.5 16q5 3 7 6.5t6 7.5q6 7 13.5 12.5t13.5 13.5l23 20l20 18l24.5 25t26.5 24q10 10 18.5 20t18.5 20q6 8 14.5 16.5l16.5 16.5q2 2 4.5 5t3.5 6q8 7 13 10q14 16 28 30l28 29q13 16 23.5 27l21.5 22l18 21.5t20 19.5
l21 20l15 15t14.5 16t14.5 15q2 4 4.5 5.5t4.5 6.5q36 40 64 80.5t60 74.5q3 8 8 13t11 10q18 17 30.5 31t26.5 26q12 9 26 17t25 19q16 8 33 15t35 9q4 -1 3.5 -6t-4.5 -10zM588 310q-11 -4 -17 -19q-3 -13 -8 -24t-13 -20q-10 -26 -20.5 -50.5l-21.5 -48.5q6 -2 12.5 -4.5
t13.5 -3.5q4 -5 12.5 -11.5t6.5 -14.5q-1 -5 -4 -6t-4 -7q-3 -1 -5.5 -3t-5.5 -1q-12 3 -14 4t-4 3q-14 3 -29 0l-8.5 -17t-7.5 -19q-2 -10 -3 -18.5t-6 -16.5q-5 -11 -11 -21.5t-14 -19.5q-8 2 -14 -3t-14 -1q-4 -2 -7 -2t-6 1q-12 -3 -15.5 2t-4.5 7l17 45.5t18 32.5
q2 6 5 10.5t5 9.5q-7 0 -14 -0.5t-12 -2.5q-16 4 -25 4t-18 2q-15 2 -21 12q-9 17 -9 31q7 8 7 15q14 3 19.5 11.5t13.5 15.5q7 16 20 25.5t24 20.5q11 14 25 25.5t29 22.5q5 8 11 16t12 14l15 15.5t17 12.5q9 6 17 1q8 2 18 4t15 -3q13 0 18 -5q2 -5 3.5 -10t1.5 -11z
M506 274q-5 -5 -9 -10t-11 -9q-4 -7 -9 -11t-9 -12l-12.5 -13t-11.5 -11q-5 -5 -8.5 -10l-7.5 -11q-11 -6 -19 -16t-16 -18q11 -11 25 -9.5t28 3.5q8 16 14.5 33.5t15.5 31.5q3 11 8 19.5t12 16.5q5 7 7.5 12t4.5 13z" />
    <glyph glyph-name="threesuperior" unicode="&#xb3;" horiz-adv-x="289" 
d="M241 727q6 -1 10 1.5t7 3.5q12 6 15 6t6 1q8 3 15.5 7t15.5 7q14 0 26.5 1t22.5 -6q16 -15 25 -27q6 -8 10.5 -17t6.5 -17q-5 -5 -6 -11.5t-5 -11.5q-2 -3 -5 -5.5t-5 -5.5l-9 -9l-18.5 -17t-19.5 -13q-14 -6 -22.5 -12.5t-17.5 -12.5q-7 -1 -11.5 -4.5t-10.5 -6.5
q6 -1 13 0t12 2q8 -3 15 -2l21 -13.5t16 -16.5q2 -8 -0.5 -17.5t-5.5 -17.5q-2 -5 -2.5 -9.5t-4.5 -6.5q-6 -36 -30 -51q-13 -17 -35 -28q-6 -7 -13 -10t-16 -6q-4 -3 -10 -4.5t-12 -3.5l-8 -2t-9 -2q-2 -1 -5 -0.5t-7 -0.5q-5 -1 -9 -2t-10 1q-3 1 -6 2.5t-6 3.5
q-9 2 -17 2.5t-13 3.5q-5 6 -6 14.5t1 17.5t7 17t12 13q10 -10 23 -9.5t23 0.5q14 0 28 3t25 8q6 0 9 1.5t9 2.5q11 8 21 26t11 35q1 6 -1 10.5t-2 9.5q-30 0 -52 -9q-16 -5 -28.5 -3.5t-18.5 8.5q-2 11 -3.5 13.5t-1.5 4.5q0 9 6 15l11 11q9 3 17.5 7t16.5 9
q14 5 26.5 13.5t26.5 14.5q5 5 12.5 8.5t13.5 8.5q9 12 15 16.5t4 10.5q-2 4 -6 6t-6 5q-3 3 -4.5 7.5t-4.5 5.5t-8.5 -3t-10.5 -6q-10 -5 -20.5 -9t-19.5 -9l-4 -4t-6 -2q-8 -8 -17 -12.5t-20 -4.5q-8 4 -13 10.5l-10 12.5q1 12 3.5 13.5t2.5 4.5q8 4 10.5 8t6.5 8
q11 6 19.5 10t14.5 9z" />
    <glyph glyph-name="twosuperior" unicode="&#xb2;" horiz-adv-x="275" 
d="M350 632q-3 -12 -8.5 -17.5t-10.5 -12.5q-2 -1 -5.5 -3t-3.5 -6q-16 -8 -26.5 -18t-23.5 -18q-5 -10 -18 -16.5t-21 -14.5q-2 -2 -4 -5.5t-5 -6.5q-9 -9 -14 -13t-9 -9q-8 -11 -14.5 -23t-12.5 -26q1 -6 7 -3.5t13 3.5q9 3 23.5 4.5l24.5 2.5q5 0 9.5 1t9.5 2q7 1 13.5 0
t11.5 2h11.5h5.5q2 -2 3 -5.5t6 -3.5q3 -6 7.5 -12t2.5 -14q-1 -5 -4.5 -9l-7.5 -9q-4 2 -7.5 0.5t-7.5 0.5q-27 -3 -43.5 -9.5t-36.5 -8.5q-12 1 -12.5 0t-2.5 -2q-11 2 -16.5 -0.5t-12.5 0.5q-32 2 -39 24q-14 6 -15.5 10l-3.5 9q2 5 4 11t6 10q2 12 5.5 21.5t9.5 16.5
q3 11 11 21l15 18q11 14 24.5 25.5t24.5 23.5q14 14 29 23t27 22q9 5 13.5 8t8.5 6q5 4 7.5 9t4.5 12q2 2 4 4.5t2 5.5q-1 3 -5.5 6.5t-6.5 6.5q-5 6 -12.5 7.5t-11.5 0.5q-8 -2 -11.5 -8.5t-11.5 -10.5q-2 -2 -5.5 -2t-6.5 -1q-8 -4 -14 -8.5t-13 -4.5q-10 1 -12 0l-4 -2
q-7 0 -10.5 5t-5.5 11q-4 6 -4 13q1 10 10 17q0 12 14 17q10 11 25.5 16.5t26.5 16.5l16 8t19 6q3 -2 8 -1t10 0q8 -1 18.5 -7.5t15.5 -11.5q14 -12 22.5 -27t6.5 -39q0 -5 -1 -11t-2 -11q-5 -4 -7 -9t-7 -8z" />
    <glyph glyph-name="brokenbar" unicode="&#xa6;" horiz-adv-x="241" 
d="M350 748q0 -3 -1 -6t-1 -6q3 -10 1 -20.5t-7 -24.5q-2 -6 -6 -12t-7 -13l-3.5 -10.5t-3.5 -9.5l-8.5 -12.5l-8.5 -12.5q-2 -4 -2.5 -7t-2.5 -7l-24 -59l-23 -59q-3 -10 -4 -12l-2 -4q-5 -11 -9.5 -22t-15.5 -19q0 -8 -8 -14q-16 -8 -28 -2t-14 17q8 8 10.5 16.5t4.5 19.5
q2 5 3.5 10.5t4.5 12.5q2 4 2.5 8t2.5 9q9 26 20.5 52.5t18.5 52.5q5 25 17 53t23 57q4 4 9.5 9l11.5 10q13 10 17 14.5t12 2.5q5 -2 11 -5.5t10 -6.5zM119 316q2 2 4 6t4 6q3 1 7.5 2t7.5 -1q8 5 16 6.5t12 -4.5q2 -3 2 -10.5t-2 -12.5q-11 -21 -16 -35.5t-11 -28.5
q-3 -8 -5 -17q-4 -15 -9.5 -25.5t-9.5 -21.5q-2 -3 -2 -6t-2 -7q-3 -8 -7.5 -16t-7.5 -16q-5 -13 -9 -25t-10 -24l-8.5 -17t-9.5 -16q-5 -10 -9.5 -20t-11.5 -19q-4 -5 -8.5 -9t-8.5 -9q-10 -3 -16 -7q-3 1 -6 -0.5l-5 -2.5q-5 0 -8 3t-8 3q-4 10 -2.5 21.5t10.5 26.5
q2 5 6 10.5l8 11.5q5 9 10 17t4 16q8 15 12.5 33t13.5 33q9 26 20.5 53l22.5 51l9.5 24t9.5 22q4 2 7 4t6 1z" />
    <glyph glyph-name="minus" unicode="&#x2212;" horiz-adv-x="409" 
d="M398 336q-2 -4 -1 -6.5t-1 -6.5t-5 -7t-6 -8q-5 -8 -7 -14t-9 -11q-11 -2 -22.5 -4.5t-21.5 -3.5q-9 0 -22 -1t-23 1q-10 1 -13 1h-6q-14 0 -31.5 -3.5t-32.5 -3.5l-21.5 2t-24.5 -1q-11 -2 -14 -1.5t-6 -0.5q-5 -1 -9.5 -1.5t-8.5 -1.5q-5 -2 -11.5 -4t-12.5 -1
q-3 0 -5.5 2t-6.5 4q-5 2 -9.5 3.5t-6.5 5.5q2 7 3 16t9 19l5 5t6 7q4 5 5.5 7.5t6.5 6.5q5 2 9.5 2.5t9.5 3.5q8 -2 16.5 -1t12.5 -3q15 0 28.5 -2.5t29.5 -1.5q10 0 19.5 1.5t21.5 2.5h35q8 0 16.5 1t17.5 1q9 1 17 -0.5t16 -1.5q8 1 18.5 2.5t19.5 1.5q5 -2 9 -2.5
t6 -3.5z" />
    <glyph glyph-name="multiply" unicode="&#xd7;" horiz-adv-x="395" 
d="M269 309q1 -8 4 -13t3 -13q5 -16 11 -25t10 -20q4 -14 10 -23t8 -21q3 -9 2.5 -10.5t-0.5 -3.5q-3 -8 -11 -13q-10 -3 -13.5 -4.5t-6.5 -2.5q-8 -1 -13 1t-9 4q-16 4 -16 13q-4 4 -5 9.5t-3 11.5q-6 14 -14 22q-3 9 -7 18l-8 18q-7 2 -10 -0.5t-7 -4.5q-5 -5 -10.5 -9
t-10.5 -9q-20 -16 -39.5 -29t-39.5 -29q-7 -4 -13 -3t-11 -4q-8 -7 -13.5 -12.5t-11.5 -10.5q-9 -4 -11.5 -4t-5.5 -1t-5.5 -2.5t-4.5 -2.5q-9 9 -12.5 16t4.5 20q3 3 5.5 6.5t6.5 5.5q5 9 12.5 13.5t13.5 10.5q23 20 37.5 31.5t30.5 22.5q4 4 9 7.5t10 6.5q11 11 16.5 13.5
t10.5 6.5q6 5 12 9.5t12 9.5q-1 8 -6 14q-5 5 -6.5 10.5t-6.5 9.5q-2 9 -6.5 16t-6.5 15q-1 9 -4.5 16t-6.5 15q-3 4 -6 10.5t-5 11.5q-3 8 4 23q4 10 7.5 14.5t7.5 10.5q2 2 4.5 3.5t4.5 3.5q14 1 19 3t8 -1q2 -13 4.5 -16t3.5 -7q2 -4 4 -12q5 -9 5.5 -13t1.5 -7
q2 -4 3 -7t2 -7q5 -8 8 -18t6 -19q4 -6 5.5 -13.5t5.5 -14.5q20 8 35.5 19.5l30.5 22.5q5 3 7 6t6 5q2 2 5.5 4t6.5 4q2 2 4.5 4t5.5 4t5.5 4t4.5 4q6 6 17 14q7 7 12 9q2 2 6 5t8 5q8 6 12 8q8 7 17 12l18 10q7 2 13.5 3t10.5 -4q4 -9 -3 -18q0 -4 -2 -12.5t-10 -12.5
q-2 -5 -4.5 -6.5t-4.5 -6.5l-19 -15l-19 -15q-4 -2 -7.5 -5.5t-7.5 -6.5l-15 -9q-4 -3 -8 -6.5t-8 -5.5q-11 -7 -16.5 -12.5t-12.5 -9.5l-13.5 -9.5l-13.5 -9.5q-2 -3 -5 -4.5t-5 -3.5q-10 -13 -18 -18z" />
    <glyph glyph-name="space" unicode=" " horiz-adv-x="317" 
 />
    <glyph glyph-name="exclam" unicode="!" horiz-adv-x="314" 
d="M340 749q9 1 14 -4q10 -1 20 -0.5t21 -1.5h6.5t5.5 -1q8 -4 13 -15t-2 -20q2 -8 0 -13.5t-3 -12.5q-10 -17 -17.5 -33.5t-18.5 -30.5q-4 -9 -6 -13t-4 -9t-5.5 -8.5t-5.5 -8.5q-5 -10 -9.5 -18l-9.5 -17q-9 -18 -20 -35t-18 -37q-5 -8 -9.5 -17.5t-9.5 -17.5t-9.5 -17
t-9.5 -18l-15 -23q-2 -5 -3.5 -9.5t-3.5 -9.5l-7.5 -19t-8.5 -18q-5 -10 -9.5 -18t-9.5 -16q-5 -9 -8.5 -18t-11.5 -16q-2 -9 -6 -15t-7 -14q-9 -21 -20.5 -40.5l-22.5 -39.5q-7 -4 -13.5 -9.5t-17.5 -5.5q-5 -1 -8 0.5l-7 3.5q-10 3 -12.5 7t-4.5 6q0 5 0.5 10.5t-2.5 8.5
l16 47.5t19 47.5q5 10 10.5 19t10.5 19q5 9 8 19.5t9 18.5q10 20 15.5 40.5t15.5 37.5q6 17 13.5 33.5t13.5 32.5q8 20 12 22q-1 3 1 7.5t4 7.5q2 10 6 17q5 16 10.5 30t13.5 27q2 8 4.5 14.5t4.5 14.5q2 7 4 13t5 12q2 10 5 21t7 22l11.5 26t13.5 20q3 3 7 6.5t9 4.5
q7 2 13 0.5t13 2.5zM61 84q13 2 20 -2q7 -6 8 -5.5t2 -0.5q13 -7 17 -25.5t-3 -32.5q-11 -16 -18 -24t-18 -13q-8 -5 -14.5 -8t-16.5 -1q-30 4 -37.5 19t-4.5 32q2 9 5 15q2 4 3.5 6t3.5 5q14 19 36 30q5 2 8 3.5t9 1.5z" />
    <glyph glyph-name="quotedbl" unicode="&#x22;" horiz-adv-x="266" 
d="M172 481q-3 -2 -9 -8q-16 -5 -24 -1.5t-6 14.5q1 9 6 24t11.5 32l13 34t10.5 30q2 5 2 10t2 10q10 26 20 48.5l18 41.5q11 14 25 22t26 8q5 -4 14 -5.5t13 -6.5q5 -5 4 -8.5t-6 -14.5q-5 -13 -12.5 -30.5t-16.5 -36.5q-6 -12 -14 -25l-16 -26q-16 -30 -30 -59.5
t-31 -52.5zM384 738q22 0 35 -10q-8 -35 -21 -63t-27 -55q-12 -27 -30.5 -60.5t-32.5 -61.5q-3 -3 -6 -5.5t-6 -5.5q-17 -8 -25.5 -0.5t-6.5 24.5q1 8 6.5 23.5t11.5 30.5q8 26 16.5 47.5l17.5 46.5q2 5 3 10t6 10q-3 13 9 29.5l20 27.5q8 5 15.5 7t14.5 5z" />
    <glyph glyph-name="numbersign" unicode="#" horiz-adv-x="637" 
d="M639 727q5 4 9.5 2.5t8.5 -0.5q1 -5 4.5 -8t4.5 -9q-12 -26 -21 -40.5t-16 -31.5q-6 -9 -7.5 -16.5t-6.5 -11.5q-2 -8 -5.5 -14.5l-7.5 -14.5q-2 -5 -4 -9.5t0 -10.5q-5 -9 -10 -16.5t-8 -18.5q13 -1 25.5 6.5t28.5 6.5q4 0 7 -1t7 -1q4 -1 9 0l10 2t10 0.5t10 0.5
q10 1 12.5 -2t7.5 -1q4 -2 5.5 -7t6.5 -7q1 -11 -3 -15t-10 -12q-4 -6 -6.5 -11t-4.5 -10q-4 -5 -9.5 -5t-11.5 -2q-14 2 -28 -0.5l-27.5 -5t-27 -3t-26.5 4.5q-7 -1 -12 0t-12 -1q-11 -24 -20.5 -52t-23.5 -49q-8 -21 -19.5 -44t-18.5 -45q32 -6 61 0t61 5q7 0 14.5 0.5
t14.5 -1.5q8 -13 7 -18t-3.5 -8.5t-6.5 -6.5t-8 -7q-9 -12 -15 -24q-2 -4 -3.5 -8t-5.5 -6q-17 1 -28.5 -2t-21.5 -3q-5 0 -8.5 1t-8.5 1q-20 0 -37.5 -1t-37.5 1q-5 0 -9.5 1t-9.5 -1q0 -13 1 -21t-5 -10q-2 -8 -6 -13t-7 -12q-4 -12 -7.5 -24l-7.5 -25q-2 -4 -3.5 -7.5
t-1.5 -7.5q-1 -15 -5 -23t-7 -16q-5 -10 -8.5 -19t-10.5 -15q-5 0 -10 -1.5t-12 -0.5q-9 2 -16.5 9t-14.5 12q-11 6 -14.5 11.5t-2.5 10.5q2 9 8 18t9 18q16 32 29 61l27 58q-24 2 -46.5 1.5t-45.5 -0.5q-5 0 -9.5 -1t-9.5 -1q-10 -1 -18 -1t-16 -1q-5 -10 -8 -20.5
t-8 -20.5q-4 -11 -9.5 -20l-10.5 -18q0 -8 -4 -11q-8 -21 -17 -41.5t-15 -43.5q-8 -10 -10 -11t-4 -3q-15 -15 -22 -8.5t-15 11.5q-4 11 -8.5 18.5t-7.5 13.5q2 21 11 36t16 32l10 25.5t13 23.5q6 16 10 20.5t4 12.5q-14 5 -27 1t-27 -2q-10 1 -23 5q-4 2 -7 3t-5 3
q-4 -2 -6.5 -0.5t-5.5 2.5q-6 8 -7.5 15t2.5 18q2 10 4 12t7 10h66t58 -1q6 9 9 19.5t8 21.5l14.5 32.5l15.5 32.5q9 20 17.5 45l16.5 48q-13 4 -29 2.5t-33 -2.5q-10 -1 -20 -1.5t-20 -1.5q-5 -1 -11 -0.5t-9 2.5q-7 6 -6 12t2 14q2 5 6 10t3 12l7 12q26 5 58 3.5t61 1.5h9
t7 2q3 2 7.5 11t7.5 12q5 6 7.5 11.5t5.5 10.5q8 13 15 23t12 23q5 6 7.5 14t7.5 13q8 19 10.5 29t7.5 20q5 11 11.5 19t15.5 13q16 6 24.5 5.5t13.5 -8.5q12 -6 14 -11q-1 -6 -0.5 -12.5t-4.5 -8.5l-10 -23l-10 -22q-17 -32 -28.5 -59.5t-24.5 -54.5q15 0 29.5 -1t30.5 -1
q11 1 22 0t23 0q14 0 27.5 2t27.5 1q8 16 14 31.5t15 30.5l36 70.5t38 70.5q9 0 13 -2t9 0zM470 463q-4 2 -7 1.5t-7 -1.5q-11 -1 -23 -2.5t-20 -4.5q-8 2 -14.5 2t-14.5 -1q-19 -1 -36.5 1.5t-32.5 0.5q-10 -23 -16.5 -42t-12.5 -33q-3 -5 -7 -11q-6 -10 -10.5 -19.5
t-10.5 -18.5q-8 -12 -14.5 -30l-11.5 -32q12 -6 24.5 -4.5t25.5 1.5q13 2 19 2h11q7 2 14 2.5t14 1.5q11 0 24 -1t25 0l42 96.5t45 92.5z" />
    <glyph glyph-name="dollar" unicode="$" horiz-adv-x="404" 
d="M436 654q6 -2 13 -2t12 -2l7 -3.5t8 -2.5q4 -1 8 -6.5t6 -6.5q9 -8 8 -8.5t-1 -2.5q2 -4 4.5 -5t4.5 -3q4 -6 -2.5 -12t-6.5 -11q-2 -4 -3.5 -6t-6.5 -4q-10 -5 -13 -4.5t-6 -0.5q-8 0 -16 4.5t-16 3.5q-5 3 -12 2t-10 4q-10 -3 -23.5 -2t-24.5 0q-21 -1 -34.5 -3.5
t-26.5 -5.5q-11 -4 -14.5 -7.5t-6.5 -5.5q-4 -3 -7.5 -6t-7.5 -5q-5 -8 -10.5 -18.5t-8.5 -20.5q-1 -4 0.5 -12t5.5 -13q1 -10 6 -18l10 -16q14 -15 19 -23.5t13 -13.5q7 -8 12.5 -16t13.5 -14q4 -7 8.5 -13t7.5 -15q7 -11 18 -20.5t13 -25.5q2 -8 5 -16.5t2 -18.5
q-3 -14 -4 -26t-4 -23q-2 -7 -3.5 -13t-3.5 -13q-2 -8 -4 -17t-8 -14q-3 -6 -7 -12t-8 -13q-9 -13 -19 -23.5t-25 -19.5q-10 -6 -17.5 -9.5t-15.5 -6.5t-17 -6l-18 -6q-5 -2 -10 -4.5t-12 -1.5q-8 -2 -17.5 -2t-17.5 1q-5 -11 -11 -19t-11 -18q-8 -3 -11.5 -10t-8.5 -12
q-7 -11 -12 -18t-11 -13q-2 -7 -7 -8.5t-10 4.5q-3 5 -6.5 14.5t-2.5 15.5q9 22 16.5 35t11.5 24q3 8 5 10t2 7q-50 15 -72 66q-5 5 -8 13t-8 12q-1 5 -3 7.5t-4 7.5q-5 2 -8.5 7t-3.5 11q3 11 1.5 15.5t0.5 8.5q10 5 13.5 11.5t8.5 11.5q-1 5 1 11q6 2 10.5 -0.5t9.5 -4.5
q15 -15 21 -24.5l12 -18.5t13 -17t16 -14q3 -6 9 -10t11 -9q3 -3 7 -6.5t10 -3.5q5 -4 11.5 -6.5t11.5 -6.5q14 0 24.5 2.5t21.5 7.5q13 4 19 8q4 4 7 8t7 7l22 22.5t19 25.5q10 23 6 52.5t-11 56.5q-12 11 -24 20.5t-22 23.5q-3 2 -9 8q-8 7 -15.5 14.5t-15.5 16.5
q-5 5 -13 11t-10 13q-2 5 -3 11t-3 11q-2 9 -3.5 17.5t-0.5 16.5q0 8 1.5 15t-0.5 16q-2 18 6 31.5l15 25.5q5 8 9.5 16.5t11.5 14.5q4 1 6.5 4t5.5 5q5 0 6.5 2.5t6.5 2.5q12 7 18.5 9t11.5 6q4 1 7.5 1.5t5.5 2.5q4 -1 7 0l6 2q8 2 16 2h17q10 1 19.5 3t20.5 2
q9 17 15.5 35t17.5 32q1 5 4.5 9.5t5.5 9.5q5 11 12 15q5 9 9.5 7.5t8.5 -3.5q7 -6 9.5 -16.5t4.5 -20.5q1 -10 -1.5 -19t-6.5 -18l-8 -17.5t-5 -16.5z" />
    <glyph glyph-name="percent" unicode="%" horiz-adv-x="613" 
d="M609 722q9 12 19 14l21 4q7 -4 10 -9q2 -3 2.5 -6.5t2.5 -6.5q5 -7 11.5 -12t3.5 -18q-1 -3 -3 -8.5t-5 -8.5q-2 -4 -7 -7t-9 -8l-16.5 -16.5t-16.5 -14.5q-7 -9 -14 -15.5l-14 -13.5q-8 -13 -19 -21q-16 -17 -30.5 -36.5t-31.5 -36.5q-18 -29 -36 -52q-25 -20 -44.5 -49
t-40.5 -55q-4 -5 -8 -9.5t-7 -11.5q-7 -7 -13 -14l-12 -14l-12.5 -12t-12.5 -13l-16 -16l-10.5 -12l-11.5 -13q-29 -24 -55 -55q-5 -6 -8.5 -14t-8.5 -15q-8 -6 -13.5 -13.5t-13.5 -12.5q-14 -21 -30 -35q-9 -8 -18.5 -15t-17.5 -15q-8 -2 -14.5 -7t-14.5 -7
q-4 -5 -9.5 -9.5t-10.5 -9.5q-3 -4 -4.5 -8.5t-5.5 -7.5q-5 -3 -11.5 -6t-10.5 -4q-9 -1 -14 3t-11 7q-1 5 -2 11t-1 13q6 11 13 15q13 19 28.5 35.5l31.5 32.5q17 15 31 32.5t31 31.5l19.5 23.5t20.5 21.5q5 7 10.5 13.5t10.5 13.5q5 6 10 13t10 13q13 25 30.5 42.5
t34.5 37.5l33 39.5t32 39.5l19.5 22.5t17.5 22.5q20 22 33 38l27 32q14 20 31.5 39t31.5 40q6 8 14.5 14t14.5 14l-28 -6t-28 -8q-7 -4 -11 -4q-3 -1 -7.5 -3t-9.5 -2q-7 0 -14 4l-12 7q-12 2 -14.5 -3.5t-5.5 -10.5q-8 -14 -14 -23t-11 -18q-2 -5 -4 -9.5t-4 -9.5
q-6 -10 -14 -18.5t-14 -18.5q-11 -11 -19 -22.5t-19 -22.5q-4 -3 -7.5 -5t-6.5 -5q-7 -6 -13.5 -13l-13.5 -14q-13 -8 -24.5 -16t-25.5 -15l-9.5 -5.5t-9.5 -2.5q-6 -3 -12 -7.5t-14 -7.5q-14 3 -30 7t-27 12q-21 25 -28 59q2 17 5 34t10 33q2 5 4 9t4 9q6 14 12.5 27.5
t16.5 24.5q17 22 37.5 41t43.5 34q8 5 15 10t15 10q17 9 34 17q11 5 22 9.5t22 8.5q11 -2 23.5 5t27.5 6q23 -1 38 -13q6 -5 11.5 -10.5t7.5 -13.5q7 -5 13 -12.5t14 -11.5q8 -3 16 -2.5t19 1.5q13 2 27 3t26 5q15 7 25.5 12.5t19.5 9.5zM381 698q-20 -5 -36 -12.5
t-32 -17.5q-17 -11 -36 -22t-35 -24l-18 -14.5t-15 -14.5t-14 -20t-15 -23q-5 -6 -9.5 -13.5t-6.5 -16.5q-1 -7 -1 -20.5t4 -16.5q4 -2 7.5 -1.5t8.5 0.5q8 -2 15 -2q9 1 16.5 6l15.5 10q10 5 21 14l21 15t19 16l9.5 9.5l9.5 9.5l17 15t15 15l12 24t12 21q3 7 6.5 13t5.5 11
q2 8 2 14t1 12q0 3 1 6.5t-1 6.5zM573 172l-20.5 -34.5t-22.5 -34.5q-6 -9 -14 -17l-10.5 -14.5t-11.5 -14.5l-10.5 -8t-10.5 -9l-15.5 -13.5t-18.5 -12.5q-4 -2 -8.5 -4t-9.5 -4q-16 -8 -32 -12l-10.5 -2t-12.5 0q-15 3 -19.5 1.5t-9.5 -0.5q-20 2 -30.5 10t-15.5 23
q-1 12 -2.5 23.5t-1.5 24.5q-1 21 8.5 47t18.5 47l10.5 22t13.5 19q5 4 8.5 7.5l7.5 7.5q5 4 8.5 8.5t7.5 7.5q4 5 10 8t11 8q5 4 11.5 7.5t11.5 7.5q11 8 21 17t21 15q12 7 24.5 10.5t23.5 11.5q16 5 26 8.5t21 5.5q4 1 8 2.5t9 -0.5q7 -2 11 -6.5t8 -9.5q3 -2 6 -3.5
t5 -6.5q3 -5 4 -11.5t3 -13.5t3.5 -14t0.5 -15q-3 -24 -12.5 -46.5t-23.5 -42.5zM553 285q-4 -2 -7.5 -4t-7.5 -5q-14 -3 -27 -11q-7 -3 -13 -6.5t-13 -6.5q-4 -2 -8 -3t-9 -3q-11 -6 -20.5 -15t-18.5 -19q-11 -13 -17 -21.5l-14 -19.5l-9.5 -13.5t-8.5 -14.5
q-5 -11 -7 -23.5t-6 -25.5q-5 -14 -1.5 -20t6.5 -17q2 -5 2.5 -10.5t2.5 -10.5l16 4.5t17 1.5q11 5 18.5 13t16.5 14q8 5 13 9l12 10q8 8 14.5 17t14.5 17q7 12 17 24t19 25q11 17 20 37.5t12 41.5q-7 5 -8.5 15.5t-5.5 19.5z" />
    <glyph glyph-name="ampersand" unicode="&#x26;" horiz-adv-x="566" 
d="M458 752q12 4 20.5 3t16.5 2q10 -10 13.5 -12.5t5.5 -4.5q8 -8 13 -18l10 -21q2 -5 1 -10t-1 -10q0 -6 0.5 -12t-0.5 -14q-4 -8 -5.5 -18t-3.5 -20q-2 -6 -6.5 -12.5t-9.5 -12.5l-5 -5t-6 -5q-2 -6 -7 -9t-9 -7q-6 -7 -8.5 -8t-4.5 -3q-3 -2 -5 -3.5t-4 -3.5
q-18 -15 -27.5 -21t-17.5 -14q-9 -9 -20 -16l-39 -40t-40 -38q2 -15 2.5 -31t1.5 -32q0 -5 0.5 -9t0.5 -8q-2 -7 -1 -9.5t1 -4.5q-1 -7 -0.5 -9t0.5 -4q0 -13 2.5 -16.5t4.5 -7.5q-1 -4 1 -7t0 -7q5 -8 8 -18t8 -18q5 -22 16 -39t19 -36q8 -10 9 -15.5t4 -8.5q17 13 32.5 27
t32.5 25q21 15 36.5 30t33.5 27q8 12 15 25t4 27q-12 -6 -19 -6.5t-12 -4.5q-9 -1 -15 -5l-14 -9q-10 -7 -15.5 -11.5t-10.5 -14.5q-11 -8 -19 -21.5t-19 -23.5q-6 14 -3.5 23t7.5 18q13 17 20 24q8 9 8 11t2 4q15 15 23 22q17 17 29 26.5t25 17.5q10 -3 20.5 3t19.5 4
q9 -6 11 -8.5t4 -5.5l4 -4l4 -4t3.5 -5.5t2.5 -5.5q-1 -11 1 -17q1 -6 -0.5 -13.5t-5.5 -13.5q-9 -28 -20.5 -38t-21.5 -24q-10 -10 -17.5 -16l-15.5 -12q-8 -9 -16.5 -16.5t-16.5 -16.5l-25.5 -21t-24.5 -21q-7 -5 -12.5 -11t-11.5 -11q2 -9 8 -15.5t4 -16.5q2 -5 4.5 -9.5
t3.5 -9.5q6 -7 7 -18.5t5 -21.5q8 -33 24 -58q-12 -11 -21 -7q-6 8 -13.5 11.5t-16.5 6.5q-7 8 -8 7.5t-1 0.5q-5 5 -6.5 11t-5.5 11q-3 5 -7.5 7.5t-8.5 6.5q-11 13 -19 24.5l-16 22.5q-6 0 -9.5 -2.5t-8.5 -3.5l-27 -13.5l-22 -10.5l-23.5 -12t-22.5 -14q-15 -4 -21 -3.5
t-12 -0.5t-12.5 -3.5t-12.5 -0.5q-13 4 -19 3.5t-11 1.5q-10 0 -12 3q-9 2 -18.5 4.5t-18.5 4.5q-12 2 -16 4t-7 5q-15 9 -21 14.5t-10 13.5q-14 15 -23 32.5l-17 34.5q-4 9 -6.5 19.5t-7.5 19.5q-1 3 -2.5 6.5t-1.5 8.5q0 2 1.5 6.5t3.5 9.5q1 4 2.5 7.5t2.5 5.5q1 3 2 6.5
t1 6.5q6 8 9.5 18.5t11.5 18.5q2 8 8 12q2 6 7 9q2 5 6.5 8.5t9.5 6.5l14.5 16t14.5 12q10 12 21 19.5t17 16.5q3 2 7 4t6 7q19 13 31.5 30t31.5 30q15 13 31 25.5t32 26.5q4 12 2.5 21t-0.5 19q5 35 12 64q-2 3 0.5 9.5t3.5 10.5q5 16 10 26l11 21q8 5 12 14q5 8 12 14
t11 13q5 3 7.5 7.5t7.5 6.5q5 8 13.5 13.5t16.5 12.5q8 8 17.5 14.5t21.5 10.5q7 8 17.5 11t21.5 5zM133 258q-5 -7 -10.5 -13t-10.5 -14q-7 -5 -8 -6t0 -2q-5 -7 -12.5 -13.5t-10.5 -15.5q-2 -6 -1.5 -12t-1.5 -11q1 -20 3.5 -28.5t2.5 -16.5l9 -25t4 -17q4 -6 6 -8t6 -1
q8 -6 13.5 -10.5t11.5 -7.5q2 -1 5.5 -2t5.5 -1q9 2 17 3.5t17 2.5t19.5 3t19.5 3q4 0 12 2q23 2 36 5.5t25 4.5q7 5 15.5 8t17.5 8q-2 11 -6 21t-6 21l-10.5 30.5t-6.5 21.5q-8 19 -12 37t-7 37q-1 6 -1 13t-2 14q-1 4 -1.5 7.5t-1.5 8.5q-2 17 -2 34.5t-2 34.5
q-28 -16 -51 -37.5l-45 -41.5q-12 -10 -20 -18t-14 -16zM324 516q2 4 4.5 5.5t4.5 4.5q14 15 21 19q5 7 12.5 11.5t12.5 11.5q10 10 19 16q12 11 20.5 19.5t17.5 18.5q3 10 6.5 13.5t4.5 7.5q4 10 6.5 18.5t1.5 13.5q-11 7 -12.5 10t-5.5 4q-4 0 -9 -3t-7 -4q-13 -7 -24 -9
q-2 -3 -5 -4t-5 -5q-7 -3 -8 -4.5t-3 -3.5t-5.5 -4t-5.5 -4q-5 -5 -7.5 -10.5t-6.5 -11.5l-10 -15.5t-8 -15.5q-2 -8 -3.5 -17t-3.5 -17l-2 -13.5l-2 -12.5q-1 -5 -2 -11t2 -8h2z" />
    <glyph glyph-name="quotesingle" unicode="'" horiz-adv-x="144" 
d="M172 481q-3 -2 -9 -8q-16 -5 -24 -1.5t-6 14.5q1 9 6 24t11.5 32l13 34t10.5 30q2 5 2 10t2 10q10 26 20 48.5l18 41.5q11 14 25 22t26 8q5 -4 14 -5.5t13 -6.5q5 -5 4 -8.5t-6 -14.5q-5 -13 -12.5 -30.5t-16.5 -36.5q-6 -12 -14 -25l-16 -26q-16 -30 -30 -59.5
t-31 -52.5z" />
    <glyph glyph-name="parenleft" unicode="(" horiz-adv-x="278" 
d="M66 -43q-4 2 -4.5 6t-1.5 9q-4 14 -5 26q-1 8 -0.5 16t-0.5 17q-5 31 -2.5 68.5t9.5 74.5l4.5 19.5t5.5 19.5q4 10 6 19.5t4 17.5q2 6 5 11.5t5 11.5q2 12 4 19l11 25.5t11 27.5q8 19 14.5 37t15.5 37q6 10 12.5 19t12.5 20l11 19t12 20q18 26 38 52l43 55l69.5 83.5
t76.5 76.5q7 2 9.5 0l7.5 -6q4 -3 9 -5.5t3 -9.5q-1 -4 -5.5 -10t-9.5 -11q-11 -15 -24 -28.5t-24 -27.5q-8 -10 -15 -20l-15 -21q-4 -6 -8 -11t-7 -10q-7 -11 -13 -19.5t-12 -19.5q-5 -8 -8 -15t-7 -15q-3 -7 -7.5 -13t-6.5 -11q-8 -14 -15 -28l-13 -27q-3 -5 -6.5 -10
t-5.5 -10l-10.5 -17.5l-10.5 -18.5q-4 -9 -6.5 -17.5t-7.5 -17.5q-2 -4 -4 -6.5t-4 -5.5q-4 -7 -7 -15t-8 -15q-17 -38 -32.5 -77.5t-25.5 -73.5q-2 -3 -2.5 -6t-1.5 -5q-3 -10 -3 -17t-3 -18q-2 -7 -1.5 -12.5t-1.5 -13.5t-2 -16.5t-2 -17.5q-2 -20 0 -34t2 -31q0 -5 2 -15
q1 -5 1 -10t-2 -9q-4 -5 -11 -6.5t-13 -5.5q-9 -1 -15 1.5t-14 0.5z" />
    <glyph glyph-name="parenright" unicode=")" horiz-adv-x="283" 
d="M304 762q3 -2 3.5 -6t1.5 -8q1 -6 2.5 -13t2.5 -14q1 -8 0.5 -16t0.5 -16q5 -32 2.5 -69.5t-9.5 -74.5q-3 -22 -10 -39q-3 -10 -5 -19.5t-4 -17.5q-2 -5 -5 -11t-5 -13q-2 -5 -3 -9t-3 -9q-4 -12 -9.5 -25.5t-10.5 -27.5l-15 -37t-16 -36q-5 -11 -11.5 -20.5t-12.5 -19.5
q-7 -10 -12 -19l-11 -19q-18 -28 -38.5 -53l-43.5 -54l-69.5 -85t-76.5 -76q-6 -2 -9.5 0t-8.5 6q-4 3 -8.5 5.5t-2.5 9.5q2 5 6 10.5l8 10.5l25.5 28.5l24.5 27.5q8 10 14.5 20t14.5 21q4 5 8 11t8 11l13 19t11 20q4 7 7.5 14.5t8.5 14.5q3 7 7.5 13t6.5 11q8 15 14.5 28.5
t13.5 26.5q2 5 5.5 10t6.5 10l10 18t9 18q5 9 8 18t8 18q2 2 3.5 5t3.5 6q4 7 7.5 15l6.5 15q18 38 33.5 78t26.5 73l2 6t2 5q2 10 2 17.5t3 17.5q2 7 2 12t2 13q2 9 2 17.5t1 17.5q3 20 0.5 34t-1.5 31q0 4 -1 7.5t-1 7.5q-1 5 -1 10.5t2 8.5q4 5 10.5 6.5t11.5 5.5
q10 1 16.5 -1t14.5 -1z" />
    <glyph glyph-name="asterisk" unicode="*" horiz-adv-x="355" 
d="M394 744q-5 -6 -4 -13t0 -12q-4 -18 -14.5 -32t-19.5 -30l-11.5 -21t-10.5 -21q19 2 33.5 6.5t29.5 7.5q11 2 23 5t23 7q6 0 12.5 1.5t11.5 2.5q16 -3 21 -6q2 -14 -5.5 -32.5t-16.5 -32.5q-7 -4 -14 0q-12 -2 -23 1t-23 2q-5 0 -9 1t-9 -1q-18 -6 -28.5 -5t-21.5 -1
q4 -7 3.5 -9.5t0.5 -4.5q2 -4 5.5 -6t6.5 -6q6 -8 8 -13q9 -5 19.5 -8t15.5 -9q8 -9 11.5 -9.5t6.5 -2.5q-3 -7 -5 -11t-7 -6q-8 -15 -19 -25q-2 -2 -5 -3t-6 -3t-9 -10q-7 -5 -14 -8.5t-12 -10.5q-9 -2 -13 1.5t-7 7.5q-1 22 -5.5 41.5l-9.5 39.5l-4 18t-8 14
q-12 -11 -21.5 -23t-18.5 -25q-19 -22 -32.5 -43.5l-27.5 -42.5q-5 -1 -11 -1q-2 3 -6 4.5t-5 5.5q-9 1 -13 4t-9 8q-3 5 -5.5 8.5t-3.5 10.5q-4 5 -3.5 8t-0.5 5q9 7 8 7.5t1 2.5l40 22t37 25q23 14 43 36q-10 2 -18.5 1t-17.5 -1l-16 2t-17 -1q-12 -2 -24 -5t-25 -2
q-5 -7 -11 -5t-6 9t3.5 17.5t7.5 20.5q3 8 6.5 15.5t8.5 14.5q3 4 7 7.5t6 8.5q8 4 12 5q2 -2 5 -2.5t7 -2.5q5 -2 8.5 -5.5t7.5 -5.5q19 -2 27.5 -7t19.5 -7q5 -4 13.5 -5t15.5 -2q1 8 3.5 16t4.5 17q2 10 3.5 19t3.5 18q2 13 2 24.5t7 24.5q9 4 18.5 4h17.5q13 1 26 6.5
t25 4.5z" />
    <glyph glyph-name="plus" unicode="+" horiz-adv-x="472" 
d="M364 515q4 -8 4 -13t1 -10q-2 -4 -2 -6.5t-2 -6.5l-9.5 -16.5t-7.5 -16.5q-5 -11 -12 -24t-15 -26q-5 -14 -12.5 -28t-13.5 -28q17 4 30 5t24 0q5 0 11 -0.5t11 -0.5q9 -1 18.5 -0.5t19.5 1.5q12 1 23 -0.5t22 -1.5q9 -11 6 -20t-11 -19q-14 -2 -23 -5t-17 -3
q-7 -3 -13.5 -3t-13.5 -2q-3 -2 -7 -3.5t-7 -3.5q-14 -2 -19 -1t-10 1q-10 1 -19 1h-20q-4 0 -7.5 -0.5t-6.5 -0.5q-5 -1 -10.5 -0.5t-10.5 -1.5q-8 -23 -19 -46.5t-19 -46.5q-3 -12 -8 -20q-2 -5 -6 -13l-3.5 -12.5t-3.5 -11.5q-2 -5 -4.5 -9.5l-5.5 -9.5l-10.5 -8
t-10.5 -6q-7 0 -13.5 -2.5t-11.5 0.5q-11 -3 -11.5 -1.5t-2.5 3.5q-5 4 -5 8v6q-1 3 0 7.5t2 8.5q14 26 26 52l3.5 9t3.5 8q2 6 2.5 10.5t2.5 9.5q5 14 15 28.5t16 33.5q-32 -3 -59 -4.5t-53 5.5q-15 1 -21 7.5t-4 15.5q-3 6 -0.5 9t4.5 8q6 7 7 6.5t2 0.5q13 7 16 4
q8 1 18 2.5t19 1.5q8 -1 15 -1.5t12 -0.5q20 2 36 2.5t33 0.5q4 7 6 14t7 16q4 7 8.5 14t8.5 15q8 17 14.5 33t16.5 29q8 12 11.5 20t9.5 16q4 5 9 9t9 9l11.5 6l10.5 6q10 2 16 1z" />
    <glyph glyph-name="comma" unicode="," horiz-adv-x="136" 
d="M-25 -40q14 8 26 23q-9 1 -18.5 7t-12.5 19q-2 13 1.5 29.5t11.5 22.5q2 4 6 7.5t7 6.5q13 13 30 8q5 -1 9 -1t7 2q4 -2 7 -4l6 -4q2 -8 6 -15t4 -16q0 -11 -5 -22t-7 -22q-6 -3 -8 -11t-6 -16q-8 -7 -15 -14t-13 -15q-8 -2 -15 -7q-3 -3 -4 -6t-4 -3q-2 0 -5 2t-5 4
q0 7 -2 10t-2 5z" />
    <glyph glyph-name="hyphen" unicode="-" horiz-adv-x="409" 
d="M398 336q-2 -4 -1 -6.5t-1 -6.5t-5 -7t-6 -8q-5 -8 -7 -14t-9 -11q-11 -2 -22.5 -4.5t-21.5 -3.5q-9 0 -22 -1t-23 1q-10 1 -13 1h-6q-14 0 -31.5 -3.5t-32.5 -3.5l-21.5 2t-24.5 -1q-11 -2 -14 -1.5t-6 -0.5q-5 -1 -9.5 -1.5t-8.5 -1.5q-5 -2 -11.5 -4t-12.5 -1
q-3 0 -5.5 2t-6.5 4q-5 2 -9.5 3.5t-6.5 5.5q2 7 3 16t9 19l5 5t6 7q4 5 5.5 7.5t6.5 6.5q5 2 9.5 2.5t9.5 3.5q8 -2 16.5 -1t12.5 -3q15 0 28.5 -2.5t29.5 -1.5q10 0 19.5 1.5t21.5 2.5h35q8 0 16.5 1t17.5 1q9 1 17 -0.5t16 -1.5q8 1 18.5 2.5t19.5 1.5q5 -2 9 -2.5
t6 -3.5z" />
    <glyph glyph-name="period" unicode="." horiz-adv-x="139" 
d="M22 88q2 -2 6 -3t6 -4q5 2 10 0l10 -4q3 -7 11 -15q3 -11 3.5 -21t-3.5 -19q-8 -7 -11 -15.5t-10 -13.5q-5 -5 -11.5 -8t-13.5 -8q-13 -4 -21.5 -0.5t-15.5 9.5q-10 9 -12 23t2 28.5t11 27t15 17.5q6 2 11 3.5t13 2.5z" />
    <glyph glyph-name="slash" unicode="/" horiz-adv-x="388" 
d="M593 741l-38.5 -51t-42.5 -54q-30 -36 -65 -71t-59 -69q-5 -10 -11 -19l-12 -18q-12 -16 -16 -22l-9 -13l-49 -57t-49 -59q-24 -30 -50 -59l-51 -58l-33 -40t-32 -38l-21.5 -26.5t-18.5 -24.5q-16 -15 -32 -32t-34 -26q-5 -2 -11 -5t-13 -5l-13 -5t-11 -2q-4 8 -6 8.5
t-4 2.5q-5 4 -4 7.5t10 14.5q4 5 7 9.5t6 7.5q10 11 21 21.5l22 21.5t21.5 24l19.5 25l31 40l33 43l36 45l16.5 23l16.5 23q13 12 24 25q17 17 34 37.5t32 36.5l28 34l29 35l57 65.5t56 65.5q8 8 14.5 17t13.5 17q8 9 16.5 17.5t15.5 17.5q11 12 19.5 24t21.5 25q2 2 5 4
t7 5q4 4 7.5 8t7.5 6q2 2 5.5 4l8.5 5q7 4 10 6t8 2q3 0 8.5 -0.5t7.5 -1.5q2 -2 0.5 -5.5t0.5 -7.5z" />
    <glyph glyph-name="zero" unicode="0" horiz-adv-x="535" 
d="M512 724q7 -2 10.5 -6t8.5 -9t10.5 -9.5t10.5 -10.5q9 -9 16.5 -18.5t12.5 -23.5q5 -13 7.5 -29.5t2.5 -34.5t-0.5 -36t-1.5 -33q-5 -20 -8.5 -39.5t-11.5 -39.5q-2 -5 -3.5 -11.5t-3.5 -12.5q-3 -11 -5 -22t-5 -22q-2 -11 -6.5 -21.5t-7.5 -21.5q-12 -19 -21.5 -40.5
t-19.5 -41.5q-3 -6 -7 -12l-8 -12l-6 -12t-7 -12q-10 -17 -22 -34l-23 -34q-25 -22 -51.5 -41t-46.5 -45q-13 -7 -21 -13q-6 -8 -10 -12q-14 -9 -20.5 -14t-12.5 -9q-19 -6 -28 -11.5t-19 -5.5q-13 1 -25.5 5.5t-23.5 7.5q-10 5 -10.5 4.5t-2.5 -0.5q-17 11 -32 24.5
t-27 29.5q-6 12 -10 27l-9 27q-2 8 -3.5 15.5t-3.5 15.5q-5 14 -7.5 28.5t-5.5 29.5q-1 5 -3 8l-4 6q-1 12 -2.5 15l-2.5 5q-1 3 -1 7t-1 8q-1 19 5 37q-1 6 -0.5 11.5t1.5 11.5l3.5 9l3.5 9t2.5 9t2.5 8l14 28.5t10 19.5q4 20 12.5 36t18.5 30.5l20.5 28.5t19.5 30
q16 23 30 41l28 37q14 18 31 33.5t35 29.5l11.5 10l11.5 10l12 10t13 9q5 3 11.5 6t11.5 6l16 9t17 8q6 2 13 4t13 7q5 0 10.5 2t10.5 3q6 2 12.5 2.5t13.5 1.5q7 0 13 -0.5t13 -1.5q5 -1 16.5 -1t14.5 -8zM497 508q1 4 0.5 7.5t1.5 6.5q-5 12 -1.5 25.5t5.5 25.5
q-4 8 -5 16t-5 15q-13 14 -17 21.5l-8 15.5q-7 5 -17.5 5h-17.5q-13 2 -16.5 0t-7.5 -2q-10 -2 -19.5 -3.5t-17.5 -3.5l-17 -15.5l-16 -15.5q-4 -5 -8 -9.5t-9 -9.5t-9.5 -10.5t-9.5 -10.5l-22 -28.5l-22 -29.5q-14 -21 -30 -38.5t-29 -39.5q-8 -12 -15.5 -25.5t-15.5 -26.5
q-2 -2 -2.5 -5t-2.5 -6q-2 -4 -4.5 -7t-4.5 -6t-2 -6t-2 -6t-4 -5.5t-3 -4.5t-0.5 -5t-0.5 -6q-5 -15 -4 -21.5t-1 -13.5q-4 -11 -3.5 -16.5t-0.5 -11.5q-2 -28 -5 -55.5t2 -50.5q5 -6 6.5 -14t4.5 -15q4 -6 6 -10q5 -10 10.5 -14.5l13.5 -11.5q10 -12 14.5 -12.5t12.5 -0.5
q6 0 12 -0.5t12 1.5q8 2 15 5.5t14 7.5l40.5 23l39.5 23q6 12 13.5 22l14.5 19q4 4 6.5 7.5t5.5 5.5q9 14 20 25.5t20 27.5q10 14 18 32q5 9 8.5 17t5.5 17q6 10 7.5 15t3.5 10t2.5 8.5t2.5 8.5q4 8 3.5 11t0.5 5q4 10 7 19.5t5 19.5q5 13 9 27.5t9 28.5q-8 8 -3.5 22
t6.5 26z" />
    <glyph glyph-name="one" unicode="1" horiz-adv-x="364" 
d="M162 77q21 -1 34.5 -2t26.5 -1q2 -2 3.5 -6t4.5 -6q8 -15 3.5 -22.5t-11.5 -17.5q-3 -5 -5 -8t-2 -10q-6 0 -10 -5t-11 0q-8 -2 -14.5 -2t-11.5 -1q-12 -2 -12 -1.5t-2 0.5q-14 2 -26.5 1.5t-24.5 -3.5q-14 4 -16.5 3.5t-3.5 -1.5t-2 -3t-5 -4q-26 -4 -45 -15
q-5 1 -13 -3q-7 1 -10.5 -2.5t-9.5 -2.5q-5 3 -8 13t1 16q-4 18 -0.5 27.5t11.5 21.5q15 14 30 14t24 6q19 33 28 60l20 59q1 6 4 10.5t5 9.5q5 11 7 20t7 16q1 6 4 14.5l6 17.5l6 17.5t6 13.5l10 7t4.5 5t3.5 5q5 11 6.5 16.5t6.5 9.5q8 20 17 32l5.5 13t6.5 11q0 5 2 6.5
t1 6.5q5 7 8 14.5t7 15.5l14 35.5t14 28.5q5 9 7 17t7 14q0 5 1.5 9l3.5 9l4.5 7t4.5 6q10 20 19 34.5t16 31.5q-9 -1 -14.5 -5t-13.5 -8q-7 -6 -17 -10q-8 -5 -15.5 -10.5t-15.5 -8.5q-5 -2 -12 -1.5t-11 -3.5q-15 -2 -21.5 8.5t-1.5 21.5q1 3 2.5 5.5t2.5 5.5t1.5 7t2.5 6
q2 4 5 5.5t5 4.5q17 5 24 10t13 10l21 10l20 10q13 8 23.5 15.5t20.5 13.5q3 8 10 12t14 9q3 2 7 5t5 7q4 1 5.5 3.5t5.5 0.5q9 -3 11.5 -3.5t4.5 -0.5q3 -1 2.5 -3t-2 -4.5t-2.5 -5t2 -5.5q2 -2 9 -5t9 -5q3 -10 3.5 -12.5t2.5 -5.5q1 -5 0 -11t0 -12q1 -10 -2 -21
q-1 -4 -1.5 -6.5t-0.5 -5.5q-7 -25 -17 -44t-19 -38q-2 -5 -4 -9t-5 -8q-5 -8 -9.5 -16t-9.5 -16q-7 -19 -16.5 -36.5l-18.5 -34.5q-13 -20 -22.5 -41t-20.5 -41l-21 -29.5l-19 -26.5q-2 -24 -10.5 -44t-15.5 -41q-7 -22 -16 -42t-15 -43q-8 -20 -12.5 -36.5t-7.5 -28.5z
" />
    <glyph glyph-name="two" unicode="2" horiz-adv-x="471" 
d="M121 71q18 5 33.5 7.5t22.5 7.5l21.5 6.5t16.5 6.5q8 0 15 0.5t15 0.5h23t17 -1q8 -2 17 -5.5t20 -1.5q12 2 21.5 2.5t21.5 -2.5l7 -3.5t8 -3.5q8 -3 17.5 -3t19.5 -4q2 -4 0.5 -6.5t-1.5 -6.5t1 -7l2 -6q1 -7 1.5 -8t-1.5 -6q6 -14 0 -23.5t-17 -13.5l-36 8.5t-38 4.5
q-30 1 -62.5 0t-59.5 -7q-5 -2 -11.5 -3t-11.5 -3q-11 -4 -21 -6.5t-21 -6.5q-9 -2 -19.5 -4t-21.5 -6q-5 -1 -10 -3t-10 -2q-10 -1 -20 1.5t-15 9.5q-12 5 -18 18t-14 27q-2 4 -2.5 6.5t-2.5 6.5q-6 11 -2 20.5l9 21.5l14 22.5t12 16.5l7 9t6 9q4 5 8.5 9.5t6.5 8.5
q2 3 3 6.5t3 5.5t4.5 3.5t4.5 3.5q15 15 29.5 31t31.5 30q7 9 14 17t15 16q18 15 32.5 32.5t35.5 29.5q5 5 10 8.5t10 8.5t9 11t10 11t13 9.5t12 10.5q5 5 9 11t9 11l25 31t29 30q15 23 31.5 44.5l33.5 43.5q2 5 5.5 10t5.5 11q2 9 1.5 19.5t0.5 21.5q3 18 -4 28t-8 22
q-2 2 -6 3t-6 -2q-2 3 -6.5 4t-9.5 1t-11 -1t-9 -3q-8 3 -14 2t-11 -1q-5 -1 -11 -1t-11 -2q-4 -4 -8.5 -8t-6.5 -9l-19.5 -16l-19.5 -17q-5 -4 -9 -10t-11 -9q-8 -11 -17.5 -19t-14.5 -22q-6 -4 -8.5 -8.5t-5.5 -8.5l-4 -4l-4 -4q-1 -2 -1 -6v-8q-1 -8 -0.5 -16.5
t-1.5 -17.5q3 -8 7 -12q6 3 12.5 7.5l12.5 8.5q5 5 11.5 8t11.5 8q15 10 26 21q7 8 16 13t14 14l4 8t4 9q2 4 3 8t3 8q2 5 5 8t2 10q16 -3 14 -22q0 -4 -1.5 -8t-1.5 -9q0 -4 1.5 -8t-0.5 -8l-14 -22.5l-8 -12.5l-58 -52.5t-67 -44.5q-10 -2 -17 2t-15 6q-5 5 -9.5 11
t-10.5 10l-5.5 9t-4.5 9q-8 14 -11.5 25t-5.5 22q0 5 1 14.5t1 16.5q1 17 8.5 31l14.5 26q2 4 2.5 9t2.5 9q3 7 8 13q13 14 27 25t26 23q13 5 16 12q5 2 10.5 6.5l10.5 8.5q7 6 14.5 10.5l15.5 9.5q9 1 15 5t14 6q5 2 10 3.5t9 4.5q9 1 18.5 3t20.5 2q13 1 28 -0.5t29 -0.5
q25 1 43.5 -10t32.5 -23q11 -7 13.5 -10t1.5 -8q-2 -11 -0.5 -13.5t3.5 -5.5q3 -7 3 -15t5 -13q0 -9 4.5 -20.5t3.5 -24.5q-1 -10 -6 -16.5t-7 -16.5q-2 -17 -5 -23.5t-5 -12.5q-11 -23 -20.5 -41t-22.5 -32l-15 -12q-5 -5 -8.5 -10t-9.5 -8q-13 -16 -27.5 -30t-26.5 -31
q-13 -14 -23 -29.5t-24 -28.5q-6 -6 -9 -12q-10 -4 -15.5 -10t-9.5 -11t-8 -8.5t-8 -7.5q-8 -8 -17.5 -15.5t-17.5 -14.5l-18 -15.5t-17 -15.5q-16 -18 -34 -34q-2 -3 -4.5 -5.5t-4.5 -5.5q-8 -9 -18 -24.5l-17 -26.5q-4 -5 -7.5 -8.5t-6.5 -8.5q-5 -8 -10 -19z" />
    <glyph glyph-name="three" unicode="3" horiz-adv-x="502" 
d="M540 696q5 -15 7 -33.5t-3 -35.5q-2 -15 -3.5 -23t-3.5 -16q-8 -10 -12.5 -19.5t-12.5 -17.5q-10 -11 -15 -19.5t-13 -16.5l-13.5 -13.5t-7.5 -6.5q-8 -10 -11.5 -11.5t-6.5 -3.5l-4 -4l-4 -4q-5 -3 -10 -5l-32.5 -31t-34.5 -29q-12 -11 -20.5 -15t-13.5 -11q19 -2 40 5
q17 1 33.5 0t28.5 -10q8 -8 10 -8.5t4 -1.5q2 -3 6.5 -7t9.5 -8l13.5 -12t8.5 -14q1 -3 0.5 -6.5t-0.5 -7.5q2 -5 3.5 -11t2.5 -12q2 -14 0.5 -27.5t-3.5 -27.5q-1 -5 -1 -9.5t-2 -8.5q-2 -9 -8 -18t-10 -18q-5 -10 -10 -19t-13 -18q-5 -7 -6 -9t-2 -5q-7 -8 -11.5 -15
l-9.5 -15l-11.5 -13.5t-11.5 -11.5q-14 -10 -25.5 -13.5t-20.5 -11.5q-9 -5 -17.5 -7t-13.5 -7q-12 -2 -23.5 -9.5t-24.5 -10.5l-12 -3q-5 -2 -10 -4.5t-10 -4.5l-10 -4l-10 -4t-9.5 -5t-12.5 -4q-23 -14 -56 -9q-4 1 -7.5 3t-8.5 3q-10 2 -18.5 3t-14.5 4q-4 2 -8 5.5
t-8 3.5q-14 7 -24.5 16l-22.5 19q-5 2 -9.5 6.5l-9.5 9.5q0 5 -0.5 9.5t-0.5 9.5q1 5 2.5 10t2.5 10q5 11 13 21.5t16 19.5q6 7 14 12.5t13 14.5q6 2 9 7t9 7q9 10 21.5 15t23.5 12q4 -1 7 1.5t6 4.5q3 1 7 1t7 2q12 -2 24 -3.5t23 -7.5q4 -2 7 -4.5t7 -4.5q2 -3 5 -5.5
t7 -7.5q5 -4 9.5 -9t-3.5 -9q-18 0 -27 5l-9.5 7t-10.5 5t-9 -1.5t-9 -3.5q-20 -11 -38.5 -26.5t-35.5 -32.5q-3 -4 -5 -6t-5 -7q-4 -5 -4.5 -13.5t0.5 -18.5q5 2 12.5 -4.5t11.5 -4.5q14 -6 32 -5.5t32 6.5q8 5 16.5 6.5t17.5 5.5q5 2 9 4.5t9 4.5q11 5 19 10l17 10.5
l9 5.5q10 8 22 15l23 14q19 16 37.5 29.5t37.5 29.5q7 14 11.5 33t3.5 36q-1 4 -4 13t-5 13q-2 5 -2.5 10t-3.5 10q-3 3 -5.5 7t-6.5 6q-12 5 -19.5 9t-16.5 3q-17 -2 -33.5 -5.5t-30.5 -8.5q-6 -4 -7.5 -3.5t-3.5 -0.5q-10 -2 -20.5 -5t-22.5 -2q-5 -8 -14 -11q-4 2 -6.5 3
t-6.5 3q-7 16 -11 30q-3 6 -5 16q0 2 3 6.5l5 7.5q1 5 6 8.5t10 7.5l7 7t4 5q12 6 14.5 9t5.5 6q4 4 8 6l8 4q8 4 14.5 9.5t14.5 9.5l12 10.5l12 10.5q5 4 10 8.5t10 6.5q6 7 13 12t14 12q5 0 7.5 4t7.5 5q14 14 31 26t31 26q3 2 5.5 5.5t6.5 5.5q7 10 8.5 28.5t8.5 32.5
q2 6 5 13.5t2 15.5t-8 16.5t-15 11.5q-6 3 -18 -1.5t-18 -6.5q-10 -6 -15.5 -8l-10.5 -4q-15 -7 -32.5 -12.5t-33.5 -13.5q-2 -3 -5 -6l-5 -5q-4 -11 -9.5 -17.5t-12.5 -13.5q-3 -3 -5 -6.5t-4 -5.5q-9 -9 -10.5 -12.5t-3.5 -5.5q-2 -3 -5 -5t-5 -4q-3 -3 -5.5 -6.5
t-4.5 -5.5q-4 -3 -8 -5.5t-6 -7.5q-5 -2 -10.5 -3t-11.5 -1q-11 3 -13 0.5t-4 -5.5t-3.5 -5t-3.5 -1q-13 8 -17 9.5t-9 5.5q-8 10 -9.5 25.5t0.5 29.5q-4 11 5 18.5t16 12.5l5 6.5t5 4.5q5 4 10 7t9 8q7 2 11.5 5.5t9.5 5.5q20 14 34 22.5t32 13.5l54 30q7 3 8 3.5t2 1.5
l23 10t26 10q6 3 12.5 4t14.5 3q13 3 25 4t26 -1q5 -1 9 -3.5t9 -4.5t10.5 -3t10.5 -3q6 -3 10.5 -7t10.5 -8q2 -6 7.5 -10t7.5 -9z" />
    <glyph glyph-name="four" unicode="4" horiz-adv-x="469" 
d="M430 396q10 -2 25.5 -0.5t26.5 -0.5q12 -14 11 -25t-3 -22v-13.5t-5 -8.5q-11 -13 -23 -16.5t-25.5 -6.5t-26.5 -5.5t-22 -3.5q-2 -4 -3.5 -9t-4.5 -9q-4 -13 -6 -20.5t-5 -16.5q-7 -12 -8 -16.5t-3 -9.5q-7 -14 -7 -18.5t-2 -9.5q-1 -3 -2.5 -6t-2.5 -6q-1 -9 -2 -10
t-1 -3q-4 -11 -7 -20.5t-7 -18.5q-7 -18 -10.5 -23.5t-5.5 -12.5q-2 -8 -4.5 -14.5t-4.5 -14.5q-1 -2 -1 -6.5t-1 -8.5q-5 -7 -8 -16.5t-13 -10.5q-5 -9 -9.5 -9t-7.5 -2q-13 2 -18 -3.5t-17 -10.5q-18 -19 -44 -26q-6 -4 -8.5 -3t-4.5 1q-5 4 -7 12q2 13 6 23t9 20
q2 13 6.5 21.5t8.5 19.5q9 15 14 31t13 32q3 7 6.5 13l7.5 13q6 11 12 19.5t11 18.5q5 11 10.5 20.5t10.5 20.5q6 18 8 30t8 26q-6 1 -14 1t-13 -2q-10 1 -20 1t-21 -2q-10 3 -22 1.5t-26 0.5q-11 -2 -21.5 0t-16.5 7t-10.5 12.5t-12.5 9.5q-9 2 -16.5 2t-14.5 1
q-8 1 -13.5 6.5t-11.5 10.5q-6 22 -4 32q13 9 15 14q6 4 7 9q9 7 19 23q4 2 6.5 5t6.5 6l35 35l35 35q5 7 11 12.5t11 11.5q7 13 15.5 24t14.5 25q8 5 12.5 13.5t12.5 13.5q6 8 14.5 13.5t14.5 13.5q35 29 66.5 61.5t66.5 61.5q12 13 19 19.5t20 2.5q8 -2 18.5 -8.5
t18.5 -12.5q9 -6 20 -9q5 1 9 -1t7 -2q8 -3 11 -9q4 0 5 -2.5t5 -3.5q4 -11 3.5 -28.5t-3.5 -28.5q-6 -10 -6.5 -13t-5.5 -5l-13.5 -34.5t-14.5 -33.5q-3 -11 -7.5 -20t-6.5 -23q-16 -25 -23.5 -42t-17.5 -34q-5 -8 -10 -19t-8 -21q-3 -3 -5.5 -6.5t-4.5 -8.5zM470 671
l-12 -10t-14 -9q-11 -11 -24.5 -18.5t-25.5 -19.5l-26.5 -19.5t-18.5 -26.5l-28.5 -28.5l-29.5 -28.5q-13 -11 -22 -25q-10 -5 -15.5 -14.5t-10.5 -19.5q-5 -4 -8.5 -9t-9.5 -8q-12 -17 -28 -34.5t-27 -35.5q18 3 40.5 3.5t38.5 2.5q5 1 10.5 1.5t9.5 0.5q21 2 34.5 4
t29.5 2q5 8 9.5 16t8.5 17l10.5 20t9.5 14q4 12 9.5 18t7.5 14q21 31 33.5 63t27.5 63q3 6 3.5 10t2.5 9l10.5 23.5t6.5 24.5h-2z" />
    <glyph glyph-name="five" unicode="5" horiz-adv-x="478" 
d="M200 390q4 0 6 1.5t6 3.5q7 3 15 4t16 4q4 1 7 3t8 3q3 2 6.5 2t6.5 1q4 1 7.5 2t6.5 2q5 1 9 0.5t9 0.5q6 2 12 3t12 1q10 -2 12.5 -1.5t4.5 0.5q11 0 19 -6.5t17 -12.5q9 -5 17.5 -8.5t16.5 -8.5q5 -5 6 -6.5t4 -1.5q11 -13 19 -25.5t11 -32.5q2 -10 3 -18.5t1 -19.5
q0 -8 -1.5 -16t-1.5 -16q0 -15 -4 -25q-4 -8 -6.5 -14.5l-5.5 -14.5q-5 -15 -11.5 -30.5t-14.5 -29.5q-6 -8 -5.5 -9t-0.5 -3l-9 -9l-10 -15.5t-12 -12.5q-3 -8 -11.5 -14t-13.5 -13q-2 -3 -5 -6.5t-6 -5.5q-2 -2 -5 -2.5t-5 -2.5q-1 -6 -5 -9t-7 -8q-20 -10 -34 -13t-28 -7
q-13 -4 -24.5 -8.5l-23.5 -9.5q-11 -4 -22 -5q-5 0 -9.5 0.5t-9.5 -0.5q-10 -3 -12 -2l-4 2q-8 0 -15 -0.5t-14 4.5q-10 3 -21 2.5t-22 4.5q-4 2 -12 8q-5 4 -10.5 7t-8.5 7q-10 15 -15.5 20.5t-9.5 12.5q-6 7 -9.5 16t-7.5 18q-2 3 -3 6.5t-3 7.5q2 11 1 22t4 22
q8 3 13.5 9.5t13.5 10.5q11 -4 21 -14q5 -2 7 -6t6 -9q9 -14 13.5 -19t8.5 -11q9 -8 21 -15q5 -4 9.5 -8.5t9.5 -7.5q11 -3 12.5 -4.5t3.5 -2.5q10 0 10.5 -0.5t2.5 -1.5q6 -2 16.5 -1t14.5 2q17 -1 30.5 7t26.5 14l14 9l12 8q7 5 13 11l12 12q6 5 11.5 11.5t11.5 11.5
l12 10t10 11q2 4 4 9l4 10q3 8 5.5 13.5t4.5 13.5q10 19 14.5 41t-0.5 47q-15 12 -32 21t-37 17q-11 1 -22.5 -1.5t-23.5 -4.5q-8 -1 -11 -2l-6 -2q-2 -1 -5.5 -1.5t-6.5 -1.5q-19 -8 -35.5 -20t-33.5 -20q-3 -3 -7 -5.5t-9 -4.5q-10 -1 -18 4q-11 -9 -24 -3q-8 5 -7.5 9.5
t-6.5 9.5q-8 9 -10 22.5t2 25.5q8 5 11.5 15.5t6.5 20.5l16 37.5t13 38.5q6 14 12.5 27l13.5 27q10 17 16 32.5t17 26.5l7 4.5t7 5.5q7 6 6.5 11.5t5.5 10.5l12.5 22t12.5 25q2 5 4 12t4 13q5 13 8 25t11 21q3 2 6 3t8 2q21 12 45 12.5t48 0.5q3 0 6 1t7 1q15 -1 31 0t29 0
q20 5 40 6.5t37 4.5q17 2 33 6.5t33 3.5q6 0 12.5 -0.5t11.5 3.5q8 0 17 0.5t15 -2.5q3 -4 6.5 -8t2.5 -12q-16 -20 -33 -26t-31 -16q-9 -10 -16.5 -12.5t-15.5 -6.5q-5 -2 -8.5 -5t-7.5 -4l-20 -2q-16 -1 -22 -2.5t-12 -1.5q-5 -1 -10.5 0t-12.5 -1q-11 -1 -14 -4
q-14 -1 -27 -3.5t-27 -4.5q-11 -2 -22 -4.5l-23 -5.5l-16.5 -4l-17.5 -4q-8 -12 -14.5 -25t-13.5 -25q-5 -11 -10.5 -19.5t-10.5 -18.5q-5 -11 -8 -21t-8 -20l-28.5 -55.5t-22.5 -58.5z" />
    <glyph glyph-name="six" unicode="6" horiz-adv-x="478" 
d="M534 690q-5 -5 -12 -6.5t-11 -6.5l-25.5 -7.5t-24.5 -5.5q-8 -3 -15.5 -5t-15.5 -5q-9 -4 -15 -8q-11 -7 -19.5 -17t-21.5 -17l-34 -25t-29 -24q-11 -6 -18 -14.5t-18 -14.5l-9.5 -11t-10.5 -10q-9 -14 -18.5 -27t-18.5 -27q-2 -4 -3.5 -8.5t-4.5 -8.5q-3 -3 -6 -8t-5 -9
l-6.5 -11t-5.5 -12q-2 -2 -3.5 -4t-2.5 -7q-4 -3 -6 -8.5t-6 -9.5q1 -5 -2.5 -9t-0.5 -9q6 4 9.5 10.5t11.5 8.5q15 13 38 25q1 2 4 5t7 2q7 7 18 10q9 9 22 11q8 5 18.5 8l20.5 6l7.5 2.5t9.5 2.5q11 1 22 -2t22 -5q8 -5 14 -9.5t14 -8.5q13 -14 25 -33t21 -39q2 -4 4 -9.5
t-1 -10.5q2 -21 7.5 -40t5.5 -38q1 -11 -1.5 -22.5t-4.5 -22.5q-2 -12 -4 -20l-6 -18q-6 -11 -11 -23t-12 -21q-4 -6 -7 -9q-3 -4 -5.5 -8l-5.5 -9l-12 -12q-4 -5 -7 -10.5t-9 -8.5q-9 -15 -23 -25q-5 -5 -12.5 -10.5t-14.5 -11.5l-10.5 -10t-10.5 -8q-12 -7 -15 -8.5
t-5 -1.5q-4 -2 -8 -4.5t-9 -4.5q-7 -10 -9 -8q-3 -3 -9 -3.5t-10 -3.5q-3 1 -13 1q-4 0 -8 -1.5t-8 -1.5q-5 0 -8 2.5t-6 4.5h-8t-8 -2q-17 1 -30 9t-24 16q-6 1 -10 4.5t-8 5.5l-8 6.5t-5 4.5t-4 4.5t-4 4.5q-13 14 -19 33.5t-14 39.5q-5 14 -11.5 28t-4.5 31q1 14 -1 26
t-2 29q1 38 11 72l20 68q5 17 13 32l16 29q8 13 11.5 22.5t9.5 17.5q2 7 6 11.5t7 9.5q5 6 8 12.5t10 11.5l28.5 39.5t33.5 32.5l26 28t27 27q9 12 21 21.5l24 18.5l23.5 18.5t20.5 21.5q12 7 19 14q37 23 82 38q8 -2 20 -2t20 1q11 -6 20 -14q3 -6 2 -11t4 -10
q2 -8 7 -14.5t3 -17.5zM145 95q11 -12 15.5 -17.5t8.5 -12.5q5 -2 9 -1.5t9 -1.5q7 -2 13.5 -5t14.5 -3l6 2t7 2q7 2 12.5 3l10.5 2q5 2 9.5 3t9.5 3q3 1 5 1t6 2q5 2 12.5 3.5t11.5 3.5q8 7 18 18q5 5 8 10.5t7 10.5q2 3 5.5 6t5.5 6q3 8 6.5 12t5.5 9l5.5 9l5.5 9
q5 9 10 22t6 24q2 14 2.5 31.5t-0.5 32.5q0 6 -1 14.5t-3 13.5q-1 2 -3 4t-4 5q-4 6 -6.5 12t-6.5 10q-3 3 -6 4t-6 3q-11 8 -20.5 11t-21.5 4q-5 -2 -11 -4t-11 -3q-6 -4 -12 -6l-12 -4q-5 -4 -9 -6t-8 -5q-6 -5 -12.5 -9.5t-14.5 -6.5q-5 -6 -11 -9.5t-11 -8.5
q-3 -3 -4 -7t-3 -8q-5 -10 -11.5 -20t-3.5 -21q-4 -13 -5 -20.5t-1 -12.5q1 -9 6 -17t7 -16q9 -7 14 -11.5t10 -7.5q3 -2 5.5 -2.5t3.5 -4.5q1 -8 -10.5 -10t-19.5 1q-8 6 -8.5 7.5t-1.5 2.5q-5 3 -9 8t-9 8q-9 12 -12.5 17t-6.5 11q-3 5 -5.5 10t-7.5 9q-4 -32 0 -63
t17 -56z" />
    <glyph glyph-name="seven" unicode="7" horiz-adv-x="442" 
d="M622 754q2 -5 -1 -8.5t0 -6.5q-4 -18 -7 -38t-11 -34q-5 -8 -11.5 -15.5t-11.5 -14.5q-4 -4 -6 -6.5t-4 -7.5q-13 -13 -22.5 -29t-22.5 -29q-5 -9 -11 -17t-13 -16q-7 -11 -16 -21t-18 -19q-8 -15 -16.5 -26.5t-16.5 -27.5q-3 -2 -5 -4.5t-4 -5.5q-11 -13 -19.5 -22
t-16.5 -20q-5 -8 -6.5 -8.5t-2.5 -2.5q-4 -7 -8.5 -11t-7.5 -9l-24 -23t-23 -26q-2 -3 -4 -4.5t-4 -4.5q-8 -7 -13.5 -17t-14.5 -14q-14 -16 -25.5 -34.5t-25.5 -35.5q-6 -12 -10 -19l-8 -14q-10 -19 -22 -37.5t-23 -37.5q-7 -11 -13 -23.5t-14 -23.5q-2 -4 -5 -6.5t-3 -7.5
q-5 -6 -8.5 -13t-7.5 -13q-14 -7 -28 -4q-7 -2 -9.5 -4.5t-10.5 -1.5q-9 -2 -16 -7t-17 -3q-7 2 -8.5 11t1.5 17q2 5 6 10t6 10l3.5 13.5t4.5 10.5q2 5 4.5 8.5t4.5 8.5q7 9 13.5 18.5t13.5 17.5q8 11 15 22t13 25q12 17 20.5 34.5t18.5 32.5q25 40 51 76.5t59 65.5
q5 2 9.5 6t9.5 9l13 13.5l13 13.5q3 4 6.5 7t5.5 8l8 8l9.5 12.5t5.5 11.5q11 17 23 33l24 31l30.5 51.5t32.5 48.5q11 13 20.5 27t18.5 30q-6 3 -15 0.5t-14 0.5q-12 -1 -20.5 -1t-17 -0.5t-18 -1.5t-21.5 -3q-10 -2 -16.5 -4t-16.5 -6q-6 -2 -9.5 0t-8.5 0q-12 -3 -17 -9
l-7.5 -3l-7.5 -3q-11 -2 -21 -5t-21 -7q-11 -3 -23 -3.5t-23 -4.5q-11 1 -22 6.5t-19 12.5q-12 4 -15 4t-5 2q-5 2 -8 3.5t-6 2.5q-5 1 -9.5 0t-10.5 1q-5 2 -8 4.5t-8 4.5q2 3 1 5.5t1 5.5q7 12 22 15.5t29 5.5q5 1 10 2.5t10 3.5q5 1 10.5 1.5t11.5 2.5q10 2 20 5t21 5
q9 2 20.5 5.5t22.5 4.5q5 0 10 -0.5t10 1.5q8 4 11 7l4.5 4.5t5.5 4.5q11 -4 15 -2.5l9 3.5q5 1 9.5 1t10.5 2q10 3 20 3.5t20 1.5q11 2 20 5t21 2q9 -1 14.5 -1.5t10 -1t10.5 -0.5h15q14 4 30 2.5t32 -0.5q14 1 25.5 2t23.5 0q4 -1 6.5 -3.5t7.5 -1.5z" />
    <glyph glyph-name="eight" unicode="8" horiz-adv-x="468" 
d="M631 807q0 -2 1 -5.5t-1 -5.5q-2 -7 -7 -13.5t-10 -11.5q-5 -8 -9.5 -17l-9.5 -19q-6 -14 -4.5 -19.5t0.5 -10.5t-2.5 -8l-3.5 -7q-2 -5 -3.5 -10.5t-4.5 -10.5t-4.5 -11t-2.5 -11q-5 -5 -8 -11t-8 -10q-3 -9 -9 -15.5t-13 -12.5q-5 -6 -10 -13t-12 -12l-20.5 -25.5
l-21.5 -24.5q-2 -4 -4.5 -6t-4.5 -6q-16 -16 -29.5 -32l-28.5 -33q-20 -16 -37.5 -33.5t-31.5 -37.5q8 -17 19 -30.5t17 -33.5q6 -7 9.5 -16t8.5 -16q4 -12 5.5 -20.5t5.5 -15.5q2 -16 6 -29q4 -8 4.5 -15t0.5 -17q0 -24 -2.5 -49.5t-12.5 -46.5q-1 -7 -5 -11t-4 -9
q-14 -21 -28.5 -34t-29.5 -25q-12 -2 -23.5 -7l-22.5 -10q-12 1 -21 -5t-20 -8q-10 -4 -19.5 -6t-15.5 -5q-14 -2 -27.5 -1.5t-26.5 -1.5q-19 -2 -27.5 3.5t-18.5 9.5q-2 5 -5 7t-4 6q-9 8 -18.5 15t-18.5 18q-3 2 -6 5.5t-4 6.5q-7 11 -10.5 13.5t-5.5 7.5q-8 21 -11.5 44
t-5.5 48q4 15 10 25t11 23q2 6 6 12.5t8 11.5l8 11.5l8 10.5q8 5 12.5 11t11.5 11l19.5 24.5t20.5 22.5q9 7 16.5 15.5t16.5 15.5q16 21 33 40t36 37q-2 7 -6.5 13t-8.5 12q-4 8 -6.5 15t-5.5 14q-2 7 -6 12.5t-8 13.5q-3 8 -4 18t-3 21l-2.5 12.5t2.5 13.5q2 5 3 10.5
t3 10.5q3 6 6.5 12t4.5 13q7 21 17 33.5t15 26.5q7 3 9 11q5 4 8.5 8t8.5 8q8 8 19 16q5 4 9 9.5t11 8.5q15 13 38.5 19.5t46.5 1.5q2 -1 4.5 -2t5.5 -3q31 -7 54.5 -11.5t44.5 -12.5q4 -1 8.5 -3t9.5 -2q4 -2 7 -5t7 -6q13 10 16.5 15.5t8.5 10.5q2 5 5 7t7 6q5 6 9 12.5
t10 10.5q2 2 5 3t5 3q11 8 18.5 17t15.5 21zM452 680q-9 2 -18 2.5t-17 2.5q-17 -2 -38.5 -0.5t-35.5 -6.5q-5 1 -8.5 -1.5t-8.5 -2.5q-2 -3 -5 -6t-5 -6q-8 -7 -13.5 -15t-13.5 -14l-13 -19t-11 -20q-1 -2 -1 -5t-1 -6q-2 -12 -4.5 -24t2.5 -23q2 -5 4.5 -10t4.5 -10
q8 -15 14.5 -28.5t11.5 -28.5q3 1 6 5t10 3q2 3 10 5l6 4t5 4q2 3 3.5 5.5t3.5 7.5q3 5 6.5 9l7.5 9q8 9 17 17q8 12 12.5 16.5l9.5 9.5t9.5 11t9.5 12l19.5 19.5t20.5 19.5q2 5 8 11q5 8 12 14t10 17q4 3 6 10q-9 2 -18 6t-18 6zM214 52q6 0 13.5 1t13.5 4q4 2 9 10
q8 7 8.5 9t2.5 4q7 9 15 17.5t16 18.5l11 14.5l10 13.5q8 18 11 38.5t2 38.5q-1 11 -1.5 20t-2.5 18q-8 28 -21.5 52.5l-24.5 45.5q-30 -23 -56 -48.5t-50 -53.5q-21 -20 -38.5 -45.5t-19.5 -62.5q2 -6 3.5 -12t3.5 -11q6 -12 14 -26t17.5 -29t21.5 -24q11 2 22 2t20 5z" />
    <glyph glyph-name="nine" unicode="9" horiz-adv-x="421" 
d="M444 401q-6 -9 -10 -21t-9 -24l-12.5 -25.5t-14.5 -27.5l-10.5 -18t-7.5 -21l-27.5 -48.5t-28.5 -46.5l-18 -27.5t-20 -25.5q-4 -4 -8 -8.5t-7 -7.5l-15.5 -13.5t-15.5 -14.5q-2 -2 -3.5 -4.5t-4.5 -4.5q-10 -7 -14 -13t-11 -9q-7 -10 -17.5 -16.5t-18.5 -14.5
q-3 -5 -4 -7t-3 -4l-9 -4.5t-10 -5.5q-4 -3 -8.5 -6t-8.5 -5q-4 -1 -7 0t-6 -3q-3 2 -7 2.5t-7 3.5q-3 5 -3 9.5t1 12.5q1 9 6.5 22.5t7.5 24.5q2 3 1.5 6t1.5 6q4 2 6 6t5 8q8 10 19 17.5t19 18.5q11 8 19.5 18.5t19.5 20.5q6 11 15 18t15 18l24 27.5t17 23.5q3 2 4 5.5
t3 6.5q5 9 10 19l11 21q6 8 11 19.5l10 22.5q3 5 5 10l4 10q-9 -5 -16 -11.5t-15 -11.5q-3 -2 -7 -4t-6 -4q-13 -6 -18.5 -9t-12.5 -4q-11 -4 -17.5 -3t-14.5 3q-11 2 -22 4.5t-20 9.5q-5 3 -8 7t-8 6q-8 11 -20 18t-22 18q-4 7 -10 13t-10 14q-2 3 -2 7.5t-2 8.5
q-2 5 -3 11.5t-2 14.5q-1 24 3 46.5t9 44.5q6 11 10 23.5t12 20.5q5 13 17 23q2 5 5.5 8t6.5 7q5 8 10 14.5t12 12.5q14 14 25.5 29.5t24.5 29.5q18 13 31 24q5 5 10 7t14 5q4 1 7 2.5l7 3.5q13 5 25.5 6t25.5 -1h19t14 -5q22 -3 35.5 -13.5l28.5 -21.5q4 -6 10 -11t10 -12
q5 -9 8 -21.5t7 -23.5t4 -22.5t1 -21.5q2 -8 2.5 -15.5t1.5 -14.5q0 -11 -2.5 -23.5t-4.5 -21.5q-2 -11 -4.5 -19t-6.5 -17q0 -12 -5 -24q-2 -13 -5 -21t-7 -16q-8 -11 -9 -15t-5 -6zM410 606l-14 27.5t-8 17.5q-2 4 -2.5 7t-2.5 8q-2 6 -8 9.5t-9 9.5q-10 4 -18 1.5
t-17 -2.5q-4 -2 -7 -5.5t-9 -4.5q-9 -11 -21.5 -18.5t-23.5 -18.5q-15 -15 -29 -37q-7 -5 -11 -12t-11 -13q-7 -13 -16.5 -23.5t-17.5 -24.5q-1 -14 -4 -23.5t-4 -19.5t-0.5 -20t4.5 -17q7 -41 31 -68q6 2 12 -4q10 -2 21 -0.5t22 2.5q17 2 30 3t25 7q10 11 21 21t21 22
q3 4 5 6t4 6q3 11 4 11.5t2 2.5q2 6 3.5 8.5t2.5 5.5q3 8 7 10q4 14 9.5 23.5t9.5 19.5q4 7 5 14q1 5 0 9t-1 9q1 9 3 18.5l4 19.5q-2 4 -4.5 7.5t-7.5 5.5z" />
    <glyph glyph-name="colon" unicode=":" horiz-adv-x="185" 
d="M1 88q2 -2 6 -3t6 -4q5 2 10.5 0l10.5 -4q2 -4 4.5 -7.5l5.5 -7.5q3 -11 3.5 -21t-3.5 -19q-7 -7 -10 -15.5t-10 -13.5q-6 -5 -12.5 -8t-12.5 -8q-13 -4 -22 -0.5t-16 9.5q-10 9 -11.5 23t2 28.5t10.5 27t15 17.5l12 3.5t12 2.5zM129 376q2 -2 6 -3t6 -4q5 2 10 0l10 -4
q5 -10 11 -15q2 -11 2.5 -21t-2.5 -20q-7 -6 -10 -14.5t-10 -13.5t-13.5 -8t-11.5 -8q-13 -4 -22.5 -0.5t-15.5 8.5q-11 9 -12.5 23t2 28.5t11 27t15.5 18.5q6 2 11.5 3.5t12.5 2.5z" />
    <glyph glyph-name="semicolon" unicode=";" horiz-adv-x="187" 
d="M131 376q2 -2 6 -3t6 -4q6 2 10.5 0t9.5 -4q5 -10 11 -15q2 -11 2.5 -21t-2.5 -20q-7 -6 -10 -14.5t-10 -13.5t-13.5 -8t-11.5 -8q-13 -4 -22.5 -0.5t-15.5 8.5q-11 9 -12.5 23t2 28.5t11.5 27t16 18.5q5 2 10.5 3.5t12.5 2.5zM-45 -40q8 5 14 10.5t12 12.5q-10 1 -19 7
t-12 19q-2 13 1.5 29.5t10.5 22.5q2 4 6 7.5t7 6.5q7 6 14 8.5t16 -0.5q5 -1 9 -1t8 2q4 -2 7 -4l6 -4q2 -8 5.5 -15t3.5 -16q0 -11 -4.5 -22t-6.5 -22q-6 -3 -8 -11t-7 -16q-8 -7 -14.5 -14t-12.5 -15q-8 -2 -16 -7q-3 -3 -4 -6t-4 -3l-9 11q-5 12 -3 14.5t0 5.5z" />
    <glyph glyph-name="less" unicode="&#x3c;" horiz-adv-x="508" 
d="M78 321q13 8 12.5 11t7.5 4q10 4 10 5t2 2q17 7 30 13t24 14q16 5 29.5 11.5t32.5 10.5q6 4 15 8l40.5 22.5t41.5 19.5q8 4 17 7.5t17 7.5q3 2 6.5 4t8.5 3q18 10 39.5 18.5t40.5 19.5q12 2 19 7l37 10t41 7q5 0 10 -0.5t5 -2.5q14 -1 17.5 -5.5t8.5 -8.5
q3 -7 -6.5 -12.5t-20.5 -10.5l-37 -17.5t-34 -12.5q-22 -8 -38 -15.5t-36 -12.5q-7 -2 -12.5 -5.5t-12.5 -7.5q-9 -7 -23.5 -13l-28.5 -12q-18 -7 -34 -14t-36 -14q-11 -3 -16 -5t-9 -4q-9 -2 -15 -4.5t-14 -4.5q-8 -6 -20 -9.5t-20 -9.5l-3 -7.5t-2 -6.5q6 -2 8 -2t3 -1
q5 -13 22 -24t32 -22q2 -2 4.5 -3.5t7.5 -2.5q15 -9 25.5 -20t31.5 -18q8 -4 10 -9q8 -1 10 -5q6 -2 11.5 -6.5t6.5 -9.5q-1 -13 -3.5 -20t-3.5 -14t-2.5 -13.5t-5.5 -12.5q-4 1 -9 0t-6 2q-15 -6 -18.5 -3.5t-8.5 4.5q-16 5 -20.5 7.5t-9.5 4.5q-8 4 -12 9t-12 9l-20.5 12
t-18.5 13l-20 18.5l-18 16.5q-14 7 -19 13q-3 5 -7 8.5t-6 6.5q-2 14 -9.5 15.5t-13.5 4.5q-5 2 -6.5 5t-3.5 5q-12 8 -14 11t-5 6t-7.5 7t-3.5 7q2 8 17 11z" />
    <glyph glyph-name="equal" unicode="=" horiz-adv-x="473" 
d="M336 412q8 2 15 1t15 -1q18 2 27 1t20 -1q11 1 14 0t7 -2q5 0 8 -0.5t7 -1.5h7.5t5.5 -2t1.5 -7t-3.5 -10q-2 -3 -5.5 -6.5t-7.5 -5.5q-3 -2 -6.5 -2.5t-8.5 -2.5q-2 -1 -4.5 -2t-5.5 -3q-6 -2 -10 -4.5l-10 -6.5q-4 0 -7.5 -2t-6.5 -3t-6.5 -0.5t-7.5 0.5h-10t-10 1
q-10 0 -21.5 0.5t-21.5 2.5q-6 2 -12 1.5t-12 0.5q-10 1 -19 2.5t-20 -3.5q-5 0 -12 0.5t-12 0.5q-8 1 -17 -1t-18 -3q-5 0 -9 0.5t-9 -0.5q-9 -2 -9 -1.5t-2 0.5q-14 -2 -20.5 -1t-9.5 3q-6 2 -9.5 6.5t1.5 15.5q3 8 9.5 13.5t11.5 10.5q9 8 11 8.5t4 3.5q5 -1 10.5 0.5
t12.5 1.5q15 3 19.5 2t9.5 -2q15 0 20 1t10 0q7 -1 10 -0.5t5 -0.5q10 -2 18.5 -1t16.5 1q8 -1 14.5 -1h12.5q5 0 10 0.5t9 -1.5zM402 306q1 -14 1 -16t-4 -6q-7 -9 -14.5 -16t-14.5 -11q-13 -6 -18 -9.5t-10 -5.5q-2 -2 -5.5 -2.5t-5.5 -0.5q-8 -1 -17 -1h-17
q-10 0 -20 0.5t-19 0.5q-8 0 -16.5 -0.5t-16.5 -0.5q-5 0 -9 0.5t-9 -0.5h-47q-6 0 -13 -0.5t-12 -0.5q-7 1 -8 0.5t-3 -0.5q-6 -1 -13 -0.5t-14 0.5q-8 0 -15.5 0.5t-12.5 3.5q-2 2 -5 6t-3 7t2 7t3 9q8 11 9.5 14.5t3.5 6.5q13 6 17.5 6.5t9.5 0.5q9 1 18 3t17 3t14.5 -1
t14.5 -3q8 -2 17 -1.5t17 -0.5q14 -1 26.5 1t25.5 3h10t9 1q6 1 14 1.5t13 -1.5q5 2 11 2h13t12 0.5t10 -1.5q12 0 27.5 1t26.5 0v1z" />
    <glyph glyph-name="greater" unicode="&#x3e;" horiz-adv-x="487" 
d="M482 333q-13 -8 -12.5 -11.5t-8.5 -4.5q-8 -4 -8 -5t-2 -2l-31 -12.5t-24 -13.5q-17 -5 -30 -12t-33 -11q-7 -5 -14 -8q-22 -11 -41 -22t-40 -20q-9 -4 -18.5 -7t-17.5 -7q-2 -2 -5.5 -4.5t-9.5 -3.5q-18 -10 -39.5 -18t-38.5 -19q-6 -2 -11.5 -3.5t-8.5 -4.5l-36.5 -10
t-42.5 -8q-5 1 -9.5 1.5t-5.5 2.5q-14 1 -17 5.5t-8 8.5q-4 8 6 13.5t21 9.5q20 9 37 17.5t34 13.5q22 7 38 14.5t35 12.5q8 2 13.5 5.5l11.5 7.5q10 8 24.5 13.5t28.5 11.5q17 7 33.5 14.5t36.5 13.5q10 3 15 5t9 4q9 2 15.5 4.5t14.5 4.5q8 6 20 10t20 10q1 5 2 7l3 6
q-6 2 -8 2t-3 1q-6 13 -22.5 24t-30.5 22q-2 2 -5 3.5t-8 2.5q-15 10 -25.5 20.5t-31.5 17.5q-10 5 -11 9q-15 8 -21 12t-7 9q2 13 4 20t3 14l2 13.5t6 12.5q5 -1 10 0t6 -2q14 5 18 3t9 -4q21 -8 30 -12q8 -4 12 -8.5t12 -8.5q10 -7 20.5 -13t18.5 -13l19.5 -18l18.5 -18
q12 -5 18 -12q3 -4 7 -7.5t6 -7.5q2 -14 10.5 -16t13.5 -4q4 -2 5.5 -5t3.5 -5q7 -3 7.5 -4t2.5 -1q2 -2 4.5 -5.5l4.5 -6.5q4 -3 8 -7t3 -7q0 -8 -16 -10z" />
    <glyph glyph-name="question" unicode="?" horiz-adv-x="454" 
d="M101 84q2 2 5.5 0.5t5.5 -2.5q11 2 19 -3l8.5 -11t4.5 -7q5 -6 8.5 -13t-1.5 -17q-6 -10 -7 -14.5t-3 -8.5q-4 -6 -12 -11q-4 -11 -14 -14.5t-24 -7.5l-6 -2t-5 -1q-11 -1 -18.5 6t-14.5 12q-8 19 -5 40q2 12 7 22t10 19q24 3 42 13zM398 689q-43 -9 -81.5 -21t-73.5 -29
q-5 -5 -12 -7t-9 -8q-4 -6 -6 -11t-7 -7q-3 -8 -4.5 -9.5t-2.5 -3.5q-3 -7 -5 -9t-3 -5q-3 -7 -6.5 -10.5t-5.5 -7.5q-2 -5 -3 -13.5t0 -13.5q1 -6 4 -11t7 -8l14 -2t14 -3q10 -3 15.5 -1t8.5 4l32.5 17t28.5 19q4 8 8.5 15.5t5.5 18.5q1 7 0.5 13.5t1.5 13.5q9 4 10 2t3 -3
q7 -11 11 -28t3 -32q0 -7 -3.5 -16.5t-6.5 -14.5q-2 -3 -6.5 -6t-8.5 -6q-13 -9 -16.5 -10.5t-5.5 -6.5q-25 -14 -50.5 -26.5t-50.5 -23.5q-6 1 -12 0.5t-11 -0.5q-9 1 -19 5t-17 9q-7 3 -11 13.5l-7 18.5q-2 8 -4.5 15t-2.5 16q0 8 0.5 18t0.5 18q0 27 7 45q5 10 5.5 12.5
t1.5 4.5q4 12 11.5 20t16.5 14.5t18.5 12t18.5 12.5q9 4 15 6t10 7l10.5 4l10.5 4q12 7 23 14.5t25 14.5q11 5 24.5 10t24.5 10q4 5 10.5 6.5l14.5 3.5q7 2 12 3t10 -2q8 3 16.5 3t15.5 2q7 3 10 2.5t6 0.5q2 0 5 1t6 1q10 0 17.5 -1t18.5 -2q10 0 16 -0.5t14 -2.5
q3 -1 6.5 -1.5t5.5 -2.5t5 -5.5t6 -5.5l10.5 -8.5t9.5 -9.5l5.5 -9.5t3.5 -4.5q3 -5 5 -12q6 -11 13.5 -21.5t5.5 -25.5q3 -10 0.5 -20t-2.5 -22q1 -13 -4 -20t-8 -13q-4 -11 -7 -16l-6 -10q-2 -10 -6 -17.5t-9 -14.5q-9 -12 -14.5 -18t-12.5 -11q-6 -8 -14 -13.5t-18 -10.5
q-5 -3 -11.5 -5.5t-12.5 -5.5q-6 -4 -12 -9t-11 -10q-6 -4 -12.5 -7.5t-12.5 -7.5q-8 -3 -13.5 -7t-12.5 -8q-8 -5 -14.5 -9.5t-15.5 -9.5l-30.5 -18t-29.5 -20q-9 -7 -17.5 -14.5t-17.5 -13.5q-8 -9 -9 -11t-2 -6q-8 -14 -13.5 -24.5l-10.5 -20.5t-8 -21.5t-7 -22.5l-4 -10
t-5 -11q-4 -13 -7 -19l-5 -15.5t-10 -9.5q-1 -4 -4 -6t-5 -4q-10 -2 -20.5 -8t-23.5 -3q-6 -5 -13 -6q-6 2 -8 3.5t-7 -0.5q-9 5 -9 16.5t6 18.5q12 29 22.5 50t24.5 41q2 3 4 5.5t4 5.5q2 5 2 10.5t4 9.5q7 21 18 37t19 36q2 2 3.5 5t3.5 5q1 7 2.5 8.5t1.5 3.5
q15 11 34 14t36 11q16 11 25.5 16.5t18.5 13.5l19.5 15.5l18.5 14.5l39.5 35t37.5 39q4 5 8 12l8 14q5 11 8 28q2 14 3 28.5t-7 25.5q-8 6 -10 9t-5 5q-11 7 -13 8.5t-4 2.5q-2 2 -5 2.5t-6 2.5q-2 2 -4 3t-6 2z" />
    <glyph glyph-name="at" unicode="@" horiz-adv-x="795" 
d="M126 112q-8 13 -10 28t-12 27l-11.5 37.5t-10.5 37.5q2 3 1.5 6.5t1.5 6.5q-2 11 -2.5 23t0.5 24q1 5 1 10v11q5 55 24.5 106.5t46.5 94.5q0 3 1.5 7t4.5 6q10 19 24 35.5l28 32.5l11.5 13.5t14.5 13.5q18 16 37 30q11 8 22.5 14.5t22.5 13.5q9 9 20 15l23 12q8 8 22 10
t27 6q4 2 11.5 5t9.5 -3q8 5 18 6.5t21 3.5q5 1 13 2t13 -2q9 2 18 1.5t17 -2.5q8 2 16.5 0l16.5 -4t16.5 -2.5t15.5 -2.5l28 -10t27 -9q26 -13 47 -28t40 -35q0 -4 2 -6t3 -6q12 -9 17.5 -23.5t12.5 -28.5q9 -20 15 -44q5 -17 7.5 -34t4.5 -36q1 -4 0.5 -8t0.5 -8
q0 -5 0.5 -8.5t0.5 -8.5q0 -12 -3 -26.5l-6 -29.5q-3 -14 -8 -29t-10 -26q-2 -10 -6.5 -18t-9.5 -16q-11 -18 -17.5 -38t-19.5 -35q-3 -11 -9.5 -16.5t-13.5 -12.5q-7 -8 -14 -13t-14 -13q-6 -1 -10 -6t-9 -8q-4 -3 -8.5 -5.5t-9.5 -4.5q-12 -8 -21.5 -10t-16.5 -6
q-12 1 -22.5 5.5t-19.5 9.5q-8 5 -14 10.5t-14 10.5q-25 29 -29 68q-6 -5 -9.5 -12.5t-9.5 -11.5q-4 -8 -9.5 -14t-10.5 -13q-7 -5 -13.5 -8.5t-12.5 -8.5q-7 -2 -12 -5t-14 -5q-5 -1 -12 -4t-13 -4q-5 -1 -11 -1h-11q-6 0 -15.5 1.5t-14.5 4.5q-9 8 -13 9t-6 4q-2 2 -3 4.5
t-3 5.5q-2 2 -3.5 4.5t-3.5 4.5q-9 14 -14.5 33t-7.5 39q2 43 10 87q2 12 6 26t9 28q2 8 5.5 15t5.5 13q2 5 3.5 7l5.5 7q6 11 9 13t5 5t4 5.5t4 5.5q5 5 8.5 11.5t7.5 12.5q8 8 15.5 18t15.5 18q5 2 10 5.5t8 8.5q3 1 5.5 2.5t4.5 3.5q10 3 17 11t18 11q8 2 15.5 3t16.5 4
q11 2 15 1q6 -1 11.5 -4l10.5 -6q12 -10 23 -18t16 -22q4 7 4.5 13t5.5 11t10 6.5t10 6.5q9 0 14 1q6 -6 11.5 -15t7.5 -20q2 -4 3 -7t0 -7q0 -5 -2 -9.5t-4 -8.5q-2 -2 -4 -4.5t-3 -4.5q-2 -6 -4 -14q-4 -11 -7.5 -23t-7.5 -24q-7 -20 -17 -41t-13 -41q-6 -30 -9 -61
q-4 -24 4.5 -41.5t24.5 -30.5q7 -4 16 0t17 6q6 2 10.5 3t9.5 3t10.5 9.5l8.5 11.5q6 5 10 10.5t9 10.5q5 10 11 19t10 19q2 4 3.5 7.5t4.5 8.5l3.5 7l3.5 7q5 11 7.5 25t4.5 28q2 22 0 44t0 42q-2 8 -1.5 17t-1.5 17q-7 49 -33 82.5t-55 63.5q1 10 -6 11.5t-15 3.5
q-7 2 -15 5t-16 5q-5 1 -9.5 1.5t-9.5 0.5q-9 2 -19.5 3.5t-21.5 -1.5q-12 4 -25 1.5t-26 -6.5q-7 -2 -13.5 -3.5l-14.5 -3.5q-7 -2 -13.5 -6.5t-14.5 -8.5l-10.5 -4l-10.5 -4q-6 -4 -11.5 -8.5t-12.5 -7.5q-5 -2 -10 -5t-10 -5q-9 -5 -13.5 -8.5t-7.5 -5.5q-6 -4 -11 -7
t-10 -8q-11 -5 -20 -15t-20 -15l-4.5 -4.5t-5.5 -4.5l-15.5 -23t-16.5 -22q-11 -11 -14 -19t-8 -16q-2 -3 -5 -6.5t-5 -7.5q-5 -8 -7.5 -18t-6.5 -20q-7 -14 -10 -27.5t-5 -28.5q-2 -8 -2.5 -14t-2.5 -13q-3 -19 -3.5 -36t1.5 -34q1 -9 0.5 -16.5t2.5 -15.5q2 -3 3 -5.5
t2 -6.5q2 -6 3 -12t3 -11q5 -12 8 -22l9.5 -19t7.5 -12.5t9.5 -11t15.5 -13.5q7 -6 13 -12.5t14 -12.5q3 -2 7 -4t8 -5q8 -5 17 -10t19 -10q5 -3 9.5 -7t10.5 -6q12 -4 25.5 -4.5t27.5 -1.5q4 -1 7 -2t7 -2q3 -1 7 -0.5t7 -0.5q10 -7 17 -7q5 -2 8 -3.5t8 -1.5q9 -6 21 -5
t24.5 3.5l25.5 5t24 0.5q6 2 11.5 3t10.5 -1q1 -8 -3 -14t-7 -11q-5 -3 -11 -5.5t-12 -4.5q-12 -4 -15.5 -6.5t-8.5 -3.5q-17 -1 -35 -6.5t-30 -8.5q-7 -2 -13.5 -1t-15.5 1h-13q-5 1 -11 2t-13 1q-8 1 -15.5 0t-14.5 0q-9 1 -22 5q-16 5 -25 6q-11 3 -22 8.5t-22 8.5
l-15.5 4t-13.5 4q-6 6 -9 6t-6 2q-14 15 -23 23t-13 19q-9 7 -17.5 16.5t-15.5 19.5zM474 510q-8 -3 -11.5 -4.5t-8.5 -6.5q-2 -2 -5.5 -3.5t-5.5 -3.5q-4 -5 -7 -10t-7 -10l-6 -4t-5 -5q-5 -6 -7 -14.5t-10 -13.5q-6 -17 -13 -29.5t-12 -28.5q-3 -9 -7.5 -18.5t-9.5 -17.5
q-4 -11 -5.5 -23t-3.5 -21q2 -8 -0.5 -18.5t-0.5 -18.5q2 -6 5 -11t5 -11q6 -8 16.5 -10l21.5 -4l9 3.5t10 2.5l25 20t20 25q7 6 12.5 12.5t10.5 14.5q1 8 5.5 16l8.5 15q6 12 9.5 15t5.5 8q2 4 2.5 8t2.5 8q2 3 3.5 6.5t2.5 6.5l10 40.5l10 39.5q-9 -2 -15.5 -1.5
t-14.5 -0.5q-6 3 -8 9t-2.5 13.5t0 15.5t-0.5 15q-7 2 -15 -1t-14 -5z" />
    <glyph glyph-name="A" unicode="A" horiz-adv-x="600" 
d="M513 729q-1 -4 -1 -7t-1 -5q11 -20 12.5 -47t3.5 -53q5 5 9 9.5t8 9.5q5 5 8 9.5t7 9.5q2 4 5.5 7t6.5 6q5 5 10 11t10 11l7.5 9l7.5 9l16 20.5t19 16.5q9 -2 10 -3t3 -1q13 -4 15.5 -12t2.5 -15q0 -5 -1 -12t-3 -12q-2 -6 -5 -11.5t-3 -10.5q-1 -6 -2.5 -12.5t-5.5 -9.5
q2 -14 -5.5 -23t-12.5 -17q-4 -5 -7 -13q-4 -5 -5 -9.5t-6 -9.5q-3 -4 -8.5 -7.5t-9.5 -7.5q-9 -11 -12 -14l-5 -5q-5 -6 -8 -12.5t-8 -11.5q-3 -4 -6.5 -6.5t-5.5 -5.5t-3.5 -7t-3.5 -8t-4 -7l-4 -6q-2 -4 -3 -8t-4 -8q-8 -14 -14 -26q-3 -6 -5 -12.5t-5 -12.5
q-2 -6 -5 -11.5t-5 -10.5q-5 -11 -8.5 -23.5t-8.5 -23.5q-4 -9 -7 -18t-8 -17q-5 -19 -9 -37t-11 -37q-7 -20 -13.5 -41.5l-12.5 -42.5q-5 -24 -7.5 -45t-0.5 -45q6 0 11.5 -3t11.5 -1q5 1 10 5t12 7q5 2 8.5 2.5t5.5 4.5q6 2 11 4.5t9 7.5q11 3 20 9.5t18 11.5l10 6l10 6
l10 4t9 6q2 2 8 6l9 6q10 3 16 7.5t8 6.5q4 -1 12.5 4t13.5 5q4 -2 8 -2.5t7 -2.5q-1 -4 -0.5 -7.5t0.5 -6.5q0 -2 -5.5 -9t-7.5 -9q-3 -4 -11.5 -11t-13.5 -9q-5 -11 -14.5 -19.5t-17.5 -16.5q-10 -5 -19 -13t-16 -15q-24 -14 -49 -31.5t-53 -31.5q-12 -5 -23 -10.5
t-27 -7.5q-9 -1 -15.5 1.5t-14.5 4.5q-3 9 -8 16l-10 14t-8.5 14.5t-3.5 17.5q-1 3 0 7l2 8q1 3 1 6t1 7q2 11 4.5 21.5t4.5 22.5q-1 16 1.5 28t3.5 26q-5 -2 -7.5 -5.5t-7.5 -5.5q-8 -9 -17.5 -17t-21.5 -14q-13 -9 -25 -19t-26 -18q-22 -20 -46 -36.5t-47 -34.5
q-8 -3 -15.5 -6.5t-17.5 -4.5q-11 -6 -20.5 -1.5t-17.5 9.5l-10.5 9l-10.5 9q-11 18 -16.5 33.5t-15.5 26.5q-1 5 -3 8.5t-5 7.5q-3 13 -3.5 24t-1.5 23q1 22 8.5 41t12.5 35q1 3 1 6t1 6t2.5 7t3.5 8q2 8 5 15t5 15q2 5 3 8t3 6q5 9 7.5 18t5.5 18q8 26 17.5 51.5
t23.5 48.5q2 3 4.5 5.5t4.5 5.5l21 33q11 15 23.5 28.5t23.5 27.5q14 13 25 28t25 27q2 6 7 9.5t7 9.5q9 6 15.5 15t16.5 15q19 21 39 40.5l40 39.5q17 2 23 13q14 9 31.5 19t34.5 15q5 2 13.5 -1l14.5 -5q15 -3 20 -9.5t10 -11.5zM102 170q5 -19 8.5 -34t9.5 -32
q4 -2 5 -5.5t6 -5.5q4 -2 12 -2.5t11 0.5q5 2 10 5q8 4 15 8.5t15 8.5l10 4l10 4q10 2 17.5 6t15.5 9q20 11 39.5 26.5t38.5 26.5q26 32 49.5 71t31.5 91q1 12 2.5 19.5t3.5 15.5q2 6 3.5 13.5t3.5 12.5q8 26 12 49t11 45q3 8 5.5 16.5l4.5 15.5q6 7 5.5 10t0.5 5q2 5 4 8.5
t4 8.5q4 10 8 24.5t4 25.5q-3 17 -4.5 23t-4.5 14t-9 20.5t-14 14.5q-11 2 -21 -8.5l-15 -15.5q-2 -2 -5.5 -3.5t-5.5 -4.5q-2 -2 -4.5 -5t-5.5 -6q-2 -2 -4.5 -5t-4.5 -6l-8.5 -10.5l-9.5 -11.5q-5 -5 -8 -11t-8 -11q-6 -7 -12 -13t-9 -14q-11 -8 -21 -20q-5 -6 -9 -12
t-7 -13q-8 -4 -12.5 -12t-10.5 -13q-9 -8 -10.5 -11.5t-3.5 -5.5q-15 -18 -27.5 -38t-23.5 -41q1 -3 -1 -5.5t-2 -7.5q-6 -8 -11 -19q-4 -8 -6.5 -15.5t-5.5 -15.5l-3.5 -7t-3.5 -6l-4 -11.5l-4 -10.5t-5 -10t-7 -10q-2 -4 -2.5 -8.5t-2.5 -8.5q-2 -5 -4.5 -9t-4.5 -9
t-3.5 -10.5t-3.5 -10.5q-2 -3 -3.5 -5t-3.5 -4q-2 -3 -3 -6.5t-3 -6.5q-5 -5 -10 -9t-8 -11q2 -2 3.5 -7t3.5 -8z" />
    <glyph glyph-name="B" unicode="B" horiz-adv-x="553" 
d="M390 352q4 -6 12 -7.5t13 -5.5q8 -2 12.5 -2.5t9.5 -1.5q7 -7 8 -7t0 -2q13 -12 24 -27q2 -4 3.5 -10.5t3.5 -12.5q2 -5 2.5 -10t1.5 -10q2 -17 -2 -31t-6 -28q-5 -7 -5 -14t-2 -14q-1 -3 -2.5 -6t-2.5 -7q-3 -14 -9.5 -24.5t-11.5 -21.5q-1 -7 -3 -13t-3 -11
q-1 -4 -4.5 -7t-1.5 -7q-8 -4 -8 -12q-2 -2 -5.5 -4.5t-5.5 -7.5q-14 -10 -18.5 -14.5t-9.5 -8.5q-4 -2 -7.5 -6t-7.5 -6q-3 -2 -6.5 -4t-6.5 -4q-7 -5 -14 -9.5l-15 -9.5q-6 -3 -10.5 -6t-9.5 -5t-11.5 -3t-11.5 -3q-20 -3 -39 3t-33 13q-11 5 -24.5 9t-23.5 12
q-16 13 -23 33.5t-18 38.5q1 7 -2.5 11t-6.5 9q-2 5 -4.5 8.5l-4.5 6.5q-4 15 -5 17q-12 -2 -16 -13.5t-10 -21.5q-1 -6 -3.5 -10.5l-5.5 -9.5q-2 -5 -2 -9t-4 -6q-12 -1 -13 -6t-6 -4q1 -7 -3 -12.5t-2 -12.5q-1 -5 -3.5 -8t-4.5 -8q-7 -3 -18.5 -5t-16.5 5q-9 2 -14 5
t-5 9q0 4 2.5 6t0.5 7q7 16 17 28.5t16 28.5q8 14 15.5 28.5t15.5 28.5q8 17 17 31t16 31q2 4 2.5 6.5t-1.5 6.5q10 29 24 54t27 51q5 18 14 34.5t16 34.5l19.5 37l17.5 33q7 8 9.5 17.5t8.5 14.5q2 5 4.5 9t4.5 9q8 20 15 29.5t9 20.5q5 5 9.5 13.5l8.5 16.5q2 5 5.5 12
t6.5 15q2 3 3 5t2 6q5 5 7 11.5t6 11.5q-7 7 -17 3t-19 -9q-17 -7 -32 -15l-29 -16q-15 -8 -29.5 -11l-28.5 -6q-8 5 -10.5 1.5t-7.5 -0.5q-2 0 -4.5 -1.5t-7.5 -1.5q-3 5 1.5 7.5t5.5 6.5q23 14 48 25.5t48 25.5q25 15 44 24t38 21q23 8 42.5 17.5t45.5 11.5q11 7 25 5.5
t26 3.5q8 0 19.5 0.5t21.5 -0.5q23 -1 35.5 -2t23.5 -4q4 -1 8.5 -2t8.5 -2q11 -4 22.5 -6.5t19.5 -7.5q15 -13 22.5 -21.5t10.5 -20.5l11 -25t6 -24q1 -5 0.5 -11t-0.5 -13q-1 -9 0 -18.5t0 -20.5q-1 -12 -4.5 -24t-8.5 -23t-6.5 -22t-8.5 -20l-9.5 -17.5l-7.5 -13.5
q-2 -2 -4.5 -4t-3.5 -6q-11 -9 -21 -18.5t-24 -15.5q-10 -10 -22.5 -18.5l-24.5 -16.5l-6.5 -4.5t-9.5 -3.5q-8 -2 -13.5 -3t-14.5 -3q-12 -1 -24 -3l-23 -4zM331 392l28 12.5t28 11.5q8 2 15 4t13 5q11 7 15 9t8 5q6 3 11.5 8t10.5 8q6 5 11.5 8.5t11.5 8.5q4 3 8.5 5.5
t8.5 5.5q7 7 11.5 15t11.5 14q5 10 9 20t7 21l6 17.5t5 16.5q1 10 2.5 14t0.5 8q0 4 -2 8t-4 7q-5 11 -12 21t-13 20q-9 7 -21.5 13.5t-27.5 1.5q-2 2 -7 2.5t-7 -1.5q-7 1 -14.5 0.5t-15.5 -1.5t-15 -2.5t-10 -2.5q-2 -2 -4 -5.5t-4 -6.5q-5 -9 -9.5 -12.5t-9.5 -11.5
l-7 -9t-5 -9q-5 -2 -6.5 -5t-3.5 -6q-5 -2 -6 -8t-5 -8q-8 -12 -11.5 -20.5t-8.5 -22.5q-8 -15 -14.5 -28.5l-13.5 -27.5q-2 -6 -4 -11l-4 -10q-3 -5 -7 -9.5t-8 -9.5q-11 -17 -18.5 -34t-17.5 -33q-22 -33 -40 -66q-5 -4 -4.5 -9t-5.5 -7q-8 -11 -13 -17l-4 -8t-4 -9
l-6.5 -10.5t-5.5 -10.5q-5 -11 -11 -21.5l-11 -19.5q-2 -4 -4 -7l-4 -6q-2 -8 -3 -8.5t-2 -2.5q-1 -5 1 -8.5t4 -7.5q1 -3 1 -5.5t1 -5.5q4 -11 6.5 -15.5t6.5 -13.5q2 -4 3 -7t3 -6l3.5 -7t3.5 -8q6 -12 15 -21t17 -20q9 -6 20.5 -5t22.5 0q10 4 20.5 1.5t20.5 -2.5
q3 1 5.5 2.5t5.5 -0.5l12.5 6l12.5 6q9 8 18 14.5t15 16.5q2 2 3.5 4.5t3.5 5.5q4 5 6.5 10.5t4.5 11.5q11 11 17 21.5t14 19.5q2 8 8 14t7 16q0 19 -3 28.5l-6 18.5q-2 4 -2 8.5t-2 8.5q-8 12 -12.5 20.5t-10.5 13.5q-4 2 -8.5 2t-8.5 2l-22 8t-24 6q-5 3 -9 6t-9 5
q-4 6 -9 7q0 6 -5 8t-7 7t-2 11t-3 11q5 3 12 2.5t12 4.5q8 0 14 2.5t14 4.5q6 1 11 -0.5t10 1.5v3z" />
    <glyph glyph-name="C" unicode="C" horiz-adv-x="528" 
d="M604 734q1 -5 4 -8.5t6 -5.5q1 -8 1.5 -16.5t2.5 -16.5v-8.5t3 -7.5q-3 -35 -9.5 -57.5t-11.5 -49.5q-1 -5 -2.5 -9.5t-1.5 -9.5q-1 -4 -0.5 -7t-0.5 -7q-2 -6 -6 -13t-8 -15q-16 -29 -35.5 -55t-48.5 -40q-11 -5 -18.5 -9.5t-18.5 -6.5q-7 -4 -16.5 -8.5t-18.5 -6.5
q-4 -2 -8 -2t-8 -1l-8.5 -3.5t-6.5 -2.5q-8 -2 -12 -2q-7 1 -10 8.5t-3 15.5q-4 4 -9 7t-7 11q-3 11 -4 12t-2 3q-5 14 -3.5 31.5t7.5 28.5q2 5 6 7.5t5 7.5q8 5 14 10.5t14 10.5q10 17 23 26t25 19q4 3 6.5 7t7.5 8q3 3 7 5.5l7 4.5l4 4l4 4q4 2 8 2t8 2q14 2 14 -1.5v-7.5
q-5 -3 -12 -5.5t-14 -4.5q-2 -8 -8.5 -12t-11.5 -11q-4 -5 -6.5 -9.5t-9.5 -6.5q-5 -12 -12.5 -20.5t-14.5 -17.5q0 -11 -4.5 -18.5l-9.5 -15.5l-4 -8t-2 -6q1 -2 2.5 -5.5t3.5 -6.5t4.5 -5t3.5 -5l47.5 30t40.5 36l9.5 17.5l9.5 18.5q2 10 6 19t9 18q5 10 9 20t5 21
q1 8 0.5 17.5t2.5 14.5q-2 5 0 13.5t1 16.5q-7 15 -14 17.5t-15 4.5l-17 -11t-17 -13l-12.5 -12t-10.5 -14q-13 -14 -21 -24.5l-16 -21.5q-17 -11 -31 -24t-31 -24l-25.5 -20.5t-23.5 -21.5q-10 -11 -21 -20.5t-20 -20.5l-17 -22.5l-18 -22.5q-5 -5 -9 -11t-9 -12
q-5 -5 -9.5 -11l-8.5 -11q-3 -5 -5 -10.5t-5 -10.5l-19.5 -24.5t-16.5 -28.5q-12 -16 -18.5 -31.5t-14.5 -30.5q-2 -14 -7.5 -25t-7.5 -25q-1 -7 -3.5 -13.5t-3.5 -14.5q-2 -7 -2 -14.5t-2 -13.5q-6 -13 -6 -18.5t-5 -8.5q3 -8 5.5 -14t7.5 -12q2 -4 6 -7t6 -7
q4 -10 6.5 -12l6.5 -5l7.5 -5t8.5 -4q5 -2 10.5 -1.5t10.5 -0.5q5 0 9 -0.5t9 0.5q8 2 19 4.5l20 4.5l27.5 8t25.5 9q13 5 21 14t18 14q16 12 22.5 19.5t14.5 12.5q7 9 8 9t2 1q7 8 13.5 14.5t13.5 14.5q11 5 18 13q8 3 13.5 8l11.5 10q8 6 11 9q4 4 7.5 8l7.5 9q2 2 6 4.5
t8 7.5q2 3 4 8t7 5q6 1 13 -5.5t7 -13.5q-9 -14 -10 -17q-7 -10 -15 -19t-16 -20l-16 -18.5t-15 -20.5t-15.5 -19.5t-17.5 -18.5q-13 -14 -25.5 -26t-23.5 -29q-5 -5 -10 -9.5t-10 -9.5q-5 -3 -9.5 -6.5t-9.5 -6.5q-20 -7 -40.5 -18.5t-45.5 -18.5q-11 -3 -22.5 -7t-25.5 -3
q-2 1 -5 1t-6 1q-6 1 -12.5 4t-14.5 4q-5 0 -9 -1.5t-9 -1.5q-22 14 -35.5 23.5t-24.5 22.5q-8 13 -11 16.5l-7 8.5l-8 12.5t-8 14.5q0 4 -2.5 7t-4.5 7q-5 17 -5 35.5t1 36.5q1 5 0 9.5t-1 9.5q0 8 3 17t5 17q6 22 13.5 41.5t17.5 36.5q9 12 13.5 23l9.5 23l10 21.5
t11 21.5l10.5 20t14.5 18q3 11 9 18.5l12 15.5q10 14 20.5 26t18.5 27q8 6 14.5 13l12.5 14q7 8 13.5 14.5t13.5 14.5q4 3 7.5 6.5l6.5 6.5q7 8 14 14t15 12q9 4 17 11q9 9 17.5 18.5t17.5 17.5q14 14 29 27.5t32 24.5q10 11 24 18.5l28 14.5q8 3 13.5 5.5t12.5 6.5
q11 7 16 7.5t8 4.5q12 0 21 3.5t20 0.5q4 -1 7 -2.5t6 -2.5q19 -2 27 -6l15.5 -7.5t17.5 -4.5z" />
    <glyph glyph-name="D" unicode="D" horiz-adv-x="564" 
d="M274 584q-27 -9 -51 -19.5t-46 -24.5q-7 -5 -12 -11.5t-12 -11.5q-20 -15 -42 -15q-9 5 -11 10q8 20 19.5 33.5l23.5 27.5q11 7 20 14t18 15l18 16t19 13l26.5 13.5t24.5 14.5q18 14 40.5 25l43.5 21q11 5 21.5 9t21.5 6q11 3 23 5t23 6q16 2 30.5 7t31.5 4q4 0 6 -1
t6 -2q13 0 18.5 -2l10.5 -4q10 -4 18 -8.5l17 -9.5q5 -3 8 -6t7 -6q8 -5 10.5 -7.5l5.5 -5.5q5 -5 9.5 -7.5t3.5 -9.5l8 -21.5t4 -22.5q0 -5 -1.5 -10t-3.5 -10q-2 -7 -2.5 -13t-3.5 -11q-2 -14 -4.5 -27.5t-4.5 -28.5q-1 -5 -1 -11t-1 -11q-2 -13 -7 -24.5t-5 -22.5
q-6 -21 -13 -33.5t-15 -25.5q-10 -14 -17 -31.5t-15 -34.5q-2 -3 -2.5 -7t-2.5 -7q-9 -11 -10 -15t-3 -9l-6.5 -15.5t-6.5 -16.5q-2 -3 -6 -11q-3 -6 -7.5 -12l-9.5 -13q-16 -25 -33 -47t-37 -43q-25 -25 -52.5 -46t-54.5 -44l-20 -16.5t-22 -16.5q-5 -4 -10.5 -7t-10.5 -8
q-16 -15 -40 -26q-12 -3 -15 -4.5t-5 -1.5q-6 -2 -12 -2t-12 -1q-3 0 -6 -1t-7 -1q-8 1 -16.5 4t-16.5 5q-4 1 -7 2t-7 2q-7 4 -13 7t-12 7q-15 4 -18 11t-8 13q-6 19 -9.5 34t-8.5 34l-3.5 12.5t-0.5 12.5q1 5 4 11l6 12q8 14 12.5 28.5t12.5 28.5q2 2 3.5 5t3.5 5
q3 6 5.5 12l4.5 11l16.5 33.5t18.5 32.5l18.5 31.5t18.5 23.5q6 17 15 30.5t15 30.5q6 8 10.5 19t9.5 21q8 20 16 34l4 6t3 7q3 9 7 18t8 17q8 17 15.5 30.5zM494 666q-14 -1 -26.5 -5.5l-25.5 -9.5q-9 -3 -17 -7l-16 -8q-9 -5 -16.5 -10t-15.5 -11q-1 -3 -2.5 -5.5
t-2.5 -5.5q-11 -11 -16.5 -24.5t-12.5 -25.5q-8 -13 -14.5 -25.5l-13.5 -25.5q-5 -11 -10.5 -19.5t-9.5 -18.5q-13 -21 -17 -33q-3 -7 -7.5 -13.5t-6.5 -14.5q-3 -7 -6.5 -13.5t-5.5 -13.5q-2 -5 -2.5 -11t-2.5 -11q-3 -9 -6.5 -18t-6.5 -20q-5 -8 -10.5 -14t-9.5 -13
q-4 -11 -7.5 -15.5t-5.5 -9.5q-5 -8 -9 -17t-9 -18q-2 -3 -4.5 -6t-4.5 -7q-3 -6 -5 -12.5t-5 -14.5q-3 -7 -6.5 -13t-5.5 -12q-4 -7 -7 -14t-5 -13q-3 -7 -5 -14t-5 -14q-6 -12 -8 -18.5l-4 -12.5t-4.5 -12.5t-2.5 -12.5q-4 -3 -5 -7t-1 -8.5v-9t-3 -7.5q16 2 25.5 8
t23.5 8q10 5 17.5 12.5t21.5 8.5q16 10 28.5 21.5t31.5 18.5q15 13 31 24.5t28 28.5q5 2 14 9l11.5 14t10.5 15q10 8 17 18t18 17q4 10 11 16.5t13 14.5q8 10 14.5 21t14.5 20q14 26 29.5 50t26.5 53q10 13 17.5 27.5t12.5 28.5q7 7 9.5 18.5t12.5 13.5q8 12 8.5 28t2.5 31
q1 5 0 9t-1 8q1 8 2.5 16.5t-0.5 14.5q-5 8 -5.5 10.5t-1.5 4.5q-2 6 -2 11q-2 8 -2.5 11.5t-3.5 8.5q-5 7 -7.5 13t-7.5 11q-8 1 -14.5 1h-14.5z" />
    <glyph glyph-name="E" unicode="E" horiz-adv-x="441" 
d="M502 715q7 -9 16.5 -14t17.5 -13q6 -7 8 -9q0 -11 -4.5 -21t-5.5 -22q-2 -26 -8 -40.5t-5 -26.5q0 -9 5 -19t-3 -18q-5 -5 -10.5 -6.5t-13.5 -3.5t-15.5 -4.5t-15.5 -2.5l-10.5 2l-11.5 2q-3 3 -4.5 5.5t-3.5 7.5q2 5 1.5 9.5t0.5 9.5q1 14 7.5 25.5t9.5 23.5q0 9 3 15
q0 8 3 14t2 12q4 5 5 11.5t3 14.5q-9 4 -20 4.5t-19 -4.5q-38 -1 -62 -20.5t-39 -45.5q-8 -9 -15.5 -20.5t-15.5 -22.5q-10 -15 -16 -23t-11 -16q-4 -6 -7 -12.5t-7 -13.5q-3 -7 -7 -13.5t-7 -14.5l-2 -6t-2 -5q-1 -3 0 -6.5t2 -5.5q1 -5 1 -9t2 -9q6 -10 8 -15.5t5 -10.5
t6.5 -8.5t6.5 -7.5q11 -2 20.5 -4t18.5 -3q11 -1 21.5 2t20.5 1q9 6 17 -1t10 -13q1 -7 -0.5 -16t-4.5 -14q-4 -7 -10.5 -11.5t-11.5 -7.5q-11 -1 -20 -3.5t-19 -1.5q-24 -6 -50.5 -12t-52.5 -14q-10 -2 -12 -4t-7 -2q-14 -5 -26 -11t-23 -14q-9 -8 -14 -11t-7 -10
q-13 -15 -29 -28l-27 -34q-5 -5 -5.5 -7t-1.5 -7q0 -10 -2.5 -21t-3.5 -20q-1 -12 0 -22t6 -18q2 -2 4.5 -5.5t4.5 -8.5q4 -7 7 -11.5t11 -9.5q3 -2 7 -4t6 -2t5.5 1.5t6.5 2.5t6 1t5 2q17 5 29.5 14t28.5 16q4 2 8.5 4.5t9.5 4.5l24.5 18t28.5 17q11 5 21 12t18 14
q5 9 10.5 15t8.5 15q4 1 5.5 4.5t4.5 6.5q-2 4 -3 8.5t-4 6.5q-9 -1 -18 2t-20 1q-2 0 -5 -1l-6 -2q-16 -3 -30.5 -10t-23.5 -17q-1 -5 -3.5 -7t-4.5 -5q-5 -10 -8.5 -20.5t-10.5 -19.5q-3 0 -6 3t-4 6q0 2 1 6.5t1 7.5q1 3 0 5.5t0 7.5q1 6 2 14t3 13q4 14 8 19.5t10 7.5
q2 3 5.5 5.5t8.5 5.5q8 5 10 7.5t5 4.5l11.5 4.5t11.5 3.5q7 1 14.5 3.5t16.5 2.5q10 -2 14 -3q4 0 7.5 1t7.5 0q3 0 5.5 -0.5t5.5 -0.5l11.5 2t9.5 -4q9 -2 15.5 -7.5t11.5 -11.5q2 -3 4 -5t4 -6q5 -12 2.5 -26t-9.5 -24q-1 -4 -3 -6.5t-4 -5.5q-22 -22 -31 -42
q-13 -9 -22.5 -20t-22.5 -19q-7 -8 -16.5 -12.5t-17.5 -10.5q-9 -7 -19.5 -14t-21.5 -12q-9 -6 -19 -9q-12 -8 -25.5 -13t-25.5 -13q-17 -5 -34.5 -14t-33.5 -14q-6 -1 -16 2q-8 2 -19 9.5t-15 15.5q-7 2 -10.5 10t-8.5 14l-6.5 10.5t-6.5 12.5q-9 12 -13 22q-5 15 -6.5 19
l-3.5 9t-4.5 9t-5.5 8q-4 20 3.5 40t14.5 34q4 5 6 9.5t4 9.5q5 9 10 16.5l10 15.5t8.5 17t9.5 17q3 11 10 16.5t14 13.5q5 2 8.5 5t7.5 6q23 10 41.5 20t38.5 18q30 6 61 19q-8 9 -12.5 23.5l-9.5 30.5q-1 4 -3 7.5t-3 7.5q-2 10 -2.5 12t-1.5 4q-1 7 -1 14.5v15.5v11t2 11
q4 10 3.5 13t0.5 6q1 4 2.5 6t1.5 7l10.5 15l10.5 16q7 11 13 19t10 17q8 5 13.5 13t12.5 14l25.5 29.5t28.5 25.5q11 5 20 12t18 13q9 8 19.5 12.5t20.5 11.5q5 1 8 3t7 4q7 4 19 7q7 2 12.5 4t13.5 1q10 -1 17 -2.5t12 -6.5q8 -1 13 -5.5t10 -9.5h4z" />
    <glyph glyph-name="F" unicode="F" horiz-adv-x="430" 
d="M545 717q3 -9 3 -12q2 -3 7.5 -8.5t8.5 -5.5q12 0 13.5 -1t3.5 -2q0 -11 1 -12t2 -3q0 -4 -2 -14q-2 -8 -7 -16l-10 -16t-10.5 -15l-10.5 -14t-7 -13.5t-10 -12.5l-14 -10t-13 -11l-12 -15q-2 -5 -5.5 -8.5t-5.5 -7.5q-6 -9 -9.5 -18t-13.5 -16q-14 -25 -32 -46t-34 -45
q11 -1 22.5 0.5t25.5 2.5q30 2 56 3t52 1q8 -6 5 -15q-5 0 -7.5 -2.5t-7.5 -0.5q-4 -2 -5 -5t-3 -5q-6 -18 -26.5 -18.5t-37.5 -2.5q-11 -1 -11.5 -1.5t-1.5 -0.5q-18 -2 -36.5 -4.5t-36.5 -4.5q-5 -4 -11.5 -2.5t-11.5 -0.5q-3 -2 -4 -5t-3 -6l-9 -13l-9 -13
q-5 -5 -9.5 -11t-8.5 -13q-4 -3 -6.5 -7t-5.5 -8l-17 -22.5l-18 -22.5q-5 -9 -10.5 -17.5l-11.5 -18.5q-3 -6 -5.5 -12.5t-4.5 -12.5q-3 -8 -6.5 -13.5t-5.5 -12.5q-5 -8 -10 -17t-10 -19l-27.5 -42.5t-27.5 -46.5q-4 -6 -7 -12.5t-8 -11.5q-3 -4 -6.5 -6t-6.5 -4
q-8 -6 -19 -13l-19 -12q-11 -4 -15 -10t-6 -13q-15 -7 -21 0t-5 13q0 4 5.5 11t7.5 11l10 15q3 8 4.5 11t3.5 6q2 4 3.5 6t1.5 6q5 6 8 12.5t7 13.5q8 8 14 19t15 20q2 6 5 10t7 8q6 12 13 23.5t9 27.5q4 16 10 24t11 17q2 7 4 13t7 11q6 10 10 18l9 18q5 14 15 28
q2 3 4 5.5t4 6.5q4 6 6.5 13t6.5 13q3 5 6.5 8.5t3.5 11.5q-9 2 -16 -2q-12 -1 -27.5 -3.5t-31.5 -2.5q-5 0 -11.5 -0.5t-12.5 -1.5q-5 -2 -10 -4.5t-10 2.5q-4 6 -5.5 6.5t-2.5 2.5q-5 10 -11 16q-2 3 -2.5 5.5t-4.5 4.5q-3 3 -6 11q10 13 27 13q44 10 87 14t85 10
q3 2 4.5 5.5t3.5 6.5q5 6 10.5 11.5t8.5 13.5q4 2 5 5t4 5q4 5 4.5 9t2.5 6q11 15 15 21.5t9 13.5t10 12.5l10 11.5l7 8.5t6 7.5q8 14 21 29q11 13 18 28q6 1 7.5 5.5t5.5 7.5q5 12 12 21.5t12 21.5q-5 1 -12 -2t-15 -3q-10 -2 -16 -4t-14 -4q-15 -2 -31.5 -9t-31.5 -11
q-38 -4 -72 -8t-69 -7l-16 -2t-16 -1q-16 0 -32 -3q-5 1 -9 0t-9 0q-12 4 -15 6t-8 2q-4 2 -6 4t-4 2q-7 9 -8 11.5t6 6.5q4 10 16.5 12t20.5 6q14 3 27.5 5.5l28.5 5.5q16 5 25 5.5t17 4.5q15 1 28.5 4.5t27.5 6.5q4 2 8.5 2.5t7.5 3.5q11 0 11 2q51 10 99 23t101 18
q11 1 21.5 -0.5t17.5 -4.5z" />
    <glyph glyph-name="G" unicode="G" horiz-adv-x="605" 
d="M757 765q11 -8 4.5 -20.5t-13.5 -24.5q-4 -5 -7 -10.5t-6 -7.5q-8 -15 -13.5 -21t-10.5 -13q-5 -8 -8.5 -15t-9.5 -14q-2 -6 -6 -11.5t-7 -11.5q-4 -8 -5.5 -9.5t-2.5 -3.5q-2 -3 -3.5 -7t-3.5 -7q-12 -17 -19 -26q-2 -3 -3 -6t-4 -5q-7 -14 -15 -26t-15 -26l-3.5 -9
l-3.5 -9l-3.5 -8.5l-3.5 -8.5t-6.5 -10t-4.5 -13q-11 -21 -20.5 -43.5t-20.5 -44.5q8 -2 15 0t14 3q14 2 27.5 3t28.5 5q10 -2 21 1q2 1 5 2t6 1q5 1 9 -0.5t9 -0.5q6 -1 9 0t5 -1q-2 -2 -4 -6t2 -5q-10 -9 -19.5 -10.5t-19.5 -3.5q-2 -5 -7.5 -8t-12.5 -6q-6 -2 -11.5 -3.5
t-11.5 1.5q-8 -2 -13 -2t-13 -2l-8 -2t-6 -2h-11q-16 0 -27 -5q-5 -3 -6.5 -8t-4.5 -10q-7 -31 -22 -60.5l-28 -56.5l-27 -55t-30 -50q-11 -22 -28.5 -35l-35.5 -27q-5 -6 -13 -10t-13 -10q-10 -1 -11.5 -2t-3.5 0q-8 3 -16 -1q-11 -4 -23.5 -7.5t-20.5 -8.5q-15 -2 -18 -4
t-6 -3q-7 1 -8 0t-3 -1q-6 -2 -14.5 -3.5t-13.5 -0.5l-6 2t-7 2q-9 3 -9.5 4t-2.5 1q-4 2 -9.5 1.5t-10.5 0.5q-8 2 -18.5 3.5t-20.5 3.5q-9 5 -16.5 10t-17.5 8q-9 7 -17 12.5t-16 13.5q-14 9 -24 24q-2 4 -4.5 8.5t-6.5 7.5q-3 8 -6.5 12.5t-5.5 12.5q-5 6 -6.5 15.5
t-8.5 14.5q-2 12 -1.5 26.5t1.5 28.5q0 5 -1 9.5t-1 9.5q0 9 1 20t11 13q17 21 26 39t29 23q15 8 34 13t41 7q11 -3 21 -0.5t21 3.5q6 0 12 1.5t11 3.5q5 7 6.5 16t6.5 16q2 10 6.5 18t6.5 16q2 6 5 12t6 14q19 30 34.5 65.5l30.5 70.5q2 4 4.5 8.5t1.5 8.5q0 2 -2 6.5
t-4 7.5q-5 9 -8 18t-4 19q-2 11 -1.5 20t0.5 19q2 22 6 43l25 16t26 14q10 0 15 -4q10 -1 13.5 -1t7.5 -2q13 -3 20.5 -13.5t12 -24t6 -28.5t2.5 -28q1 -8 6 -12.5t10 -8.5l18.5 6t21.5 5q7 1 12 3t10 0q41 11 79 24t68 35q14 11 29 20.5t27 22.5q8 8 15 16l15 17q3 9 5 12
q4 6 7 7.5t4 6.5q9 3 12 2q15 5 17 6q5 -5 5 -13zM505 539q-15 -8 -32.5 -15t-39.5 -7q-8 -2 -14 -1q-11 2 -23 5.5t-22 5.5q-3 8 -13 10t-18 5q-7 -14 -14 -26.5t-13 -26.5l-25.5 -61t-28.5 -58q-6 -11 -11 -22t-8 -22q17 2 34 5t35 5q36 -2 76.5 3t78.5 7q3 5 4.5 10
t5.5 9q6 9 6.5 12.5t2.5 6.5q5 8 9.5 16.5t9.5 16.5l7.5 17.5t8.5 18.5q5 9 10.5 17.5t10.5 17.5l11.5 21.5t11.5 20.5q5 14 12 18q0 5 2.5 6.5t2.5 6.5q3 2 4.5 5.5t3.5 5.5q1 4 4.5 6.5t3.5 5.5q-25 -11 -46 -24t-47 -21zM432 297q-15 -2 -30.5 -3t-26.5 -6l-49 -7t-43 -8
q-13 -4 -17 -3.5t-8 -0.5q-13 -2 -25.5 -6t-25.5 -6q-7 -8 -12 -18t-16 -15q-11 -17 -21.5 -35.5l-21.5 -37.5q-10 2 -15 1q-2 16 0.5 25t6.5 20q2 5 4 9.5t3 8.5q1 11 3 15t4 9q-11 -2 -23 -6t-21 -12q-8 -2 -12.5 -7.5t-9.5 -10.5q-3 -3 -5.5 -4.5t-2.5 -5.5
q2 -16 -0.5 -22l-5 -12t-4.5 -13t-1 -15q3 -23 13 -37t19 -28q3 -5 5 -9t5 -6q7 -2 8 -3t3 -2q14 -8 32 -13.5t36 -3.5q5 -2 18 -2q17 0 35.5 1t34.5 3l14.5 10t12.5 12q8 5 15 11.5t15 11.5q6 4 10 6q8 5 12.5 10t10.5 13l17 23t13 28q7 12 12 27q8 11 13 25t12 25
q5 16 9 25.5t8 20.5q3 4 6.5 9.5t3.5 11.5q-5 1 -10 0t-8 -3z" />
    <glyph glyph-name="H" unicode="H" horiz-adv-x="638" 
d="M739 736q9 -5 12 -13t4 -20q0 -8 -0.5 -14.5t1.5 -14.5q-3 -6 -8 -11.5t-7 -13.5q-9 -22 -21.5 -39t-24.5 -37q-11 -10 -17.5 -24.5t-12.5 -30.5q-20 -33 -38.5 -67t-35.5 -69l28.5 -6t26.5 -9q5 -8 7.5 -8.5t0.5 -3.5q2 -14 -2 -19t-12 -1q-7 -2 -11 0q-16 -4 -30 -6
t-32 -4l-12 -25l-12 -25q-30 -53 -54.5 -106.5t-45.5 -110.5q-2 -9 -4 -17t-6 -15q-2 -12 -6 -21q-2 -5 -3 -9.5t-3 -9.5q-3 -8 -8.5 -12t-8.5 -11q-6 6 -9.5 0.5t-5.5 -10.5q-11 -2 -15.5 5t-4.5 15q-4 5 -9.5 4.5t-10.5 4.5q-8 29 -15 47t-15 34q-2 8 -4 14.5l-4 13.5
q-2 5 -4.5 10t-4.5 10q-2 3 -2 6t-2 6q-5 11 -12 22l-13 21q-8 10 -10 15t-7 9q-6 12 -6 14.5t-2 4.5q-7 8 -10 12t-7 6q-5 3 -11 5t-11 5q-5 2 -10.5 4.5t-12.5 4.5q-9 -18 -15 -38t-18 -36q-6 -14 -13.5 -27.5t-13.5 -27.5q-5 -7 -7 -15.5t-6 -16.5q-3 -6 -7 -12l-8 -12
q-11 -18 -27.5 -31t-30.5 -29q-11 -9 -18.5 -11.5t-15.5 2.5q-3 4 -5.5 0.5t-4.5 -5.5q-7 0 -9.5 2.5l-6.5 6.5q2 9 6.5 16t8.5 15q5 2 6 8t5 9q3 14 7.5 25t12.5 21l4 10.5t5 11.5q3 5 7.5 9t6.5 9q7 22 14 34.5l14 25.5q7 21 16 39.5l19 37.5q-5 2 -5 9.5t-5 10.5
q-2 22 -15 32q5 7 5 13q2 2 5.5 4t8.5 4l7 3.5t8 2.5q8 1 15.5 1.5t15.5 2.5q7 11 11 23t12 21q1 3 3 6t1 6q8 10 14 22t14 23q7 16 16.5 29.5t17.5 30.5q9 11 15.5 29l11.5 33q2 5 2 8.5t2 7.5q2 5 6 11t7 12q4 7 7 13t5 14q-3 6 -9.5 2.5l-14.5 -7.5t-14.5 -8t-13.5 -9
q-44 -22 -77 -50q-5 -1 -10 -3t-12 -3q-7 5 -7.5 6l-1.5 3q3 3 10 6t7 8q-1 19 10.5 29.5l22.5 20.5q15 9 26 14.5t21 13.5q13 5 25.5 11.5t25.5 12.5q5 2 9.5 6t9.5 8q12 8 25.5 16l27.5 16q8 2 8.5 3t2.5 2q9 3 14.5 5.5t10.5 5.5q8 3 15.5 7t16.5 3q8 0 15 -7t-1 -14
q8 -8 8 -22t2 -28q0 -5 1 -9.5t0 -8.5q-1 -5 -3.5 -9.5t-2.5 -8.5q-4 -5 -6 -10.5t-6 -10.5q-2 -9 -7 -14t-8 -11q-9 -7 -14 -13q-4 0 -4.5 -3.5t-2.5 -5.5q-20 -5 -33.5 -22.5t-26.5 -36.5q-17 -11 -28 -24q-4 -5 -6.5 -11.5t-6.5 -12.5q-8 -13 -17 -29.5l-17 -30.5
q-2 -6 -5 -11t-5 -12q-5 -10 -8 -15t-5 -13q17 0 34 2l34 4q26 -2 48.5 5.5t46.5 8.5q4 2 7 1.5t7 0.5q22 1 44.5 1.5t46.5 -1.5q4 2 6.5 6t4.5 8q2 5 5.5 9t5.5 8q3 8 6 11t5 8q6 12 7.5 14.5t3.5 6.5l29 49q2 3 3.5 6.5t3.5 7.5t2.5 9t5.5 9q4 10 9.5 21l10.5 22l10 19.5
l10 19.5q2 5 4 9.5t4 9.5q8 11 13 22l8 12t8 13q5 13 11 23q2 4 4 7.5t3 5.5q2 3 1 6.5t0 6.5q2 3 5 6.5t5 6.5q2 2 5 5.5t8 0.5q3 3 6.5 5t7.5 4q5 -1 7 -3.5t6 -4.5q2 -5 3 -11t-4 -9zM442 317q-3 1 -6.5 0.5t-6.5 0.5q-7 0 -14 3q-21 1 -41.5 -2t-36.5 -1
q-27 -4 -54.5 -6.5t-53.5 -7.5q-6 -1 -11.5 -2.5t-10.5 -3.5q-2 -4 -3 -7.5t-3 -8.5q14 -16 32 -29q13 -16 26.5 -30l27.5 -28q8 -5 11 -15q6 -5 9.5 -12t8.5 -14q10 -1 13 -8t8 -13q8 -13 18.5 -26t16.5 -27q3 -2 4 -4.5t4 -4.5l17.5 58t18.5 49q1 7 5.5 14t3.5 15
q11 26 23 51t23 52q-8 1 -14.5 3t-14.5 4z" />
    <glyph glyph-name="I" unicode="I" horiz-adv-x="283" 
d="M498 729q-6 -13 -6.5 -18t-2.5 -10t-2.5 -7t-2.5 -6q-3 -5 -6 -5t-8 -5q-2 -3 -5 -6l-5 -5q-3 -5 -4 -9t-7 -6q-3 -1 -6.5 -0.5t-5.5 -1.5q-11 -4 -18 -5t-15 -2q-12 -5 -16 -5t-8 -1t-8.5 -2.5l-10.5 -3.5q-5 -17 -14 -29t-15 -29q-18 -29 -31.5 -54t-24.5 -48
q-5 -5 -8.5 -12l-7.5 -15q-5 -10 -6 -11t-2 -3q-2 -4 -4 -8.5t-4 -9.5q-6 -8 -8.5 -13.5t-4.5 -10.5l-6 -10t-6 -11l-17.5 -41.5t-12.5 -37.5l-4.5 -16t-5.5 -14l-39 -100t-38 -103q16 0 26 5.5t27 5.5q11 -15 2 -30q-8 -10 -9 -15t-3 -9q-6 -7 -7.5 -10t-4.5 -6
q-9 -8 -31 -11q-11 -2 -18.5 -5.5t-16.5 -5.5q-6 -1 -11 -2t-9 -2q-4 0 -7.5 0.5t-6.5 -1.5q-17 0 -28.5 -2t-22.5 -5q-8 -2 -15.5 -5t-16.5 -3q-3 0 -6 1.5t-7 1.5q-3 3 -6 7.5t-3 9.5t1.5 9.5t0.5 9.5q0 12 8.5 18.5t13.5 14.5q15 2 26.5 7t27.5 7q14 41 31 84l33 84
q3 8 6.5 15.5t6.5 15.5l10 25.5t11 25.5q6 7 9 17q2 5 2.5 8.5t2.5 8.5q4 8 9 16l10 16q7 10 14.5 19.5t14.5 19.5q7 20 15.5 38.5l16.5 37.5q2 13 8.5 28.5l11.5 26.5q6 11 10 23.5t11 23.5q2 7 5 12.5t5 12.5q4 6 6.5 13.5t5.5 15.5q-4 -2 -7.5 -2.5t-7.5 -1.5
q-3 -1 -7 -3t-9 -3q-16 -2 -28 0q-13 2 -17 18q-1 8 3.5 8.5t6.5 7.5q-1 23 6 34.5t18 13.5q5 2 9 2t8 4q10 3 20.5 3.5t21.5 2.5t21 3.5t19 1.5l20 5.5t22 1.5q7 0 13 -1.5t13 -1.5t13.5 -1t14.5 1q6 1 11.5 4t11.5 1l20.5 4t21.5 2q11 -1 11 0.5t3 0.5z" />
    <glyph glyph-name="J" unicode="J" horiz-adv-x="367" 
d="M-11 253q2 -8 1 -20.5t-2 -23.5q0 -13 -1 -18.5t-3 -10.5q-2 -10 -5 -21.5t-5 -23.5q0 -7 -0.5 -13.5t-0.5 -13.5q0 -8 -1 -18t3 -18q2 -5 8 -13.5t8 -15.5q8 -5 7.5 -6.5t0.5 -3.5q4 -8 11 -10q10 -6 24.5 -5t26.5 -2q18 3 32 11q4 2 8.5 4t7.5 6q3 5 5.5 12t5.5 14
t6 19t4 19q11 19 17.5 40t13.5 41q4 12 8 22.5t9 21.5l8 21.5t11 19.5q3 16 9 28l12 24q7 16 15 30q9 15 16.5 29t16.5 28q7 17 16.5 32.5t15.5 32.5q5 14 9 27t12 24q8 16 13 29.5t13 26.5q1 5 2.5 9l3.5 9q-8 -2 -15 -8t-17 -9q-8 -5 -17 -11.5t-15 -13.5q-3 -12 -6 -15
t-6 -7q-6 -1 -11 -2.5t-11 -2.5q-6 2 -7.5 6t-4.5 9q-5 9 -2.5 14l4.5 9q2 3 4.5 5t3.5 5q13 12 27 22t27 21l12 12.5t12 11.5l27 21q10 7 17.5 15.5t15.5 16t18.5 13t26.5 7.5q4 1 7 2t8 1q6 1 6 0t7 1q5 1 8.5 2.5l8.5 3.5t10 2.5t9 2.5q3 1 6.5 0t7.5 -2q6 -5 7.5 -12.5
t-0.5 -15t-5.5 -15t-6.5 -12.5q-3 -6 -7.5 -12t-9.5 -9l-16.5 -22t-16.5 -23q-8 -11 -14.5 -24t-14.5 -24q-8 -12 -15 -24l-14 -25q-8 -17 -18.5 -32.5t-18.5 -34.5q-5 -12 -8.5 -24t-8.5 -25q-2 -3 -3.5 -6.5t-3.5 -6.5q-2 -4 -2.5 -7t-3.5 -5q-7 -19 -15.5 -35.5
t-13.5 -36.5q-2 -2 -3 -5.5t-3 -5.5q1 -1 0 -9.5t-3 -12.5l-9.5 -17t-6.5 -13q-11 -21 -20 -44t-20 -46q-6 -10 -10.5 -20.5l-9.5 -22.5q0 -7 -3 -12t-5 -11q-4 -9 -5.5 -17t-6.5 -16q-3 -4 -6 -7.5t-5 -7.5t-2.5 -8.5t-2.5 -8.5q-2 -6 -7 -12t-10 -11t-7.5 -10t-7.5 -10
q-6 -3 -11 -6.5t-11 -5.5q-13 -7 -25 -10q-9 -2 -12.5 -3.5t-8.5 -1.5q-7 0 -11 1t-11 1q-8 -3 -16 -1l-16 4h-8.5t-8.5 1q-15 3 -28 13.5t-28 12.5q-23 15 -38.5 40t-26.5 56q-5 18 -2 37.5t4 39.5q2 13 3 24t4 22q2 7 4.5 13.5l4.5 11.5q4 6 9 11t9 12q6 4 16 3.5t20 1.5
q7 2 14 5.5t13 0.5z" />
    <glyph glyph-name="K" unicode="K" horiz-adv-x="529" 
d="M248 366q11 6 18.5 14t18.5 14q6 8 14.5 14.5t15.5 14.5q11 6 19.5 12.5t15.5 16.5q7 6 12.5 9t10.5 7q20 18 38.5 38.5t40.5 38.5q5 6 10.5 11.5l10.5 10.5l12 10.5l12 11.5q5 5 8 10.5t8 11.5q4 5 8 11t7 12l15.5 24t12.5 25q4 15 6.5 19t4.5 9q3 6 4.5 12.5t5.5 11.5
q4 4 11 5.5t12 -3.5q9 3 13.5 -0.5t7.5 -12.5q2 -5 1 -10t-1 -12q-2 -13 -1.5 -26t-3.5 -25q-1 -4 -2.5 -8t-3.5 -8q-4 -8 -6 -11t-3 -6.5t-3 -6.5q-2 -4 -6.5 -7.5t-8.5 -8.5q-14 -14 -26 -28.5t-23 -29.5q-10 -12 -12 -15.5t-5 -7.5q-3 -5 -7.5 -9t-8.5 -9q-2 -2 -3 -5
t-3 -5l-25 -26t-24 -27l-6 -10t-7 -10l-7 -4.5t-9 -7.5q-2 -2 -5 -3.5t-6 -3.5q-11 -7 -22.5 -13.5t-22.5 -13.5q-9 -7 -18.5 -13t-17.5 -12q-15 -11 -23.5 -23.5t-28.5 -17.5q-3 -14 1.5 -24t6.5 -18q2 -5 3.5 -11.5t3.5 -13.5q3 -9 5 -17.5t6 -18.5q2 -4 3 -8t3 -8
q2 -8 3.5 -15t3.5 -15q4 -16 12 -32q3 -11 9 -19.5t10 -16.5q5 -3 8.5 -8t7.5 -9q9 -9 14.5 -19t14.5 -18q7 -1 14 -1.5t14 2.5q4 2 7.5 5.5t7.5 5.5q4 4 8 6.5t6 5.5q20 11 33 25l27 29q7 5 12.5 10.5t11.5 10.5q15 4 21 7t12 4q7 2 13.5 2.5t11.5 -2.5q-2 -4 -1 -8.5
t-1 -8.5q-2 -7 -5.5 -12l-7.5 -11q-8 -8 -17 -15t-16 -15q-10 -7 -17.5 -14l-15.5 -14q-8 -8 -16.5 -14t-16.5 -14q-15 -14 -29.5 -30t-31.5 -28q-12 -13 -25 -13q-5 2 -10 3t-10 3q-15 11 -31 19.5t-25 26.5q-8 6 -13.5 15t-10.5 20l-6.5 6.5t-5.5 8.5q-4 2 -6.5 5.5
t-5.5 6.5q-9 18 -17.5 41.5l-14.5 40.5l-2 6t-2 8q-2 3 -3 5.5t-2 5.5q-3 6 -4.5 13.5t-3.5 15.5t-6 16t-7 16l-6 18t-8 17q-14 -19 -17 -31t-8 -23q-7 -11 -8 -15.5t-3 -9.5l-10 -16.5t-9 -18.5q-2 -5 -3.5 -9.5t-3.5 -9.5t-2.5 -10.5t-2.5 -10.5q-2 -3 -4 -5.5t-4 -5.5
q-5 -8 -8.5 -17.5l-7.5 -20.5q-2 -15 -2 -26.5t-2 -23.5q-7 -6 -9.5 -9t-5.5 -5q-4 -2 -7.5 -3t-8.5 -3q-9 -12 -13 -14t-8 -5q-3 -2 -6 -5t-6 -5q-11 -5 -25 -4t-25 6q-2 5 -2.5 6.5t-1.5 6.5q4 10 4 17q10 17 15.5 35t16.5 32q4 5 6.5 9t6.5 9q6 13 14 26.5t13 28.5
q9 12 13.5 28t10.5 30q8 17 14.5 36t17.5 33q5 11 11 22.5t11 22.5l4 14t5 14l6 12t7 13q6 10 9.5 21t8.5 22l29 64l29 64q9 25 19 48t18 47q-3 0 -6 -3.5t-5 -5.5q-5 -2 -9 -5l-9 -7q-13 -9 -29 -25q-5 -4 -11.5 -8.5l-12.5 -8.5q-17 -9 -30 -10q-7 9 -6.5 10.5t-0.5 3.5
q-3 6 -6.5 5.5t-4.5 6.5t-1 14t2 12q2 4 6.5 8.5t9.5 8.5q8 10 17 17q16 13 35 23q6 5 14.5 10l15.5 9q8 4 17 6t15 5q5 3 11.5 12.5t10.5 13.5q10 11 17 14t11 8q3 4 4.5 9.5t5.5 9.5q7 8 12.5 9.5t16.5 -3.5h14t8 -2q6 -4 13.5 -13t7.5 -20q0 -10 -3 -20t-5 -20l-24 -51
l-23 -52q-4 -8 -7 -16l-6 -16q-2 -5 -2 -10t-5 -8q-8 -10 -11 -17t-8 -12q-3 -7 -6 -13t-6 -13q-3 -9 -4 -17.5t-4 -19.5q-2 -9 -7.5 -18.5t-9.5 -19.5q-5 -9 -8.5 -18t-8.5 -18z" />
    <glyph glyph-name="L" unicode="L" horiz-adv-x="397" 
d="M87 56q17 5 32.5 13t34.5 13q25 3 50.5 3t47.5 6q24 4 43.5 6t36.5 -7q2 -8 0 -19.5t-5 -19.5q-3 -9 -5 -14t-7 -13q-5 -4 -10.5 -6t-10.5 -5q-9 2 -19 -2q-3 4 -13 2q-14 1 -25.5 -4t-24.5 -3q-8 -2 -17.5 -2.5t-20.5 -2.5t-20 -7t-20 -3q-11 -5 -23 -9.5l-25 -9.5
q-11 -6 -12.5 -6t-3.5 -1q-10 -5 -14.5 -6t-9.5 -3q-8 0 -14.5 2.5l-14.5 5.5q-5 3 -7 6.5t-6 9.5q-12 12 -17 25q-2 2 -5 4l-6 4q-5 17 0.5 29.5t10.5 25.5q6 15 10 31.5t14 27.5q3 9 11 21q6 10 9.5 21t9.5 21q3 5 6.5 9.5l6.5 8.5q1 5 3.5 7t3.5 7q10 9 15.5 22t14.5 23
q8 11 12.5 24t12.5 24q4 10 6.5 15l5.5 11q4 9 7.5 21t8.5 20q2 9 6 15t6 17q5 7 7.5 17t6.5 18q0 4 2.5 7.5t0.5 6.5q5 5 5.5 12t5.5 12q-1 7 5 15q1 5 3.5 8.5t3.5 6.5q9 17 11.5 24.5t5.5 13.5q2 2 4 4.5t3 6.5q2 5 4 11t4 11t3 9t3 7q7 10 6.5 11t0.5 2q2 5 4 9l4 8
l18.5 44t17.5 34q0 8 -2 16.5t2 15.5q8 4 15.5 9.5t16.5 7.5q4 1 7.5 -3.5t6.5 -6.5q9 -8 16.5 -19.5t11.5 -23.5q2 -8 1.5 -18.5t-3.5 -17.5q-3 -11 -8 -17q2 -13 -0.5 -22t-5.5 -17q-10 -10 -16 -24q-6 -7 -10 -15.5t-9 -16.5q-4 -8 -9 -16t-8 -18q-9 -11 -10.5 -16.5
t-6.5 -9.5q-12 -26 -21 -48.5t-20 -43.5q1 -5 -2 -7.5t-2 -7.5q-10 -18 -14.5 -41t-15.5 -41q-9 -29 -22.5 -52.5t-24.5 -50.5q-5 -2 -7 -12q-11 -17 -17.5 -38t-16.5 -39q-5 -15 -13 -31t-11 -32z" />
    <glyph glyph-name="M" unicode="M" horiz-adv-x="904" 
d="M15 -40q2 11 6.5 19t6.5 17q9 21 20 37q2 8 5.5 14t7.5 11q6 14 9.5 26.5t10.5 25.5l24.5 47.5l24.5 48.5q6 11 11.5 22.5t12.5 22.5l4 16t5 16q-1 6 1 9.5t4 7.5l3 12q3 11 8 19.5t8 18.5q3 2 5 6l4 8l16 43l16 44q5 13 9 19.5t6 16.5l20 45.5l21 45.5q7 17 14 30
q4 8 9 15.5t7 14.5q2 6 0 13q-11 -1 -19.5 -7t-19.5 -12q-5 -3 -11 -7q-4 -5 -5.5 -5.5t-3.5 -2.5q-9 -5 -18.5 -12.5t-19.5 -12.5l-19 -16.5l-19 -16.5q-4 -7 -13 -12q-5 -5 -9.5 -11t-9.5 -11q-1 -13 -6 -24.5l-10 -22.5q-2 -5 -3 -8t-2 -7q4 -2 7.5 1.5t7.5 2.5
q14 6 24 15t21 17q10 8 18.5 18.5t16.5 21.5q9 9 11 11.5t7 2.5q5 -5 5.5 -7t-0.5 -4q-10 -24 -19 -37.5t-17 -28.5q-11 -11 -16 -20.5t-12 -17.5l-10 -17.5t-13 -13.5q-18 -4 -27.5 0.5t-16.5 7.5q-4 2 -8 2.5t-8 3.5l-7 8.5t-1 6.5q-2 2 -4 8.5t-2 11.5q4 10 3.5 11.5
t0.5 3.5q1 3 2.5 6t2.5 6q2 4 2.5 8.5t2.5 9.5q3 9 11 20l4.5 11l4.5 11l5 12q2 8 2.5 8.5t1.5 2.5q4 12 6.5 16t2.5 9q25 37 62 63q14 11 29.5 22t31.5 21q8 8 19 15.5l22 14.5q8 4 15.5 9.5t16.5 7.5q7 2 13 -1q10 -6 13 -5.5t5 -0.5q6 -2 10 -9t6 -12q3 -6 6.5 -14
t5.5 -19q1 -5 1.5 -10t1.5 -10q0 -5 1 -10.5t1 -9.5q-1 -9 -6 -18l-9 -16q-7 -14 -12.5 -28.5t-13.5 -28.5q-6 -8 -6 -9.5t-1 -2.5q-4 -10 -6 -14.5t-4 -9.5l-10.5 -24.5t-10.5 -26.5q5 1 9 9q3 2 5.5 5.5t4.5 7.5q6 6 8 9q4 5 6.5 9.5t6.5 8.5q11 11 21.5 24l20.5 26
q13 12 23 28.5t18 33.5l11.5 10t10.5 12q16 13 27 26t23.5 23.5t27.5 16.5t34 4q5 -6 9 -13t10 -12q8 -20 13.5 -42.5t4.5 -51.5q-2 -8 -6.5 -16.5t-6.5 -18.5l-3.5 -9l-3.5 -9q-4 -12 -12.5 -27.5t-11.5 -29.5q-3 -3 -3.5 -7.5t-1.5 -9.5q-6 -13 -6 -20.5t-2 -14.5
q-5 -18 -9 -36l-8 -37q-2 -6 -3 -11l-2 -10q-2 -6 -3.5 -12.5t-3.5 -12.5q3 1 6 5.5t6 8.5l10.5 16l10.5 16l15 21.5t15 20.5q10 15 15.5 24t10.5 19q8 8 13 16t12 16q7 14 13 24t8 16l18 23t19 22q9 9 14.5 13.5l11.5 9.5q12 15 30 31q14 20 33.5 35.5t36.5 31.5
q11 4 17 10.5t12 1.5q10 8 18 5.5t11 -4.5q13 -12 15 -16q2 -3 3 -7t3 -7l6 -15q2 -4 4 -9l4 -10q4 -8 7.5 -19t2.5 -22q-1 -5 -2 -11t-3 -13l-5.5 -14.5t-4.5 -12.5q-2 -5 -2.5 -9t-2.5 -8q-6 -16 -16 -36.5t-15 -33.5q-1 -9 -7 -16q-2 -9 -5 -16t-6 -15q-2 -5 -2.5 -9.5
t-2.5 -9.5t-5 -10.5t-5 -10.5l-4 -15.5t-6 -14.5l-8 -21t-10 -18q-20 -33 -33 -71.5t-30 -73.5q-1 -6 -4 -12t-5 -12q-5 -6 -7.5 -16t-5.5 -19q-3 -10 1 -16.5t7 -8.5q5 -3 14.5 -2t14.5 3q6 2 14 4t14 4q8 3 13.5 6l11.5 6q5 4 13 6q3 3 6 4t5 3q12 10 22.5 22t23.5 22
q17 27 46 47q11 -6 14.5 -11t6.5 -10q1 -10 -3 -15.5t-7 -12.5q-16 -16 -31 -33.5t-31 -32.5l-10 -22.5t-15 -17.5q-17 -12 -29 -22t-26 -15q-25 -15 -52 -36q-10 -7 -25 -13q-7 4 -8 4.5t-2 1.5q-16 2 -23.5 12.5t-17.5 19.5q-13 13 -20 37l-7.5 25t-1.5 29q1 11 5 21t8 19
l37 79t33 79q3 5 3.5 8.5t1.5 6.5q4 10 9.5 20.5l10.5 19.5q3 14 8.5 25.5t10.5 24.5q6 9 9 21t10 21q5 17 12 38t9 40q1 8 0 15t0 16q1 12 3 26t0 29q-5 -4 -10 -7t-10 -7q-6 -5 -12.5 -9.5t-11.5 -9.5q-6 -6 -7 -6.5t-3 -2.5q-5 -9 -9 -11.5t-7 -6.5q-8 -13 -13.5 -18.5
t-10.5 -11.5q0 -2 -2.5 -9t-2.5 -9q-16 -27 -30 -41q-11 -17 -22.5 -32t-21.5 -32q-10 -16 -19.5 -25t-17.5 -21q-10 -10 -18 -22t-19 -22l-15.5 -21.5t-14.5 -22.5q-2 -5 -9 -17t-9 -17q-5 -9 -8 -19t-8 -18q-8 -14 -17 -27t-17 -27q-4 -9 -5.5 -17t-6.5 -11
q-5 -12 -11.5 -21.5t-11.5 -22.5q-3 -7 -9.5 -10t-12.5 0q-8 3 -13 12t-10 15q-2 8 -5.5 14t-3.5 14q-1 4 0.5 9t0.5 9q-3 12 0 19.5t5 13.5q4 11 7 13q2 7 3.5 13t3.5 13q2 5 4 9.5t4 9.5l3.5 9l3.5 9q1 4 1 6t2 6q2 9 5.5 17.5l7.5 18.5q3 8 6.5 16t7 17l7 17.5t6.5 13.5
l5 12t6 13q6 11 6.5 13.5t0.5 4.5q-4 7 0.5 18.5l9.5 23.5t7 25t6 25q5 17 12.5 39t9.5 43q0 8 1 15t-6 8l-4 10t-6 8q-10 0 -15.5 -6.5t-11.5 -12.5q-11 -15 -23.5 -27t-23.5 -28q-11 -11 -24 -27t-21 -27q-2 -7 -8 -11t-10 -9l-12 -14t-12 -16q-4 -5 -8.5 -10t-9.5 -10
q-3 -4 -6 -8.5t-7 -9.5q-9 -9 -12 -14t-8 -9l-14.5 -26l-15.5 -27q-4 -2 -6 -7t-5 -9q-2 -11 -6.5 -18t-7.5 -15q-15 -23 -25 -41.5l-20 -38.5l-6 -12t-3 -4q-3 -7 -6.5 -13t-6.5 -12q-2 -3 -2.5 -6t-3.5 -5q-11 -32 -26.5 -59.5t-27.5 -59.5q-2 -2 -3 -5.5t-3 -6.5
q-11 -11 -14.5 -9t-8.5 2q-4 0 -6.5 -3t-9.5 -3q-9 0 -11 -2t-8 -5q-8 -5 -10.5 -6t-4.5 1q-1 -3 -4 -3t-5 -4q-2 3 -5 2t-6 2z" />
    <glyph glyph-name="N" unicode="N" horiz-adv-x="608" 
d="M308 547q18 13 23 25t14 23q6 5 11 10.5t10 12.5l26.5 33.5l27.5 33.5q4 5 8 11t9 10t10.5 5t10.5 6q19 7 35 15t36 11q6 -4 9.5 -8.5t8.5 -8.5q9 -3 13.5 -11t8.5 -18q4 -8 6.5 -10.5t4.5 -6.5q4 -11 5.5 -23.5t6.5 -22.5q3 -2 4.5 -4.5t4.5 -4.5q4 -6 1.5 -13.5
t-0.5 -15.5q2 -4 3 -8.5t2 -7.5q1 -15 -0.5 -31t-2.5 -32q-1 -8 -0.5 -15t-0.5 -15q-2 -10 -4.5 -19t-4.5 -18q-2 -12 -4 -19l-3.5 -8.5t-2.5 -8.5q-19 -34 -39 -66t-34 -70q-5 -9 -6 -13.5t-5 -7.5q-2 -7 -4.5 -12.5t-6.5 -12.5q-8 -14 -15.5 -30t-15.5 -31l-9.5 -19.5
l-9.5 -20.5l-7.5 -17.5t-7.5 -19.5q-1 -3 -2.5 -8t-1.5 -7q0 -3 3 -6.5t5 -6.5l7.5 -9t8.5 -6q8 -1 15.5 1t14.5 0q4 2 7.5 3.5t7.5 2.5q22 12 41.5 26t40.5 27q11 9 22.5 17.5t22.5 17.5q7 3 16.5 9.5t15.5 -0.5q0 -6 1 -9t-1 -7q-1 -5 -3.5 -6.5t-4.5 -4.5
q-3 -5 -2.5 -11.5t-1.5 -13.5q-2 -6 -6 -9.5t-6 -8.5q-26 -22 -54 -42l-56 -40q-4 -2 -7.5 -4t-7.5 -4q-11 -6 -20.5 -12.5t-20.5 -10.5q-2 -3 -5 -3.5t-8 -2.5q-4 -1 -7.5 -3t-5.5 -1q-4 0 -7 2t-7 3q-11 4 -23.5 5.5t-20.5 7.5q-3 8 -1.5 14t-2.5 14l-8 15.5t-6 15.5
q-6 15 -6.5 26.5t0.5 21.5q1 11 4.5 20.5t7.5 17.5q5 8 8 16.5t8 17.5q5 13 7.5 21t5.5 16l7.5 15t5.5 16q12 21 21 43.5l18 44.5q3 8 7 15.5t7 15.5q5 11 7.5 23t7.5 23q2 3 3 6.5t3 8.5q8 17 15 37.5t17 36.5q5 14 10.5 27.5t7.5 32.5q1 8 0.5 16t-2.5 15q-6 14 -6.5 20
t-5.5 10q-2 7 -3.5 9.5t-2.5 6.5q-3 2 -5.5 3.5t-4.5 3.5q-17 -13 -31.5 -25.5t-31.5 -24.5l-29.5 -25t-22.5 -21q-7 -7 -9 -7q-17 -14 -30 -39l-27.5 -46t-24.5 -46q-14 -20 -24.5 -44l-21.5 -47l-7.5 -21t-9.5 -18q-4 -7 -9 -14.5l-10 -14.5q-7 -9 -14.5 -17.5
t-13.5 -18.5q-4 -6 -6.5 -12.5l-4.5 -11.5q-2 -6 -4.5 -12.5t-5.5 -12.5q-2 -8 -5 -11q-5 -13 -11 -25t-11 -24q-1 -6 -4 -15l-6.5 -19t-7 -18.5t-4.5 -14.5q-5 -3 -9.5 -6.5t-9.5 -4.5q-5 -6 -11.5 -6.5t-13.5 -3.5q-4 -2 -7.5 -5t-8.5 -6t-11 -4t-11 -6q-3 -2 -4.5 -5
t-3.5 -5q-8 2 -12 -1.5t-11 -0.5q-5 2 -6.5 8t-2.5 13q4 10 5.5 12.5t3.5 4.5q2 3 2.5 6t2.5 5q2 5 5 10l6 10q1 2 4.5 8.5l7.5 14t7 14t5 8.5l5.5 9.5l5.5 9.5q2 5 5.5 9.5t6.5 9.5q4 8 5 8t2 2q2 3 2.5 6.5t2.5 5.5q5 10 11 19.5l11 17.5q4 5 6.5 10t5.5 12
q5 11 11.5 21.5t11.5 21.5l10 23t11 24q5 11 11 21.5t10 23.5q8 14 14 25.5l12 22.5q4 8 7 15.5t7 15.5q3 5 5.5 11.5t6.5 11.5q2 5 3.5 10.5t5.5 8.5q0 5 2 7.5t4 4.5q5 19 9 38.5t9 39.5q-1 5 0.5 10.5t2.5 12.5q1 13 2 23t2 22q1 5 1.5 10t-0.5 9q-1 8 -6.5 15t-9.5 13
q-10 -1 -17 -7t-15 -11q-11 -8 -14 -11q-3 -2 -5.5 -5t-4.5 -5q-10 -7 -13 -13.5t-7 -11.5q-2 -2 -4 -5t-4 -5q-5 -5 -9.5 -11t-9.5 -12q0 -8 -4 -16t-4 -18q-1 -5 -0.5 -13t1.5 -14q0 -4 1.5 -8.5t3.5 -9.5q2 -8 3.5 -12.5t6.5 -6.5q5 2 8 5l6 6l2.5 5t3.5 5t3.5 5.5
t3.5 5.5q5 8 9.5 16t6.5 22q-3 19 5 36q-1 2 -0.5 5.5t0.5 6.5q12 -1 16 -11q2 -11 1.5 -26.5t-1.5 -30.5q-1 -11 -2 -19t-5 -15l-11 -21.5t-14 -19.5q-6 -2 -11 -6.5t-10 -7.5q-12 -8 -14.5 -10t-7.5 -4q-10 4 -13.5 8.5t-8.5 6.5l-11 18.5t-10 19.5q-2 4 -3 9.5t-3 10.5
l-6.5 28.5t-1.5 32.5q0 6 2 13l4 14q10 16 18 34l16 35q8 19 18 34t17 34q5 7 7 7.5t1 4.5q14 4 22.5 14t24.5 12q5 1 9.5 1t10.5 2q14 5 28 8q21 -3 32 -8q11 -13 13.5 -17t6.5 -11q2 -3 4 -7t3 -7q4 -14 6 -29.5t0 -31.5q-2 -6 -3 -11.5l-2 -11.5q-3 -19 -9 -39.5
t-8 -38.5z" />
    <glyph glyph-name="O" unicode="O" 
d="M510 659q5 -26 12 -47t9 -46q0 -6 -0.5 -12t0.5 -12v-12q0 -8 -1.5 -15t-1.5 -15q-1 -18 -6 -35q-1 -11 -2 -10.5t-1 -1.5q-2 -11 -3 -21t-3 -21l41.5 -4.5t44.5 -0.5q5 1 9.5 3t9.5 4q17 2 27 8t24 10q-4 -11 -10 -13q-3 -10 -5.5 -13.5t-5.5 -5.5q-5 -4 -9 -6.5
t-9 -6.5q-16 -9 -25.5 -9.5t-17.5 -3.5q-7 1 -16.5 2t-16.5 0q-5 3 -11 3t-12 -2q-12 -4 -16 -5.5t-8 -3.5q-2 -6 -2.5 -9t-1.5 -5q-1 -11 -1.5 -21.5t-3.5 -21.5q-4 -9 -4 -11.5t-2 -6.5q-3 -5 -5 -12l-4 -14q-5 -5 -6 -12t-2 -15t-5 -15.5l-8 -14.5q-2 -5 -4 -9.5t-5 -9.5
q-12 -15 -23 -32q-5 -11 -10.5 -19.5t-10.5 -18.5q-8 -14 -20 -24.5l-24 -21.5q-6 -5 -12 -11l-11 -11l-10.5 -10.5l-10.5 -10.5l-14.5 -10.5t-15.5 -10.5l-31.5 -17t-32.5 -18l-15 -9.5t-15 -7.5q-6 -2 -12.5 -2.5t-12.5 -1.5q-8 -2 -15 -3.5t-16 -1.5q-11 1 -24.5 4.5
t-20.5 8.5q-13 12 -15.5 17t-7.5 10q-1 4 -2.5 5.5t-1.5 5.5q-7 10 -11 20q-9 19 -12.5 33.5t-1.5 30.5q-2 16 -2 36.5v39.5q0 7 -0.5 13.5t1.5 11.5q-1 8 -1.5 15.5t1.5 13.5l1.5 15t2.5 10q5 5 4.5 10t1.5 10q4 27 13 48l6 15.5t5 15.5q6 17 13.5 31t14.5 30
q14 29 29.5 53.5l31.5 50.5q5 3 7 8.5t6 8.5q8 17 19 29l22 24q5 4 9 8.5t9 9.5q3 3 6.5 5.5t5.5 6.5q4 2 7.5 5t6.5 6l8 6l8 6q8 6 14.5 12.5t14.5 11.5q8 1 10 1t2 3q12 10 15.5 14.5t6.5 9.5q8 5 14 11.5t14 11.5q6 7 8.5 9t5.5 4q2 3 4.5 4.5t3.5 3.5q5 2 9 4.5t10 4.5
q7 -1 11.5 0t8.5 0q6 -1 9.5 -4.5t8.5 -7.5q12 -2 18.5 -12.5t14.5 -15.5q5 -8 11.5 -15.5t11.5 -16.5h4zM432 468q5 -7 12 -12.5l14 -10.5q0 26 2.5 56.5t0.5 56.5q-3 11 -6.5 21t-5.5 22q-4 4 -5.5 8t-3.5 8q-5 6 -5 7.5t-2 3.5t-4.5 4t-4.5 5q-12 1 -19.5 -4.5
l-14.5 -10.5q-2 -14 -1 -26t3 -23l6 -38t10 -33q1 -7 8 -16.5t16 -17.5zM298 555q-5 -5 -10 -9t-9 -10q-6 -5 -10 -10t-9 -10t-9 -9.5t-8 -10.5q-3 -2 -5 -5t-5 -6l-14 -18t-6 -10q-6 -4 -9.5 -10.5t-6.5 -13.5q-6 -8 -11 -17t-9 -18q-8 -14 -9.5 -19t-3.5 -10q-4 -6 -7 -16
q-17 -36 -30 -82q-2 -9 -5.5 -17t-4.5 -16q-1 -4 -0.5 -8t0.5 -8l-2 -19.5t-1 -20.5v-37t2 -35q0 -13 2 -21q2 -4 7 -8l9 -7l16 -16.5t22 -3.5q5 -3 11 0t12 1q5 2 10 2.5t10 2.5q8 2 15.5 4.5t14.5 4.5q8 3 16 5.5t15 6.5q20 17 29 27q7 7 14 12.5t13 11.5l10 10.5t9 13.5
q3 3 5.5 6.5t4.5 7.5q5 6 7.5 13t7.5 14q6 17 14 32t13 31l15.5 33.5t9.5 29.5q3 3 3.5 7.5t2.5 7.5q5 14 8.5 27l7.5 29q-4 2 -7 1.5t-6 1.5q-8 3 -14.5 10.5t-14.5 8.5l-6.5 5t-6.5 4q-16 17 -30.5 35.5t-23.5 41.5q-9 20 -14 37.5t-9 37.5q-6 -6 -10.5 -11z" />
    <glyph glyph-name="P" unicode="P" horiz-adv-x="469" 
d="M90 79q-5 -8 -7 -18t-7 -18q-4 -8 -9 -15t-7 -17q-1 -7 0.5 -16t-0.5 -15q-1 -4 -4 -7.5t0 -8.5q-18 -8 -32 -6t-24 9q-5 -1 -8.5 1t-7.5 5q-5 2 -4.5 7t-1.5 9q-5 15 -7.5 20.5t-1.5 12.5q2 13 9.5 21.5t12.5 18.5q6 15 11.5 26t12.5 21q1 4 3.5 7t4.5 6q2 5 4 8.5
t4 7.5q3 5 5.5 11t5.5 11q2 5 5 10l6 10l2 6t4 5q0 6 2 8.5t2 9.5q5 6 9 12.5t9 12.5l17 27.5t11 20.5q0 5 2 8.5t4 7.5q2 3 3 7t4 6q7 20 12 32l10 23q3 7 5.5 9.5t3.5 4.5q6 15 10 22.5t6 15.5q5 11 11 20t9 23q4 3 5.5 7.5t5.5 7.5q2 6 5 12l6 12q3 4 5 8t4 9
q7 13 15 24.5t14 23.5q6 15 8.5 19t3.5 9q-13 -4 -27 -9.5t-32 -3.5q-11 2 -14.5 0t-7.5 -2q-5 -1 -8.5 -1t-7.5 -2q-17 -6 -23.5 -9t-13.5 1q1 8 2 17t6 15q24 20 52.5 34.5t59.5 28.5l20 5.5t17 6.5q8 17 17 32t21 27q10 6 9 5t4 -1q4 -2 5.5 -4.5t3.5 -7.5q3 -4 4.5 -8
t6.5 -5q3 -1 6.5 0.5t7.5 2.5q10 1 15.5 3t10.5 1q5 2 11.5 2.5t11.5 2.5q7 1 12.5 3t13.5 3q26 2 55 -5q4 -2 8.5 -4.5t9.5 -4.5q8 -4 14.5 -6t11.5 -7q10 -10 16 -20q4 -1 7 -4t6 -5q6 -11 12 -20.5t8 -22.5q2 -17 -1.5 -34.5t-6.5 -34.5q-1 -5 -2 -9.5t-2 -8.5
q-1 -3 -0.5 -6.5t0.5 -7.5q-1 -12 -4.5 -23t-6.5 -22q-8 -29 -16.5 -55t-29.5 -42q-5 -8 -11 -14l-13 -13q-13 -16 -34 -25q-30 -22 -61 -39l-24 -16t-26 -14q-7 -6 -15.5 -10.5l-17.5 -9.5l-42.5 -21t-42.5 -17q-18 -4 -34 -5.5t-30 2.5q-3 1 -8.5 3.5t-7.5 2.5
q-5 -2 -8 -12.5t-5 -15.5q-6 -14 -14 -27.5t-15 -27.5l-12 -25zM228 294q8 6 20 5t21 1t10.5 1.5t3.5 -0.5q3 0 8 1t7 2q12 4 23 11t22 11q5 5 11 8.5t13 8.5l10 10t12 7q5 8 6 8.5t1 1.5q10 7 16.5 16.5l13.5 20.5l14 18.5t12 20.5l11 14.5t10 14.5q2 2 2 5t2 6q5 12 8 16
q3 10 7 14q2 4 4 7t4 7q2 5 4.5 8.5t4.5 7.5q2 2 2.5 5t2.5 6q1 3 2.5 5.5t2.5 4.5q3 8 1 17t-2 15q-4 15 -5 24t-6 14q-2 2 -5 2.5t-5 2.5q-10 4 -13.5 3.5t-8.5 1.5q-7 -3 -16.5 -1.5t-20.5 0.5q-6 0 -12 -2.5t-11 -0.5q-4 -2 -7 -3t-7 -1q-5 -1 -9 -1t-8 -1
q-13 -2 -24.5 -7t-24.5 -9q0 -8 -2 -14t-2 -13q-6 -17 -14 -33t-13 -33q-11 -20 -20 -41.5t-20 -42.5q-6 -13 -14 -26t-10 -30q-5 -11 -7.5 -21t-6.5 -19q-2 -5 -4 -9t-4 -9q-2 -3 -3 -6.5t-3 -8.5q-5 -9 -6.5 -15t-3.5 -12q5 1 11.5 4t14.5 2z" />
    <glyph glyph-name="Q" unicode="Q" horiz-adv-x="547" 
d="M420 -17q7 0 9.5 -3.5l5 -7t6 -5.5t8.5 -1q7 -7 9.5 -11t10.5 -5t17 -4t17 -4q11 -1 20 0t21 0q8 -1 20.5 -2t13.5 -9q-3 -4 -5 -13q-5 -4 -8 -8.5t-9 -6.5q-10 -10 -12.5 -12t-6.5 -4q-10 -5 -12 -4.5t-4 -0.5q-7 -1 -14 -3.5t-12 -3.5q-8 -1 -14 -1t-11 -2
q-8 1 -17 0.5t-17 -1.5q-18 -2 -32.5 5t-26.5 15l-12 16t-13 15q-6 16 -14 21q-5 9 -7.5 15t-7.5 10l-14 29.5t-16 21.5q-8 -4 -10 -7q-17 -5 -28 -16q-11 -3 -20.5 -9t-20.5 -10q-11 -8 -23.5 -10.5t-25.5 -0.5t-25 7t-20 11q-8 15 -27 20q-5 7 -7 17t-7 17q0 10 -3 15
q-2 15 -5 19t-5 9q-3 4 -5.5 9t-4.5 10q-5 8 -7.5 9.5t-0.5 4.5q-10 35 -6 87l4 17.5t3 9.5q9 39 20.5 76.5t24.5 71.5l9.5 25.5t10.5 23.5q3 5 6 11t6 11l5.5 11t6.5 10q8 15 17 26q1 4 3.5 6.5t3.5 5.5q2 4 2.5 7.5t2.5 7.5q3 7 7.5 13.5t6.5 14.5q7 6 12 11t9 13
q22 31 48 54.5t55 41.5q9 2 16 7.5t12 11.5q5 1 11 7q15 10 27 14q4 2 7.5 4t6.5 5q20 11 43.5 18.5t46.5 9.5h11q8 -4 9.5 -3.5t3.5 -0.5q4 -1 6.5 -4t7.5 -3q26 -31 36 -65t16 -71q-1 -24 1 -50t-1 -51q-1 -9 -2.5 -16.5t-2.5 -15.5q-2 -8 -3.5 -16t-6.5 -16
q-3 -14 -8.5 -26.5t-12.5 -25.5q-2 -3 -2.5 -6t-2.5 -7q-1 -3 -2.5 -6t-3.5 -6q-7 -16 -13 -25.5t-10 -21.5l-19 -34t-15 -31l-6 -13.5t-5 -13.5q-4 -7 -6.5 -13.5t-6.5 -11.5q-7 -11 -8 -14.5t-3 -7.5q-6 -8 -8 -12t-4 -8.5t-4 -8.5q-6 -6 -10.5 -14l-9 -16.5t-10 -15.5
t-13.5 -10q-2 -4 -5.5 -6t-3.5 -7q0 -4 4 -8t6 -7l5.5 -7.5t5.5 -5.5q7 -9 13.5 -18.5t14.5 -17.5q2 -7 5.5 -13zM335 153q6 7 8 10.5t5 6.5l9 13t8 15q2 5 5 9.5t5 9.5q3 6 5 13.5t5 14.5q8 14 11 22t8 16q0 3 1.5 5.5t3.5 6.5q5 9 8.5 19.5t8.5 18.5l7 14.5l6 12.5
q1 8 6 13q5 15 12 30t12 30q2 6 3.5 12.5t3.5 11.5q2 6 4.5 11.5t4.5 11.5q6 17 9 33.5t7 35.5q4 17 6 34t-3 33q-2 7 -4.5 12.5t-4.5 10.5q-10 13 -19.5 14t-17.5 1q-5 2 -11 2t-12 1q-5 2 -10.5 3t-10.5 3q-10 -2 -14.5 -5.5t-10.5 -5.5q-4 -5 -9 -8t-10 -7q-6 -3 -11 -8
t-11 -6l-41.5 -36l-42.5 -35q-5 -8 -12 -14t-9 -19q-5 -5 -8.5 -12.5t-8.5 -12.5q-6 -14 -14 -25.5t-14 -25.5q-3 -7 -5.5 -8t-2.5 -5q-2 -2 -3.5 -4.5t-3.5 -4.5l-11.5 -27.5t-9.5 -28.5q-4 -14 -6.5 -28l-5.5 -30q-2 -8 -5 -16t-5 -17q-2 -11 -2.5 -22.5t-2.5 -25.5
q-1 -13 -3 -27t-1 -25q0 -7 2.5 -13t1.5 -14q3 -3 4.5 -8t4.5 -9l27 6.5t28 5.5q9 0 13 3q10 2 14.5 1.5t10.5 -0.5q7 0 13 0.5t13 -0.5q7 -2 14.5 -4.5t11.5 -4.5q11 -6 13.5 -7t5.5 -3q8 6 13.5 13.5t13.5 12.5zM230 72q-11 -2 -21.5 -6t-22.5 -6q-4 -3 -10 -4.5t-8 -5.5
q9 -2 14.5 -6t14.5 -6q13 4 22.5 9t20.5 8q5 6 11.5 9.5t8.5 11.5q-8 -1 -15 -2.5t-15 -1.5z" />
    <glyph glyph-name="R" unicode="R" horiz-adv-x="552" 
d="M288 280q6 -12 13.5 -22.5t10.5 -25.5q4 -5 4 -11t2 -12q7 -25 17.5 -48.5l20.5 -44.5q2 -17 10.5 -27.5t10.5 -27.5q8 -19 18 -36l20 -34l10 -6t11 -7q4 -2 7 -4.5t8 -4.5t9.5 -3t9.5 -3q4 -2 6.5 -5t5.5 -5q4 -1 8 -2.5t8 -0.5q17 -8 29 -11t23 -7q5 -2 12.5 -4
t12.5 -2q8 -4 10.5 -8.5t6 -10t9.5 -10t16 -5.5q3 -2 4.5 -5.5t5.5 -6.5q10 -8 8.5 -10t-2.5 -5l-14 -2t-10 -6q-6 0 -13.5 -0.5t-12.5 3.5q-17 -1 -31 2t-34 5q-11 0 -21 -1t-18 2q-22 9 -35 16l-27 15q-11 5 -20 12t-20 12l-27 31t-24 33q-4 7 -6.5 11t-4.5 8q-4 9 -7 11
t-5 6q-3 5 -5 12l-4 14l-4 17.5t-5 16.5q-2 6 -5.5 10.5t-4.5 11.5q-4 11 -7.5 22.5t-5.5 24.5q-3 19 -7.5 29.5t-6.5 20.5q-6 15 -17 35l-19 35q-2 5 -2.5 8t-3.5 5q-5 -5 -9 -17t-8 -18q-11 -18 -14 -28.5t-9 -20.5q-3 -20 -11 -35q-2 -14 -10 -21q-5 -18 -12 -36t-13 -35
q-2 -9 -5 -17t-2 -16q0 -8 -2.5 -14t-4.5 -14q-5 -14 -21.5 -17t-31.5 -7q-6 -2 -14 -4q-12 -3 -25.5 -10.5t-27.5 -5.5q-9 2 -6.5 10.5t7.5 12.5l10.5 22t11.5 21q2 9 7 14q6 4 8 11q2 2 3.5 5l2.5 5q2 5 2.5 10.5t2.5 10.5q3 8 5.5 16.5t7.5 18.5q2 6 4.5 12t5.5 14
q2 6 6 11.5t7 11.5q6 14 9 22.5t8 16.5q8 21 18.5 38.5t20.5 37.5q2 3 4 5.5t3 6.5q4 2 6 7t6 7q4 6 6 12t6 10q11 20 19 40q2 5 2.5 9t2.5 8q6 7 7.5 11t3.5 7q4 7 8.5 13.5t8.5 14.5q5 15 13.5 27.5t13.5 26.5q6 9 7 10t1 3l23.5 46.5l21.5 44.5q-11 -2 -19.5 -10
t-17.5 -11q-2 -3 -4 -5l-4 -4q-25 -12 -46 -27t-37 -37q-5 -2 -10.5 -5.5l-10.5 -6.5q-7 -3 -18 -4t-17 7q-4 29 5 43t17 28q13 12 28 21.5l29 18.5q13 9 16.5 12t7.5 5l50 35q16 14 35 21q19 6 32 9.5t24 8.5q32 6 59 15.5l55 19.5q14 2 26.5 2.5t27.5 1.5q4 -3 11.5 -2.5
t13.5 -0.5q8 -2 15.5 -3.5t15.5 -3.5q6 -6 17.5 -8.5t21.5 -6.5l15 -7.5l15 -7.5q7 -8 6.5 -14t0.5 -17q1 -5 1.5 -9.5t1.5 -9.5q0 -4 1.5 -7t1.5 -6q1 -17 2.5 -33.5t-0.5 -33.5q-2 -12 -7 -20.5t-10 -19.5q-6 -10 -13 -20l-15 -21q-3 -2 -5.5 -3.5t-3.5 -5.5
q-13 -10 -24 -16t-19 -12l-8 -4l-8 -4q-4 -4 -10 -8t-11 -8q-8 -8 -14 -11t-8 -10q-23 -13 -41 -29.5t-39 -30.5l-15.5 -14t-17.5 -12q-14 -6 -20.5 -11t-17.5 -7q-13 -8 -29.5 -13t-33.5 -7zM511 670q-4 -1 -10 -1t-13 -2q-10 -2 -22 -7t-24 -7q-16 -4 -25.5 -7t-13.5 -5
q-2 -2 -2.5 -7t-2.5 -8q-4 -10 -10 -18.5t-9 -16.5q-11 -13 -16 -25.5t-10 -23.5q-13 -17 -20 -30q-5 -6 -6 -6.5t-1 -2.5q-12 -12 -19.5 -27t-18.5 -26q-8 -12 -11.5 -21t-11.5 -16l-7.5 -15.5l-7.5 -15.5q-9 -20 -22 -39q0 -5 -2.5 -8t-4.5 -7q4 -3 8 -1t7 4
q23 13 50 22.5t49 24.5l35 20.5t31 20.5l23 12.5t19 8.5q8 7 17 12t14 12q11 9 20 20.5t19 21.5q5 1 6 3.5t6 2.5q8 11 19.5 19.5t17.5 19.5q5 8 7.5 16t7.5 18q-2 8 3.5 16.5t3.5 15.5t-8 12.5t-9 11.5q-2 8 -4.5 12t-4.5 10q-4 2 -7 4t-10 1q-5 2 -13.5 1.5t-16.5 0.5z
" />
    <glyph glyph-name="S" unicode="S" horiz-adv-x="481" 
d="M198 596q5 8 6 14.5t6 14.5q20 11 36 26.5t37 25.5q14 10 22.5 13.5t16.5 9.5l17.5 8t19.5 7q8 2 14 5.5t12 5.5q14 5 28 9l27 8l12 5t13 2q11 -2 13.5 -1t4.5 1q8 1 13.5 -2t12.5 -5q6 -2 11.5 -3t10.5 -3t8.5 -5.5l6.5 -6.5q4 -2 7.5 -5t7.5 -6q8 -17 18 -34t10 -41
q-6 -9 -7 -9t-2 -2q-11 -7 -16 -12.5t-11 -11.5l-14 -14q-3 -2 -7 -3.5t-5 -6.5q-8 -4 -13 -10t-13 -9q-9 -11 -22 -17.5t-24 -14.5q-11 -7 -14.5 -9t-6.5 -5q-11 -5 -19.5 -10t-19.5 -9q-5 -2 -9.5 -5t-11.5 -2q-5 2 -10 4.5t-9 -4.5q-13 -2 -24.5 4.5t-12.5 18.5
q-12 10 -7 27q2 8 7.5 16t9.5 15q5 9 9 17.5t9 16.5q14 15 28.5 28t36.5 18l14 4t13 4q3 -2 6 0t6 0q4 -3 3 -7t-1 -9q-3 -4 -8 -5.5t-9.5 -3t-8.5 -4t-5 -8.5q-28 -24 -50 -60q3 -2 8 -5t10 -4q8 -2 18.5 4t16.5 9q28 13 50 35q6 5 12.5 11t9.5 12q4 5 7 10t8 8
q1 9 -2.5 14.5t-8 11t-9.5 10.5t-7 12q-5 2 -8.5 7t-8.5 7q-2 0 -8.5 1t-7.5 1q-25 -5 -39 -11l-28 -12q-34 -18 -63 -42q-3 -2 -7 -4t-6 -4q-5 -4 -8.5 -10t-8.5 -12q-5 -7 -10.5 -13.5t-7.5 -14.5q-6 -3 -8 -11.5t-7 -13.5q-2 -8 -5 -14.5t-5 -15.5q9 -18 13.5 -28
t9.5 -20q1 -11 6.5 -19.5t10.5 -19.5q14 -23 25.5 -48.5t25.5 -48.5l11.5 -27.5t16.5 -23.5q2 -7 5.5 -13.5t6.5 -13.5q4 -12 11 -26q3 -8 7 -14t6 -12q4 -9 6.5 -22.5t1.5 -22.5q0 -10 -1 -14t-3 -6.5t-4 -5.5t-4 -12q-9 -16 -21 -29t-21 -30q-6 -8 -13 -14l-14 -12
q-7 -5 -14.5 -9t-13.5 -10q-17 -15 -35.5 -21.5t-34.5 -17.5q-6 0 -12 -1.5t-12 -3.5l-10.5 -4l-11.5 -4q-5 -2 -8.5 -4t-8.5 -4q-14 -3 -30 -3.5t-33 3.5q-19 7 -29.5 6t-18.5 8q-5 2 -5.5 5t-4.5 6q-11 9 -14 11t-6 5q-15 12 -24 28l-6 10t-4 9q-2 6 -0.5 12.5t-2.5 12.5
q1 7 0 15t-1 14q0 9 2.5 18t-0.5 14q2 13 6 19.5t10 14.5q17 8 28.5 14.5t23.5 12.5q5 2 8.5 4t7.5 4q9 5 19 8t21 8q9 5 18.5 9t18.5 9q6 0 11.5 3t12.5 3q2 0 5 -0.5t6 -0.5h11t11 -2t9 -6t11 -4q7 -7 11.5 -15.5t7.5 -17.5q2 -5 3.5 -14t1.5 -15q-1 -15 -10.5 -23
t-17.5 -19q-14 -5 -31 -17q-10 1 -18 -3.5t-19 -7.5q-5 -1 -11 0t-11 -1q-5 -1 -10 -4t-10 -1t-7.5 8t-0.5 12q6 10 17.5 12.5t22.5 8.5q10 5 17.5 13l15.5 16q5 6 12 12t3 16q-9 7 -20.5 4t-20.5 -7q-18 -8 -35.5 -17l-34.5 -17q-8 -3 -12 -7q-2 -3 -3 -8t-3 -9
q-7 -15 -4 -30q2 -5 5 -9.5t3 -9.5q4 -4 7 -7.5t6 -7.5q3 -2 5 -2.5l6 -1.5q10 -6 24 -11l18.5 -6t17.5 -4q5 -1 13 2t14 5l47 23l47 23q8 5 15 11.5t12 14.5q9 11 15 27t9 33q1 4 1 7.5v6.5q-6 11 -5.5 13.5t-1.5 4.5q-7 12 -8.5 16.5t-3.5 8.5q-7 11 -17 19t-13 24
q-6 5 -8.5 13t-10.5 10l-3.5 8.5t-3.5 9.5q-6 7 -9 15q-6 5 -10 11l-9 13q-8 8 -11 12q-4 5 -6.5 11t-7.5 11q-3 5 -7.5 9t-6.5 10q-8 9 -13 20.5t-8 25.5q2 12 -4 21t-3 23q5 14 11 28t10 26q5 2 6 7.5t3 10.5z" />
    <glyph glyph-name="T" unicode="T" horiz-adv-x="387" 
d="M645 744q5 -8 3 -19q-1 -5 -6.5 -11.5t-8.5 -11.5q-10 -8 -12.5 -12.5t-7.5 -6.5q-17 -7 -28 -7t-28 1q-12 0 -17.5 -1t-17.5 -4q-4 -1 -6 -2t-7 -2q-5 -2 -9.5 -2t-7.5 -3q-5 1 -6 0t-6 -3q-7 -1 -9.5 -2t-6.5 -3q-3 2 -8 0.5t-10 -2.5q-8 -2 -13.5 -3t-10.5 -4
q-1 -3 -3 -5.5t-1 -5.5q-6 -7 -10 -16t-11 -15l-6 -10.5t-8 -9.5q-2 -8 -6.5 -13.5t-8.5 -11.5q-9 -15 -17 -38.5t-17 -38.5q-4 -13 -11 -22.5t-12 -20.5q-8 -34 -22 -63t-27 -60q-5 -11 -6.5 -12.5t-1.5 -4.5q-5 -5 -7.5 -12.5t-5.5 -14.5q-1 -3 -7 -9q-2 -5 -4 -11t-4 -11
q-3 -4 -3 -8t-2 -6q-6 -11 -6 -14t-1 -6q-8 -16 -10 -24.5t-7 -15.5q0 -5 -2 -9l-4 -8q2 -8 -3 -17.5l-9 -17.5q-7 -17 -11 -22.5t-6 -11.5q-5 -12 -8.5 -16.5t-6.5 -9.5l-9.5 -21t-10.5 -19v-8.5t-1 -8.5q-2 -5 -6.5 -10.5t-7.5 -6.5q-10 0 -14 -1.5t-8 -1.5q-5 2 -10 6
t-9 8q-11 13 -20 21.5t-10 22.5q-1 7 2 14t11 9q11 23 16.5 39t12.5 32q2 4 3.5 7.5l3.5 8.5t3 8.5t3 8.5q3 8 7 15l9 15q8 15 15 29.5t16 28.5q2 6 5.5 10.5t5.5 10.5t0.5 10.5t-0.5 9.5q1 6 5.5 10.5t4.5 10.5l9.5 15l9.5 15q5 9 6.5 13.5t4.5 9.5q4 6 5 10q3 8 6 15t8 12
q2 10 6.5 16.5l9.5 13.5q4 13 10.5 24.5t11.5 23.5q5 11 9.5 28t9.5 28q13 23 24 46.5t23 46.5q-14 0 -30 -0.5t-28 1.5q-5 0 -6.5 -1.5t-7.5 -0.5q-4 0 -8 1t-9 1q-8 1 -19.5 -2.5t-20.5 -5.5q-13 -2 -15.5 -6.5t-12.5 -6.5q-5 -2 -10.5 -1t-10.5 -3q-11 2 -19.5 10.5
t-14.5 18.5q-2 4 -6 3t-5 4q-2 8 0 16q1 3 3 5t2 5q8 2 14.5 3t11.5 6q17 3 27.5 6t27.5 7q10 5 10.5 4.5t2.5 -0.5q10 2 23 5l27 6q14 2 22.5 2.5t24.5 -0.5q18 -1 36 1.5t34 4.5q7 2 11 2.5t7 1.5q6 1 11 1t8 4q19 4 35 7t31 5.5t30.5 5.5t35.5 6q17 2 26 4.5t29 0.5
q6 -1 12 -1t14 -1q5 -1 13.5 -3.5t15.5 0.5z" />
    <glyph glyph-name="U" unicode="U" horiz-adv-x="622" 
d="M461 65q14 -4 29 0q4 1 6.5 2.5t4.5 3.5q6 2 12 4.5l11 4.5q6 4 11.5 6.5t8.5 4.5t8.5 7t7.5 4q2 5 11.5 10.5t11.5 9.5q5 0 16.5 8t14.5 11q12 5 20.5 2.5t10.5 -9.5q1 -5 -1 -11.5t-5.5 -13.5t-8.5 -13t-9 -8q0 -2 -7.5 -8t-7.5 -8q-2 -4 -10 -9.5l-11 -7.5
q-2 -1 -6 -4.5t-6 -5.5l-10 -5l-10 -5q-8 -5 -16 -12t-16 -13q-5 -2 -9 -4.5t-6 -7.5q-16 -8 -30.5 -22.5t-31.5 -20.5q-5 1 -8.5 2t-7.5 4q-6 19 -18 29q-5 16 -12.5 30t-9.5 32q-8 24 -8.5 49.5t-2.5 52.5q3 14 1 34q-5 0 -8 -3.5t-6 -5.5q-5 -3 -8 -6.5t-6 -5.5
q-10 -9 -14.5 -12t-6.5 -7l-13 -18t-14 -18q-7 -9 -9 -11t-3 -6q-4 -1 -6 -3.5t-6 -3.5q-3 -4 -6.5 -6t-6.5 -4q-9 -7 -18 -15t-19 -16l-19 -16.5t-22 -16.5q-5 -8 -14 -12.5t-17 -9.5q-10 -6 -15.5 -3t-9.5 3q-9 -2 -16.5 1.5t-16.5 6.5q-8 4 -11 8t-11 9q-4 2 -7.5 5.5
l-7.5 7.5q-12 5 -15.5 15.5t-6.5 21.5q-4 11 -6.5 21.5t-1.5 22.5q2 17 6 33t4 30q2 8 2 17t2 16q1 7 2 11t3 9q2 11 8 22q3 14 8.5 29.5t10.5 31.5q6 19 13.5 38t13.5 38q3 7 4.5 13.5t4.5 13.5q2 3 4.5 6t4.5 7q2 3 3.5 7t4.5 6q5 14 12.5 24.5l15.5 21.5q5 3 6 10
q7 6 11 14.5t11 15.5q3 11 7.5 20t6.5 20q8 20 17 38.5l19 37.5q0 5 4 11q2 9 4.5 15.5t6.5 12.5q1 8 5 11t5 11q4 3 4.5 6.5t2.5 5.5q4 7 11.5 10t12.5 9q8 1 17 2t19 4q10 2 14.5 3t9.5 4q10 -6 16.5 -14.5t11.5 -19.5q-8 -10 -12 -15.5t-9 -11.5q-6 -10 -11 -21l-10 -22
l-11 -22q-3 -9 -7.5 -17.5t-7.5 -17.5q-3 -7 -3.5 -11t-2.5 -8q-3 -8 -7.5 -15t-5.5 -16q-8 -15 -14.5 -26t-11.5 -23q-2 -3 -2.5 -5.5t-2.5 -5.5t-6 -11q-5 -9 -9 -19.5t-9 -19.5q-7 -11 -7 -13.5t-2 -5.5q-7 -8 -8 -11.5t-3 -6.5l-5.5 -7.5l-5.5 -7.5q-2 -4 -5 -9t-6 -9
q-9 -11 -14 -21q-4 -9 -6 -17t-6 -13q-2 -8 -5 -15t-5 -16q-17 -31 -29 -64t-23 -68q0 -9 -6 -17.5t-1 -21.5q9 -9 12 -14.5t6 -8.5t6 -5.5t6 -4.5q11 8 21.5 17.5t24.5 14.5q3 1 5.5 6t4.5 7q17 12 32.5 26t33.5 26q23 15 43.5 33.5t43.5 34.5q5 6 10 9q9 17 22.5 28.5
l27.5 22.5q2 2 4.5 4t4.5 4l26.5 75t32.5 70q2 11 6.5 18t6.5 16q6 10 9.5 16.5l6.5 12.5l28.5 53t27.5 55q17 27 42 52q10 3 15 11q6 7 7 9t3 4l5 11q7 11 8 14.5t3 8.5q12 5 23.5 8t22.5 7q6 2 10.5 4t12.5 1q7 -6 13 -13q2 -8 0.5 -14.5t-7.5 -9.5q-6 -12 -13 -21
t-12 -21q-12 -15 -22 -32t-18 -35q-9 -17 -19.5 -33.5t-18.5 -34.5q-8 -17 -17 -32.5l-18 -32.5q-6 -10 -6 -11.5t-1 -3.5q-2 -4 -4.5 -8.5t-4.5 -9.5t-4 -9.5t-4 -9.5q-2 -3 -4 -5t-1 -6q-14 -29 -26 -59.5l-24 -59.5q-4 -16 -9.5 -28.5t-10.5 -26.5q-3 -25 -12 -47
t-13 -48q0 -23 5 -39t7 -33z" />
    <glyph glyph-name="V" unicode="V" horiz-adv-x="521" 
d="M254 688q-8 2 -15.5 5.5t-15.5 5.5q-6 2 -8.5 -0.5t-7.5 -6.5l-9 -10.5l-10 -11.5q-21 -27 -35 -53.5l-28 -52.5q4 -5 11 -7.5t12 -6.5q16 8 25.5 23t20.5 29q2 9 8 16t8 16q1 4 0.5 8t3.5 7q2 -8 4 -12t4 -12q2 -19 -1 -37q-1 -3 -2.5 -6t-2.5 -7q-4 -11 -5.5 -13
t-3.5 -5l-6.5 -6.5t-5.5 -7.5q-8 -8 -11 -17q-5 -2 -7 -5.5t-7 -8.5q-5 -4 -8 -8.5t-10 -0.5q-14 -3 -28.5 0t-28.5 5q-6 2 -8 7t-7 6q-2 3 -2.5 7.5t-4.5 6.5q0 6 -1 10.5t0 9.5q1 4 2.5 7l3.5 7q2 5 2 10t3 9l16 21t15 24q8 8 14 17.5t14 19.5q7 4 10 10q16 17 28.5 29
t24.5 25q6 7 14.5 12.5t19.5 7.5q17 6 24.5 5.5t16.5 1.5q13 -5 19.5 -15l13.5 -21q3 -5 4.5 -8.5t4.5 -8.5q4 -10 8 -24t-1 -30q-1 -13 -5 -27.5t-7 -29.5q-1 -6 -1 -11.5t-1 -13.5q-1 -9 -4.5 -18.5t-6.5 -18.5q-4 -11 -5 -22.5t-3 -22.5q-5 -30 -12.5 -59.5t-13.5 -59.5
q-3 -17 -9 -33t-11 -32q-4 -4 -5.5 -11.5t-3.5 -14.5q-8 -22 -13 -43.5t-4 -43.5q0 -16 -2 -31.5l-4 -32.5q6 1 8 10q8 8 13 16.5l10 16.5q2 3 4 5t4 5t3.5 6.5t3.5 7.5q6 8 14 16t15 17q5 8 9 16t10 14q15 24 31 46.5t33 43.5l50 66.5t50 62.5q6 13 16 23.5l19 20.5
q4 4 7 8.5t7 7.5l27.5 33.5l26.5 33.5q5 8 10 17t13 16q8 8 12 16t10 15q6 6 8 9l4 4l4 4q6 9 10 11t6 5q7 3 12.5 6l10.5 6q7 2 11.5 5.5t11.5 5.5q4 4 9 6.5t10 5.5q4 2 7 4l6 4q14 -13 11 -25.5t-8 -21.5q-3 -5 -8 -9t-9 -8q-8 -8 -14.5 -16t-13.5 -18q-8 -13 -19.5 -26
l-21.5 -24q-2 -4 -4.5 -7t-4.5 -6q-4 -5 -6 -9.5t-7 -6.5q-2 -5 -6 -8t-6 -8q-9 -8 -17 -20q-6 -8 -7 -8.5t-2 -1.5q-8 -13 -16 -21q-4 -5 -7 -13q-5 -5 -8 -11.5t-8 -13.5l-4 -6t-4 -7l-7.5 -15t-8.5 -15l-7 -14t-8 -12q-10 -11 -20 -25t-21 -24q-2 -5 -5.5 -8t-6.5 -7
q-8 -10 -14.5 -20t-14.5 -20l-9.5 -13l-9.5 -13q-5 -5 -9.5 -11l-9.5 -13l-7.5 -9.5t-6.5 -10.5q-8 -6 -12.5 -15.5t-13.5 -16.5l-12 -19.5t-14 -20.5l-3.5 -7t-2.5 -9q-2 -5 -5 -8t-4 -8q-20 -24 -33 -43.5t-29 -35.5q-6 -9 -11.5 -15t-8.5 -14q-6 -9 -15 -17.5t-19 -15.5
q-6 -5 -14 -4t-13 9q-13 7 -15.5 12.5t-8.5 13.5q-12 2 -9 16t5 27q2 15 3.5 32t2.5 34l2 44t3 45q1 3 0.5 5.5t-0.5 5.5q0 5 1 10t1 11v9t1 9q1 19 5.5 35t8.5 34q7 18 11.5 37.5t9.5 38.5q8 23 13 51q1 3 0.5 6.5t0.5 6.5q1 5 2.5 9t0.5 9q4 19 7.5 31t8.5 26q2 5 2.5 8.5
t1.5 7.5q4 9 8.5 20.5l8.5 22.5l6.5 17t5.5 17q3 21 3 34t-5 23z" />
    <glyph glyph-name="W" unicode="W" horiz-adv-x="766" 
d="M972 757q-1 -4 0.5 -6t3.5 -5q-2 -4 -4 -7.5t-2 -8.5q-5 -6 -9 -14t-9 -14q-12 -17 -22 -33t-21 -30q-4 -5 -5.5 -9t-4.5 -7q-8 -9 -10 -13.5t-4 -9.5q-2 -4 -3 -5.5t-1.5 -3t-2 -3.5l-4.5 -6q-2 -4 -4.5 -8t-4.5 -9l-9 -15l-9 -15q-2 -5 -4.5 -7.5t-3.5 -7.5l-9 -11.5
l-4 -5t-4 -5.5t-5 -10q-3 -9 -4.5 -14t-3 -9t-3.5 -8t-7 -10q-6 -11 -11.5 -18.5t-10.5 -15.5q-4 -6 -5.5 -8t-3 -3.5t-3 -3.5t-4.5 -8q-8 -11 -15 -22.5t-15 -22.5q-5 -8 -9 -16t-10 -15q-4 -13 -15 -22q-11 -22 -20 -45l-18 -47q-4 -5 -5 -11q-7 -11 -7.5 -13.5t-2.5 -4.5
q-8 -11 -13 -19t-10 -15l-9.5 -11.5t-6.5 -13.5l-15.5 -22t-12.5 -25q-4 -5 -6.5 -9t-4.5 -9q-9 -9 -13 -19l-33.5 -33t-36.5 -30q-5 -1 -10 -2.5t-11 -0.5t-11.5 4t-11.5 2q-7 4 -14 17q-2 8 -3 13.5t-3 11.5q-5 13 -7 22q-2 11 0.5 22.5l5.5 25.5q4 14 7.5 28.5t5.5 28.5
q3 20 7.5 40t7.5 38l6 22t3 22q0 6 0.5 12.5t1.5 12.5q6 28 16.5 55.5l20.5 53.5q2 5 4 11.5t3 12.5q1 8 1 14.5t1 14.5q1 4 1.5 6.5t0.5 5.5t-0.5 6t0.5 6q0 5 1.5 10l3.5 12q1 6 1 12t1 13q-33 -41 -59.5 -81l-54.5 -80q-5 -11 -12 -20t-13 -19q-5 -8 -11 -16.5t-11 -16.5
q-4 -9 -7 -17t-8 -15q-3 -5 -7 -10t-7 -10l-10.5 -10l-10.5 -10q-5 -2 -9 -8.5l-8.5 -14l-9 -14.5l-6.5 -10q-9 -22 -20 -41l-23 -38q-4 -6 -7.5 -12.5t-8.5 -12.5q-10 -15 -16.5 -27.5t-17.5 -21.5q-2 -5 -5 -8.5t-4 -8.5q-5 -6 -14 -9t-18 -8q-7 -4 -16.5 -7t-20.5 2
q-2 1 -4 4t-5 3q-2 6 -6.5 8.5t-8.5 6.5q-2 2 -3.5 4.5t-3.5 5.5q-6 7 -11.5 15.5t-8.5 19.5q0 2 -0.5 5.5t-0.5 6.5q-1 5 -2.5 8.5t-1.5 10.5q1 8 3.5 15t4.5 14q4 15 9.5 27.5t9.5 28.5q4 13 8 20q3 9 4.5 14t3.5 9t3.5 8.5t4.5 12.5q3 16 7.5 28.5l9.5 26.5q3 12 10 32
l14.5 41l14 40.5t8.5 32.5q3 5 5 11.5t4 11.5q4 15 11 35l14 41l13.5 41t10.5 36q4 9 5.5 23.5t1.5 28.5q-25 -17 -40.5 -31.5t-32.5 -27.5q-4 -6 -10.5 -10t-11.5 -11q-5 -1 -8 -4.5t-8 -5.5t-12 -3t-13 -1q-3 0 -6 1t-6 1q-5 0 -12 -3l-12 -5q-4 -2 -6.5 -4t-6.5 -4
q-5 -2 -9 -0.5t-9 2.5q-4 1 -7 0.5t-6 3.5q2 5 5.5 8t5.5 8q8 5 15 15q5 2 8 5.5t7 6.5q3 3 7 5.5t7 6.5q11 5 19.5 13.5t19.5 13.5q10 6 15.5 10.5t11.5 7.5q4 3 7.5 6.5t7.5 6.5q10 8 19 14.5l18 13.5q10 14 20.5 20t21.5 11q5 3 10 5.5t11 1.5q3 0 5.5 -0.5t5.5 -0.5
q10 0 14.5 -4t11.5 -8l7.5 -5.5t5.5 -7.5q3 0 5.5 -1.5t4.5 -3.5q2 -6 5 -11.5t2 -13.5q-1 -5 -2 -9.5t-2 -9.5q-4 -7 -6 -12l-4 -10q-2 -4 -1.5 -9t-0.5 -10q-2 -10 -5 -20t-5 -21q-2 -3 -2 -6.5t-1 -6.5q-6 -12 -9 -19t-6 -15.5t-6 -16t-4 -10.5q-2 -8 -4.5 -14t-4.5 -14
t-4 -17.5l-4 -18.5q-3 -9 -5.5 -18t-4.5 -18q-1 -3 -4.5 -15l-7.5 -25l-7.5 -25t-3.5 -15q-1 -3 -0.5 -6t-2.5 -5q0 -8 -3.5 -14.5l-7.5 -14.5q-3 -8 -5 -15.5t-7 -14.5q-6 -19 -11.5 -33.5l-10.5 -28t-9.5 -29t-9.5 -35.5l4.5 -4.5t4.5 -2.5q3 0 6.5 1.5t6.5 3.5q4 2 7.5 4
t5.5 4t3 5t2 5q6 7 7 11t4 5q2 11 8.5 17t9.5 16q3 2 4 6.5t4 6.5q2 5 6.5 13.5l9.5 17.5l9.5 17l7.5 13q2 7 5.5 12.5t7.5 12.5l12 18q2 4 6 8t7 8q2 4 3.5 6.5t3.5 5.5l6 8l6 8t6.5 7.5l7.5 7.5q7 8 11 17t10 16q5 13 12 24t15 22l12 23.5t14 22.5q6 13 15 22q6 12 7 12
q11 17 22 32l23 32q5 6 8.5 12t8.5 11q8 14 16 24t16 18q12 8 15.5 9t6.5 3q8 5 10.5 7.5l4.5 4.5t4 4.5t2 5.5q4 4 6.5 6t4.5 5q5 5 8.5 10t11.5 0q4 -2 8 -9q2 -2 4.5 -5.5t3.5 -6.5q1 -5 -0.5 -11.5t0.5 -12.5l8 -22t2 -27q-4 -7 -5.5 -16.5t-3.5 -19.5q-3 -12 -6 -19
t-2 -13q-4 -8 -5 -17t-3 -17q-3 -15 -8 -28.5t-6 -28.5q-1 -14 -6 -33.5t-7 -34.5q-2 -7 -0.5 -11.5t1.5 -10.5q-2 -16 -2 -22.5t-1 -13.5l-2 -10.5l-2 -10.5q-2 -7 -3 -13.5t-4 -11.5l-4 -24.5t-5 -22.5q1 -4 -0.5 -7.5t-2.5 -7.5q-2 -5 -1.5 -11t-1.5 -11
q-1 -5 -1.5 -11.5t-2.5 -11.5q-5 -13 -4.5 -20t-2.5 -12q1 -8 -3.5 -16.5t-2.5 -16.5q5 4 8 9t7 10q3 5 7 8.5t8 8.5q8 8 14 19t11 22q2 3 4.5 9l4.5 11q9 14 18 34q2 4 3.5 7.5t2.5 7.5q3 9 5 18t5 18q2 4 3.5 7.5t3.5 7.5q5 10 10.5 19.5t11.5 17.5q8 17 13 25t9.5 16
l9.5 16.5t11 21.5q3 2 4.5 5.5t3.5 6.5q3 11 6.5 18.5t6.5 15.5q3 2 4.5 6t4.5 6q4 9 8.5 16l9.5 15q4 6 6 9.5t4 7.5q6 12 7 13q8 9 9 11t1.5 3.5t1.5 3t4 4.5q3 7 4.5 9t2.5 3.5t2.5 4t4.5 9.5q8 11 9 14t8 13q2 2 3 6t3 6q9 12 11.5 16t5.5 8l10 14t10 15q5 5 10 8.5
t10 8.5q4 0 7.5 3t6.5 7q12 3 20.5 11t18.5 16l13.5 10t11.5 12q9 8 20.5 9t17.5 -6z" />
    <glyph glyph-name="X" unicode="X" horiz-adv-x="612" 
d="M766 755q-1 -7 -4 -9.5t-6 -6.5q-3 -2 -5.5 -6t-7.5 -8q-5 -6 -9.5 -12t-10.5 -11q-2 -7 -6 -11l-9 -9t-10 -9l-10 -8q-9 -8 -17 -16.5t-18 -16.5q-8 -7 -11.5 -11.5t-5.5 -10.5q-8 -8 -15 -19.5t-16 -21.5q-4 -4 -7.5 -7t-7.5 -8t-8 -9t-9 -7q-6 -10 -13 -16.5
t-13 -15.5q-3 -2 -6 -5t-4 -7q-5 -3 -9 -7.5t-7 -9.5q-11 -9 -19.5 -20t-19.5 -21q-3 -5 -6.5 -9t-7.5 -8q-11 -13 -22 -24.5t-22 -25.5q-2 -3 -7 -8t-7 -9q-1 -4 0 -10t1 -10q5 -28 5 -52q2 -17 2.5 -34t6.5 -29q0 -14 4.5 -25.5t7.5 -24.5q2 -5 2 -10.5v-11.5q2 -24 9 -49
t11 -51q1 -8 2.5 -15.5t4.5 -14.5q7 -8 7 -10t1 -4q2 -4 7.5 -8t10.5 -6q6 -5 11.5 -7.5t9.5 -5.5q8 3 10 1t5 -4q7 -2 14 -1t15 0q5 0 10 -1.5t12 -1.5q5 1 10.5 1.5t10.5 1.5q8 2 16 2.5t12 5.5q2 -24 -8 -34q-8 -3 -15.5 -5.5t-14.5 -6.5q-25 -4 -49 -7q-5 0 -9.5 -1
t-8.5 -1q-3 0 -6 1t-6 1l-10 -2t-11 -1q-11 3 -13 4t-5 0q-8 4 -14.5 10t-11.5 14q-15 9 -26 22t-24 25q-2 8 -5 16.5t-9 15.5q-2 11 -3.5 24.5t0.5 27.5q-2 2 -1.5 5.5t-0.5 6.5q-12 10 -14.5 22l-4.5 22q0 10 -2 19t-3 18l-2 16v15q-2 19 -2.5 40t-1.5 43
q-11 -10 -20.5 -21.5t-20.5 -20.5q-3 -5 -7.5 -8t-7.5 -9q-15 -11 -21.5 -16.5t-11.5 -13.5q-11 -9 -16 -19q-13 -10 -24 -24.5l-22 -28.5l-6 -6t-3 -7l-19.5 -20.5t-15.5 -17.5l-20 -24t-22 -21q-5 -3 -9.5 -6t-9.5 -7q-7 -5 -15.5 -8.5t-16.5 -7.5q-10 -5 -20.5 -7.5
t-22.5 -7.5q-8 -3 -15 -9t-17 -6q-2 2 -5 2.5t-5 2.5q6 12 12 22.5t12 22.5l18 23.5t19 22.5t20.5 20.5t19.5 22.5q5 5 11 13q3 3 5.5 6.5t5.5 6.5l56.5 58t54.5 60l10.5 11t10.5 13q13 11 22 23q4 1 6.5 4.5t5.5 6.5q9 8 13.5 12.5t8.5 9.5l18 25t20 25q3 3 7 9q2 3 5 5
t4 5q1 4 -1 14q-1 9 -1.5 19.5t-1.5 19.5v13.5t-1 13.5q0 7 -1 13t-1 12q-1 8 -1 14.5v14.5q-2 10 -2.5 19t-2.5 20q2 9 0.5 15.5t-2.5 14.5v10t-2 9q-2 3 -5 5t-5 5q-8 6 -11 9q-6 8 -12 7.5t-11 -1.5q-12 -3 -20.5 -10t-16.5 -16q-3 -3 -6.5 -6t-5.5 -5q-7 -10 -9.5 -11.5
t-4.5 -5.5q-10 -9 -19 -22q-1 -17 -10 -36t-12 -39v-11q-1 -12 0.5 -13.5l3.5 -3.5q11 -7 16.5 -3t11.5 4q10 12 13 27.5l6 31.5q1 8 1 14v12q0 7 -1 14t4 14q3 -1 4 -3.5t4 -4.5q6 -4 8 -8l4 -8q0 -14 -1.5 -30.5t-3.5 -32.5q-2 -19 -7 -35t-21 -27q-11 -6 -22 -10
q-9 -4 -16 -2q-15 4 -27 15q-6 11 -13 21t-9 25v8t2 9q3 16 8.5 32.5t13.5 31.5q4 10 7.5 15.5t8.5 12.5l13 17l14 18l34 34l33 34q8 5 17 12.5t18 13.5q3 2 6 4.5t5 4.5q4 2 9 2t10 1q4 1 7 2t5 -3q10 2 16.5 -1t14.5 -5q4 -4 9 -7.5t8 -8.5q2 -2 3 -6.5t3 -7.5
q4 -7 5.5 -14t3.5 -15q-1 -8 0.5 -12t-0.5 -11q2 -8 1.5 -16.5t-1.5 -19.5q3 -6 3 -13v-15q-2 -14 -1 -27.5l2 -27.5q2 -15 2.5 -32.5t2.5 -31.5q7 4 12 13q7 5 14 14t14 17q9 8 17 17.5t15 19.5q7 4 11.5 9t9.5 10q14 16 29 30.5t29 31.5q9 11 18.5 21.5l19.5 21.5
q10 10 19.5 21l18.5 22q5 2 8 5t8 6q9 0 15 1t11 5q5 0 7.5 0.5t4.5 3.5q11 2 22 8.5t22 11.5l17 7.5t12 -5.5z" />
    <glyph glyph-name="Y" unicode="Y" horiz-adv-x="601" 
d="M431 712q1 -13 -2 -22t-5 -18q-5 -10 -9 -15t-7 -12q-3 -4 -5 -8t-4 -7q-3 -5 -7 -9t-7 -9l-5.5 -9.5l-5.5 -9.5q-5 -7 -9.5 -14t-8.5 -15q-2 -4 -4.5 -7t-3.5 -8l-11.5 -14t-10.5 -16q-3 -5 -5 -12q-3 -9 -5.5 -12.5l-4.5 -6.5l-12.5 -16.5t-9.5 -19.5q-3 -17 -11 -29
t-15 -26l-12.5 -29t-11.5 -30q-6 -18 -12.5 -35t-8.5 -37q8 -8 18.5 -2.5t15.5 11.5q10 4 16 12q19 8 31 19.5t25 25.5q6 1 9 5t8 6q12 18 27.5 34.5t31.5 30.5q2 5 6 8t8 7q7 7 13 14.5t14 15.5q3 5 8 8t8 5q2 2 4.5 4t5.5 4q10 8 22 16.5t22 16.5l10.5 12.5t12.5 11.5
q5 11 10 20.5t9 20.5q8 10 12 20q16 23 21.5 39.5t11 31t12 28t18.5 27.5q8 7 19 12.5l22 10.5q14 6 30 7t29 3q6 -2 6 -7t-1 -13q0 -7 -3.5 -13t-3.5 -11q-16 -35 -31 -59q-4 -11 -7 -20.5t-8 -20.5q-2 -4 -4.5 -8.5t-4.5 -8.5t-5.5 -6.5t-5.5 -6.5l-3.5 -10.5t-3.5 -9.5
l-4 -8l-4 -8q-7 -11 -9 -17t-4 -11q-5 -8 -8.5 -18.5t-10.5 -18.5q-6 -10 -6 -12t-2 -4q-7 -10 -7 -11.5t-1 -3.5q-10 -17 -14.5 -29t-12.5 -24q-6 -18 -11.5 -37t-12.5 -36q-2 -16 -7 -29t-10 -28q-8 -18 -11 -33q-6 -13 -10.5 -21t-6.5 -18q-10 -8 -14 -18
q-4 -2 -6.5 -6.5l-5.5 -9.5q-2 -2 -4 -3.5t-3 -6.5l-28 -32.5t-24 -31.5q-11 -11 -21.5 -23l-21.5 -24l-21.5 -20t-18.5 -21q-11 -8 -21 -16.5l-19 -16.5l-28.5 -22t-25.5 -19q-15 -10 -29 -17.5t-28 -17.5l-14 -5.5l-9 -3.5q-5 -1 -10.5 -3t-9.5 -2q-5 3 -7 2t-4 0
q-7 3 -9 2.5t-4 -0.5q-5 1 -8.5 3.5t-8.5 4.5t-8.5 2.5t-7.5 3.5q-8 10 -16.5 12.5t-15.5 7.5l-4.5 4.5t-5.5 4.5q-4 3 -6 6.5t-4 8.5t-2 9t-2 9q-7 20 -13 42.5t-6 46.5v19q1 5 2.5 9t1.5 9q0 3 -1.5 5.5t-2.5 5.5q-1 4 -2 10.5t1 10.5q1 2 5.5 7.5t7.5 7.5q12 3 18 8t14 8
q7 -2 11.5 1.5t10.5 4.5q12 2 20 -11.5t3 -28.5l-4 -14.5t-3 -15.5q-2 -14 -1.5 -32.5t2.5 -32.5q2 -10 4 -23t5 -22q10 -17 26 -32q2 1 7 1t8 -1l15 7.5t10 4.5q17 12 36.5 30t36.5 32q16 11 28 26q6 8 13 16t15 16q8 10 16.5 19l16.5 18l16 19.5l16 18.5q8 14 16 23.5
t15 21.5q9 10 16 21.5t15 22.5q10 16 18.5 31.5t15.5 35.5l7.5 20l7.5 19q6 15 13.5 31t12.5 32q-11 -7 -19 -14t-19 -13q-7 -8 -14.5 -14.5t-15.5 -12.5q-12 -16 -27 -28.5t-29 -26.5q-15 -14 -27.5 -29t-27.5 -29q-4 -1 -10 -7q-8 -4 -14.5 -10.5t-16.5 -10.5q-2 -1 -5 -1
t-6 -2q-4 -1 -6.5 -2t-7.5 -2t-10 -3.5t-10 -3.5q-9 -1 -22.5 2t-23.5 6l-9 3.5t-8 4.5q-7 5 -10 13t-8 17q-3 5 -6.5 9.5t-5.5 9.5q1 5 -1 10.5t-1 12.5q0 5 1.5 9l3.5 9q1 5 2 9.5t3 9.5q3 15 7.5 28.5t9.5 26.5l30 63.5t32 50.5l10.5 22t10.5 17l19.5 42t23.5 37
q6 23 16.5 40t20.5 37q-11 -2 -19 -9.5t-18 -12.5q-22 -13 -35 -31.5t-32 -30.5l-16.5 -13.5t-10.5 -9.5q-9 0 -17 -3.5l-15.5 -7t-16.5 -5.5t-20 1q-4 -2 -8.5 -1.5t-9.5 2.5q-4 2 -7 4.5t-8 2.5q-7 4 -9.5 15t1.5 20q11 7 25 12l14.5 7.5l14.5 7.5l11.5 5.5t11.5 7.5
q16 13 35 26q26 25 58.5 45t56.5 48q8 1 13.5 5t12.5 2q23 -8 36 -16q9 1 18 -4t16 -8q6 -2 10.5 -4t10.5 -11z" />
    <glyph glyph-name="Z" unicode="Z" horiz-adv-x="531" 
d="M624 727q-1 -2 -5 -3t-5 -2q5 -11 2 -26q-2 -15 -11 -26.5t-15 -22.5q-8 -6 -14 -13l-12 -14q-8 -6 -15.5 -14t-16.5 -13q-4 -6 -11 -10q-5 -8 -10.5 -14l-10.5 -12t-11 -12t-13 -11l-29 -34t-27 -29q-5 -10 -13 -17.5t-13 -19.5q-13 -12 -17 -18.5t-9 -12.5
q-2 -4 -6 -6.5t-6 -5.5l-5.5 -7.5l-4.5 -6.5l-22 -25.5l-22 -25.5l-21.5 -25.5l-21.5 -24.5q-14 -20 -29.5 -40l-30.5 -39q-14 -23 -29 -37q-4 -8 -11 -18.5l-14.5 -21.5l-14.5 -21l-12 -17q-3 -1 -5 -3.5t-4 -4.5q40 1 73.5 7t60.5 7q9 1 19.5 2.5t21.5 2.5q5 0 10 -0.5
t10 -0.5h16.5t16.5 1q9 -2 18 -3t18 -3q8 -2 16.5 -3t16.5 -3q3 -2 5 -3t5 -2q2 -1 5.5 -1t6.5 -2q7 -2 15.5 -4t14.5 -7q2 -5 7.5 -8.5t10.5 -8.5t5.5 -10.5t-7.5 -10.5q-8 -3 -16 -7t-19 -3q-10 -8 -20 -7t-24 -1q-7 -6 -18.5 -9t-16.5 8q-11 4 -24 2t-25 0
q-20 4 -31.5 2.5t-22.5 -2.5q-21 -1 -40.5 -3l-39.5 -4q-14 -4 -32 -4.5t-32 -3.5q-14 0 -29 -2l-30 -4q-16 -2 -27 -5.5t-20 -4.5q-10 -1 -17.5 3t-11.5 11q-2 9 -4.5 14t-4.5 11q-3 22 8 38t21 28q3 6 7 11.5t9 9.5l16 23t17 19q10 17 24 27.5t25 25.5q18 19 28 33t22 25
q7 10 13 15q7 11 14 20t15 17q2 4 8 8q17 26 36 48.5t36 46.5q23 20 40 37.5t27 41.5l15 17t16 15q3 2 5.5 4t4.5 4q5 5 8 10t8 11l14.5 16l14.5 16q2 2 4.5 5t5.5 5q2 5 6 8t6 9q12 13 22.5 29t21.5 29q-13 2 -26.5 -1l-27.5 -6q-14 -2 -27 -5l-26 -6l-10.5 -4t-11.5 -3
q-6 0 -11.5 1t-10.5 0h-14.5t-13.5 2q-4 1 -7 1.5t-7 0.5q-8 2 -14 1.5t-11 3.5q-6 5 -12 5.5t-15 0.5q-12 0 -24 0.5t-22 6.5q-12 7 -14.5 9t-4.5 6q-6 10 -4.5 16.5t5.5 8.5q12 0 16.5 2t9.5 4q21 4 34 5.5t25 3.5q26 5 51.5 8.5t50.5 11.5q14 0 29 5h63t61 -2q5 2 12 1
l14 -2q14 -1 33 0t35 -6q11 -7 12 -9z" />
    <glyph glyph-name="bracketleft" unicode="[" horiz-adv-x="236" 
d="M443 746q-4 0 -7 -3.5t-7 -5.5q-13 -3 -19 3q-14 -2 -22.5 -2h-19.5q-12 -11 -15 -23.5t-11 -24.5q-2 -3 -5 -6.5t-5 -7.5q-8 -17 -15 -34t-13 -34q-12 -36 -28.5 -73t-35.5 -72q-8 -14 -13 -29t-12 -30q-22 -46 -41.5 -95l-40.5 -97q-3 -8 -5.5 -15.5t-4.5 -15.5
q-14 -26 -25 -51.5l-22 -51.5q-2 -5 -5 -9.5t-5 -9.5q-8 -17 -14.5 -35t-11.5 -35q14 -3 29 0.5t30 -1.5q2 -5 1 -11.5t-8 -13.5q-8 -5 -16.5 -5t-16.5 -2q-8 2 -17.5 0.5t-17.5 -1.5q-13 1 -17 0t-9 0q-3 0 -6 1t-7 2q-7 2 -12.5 3t-7.5 5q-3 8 0.5 21t1.5 23q4 14 8.5 28
t11.5 29q8 20 18 40l19 37q5 10 7 19t10 17q14 38 35 77.5l39 76.5q7 13 11.5 26t9.5 25q2 4 3.5 7.5t3.5 7.5l9.5 22l10.5 23q6 16 14 31q10 17 16.5 33.5t14.5 34.5l9.5 21.5l9.5 21.5t8 22t8 22q8 20 17 40t11 37q2 2 4.5 6.5t3.5 6.5l18.5 22t23.5 16q18 9 35.5 7.5
t36.5 -0.5q4 0 8 1t8 1q5 0 8.5 -1.5t7.5 -1.5q6 0 12 2.5t10 0.5t3 -4.5t-3 -5.5t-4 -6.5t0 -5.5z" />
    <glyph glyph-name="backslash" unicode="\" horiz-adv-x="259" 
d="M205 741q2 -24 5.5 -51t4.5 -54q1 -36 -3.5 -71t1.5 -69q2 -10 3.5 -19t3.5 -18q2 -16 3.5 -22t2.5 -13q2 -28 0.5 -57t0.5 -59t1 -59t0 -58q1 -20 1.5 -40t1.5 -38v-26.5t2 -24.5q-2 -15 -3 -32t-11 -26q-7 -5 -15 -10q-4 -2 -9.5 -5t-9.5 -2q-9 8 -12.5 8.5t-6.5 2.5
q-8 4 -10 7.5t-3 14.5q0 5 -0.5 9.5t-0.5 7.5q-1 11 1 21.5l4 21.5t1.5 24t-1.5 25q-2 20 -4.5 40t-4.5 43q-2 11 -2 22.5t-2 22.5t-3 23l-2 23q0 5 0.5 11t1.5 14q1 17 0.5 37.5t0.5 36.5q0 17 -1 34t-1 35q0 32 0.5 65.5t-0.5 65.5q0 8 -0.5 17t-0.5 17q0 9 1 17.5t1 17.5
q0 12 -2 24t0 25q5 13 5 17t1 6t4 4t5 5l4.5 6t6.5 2q8 0 16 -2q3 -2 5.5 -5.5t7.5 -7.5q3 -2 5 -2t6 -2z" />
    <glyph glyph-name="bracketright" unicode="]" horiz-adv-x="230" 
d="M-116 -24q4 -1 7 3t8 6q10 4 19 -3q12 2 21 2h20q12 11 15.5 23.5t11.5 24.5q2 4 4.5 7t4.5 7q9 17 15.5 34l13.5 34q12 36 27.5 73t35.5 72q8 14 13 29t13 29l40 96.5t42 97.5q6 14 10 30q13 26 24 51.5l23 51.5q2 5 5 9.5t5 9.5q7 17 13.5 35l12.5 35q-15 3 -29.5 -0.5
t-30.5 1.5q-2 5 -1 11.5t9 13.5q8 5 16 5t16 2q8 -2 17.5 -0.5t17.5 1.5q13 -1 17.5 0t8.5 1q4 -1 7 -2l6 -2q7 -2 12 -3t7 -5q4 -8 0.5 -21t-1.5 -23q-8 -26 -20 -57q-8 -20 -18 -39.5l-18 -36.5q-5 -11 -7.5 -20t-10.5 -17q-14 -39 -34.5 -78l-38.5 -76q-7 -13 -11.5 -26
t-10.5 -25q-2 -4 -3.5 -7.5t-3.5 -7.5q-5 -11 -9 -21.5t-10 -24.5l-6.5 -14.5t-8.5 -15.5q-10 -17 -16 -33t-14 -34l-10 -22l-10 -22t-7.5 -22t-7.5 -22q-8 -20 -17.5 -39.5t-11.5 -36.5q-2 -3 -4 -7.5t-4 -6.5l-18 -22t-23 -16q-18 -8 -36 -7t-37 0q-4 0 -8 -0.5t-8 -0.5
q-5 0 -8.5 1t-7.5 1q-5 0 -11.5 -2t-11.5 0q-3 1 -2 3.5t3 5.5t3.5 6.5t0.5 5.5z" />
    <glyph glyph-name="asciicircum" unicode="^" horiz-adv-x="536" 
d="M446 642q-7 -4 -12.5 -9.5t-10.5 -11.5q-7 -13 -12 -18l-10 -10q-7 -12 -13.5 -18.5t-11.5 -12.5q-7 -8 -13 -16.5t-14 -14.5q-10 -8 -14 -12t-9 -6q-11 -9 -21 -19l-20 -21q-3 -3 -6.5 -5t-5.5 -5q-8 -8 -14.5 -17t-15.5 -17q-14 -17 -29.5 -33l-31.5 -32
q-5 -5 -8.5 -10l-7.5 -11q-17 -15 -28 -32q-7 -5 -13 -13q-10 -8 -20.5 -14.5t-21.5 -10.5q-12 1 -21 9t-11 19q2 6 4.5 11t9.5 13l4.5 6.5t4.5 5.5q7 7 15 18q16 19 34 36t32 32q17 23 35.5 42.5t38.5 37.5q11 9 20 18.5t20 17.5q4 5 8 9.5t9 7.5q14 14 28 29.5t28 29.5
q8 11 16.5 19t16.5 17q5 8 11.5 14.5t11.5 14.5q2 4 8 8q2 3 3.5 6t4.5 6q8 11 18 19t20 18q10 8 21.5 12t24.5 8q9 0 9.5 -2.5t3.5 -4.5q1 -5 2 -8.5t1 -8.5q4 -10 5 -21.5t3 -21.5q-1 -15 0.5 -28.5t0.5 -28.5q0 -12 1 -14.5t-1 -5.5q8 -9 8 -26.5t1 -31.5l3.5 -13.5
t1.5 -13.5q1 -9 -2 -19.5t-1 -19.5q-3 -7 -3.5 -13.5t-1.5 -13.5q-2 -16 0 -29t10 -21q0 -9 4 -18t3 -20q-1 -5 -1.5 -12.5t-2.5 -12.5q-4 -15 -14.5 -23t-21.5 -20q-5 -3 -10 -8t-11 -8q-8 6 -12 7q0 6 -1.5 12t-2.5 13q0 10 -1 14q-4 7 -3.5 11.5t-0.5 8.5q0 6 -1.5 10.5
t0.5 10.5q-5 17 -7.5 35.5t-5.5 37.5q2 9 3.5 17.5t-0.5 14.5q-1 16 -1 30q-1 7 -0.5 14t-0.5 15q-1 7 -3 12t-3 12v15q-1 5 -0.5 10t-1.5 9q1 5 1.5 10.5t0.5 11.5l2 11.5t-1 9.5z" />
    <glyph glyph-name="underscore" unicode="_" horiz-adv-x="392" 
d="M374 2q-2 -3 -5 -4.5t-5 -4.5q-10 -3 -19 -3.5t-20 -0.5q-7 1 -13 0.5t-11 -1.5q-14 -1 -31 -1h-28q-9 0 -18 1t-18 1q-16 0 -30 -0.5t-31 0.5q-14 1 -28 3l-28 4q-22 3 -46 1.5t-45 4.5q-11 -2 -20.5 -4.5t-16.5 -7.5q-13 -1 -26 -1.5t-26 0.5q-4 2 -6.5 5.5t-4.5 7.5
q-2 16 5 24t13 18q2 3 3.5 6t5.5 5q12 5 25 3.5t24 -2.5q13 0 24 1t22 -3q11 0 18 2t17 1q6 0 11.5 -0.5t11.5 -0.5q14 1 28 0.5t28 -0.5q32 2 66 0.5t71 2.5q16 -3 36 -1t39 2q6 1 11 -1t11 -3q17 -2 21 -9t2 -15q-1 -6 -7 -15q-3 -5 -8 -7.5t-2 -7.5z" />
    <glyph glyph-name="grave" unicode="`" 
d="M346 769q2 -1 5 0t6 0q15 -7 24 -18t15 -24q10 -7 16.5 -17t12.5 -20.5t13.5 -20.5t18.5 -17q4 -5 0.5 -13t-11.5 -18q-15 -12 -29 -12q-12 7 -20 15q-5 -1 -7 0.5t-6 1.5q-20 23 -32 42.5t-29 36.5q-5 12 -7.5 13.5t-4.5 4.5q-13 6 -4.5 15.5t14.5 17.5q15 3 25 13z" />
    <glyph glyph-name="a" unicode="a" horiz-adv-x="424" 
d="M314 270q1 -3 -2 -12q-5 -6 -6 -13l-3.5 -7t-2.5 -8q-2 -6 -1.5 -14t-0.5 -15q-2 -11 -3 -21.5l-2 -21.5q0 -11 -2 -25t-4 -25q4 -7 5 -15t7 -13q20 3 32 9.5t23 18.5q9 4 12.5 7t11.5 8l4 4l4 4q11 6 13.5 8t6.5 4q17 11 26 23q9 7 12.5 12.5t15.5 10.5q7 8 14.5 13.5
t14.5 13.5q5 0 8 -2t7 -4q3 -8 1 -16.5t-7 -15.5t-5 -8t-1 -2q-3 -4 -7.5 -7.5t-7.5 -7.5q-5 -9 -8 -9t-5 -2q-9 -5 -12.5 -8t-11.5 -8q-11 -6 -13 -8t-4 -3q-13 -14 -23.5 -22.5t-22.5 -22.5l-8 -6t-7 -8q-9 -6 -14.5 -12l-12.5 -14q-6 -3 -13 -8.5t-15 -9.5
q-4 -2 -8.5 -4.5t-9.5 -2.5q-12 -2 -22 2t-19 6q-4 6 -10 10q-9 11 -13 26t-8 32q-8 -5 -15 -13t-18 -13q-20 -19 -42.5 -36.5l-45.5 -36.5q-3 -3 -6 -5t-5 -1q-5 -6 -13.5 -7.5t-18.5 0.5q-10 5 -18 7t-16 6q-17 3 -28.5 15t-19.5 28q-3 8 -4.5 15l-3.5 16q-1 8 -3 13.5
t0 10.5q-2 3 -1 6.5t1 7.5q-1 14 2.5 30t9.5 29q2 4 8 10q2 3 3 6t3 5q2 3 6 6t7 6q5 7 11.5 12.5t12.5 11.5q3 3 5.5 7t7.5 6q4 7 9 11.5l11 9.5q17 21 42 35t45 32q7 3 12 7l10 8q13 11 27 7t26 -7l19.5 -18t16.5 -20q7 1 16 0.5t19 1.5q3 0 6 1.5t5 1.5q15 -5 15 -15z
M183 263q-27 -13 -49 -30.5t-42 -37.5q-5 -5 -10.5 -9.5t-9.5 -9.5t-7.5 -12l-6.5 -13q-2 -4 -4 -6.5t-4 -5.5q-2 -5 -1.5 -10t0.5 -11v-10t1 -10q3 -11 3 -22q0 -8 1.5 -19.5t7.5 -15.5t12.5 -2t11.5 3q35 27 66 56.5t55 66.5q-2 26 -0.5 50.5t-4.5 45.5q-4 2 -9.5 1.5
t-9.5 0.5z" />
    <glyph glyph-name="b" unicode="b" horiz-adv-x="368" 
d="M276 205q4 -37 0 -65.5t-16 -57.5q-15 -23 -33 -40q-6 -6 -11 -13t-12 -12t-15 -8.5t-13 -10.5q-4 -1 -7.5 -2.5t-7.5 -3.5q-10 -2 -14.5 -4.5t-9.5 -4.5t-9 -1t-9 0t-8.5 -4t-8.5 -5q-10 -3 -18 1t-14 11q-19 7 -25.5 17l-13.5 21q-10 10 -12.5 20.5t-4.5 23.5
q-5 31 -8 62q-1 9 0 19t0 20q-1 14 -1.5 31t2.5 29q2 9 5 17t5 16q4 11 6 20.5t6 18.5q2 5 4 9l4 8q2 5 3.5 9.5t3.5 9.5q2 8 6.5 16t6.5 17l3.5 12t7.5 10q4 10 7.5 20t8.5 20t8.5 20t8.5 20q9 12 10.5 15.5l3.5 8.5q6 8 8 12l24 40.5t26 39.5l35.5 49.5t40.5 47.5
q4 6 10 13t12 15q7 7 13 14t13 12q13 11 18.5 16t16.5 6q20 1 33 -10.5t19 -28.5q-2 -18 1 -34t-2 -31q-9 -17 -17.5 -35l-16.5 -36q-9 -20 -18 -34t-17 -30q-6 -11 -13.5 -21t-12.5 -23q-5 -5 -8 -11.5t-10 -11.5q-5 -11 -12 -20.5t-15 -16.5l-23 -45t-25 -42q-5 -1 -8 -5
t-6 -9l-16 -19.5t-18 -18.5q-2 -7 -11.5 -16t-12.5 -14q-2 -3 -3.5 -6t-3.5 -6q-2 -4 -5.5 -7t-5.5 -6q-3 -8 -5 -9.5t-4 -3.5q-6 -9 -7 -9t-2 -1q-6 -11 -8 -12t-3 -3q1 -14 0 -19l-2 -10q2 -9 1.5 -20.5t0.5 -22.5t2.5 -20.5t4.5 -17.5q3 -9 11 -15.5t19 -5.5q4 1 11 4
t11 5q5 4 10 10t10 11q12 15 24 34l23 36q5 16 8 22t5 14q2 11 1.5 21t3.5 18q2 6 9.5 15.5t12.5 14.5q9 8 11 7.5t4 0.5q17 2 22 -1t16 -3q6 1 12.5 2.5t13.5 0.5q8 -1 15 -1.5t15 1.5q13 3 32 3q6 0 13.5 -0.5t15.5 1.5q9 1 18 4.5t17 1.5q7 -1 10.5 -8t2.5 -15
q-1 -5 -5 -12.5t-8 -8.5q-8 2 -9 1t-3 -1q-7 1 -12.5 3.5t-11.5 4.5q-14 2 -27.5 -1t-26.5 -7q-6 -2 -12.5 -4.5t-13.5 -4.5q-3 -1 -6.5 -1t-6.5 -2q-7 -2 -12.5 -3t-11.5 -3q-8 -2 -9 -4.5t-9 -4.5zM223 544q-23 -35 -44.5 -71.5t-42.5 -76.5q-3 -6 -5.5 -12.5l-5.5 -14.5
q-5 -6 -8.5 -16.5l-6.5 -19.5l-10 -25.5t-3 -23.5q12 8 20 22.5l16 28.5q5 5 9 11.5t9 12.5t9 12t9 11q14 20 24.5 43t23.5 46l12.5 22t11.5 22q5 13 10.5 25t9.5 25q3 15 7.5 20.5t5.5 13.5q-15 -12 -27 -26.5z" />
    <glyph glyph-name="c" unicode="c" horiz-adv-x="343" 
d="M416 230q10 -12 9.5 -17t-0.5 -11q-5 -6 -8 -12.5t-9 -11.5q-5 -4 -10.5 -5.5t-9.5 -6.5q-6 -2 -10 -5t-12 -2q-24 -24 -42.5 -39t-38.5 -29q-15 -13 -31.5 -24l-33.5 -22q-5 -5 -9 -9.5t-10 -7.5q-12 -12 -24.5 -21.5t-23.5 -19.5q-11 -8 -23.5 -11t-23.5 -8
q-19 -8 -29 -3q-11 -2 -18.5 -3.5t-18.5 1.5q-3 1 -6 3t-7 4q-10 4 -15.5 8.5t-9.5 8.5q-3 3 -7 8.5t-6 9.5q-5 8 -6.5 19.5t-4.5 22.5q-2 11 -6 22t-3 23q1 8 3.5 15.5t4.5 15.5q6 14 10 26t9 23q3 5 6.5 8t6.5 8q2 2 2.5 6t2.5 7l17 18.5t16 20.5q5 7 10.5 12.5t10.5 12.5
q6 8 8.5 9.5t4.5 4.5q6 6 11 12.5l10 13.5l14.5 15t15.5 13q9 5 18.5 9l20.5 9q5 2 9.5 5t9.5 5q6 2 11 3t9 5q6 -1 11 2t10 5q5 1 9.5 0t7.5 2q3 -2 6.5 -2t5.5 -2q4 -1 7.5 -5t4.5 -9q2 -15 -7.5 -31t-16.5 -24q-5 -8 -11 -13.5t-14 -10.5q-12 0 -24.5 -1.5t-22.5 0.5
q-2 -4 -5.5 -5.5t-1.5 -5.5q-34 -29 -60 -61.5t-41 -76.5q-5 -17 -10 -24.5t-5 -15.5q6 -21 20 -35.5t28 -16.5q16 -2 28.5 6t23.5 14q14 10 27.5 18l28.5 17q4 2 8 4.5t8 5.5q13 9 23.5 17.5t21.5 16.5q5 1 7.5 3.5t7.5 2.5q18 16 39 28.5l44 25.5q7 7 14.5 12.5t14.5 12.5
q7 0 10 3.5t9 3.5z" />
    <glyph glyph-name="d" unicode="d" horiz-adv-x="447" 
d="M344 86q8 0 10 -1t5 -1q4 0 11.5 4.5t15 10.5t14 12t10.5 9q9 2 18 10t17 18t14.5 20t12.5 16q24 24 33.5 35t12.5 15t3.5 3.5t5.5 -0.5q8 0 11.5 -7.5t6.5 -12.5q-2 -2 -2 -6t-2 -7t-6 -6t-7 -7l-10 -12q-12 -12 -20.5 -26l-16.5 -27.5t-16 -25t-18 -17.5
q-27 -17 -42.5 -36t-34.5 -30q-2 0 -2.5 0.5t-1.5 0.5q-4 0 -6.5 -2t-5.5 -2q-8 3 -14 5.5t-12.5 7.5t-14 14.5t-17.5 26.5q-5 8 -8 16.5t-8 17.5l-13.5 24.5t-5.5 33.5q0 10 2 30t4 32q-16 -16 -28.5 -38.5t-24.5 -41.5q-17 -26 -34.5 -48.5t-18.5 -35.5q-6 -6 -11 -14
t-8.5 -14.5t-5 -11t0.5 -2.5q-14 -23 -40.5 -32.5t-49.5 -9.5l-18 2t-17 7l-15 11q-16 8 -22 25t-6 37q12 31 14.5 56.5t11.5 48.5q14 37 39.5 66t53.5 53t53.5 43t40.5 37q7 1 16 6l19 10.5t20.5 9.5t21.5 4q12 0 18.5 -3t10.5 -7.5t5.5 -9.5t4.5 -10q6 16 10 33.5t11 31.5
q6 31 20.5 66t29 64.5t26 50t13.5 23.5q15 23 33.5 40.5t30.5 35.5q10 11 19.5 27.5t15.5 20.5q15 -4 22 -11.5t9 -15.5t1 -16t-1 -12q0 -16 -3 -32l-34 -71q-14 -26 -26.5 -53t-23.5 -55q-19 -36 -40.5 -63t-39.5 -58q-4 -11 -10.5 -20.5t-12.5 -19.5l-18 -43q-6 -8 -6 -15
q2 -5 2 -8v-5q0 -9 -0.5 -18t-0.5 -19q0 -26 1 -51.5t3 -48.5q-2 -4 -2 -5q0 -7 7.5 -14.5t9.5 -12.5zM248 329l-25 -16q-8 -3 -20 -14.5l-21 -19.5l-21 -19q-7 -13 -19 -22t-20 -20q-11 -14 -21.5 -33t-9.5 -32q-5 -18 -11 -31t-6 -29q0 -13 8.5 -13.5t12.5 -0.5
q12 8 24.5 21.5t24 28t20 28.5t12.5 25q11 19 25 40.5t31 38.5l26 42q2 5 4 9t2 9q0 7 -4 12q-4 0 -7 -1.5z" />
    <glyph glyph-name="e" unicode="e" horiz-adv-x="331" 
d="M169 285q-7 -9 -14 -17t-16 -15q-6 -11 -14 -20t-16 -17q-4 -8 -9 -12.5l-11 -9.5q-3 -5 -7.5 -10t-8 -10t-5.5 -11t1 -13q11 -2 22 3t19 9q8 5 16.5 8.5t15.5 8.5l26 26q7 6 12 13l11 15q2 10 8 20.5t5 20.5q-1 6 -3.5 10.5t-3.5 9.5q-10 0 -15.5 -3.5t-12.5 -5.5z
M8 221q2 1 8.5 8.5l14.5 17t15 17t10 8.5q3 5 5.5 8.5t7.5 6.5q8 15 21 24.5t25 22.5q19 8 38.5 20.5t43.5 13.5q11 -5 21.5 -3t19.5 -5q5 -9 9 -11.5t6 -5.5q4 -13 6 -16.5t3 -8.5q1 -15 2 -21.5t0 -12.5q-3 -27 -10 -51l-4 -12.5t-5 -11.5q-7 -9 -10.5 -15.5t-6.5 -10.5
q-12 -12 -21 -20q-9 -5 -18 -11t-20 -8l-9 -5.5t-10 -3.5q-10 -7 -20 -10.5t-21 -8.5q-6 -2 -13 -7t-14 -8q-6 -2 -14.5 -3.5t-13.5 -3.5q5 -11 4 -25t5 -25q13 -3 28.5 -4.5t29.5 0.5q5 1 11 3.5t12 3.5q11 2 21.5 5t18.5 8q29 10 56 27t47 37q12 8 26.5 22t22.5 26
q15 16 26.5 25t21.5 8q8 0 15.5 -9.5t-1.5 -20.5q-10 -6 -21 -18t-23 -17q-9 -6 -22.5 -22t-22.5 -24q-4 -4 -10.5 -9.5t-10.5 -10.5q-14 -12 -30 -22q-6 2 -9 -2t-8 -8q-3 -2 -6.5 -4t-6.5 -4q-8 -7 -17.5 -14t-19.5 -12q-20 -12 -40 -20.5t-39 -21.5q-6 -1 -11 -1.5
t-10 -1.5q-6 -2 -10.5 -2t-12.5 2q-18 5 -30 12t-24 20q-6 6 -13 11t-11 11q-3 5 -7 16t-7 23.5t-5 24.5t-2 18q2 4 4.5 14t5 21.5t4 21.5t1.5 14q1 1 5 8.5l8.5 16.5t7.5 16.5t3 9.5z" />
    <glyph glyph-name="f" unicode="f" horiz-adv-x="334" 
d="M13 -224q5 4 8.5 9t7.5 10t8 9.5t8 10.5q4 5 7 10t8 10q2 4 4.5 6.5t3.5 7.5q14 27 20.5 48.5t14.5 45.5q6 8 8.5 17t7.5 18q6 13 7.5 25t8.5 25q8 14 11 33.5t8 38.5q2 14 4.5 25t3.5 22q1 9 2.5 18t-0.5 17q-1 5 -4.5 8t-5.5 8q-1 4 0 6.5t-1 6.5q3 5 14 9.5t19 6.5
q6 -1 11 -2t7 -4q5 2 8 0t8 -3q3 0 6 1t6 1q17 -4 28.5 -1.5l24.5 5.5q8 2 16.5 3t15.5 3q5 2 8.5 4t7.5 3q5 2 9.5 1.5t9.5 0.5q6 1 11.5 3.5t12.5 0.5l26 7l25 7q6 -11 7.5 -13t1.5 -4q-1 -5 -6.5 -9t-10.5 1q-10 -4 -14 -6l-8 -4q-12 -4 -21 -6t-19 -9q-10 -1 -18.5 -3.5
l-19.5 -5.5q-9 -2 -18 -5q-21 -13 -37 -17t-30 -12q-7 -5 -11.5 -11t-2.5 -17q3 -13 -0.5 -20t-5.5 -15q-2 -7 -3.5 -13t-5.5 -12q-3 -10 -4 -18.5t-3 -16.5q-3 -11 -6.5 -21.5t-4.5 -20.5q0 -6 0.5 -12.5t0.5 -13.5q0 -9 -4 -20.5t-7 -21.5q-5 -14 -10 -29.5t-12 -29.5
q-6 -13 -10.5 -24.5t-10.5 -21.5q-23 -36 -48.5 -69t-53.5 -65q-7 -3 -12.5 -8l-10.5 -10q-7 -2 -11.5 -5.5t-9.5 -6.5q-11 -1 -22.5 -1.5t-16.5 6.5q-8 -2 -10.5 1t-7.5 8q-4 8 -5.5 16l-3.5 19q-1 5 -2 8.5t-1 8.5q-1 11 -1 22.5t2 24.5q1 7 3.5 13t3.5 14q2 10 2 19t1 19
q3 39 12 79.5t16 77.5q2 7 3 13t3 14q6 22 12 40t14 33q2 5 3 9.5t3 9.5q5 10 6 15t3 10q5 17 10.5 32t12.5 32q3 10 7 21l7 19t6.5 15t5.5 14q1 3 1 6t1 5q2 6 5 11.5t7 11.5l16 37.5l16 38.5q3 7 7 13.5t6 13.5q5 20 10.5 29.5t10.5 19.5l7.5 13.5t8.5 13.5l22 41t24 39
q18 13 28 29q14 10 24.5 23t22.5 24q9 8 17.5 17t18.5 17q3 3 6.5 5t5.5 6q5 1 11 7q6 5 13 11.5t12 13.5q8 2 16.5 11t18.5 11q10 -1 12.5 1.5t5.5 4.5q11 -18 11 -29.5t-5 -27.5l-4.5 -11.5t-5.5 -12.5q-4 -9 -6.5 -16.5t-5.5 -14.5q-1 -10 -5 -19.5l-8 -19.5
q-2 -5 -3 -10.5t-3 -11.5l-4.5 -6.5t-4.5 -7.5q-3 -4 -5 -7.5t-4 -6.5q-5 -5 -6.5 -8.5t-3.5 -7.5q-5 -8 -11 -16t-11 -17q-8 -11 -16.5 -21.5t-15.5 -21.5l-8 -14t-9 -12q-3 -4 -4.5 -7.5t-3.5 -5.5l-21 -27.5t-24 -24.5q-7 -13 -16 -21t-18 -18q-8 -4 -13.5 -10.5
t-10 -14.5l-9 -15.5t-11.5 -12.5l-10.5 -18t-13.5 -16q-5 -9 -10.5 -17t-12.5 -16q-5 -19 -12.5 -37t-12.5 -37l-4 -18.5t-5 -18.5q-1 -5 -3 -9.5t-3 -9.5q-2 -7 -2.5 -14t-2.5 -14q-2 -8 -1.5 -16t-0.5 -18q-2 -12 -1 -13t1 -3q0 -8 -3 -20t-4 -23q-2 -14 -5 -27l-6 -25
q-2 -5 -3 -9.5t-3 -9.5q-6 -14 -8.5 -23t-4.5 -17l-7 -18.5t-2 -20.5q1 -7 5.5 -13.5t4.5 -14.5zM306 590q-9 -6 -16.5 -12.5l-15.5 -13.5q-15 -14 -26 -27q-11 -14 -19.5 -29t-20.5 -26q-15 -29 -26.5 -47t-19.5 -39q-2 -9 -5.5 -16.5t-6.5 -15.5q-5 -11 -11.5 -21
t-1.5 -20q13 12 23 26.5t22 27.5q12 14 15 22q9 13 16.5 21t13.5 17q7 6 13 16q13 11 22 25.5t20 28.5q2 2 3 5t3 5q6 7 7 10.5t3 6.5q5 11 9.5 22.5t9.5 22.5q-5 6 -11 11z" />
    <glyph glyph-name="g" unicode="g" horiz-adv-x="427" 
d="M291 250q2 -2 5.5 3.5l5.5 8.5q2 5 3.5 10t3.5 10q6 11 15.5 23t14.5 23q2 2 4.5 3.5t4.5 4.5q8 1 11 2t6 3q11 -3 14 -17q-1 -8 -6.5 -12.5t-7.5 -11.5q-2 -4 -1.5 -8t-1.5 -8q-5 -17 -13.5 -32t-14.5 -32q-5 -10 -9.5 -20t-7.5 -21q-11 -20 -21 -42l-21 -45q9 2 16 7.5
t15 10.5l9 3.5l9 3.5q9 6 12.5 8t7.5 4q3 2 6 4.5t7 4.5q2 2 5.5 3t5.5 3q5 2 9 5t9 6q6 3 10.5 6t11.5 5q3 1 6 2.5t6 3.5q3 1 6 3t5 3q6 2 7 3t3 2q10 3 11.5 4t3.5 3q12 8 18 9.5t19 9.5q6 -1 11 -0.5t9 -3.5q-4 -19 -14.5 -25.5t-22.5 -11.5q-17 -15 -29 -23.5
t-31 -20.5q-12 -5 -21 -11q-9 0 -13.5 -3t-9.5 -6q-4 -2 -8.5 -3t-8.5 -3q-10 -6 -12.5 -7t-4.5 -3q-10 -13 -19 -17t-16 -12q-17 -5 -28 -16t-26 -18q-8 -23 -13.5 -46t-13.5 -45l-16.5 -46t-14.5 -47q-11 -19 -18 -41t-17 -44q-8 -6 -11.5 -17t-12.5 -18q-5 -11 -14 -18.5
t-17 -15.5q-2 -2 -4 -4.5t-4 -5.5q-12 -12 -26 -24.5t-25 -26.5q-11 -7 -20 -15t-18 -17l-8.5 -3.5t-7.5 1.5q-10 -3 -21 -1t-9 13q-6 5 -7 8.5t-3 7.5q4 8 0 14.5t-4 11.5q0 13 3 25q2 13 6.5 22.5l9.5 20.5q6 14 10.5 26.5l9.5 26.5q7 11 9.5 23.5t7.5 24.5q4 8 8.5 15.5
t5.5 15.5q8 15 17.5 27t16.5 27q26 37 60 64.5l69 53.5q4 5 5.5 6.5l2.5 2.5t3 2t7 6q2 1 2.5 4t3.5 6q8 22 19 49.5t16 45.5q-5 -2 -7.5 -7t-5.5 -8q-2 -3 -5 -5t-5 -4t-5 -4.5t-5 -5.5q-7 -6 -11.5 -10.5t-8 -8.5t-8 -8.5t-11.5 -10.5q-8 -11 -16.5 -20.5t-19.5 -15.5
q-15 -11 -31 -18t-30 -12q-7 -2 -13.5 -4.5t-11.5 -2.5q-2 -1 -5 -0.5t-6 0.5q-16 0 -27 4q-3 2 -5 3.5t-4 5.5q-2 2 -5 5.5t-5 6.5q-2 5 -2 10.5t-2 10.5q-2 10 -5 18.5t-1 17.5q1 3 2 5.5t0 5.5t-2.5 6t-2.5 6q-2 3 -3.5 6.5t-1.5 6.5q-1 5 1.5 10.5t0.5 9.5q3 7 5.5 14
t7.5 13q7 10 9.5 16.5t6.5 11.5q5 9 10.5 16t10.5 15q19 33 42 60q4 2 7 3t4 5q24 11 44 24q11 3 19.5 10.5t19.5 11.5q9 4 19 10t21 7q10 0 15 3l10 6q15 8 32 7q8 -8 16.5 -12t13.5 -13q2 -4 2.5 -10t1.5 -13q2 -5 3.5 -10.5t2.5 -10.5q1 -12 -0.5 -24t-0.5 -23zM238 292
q-4 -3 -8.5 -3t-8.5 -2q-2 -2 -4.5 -3.5t-4.5 -3.5q-9 -5 -19.5 -8.5t-18.5 -8.5q-5 -4 -8 -8.5t-8 -7.5q-6 -4 -12.5 -7t-11.5 -8q-3 -3 -4.5 -6t-6.5 -3q-11 -21 -27 -38t-26 -39q-5 -2 -6.5 -7t-4.5 -10q-11 -20 -8.5 -30.5t3.5 -20.5q6 -8 16.5 -4.5t18.5 8.5
q10 7 19.5 15.5l19.5 17.5q10 8 18.5 17.5l16.5 18.5q4 5 8 8t8 8q5 5 9 9.5t9 7.5q8 11 14.5 21t14.5 19q5 13 10.5 24t9.5 23q-2 5 -2 11.5t-5 9.5h-1zM157 -70q-3 -1 -5.5 -3.5t-6.5 -5.5q-10 -10 -19.5 -20.5t-17.5 -23.5q-9 -13 -20.5 -25t-15.5 -27q-11 -17 -19.5 -35
t-13.5 -40q-2 -12 -4 -19t-3 -14l12.5 12.5t11.5 12.5q2 2 3.5 5t3.5 5q12 17 25 33t24 33q5 6 9 11.5l8 11.5q18 25 28 53.5l21 58.5q-6 -6 -11.5 -10.5t-9.5 -12.5z" />
    <glyph glyph-name="h" unicode="h" horiz-adv-x="473" 
d="M48 76q23 20 42.5 43.5t42.5 47.5q5 5 10 12t10 15q4 6 10 11.5t10 10.5q3 5 7.5 8t9.5 7q5 5 9 8.5l9 7.5q9 7 17 14.5t19 12.5q6 1 9 4.5t7 7.5q5 -1 9 1t9 4q14 -3 22.5 -11l16.5 -16q7 -3 11 -5.5t8 -5.5q4 -8 7 -15t3 -16q0 -6 -1 -12l-2 -12q-4 -12 -3 -13t1 -3
q1 -8 -5.5 -16.5t-3.5 -17.5q1 -3 -2.5 -15t-2.5 -15q2 -6 2 -15.5t5 -13.5q10 -4 14 -4h7q12 6 30 20.5t27 24.5q10 8 18 15.5t22 14.5q12 8 16 12.5l13 14.5q3 3 7.5 6t8.5 7q3 3 8 6.5t8 4.5h11.5t9.5 -4q2 -8 0 -14t-5 -11q-4 -6 -9 -11q-4 -7 -9 -13l-11 -11.5
t-14 -10.5q-5 -6 -9.5 -10.5l-9.5 -9.5t-9 -11t-9 -11l-21.5 -17.5t-19.5 -19.5q-5 -2 -8 -4.5t-7 -4.5q-10 -3 -19 -10l-18.5 -14.5t-19.5 -13.5t-22 -5q-11 -5 -19 -0.5t-16 9.5q-11 7 -21 16t-12 25q-2 26 6 49t12 46q0 2 1.5 7.5t2 12t1 12t-0.5 7.5q-2 2 -2.5 7
t-8.5 10q-5 3 -4 1t-8 -2q-8 -3 -14 -8t-13 -10q-10 -11 -22.5 -20t-21.5 -21q-8 -9 -15 -18t-16 -18l-27 -30l-28 -29q-7 -8 -13 -16t-13 -16q-12 -15 -26 -29q-6 -10 -17 -19t-22 -13q-3 2 -6.5 0t-6.5 -2q-12 5 -14 5.5t-3 4.5q-10 6 -7.5 19.5l4.5 23.5q10 45 27.5 89.5
t27.5 87.5q5 17 10 31.5t12 30.5q7 14 9.5 28.5t9.5 28.5q4 7 7 15t6 15q11 20 21 49.5t21 52.5q12 32 25 62t29 59q5 20 12.5 37.5t18.5 34.5q10 13 13.5 21t8.5 15q12 14 27 22.5t26 22.5q8 4 15.5 6t14.5 5q2 -2 2.5 -5.5t0.5 -6.5q2 0 1 -6t0 -10q0 -15 -2.5 -20
t-4.5 -11q-1 -6 -1 -10.5t-1 -8.5q-3 -9 -2.5 -10.5t0.5 -3.5q0 -4 -1 -9t-1 -10q-1 -11 -5.5 -23t-7.5 -22q-6 -7 -7 -11t-4 -5q-6 -17 -11 -33t-15 -30q-4 -11 -10.5 -21.5t-11.5 -20.5q-2 -5 -4.5 -9.5t-4.5 -9.5l-14.5 -26.5t-17.5 -24.5l-38 -76.5l-39 -74.5
q-7 -11 -10 -19q-3 -7 -3.5 -12.5t-5.5 -10.5l-5.5 -17t-7.5 -15q-4 -21 -12.5 -37.5t-13.5 -36.5z" />
    <glyph glyph-name="i" unicode="i" horiz-adv-x="267" 
d="M231 498q2 -3 2 -6t3 -5q-2 -9 -3.5 -18.5t-1.5 -18.5q0 -4 2.5 -7t2.5 -6q-5 -12 -7.5 -14t-2.5 -5q-5 -2 -7.5 -6t-8.5 -4q-2 -3 -4.5 -4.5t-3.5 -5.5q-16 -7 -36 1q-5 9 -14 13q-13 19 -1 45q2 5 4.5 10.5t4.5 7.5q11 8 16 10q4 2 8.5 5t10.5 5q2 1 5.5 1t7.5 2
q4 1 7 2t6 1zM76 56q9 4 22 3t21 4q4 3 7 6t7 2q16 6 27 12t24 9q3 1 7.5 4t6.5 5q16 5 23 10l13.5 10l13 10.5l16.5 13.5q14 8 23.5 14t20.5 15q2 5 5.5 7.5t5.5 6.5q18 0 20 -14q-5 -11 -13.5 -18t-15.5 -16q-8 -5 -13 -9t-10 -12q-1 0 -6 -4.5t-6 -4.5q-6 -7 -8.5 -9
t-4 -2.5t-4 -2.5t-9.5 -8q-7 -11 -18 -18q-21 -20 -45.5 -34.5t-44.5 -28.5q-4 -2 -7 -5.5t-7 -6.5q-5 -4 -15.5 -8l-18.5 -7q-6 -4 -11 -6q-22 -1 -34 7l-20 11t-12 13q-11 5 -13.5 18.5t-5.5 26.5q-1 5 -2 11.5t0 13.5q2 11 3 23.5t5 21.5q5 11 5.5 22t5.5 22q6 10 5.5 11
t0.5 3q2 3 4.5 6t4.5 7l6 15q4 7 9 14t8 17q2 6 5.5 11l7.5 11q3 6 5 12.5t5 13.5q3 8 7.5 16t9.5 16q4 8 7 12t12 5q4 1 9 -0.5t10 0.5q13 6 18 6t7 3q11 -1 16 -7t12 -12q-6 -29 -13.5 -44.5l-16.5 -32.5q-5 -8 -10 -18l-9 -18q-5 -11 -10.5 -19.5t-9.5 -19.5
q-2 -5 -4.5 -9.5t-4.5 -9.5q-2 -7 -5.5 -12.5l-6.5 -10.5l-6 -12t-5 -13l-6 -14.5t-2 -4.5q-2 -11 -6 -18t3 -10z" />
    <glyph glyph-name="j" unicode="j" horiz-adv-x="247" 
d="M139 431q5 6 6 8.5t2 6.5q8 4 15.5 6t14.5 7q15 10 21.5 13.5t12.5 5.5q7 -4 11 -6l8 -4q2 -6 5.5 -12t-1.5 -15q-11 -7 -11.5 -12t0.5 -8l-6 -10l-6 -10q-10 -5 -13 -11t-8 -11q-7 -2 -12 -3t-13 -2q-18 3 -25 19q-4 13 -1 38zM69 62l15 6.5t15 7.5q16 8 24.5 14
l16.5 12l16.5 12t20.5 12q3 4 7.5 6.5t8.5 7.5q10 8 14.5 12l8 7l8.5 7t16 11q14 16 32 28.5t32 27.5q9 2 12.5 -6.5t0.5 -14.5q-2 -5 -6.5 -7.5t-8.5 -7.5q5 -14 -2.5 -21l-15.5 -14q-6 -8 -11 -10q-12 -17 -28.5 -27.5t-33.5 -22.5q-11 -8 -15 -11.5t-6.5 -5t-7.5 -4
l-19 -9.5q-15 -11 -30.5 -20.5t-32.5 -16.5q-13 -8 -25.5 -17t-25.5 -20q-3 -3 -7.5 -6.5t-6.5 -6.5q-7 -10 -10 -21.5t-10 -21.5q-4 -14 -8 -26t-8 -26l-4 -21t-6 -21q-5 -8 -6 -10.5l-3 -7.5q-8 -13 -8.5 -17.5t-2.5 -9.5q-2 -7 -5 -13.5t-5 -14.5l-3.5 -12.5t-7.5 -7.5
q-2 -5 -4 -9.5t-5 -9.5l-10.5 -10.5t-6.5 -11.5q-3 -13 -12 -19.5t-11 -16.5q-16 -17 -31 -35t-35 -32q-3 -7 -8.5 -11t-8.5 -12q-5 -3 -8.5 -3.5t-8.5 -1.5q-18 -3 -23.5 3.5t-12.5 11.5q-8 24 -14 51.5t-7 55.5q-2 5 -1 10t0 11q-1 4 -2 7.5t1 6.5q-3 12 3 29t12 28
q3 11 7 22.5t13 16.5q11 20 25 35.5t30 29.5l34 33.5t36 24.5q13 11 27.5 19.5t27.5 19.5q2 14 8 26t10 23q8 21 19 46l11 21t9 16q2 11 9.5 21t12.5 21q9 20 15 41t16 42q1 6 4.5 11t5.5 13q2 4 2 7.5t2 7.5q7 10 9.5 15t6.5 7l9 -3.5t9 -2.5q2 -9 12.5 -11t20.5 -3
q5 -4 9.5 -6.5t7.5 -7.5q1 -6 -0.5 -12.5t-3.5 -10.5q-2 -6 -6 -10.5t-8 -9.5q-3 -5 -6 -11.5t-6 -11.5q-5 -10 -9.5 -20t-8.5 -21q-2 -4 -3.5 -7.5t-3.5 -7.5t-2.5 -7.5t-2.5 -7.5q-4 -10 -6.5 -15.5t-7.5 -15.5q-4 -8 -5.5 -15.5t-4.5 -14.5q-3 -5 -6 -9.5t-4 -12.5z
M-96 -85q-7 -4 -12.5 -9t-12.5 -9q-10 -16 -24 -29t-25 -28q-2 -3 -4.5 -6t-4.5 -5q-3 -7 -3.5 -14.5t-2.5 -13.5q-1 -5 -4 -9t-6 -9q-8 -18 -8.5 -38t-5.5 -41q-3 -11 -0.5 -14.5t5.5 -3.5q2 0 6.5 4.5l6.5 6.5q4 3 7 6.5t5 5.5l18 23t16 22q3 2 5.5 6.5t4.5 10l4 10.5t4 8
q4 5 7.5 15t5.5 15l18 35t15 36l6.5 18t4.5 20q2 2 3.5 6.5t3.5 9.5q-10 -8 -18.5 -14t-14.5 -15z" />
    <glyph glyph-name="k" unicode="k" horiz-adv-x="452" 
d="M116 242q7 3 15 8.5t14 10.5q12 9 22 18t22 18q7 5 12.5 9.5l10.5 8.5q5 3 9.5 6t9.5 6l24 10q3 1 6.5 3.5t7.5 2.5q8 1 14 -3.5t11 -6.5q9 -5 17.5 -9t15.5 -11q5 -9 11.5 -17t10.5 -20q1 -3 1 -8v-10q1 -7 3.5 -14t4 -14t1 -14.5t-5.5 -14.5q-29 -17 -61 -29
q-8 -6 -16.5 -10.5t-16.5 -9.5q-8 -11 -19.5 -18t-19.5 -16q4 -13 10 -22t14 -17q3 -5 7.5 -8.5t9.5 -5.5t16 -3.5t16 -0.5l14 4.5t15 5.5q14 1 20.5 9.5t14.5 14.5q5 4 10 6.5t10 8.5q3 8 9 13q13 13 24 18q7 10 18 12t19 8l14 10q7 5 13 10t13 10q6 4 11.5 6.5t8.5 7.5
q4 2 7 3l6 2q5 -7 6.5 -9.5t1.5 -5.5q-1 -5 -4 -6.5t-4 -6.5l-22.5 -14.5t-21.5 -16.5q-1 -5 -2.5 -7.5t-3.5 -6.5q-14 -10 -26 -22t-26 -23q-5 -3 -9.5 -7t-10.5 -7l-30 -27.5t-32 -24.5q-5 -3 -10 -6.5t-12 -5.5q-6 -5 -12.5 -6t-12.5 -4q-12 -5 -20.5 -10.5t-20.5 -7.5
q-6 -2 -11.5 0t-13.5 1q-7 4 -14 5q-1 3 -7.5 12.5t-8.5 11.5q-4 13 -8 18.5l-8 11.5q-5 8 -6.5 17.5t-6.5 17.5q1 5 -1.5 7.5t-1.5 6.5q-12 9 -14.5 12.5t-4.5 7.5v13t2 4q6 6 13.5 10.5t12.5 10.5q5 1 8.5 4t7.5 6l23 15.5t25 15.5q10 5 12.5 17t4.5 23q-6 10 -8.5 10
t-4.5 2q-3 2 -5 5.5t-6 3.5q-3 -1 -8 -4t-8 -5q-17 -10 -34 -17.5t-33 -17.5l-16.5 -8t-13.5 -7q-2 -1 -4.5 -3.5l-4.5 -4.5q-8 -17 -12.5 -24.5t-8.5 -16.5q-1 -3 -2.5 -5.5t-3.5 -4.5q-5 -8 -8 -16t-9 -15q-2 -12 -7.5 -25.5t-9.5 -26.5q-3 -12 -7.5 -22t-16.5 -13
q-5 -8 -5.5 -12t-5.5 -12q-4 -2 -7.5 -2.5t-8.5 -3.5q-1 0 -5 -3t-8.5 -6t-8.5 -6t-5 -3q-8 -2 -10.5 0.5t-6.5 0.5q-6 12 -10 15l3.5 14.5t5.5 11.5l7 9.5t7 10.5q2 4 1.5 7.5t1.5 7.5q2 5 5.5 10.5l6.5 10.5q4 10 8.5 19t8.5 20q3 11 5 21.5t7 21.5t10 23.5t7 23.5
q1 5 3 8t4 8l4.5 11.5t5.5 12.5q5 6 5.5 9t2.5 5q2 3 2.5 5.5t2.5 4.5q2 5 5 10t5 10q3 4 5 13q2 2 3.5 5t1.5 5q3 11 4.5 21t7.5 21q4 14 5.5 20.5t8.5 16.5q3 8 7 16.5t7 16.5l6 15.5t5 16.5l11 22.5t9 17.5q8 16 11.5 24.5t8.5 15.5q3 8 4.5 14.5t4.5 12.5q9 12 11 19
t5 13q10 23 23 47t31 42l10.5 10t9.5 12q8 8 16 13.5t15 12.5q13 -3 15.5 -4.5t4.5 -1.5q5 -7 7.5 -19.5t1.5 -23.5q0 -7 -3 -14t-3 -14q-1 -4 -0.5 -7t-2.5 -5q-2 -11 -6 -20.5l-8 -18.5q-15 -36 -31.5 -61t-31.5 -56q-7 -11 -12.5 -21.5t-10.5 -24.5q-6 -12 -13 -24
t-17 -22q-6 -11 -10.5 -21.5t-12.5 -20.5q-2 -7 -5 -12.5t-8 -11.5q-4 -8 -7.5 -14t-5.5 -15l-10.5 -26.5t-8.5 -24.5z" />
    <glyph glyph-name="l" unicode="l" horiz-adv-x="268" 
d="M322 236q11 -3 14.5 -7t3.5 -8q-8 -11 -9.5 -14.5t-6.5 -5.5q-13 -20 -29.5 -35.5t-30.5 -34.5q-5 -5 -9 -10t-9 -10q-11 -8 -20 -17.5t-19 -17.5l-9.5 -7.5t-9.5 -8.5t-9 -8l-9 -7l-12 -14t-12 -15q-11 -5 -20 -12t-21 -12q-5 -3 -9.5 -9.5t-11.5 -8.5q-8 -3 -17 -1.5
t-15 4.5q-5 4 -8 5t-5 1q-9 13 -13 28.5t-9 32.5q-2 5 -3 10.5t-2 12.5q-1 4 -1.5 8t-2.5 9l-4 10.5t-3 11.5q-2 12 -1.5 23.5t2.5 22.5q6 33 17.5 63t23.5 57q2 11 5.5 19t6.5 18q5 7 7 16t5 18q3 8 7.5 17.5t6.5 18.5q3 10 5.5 20t6.5 18l15 40t15 38l4 12t6 11
q2 6 5 10.5t6 9.5q0 5 3.5 7.5t5.5 6.5q5 8 7.5 16t7.5 16l12 15l4 8t6 7q11 18 24 36l27 38q9 14 20 26.5t23 24.5q4 5 9.5 11t11.5 7q9 1 20 -2q3 -5 5.5 -10.5t4.5 -12.5q2 -31 -2 -60t-9 -57q-1 -5 -0.5 -9.5t-0.5 -9.5l-5 -15.5t-5 -17.5q0 -14 -6 -25t-8 -22
q-3 -2 -3.5 -6.5t-3.5 -6.5q-2 -11 -6.5 -20t-7.5 -18q-15 -21 -30.5 -40.5t-29.5 -40.5q-17 -26 -36.5 -50t-36.5 -50q-13 -11 -22 -25t-23 -25q-5 -20 -9.5 -43.5l-9.5 -47.5q-1 -7 -3 -13.5l-4 -13.5q-2 -8 -1 -17t-3 -17q2 -5 2.5 -11.5t3.5 -11.5q2 -3 5.5 -6t6.5 -3
q7 4 8 3.5t3 0.5q5 3 10 8l9 9q5 2 7.5 4.5t5.5 4.5t5.5 3t4.5 3q14 15 27 22.5t21 18.5l18 11q6 3 10.5 8.5t11.5 8.5q2 3 4 5t4 5l23.5 16t24.5 16q2 5 6.5 8t7.5 6t5 6.5t7 4.5q1 5 4.5 7t6.5 7zM267 609q-9 -2 -12.5 -9t-6.5 -16q-4 -8 -6.5 -12t-1.5 -12
q-31 -51 -56.5 -107l-51.5 -113q20 20 37.5 48t36.5 48q14 34 31 63.5t26 66.5q-4 12 1 21.5t4 21.5h-1z" />
    <glyph glyph-name="m" unicode="m" horiz-adv-x="701" 
d="M68 127q5 1 8 4.5t7 6.5q3 2 6.5 4t6.5 4q12 9 22.5 20t21.5 19q13 15 26.5 27.5t24.5 28.5q15 11 30 26q8 5 15.5 11.5t16.5 11.5l11 13t14 12q8 8 17.5 12t17.5 12q15 8 27 2.5t19 -13.5q2 -5 5 -9.5t7 -9.5q2 -3 4 -5.5t2 -7.5q0 -12 -3 -23t-5 -22q-2 -14 -2.5 -27.5
t-4.5 -27.5q6 -8 9.5 -17t9.5 -15q4 1 9 8q5 4 11.5 7.5t11.5 8.5l14.5 14t13.5 14q7 7 14 13l15 13q8 8 14.5 16.5t14.5 16.5q3 4 6.5 5.5t5.5 6.5q8 4 13.5 11t15.5 10q10 1 13 0t9 -7q5 -4 7.5 -10t7.5 -10q5 -10 7.5 -14.5t6.5 -7.5q4 -8 1.5 -16t-4.5 -16
q-1 -12 -2 -15.5t-2 -8.5q-6 -35 -18 -68q1 -8 4 -14.5t2 -17.5q6 -1 11.5 0t9.5 2q10 4 20 9.5t20 12.5q13 10 27 19.5t27 19.5q5 4 8 7.5t8 7.5q10 8 19.5 13l19.5 10q5 3 8 6l7 7q5 5 14 10.5t17 9.5q14 1 14.5 -4.5t1.5 -9.5q-13 -9 -24.5 -18.5l-23.5 -19.5
q-3 -2 -5.5 -3.5t-7.5 -3.5q-3 -2 -5.5 -5.5t-6.5 -5.5q-6 -5 -12 -9.5t-11 -9.5q-7 -5 -13 -10t-11 -10t-9 -11t-10 -11q-5 -2 -8.5 -5t-7.5 -6q-2 -6 -3 -10.5t-6 -9.5q-7 -6 -9.5 -9.5t-4.5 -5.5q-3 -2 -7 -3.5t-8 -3.5q-5 -3 -9 -7t-9 -8l-13.5 -8.5t-14.5 -5.5
q-10 -7 -15 -6.5t-10 -0.5q-2 -1 -4.5 2t-5.5 3q-7 6 -10 5t-7 1q-10 11 -10 17t-1 13l-4 30.5t-3 32.5q0 7 1.5 13t2.5 13q0 4 -1 7.5t-1 6.5q1 8 3 15t1 14q-13 -15 -20 -21.5t-13 -14.5q-14 -8 -26 -17.5t-27 -14.5q-14 -14 -27 -25t-27 -25q-8 -10 -16.5 -18t-19.5 -14
q-7 -2 -11 -2.5t-8 2.5q-21 12 -25 31t1 42q-3 6 -2 13.5t2.5 15t3 14t-0.5 10.5q3 15 8 31t7 31q5 7 1.5 11t-6.5 7q-17 -10 -32.5 -23.5l-31.5 -27.5l-15.5 -13.5l-15.5 -13.5l-16 -13.5t-14 -14.5q-7 -9 -10.5 -12t-6.5 -5q-5 -3 -8 -6t-6 -5q-4 -3 -8 -4.5l-9 -3.5
q-6 -4 -12.5 -10.5l-11.5 -11.5t-9 -8t-8 -8q-7 -10 -14.5 -18t-14.5 -17q-1 -5 -5.5 -9.5l-9.5 -9.5q-4 -4 -8.5 -9t-9.5 -7q-3 -1 -7 -1.5t-8 -2.5q-6 -2 -13 -5t-15 -2q-7 1 -12 1.5t-10 4.5q0 8 -5 11q2 12 6.5 24t6.5 23q7 10 11.5 22.5t10.5 24.5q5 14 10.5 26
l10.5 24q4 12 7 22t8 18q6 10 7 15q4 5 7.5 13.5t3.5 13.5q6 7 8 17t6 19l3.5 7t2.5 8t0.5 9.5t2.5 9.5q4 5 8 8.5t8 8.5q5 1 7 5t6 6q12 4 12.5 5t2.5 2l15 7.5l7 3.5t6 2.5t6 2.5q2 2 8 6t8 6q10 -4 17 -12.5t4 -22.5q-1 -5 -3 -9.5t-4 -8.5q-2 -5 -2.5 -9.5t-2.5 -8.5
q-7 -12 -9 -18.5t-5 -12.5q-2 -3 -3.5 -6l-3.5 -7q-3 -8 -5.5 -13t-7.5 -10q-3 -4 -6 -7t-6 -8q-7 -9 -14 -20t-15 -20l-10.5 -20t-10.5 -21z" />
    <glyph glyph-name="n" unicode="n" horiz-adv-x="437" 
d="M80 123q8 5 13 13t12 16q13 15 28 25q7 10 17.5 15.5t16.5 16.5q2 3 3.5 6t3.5 6q18 25 41 44l11.5 10t13.5 10q9 5 17.5 13t18.5 12q7 3 13 4.5t13 3.5l12.5 3.5t12.5 -0.5q16 -7 24 -27q2 -5 -1.5 -21.5t-9 -36t-11.5 -37.5t-8 -26t-1 -8.5t1 -2.5q-2 -5 -3 -9t-2 -9
q-2 -8 -3 -21.5t1 -21.5q11 1 11.5 2t2.5 1q3 1 6.5 0.5t6.5 0.5q11 3 20 8.5t17 13.5q18 8 33 16q14 10 22.5 14.5t25.5 12.5q6 7 17.5 12.5t19.5 12.5q2 2 5 5.5t6 1.5q5 -5 6.5 -10.5t0.5 -7.5q-8 -8 -8.5 -12t-2.5 -6q-5 -5 -15 -9q-9 -4 -10.5 -6.5t-3.5 -4.5
t-5.5 -4.5t-5.5 -4.5q-2 -3 -5.5 -3.5t-6.5 -1.5q-6 -5 -10 -9l-9 -9q-8 -8 -10 -11.5t-11 -9.5l-10 -6l-10 -6q-14 -7 -28 -17l-28 -20q-10 -6 -20.5 -10.5t-19.5 -10.5q-4 0 -5.5 0.5t-5.5 -1.5q-5 3 -10 0.5t-10 -0.5q-10 8 -13.5 10t-5.5 5q-2 5 -1.5 11t-2.5 10
q0 22 1.5 42t6.5 42q1 7 4 19.5t5 24.5t3 21t-2 11q-11 -6 -22.5 -18t-21.5 -20q-8 -6 -15.5 -11t-15.5 -11q-7 -5 -12 -10t-11 -12l-13 -13.5t-14 -12.5q-4 -4 -7.5 -6.5t-6.5 -5.5l-9.5 -9.5t-11.5 -7.5q-6 -8 -15.5 -18t-19 -21.5l-18.5 -22.5t-14 -20
q-12 -10 -25.5 -17.5t-32.5 -1.5q-10 6 -13 10t-7 6l2 21t6 21q1 2 2.5 4.5t3.5 5.5q5 9 6.5 20t6.5 21q6 10 7.5 16.5t4.5 11.5q2 5 5.5 9.5t5.5 9.5t7 11.5t7 11.5q3 11 7 22t9 22l4 13.5t5 12.5l10 21.5l10 21.5q3 6 5.5 10.5t6.5 9.5q3 5 5.5 10t5.5 10t5.5 11.5
t7.5 12.5q7 8 11 15t13 9q4 -2 8.5 0t9 3.5t8.5 2t7 -3.5q13 -8 19 -14t8 -11q5 -9 1 -18.5t-14 -16.5q-4 -17 -14 -32t-18 -29l-4 -10l-4 -10l-12.5 -28t-14.5 -27q-4 -8 -7 -13t-6 -8.5t-5 -8.5z" />
    <glyph glyph-name="o" unicode="o" horiz-adv-x="381" 
d="M497 289q5 -1 6.5 -4t5.5 -3q1 -5 -0.5 -8t-3.5 -5.5t-3.5 -5t-0.5 -6.5q-9 -6 -22 -7.5t-20 -10.5q-17 -8 -36.5 -10.5t-40.5 -6.5q-10 -7 -13.5 -8t-7.5 -3q-10 4 -21 4t-22 3q-6 -2 -11.5 -2t-11.5 -2q-4 -8 -4 -18t-3 -18l-6 -12q-1 -5 -1.5 -9.5t-2.5 -9.5l-4.5 -7
t-2.5 -9q-7 -8 -10 -18.5t-11 -17.5q-3 -10 -9.5 -16t-12.5 -14l-19.5 -26t-22.5 -19q-5 -8 -12 -11q-6 -6 -8 -10q-9 -5 -20 -12t-23 -10q-17 -4 -33 1t-30 14q-9 -1 -14.5 3.5t-13.5 6.5q-11 10 -24 18t-19 22q-2 11 -4.5 22l-4.5 20t-0.5 19t0.5 20q0 11 -0.5 18.5
t4.5 18.5q6 13 8 21.5t4 14.5q3 5 6 11t7 11q6 9 14 18t16 17q6 8 11 13q8 8 17 15t18 16q2 3 5 5l6 4q10 6 18.5 10l19.5 9q8 4 15.5 5.5l17.5 3.5h12t10 2q-3 8 7 11t15 2q10 0 16 -4.5t11 -10.5q11 -8 22 -21q2 -2 5 -3t5 -3q4 -5 5.5 -11t6.5 -11q3 -2 6 -5t4 -8
q5 -2 9.5 -3.5t9.5 -2.5q5 -2 10.5 -1t12.5 0q5 -1 9 -2.5t9 -1.5q8 1 16.5 4t19.5 1q15 -4 31.5 3t33.5 9q4 0 7 0.5t7 0.5q5 4 13 6t17 4zM211 259q-10 9 -11.5 11.5t-3.5 3.5q-4 4 -10 5t-11 2q-16 3 -26.5 -3.5l-20.5 -12.5q-16 -10 -28 -25l-6.5 -11t-5.5 -13l-7 -14.5
t-5 -15.5q-5 -10 -6 -16.5t-2 -11.5q-1 -10 -3.5 -21t-2.5 -19q1 -3 3 -8t4 -7l4.5 -11t4.5 -9q5 -7 13 -9t18 -5q11 -6 15 -5t6 1q13 2 23 11t20 14l17.5 25.5t17.5 27.5q3 4 5 9t4 9q7 8 6.5 9t0.5 3q7 15 6 23t0 16q-5 11 -8.5 24t-10.5 23z" />
    <glyph glyph-name="p" unicode="p" horiz-adv-x="393" 
d="M271 116q17 5 34 9t35 6q16 1 33 6q7 2 14 4.5l13 4.5q7 2 13.5 3.5t11.5 2.5q8 -6 7.5 -6.5t1.5 -2.5l-8 -14q-4 -3 -9.5 -4t-10.5 -3q-4 -2 -6 -4t-4 -3q-4 -1 -6.5 0.5t-4.5 2.5q-24 -16 -55 -22t-59 -15l-20 -10.5t-21 -12.5q-8 -16 -22.5 -31t-29.5 -26l-6.5 -4.5
t-5.5 -3.5q-7 -3 -15.5 -5t-15.5 -4q-2 -2 -5 -4t-5 -2q-6 -1 -12 2t-13 4q-5 10 -6 12.5t-4 3.5q-3 11 -11.5 19t-13.5 19q-2 4 -3.5 8.5t-1.5 8.5q1 11 9 19t16 13q6 -9 10.5 -7t7.5 4q5 2 8.5 2.5t6.5 1.5q8 2 16 3.5t16 2.5q10 1 17 -0.5t16 0.5q5 9 12.5 17l14.5 15
q5 12 13 26l16 27l9 18q2 2 3.5 4t3.5 6q2 8 1.5 15.5t-1.5 16.5q-9 5 -19 15q-6 -2 -11.5 0t-11.5 0q-3 -1 -6 -3t-7 -4q-9 -5 -19.5 -9t-16.5 -12q-11 -11 -18 -19l-15 -17q-10 -8 -12.5 -11.5t-4.5 -5.5q-6 -6 -12 -11t-11 -11q-2 -3 -5.5 -5.5t-5.5 -5.5
q-6 -7 -10.5 -15t-9.5 -16l-10 -16l-10 -16q-11 -31 -25 -60.5t-25 -61.5q-2 -11 -3 -11.5t-1 -2.5l-3.5 -14.5t-4.5 -12.5q-2 -8 -6 -16.5l-8 -16.5q-6 -14 -12 -30.5l-12 -31.5q-5 -11 -8.5 -22t-7.5 -22q-3 -6 -3.5 -12t-2.5 -12q-3 -11 -7.5 -23t-5.5 -23
q-15 -14 -20 -24q-11 -11 -23 -19.5t-27 -14.5h-11.5t-12.5 1.5t-11 4.5t-5 9q-1 9 0.5 23t6.5 24q4 11 8.5 21t8.5 17q6 25 15 44q5 11 10 20.5t9 20.5q2 7 3 15t6 14q7 17 17.5 32l21.5 30q5 8 9 16.5t9 16.5q9 15 15 32t17 31q5 11 10 20.5l10 19.5q2 5 3.5 10.5
t3.5 10.5q6 9 11 19l18.5 39.5t21.5 38.5q1 11 5.5 20t8.5 20q3 8 4.5 17t3.5 17q2 7 7 14t9 15q2 3 4 6.5t4 6.5q3 6 4.5 10.5t5.5 9.5q11 13 15.5 15.5t10.5 6.5q20 1 25 -9.5t9 -21.5l-4 -16t-4 -19l17.5 15t17.5 16q17 10 33 21.5t36 19.5l10.5 4t10.5 2t8.5 -2.5
t9.5 -3.5q5 -5 11.5 -9.5t11.5 -10.5q4 -5 6 -12l4 -14t5.5 -14t4.5 -13q0 -5 -1 -10t-1 -10q0 -3 0.5 -6t0.5 -8q-1 -11 -8 -25t-12 -25q-4 -8 -7 -15t-7 -15l-9 -20z" />
    <glyph glyph-name="q" unicode="q" horiz-adv-x="377" 
d="M271 308q8 6 13 13.5l10 14.5q6 2 9.5 5.5t8.5 4.5q12 2 24 -7t15 -17q1 -6 -2 -11.5t-2 -10.5q-6 -6 -6 -15l-17.5 -34t-12.5 -37q-6 -30 -18.5 -56.5t-21.5 -52.5q-13 -26 -31 -53q-8 -10 -13 -20l-11 -21l-10 -21.5l-10 -21.5q-8 -14 -12 -30q-8 -29 -19.5 -58.5
t-24.5 -56.5q-7 -15 -11.5 -32t-9.5 -34q-4 -8 -7.5 -17t-7.5 -18q-4 -8 -7 -16t-8 -16q-4 -17 -13 -31.5t-20 -26.5q-3 -4 -10 -8t-12 -5q-9 -1 -19.5 3.5t-16.5 9.5q-7 5 -11 9.5t-2 14.5q2 8 6.5 16t8.5 16l6 18l7 20q11 25 25 52.5t28 47.5l36 62t31 57q6 22 18.5 42
t18.5 43q5 6 7.5 13.5t5.5 14.5q2 5 3.5 9.5t1.5 8.5q0 6 -4.5 2t-9.5 -8q-5 -3 -9.5 -7t-10.5 -6q-4 -4 -4.5 -5.5t-2.5 -3.5l-15.5 -17t-13.5 -20q-5 -4 -9.5 -9t-11.5 -7q-4 -8 -15 -9.5t-22 -0.5q-10 1 -19.5 0.5t-16.5 1.5q-9 6 -10.5 6t-2.5 1q-11 12 -16 18t-7 13
q-1 2 -0.5 5t-1.5 6q-2 8 -4 18t-2 21q0 16 1 34t3 37q3 10 4.5 16.5t3.5 12.5q3 11 9 21l12 20q14 18 29 32l15.5 15l15.5 15q5 4 8 7.5t7 7.5l9 5.5l9 5.5q4 2 8 6.5t8 7.5l13.5 9.5t11.5 9.5q8 3 15 8.5t15 8.5t18.5 4.5t20.5 -0.5q10 -5 13 -4.5t5 -0.5q8 -2 9.5 -9
t5.5 -12l11 -11.5t11 -12.5zM218 259q-3 -1 -7 -2l-8 -2q-6 -1 -12 0.5t-11 1.5q-8 -1 -21 -3t-18 -4q-8 -3 -13 -10t-13 -2q-2 -3 -3.5 -5t-2.5 -5q-8 -5 -12 -12.5t-9 -15.5l-10 -18t-7 -20q-4 -7 -9 -14.5t-7 -15.5q-2 -6 -4 -13.5t-1 -15.5q0 -3 1.5 -6t2.5 -7
q0 -8 1.5 -11.5t3.5 -6.5q2 -4 3 -8t3 -7q5 -2 10 -7.5t13 -3.5q7 2 16 10.5l14 13.5q8 8 13 15t11 14q11 11 20 21.5t19 20.5q4 3 8.5 5.5t7.5 7.5q6 10 7.5 11t2.5 3q3 4 5 9t5 10q9 17 19 33t16 35q-8 1 -17 2t-17 2z" />
    <glyph glyph-name="r" unicode="r" horiz-adv-x="390" 
d="M291 79l6 7.5t6 4.5q7 15 15.5 24.5t17.5 18t19.5 16t23.5 18.5q5 0 8.5 3.5t8.5 5.5q7 6 11.5 9t7.5 8q12 6 21.5 15t20.5 17q9 2 17 -2q4 -8 3 -17t-10 -10q-3 -3 -6.5 -6t-8.5 -4q-6 -1 -8.5 -2.5t-4.5 -5.5q-1 -10 -2.5 -11.5t-2.5 -3.5q-6 -10 -12.5 -17.5
l-12.5 -14t-12 -14t-13 -18.5q-6 -4 -9 -11q-18 -10 -26.5 -15.5t-15.5 -13.5q-6 -4 -6 -6t-2 -4q-10 -8 -11.5 -12.5t-4.5 -6.5q-10 -7 -15 -12.5t-13 -8.5q-6 -5 -17 -12t-24 -13t-25.5 -8.5t-21.5 1.5q-4 3 -7 5.5t-7 4.5q-7 8 -14.5 13.5t-13.5 14.5q-7 10 -9.5 21.5
t-7.5 22.5q-1 12 0 23.5t4 19.5q11 34 26.5 59t21.5 57q-11 11 -12.5 20.5t-5.5 26.5q-26 -17 -48 -43t-39 -53q-7 -12 -12 -22t-12 -18q-5 -5 -5 -6.5t-2 -3.5q-8 -10 -10 -14t-4 -7t-5 -6t-5 -6l-25.5 -37.5l-23.5 -35.5q-5 -8 -9 -17t-10 -16q-10 -1 -11.5 3t0.5 7
q-6 4 -9.5 12.5t-4 18.5t0.5 20t4 17q-3 9 -2 10t1 3l26.5 36t28.5 34q5 7 9.5 14t10.5 13q9 16 20.5 30t19.5 31q5 5 7.5 11t8.5 10q7 12 11 23t11 19q2 7 5 11t8 9q1 5 5.5 8.5t7.5 8.5q2 7 5 9t3 7l10 10.5t9 13.5q14 8 19.5 8t8.5 5q8 0 19 0.5t12 -7.5q1 -2 0 -5l-2 -6
q1 -9 0 -9.5t-1 -1.5q-1 -3 -0.5 -7t0.5 -9q-1 -8 -2 -12.5t4 -11.5q2 -3 6 -5.5t7 -6.5q3 -3 3.5 -6t3.5 -6q2 -3 6 -5t6 -7q5 -4 3.5 -5t4.5 -4q12 -15 17 -31q6 -12 11 -20t0 -16q-2 -2 -3.5 -5l-3.5 -7q-4 -4 -8 -10q-2 -4 -3 -7.5t-3 -6.5q-9 -14 -18.5 -26t-16.5 -25
q1 -29 11 -42q12 -14 15 -14q6 -1 14 4l13 8q4 2 7 4t7 3q11 4 10 2.5t1 -1.5z" />
    <glyph glyph-name="s" unicode="s" horiz-adv-x="312" 
d="M106 147q2 -4 -1.5 -11t-5.5 -12q1 -4 2 -6.5t-1 -6.5q7 -5 9 -11.5t7 -13.5q5 -6 10.5 -10t10.5 -9q5 3 8 3t8 2q9 12 14 28q1 4 2 9t1 9q-1 14 -8 27t-11 27q-4 8 -2.5 18t-0.5 18q-1 5 -3 8t-4 7q-2 8 -1.5 18t-4.5 17q-4 -4 -13 -15l-19 -24l-18.5 -24t-12.5 -15
q-5 -7 -11 -12.5t-11 -12.5l-13.5 -16.5l-19.5 -24.5l-18.5 -24.5l-11.5 -15.5l-10.5 -15l-19 -26l-19 -26t-10.5 -16q-6 -10 -15.5 -17.5t-22.5 -7.5q-1 1 -2 5.5t-1.5 9.5t-2 9.5t-2.5 6.5q3 6 4.5 12t8.5 11q2 7 12 22.5l22 32.5l22.5 32l14.5 21q4 4 13 15t18 23.5
l17.5 23.5l12.5 16q3 9 13 24.5t22 32l23.5 31.5t17.5 24l8.5 14l7.5 13q2 2 4 4.5t3 4.5q2 8 -2 11.5t-3 10.5q8 16 17.5 21.5t17.5 16.5q5 4 9.5 6t9.5 7q4 4 10 4.5t11.5 -1t10 -4t5.5 -4.5q1 -3 0 -8l-2 -10q-2 -9 -4 -16.5t-4 -16.5q-2 -11 -3.5 -21t6.5 -19
q-1 -5 0.5 -12t3.5 -13q2 -32 11.5 -63.5t20.5 -57.5q0 -5 1.5 -10t3.5 -10q3 -32 -6 -63.5l-17 -61.5q-6 -10 -10 -23q-2 -6 -4 -10t-6 -9q-5 -8 -9 -18t-16 -16q-7 -2 -13.5 0t-12.5 0q-5 -1 -9 -2.5t-8 -1.5q-13 -2 -21.5 2.5t-20.5 6.5q0 3 -3 4.5t-5 3.5q-4 16 -8 23
t-6 15q-3 11 -3 21.5t-5 21.5q-4 8 -3.5 11t0.5 6q0 13 -1.5 28.5t12.5 25.5q5 4 7.5 10.5t8.5 11.5q2 2 6.5 2t6.5 -1z" />
    <glyph glyph-name="t" unicode="t" horiz-adv-x="304" 
d="M305 552q13 -2 22 -3t16.5 -1.5t15.5 0t20 2.5l39.5 5.5t38.5 4.5q6 1 12.5 0t12.5 -1q13 0 25.5 1t23.5 2q4 1 7 2t6 0q9 0 18 0.5t16 -6.5q3 -10 2 -11t-2 -3q-1 -13 -3.5 -13t-2.5 -2q-8 -2 -13.5 -3.5t-8.5 -6.5q-17 -4 -31.5 -1.5t-29.5 -4.5q-7 -3 -14.5 -7.5
t-18.5 -0.5q-10 0 -23 -1l-25 -2l-39.5 -3.5t-31.5 -2t-30.5 -1.5t-37.5 -1q-8 -7 -10.5 -17t-10.5 -16q-8 -19 -13 -25.5t-7 -15.5q-14 -18 -25.5 -37.5t-26.5 -36.5q-2 -11 -7.5 -19.5t-7.5 -22.5q-11 -15 -16 -33t-13 -38q-2 -8 -4.5 -15.5t-5.5 -15.5q-4 -10 -9.5 -18.5
t-10.5 -18.5q-2 -2 -2 -5.5t-1 -5.5q-3 -7 -6 -12.5t-5 -10.5t-2.5 -10.5t-2.5 -10.5q-1 -3 -2 -5.5t-2 -5.5q-3 -14 0 -19t5 -10q2 -6 4 -10.5t3 -9.5q5 -2 9.5 -4t9.5 -2q6 -1 13 5.5t12 7.5q7 2 13.5 2t11.5 3q6 5 10 10t11 7q16 4 17 6.5t7 7.5q7 5 12.5 9.5t13.5 9.5
q10 5 11.5 6t8.5 7q10 5 17 11t16 11q10 4 12 5.5t2.5 2.5t2 3t9.5 7q4 8 9 13t12 13q6 7 12.5 12t11.5 10q3 2 5 4.5t7 3.5q6 5 9.5 8.5t11.5 10.5l5 5t5 4q4 0 6.5 -3t6.5 -3q-1 -13 -1 -16.5t-2 -7.5q-6 -9 -13.5 -10t-11.5 -11q-3 2 -7.5 1t-6.5 -3q2 -4 2 -7t1 -7
q-18 -18 -24 -29q-12 -13 -13 -14.5l-1 -1.5l-1 -1l-7 -7q-14 -11 -21 -21t-21 -18q-11 -8 -15 -12t-12 -11q-4 -4 -7.5 -8.5t-8.5 -8.5q-7 -5 -13.5 -9t-11.5 -10q-15 -7 -21.5 -16t-19.5 -17q-9 -6 -24.5 -15t-26.5 -13q-3 -1 -5.5 -2t-5.5 -2l-15.5 10t-12.5 14
q-9 7 -14.5 10t-10.5 8q-10 17 -22.5 34t-19.5 38q-2 4 -2.5 8.5t-1.5 9.5q-2 8 -4 14t-1 15q0 6 2 13t4 15q4 13 9.5 25t8.5 26q3 11 6 20l7 20q2 5 2.5 9.5t5.5 6.5q4 20 13 38.5l18 35.5q11 21 20.5 43t20.5 43q1 12 8 20q1 11 8 21.5t10 21.5q-11 3 -24.5 0.5
l-23.5 -4.5q-18 -1 -38 0q-7 1 -13.5 2.5t-12.5 1.5q-9 -1 -13.5 1.5t-9.5 0.5q-13 11 -19 15l-11.5 7.5t-10 8t-7.5 13.5q0 3 3 5t5 4q8 2 18 1.5t16 3.5q16 -2 29.5 2t28.5 3q3 0 6 -1t6 -1q5 -1 8.5 0t8.5 2q6 1 13 0t14 0q13 1 31.5 -2.5t32.5 1.5q5 14 11.5 28.5
t10.5 28.5q4 6 8 13.5t6 14.5l9.5 16t8.5 12q7 14 10.5 27.5t9.5 29.5q13 14 26 34q7 -1 11.5 4t13.5 -1q0 -3 2.5 -5.5t0.5 -7.5q5 -5 8 -9t5 -9q2 -8 -1.5 -18.5t1.5 -19.5q2 -5 1 -9.5t1 -8.5q2 -5 5.5 -10t3.5 -13q0 -3 -1.5 -7.5t-3.5 -9.5q-4 -15 -6 -21t-4 -13
q-7 -8 -7 -10.5t-1 -4.5q-3 -6 -6.5 -14.5t-6.5 -13.5z" />
    <glyph glyph-name="u" unicode="u" horiz-adv-x="443" 
d="M245 29q-6 13 -2 39q2 11 3.5 17.5t3.5 22.5q2 15 5.5 31t5.5 32q-15 -23 -28 -48.5t-31 -42.5q-3 -9 -7 -12.5t-8.5 -6t-9 -5.5t-7.5 -12q-5 -5 -9.5 -10.5t-6.5 -13.5q-5 -2 -10 -8q-9 -9 -12 -10t-5 -3q-10 -8 -17.5 -12t-17.5 -5q-11 -2 -28.5 -3t-27.5 -2
q-7 5 -10 6t-11 4q-13 5 -14 5.5l-5 2.5q-8 6 -11 9.5t-7 7.5q-17 26 -19 66q-1 14 5 28l11 25t13 23t13 22q3 6 3 9.5t-1 6.5t-1 6t3 9q2 7 6 14l9 16q10 17 19 28.5t15 29.5q5 14 13.5 21.5t20.5 13.5q5 -2 14.5 1.5t14.5 7.5q7 0 11 4q11 2 11.5 0t2.5 -2q2 -1 5.5 0
t5.5 0q3 -10 5 -13t2 -5q0 -3 -0.5 -8t-1.5 -7q-6 -8 -6.5 -9.5t-1.5 -3.5q-6 -8 -15 -21.5l-16 -23.5q-5 -8 -10 -11t-9 -11q-2 -4 -3 -7.5t-3 -7.5q-11 -23 -26 -48.5t-27 -48.5q-1 -8 -3.5 -15.5t-2.5 -14.5q0 -1 -0.5 -5.5t-0.5 -10v-10.5t1 -6q6 -8 7 -7.5t2 -0.5
q4 -10 5.5 -11.5t6.5 -3.5q4 -1 11.5 1.5t11.5 4.5q12 6 18 12.5l12 13.5q5 6 14 18l18 24.5l18 24l14 17.5q6 13 14.5 24t14.5 23l14 27l14 26q6 8 12.5 15.5t9.5 20.5q2 7 7.5 13.5t8.5 11.5q7 6 9.5 11t6.5 7q11 3 17 4.5t15 -0.5q8 5 17 5t17 -1q0 -5 2.5 -6.5t2.5 -5.5
q4 -9 0 -22t-5 -26q-2 -10 -7.5 -18.5t-8.5 -19.5q-4 -15 -5 -18t-3 -11q-4 -18 -8 -33.5t-6 -35.5q0 -5 -1.5 -10.5t-1.5 -9.5q0 -5 0.5 -12t5.5 -9q6 -2 9.5 1t10.5 7q5 4 10 9t10 9q5 5 11 8t11 8q16 14 30.5 29t31.5 25q16 17 32.5 31.5t37.5 24.5q8 -13 4 -21.5
t-10 -16.5q-2 -2 -7 -5t-8 -5l-5 -5t-5 -3q0 -4 -2.5 -6.5l-4.5 -4.5q-13 -20 -29 -35.5l-31 -31.5q-7 -2 -8.5 -6.5t-6.5 -8.5q-4 -5 -8 -8.5t-8 -8.5q-6 -7 -10.5 -13.5t-12.5 -12.5q-5 -5 -7.5 -10.5t-7.5 -10.5q-8 -8 -11.5 -7.5t-5.5 -9.5q-8 -6 -9 -8.5t-3 -1.5
q-2 -1 -7 -1.5t-5 -2.5q-7 -3 -10.5 -6t-9.5 -4q-13 -2 -18.5 1.5t-11.5 10.5z" />
    <glyph glyph-name="v" unicode="v" horiz-adv-x="392" 
d="M143 346q8 2 9 0.5t4 -1.5q4 -5 1 -16q-4 -17 -14 -30.5t-16 -28.5l-11 -21.5t-7 -15.5q-5 -11 -10 -24.5l-10 -27.5q-4 -8 -6 -13q-5 -11 -8 -19.5t-4 -21.5v-27q2 -14 2.5 -30t6.5 -27q13 6 27 20.5t25 22.5q7 10 15.5 18.5t14.5 19.5q12 10 16 26q5 6 9.5 12.5
l9.5 13.5q8 11 13 25q3 8 2.5 16t-0.5 16q1 9 3 17t1 16q2 4 3.5 8.5t3.5 9.5t7.5 11l10.5 11q7 9 13 18t15 14l12 5t12 4q7 1 20 4.5t20 1.5q4 -1 7.5 -4.5t8.5 0.5q8 -9 8 -15t-4 -13q-6 -9 -7 -11.5t-2 -4.5q-9 -15 -18 -33t-15 -34q10 -5 26.5 -4.5t29.5 3.5q4 1 7.5 2
t7.5 2q8 2 19.5 3.5t19.5 5.5q11 6 14 6t7 2q19 5 32 10q7 2 14 5.5t13 1.5q2 -2 1.5 -7t2.5 -10q-8 -7 -12 -6q-16 -8 -34.5 -14.5l-35.5 -12.5q-12 -5 -16 -4.5t-9 -1.5q-18 -8 -28.5 -11t-17.5 -7q-3 -2 -5.5 -4.5t-6.5 -3.5q-16 -3 -29 -2.5t-26 -6.5q-3 -6 -8 -13.5
t-11 -12.5q-5 -10 -10.5 -17t-12.5 -15q-9 -8 -18 -17l-17 -17q-14 -23 -32.5 -42.5t-38.5 -38.5q-5 -1 -9.5 -4.5t-9.5 -5.5q-13 -4 -15 -5l-6 -3q-8 -4 -10.5 -5.5t-4.5 -3.5q-3 -2 -6 -2t-5 -4q-13 2 -15 -3q-5 0 -8 -1t-7 0q-3 2 -4.5 4.5t-3.5 4.5q-15 6 -18 13t-9 11
q-5 12 -5.5 24t-2.5 25q-1 4 -2 7.5t-2 7.5q-2 8 -1.5 16t-2.5 16q5 17 1 31q2 7 5 18.5t4 19.5q1 10 2.5 18.5t4.5 16t7 16t10 19.5q4 9 9 18t10 19l6.5 13t6.5 11q3 5 5 9t7 9q8 8 15 12.5t17 9.5q5 -1 11.5 0.5l13 3t11.5 2t7 -2.5z" />
    <glyph glyph-name="w" unicode="w" horiz-adv-x="622" 
d="M68 71q12 5 24 14q8 11 17 21t19 20l11.5 12l12.5 13q2 2 4 3.5t4 4.5q5 7 9 13.5t10 13.5q7 4 13 11t12 13q2 2 4.5 4t4.5 4q3 3 4.5 7t3.5 8q8 14 16 25q22 12 45 21t44 8q2 -2 6 -4t6 -7q5 -8 2 -19t-10 -16q-8 -23 -11 -52t-2 -55q-2 -3 -1.5 -8.5t-2.5 -7.5
q4 -8 10 -16t17 -8q12 3 15 3t5 1q4 2 6.5 4.5t5.5 3.5q2 4 4 6t4 5q10 12 19.5 26l18.5 27l10.5 17t9.5 20q2 5 4.5 10.5t4.5 11.5t0 16.5t0 15.5q5 7 5 12q7 11 7 13t1 4q2 2 4 4.5t2 6.5q16 16 41 26q18 3 31.5 8.5t21.5 -3.5q-2 -3 1 -5.5t3 -5.5q1 -5 -0.5 -8t-1.5 -6
q-6 -11 -7 -11t-2 -1q-2 -4 -3.5 -9.5t-3.5 -11.5q-3 -8 -7 -17.5t-10 -18.5q-5 -12 -1.5 -15.5t3.5 -8.5q3 -2 6.5 -3t6.5 -3t5.5 -5t7.5 -5q3 -1 8.5 -0.5t11.5 -0.5q8 -1 10.5 0t7.5 5q11 6 13.5 9t4.5 5q5 2 9.5 2t8.5 2q11 4 24.5 10t24.5 12q5 2 9.5 4t6.5 7
q4 1 5.5 1.5t6.5 0.5q2 -5 5 -9t-3 -10q-11 -11 -26.5 -20t-26.5 -21q-12 -5 -22 -11.5t-24 -10.5l-22 -13.5t-12 -5.5q-18 0 -33 -1q-5 -1 -8.5 1t-9.5 4q-14 4 -20 10t-12 11q-7 -11 -12.5 -24t-13.5 -22q-3 -10 -8 -17t-9 -18q-10 -11 -17 -24.5t-18 -23.5
q-23 -29 -59 -49q-7 2 -14 -2t-12 -1q-21 -5 -27.5 3t-13.5 11q-9 14 -10.5 25t-4.5 22q-2 6 -4.5 10.5t-1.5 9.5q-3 13 -6.5 21.5t-5.5 19.5q-1 9 -0.5 18t-2.5 19q-18 -3 -22.5 -12.5t-12.5 -14.5q-4 -11 -11 -16.5t-12 -16.5q-11 -6 -19.5 -16t-19.5 -19
q-10 -6 -13.5 -10t-8.5 -6q-3 -5 -8 -9.5t-10 -9.5t-9 -9.5t-9 -8.5q-4 -5 -7.5 -7.5l-6.5 -4.5t-6 -5.5t-5 -4.5q-14 -9 -22 -13.5t-14 -1.5q-8 -2 -15 2.5l-13 8.5q-5 7 -10 13t-7 14q-6 8 -11 18.5t-9 21.5q-1 20 -3 30t-1 20q1 12 7.5 21.5t10.5 19.5q-1 8 3 12t3 10
q9 24 19 36.5t15 29.5t12.5 29.5t12.5 28.5q4 7 6.5 15t7.5 16q3 3 5.5 6t5.5 5q8 2 14 7t14 7q7 2 11.5 2t9.5 3q13 8 17.5 9t9.5 3q7 -6 11 -12.5t2 -16.5q-6 -6 -7 -9.5t-3 -6.5q-2 -4 -6 -7t-6 -7l-3.5 -7t-3.5 -6q-2 -2 -4.5 -4t-4.5 -5q-2 -2 -3 -5t-3 -6
q-4 -5 -9.5 -9t-7.5 -8q-2 -6 -3.5 -14.5t-3.5 -16.5q-3 -10 -11 -25.5t-12 -26.5q-2 -9 -3.5 -17.5t-3.5 -16.5q-1 -4 -3 -7t-3 -6q-5 -14 -5.5 -30t11.5 -20z" />
    <glyph glyph-name="x" unicode="x" horiz-adv-x="401" 
d="M151 225q9 6 17.5 13l17.5 14l43 33.5l43 33.5q3 4 9 8q11 6 11.5 7.5t2.5 2.5q4 2 9.5 0.5t10.5 0.5q13 3 27 0t18 -5q5 2 9 2.5t8 1.5q8 0 11.5 -3t6.5 -6q0 -3 0.5 -6.5t-1.5 -7.5q-10 -9 -21 -17.5t-25 -14.5q-15 -8 -20.5 -13.5t-13.5 -7.5q-15 -7 -26.5 -15.5
t-25.5 -16.5q-16 -12 -33.5 -22.5t-33.5 -23.5q-6 -4 -8.5 -6.5t-5.5 -4.5q1 -7 3 -12.5t2 -13.5q2 -3 3.5 -7t3.5 -8q5 -9 8.5 -17.5t9.5 -17.5q4 -6 7.5 -12t9.5 -9q2 -5 4.5 -7.5t4.5 -7.5q4 -7 10.5 -7t13 2t13.5 5t13 6q10 1 15.5 5.5l11.5 9.5q5 4 10.5 7t10.5 8
l20 13.5t21 11.5q5 7 11.5 11.5t12.5 9.5q9 6 14 11t13 10q6 6 10 9t8 7q7 3 12.5 6.5t9.5 10.5q5 0 8.5 3.5t8.5 4.5q2 -9 0 -14.5t-5 -9.5q-6 -6 -12 -11t-14 -9q-2 -2 -4.5 -3.5t-4.5 -3.5t-4.5 -3.5t-4.5 -3.5q-5 -10 -8.5 -12t-6.5 -6q-7 -4 -10.5 -8t-11.5 -9
l-36 -33.5t-32 -26.5l-28 -15.5t-29 -16.5q-4 -2 -8 -5t-7 -4q-5 -2 -10.5 -1.5t-10.5 -4.5q-10 -4 -21 -9t-20 -4q-5 1 -8.5 3.5t-8.5 1.5q-3 7 -13 11t-7 15q-6 8 -11 17t-10 17q1 13 -3.5 21t-9.5 16l-2 6l-2 6q-2 5 -4.5 9t-3.5 9q-11 -6 -16 -10t-14 -12l-9 -7l-9 -7
q-12 -7 -19 -14q-5 -5 -8 -9t-8 -7l-10.5 -6t-10.5 -7t-8.5 -7.5t-9.5 -7.5q-3 -2 -6 -6t-7 -6q-6 -5 -13 -8t-13 -8q-12 -12 -22 -18.5t-23 -4.5q-5 3 -10.5 4.5t-10.5 4t-9.5 5.5t-4.5 5q4 4 8 6.5l9 5.5q11 11 22.5 18.5l23.5 15.5q8 5 12.5 12t12.5 13q4 7 9 10
q2 2 4.5 5t4.5 5q11 6 11 7t1 2q8 6 12 12l7 4.5t8 5.5q10 8 18.5 14l17.5 13q5 5 11 9t11 8q6 12 3 15t-4 5q-1 4 -1 8.5t-1 8.5l-3 15q-1 8 -4 14.5t-5 14.5q-2 6 -3.5 12.5t-3.5 11.5q-2 6 -3.5 13t-3.5 12q-3 5 -4 8t1 10q1 5 1 9t4 7q8 5 10 7l4 4q8 3 17 8.5t16 8.5
q14 9 20.5 3.5t8.5 -13.5q-5 -12 -4.5 -15t0.5 -6q-2 -10 -2 -17.5t6 -12.5q-2 -4 -0.5 -7t3.5 -5q3 -17 10 -30z" />
    <glyph glyph-name="y" unicode="y" horiz-adv-x="458" 
d="M74 79q10 -2 18 5t17 12q4 5 9.5 10.5t11.5 9.5q14 18 31 34q8 10 16 19t16 19q5 7 8 13t7 12q5 8 11.5 16t9.5 19q4 6 10.5 10t10.5 10q3 4 5 9t6 8t4.5 5t2.5 4q3 5 7.5 9t8.5 9q11 9 18 15.5t15 11.5q18 6 36.5 4t26.5 -13q1 -13 3.5 -24.5t-3.5 -29.5q-4 -10 -10 -20
t-9 -20l-4 -6t-4 -5q-10 -27 -21 -52.5l-22 -51.5q25 12 38 21t28 17l18 12t19 12q8 10 18 16.5l21 13.5q7 7 14 11.5l15 9.5q5 4 9.5 8t9.5 7q4 4 7.5 8t8.5 7q5 2 9 4t9 5q4 2 7.5 5t8.5 5l7 9.5t11 3.5q2 3 7.5 3t8.5 -2q0 -4 1.5 -6t-0.5 -7l-9 -7.5t-10 -5.5
q-13 -14 -22.5 -20t-15.5 -17l-35 -34l-36 -33q-6 0 -11 -4t-10 -2q-6 2 -10 -8q-13 -14 -27.5 -26t-30.5 -23q-20 -21 -45 -36.5t-45 -35.5q-2 -20 -10.5 -38.5t-13.5 -36.5q-8 -17 -11.5 -30t-10.5 -25q-3 -17 -10 -31.5t-15 -28.5q-2 -11 -10 -21t-13 -22q-2 -5 -5 -9.5
t-5 -9.5q-3 -5 -5 -10t-5 -10q-2 -2 -4 -4.5t-4 -4.5l-12 -21q-8 -17 -20.5 -28.5l-26.5 -25.5q-5 -5 -8.5 -10t-8.5 -10t-10 -9.5t-10 -10.5q-8 -3 -13 -9.5l-10 -13.5q-4 -2 -6.5 -4.5t-6.5 -4.5q-8 -3 -10 -4.5t-4 -2.5q-7 -4 -15 -4.5t-14 -5.5q-10 0 -14.5 4t-8.5 9
q-5 9 -4.5 20t3 23l5 23.5t1.5 22.5q5 16 6 27t4 20q7 11 8 16t6 7q1 6 3 10t3 9q3 2 5 5t6 5q10 20 15.5 34t12.5 28q3 8 5 15t5 13q5 11 13.5 22l16.5 22q7 9 9.5 13l4.5 7q8 6 7.5 7.5t0.5 1.5l12.5 12l13.5 12q6 7 12 13t14 11q6 7 12 13t14 11q16 11 29 24.5t28 24.5
q2 14 7 25t7 24q4 7 7 16t5 17q3 3 4.5 8t3.5 11q5 10 5 17q1 6 1 10.5t2 10.5q1 5 1 14q-7 -6 -12.5 -14l-10.5 -15l-4.5 -4.5t-3.5 -7.5q-5 -6 -7 -7t-2 -3l-45.5 -53.5l-45.5 -53.5q-9 -8 -19 -15.5l-21 -15.5l-19 -14.5t-27 -3.5q-23 -9 -37.5 3.5t-22.5 27.5
q-4 6 -6.5 10.5t-1.5 15.5q2 11 5 22.5t5 25.5q2 11 3.5 22t4.5 23q3 14 8 27t12 22l9.5 28.5l9.5 27.5q5 16 12 31t15 29q5 7 9.5 12.5l9.5 11.5q10 1 16 3.5t12 5.5q7 2 14 3.5t13 3.5q11 5 14 4.5t5 2.5q2 -5 6 -6.5t5 -6.5q0 -7 -5.5 -17t-7.5 -15q-4 -7 -8 -16t-9 -16
q-2 -9 -5.5 -17.5t-6.5 -17.5q-10 -11 -17.5 -25l-15.5 -30q-2 -5 -4.5 -9t-4.5 -9q-2 -9 -3.5 -18t-3.5 -18q-2 -5 -3.5 -10.5t-2.5 -12.5q-2 -14 -3 -28t-1 -29zM216 -7q-20 -13 -35 -28.5l-31 -31.5l-14 -15.5t-13 -16.5l-10.5 -18.5t-13.5 -17.5q-12 -11 -15 -17.5
t-6 -11.5l-7.5 -15.5t-8.5 -14.5q-5 -10 -9 -20t-9 -20q-7 -18 -11 -34.5t-3 -33.5v-7.5t3 -5.5q5 0 15 4l15.5 14t14.5 15l15 16.5l15 15.5q14 16 25 34.5t19 41.5q6 11 10 23.5t10 22.5q11 32 23 61.5t22 59.5h-1z" />
    <glyph glyph-name="z" unicode="z" horiz-adv-x="319" 
d="M140 178q11 2 23.5 4t26.5 1q7 0 13 1.5t14 -0.5q3 -1 6.5 -1t5.5 -1t4 -3t6 -4q14 -13 18.5 -26.5t3.5 -24.5q0 -5 -1.5 -11t-3.5 -12q-1 -6 -2.5 -13.5t-3.5 -14.5q-4 -14 -10.5 -25t-14.5 -22l-9.5 -15.5t-10.5 -12.5q-8 -16 -16.5 -29l-17.5 -26q-10 -11 -16.5 -23
t-16.5 -23q-4 -6 -8 -11t-9 -10t-8.5 -10.5t-8.5 -10.5q-8 -11 -17 -21.5l-18 -20.5q-10 -11 -19 -20t-20 -17q-13 -5 -23 -15.5t-21 -19.5q-14 -11 -25.5 -23.5t-25.5 -23.5q-5 -4 -10 -7.5t-10 -8.5q-17 -12 -27.5 -17.5t-20.5 -11.5q-4 -2 -7 -5.5t-6 -5.5
q-6 -2 -11 -3.5t-10 -3.5q-3 -2 -9.5 -3.5t-13 -2t-12 0t-8.5 3.5q-7 5 -7.5 7t-1.5 4q-4 5 -7 10t-8 10q-2 8 -2 15.5t6 11.5q-2 20 8 36.5t18 31.5l33.5 34l33.5 35q7 12 17.5 21t20.5 20q6 8 13.5 14.5t15.5 14.5l12 10l12 10q5 5 11.5 9t11.5 10q10 12 16.5 17.5
t11.5 11.5q12 11 16 17.5t11 9.5q5 6 9 12.5t10 12.5q3 3 7.5 6.5t7.5 8.5q2 5 2.5 11t2.5 12q6 3 8 0.5t5 -4.5q4 -11 1.5 -22t-10.5 -19l-21 -28.5t-23 -19.5q-4 -5 -7 -11.5t-9 -9.5l-11.5 -18.5t-12.5 -16.5q-3 -5 -7 -8t-6 -10q-5 -10 -14 -15t-13 -16l-34 -33
l-29.5 -28.5t-26.5 -28.5l-21 -25q-8 -11 -10 -17.5t0.5 -9.5t8 -2.5t11.5 3.5q13 6 18.5 10.5t13.5 10.5l27 16t25 19q13 10 23.5 22t22.5 24q14 21 31.5 38.5t35.5 33.5q15 24 29.5 43.5t31.5 36.5q3 3 5 6.5t4 8.5q9 14 19 27t21 29q10 15 15.5 30.5t10.5 35.5q-3 5 -4 8
t-3 6q-6 8 -21 9.5t-25 -1.5q-5 -2 -9.5 -4.5t-9.5 2.5q-14 -3 -27.5 -9.5t-27.5 -12.5q-7 -2 -14 -5.5t-13 1.5q-4 3 -8.5 10t-6.5 12q-2 3 -4 8.5t0 11.5q2 5 8.5 12.5t10.5 10.5t8 4.5l9 3.5q5 3 10 8.5l10 10.5q8 8 17.5 12.5t14.5 12.5l24.5 17t25.5 22q3 3 5.5 6
t5.5 6l18.5 22.5t12.5 29.5q1 5 -6.5 11.5t-11.5 7.5q-5 1 -9 -0.5t-8 -2.5l-14 -4l-14 -4q-3 -1 -5 -3l-4 -4l-15 -5t-8 -2q-4 -4 -5.5 -8.5t-4.5 -8.5q-2 -4 -5.5 -5.5t-5.5 -4.5q-5 -13 -9 -16.5l-9 -7.5q-4 0 -8.5 -3t-8.5 -1q-7 -5 -17.5 -1.5t-13.5 10.5q-2 11 -10 18
t-10 18q-2 8 -1 16.5t3 18.5q4 2 6.5 5.5t5.5 6.5q18 10 37.5 15.5t40.5 10.5q11 2 21 5.5t20 5.5q12 2 23.5 4.5t24.5 4.5q8 -3 17 -0.5t17 -1.5q3 -1 5 -4t5 -5t6.5 -3.5t6.5 -3.5q11 -11 17 -13.5t11 -6.5q1 -6 4 -9.5t5 -8.5q0 -25 -17 -35l-27.5 -36.5t-30.5 -33.5
q-2 -5 -5.5 -8t-5.5 -8q-6 -3 -11 -9.5l-10 -12.5q-4 -5 -8.5 -9t-7.5 -9z" />
    <glyph glyph-name="braceleft" unicode="{" horiz-adv-x="283" 
d="M173 345q5 -5 10.5 -9t9.5 -9q1 -11 5.5 -18.5t7.5 -15.5q2 -5 0 -21q-1 -5 -1 -10.5t-1 -10.5q-2 -7 -5 -14.5t-5 -15.5q-6 -14 -14 -30l-16 -31q-5 -8 -8 -15t-8 -15q-3 -8 -7 -15l-8 -14q-7 -11 -13 -23l-12 -23q-8 -9 -12 -18q-5 -9 -6 -18.5t-5 -19.5q-5 -14 -1 -18
l7 -7q7 -6 10.5 -4.5t10.5 1.5q5 0 10.5 -2t5.5 -4q-21 -11 -34 -14.5t-27 -1.5q-6 1 -9.5 3t-7.5 4q-5 2 -7 4.5t-4 5.5q-2 2 -5.5 6.5t-4.5 8.5q0 7 -1 9.5t-2 4.5q-1 4 0 7t2 8q1 9 2.5 12.5t2.5 6.5q4 15 8 32.5t13 33.5q8 14 14.5 27.5l14.5 29.5q6 12 10.5 25.5
t9.5 24.5t7 22.5t6 24.5l10 28t2 25q-5 3 -12 4t-13 3q-4 2 -6 5.5t-7 2.5q2 4 0 6.5t-2 6.5q1 5 6 13t7 14q6 15 20 20.5t22 6.5q6 2 11 0q11 6 20.5 14l20.5 17q5 6 7.5 12l5.5 13q9 23 19.5 47t18.5 47q3 10 5 14.5t4 9.5q1 5 3 13t5 15q10 20 18 33l16 25q5 8 9.5 17
t10.5 16l9.5 9.5t6.5 9.5q8 8 16.5 15l17.5 14q16 5 28.5 15.5t29.5 15.5q6 2 13 3.5t15 4.5q5 1 8 1.5t7 1.5q4 3 10 3.5t10 0.5q8 -1 12.5 -5t6.5 -9q-1 -7 0.5 -10.5t-2.5 -5.5q-7 -1 -14.5 0t-14.5 -1q-2 0 -5.5 -1.5t-5.5 -2.5q-8 -2 -17 -3.5t-14 -3.5
q-3 -2 -5.5 -5.5t-6.5 -5.5q-5 -5 -10 -6.5t-9 -6.5q-9 -17 -15 -24t-11 -15q-12 -18 -22 -35t-20 -39q-9 -21 -18 -45q-2 -6 -3 -13t-4 -13q-8 -20 -17.5 -41t-17.5 -41t-19 -38t-28 -33q-11 -9 -25.5 -14t-29.5 -9z" />
    <glyph glyph-name="bar" unicode="|" horiz-adv-x="262" 
d="M375 741l-17.5 -51t-21.5 -54q-17 -36 -37.5 -71t-31.5 -69q-2 -10 -4.5 -19t-4.5 -18q-5 -16 -6.5 -22t-4.5 -13q-12 -28 -26.5 -57t-25.5 -59q-13 -30 -27.5 -59t-27.5 -58l-17.5 -40t-17.5 -38l-11.5 -26.5t-8.5 -24.5q-10 -15 -19 -32t-23 -26q-8 -5 -20 -10l-12 -5
t-10 -2q-6 8 -9 8.5t-5 2.5q-7 4 -7.5 7.5t4.5 14.5q2 5 3 9.5t3 7.5q5 11 12 21.5l14 21.5t12 24l10 25q8 20 15 40t17 43l8.5 22.5l8.5 22.5t7.5 23t8.5 23q2 5 6.5 11t7.5 14q9 17 18.5 37.5l17.5 36.5q8 17 15 34l15 35l31.5 65.5t30.5 65.5q4 8 7.5 17t7.5 17l9.5 17.5
l9.5 17.5q5 12 9 24t12 25q1 2 3.5 4t4.5 5l4 8t4 6t5.5 4t7.5 5q5 4 7 6t7 2q10 0 16 -2q4 -2 4 -5.5t3 -7.5z" />
    <glyph glyph-name="braceright" unicode="}" horiz-adv-x="298" 
d="M212 375q-5 5 -10 9t-8 9q-2 11 -6.5 18.5t-7.5 15.5q-3 7 -1 20q1 6 1 11.5t1 10.5q2 7 5 14.5t7 15.5q5 14 13 30t16 30q4 8 7 15.5t8 15.5l7.5 15t8.5 13q7 12 12.5 24t12.5 23q3 5 6 9t5 9q5 9 6.5 18.5t4.5 18.5q1 3 2.5 5.5t2.5 4.5q0 5 -4 8.5t-6 6.5
q-8 7 -11.5 5.5t-9.5 -1.5q-5 0 -11 2t-6 4q21 11 34.5 14.5t26.5 1.5q6 -1 9.5 -3t8.5 -4q4 -3 6 -5l5 -5q2 -2 5 -7t4 -8q0 -7 1.5 -9.5t1.5 -4.5q1 -6 -2 -15q0 -10 -1.5 -13t-2.5 -6l-8.5 -32.5t-13.5 -33.5l-13.5 -27.5l-14.5 -29.5q-7 -12 -11.5 -26t-8.5 -24
q-5 -11 -7.5 -23t-6.5 -24q-5 -14 -9.5 -28t-2.5 -25q5 -3 12.5 -4t13.5 -4q3 -2 5 -5.5t7 -2.5q-2 -4 0.5 -6.5t1.5 -5.5q-1 -5 -6 -13t-7 -15q-3 -11 -8 -14t-11.5 -5.5t-12.5 -4.5t-10 -3h-11q-11 -5 -20.5 -13.5t-20.5 -16.5q-5 -6 -7.5 -12t-4.5 -13q-9 -23 -19.5 -47
t-19.5 -47q-3 -10 -5 -14.5t-3 -9.5q-2 -5 -4 -13t-5 -15q-15 -32 -33 -58q-5 -8 -9.5 -17t-10.5 -17q-5 -5 -10 -9t-7 -9q-8 -8 -16 -15t-18 -14q-16 -5 -28.5 -15.5t-28.5 -15.5q-7 -2 -14 -3.5t-14 -4.5q-5 -1 -8 -2t-8 -1q-3 -3 -9.5 -3.5t-10.5 -0.5q-8 1 -12.5 5
t-6.5 9q1 7 0 10t2 5q7 2 14.5 1t15.5 1q2 0 5 1.5t6 2.5q8 2 16.5 3t13.5 4q3 2 5.5 5t6.5 6q6 5 10.5 6.5t9.5 6.5q8 17 14 24t11 15l22.5 35t19.5 39q5 11 9.5 22t8.5 23q2 6 3.5 12.5t3.5 13.5l18.5 41t17.5 41q7 19 18.5 37.5t27.5 33.5q12 9 26.5 13.5t28.5 9.5z" />
    <glyph glyph-name="asciitilde" unicode="~" horiz-adv-x="446" 
d="M399 297q-6 -4 -13.5 -7.5t-15 -6t-14 -2t-10.5 3.5q-5 -1 -9.5 -1h-9.5q-20 -5 -30 -1.5t-21 5.5q-2 0 -5.5 -0.5t-6.5 0.5q-5 1 -8 4t-8 5q-8 2 -17 2q-8 2 -17 4t-20 1q-25 -2 -50.5 -10.5t-50.5 -13.5q-8 -2 -17.5 -5t-14.5 5q4 4 3 8.5t8 9.5q1 7 5.5 14t9.5 17
q26 17 55 23.5t58 17.5q18 1 37 -1t25 -15q10 -2 17 -6t14 -7.5t15.5 -5.5t21.5 1q11 -3 24.5 1.5t25.5 4.5q10 6 22 11t21 6q6 -2 8 -5.5t5 -7.5q-4 -6 -5.5 -11.5l-3 -11t-3.5 -11.5t-8 -13q-8 -2 -12 -2.5t-5 0.5z" />
    </font>
</defs>
</svg>
